<svg xmlns="http://www.w3.org/2000/svg" width="320" height="250" viewBox="0 0 320 250"><defs><style>.cls-1,.cls-2{fill:none;stroke:#000;}.cls-1{stroke-miterlimit:10;}.cls-2{stroke-linejoin:bevel;}</style></defs><g id="venda"><path id="empresa" class="cls-1" d="M289.4716,203.82735C287.23405,174.84744,280.905,91.6721,281.65069,87.571c.90378-4.97078,29.37283,31.63228,29.37283,31.63228s7.68213-2.71133,7.23024-4.51889S286.16959,70.78375,283.45825,68.5243s-35.69929-4.067-37.50685-5.87457.90378-20.335,0-22.59448-22.59448-2.71134-25.75771,0,1.27047,17.41566-4.10344,23.86435-168.66707-4.29912-176.19054,0-38.516,54.20952-38.516,54.20952l7.52347,3.22435s15.04693-19.34606,21.49562-26.86953-1.47364,99.98516-5.62358,119.19757H64.89687c.87907,0,1.09884-16.02417.21977-16.02417s-7.03252.6593-7.25229-.21976,6.81276-25.27314,5.27439-27.251-6.37322,16.922-6.37322,16.922l-3.07673-.43954s6.15346-19.5592,7.25229-21.5371,6.911-.29832,7.91159-1.09883c1.09883-.87907-3.9558-11.86739,4.17556-11.86739s-.87907,12.08715,1.53836,12.08715,5.2744.43953,5.9337,1.3186,5.5337,19.49438,5.5337,19.49438l-2.63719.6593s-5.31394-16.85718-6.193-16.19788,3.736,23.73476,5.27439,27.03126-7.91159,0-9.23018,1.09883-2.857,16.54707-.87907,16.54707h99.45034s2.12727-43.59564.88636-43.59564-7.12449,17.15909-7.12449,17.15909L162.213,187.236s6.95483-21.5909,9.0821-23.5409,4.06966-.35455,5.48784-1.24091.88637-10.28182,1.41818-12.05455,6.5591-1.06364,8.5091.17727-.88637,10.45909-1.24091,11.52273,2.62926-2.46254,5.04363,1.161c2.212,3.31974,13.89322,21.44025,13.89322,21.44025l-2.30107,1.46434c-1.65976-2.32366-9.92219-16.75224-11.59215-16.08834s.57753,43.60456.57753,43.60456h23.933c0-10.22691-3.25813-59.91334,0-64.80053s35.83939-4.07265,38.283,0-3.25813,63.624,0,64.80053"/><g id="moeda"><path class="cls-2" d="M165.50426,176.55947a55.36923,55.36923,0,0,0,21.43108-6.38549l-2.595-9.6129c-38.61573,19.45775-49.80352-20.20077-48.52293-23.8015s45.1581-1.6004,43.67206-4.944-42.35208-.37151-44.74033-2.53537-2.06987-5.63784.30565-9.15443,45.54921-2.056,43.69166-5.77115-42.31925-1.858-42.31925-1.858C147.60532,67.915,183.20456,90.578,183.20456,90.578l2.661-11.65163c-32.59877-14.324-52.053.28186-63.01869,33.57021,0,0-10.07136,0-12.48982,3.71558s11.42156,3.9136,11.42156,3.9136l-.24464,10.94678s-10.40227.37151-11.14529,3.34358,11.8484,2.34342,11.8484,2.34342c6.99582,27.125,20.319,36.87331,30.72331,39.79989"/><circle class="cls-2" cx="160" cy="126.74444" r="88.53265"/></g></g></svg>