<svg xmlns="http://www.w3.org/2000/svg" width="100" height="108" viewBox="0 0 100 108"><defs><style>.cls-1{fill:#707487;}.cls-2{fill:#0d1729;}.cls-3{fill:#47576d;}.cls-4{fill:#74b6b6;}.cls-5{fill:#004747;}.cls-6{fill:#007979;}.cls-11,.cls-7{fill:#fff;}.cls-8{fill:#a6a6a6;}.cls-9{fill:#a6a6b2;}.cls-10,.cls-12,.cls-13{fill:none;}.cls-10,.cls-11{stroke:#707487;}.cls-10,.cls-11,.cls-12,.cls-13{stroke-miterlimit:10;}.cls-12{stroke:#bec5d7;}.cls-13{stroke:#fabfc9;stroke-width:2.93546px;}.cls-14{fill:#fabfc9;}.cls-15{fill:#1d1d1b;}</style></defs><g id="ass-operacional"><path class="cls-1" d="M49.64235,49.58981c9.2382,0,16.4488-2.08619,16.4488-11.23333S69.57013,16.182,52.88061,16.182c0,0,0-2.88857-4.60231-2.88857-7.22143,0-14.14367,6.26595-14.14367,12.4406C34.13463,49.882,28.53973,49.58981,49.64235,49.58981Z"/><path class="cls-2" d="M49.64232,49.46247C57.73138,49.63908,66.43,47.57716,65.62981,37.666c.31689-11.58353,1.42291-21.10721-13.56464-20.55737L51.961,16.182a2.31759,2.31759,0,0,0-1.96925-1.70089c-3.56682-.65129-7.48091.86645-10.23229,3.18889-2.42876,2.087-4.28618,4.89965-4.31455,8.06667.02764,1.84788-.03436,3.72764-.109,5.57106C34.78545,48.27307,29.972,49.16643,49.64232,49.46247Zm0,.25464c-2.87479-.07791-9.35467.426-12.14471-.02133-5.63477-.44094-5.11637-6.34176-5.0524-10.47488l.29221-8.00379c.0499-1.64887.05274-3.33125.08007-4.98218a11.25457,11.25457,0,0,1,.44052-3.32934c1.81341-5.68671,7.10366-9.566,12.82327-10.495,2.16029-.273,4.78232-.31762,6.58156,1.315a3.56025,3.56025,0,0,1,1.1374,2.45609l-.91951-.91943c4.565.02859,9.98887,1.17839,12.405,5.55353,2.82125,5.26659,1.44267,11.24773,1.2816,16.8654.21638,10.27056-8.50041,12.06276-16.925,12.0359Z"/><path class="cls-3" d="M46.96319,48.06892c-4.96228,1.29464-12.52283.07616-12.305-6.456l.1083-3.033c.14827-3.81913.744-14.07695.976-18.021.168-4.3,3.30407-7.85586,6.84927-9.89763-2.82108,2.66456-5.33106,5.96543-5.1941,9.96725.15832,6.00943-.18894,12.07356-.63069,18.07467l-.255,2.97754c-.46972,5.42753,6.214,6.43311,10.45112,6.38818Z"/><path class="cls-3" d="M50.86077,47.68708c-9.47422,1.375-13.40264-9.9174-12.52682-17.60576l.1271.00444c.1309,8.76128,3.5627,15.56829,12.39972,17.60132Z"/><path class="cls-3" d="M49.47106,48.64973C39.997,50.02521,36.06839,38.73249,36.94424,31.04421l.1271.00445c.13083,8.76056,3.56254,15.56871,12.39972,17.60107Z"/><path class="cls-4" d="M82.24159,82.76335V62.43175c0-4.31478-14.49545-13.98461-32.02983-13.98461S18.18193,58.117,18.18193,62.43175v20.3316s14.965,11.99738,31.83533,11.99738S82.24159,82.76335,82.24159,82.76335Z"/><path class="cls-5" d="M82.11425,82.76325c-.73835-6.70862-1.22738-13.55241-1.54923-20.29491-.68568-1.97921-3.05-3.48152-4.84717-4.69173A44.83643,44.83643,0,0,0,63.09173,52.4383a49.50131,49.50131,0,0,0-27.22089.40894A42.2657,42.2657,0,0,0,23.47173,58.5904c-1.41549,1.069-2.98668,2.18036-3.60886,3.80731-.2595,6.07093-.70626,12.26964-1.19209,18.34186l-.36146,3.60791h-.25476L18.01848,69.9156l-.018-7.21607a3.32777,3.32777,0,0,1,.453-1.81274C24.1933,52.54592,39.67965,48.31,49.41539,48.20111A49.58856,49.58856,0,0,1,76.9197,55.99852c2.15731,1.575,4.674,3.2878,5.46116,5.98706.11446,1.65657-.00515,4.65788.02728,6.34579L82.369,82.76325Z"/><path class="cls-6" d="M25.88836,69.33308a44.73271,44.73271,0,0,1,.12834,19.68408,44.72505,44.72505,0,0,1-.12834-19.68408Z"/><path class="cls-6" d="M72.15056,69.44953a44.73245,44.73245,0,0,1,.12829,19.68409,44.72585,44.72585,0,0,1-.12829-19.68409Z"/><path class="cls-6" d="M40.418,50.68489c-5.505,2.933-16.83466,7.44353-18.74931,13.58938-.35566,1.68113-.601,6.19616-.77594,7.98125-.314,3.62077-.60006,7.25432-1.15358,10.8903a91.05534,91.05534,0,0,1-.64594-10.96093c.22013-3.67649-.45533-8.03118,1.8388-11.18949,4.76241-5.85535,12.49662-8.34921,19.486-10.31051Z"/><path class="cls-5" d="M73.74608,89.13362c-.15609-7.198-.42857-21.673-.54368-28.86919l.60728.60722-1.16186.02808.63525-.63525c.05813,3.58921.00719,7.178-.092,10.76586q-.11193,5.38295-.47965,10.76612H72.584q-.72411-11.08309-.56284-22.18262c.38968-.01005,1.387.04744,1.78849.04293l.61773.01493-.01025.59278c-.11556,7.19308-.38752,21.6778-.54372,28.86916l-.12737,0Z"/><path class="cls-5" d="M26.5501,90.21882,26.07079,55.0091l1.08472-.03735.55475,7.85938c.19342,2.61914.34985,5.24072.57769,7.85766a133.22121,133.22121,0,0,1,.35428,15.7627l-.12716.00732a133.11445,133.11445,0,0,1-1.4559-15.69311c-.04471-2.62745-.30833-5.241-.45847-7.86182l-.52863-7.85742,1.08466-.03736c-.11415.02594-.257,35.44627-.60663,35.20972Z"/><path class="cls-7" d="M50.51172,49.75855c4.2079,0,7.5029.88015,9.49431,2.43238L50.21176,71.36818,40.41749,52.19093c1.99141-1.55223,5.28641-2.43238,9.49431-2.43238Z"/><path d="M50.51171,49.6949c3.308.05952,6.80651.401,9.60963,2.34784l.12157.08721-.06982.14649c-3.23248,6.7765-6.63777,13.4666-9.94544,20.20508l-.46643-.8833c-3.02753-5.78651-7.34563-13.66423-9.92751-19.57057,3.11378-2.24968,7.02351-2.37125,10.678-2.33275Zm0,.12744c-3.3835.01477-7.15231.55651-9.80684,2.737l.12886-.581c3.13476,5.39479,7.02513,13.49164,9.82849,19.15973l-.90094-.00006c3.3598-6.34375,6.6391-12.72876,10.07758-19.03247l.05175.2334c-2.60378-2.06126-6.14132-2.495-9.3789-2.5166Z"/><path class="cls-8" d="M41.86071,52.5362a12.803,12.803,0,0,1,6.5447-2.47329,5.91143,5.91143,0,0,1,2.34958.47525v.12719a11.32777,11.32777,0,0,1-4.47357.8432,14.46469,14.46469,0,0,0-4.35284,1.13556l-.06787-.10791Z"/><path class="cls-7" d="M42.59171,54.06872A4.01957,4.01957,0,0,0,43.96,51.10834V42.0692H56.1373v9.03914a4.92417,4.92417,0,0,0,1.0946,2.96038"/><path d="M42.55211,54.01887c1.7023-1.4712,1.17357-3.76533,1.17262-5.75l-.14942-6.19944-.009-.37622.3938-.00855,12.17713-.27.64947-.0144.00525.66919q.02408,3.06335-.12811,6.127c-.03457,1.9978-.60692,4.03307.616,5.83031l-.09582.084a4.70478,4.70478,0,0,1-1.38293-2.83789c-.234-3.07744-.33975-6.12515-.31843-9.20337l.65455.65454-12.17713-.27.38452-.38452-.14941,6.19946c-.09115,2.01268.25675,4.47135-1.56394,5.84957l-.07913-.09957Z"/><path class="cls-8" d="M43.39525,54.86213a3.87117,3.87117,0,0,0,1.07849-2.67236c-.09612-3.02657-.773-6.34126.26571-9.27733l.12736,0a14.3549,14.3549,0,0,1,.44574,6.19971c-.145,2.00906.07985,4.59548-1.83812,5.84957l-.07918-.09957Z"/><path class="cls-7" d="M38.65761,21.10606c0,13.52315,1.05668,25.23312,11.55415,25.23312s11.4352-11.71,11.4352-25.23312L52.81809,16.182Z"/><path d="M38.70952,21.14289c.11164,5.0979.19239,10.38623,1.39447,15.38941a14.89638,14.89638,0,0,0,3.3097,6.78c3.37322,3.59417,10.155,3.56917,13.45874-.06946a14.57168,14.57168,0,0,0,3.098-6.768c1.05267-4.99975,1.007-10.20751,1.01489-15.36865l.33923.57764c-2.93823-1.64966-5.87854-3.29566-8.78936-4.99463l.47357.0415c-4.74032,1.56087-9.44407,2.983-14.29926,4.41211Zm-.10382-.07373C43.26,19.17462,48.07942,17.29359,52.861,15.54671c3.05626,1.62389,6.08142,3.30428,9.10815,4.98144l.34356.19043-.00415.38769c-.05523,5.18921-.137,10.44629-1.32708,15.6023-.85813,3.778-2.85589,8.01708-6.83033,9.38253-3.75862,1.29324-8.44771.72819-11.20753-2.33828-4.90291-5.91406-4.229-15.38736-4.33794-22.68366Z"/><path class="cls-8" d="M39.5645,20.26277c.49381,7.58242.061,20.2644,7.835,24.1556a14.64192,14.64192,0,0,0,3.65546,1.01381v.12746a8.70243,8.70243,0,0,1-8.152-3.21754,15.30492,15.30492,0,0,1-2.67371-6.47557c-1.07006-5.18579-.92876-10.42139-.79205-15.60376Z"/><path class="cls-1" d="M52.81809,16.182c0,8.51207-8.042,11.39381-15.39052,11.39381l-.183-9.87475-.907.16173,8.2827-6.11025L64.06435,16.182,62.88468,28.04012C57.70614,28.04012,52.81809,20.17094,52.81809,16.182Z"/><path class="cls-8" d="M60.93822,29.10456c-4.9968.75051-8.98925-7.761-8.92459-11.92175l.12753-.00012c.53617,3.81719,3.02752,7.14125,5.7377,9.72412a7.91073,7.91073,0,0,0,3.05936,2.07031v.12744Z"/><path class="cls-9" d="M64.55974,39.82429C64.347,30.06,66.48909,15.701,54.93826,11.81467l.02566-.12466c13.08436,1.43709,10.39544,19.05,9.59582,28.13428Z"/><path class="cls-2" d="M61.67888,28.10383c-3.9618-.3936-6.6719-4.69742-8.26979-7.98224a11.1814,11.1814,0,0,1-1.051-3.93963H53.278c.32723,8.05359-7.37474,12.34879-14.64481,11.45736l.00015-.12729a25.29193,25.29193,0,0,0,4.9234-1.05517c3.0699-.99613,6.02291-2.75153,7.609-5.61571A10.30739,10.30739,0,0,0,52.35814,16.182H53.278c.23779,3.75463,2.40413,7.43005,5.03738,10.07258a5.74915,5.74915,0,0,0,3.36349,1.72185v.12744Z"/><path class="cls-3" d="M37.58635,26.65071c6.04273-1.60751,14.51549-5.16986,14.85131-12.36531l.81776.23616a25.64093,25.64093,0,0,1-5.30058,5.541,19.23293,19.23293,0,0,1-6.77151,3.43088l-.035-.12254c4.757-1.57323,8.63894-5.20472,11.35733-9.322l.7836-1.23758a11.20279,11.20279,0,0,1-5.38892,10.76486A19.49059,19.49059,0,0,1,37.6,26.77723l-.01363-.12652Z"/><path class="cls-9" d="M36.85247,25.91682c6.64536-1.23833,13.78-5.269,15.23064-12.36568l.12733,0c.77772,3.78675-1.97414,7.40152-5.13043,9.16762a22.721,22.721,0,0,1-10.21393,3.32456l-.01361-.12646Z"/><polygon class="cls-4" points="34.299 53.913 50.212 83.921 66.124 53.913 59.122 51.596 60.006 52.191 50.212 71.368 40.417 52.191 41.32 51.149 34.299 53.913"/><path class="cls-5" d="M34.37761,53.942,50.58483,83.723h-.74609L65.52318,53.59455l.38721.96436-7.02234-2.25586.64972-1.325.89063.585.25146.97217c-2.72053,5.46692-6.91761,13.868-9.741,19.20407l-1.45424,0c-2.797-5.70493-6.73623-13.71139-9.35645-19.4004l.04364-.36083.94318-1.00635.30377.429L34.37761,53.942ZM34.221,53.8841,41.22039,50.897l.30389.429-.861,1.07764.04376-.36036c1.75287,3.13453,3.45636,6.29444,5.17944,9.44434l5.05237,9.509h-1.4541c2.66534-5.38793,7.01545-13.77048,9.84747-19.14991l.25135.97193-.87732-.60473.64972-1.325,6.98187,2.37842.38733.96459L50.58489,84.11848h-.74628L34.221,53.8841Z"/><path class="cls-5" d="M53.18358,77.37043A42.46576,42.46576,0,0,1,49.73787,72.276a4.85683,4.85683,0,0,1-.25625-2.1539l.14868-.07593a4.98078,4.98078,0,0,1,2.37133,3.35844c.50153,1.267.92707,2.573,1.33064,3.88985l-.14869.07593Z"/><path class="cls-4" d="M35.53781,21.26267c0-12.16951,10.52318-15.25389,14.69009-15.25389S64.76677,9.09316,64.76677,21.26267C64.76677,12.74345,35.53781,12.74345,35.53781,21.26267Z"/><path class="cls-5" d="M35.46441,21.26277C35.115,12.6994,41.703,6.00457,50.17051,5.61049A15.29428,15.29428,0,0,1,65.43934,21.26262l-1.34542-.0001a3.788,3.788,0,0,0-1.91125-2.93823c-5.97834-3.59138-18.2061-3.809-24.31036-.35357a4.34715,4.34715,0,0,0-2.26111,3.29205Zm0,0c-.05342-3.21491,3.41193-4.8613,6.02665-5.73243,6.63118-1.93648,15.49453-2.1796,21.53351,1.60175a5.16967,5.16967,0,0,1,2.41494,4.13045.67325.67325,0,1,1-1.34558,0A14.17448,14.17448,0,0,0,50.1745,6.412c-5.721.13309-11.50989,3.62647-13.53458,9.12691a18.42684,18.42684,0,0,0-1.02872,5.72385Z"/><path class="cls-5" d="M50.18053,7.4698c-5.36149.48431-8.9806,4.24216-11.73062,8.56463l-.14072-.04266a7.84722,7.84722,0,0,1,4.24185-6.64,13.34092,13.34092,0,0,1,7.62949-2.02865V7.4698Z"/><rect class="cls-1" x="70.95931" y="29.3765" width="3.878" height="1.78179" rx="0.89089"/><path class="cls-10" d="M74.39187,30.26739A1.49356,1.49356,0,0,1,75.88543,31.761v6.2917"/><rect class="cls-1" x="77.40518" y="35.58655" width="6.6426" height="1.78179" rx="0.89089"/><path class="cls-10" d="M86.0959,46.6703V37.971a1.49356,1.49356,0,0,0-1.49356-1.49356H75.88543"/><circle class="cls-11" cx="86.0959" cy="46.6703" r="1.51976"/><polyline class="cls-10" points="80.954 43.121 88.777 43.121 90.454 47.299 93.073 46.472"/><line class="cls-12" x1="75.88543" y1="43.12135" x2="79.46888" y2="46.70481"/><line class="cls-12" x1="75.88543" y1="43.12135" x2="80.89081" y2="43.91413"/><line class="cls-12" x1="75.88543" y1="43.12135" x2="80.40085" y2="40.82063"/><line class="cls-12" x1="75.88543" y1="43.12135" x2="78.18615" y2="38.60593"/><line class="cls-12" x1="75.88543" y1="43.12135" x2="75.09265" y2="38.11597"/><line class="cls-12" x1="75.88543" y1="43.12135" x2="72.30197" y2="39.5379"/><line class="cls-12" x1="75.88543" y1="43.12135" x2="70.88004" y2="42.32858"/><line class="cls-12" x1="75.88543" y1="43.12135" x2="71.37" y2="45.42208"/><line class="cls-12" x1="75.88543" y1="43.12135" x2="73.5847" y2="47.63678"/><line class="cls-12" x1="75.88543" y1="43.12135" x2="76.6782" y2="48.12674"/><circle class="cls-10" cx="75.88543" cy="43.12135" r="5.06871"/><circle class="cls-11" cx="75.88543" cy="43.12135" r="0.93521"/><line class="cls-10" x1="86.0959" y1="39.23365" x2="79.13668" y2="39.23365"/><circle class="cls-13" cx="49.85365" cy="50.35954" r="47.1047"/></g><g id="paleta"><rect class="cls-14" x="6.36295" y="79.52632" width="86.9814" height="28.15918" rx="4.56377"/><path class="cls-15" d="M32.25371,99.7482a.34079.34079,0,0,1-.28808-.125.37759.37759,0,0,1-.05762-.31641l.13477-.61475a1.22612,1.22612,0,0,1,.17285-.38379,1.83671,1.83671,0,0,1,.47949-.46093l4.9541-4.07032q1.13232-.82544,1.833-1.41113a5.41073,5.41073,0,0,0,1.05664-1.123,3.14156,3.14156,0,0,0,.4707-1.11377,2.09039,2.09039,0,0,0-.25-1.7378,1.97974,1.97974,0,0,0-1.68945-.64306,2.97032,2.97032,0,0,0-1.38281.31689,3.26587,3.26587,0,0,0-1.05567.86377,4.23689,4.23689,0,0,0-.6914,1.23877.54664.54664,0,0,1-.25879.34521.7287.7287,0,0,1-.33594.0962H34.366a.31011.31011,0,0,1-.26856-.10547.34441.34441,0,0,1-.05761-.25928,5.19694,5.19694,0,0,1,.61425-1.46875,5.43131,5.43131,0,0,1,1.13282-1.33447,5.83684,5.83684,0,0,1,1.60254-.96973,5.29083,5.29083,0,0,1,2.02636-.37451,4.38087,4.38087,0,0,1,2.3711.54736A2.55813,2.55813,0,0,1,42.91,88.0939a3.94714,3.94714,0,0,1,.03809,1.97754,4.715,4.715,0,0,1-.60449,1.54541,6.94313,6.94313,0,0,1-1.123,1.36328,15.33691,15.33691,0,0,1-1.65137,1.35352l-4.47363,3.74414h5.99023a.35009.35009,0,0,1,.29786.11523.40853.40853,0,0,1,.04785.32617l-.15332.7876a.53353.53353,0,0,1-.19239.31641.55823.55823,0,0,1-.36425.125Z"/><path class="cls-15" d="M43.73516,98.03921a1.42979,1.42979,0,0,1,.24023-.39355.52351.52351,0,0,1,.41309-.16309h1.30566a.253.253,0,0,1,.23047.125.24871.24871,0,0,1-.01953.27832l-1.66992,2.86084a1.46421,1.46421,0,0,1-.25.3169.54514.54514,0,0,1-.38379.12451h-.67188a.23149.23149,0,0,1-.2207-.12451.32814.32814,0,0,1,.00879-.29786Z"/><path class="cls-15" d="M52.85528,99.94009A4.615,4.615,0,0,1,50.282,99.297a3.22326,3.22326,0,0,1-1.334-1.68945,4.29562,4.29562,0,0,1-.10547-2.27539,5.11759,5.11759,0,0,1,.39356-1.104,9.7275,9.7275,0,0,1,1.18066-1.84327q.30615-.37426.51855-.60449L55.67754,86.692c.06348-.064.15332-.144.26856-.23974a.666.666,0,0,1,.4414-.144h1.01758a.272.272,0,0,1,.25.12452.39155.39155,0,0,1,.03809.29785.90543.90543,0,0,1-.04786.144.322.322,0,0,1-.06738.10547l-3.64746,3.917a2.78383,2.78383,0,0,1,.55664-.106q.30762-.02856.55664-.0288a4.59907,4.59907,0,0,1,1.86231.38427,3.33,3.33,0,0,1,1.26758.98877,3.44511,3.44511,0,0,1,.64355,1.43994,4.12131,4.12131,0,0,1-.04883,1.7378,5.35625,5.35625,0,0,1-1.03613,2.26562,6.10165,6.10165,0,0,1-2.05469,1.7085A5.99484,5.99484,0,0,1,52.85528,99.94009Zm.3457-1.63184a3.8219,3.8219,0,0,0,1.56445-.3457,3.75411,3.75411,0,0,0,1.34375-1.00781,3.50013,3.50013,0,0,0,.75879-1.62256,2.67223,2.67223,0,0,0-.07715-1.6416,2.01016,2.01016,0,0,0-.91211-.99854,2.97238,2.97238,0,0,0-1.42968-.33593,3.90176,3.90176,0,0,0-1.5752.33593,3.61885,3.61885,0,0,0-2.11133,2.64014,2.61893,2.61893,0,0,0,.07617,1.62256,2.05343,2.05343,0,0,0,.92188,1.00781A2.95875,2.95875,0,0,0,53.201,98.30825Z"/><path class="cls-15" d="M64.491,99.94009a4.86762,4.86762,0,0,1-2.4961-.57568,2.99841,2.99841,0,0,1-1.35351-1.74756,6.08154,6.08154,0,0,1-.06738-2.89893q.11571-.57641.2207-1.13281.10546-.55663.23047-1.12353.12452-.56544.27832-1.123a8.86615,8.86615,0,0,1,1.1709-2.88965,5.01122,5.01122,0,0,1,1.92089-1.74707,5.85566,5.85566,0,0,1,2.6875-.58545,4.80853,4.80853,0,0,1,2.4961.58545,3.08921,3.08921,0,0,1,1.36328,1.74707,5.954,5.954,0,0,1,.07617,2.88965q-.0952.55737-.21094,1.123-.11425.56688-.24023,1.12353-.12452.55663-.27832,1.13281a9.27069,9.27069,0,0,1-1.19043,2.89893,4.94637,4.94637,0,0,1-1.90039,1.74756A5.91527,5.91527,0,0,1,64.491,99.94009Zm.07617-1.63184a3.4026,3.4026,0,0,0,2.41016-.8833,5.49631,5.49631,0,0,0,1.41113-2.80322q.15381-.57569.26855-1.085.11572-.5083.22071-1.02686.10546-.51855.20215-1.07519a4.60819,4.60819,0,0,0-.11524-2.80322,1.99966,1.99966,0,0,0-1.959-.8833,3.36481,3.36481,0,0,0-2.39942.8833,5.53409,5.53409,0,0,0-1.40136,2.80322q-.13477.55664-.25977,1.07519-.12452.51856-.2207,1.02686-.09669.509-.21094,1.085a4.59992,4.59992,0,0,0,.11523,2.80322A1.977,1.977,0,0,0,64.56719,98.30825Z"/><path class="cls-15" d="M72.68926,99.7482c-.19238,0-.30469-.07032-.33594-.21143a.39338.39338,0,0,1,.124-.38379l12.11523-12.48a2.14754,2.14754,0,0,1,.31738-.269.74541.74541,0,0,1,.41211-.09571h.76856a.29386.29386,0,0,1,.32617.21094.37624.37624,0,0,1-.11524.38428l-12.11523,12.48a2.12848,2.12848,0,0,1-.31641.26855.73821.73821,0,0,1-.41308.0962Zm2.97559-6.624a2.66372,2.66372,0,0,1-1.35352-.32617,1.93156,1.93156,0,0,1-.82519-.91211,2.52728,2.52728,0,0,1-.16407-1.35351q.07764-.49952.16407-.84522.08641-.345.2207-.88281a3.73807,3.73807,0,0,1,1.09375-1.88184,3.00871,3.00871,0,0,1,2.09277-.71045,2.68166,2.68166,0,0,1,1.40235.33594,1.94441,1.94441,0,0,1,.80566.92188,2.46043,2.46043,0,0,1,.13477,1.35351c-.05176.3584-.10547.65283-.16309.8833s-.13184.51221-.2207.84473a3.70347,3.70347,0,0,1-1.1045,1.8623A3.01272,3.01272,0,0,1,75.66485,93.12417Zm.03808-1.26709a1.58767,1.58767,0,0,0,1.19043-.45117,2.38775,2.38775,0,0,0,.5957-.93115c.08887-.3457.15333-.61768.19141-.81641q.05859-.29736.13477-.77734a2.33986,2.33986,0,0,0,.01953-.6626.83444.83444,0,0,0-.26856-.52783,1.06121,1.06121,0,0,0-.73047-.21143,1.59386,1.59386,0,0,0-1.209.4419,2.1604,2.1604,0,0,0-.55664.96q-.13476.48046-.19238.77734-.05714.2981-.13477.81641a2.39989,2.39989,0,0,0,.00977.64307.87452.87452,0,0,0,.27832.52783A.96176.96176,0,0,0,75.70293,91.85708Zm6.18262,8.00635a2.72172,2.72172,0,0,1-1.36328-.32666,1.91945,1.91945,0,0,1-.835-.91162,2.40557,2.40557,0,0,1-.14356-1.35352q.07617-.4995.15332-.85449.07617-.35522.21094-.89306a3.894,3.894,0,0,1,1.10449-1.86231,2.96836,2.96836,0,0,1,2.083-.71045,2.732,2.732,0,0,1,1.41113.33594,1.932,1.932,0,0,1,.81543.92187,2.35418,2.35418,0,0,1,.11524,1.35352c-.05078.3584-.10254.65283-.15332.8833s-.12207.51172-.21094.84473a3.7035,3.7035,0,0,1-1.10449,1.8623A3.01279,3.01279,0,0,1,81.88555,99.86343Zm.03906-1.26709a1.58687,1.58687,0,0,0,1.18945-.45117,2.19359,2.19359,0,0,0,.57618-.93115q.15381-.51857.21191-.81641.05713-.29736.11524-.77734a1.6564,1.6564,0,0,0,.01855-.6626.846.846,0,0,0-.97852-.73926,1.5901,1.5901,0,0,0-1.21972.4419,2.20348,2.20348,0,0,0-.54688.96q-.13476.47973-.19238.77734-.05714.2981-.13477.81641a2.39981,2.39981,0,0,0,.00977.64306.87451.87451,0,0,0,.27832.52783A.96274.96274,0,0,0,81.92461,98.59634Z"/><polygon class="cls-15" points="11.881 97.324 19.317 89.888 26.753 97.324 11.881 97.324"/></g></svg>