<?xml version="1.0" encoding="UTF-8"?>
<svg xmlns="http://www.w3.org/2000/svg" width="100" height="108" viewBox="0 0 100 108">
  <defs>
    <style>
      .cls-1 {
        fill: #1d1d1b;
      }

      .cls-2, .cls-3 {
        stroke: #707487;
      }

      .cls-2, .cls-3, .cls-4, .cls-5 {
        stroke-miterlimit: 10;
      }

      .cls-2, .cls-4, .cls-5 {
        fill: none;
      }

      .cls-3, .cls-6 {
        fill: #fff;
      }

      .cls-7 {
        fill: #a6a6a6;
      }

      .cls-8 {
        fill: #47576d;
      }

      .cls-9 {
        fill: #74b6b6;
      }

      .cls-10 {
        fill: #007979;
      }

      .cls-11 {
        fill: #a6a6b2;
      }

      .cls-12 {
        fill: #0d1729;
      }

      .cls-13 {
        fill: #004747;
      }

      .cls-4 {
        stroke: #bec5d7;
      }

      .cls-14 {
        fill: #fabfc9;
      }

      .cls-5 {
        stroke: #fabfc9;
        stroke-width: 2.94px;
      }

      .cls-15 {
        fill: #707487;
      }
    </style>
  </defs>
  <g id="ass-operacional">
    <g>
      <g>
        <g>
          <g>
            <g>
              <path class="cls-15" d="M49.64,49.59c9.24,0,16.45-2.09,16.45-11.23,0-9.15,3.48-22.17-13.21-22.17,0,0,0-2.89-4.6-2.89-7.22,0-14.14,6.27-14.14,12.44,0,24.15-5.59,23.86,15.51,23.86Z"/>
              <path class="cls-12" d="M49.64,49.46c8.09.18,16.79-1.89,15.99-11.8.32-11.58,1.42-21.11-13.56-20.56,0,0-.1-.93-.1-.93-.15-.92-1.03-1.51-1.97-1.7-3.57-.65-7.48.87-10.23,3.19-2.43,2.09-4.29,4.9-4.31,8.07.03,1.85-.03,3.73-.11,5.57-.55,16.97-5.36,17.86,14.31,18.15h0ZM49.64,49.72c-2.87-.08-9.35.43-12.14-.02-5.63-.44-5.12-6.34-5.05-10.47,0,0,.29-8,.29-8,.05-1.65.05-3.33.08-4.98,0-1.11.12-2.27.44-3.33,1.81-5.69,7.1-9.57,12.82-10.49,2.16-.27,4.78-.32,6.58,1.31.68.69,1.08,1.42,1.14,2.46,0,0-.92-.92-.92-.92,4.57.03,9.99,1.18,12.4,5.55,2.82,5.27,1.44,11.25,1.28,16.87.22,10.27-8.5,12.06-16.92,12.04h0Z"/>
            </g>
            <path class="cls-8" d="M46.96,48.07c-4.96,1.29-12.52.08-12.3-6.46,0,0,.11-3.03.11-3.03.15-3.82.74-14.08.98-18.02.17-4.3,3.3-7.86,6.85-9.9-2.82,2.66-5.33,5.97-5.19,9.97.16,6.01-.19,12.07-.63,18.07,0,0-.25,2.98-.25,2.98-.47,5.43,6.21,6.43,10.45,6.39h0Z"/>
            <path class="cls-8" d="M50.86,47.69c-9.47,1.38-13.4-9.92-12.53-17.61,0,0,.13,0,.13,0,.13,8.76,3.56,15.57,12.4,17.6h0Z"/>
            <path class="cls-8" d="M49.47,48.65c-9.47,1.38-13.4-9.92-12.53-17.61,0,0,.13,0,.13,0,.13,8.76,3.56,15.57,12.4,17.6h0Z"/>
          </g>
          <g>
            <path class="cls-9" d="M82.24,82.76c0-21.57,0-16.02,0-20.33,0-4.31-14.5-13.98-32.03-13.98-17.53,0-32.03,9.67-32.03,13.98s0-1.24,0,20.33c0,0,14.96,12,31.84,12s32.22-12,32.22-12Z"/>
            <path class="cls-13" d="M82.11,82.76c-.74-6.71-1.23-13.55-1.55-20.29-.69-1.98-3.05-3.48-4.85-4.69-3.82-2.44-8.19-4.16-12.63-5.34-8.91-2.42-18.39-2.26-27.22.41-4.41,1.28-8.72,3.17-12.4,5.74-1.42,1.07-2.99,2.18-3.61,3.81-.26,6.07-.71,12.27-1.19,18.34,0,0-.36,3.61-.36,3.61h-.25l-.04-14.43-.02-7.22c-.05-.62.16-1.28.45-1.81,5.74-8.34,21.23-12.58,30.96-12.69,9.64-.09,19.41,2.49,27.5,7.8,2.16,1.58,4.67,3.29,5.46,5.99.11,1.66,0,4.66.03,6.35,0,0-.04,14.43-.04,14.43,0,0-.25,0-.25,0h0Z"/>
            <path class="cls-10" d="M25.89,69.33c1.5,6.45,1.55,13.21.13,19.68-1.51-6.45-1.54-13.21-.13-19.68h0Z"/>
            <path class="cls-10" d="M72.15,69.45c1.5,6.45,1.55,13.21.13,19.68-1.51-6.45-1.54-13.21-.13-19.68h0Z"/>
            <path class="cls-10" d="M40.42,50.68c-5.51,2.93-16.83,7.44-18.75,13.59-.36,1.68-.6,6.2-.78,7.98-.31,3.62-.6,7.25-1.15,10.89-.47-3.65-.61-7.3-.65-10.96.22-3.68-.46-8.03,1.84-11.19,4.76-5.86,12.5-8.35,19.49-10.31h0Z"/>
            <path class="cls-13" d="M73.75,89.13c-.16-7.2-.43-21.67-.54-28.87,0,0,.61.61.61.61l-1.16.03.64-.64c.06,3.59,0,7.18-.09,10.77-.07,3.59-.24,7.18-.48,10.77,0,0-.13,0-.13,0-.48-7.39-.66-14.78-.56-22.18.39-.01,1.39.05,1.79.04,0,0,.62.01.62.01,0,0-.01.59-.01.59-.12,7.19-.39,21.68-.54,28.87,0,0-.13,0-.13,0h0Z"/>
            <path class="cls-13" d="M26.55,90.22l-.48-35.21,1.08-.04.55,7.86c.19,2.62.35,5.24.58,7.86.42,5.24.55,10.5.35,15.76,0,0-.13,0-.13,0-.8-5.21-1.27-10.44-1.46-15.69-.04-2.63-.31-5.24-.46-7.86l-.53-7.86,1.08-.04c-.11.03-.26,35.45-.61,35.21h0Z"/>
            <g>
              <path class="cls-6" d="M50.51,49.76c4.21,0,7.5.88,9.49,2.43l-9.79,19.18-9.79-19.18c1.99-1.55,5.29-2.43,9.49-2.43h.6Z"/>
              <path d="M50.51,49.69c3.31.06,6.81.4,9.61,2.35,0,0,.12.09.12.09l-.07.15c-3.23,6.78-6.64,13.47-9.95,20.21,0,0-.47-.88-.47-.88-3.03-5.79-7.35-13.66-9.93-19.57,3.11-2.25,7.02-2.37,10.68-2.33h0ZM50.51,49.82c-3.38.01-7.15.56-9.81,2.74,0,0,.13-.58.13-.58,3.13,5.39,7.03,13.49,9.83,19.16,0,0-.9,0-.9,0,3.36-6.34,6.64-12.73,10.08-19.03,0,0,.05.23.05.23-2.6-2.06-6.14-2.5-9.38-2.52h0Z"/>
            </g>
            <path class="cls-7" d="M41.86,52.54c1.84-1.41,4.24-2.28,6.54-2.47.79.02,1.58.13,2.35.48v.13c-1.48.69-2.92.77-4.47.84-1.48.17-2.96.5-4.35,1.14l-.07-.11h0Z"/>
            <g>
              <path class="cls-6" d="M42.59,54.07s1.37-1.09,1.37-2.96v-9.04h12.18v9.04c0,1.71,1.09,2.96,1.09,2.96"/>
              <path d="M42.55,54.02c1.7-1.47,1.17-3.77,1.17-5.75,0,0-.15-6.2-.15-6.2,0,0,0-.38,0-.38,0,0,.39,0,.39,0l12.18-.27s.65-.01.65-.01c0,0,0,.67,0,.67.02,2.04-.03,4.08-.13,6.13-.03,2-.61,4.03.62,5.83,0,0-.1.08-.1.08-.73-.74-1.28-1.73-1.38-2.84-.23-3.08-.34-6.13-.32-9.2,0,0,.65.65.65.65l-12.18-.27s.38-.38.38-.38l-.15,6.2c-.09,2.01.26,4.47-1.56,5.85,0,0-.08-.1-.08-.1h0Z"/>
            </g>
            <path class="cls-7" d="M43.4,54.86c.69-.74,1.11-1.72,1.08-2.67-.1-3.03-.77-6.34.27-9.28,0,0,.13,0,.13,0,.69,2.04.66,4.1.45,6.2-.15,2.01.08,4.6-1.84,5.85,0,0-.08-.1-.08-.1h0Z"/>
          </g>
          <g>
            <path class="cls-6" d="M38.66,21.11c0,13.52,1.06,25.23,11.55,25.23s11.44-11.71,11.44-25.23l-8.83-4.92-14.16,4.92Z"/>
            <path d="M38.71,21.14c.11,5.1.19,10.39,1.39,15.39.62,2.47,1.56,4.96,3.31,6.78,3.37,3.59,10.16,3.57,13.46-.07,1.68-1.83,2.55-4.3,3.1-6.77,1.05-5,1.01-10.21,1.01-15.37l.34.58c-2.94-1.65-5.88-3.3-8.79-4.99,0,0,.47.04.47.04-4.74,1.56-9.44,2.98-14.3,4.41h0ZM38.61,21.07c4.65-1.89,9.47-3.78,14.26-5.52,3.06,1.62,6.08,3.3,9.11,4.98,0,0,.34.19.34.19s0,.39,0,.39c-.06,5.19-.14,10.45-1.33,15.6-.86,3.78-2.86,8.02-6.83,9.38-3.76,1.29-8.45.73-11.21-2.34-4.9-5.91-4.23-15.39-4.34-22.68h0Z"/>
          </g>
          <path class="cls-7" d="M39.56,20.26c.49,7.58.06,20.26,7.83,24.16,1.14.56,2.4.76,3.66,1.01,0,0,0,.13,0,.13-2.9.47-6.3-.71-8.15-3.22-1.48-1.84-2.19-4.21-2.67-6.48-1.07-5.19-.93-10.42-.79-15.6,0,0,.13,0,.13,0h0Z"/>
          <path class="cls-15" d="M52.82,16.18c0,8.51-8.04,11.39-15.39,11.39l-.18-9.87-.91.16,8.28-6.11,19.44,4.43-1.18,11.86c-5.18,0-10.07-7.87-10.07-11.86Z"/>
          <path class="cls-7" d="M60.94,29.1c-5,.75-8.99-7.76-8.92-11.92,0,0,.13,0,.13,0,.54,3.82,3.03,7.14,5.74,9.72.89.86,1.8,1.66,3.06,2.07v.13h0Z"/>
          <path class="cls-11" d="M64.56,39.82c-.21-9.76,1.93-24.12-9.62-28.01,0,0,.03-.12.03-.12,13.08,1.44,10.4,19.05,9.6,28.13h0Z"/>
          <path class="cls-12" d="M61.68,28.1c-3.96-.39-6.67-4.7-8.27-7.98-.53-1.23-.98-2.51-1.05-3.94h.92c.33,8.05-7.37,12.35-14.64,11.46,0,0,0-.13,0-.13,1.69-.21,3.35-.53,4.92-1.06,3.07-1,6.02-2.75,7.61-5.62.77-1.4,1.14-3.02,1.19-4.66h.92c.24,3.75,2.4,7.43,5.04,10.07.94.86,2.06,1.63,3.36,1.72,0,0,0,.13,0,.13h0Z"/>
          <path class="cls-8" d="M37.59,26.65c6.04-1.61,14.52-5.17,14.85-12.37,0,0,.82.24.82.24-1.49,2.12-3.26,3.97-5.3,5.54-2.01,1.57-4.31,2.77-6.77,3.43,0,0-.03-.12-.03-.12,5.24-1.73,9.36-5.92,12.14-10.56.49,4.47-1.68,8.36-5.39,10.76-3.05,2-6.67,3.15-10.3,3.2,0,0-.01-.13-.01-.13h0Z"/>
          <path class="cls-11" d="M36.85,25.92c6.65-1.24,13.78-5.27,15.23-12.37,0,0,.13,0,.13,0,.78,3.79-1.97,7.4-5.13,9.17-3.11,1.93-6.64,3.05-10.21,3.32v-.13h-.01Z"/>
        </g>
        <g>
          <polygon class="cls-9" points="34.3 53.91 50.21 83.92 66.12 53.91 59.12 51.6 60.01 52.19 50.21 71.37 40.42 52.19 41.32 51.15 34.3 53.91"/>
          <path class="cls-13" d="M34.38,53.94l16.21,29.78h-.75s15.68-30.13,15.68-30.13l.39.96s-7.02-2.26-7.02-2.26c0,0,.65-1.32.65-1.32l.89.58.25.97c-2.72,5.47-6.92,13.87-9.74,19.2,0,0-1.45,0-1.45,0-2.8-5.7-6.74-13.71-9.36-19.4,0,0,.04-.36.04-.36l.94-1.01.3.43-7.04,2.54h0ZM34.22,53.88l7-2.99.3.43-.86,1.08.04-.36c1.75,3.13,3.46,6.29,5.18,9.44l5.05,9.51s-1.45,0-1.45,0c2.67-5.39,7.02-13.77,9.85-19.15,0,0,.25.97.25.97l-.88-.6.65-1.32,6.98,2.38.39.96-16.14,29.89s-.75,0-.75,0l-15.62-30.23h0Z"/>
        </g>
        <path class="cls-13" d="M53.18,77.37c-1.19-1.68-2.53-3.29-3.45-5.09-.21-.66-.36-1.34-.26-2.15l.15-.08c1.38.76,1.99,1.95,2.37,3.36.5,1.27.93,2.57,1.33,3.89l-.15.08h0Z"/>
      </g>
      <g>
        <path class="cls-9" d="M35.54,21.26c0-12.17,10.52-15.25,14.69-15.25s14.54,3.08,14.54,15.25c0-8.52-29.23-8.52-29.23,0Z"/>
        <path class="cls-13" d="M35.46,21.26c-.35-8.56,6.24-15.26,14.71-15.65,8.67.14,15.39,6.95,15.27,15.65,0,0-1.35,0-1.35,0-.04-1.18-.8-2.22-1.91-2.94-5.98-3.59-18.21-3.81-24.31-.35-1.19.7-2.14,1.86-2.26,3.29h-.15ZM35.46,21.26c-.05-3.21,3.41-4.86,6.03-5.73,6.63-1.94,15.49-2.18,21.53,1.6,1.34.9,2.42,2.43,2.41,4.13.01.37-.28.68-.65.7-.39.02-.71-.31-.7-.7.35-8.15-5.86-14.53-13.92-14.85-5.72.13-11.51,3.63-13.53,9.13-.7,1.82-.94,3.77-1.03,5.72h-.15Z"/>
      </g>
      <path class="cls-13" d="M50.18,7.47c-5.36.48-8.98,4.24-11.73,8.56,0,0-.14-.04-.14-.04,0-2.8,1.84-5.34,4.24-6.64,2.32-1.42,4.99-2.17,7.63-2.03v.15h0Z"/>
    </g>
    <g>
      <rect class="cls-15" x="70.96" y="29.38" width="3.88" height="1.78" rx=".89" ry=".89"/>
      <path class="cls-2" d="M74.39,30.27c.82,0,1.49.67,1.49,1.49v6.29"/>
      <rect class="cls-15" x="77.41" y="35.59" width="6.64" height="1.78" rx=".89" ry=".89"/>
      <path class="cls-2" d="M86.1,46.67v-8.7c0-.82-.67-1.49-1.49-1.49h-8.72"/>
      <circle class="cls-3" cx="86.1" cy="46.67" r="1.52"/>
      <polyline class="cls-2" points="80.95 43.12 88.78 43.12 90.45 47.3 93.07 46.47"/>
      <g>
        <line class="cls-4" x1="75.89" y1="43.12" x2="79.47" y2="46.7"/>
        <line class="cls-4" x1="75.89" y1="43.12" x2="80.89" y2="43.91"/>
        <line class="cls-4" x1="75.89" y1="43.12" x2="80.4" y2="40.82"/>
        <line class="cls-4" x1="75.89" y1="43.12" x2="78.19" y2="38.61"/>
        <line class="cls-4" x1="75.89" y1="43.12" x2="75.09" y2="38.12"/>
        <line class="cls-4" x1="75.89" y1="43.12" x2="72.3" y2="39.54"/>
        <line class="cls-4" x1="75.89" y1="43.12" x2="70.88" y2="42.33"/>
        <line class="cls-4" x1="75.89" y1="43.12" x2="71.37" y2="45.42"/>
        <line class="cls-4" x1="75.89" y1="43.12" x2="73.58" y2="47.64"/>
        <line class="cls-4" x1="75.89" y1="43.12" x2="76.68" y2="48.13"/>
      </g>
      <circle class="cls-2" cx="75.89" cy="43.12" r="5.07"/>
      <circle class="cls-3" cx="75.89" cy="43.12" r=".94"/>
      <path class="cls-2" d="M86.1,39.23h-6.96"/>
    </g>
    <circle class="cls-5" cx="49.85" cy="50.36" r="47.1"/>
  </g>
  <g id="paleta">
    <g>
      <rect class="cls-14" x="13.61" y="84.39" width="72.48" height="23.47" rx="3.8" ry="3.8"/>
      <g>
        <path class="cls-1" d="M35.19,101.24c-.11,0-.19-.03-.24-.1s-.07-.16-.05-.26l.11-.51c.02-.1.07-.2.14-.32.07-.12.21-.25.4-.38l4.13-3.39c.63-.46,1.14-.85,1.53-1.18.39-.33.68-.64.88-.94.2-.3.33-.61.39-.93.13-.61.06-1.09-.21-1.45s-.74-.54-1.41-.54c-.43,0-.81.09-1.15.26-.34.18-.63.42-.88.72-.25.3-.44.65-.58,1.03-.04.14-.12.23-.22.29s-.19.08-.28.08h-.82c-.11,0-.18-.03-.22-.09-.04-.06-.06-.13-.05-.22.1-.41.27-.81.51-1.22.25-.41.56-.78.94-1.11.38-.33.83-.6,1.34-.81.51-.21,1.07-.31,1.69-.31.84,0,1.5.15,1.98.46.47.3.79.71.94,1.21s.16,1.05.03,1.65c-.1.47-.26.9-.5,1.29-.24.39-.55.77-.94,1.14-.38.37-.84.74-1.38,1.13l-3.73,3.12h4.99c.12,0,.2.03.25.1.05.06.06.15.04.27l-.13.66c-.02.11-.07.19-.16.26-.08.07-.19.1-.3.1h-7.06Z"/>
        <path class="cls-1" d="M44.75,99.82c.05-.13.12-.24.2-.33.08-.09.19-.14.34-.14h1.09c.09,0,.15.04.19.1.04.07.04.15-.02.23l-1.39,2.38c-.06.11-.13.19-.21.26-.07.07-.18.1-.32.1h-.56c-.08,0-.15-.04-.18-.1-.04-.07-.04-.15,0-.25l.85-2.27Z"/>
        <path class="cls-1" d="M52.36,101.4c-.89,0-1.6-.18-2.14-.54s-.91-.83-1.11-1.41c-.2-.58-.23-1.21-.09-1.9.08-.32.18-.63.33-.92.14-.29.3-.57.47-.83.17-.26.34-.5.51-.7s.31-.38.43-.5l3.95-4.24c.05-.05.13-.12.22-.2.1-.08.22-.12.37-.12h.85c.1,0,.17.04.21.1.04.07.05.15.03.25-.01.04-.02.08-.04.12-.02.04-.03.07-.06.09l-3.04,3.26c.14-.04.29-.07.46-.09.17-.02.33-.02.46-.02.6.01,1.12.12,1.55.32.44.2.79.48,1.06.82.27.35.45.75.54,1.2.09.45.08.94-.04,1.45-.13.67-.42,1.3-.86,1.89-.45.59-1.02,1.06-1.71,1.42-.69.36-1.48.54-2.35.54ZM52.64,100.04c.44,0,.87-.1,1.3-.29.43-.19.8-.47,1.12-.84.31-.37.53-.82.63-1.35.12-.54.1-1-.06-1.37-.16-.37-.41-.65-.76-.83s-.74-.28-1.19-.28-.89.09-1.31.28-.8.46-1.11.83c-.31.37-.53.82-.65,1.37-.12.53-.1.98.06,1.35.16.37.42.65.77.84.35.19.75.29,1.2.29Z"/>
        <path class="cls-1" d="M62.05,101.4c-.84,0-1.54-.16-2.08-.48-.54-.32-.92-.81-1.13-1.46s-.23-1.46-.06-2.42c.06-.32.12-.63.18-.94.06-.31.12-.62.19-.94.07-.31.15-.63.23-.94.22-.96.55-1.76.98-2.41.43-.65.96-1.13,1.6-1.46.64-.33,1.39-.49,2.24-.49s1.54.16,2.08.49c.54.33.92.81,1.14,1.46.21.65.23,1.45.06,2.41-.05.31-.11.62-.18.94-.06.31-.13.63-.2.94-.07.31-.15.62-.23.94-.24.96-.57,1.77-.99,2.42s-.96,1.14-1.58,1.46c-.63.32-1.38.48-2.26.48ZM62.12,100.04c.81,0,1.48-.25,2.01-.74.53-.49.92-1.27,1.18-2.34.08-.32.16-.62.22-.9.06-.28.12-.57.18-.86.06-.29.11-.59.17-.9.19-1.07.16-1.85-.1-2.34-.26-.49-.8-.74-1.63-.74s-1.48.25-2,.74c-.52.49-.91,1.27-1.17,2.34-.07.31-.15.61-.22.9-.07.29-.13.57-.18.86-.05.28-.11.58-.18.9-.19,1.07-.16,1.85.1,2.34.26.49.79.74,1.62.74Z"/>
        <path class="cls-1" d="M68.88,101.24c-.16,0-.25-.06-.28-.18-.03-.12,0-.22.1-.32l10.1-10.4c.1-.1.18-.17.26-.22.08-.05.19-.08.34-.08h.64c.15,0,.24.06.27.18.03.12,0,.22-.1.32l-10.1,10.4c-.1.1-.18.17-.26.22-.08.05-.19.08-.34.08h-.64ZM71.36,95.72c-.44,0-.81-.09-1.13-.27-.31-.18-.54-.43-.69-.76-.14-.33-.19-.7-.14-1.13.04-.28.09-.51.14-.7.05-.19.11-.44.18-.74.17-.65.47-1.17.91-1.57s1.02-.59,1.74-.59c.47,0,.86.09,1.17.28s.53.44.67.77.18.7.11,1.13c-.04.3-.09.54-.14.74-.05.19-.11.43-.18.7-.17.64-.48,1.16-.92,1.55s-1.02.59-1.74.59ZM71.39,94.66c.42,0,.75-.12.99-.38.25-.25.41-.51.5-.78.07-.29.13-.51.16-.68.03-.17.07-.38.11-.65.03-.19.04-.38.02-.55-.02-.18-.1-.32-.22-.44s-.33-.18-.61-.18c-.44,0-.77.12-1.01.37-.23.25-.39.51-.46.8-.07.27-.13.48-.16.65-.03.17-.07.39-.11.68-.02.18-.02.36,0,.54.03.18.1.32.23.44.13.12.31.18.56.18ZM76.55,101.34c-.44,0-.82-.09-1.14-.27-.32-.18-.55-.43-.7-.76-.14-.33-.18-.7-.12-1.13.04-.28.08-.51.13-.71.04-.2.1-.45.18-.74.18-.64.49-1.16.92-1.55.43-.39,1.01-.59,1.74-.59.47,0,.86.09,1.18.28s.54.44.68.77c.14.33.17.7.1,1.13-.04.3-.09.54-.13.74-.04.19-.1.43-.18.7-.17.64-.48,1.16-.92,1.55-.44.4-1.02.59-1.74.59ZM76.58,100.28c.42,0,.75-.13.99-.38s.41-.51.48-.78c.08-.29.14-.51.18-.68.03-.17.06-.38.1-.65.04-.19.05-.38.02-.55-.03-.18-.11-.32-.22-.44-.12-.12-.31-.18-.59-.18-.45,0-.79.12-1.02.37-.23.25-.38.51-.46.8-.08.27-.13.48-.16.65-.03.17-.07.39-.11.68-.02.18-.02.36,0,.54.03.18.1.32.23.44.13.12.31.18.56.18Z"/>
      </g>
      <polygon class="cls-1" points="18.21 99.22 24.41 93.02 30.6 99.22 18.21 99.22"/>
    </g>
  </g>
</svg>