<svg xmlns="http://www.w3.org/2000/svg" width="100" height="108" viewBox="0 0 100 108"><defs><style>.cls-1{fill:none;stroke:#96121f;stroke-miterlimit:10;stroke-width:2.93546px;}.cls-2{fill:#707487;}.cls-3{fill:#0d1729;}.cls-4{fill:#47576d;}.cls-5{fill:#e4eaf8;}.cls-6{fill:#68768c;}.cls-7{fill:#9fbae1;}.cls-8{fill:#fff;}.cls-9{fill:#a6a6a6;}.cls-10{fill:#a1b6e6;}.cls-11{fill:#96121f;}</style></defs><g id="ass-tecnico"><circle class="cls-1" cx="49.85365" cy="50.35954" r="47.1047"/><path class="cls-2" d="M49.58762,49.60524c9.24178,0,16.45516-2.087,16.45516-11.23767S69.5231,9.94941,52.82714,9.94941c0,0,0-2.88969-4.60409-2.88969-7.22422,0-14.14913,6.26837-14.14913,12.4454C34.07392,43.66241,28.47686,49.60524,49.58762,49.60524Z"/><path class="cls-3" d="M49.58763,49.47785c7.17338.18358,16.15562-1.55423,16.00546-10.456-.16224-7.16151,1.06779-14.81517-1.68334-21.60215-1.9656-4.97273-6.84025-6.86767-11.91242-6.543l-.09018-.92719a2.42268,2.42268,0,0,0-2.20459-1.75069C45.82336,7.64477,41.69116,9.44,38.917,12.15362a11.07914,11.07914,0,0,0-3.50354,6.68459c-.05557,1.256-.00027,2.88155-.0618,4.21362-.10392,4.30763-.42371,8.66052-.76526,12.926-.15549,2.81324-.4747,5.70191.30215,8.21485,1.92539,5.42019,9.91,5.00911,14.699,5.28515Zm0,.25489c-5.34232-.19254-13.41.86733-16.0865-4.99879-1.17449-2.8441-1.1472-5.87284-1.16587-8.84349.03392-4.34145.325-8.58476.38256-12.89527.06614-1.377-.0291-2.96113.09958-4.3989.84444-6.48175,6.54645-11.05886,12.59818-12.31654,2.98868-.62291,8.00517-.33517,8.33159,3.66935l-.91992-.91973a15.09731,15.09731,0,0,1,7.52014,1.844c9.125,5.88969,6.23354,19.00308,6.11144,28.18423-.3701,9.22605-9.38157,10.71528-16.8712,10.67515Z"/><path class="cls-4" d="M46.90745,48.08381c-5.82422,1.43883-13.61595-.88012-12.854-8.16564l.06054-1.52576c.15482-3.88495.76375-14.29776,1.00124-18.3086.09478-4.38115,3.24769-8.0327,6.85722-10.1088-2.88363,2.7032-5.40615,6.07638-5.20063,10.15524a187.88629,187.88629,0,0,1-.79218,19.916c-1.04577,6.1839,5.93964,8.12888,10.92786,8.03759Z"/><path class="cls-4" d="M50.8065,47.70173c-9.47764,1.37567-13.40785-9.92116-12.53164-17.61235l.12716.0042c.13087,8.76461,3.56389,15.57432,12.40448,17.60815Z"/><path class="cls-4" d="M49.41624,48.66487C39.93846,50.04054,36.0084,38.74373,36.8846,31.05251l.12716.00445c.1308,8.76424,3.56407,15.57434,12.40448,17.60791Z"/><path class="cls-5" d="M82.19945,82.79158V62.45213c0-4.31644-14.501-13.99-32.04219-13.99s-32.04219,9.67357-32.04219,13.99V82.79158S33.08339,94.79414,49.96026,94.79414,82.19945,82.79158,82.19945,82.79158Z"/><path class="cls-6" d="M82.072,82.79158c-.73843-6.71119-1.22789-13.55759-1.54977-20.30273-.68555-1.97977-3.05127-3.483-4.849-4.69369a44.84761,44.84761,0,0,0-12.63107-5.34025,49.5203,49.5203,0,0,0-27.23138.40893A42.27661,42.27661,0,0,0,23.4069,58.60945c-1.4161,1.06921-2.98779,2.18124-3.61026,3.80877-.25958,6.073-.7065,12.27435-1.19252,18.3487l-.36164,3.60962h-.25483l-.03607-14.43775L17.93352,62.72a3.32834,3.32834,0,0,1,.45324-1.81347C24.1292,52.56226,39.62067,48.325,49.36057,48.216a49.60985,49.60985,0,0,1,27.515,7.80034c2.158,1.57577,4.676,3.2891,5.46324,5.9895.11443,1.657-.00522,4.65981.02728,6.34824l-.03919,14.4375Z"/><path class="cls-7" d="M72.10447,69.47248a44.75,44.75,0,0,1,.12841,19.6919,44.74522,44.74522,0,0,1-.12841-19.6919Z"/><path class="cls-7" d="M40.35972,50.70075c-5.50726,2.93443-16.84085,7.44607-18.75651,13.59451-.35578,1.68194-.60123,6.19852-.77624,7.98443-.31417,3.62224-.6003,7.257-1.15407,10.8947a91.11483,91.11483,0,0,1-.64618-10.96533c.22014-3.67789-.45542-8.03439,1.83952-11.19388,4.76427-5.85765,12.50137-8.35235,19.49348-10.31443Z"/><path class="cls-6" d="M73.70067,89.16438c-.15613-5.11029-.42877-15.38709-.54393-20.49661l.60752.60769-1.16229.02783.6355-.63549c.06024,2.19287.00269,4.38549-.08051,6.57837-.09765,2.19262-.243,4.38525-.49139,6.57812h-.12738a103.12176,103.12176,0,0,1-.55411-13.80688l.61789.01489c.40307.02731,1.39306.02059,1.78448.043l-.01446.59249c-.11554,5.10716-.38767,15.39116-.544,20.4966l-.12736,0Z"/><path class="cls-8" d="M49.85718,49.774c7.12272,0,7.97689,2.52086,7.97689,6.55422,0,0-.3132-.51094-7.97689-.51094s-7.97688.51094-7.97688.51094c0-4.03336.85416-6.55422,7.97688-6.55422"/><path d="M49.85716,49.71028c4.93174-.1525,8.5155.94514,8.33444,6.618l-.66189.18787c.12756.15528.08081.07593.08831.09766-4.51568-.63316-9.18167-.2525-13.72094.01762a12.61776,12.61776,0,0,0-1.66432.24874.61527.61527,0,0,0,.20686-.2063l-1.21674-.3457c-.03765-2.075.40107-4.74372,2.47834-5.81565a10.85761,10.85761,0,0,1,6.15593-.80231v.12748a27.54871,27.54871,0,0,0-2.97815.46411c-3.44721.63157-4.50892,2.6885-4.34115,6.02647l-1.21677-.34581a1.34168,1.34168,0,0,1,.89984-.45825,48.05878,48.05878,0,0,1,7.63623-.2166c2.68642.14026,5.47249-.03915,8.08822.66737.04526.03922.0358-.01962.19291.1652l-.66193.188c.42344-5.38171-3.00164-6.37949-7.61935-6.49038l.00015-.12754Z"/><path class="cls-8" d="M42.53427,54.08588A4.02115,4.02115,0,0,0,43.903,51.12435V42.08172H56.08509v9.04263a4.92614,4.92614,0,0,0,1.095,2.96153"/><path d="M42.49461,54.036c1.703-1.47185,1.174-3.76673,1.17311-5.75222l-.14949-6.20188-.009-.37622.39392-.00879,12.18188-.27.64972-.01441.00525.66944q.02407,3.06482-.12817,6.12939c-.03455,1.99832-.60718,4.03469.61626,5.83251l-.09588.08424a4.70731,4.70731,0,0,1-1.38342-2.83911c-.23422-3.07855-.3399-6.12745-.31854-9.207l.65478.65478-12.18188-.27.3847-.38476-.14947,6.2019c-.09109,2.01344.25676,4.47291-1.56455,5.852l-.07919-.09982Z"/><path class="cls-9" d="M43.33812,54.87947A3.87206,3.87206,0,0,0,44.417,52.20613c-.09625-3.02781-.77336-6.34356.26583-9.281h.12735a14.3603,14.3603,0,0,1,.44593,6.20215c-.145,2.01.07987,4.59752-1.83886,5.852l-.07917-.0998Z"/><path class="cls-8" d="M38.59865,21.1105c0,13.52836,1.05709,25.24285,11.55861,25.24285S61.59687,34.63886,61.59687,21.1105l-8.83228-4.926Z"/><path d="M38.65056,21.14753c.11169,5.09961.19244,10.38989,1.39508,15.395a14.90125,14.90125,0,0,0,3.31091,6.78272c3.3746,3.59574,10.15891,3.57079,13.46393-.06946a14.5773,14.5773,0,0,0,3.09924-6.77039c1.0531-5.00195,1.00733-10.21167,1.01526-15.37475l.33942.57788c-2.9394-1.65039-5.88086-3.29688-8.79279-4.99634l.47376.04126c-4.74216,1.56191-9.44769,2.98377-14.30481,4.41406Zm-.10382-.074c4.65616-1.895,9.47717-3.7774,14.26074-5.52441,3.05752,1.62442,6.08379,3.30556,9.11169,4.98315l.34375.19043-.00415.38794c-.05524,5.19116-.13708,10.45019-1.32764,15.6084-.85846,3.77933-2.857,8.02033-6.83294,9.38594-3.76,1.29416-8.451.7286-11.21187-2.339-4.90485-5.91648-4.23048-15.39308-4.33958-22.69244Z"/><path class="cls-9" d="M39.50584,20.26692c.494,7.58491.06117,20.27256,7.83807,24.16488a14.64611,14.64611,0,0,0,3.65687,1.01429v.12747a8.70651,8.70651,0,0,1-8.15522-3.21876,15.31177,15.31177,0,0,1-2.67475-6.478c-1.07049-5.188-.92913-10.42554-.79235-15.60986Z"/><path class="cls-9" d="M60.88786,29.11213c-4.9988.75077-8.99266-7.764-8.92807-11.92639l.12759-.00012c.53642,3.81884,3.02864,7.14373,5.7399,9.72778a7.9164,7.9164,0,0,0,3.06058,2.07129v.12744Z"/><path class="cls-2" d="M52.76459,16.18449c0,8.51536-8.04512,11.39821-15.39646,11.39821L39.06992,15.013H62.83509l0,13.03427C57.65453,28.04723,52.76459,20.175,52.76459,16.18449Z"/><path class="cls-3" d="M61.62877,28.11091c-3.96342-.39363-6.67448-4.69939-8.273-7.98517a11.18835,11.18835,0,0,1-1.05131-3.9411h.92022c.32737,8.0564-7.37769,12.35345-14.65048,11.46152l.00015-.127a25.2927,25.2927,0,0,0,4.9253-1.0559c3.07121-.99631,6.02534-2.75247,7.61189-5.61766a10.31114,10.31114,0,0,0,1.19292-4.66091h.92022c.23789,3.756,2.405,7.43276,5.03928,10.07624a5.7505,5.7505,0,0,0,3.36478,1.72259v.12744Z"/><path class="cls-4" d="M37.527,26.65705c6.04516-1.60774,14.52126-5.17178,14.857-12.36994l.81807.23615a25.65643,25.65643,0,0,1-5.3026,5.54347,19.24181,19.24181,0,0,1-6.77413,3.4321l-.035-.12254c5.24171-1.73419,9.35967-5.91842,12.14563-10.56371a11.207,11.207,0,0,1-5.39106,10.769,19.4949,19.4949,0,0,1-10.30436,3.20224l-.01363-.12677Z"/><path class="cls-5" d="M49.87912,55.81732c-.0026,1.014-7.34485,3.61838-7.34485,3.61838l-3.0936-6.35882a9.04007,9.04007,0,0,1,4.46223-2.5667Z"/><path class="cls-6" d="M49.93724,55.79133c-.05118.45366-.41657.58706-.70516.834a41.24367,41.24367,0,0,1-6.859,3.2383l-.14536-.27886-3.27032-6.27271-.15771-.30224a9.23985,9.23985,0,0,1,5.27339-3.22142,62.79652,62.79652,0,0,1,5.86418,6.00291Zm-.11627.052a69.81585,69.81585,0,0,1-6.35085-4.84568l.61189.13938a9.47954,9.47954,0,0,0-4.23327,2.2898l.07531-.585,2.91669,6.44458-.42035-.17212a42.44917,42.44917,0,0,0,6.70369-2.65572,1.72968,1.72968,0,0,0,.69689-.61528Z"/><path class="cls-5" d="M49.87978,55.81732c.0026,1.014,7.34486,3.61838,7.34486,3.61838l3.0936-6.35882a9.04012,9.04012,0,0,0-4.46223-2.5667Z"/><path class="cls-6" d="M49.93791,55.84333a1.72929,1.72929,0,0,0,.6969.61524,42.45243,42.45243,0,0,0,6.70366,2.6558l-.42034.17208,2.91669-6.44458.07538.585a9.48011,9.48011,0,0,0-4.23334-2.2898l.61188-.1394a69.76312,69.76312,0,0,1-6.35083,4.8457Zm-.11627-.052a62.81526,62.81526,0,0,1,5.86424-6.003,9.239,9.239,0,0,1,5.27332,3.22148l-.15764.30222-3.27033,6.27271-.14538.27881-.27527-.10669a32.36437,32.36437,0,0,1-7.00073-3.4601c-.1203-.13634-.28052-.22643-.28821-.50548Z"/><line class="cls-10" x1="49.87836" y1="94.79414" x2="49.87978" y2="55.81732"/><path class="cls-6" d="M49.81468,94.794c-.14111-4.8611-.36466-14.62825-.44523-19.48832a139.59783,139.59783,0,0,1,.44667-19.48849h.12734a139.60122,139.60122,0,0,1,.4452,19.48852c-.08117,4.85386-.305,14.636-.44662,19.48854l-.12736-.00025Z"/><path class="cls-5" d="M51.07214,62.73158a1.07572,1.07572,0,1,0-2.1498,0A1.07572,1.07572,0,1,0,51.07214,62.73158Z"/><path class="cls-6" d="M51.00841,62.73152c.11966-1.11125-1.7937-1.06441-1.57642,0,.08123.36593.27825.374.56524.48069a.66581.66581,0,0,0,1.01118-.48071Zm.12744,0c.35158,2.37808-2.89144,2.27358-2.72322-.00005a1.36331,1.36331,0,1,1,2.72322.00005Z"/><path class="cls-5" d="M51.07214,70.259a1.07572,1.07572,0,1,0-2.1498,0A1.07572,1.07572,0,1,0,51.07214,70.259Z"/><path class="cls-6" d="M51.00841,70.2591c.11969-1.11158-1.7937-1.06469-1.57642,0,.08124.36591.27826.37384.56524.48069a.66594.66594,0,0,0,1.01118-.48072Zm.12744,0c.3514,2.37809-2.89128,2.27335-2.72322-.00005a1.36332,1.36332,0,1,1,2.72322.00005Z"/><path class="cls-5" d="M51.07214,77.78641a1.07572,1.07572,0,1,0-2.1498,0A1.07572,1.07572,0,1,0,51.07214,77.78641Z"/><path class="cls-6" d="M51.00841,77.78645c.11965-1.11156-1.79361-1.06463-1.57642,0,.08124.3659.27826.37383.56524.48069a.66591.66591,0,0,0,1.01118-.48072Zm.12744,0c.35143,2.378-2.89129,2.2734-2.72322-.00005a1.36331,1.36331,0,1,1,2.72322.00005Z"/><path class="cls-5" d="M51.07214,85.31383a1.07572,1.07572,0,1,0-2.1498,0A1.07572,1.07572,0,1,0,51.07214,85.31383Z"/><path class="cls-6" d="M51.00841,85.31379c.11951-1.11145-1.79364-1.06462-1.57642,0,.08123.36593.27825.374.56524.48069a.66581.66581,0,0,0,1.01118-.48072Zm.12744,0c.35158,2.37809-2.89144,2.27359-2.72322-.00005a1.36331,1.36331,0,1,1,2.72322.00005Z"/><path class="cls-5" d="M51.07214,92.84124a1.07572,1.07572,0,1,0-2.1498,0A1.07572,1.07572,0,1,0,51.07214,92.84124Z"/><path class="cls-6" d="M51.00841,92.84114c.11957-1.11125-1.79363-1.06435-1.57642,0,.08121.36609.27809.37423.56524.48069a.66579.66579,0,0,0,1.01118-.48071Zm.12744,0c.35161,2.37819-2.89148,2.27365-2.72322-.00006a1.36331,1.36331,0,1,1,2.72322.00006Z"/></g><g id="paleta"><rect class="cls-11" x="6.36295" y="79.52632" width="86.9814" height="28.15918" rx="4.56377"/><path class="cls-8" d="M35.84489,99.7482a.36819.36819,0,0,1-.29785-.125.3572.3572,0,0,1-.06738-.31641L37.72673,88.7272l-3.62891,2.38086a.55086.55086,0,0,1-.3457.09619.33467.33467,0,0,1-.25-.19189l-.40332-.71045a.50018.50018,0,0,1-.02832-.34571.48347.48347,0,0,1,.25879-.28808l4.877-3.22559a.67555.67555,0,0,1,.2207-.11523,1.1752,1.1752,0,0,1,.24024-.019h1.01758a.37068.37068,0,0,1,.29785.12452.35573.35573,0,0,1,.0664.31689l-2.6875,12.55713a.54934.54934,0,0,1-.18261.31641.49537.49537,0,0,1-.33594.125Z"/><path class="cls-8" d="M40.60563,98.03921a1.43005,1.43005,0,0,1,.24024-.39355.52351.52351,0,0,1,.41308-.16309h1.30567a.253.253,0,0,1,.23047.125.24871.24871,0,0,1-.01953.27832l-1.66993,2.86084a1.4636,1.4636,0,0,1-.25.3169.54511.54511,0,0,1-.38378.12451H39.8a.23148.23148,0,0,1-.2207-.12451.32811.32811,0,0,1,.00879-.29786Z"/><path class="cls-8" d="M46.71208,99.7482a.27142.27142,0,0,1-.25-.125.39.39,0,0,1-.03809-.29737.28829.28829,0,0,1,.07715-.17285l7.16113-11.17432h-6.3164a.33957.33957,0,0,1-.28809-.125.3749.3749,0,0,1-.05761-.31689l.17285-.76758a.537.537,0,0,1,.19238-.33642.53084.53084,0,0,1,.34473-.12452H55.5822a.36519.36519,0,0,1,.30761.12452.41419.41419,0,0,1,.05762.33642l-.15332.71a1.4182,1.4182,0,0,1-.11523.40332,2.84068,2.84068,0,0,1-.21192.34571l-7.06543,11.04a1.85777,1.85777,0,0,1-.25879.31689.5372.5372,0,0,1-.39355.16309Z"/><path class="cls-8" d="M57.40544,99.7482a.26873.26873,0,0,1-.249-.125.38571.38571,0,0,1-.03907-.29737A.4332.4332,0,0,1,57.175,99.172a.598.598,0,0,1,.07715-.0957l3.80176-4.08984a4.67254,4.67254,0,0,1-1.05664.11523,4.44984,4.44984,0,0,1-1.84278-.38379,3.19656,3.19656,0,0,1-1.22851-.98877,3.36347,3.36347,0,0,1-.60547-1.41113,4.13582,4.13582,0,0,1,.04785-1.65137,5.29027,5.29027,0,0,1,.65332-1.65136,6.18516,6.18516,0,0,1,1.21-1.459,5.71911,5.71911,0,0,1,1.71777-1.04639,5.95558,5.95558,0,0,1,2.21778-.39355,4.98913,4.98913,0,0,1,2.04492.374,3.199,3.199,0,0,1,1.92969,2.46729,4.36275,4.36275,0,0,1-.05762,1.67041,4.66021,4.66021,0,0,1-.52832,1.43994,8.12127,8.12127,0,0,1-.80664,1.17139q-.43213.51855-.81543.96l-4.79981,5.165a1.89565,1.89565,0,0,1-.25.23974.666.666,0,0,1-.4414.144Zm3.1875-6.20166a3.5864,3.5864,0,0,0,1.55469-.355,3.83641,3.83641,0,0,0,1.29589-.99854,3.44123,3.44123,0,0,0,.73926-1.54541,2.72951,2.72951,0,0,0-.08593-1.5459,1.997,1.997,0,0,0-.86426-.99853,2.73856,2.73856,0,0,0-1.41114-.355,3.53664,3.53664,0,0,0-1.54589.355,3.79752,3.79752,0,0,0-1.27637.99853,3.50478,3.50478,0,0,0-.72949,1.5459,2.57194,2.57194,0,0,0,.07715,1.54541,2.05326,2.05326,0,0,0,.86328.99854A2.6448,2.6448,0,0,0,60.59294,93.54654Z"/><path class="cls-8" d="M67.06364,99.7482c-.19238,0-.30469-.07032-.33594-.21143a.39338.39338,0,0,1,.124-.38379L78.967,86.673a2.14807,2.14807,0,0,1,.31739-.269.74535.74535,0,0,1,.4121-.09571H80.465a.29385.29385,0,0,1,.32617.21094.37626.37626,0,0,1-.11523.38428l-12.11524,12.48a2.129,2.129,0,0,1-.3164.26855.73827.73827,0,0,1-.41309.0962Zm2.97559-6.624a2.66374,2.66374,0,0,1-1.35352-.32617,1.93156,1.93156,0,0,1-.82519-.91211,2.52737,2.52737,0,0,1-.16407-1.35351q.07764-.49952.16407-.84522.08642-.345.2207-.88281A3.73814,3.73814,0,0,1,69.175,86.92251a3.00872,3.00872,0,0,1,2.09277-.71045,2.68166,2.68166,0,0,1,1.40235.33594,1.94436,1.94436,0,0,1,.80566.92188,2.46034,2.46034,0,0,1,.13477,1.35351c-.05176.3584-.10547.65283-.16309.8833s-.13183.51221-.2207.84473a3.70346,3.70346,0,0,1-1.10449,1.8623A3.01274,3.01274,0,0,1,70.03923,93.12417Zm.03808-1.26709a1.58767,1.58767,0,0,0,1.19043-.45117,2.38778,2.38778,0,0,0,.59571-.93115c.08886-.3457.15332-.61768.1914-.81641q.0586-.29736.13477-.77734a2.33986,2.33986,0,0,0,.01953-.6626.83443.83443,0,0,0-.26855-.52783,1.06124,1.06124,0,0,0-.73047-.21143,1.59387,1.59387,0,0,0-1.209.4419,2.1605,2.1605,0,0,0-.55664.96q-.13476.48046-.19238.77734-.05714.2981-.13477.81641a2.39989,2.39989,0,0,0,.00977.64307.87457.87457,0,0,0,.27832.52783A.96178.96178,0,0,0,70.07731,91.85708Zm6.18262,8.00635a2.72175,2.72175,0,0,1-1.36328-.32666,1.91945,1.91945,0,0,1-.835-.91162,2.40566,2.40566,0,0,1-.14356-1.35352q.07618-.4995.15332-.85449.07619-.35522.21094-.89306a3.89407,3.89407,0,0,1,1.10449-1.86231,2.96836,2.96836,0,0,1,2.083-.71045,2.732,2.732,0,0,1,1.41113.33594,1.932,1.932,0,0,1,.81543.92187,2.3541,2.3541,0,0,1,.11524,1.35352c-.05078.3584-.10254.65283-.15332.8833s-.12207.51172-.21094.84473a3.7035,3.7035,0,0,1-1.10449,1.8623A3.01279,3.01279,0,0,1,76.25993,99.86343Zm.03906-1.26709a1.58691,1.58691,0,0,0,1.18946-.45117,2.19366,2.19366,0,0,0,.57617-.93115q.15381-.51857.21191-.81641.05714-.29736.11524-.77734a1.6564,1.6564,0,0,0,.01855-.6626.846.846,0,0,0-.97851-.73926,1.59011,1.59011,0,0,0-1.21973.4419,2.20348,2.20348,0,0,0-.54688.96q-.13476.47973-.19238.77734-.05712.2981-.13476.81641a2.40023,2.40023,0,0,0,.00976.64306.87451.87451,0,0,0,.27832.52783A.96274.96274,0,0,0,76.299,98.59634Z"/><polygon class="cls-8" points="11.881 97.324 19.317 89.888 26.753 97.324 11.881 97.324"/></g></svg>