<?xml version="1.0" encoding="UTF-8"?>
<svg xmlns="http://www.w3.org/2000/svg" width="100" height="108" viewBox="0 0 100 108">
  <defs>
    <style>
      .cls-1 {
        fill: #68768c;
      }

      .cls-2 {
        fill: #a1b6e6;
      }

      .cls-3 {
        fill: #a6a6a6;
      }

      .cls-4 {
        fill: #47576d;
      }

      .cls-5 {
        fill: none;
        stroke: #96121f;
        stroke-miterlimit: 10;
        stroke-width: 2.94px;
      }

      .cls-6 {
        fill: #9fbae1;
      }

      .cls-7 {
        fill: #fff;
      }

      .cls-8 {
        fill: #0d1729;
      }

      .cls-9 {
        fill: #e4eaf8;
      }

      .cls-10 {
        fill: #96121f;
      }

      .cls-11 {
        fill: #707487;
      }
    </style>
  </defs>
  <g id="ass-tecnico">
    <g>
      <circle class="cls-5" cx="49.85" cy="50.36" r="47.1"/>
      <g>
        <g>
          <g>
            <g>
              <path class="cls-11" d="M49.59,49.61c9.24,0,16.46-2.09,16.46-11.24,0-9.15,3.48-28.42-13.22-28.42,0,0,0-2.89-4.6-2.89-7.22,0-14.15,6.27-14.15,12.45,0,24.16-5.6,30.1,15.51,30.1Z"/>
              <path class="cls-8" d="M49.59,49.48c7.17.18,16.16-1.55,16.01-10.46-.16-7.16,1.07-14.82-1.68-21.6-1.97-4.97-6.84-6.87-11.91-6.54,0,0-.09-.93-.09-.93-.17-1-1.17-1.6-2.2-1.75-3.88-.55-8.01,1.24-10.79,3.95-1.88,1.84-3.3,4.24-3.5,6.68-.06,1.26,0,2.88-.06,4.21-.1,4.31-.42,8.66-.77,12.93-.16,2.81-.47,5.7.3,8.21,1.93,5.42,9.91,5.01,14.7,5.29h0ZM49.59,49.73c-5.34-.19-13.41.87-16.09-5-1.17-2.84-1.15-5.87-1.17-8.84.03-4.34.33-8.58.38-12.9.07-1.38-.03-2.96.1-4.4.84-6.48,6.55-11.06,12.6-12.32,2.99-.62,8.01-.34,8.33,3.67,0,0-.92-.92-.92-.92,2.55.03,5.21.48,7.52,1.84,9.13,5.89,6.23,19,6.11,28.18-.37,9.23-9.38,10.72-16.87,10.68h0Z"/>
            </g>
            <path class="cls-4" d="M46.91,48.08c-5.82,1.44-13.62-.88-12.85-8.17,0,0,.06-1.53.06-1.53.15-3.88.76-14.3,1-18.31.09-4.38,3.25-8.03,6.86-10.11-2.88,2.7-5.41,6.08-5.2,10.16.15,6.64-.24,13.3-.79,19.92-1.05,6.18,5.94,8.13,10.93,8.04h0Z"/>
            <path class="cls-4" d="M50.81,47.7c-9.48,1.38-13.41-9.92-12.53-17.61,0,0,.13,0,.13,0,.13,8.76,3.56,15.57,12.4,17.61h0Z"/>
            <path class="cls-4" d="M49.42,48.66c-9.48,1.38-13.41-9.92-12.53-17.61,0,0,.13,0,.13,0,.13,8.76,3.56,15.57,12.4,17.61h0Z"/>
          </g>
          <g>
            <path class="cls-9" d="M82.2,82.79c0-21.58,0-16.02,0-20.34,0-4.32-14.5-13.99-32.04-13.99-17.54,0-32.04,9.67-32.04,13.99s0-1.24,0,20.34c0,0,14.97,12,31.85,12s32.24-12,32.24-12Z"/>
            <path class="cls-1" d="M82.07,82.79c-.74-6.71-1.23-13.56-1.55-20.3-.69-1.98-3.05-3.48-4.85-4.69-3.82-2.44-8.19-4.16-12.63-5.34-8.91-2.42-18.4-2.26-27.23.41-4.41,1.28-8.73,3.17-12.4,5.75-1.42,1.07-2.99,2.18-3.61,3.81-.26,6.07-.71,12.27-1.19,18.35,0,0-.36,3.61-.36,3.61h-.25l-.04-14.44-.02-7.22c-.05-.62.16-1.28.45-1.81,5.74-8.34,21.23-12.58,30.97-12.69,9.65-.09,19.42,2.49,27.51,7.8,2.16,1.58,4.68,3.29,5.46,5.99.11,1.66,0,4.66.03,6.35,0,0-.04,14.44-.04,14.44h-.25Z"/>
            <path class="cls-6" d="M72.1,69.47c1.5,6.46,1.55,13.22.13,19.69-1.51-6.45-1.54-13.22-.13-19.69h0Z"/>
            <path class="cls-6" d="M40.36,50.7c-5.51,2.93-16.84,7.45-18.76,13.59-.36,1.68-.6,6.2-.78,7.98-.31,3.62-.6,7.26-1.15,10.89-.47-3.65-.62-7.3-.65-10.97.22-3.68-.46-8.03,1.84-11.19,4.76-5.86,12.5-8.35,19.49-10.31h0Z"/>
            <path class="cls-1" d="M73.7,89.16c-.16-5.11-.43-15.39-.54-20.5,0,0,.61.61.61.61l-1.16.03.64-.64c.06,2.19,0,4.39-.08,6.58-.1,2.19-.24,4.39-.49,6.58h-.13c-.49-4.59-.68-9.2-.55-13.81,0,0,.62.01.62.01.4.03,1.39.02,1.78.04,0,0-.01.59-.01.59-.12,5.11-.39,15.39-.54,20.5,0,0-.13,0-.13,0h0Z"/>
            <g>
              <path class="cls-7" d="M49.86,49.77c7.12,0,7.98,2.52,7.98,6.55,0,0-.31-.51-7.98-.51-7.66,0-7.98.51-7.98.51,0-4.03.85-6.55,7.98-6.55"/>
              <path d="M49.86,49.71c4.93-.15,8.52.94,8.33,6.62,0,0-.66.19-.66.19.13.16.08.08.09.1-4.52-.63-9.18-.25-13.72.02-.54.05-1.18.13-1.66.25.08-.05.16-.12.21-.21l-1.22-.35c-.04-2.07.4-4.74,2.48-5.82,1.93-1.03,4.08-.97,6.16-.8,0,0,0,.13,0,.13-1.01.13-2.01.23-2.98.46-3.45.63-4.51,2.69-4.34,6.03,0,0-1.22-.35-1.22-.35.19-.3.59-.39.9-.46,2.53-.38,5.1-.24,7.64-.22,2.69.14,5.47-.04,8.09.67.05.04.04-.02.19.17l-.66.19c.42-5.38-3-6.38-7.62-6.49,0,0,0-.13,0-.13h0Z"/>
            </g>
            <g>
              <path class="cls-7" d="M42.53,54.09s1.37-1.09,1.37-2.96v-9.04h12.18v9.04c0,1.71,1.1,2.96,1.1,2.96"/>
              <path d="M42.49,54.04c1.7-1.47,1.17-3.77,1.17-5.75,0,0-.15-6.2-.15-6.2v-.38s.38,0,.38,0l12.18-.27h.65s0,.66,0,.66c.02,2.04-.03,4.09-.13,6.13-.03,2-.61,4.03.62,5.83,0,0-.1.08-.1.08-.73-.74-1.28-1.73-1.38-2.84-.23-3.08-.34-6.13-.32-9.21l.65.65-12.18-.27.38-.38-.15,6.2c-.09,2.01.26,4.47-1.56,5.85,0,0-.08-.1-.08-.1h0Z"/>
            </g>
            <path class="cls-3" d="M43.34,54.88c.69-.74,1.11-1.72,1.08-2.67-.1-3.03-.77-6.34.27-9.28,0,0,.13,0,.13,0,.69,2.05.66,4.11.45,6.2-.15,2.01.08,4.6-1.84,5.85,0,0-.08-.1-.08-.1h0Z"/>
          </g>
          <g>
            <path class="cls-7" d="M38.6,21.11c0,13.53,1.06,25.24,11.56,25.24s11.44-11.71,11.44-25.24l-8.83-4.93-14.17,4.93Z"/>
            <path d="M38.65,21.15c.11,5.1.19,10.39,1.4,15.4.62,2.48,1.56,4.96,3.31,6.78,3.37,3.6,10.16,3.57,13.46-.07,1.68-1.83,2.55-4.3,3.1-6.77,1.05-5,1.01-10.21,1.02-15.37l.34.58c-2.94-1.65-5.88-3.3-8.79-5l.47.04c-4.74,1.56-9.45,2.98-14.3,4.41h0ZM38.55,21.07c4.66-1.9,9.48-3.78,14.26-5.52,3.06,1.62,6.08,3.31,9.11,4.98l.34.19v.39c-.06,5.19-.14,10.45-1.33,15.61-.86,3.78-2.86,8.02-6.83,9.39-3.76,1.29-8.45.73-11.21-2.34-4.9-5.92-4.23-15.39-4.34-22.69h0Z"/>
          </g>
          <path class="cls-3" d="M39.51,20.27c.49,7.58.06,20.27,7.84,24.16,1.14.56,2.4.76,3.66,1.01,0,0,0,.13,0,.13-2.9.47-6.3-.71-8.16-3.22-1.48-1.84-2.19-4.22-2.67-6.48-1.07-5.19-.93-10.43-.79-15.61h.13Z"/>
          <path class="cls-3" d="M60.89,29.11c-5,.75-8.99-7.76-8.93-11.93,0,0,.13,0,.13,0,.54,3.82,3.03,7.14,5.74,9.73.89.86,1.8,1.66,3.06,2.07v.13h0Z"/>
          <path class="cls-11" d="M52.76,16.18c0,8.52-8.05,11.4-15.4,11.4l1.7-12.57h23.77v13.03c-5.18,0-10.07-7.87-10.07-11.86Z"/>
          <path class="cls-8" d="M61.63,28.11c-3.96-.39-6.67-4.7-8.27-7.99-.53-1.23-.98-2.51-1.05-3.94h.92c.33,8.06-7.38,12.35-14.65,11.46,0,0,0-.13,0-.13,1.69-.21,3.35-.53,4.93-1.06,3.07-1,6.03-2.75,7.61-5.62.77-1.4,1.14-3.02,1.19-4.66h.92c.24,3.76,2.4,7.43,5.04,10.08.94.86,2.06,1.63,3.36,1.72v.13h0Z"/>
          <path class="cls-4" d="M37.53,26.66c6.05-1.61,14.52-5.17,14.86-12.37,0,0,.82.24.82.24-1.49,2.12-3.26,3.97-5.3,5.54-2.01,1.57-4.32,2.77-6.77,3.43,0,0-.03-.12-.03-.12,5.24-1.73,9.36-5.92,12.15-10.56.49,4.47-1.69,8.36-5.39,10.77-3.05,2-6.67,3.15-10.3,3.2,0,0-.01-.13-.01-.13h0Z"/>
        </g>
        <g>
          <path class="cls-9" d="M49.88,55.82c0,1.01-7.34,3.62-7.34,3.62l-3.09-6.36c.97-1.13,2.49-2,4.46-2.57l5.98,5.31Z"/>
          <path class="cls-1" d="M49.94,55.79c-.05.45-.42.59-.71.83-2.14,1.36-4.51,2.3-6.86,3.24,0,0-.15-.28-.15-.28l-3.27-6.27-.16-.3c1.31-1.73,3.28-2.73,5.27-3.22,2.07,1.86,4.09,3.92,5.86,6h0ZM49.82,55.84c-2.26-1.55-4.33-3.09-6.35-4.85,0,0,.61.14.61.14-1.57.49-3.15,1.12-4.23,2.29l.08-.58,2.92,6.44-.42-.17c2.26-.78,4.6-1.5,6.7-2.66.27-.16.62-.4.7-.62h0Z"/>
        </g>
        <g>
          <path class="cls-9" d="M49.88,55.82c0,1.01,7.34,3.62,7.34,3.62l3.09-6.36c-.97-1.13-2.49-2-4.46-2.57l-5.98,5.31Z"/>
          <path class="cls-1" d="M49.94,55.84c.08.22.42.45.7.62,2.11,1.16,4.44,1.87,6.7,2.66,0,0-.42.17-.42.17l2.92-6.44.08.58c-1.09-1.17-2.66-1.8-4.23-2.29l.61-.14c-2.02,1.75-4.09,3.3-6.35,4.85h0ZM49.82,55.79c1.77-2.08,3.79-4.15,5.86-6,1.99.49,3.97,1.49,5.27,3.22,0,0-.16.3-.16.3l-3.27,6.27-.15.28-.28-.11c-2.39-1.01-4.91-1.89-7-3.46-.12-.14-.28-.23-.29-.51h0Z"/>
        </g>
        <g>
          <line class="cls-2" x1="49.88" y1="94.79" x2="49.88" y2="55.82"/>
          <path class="cls-1" d="M49.81,94.79c-.14-4.86-.36-14.63-.45-19.49-.22-6.51-.24-13,.45-19.49,0,0,.13,0,.13,0,.69,6.49.67,12.98.45,19.49-.08,4.85-.31,14.64-.45,19.49,0,0-.13,0-.13,0h0Z"/>
        </g>
        <g>
          <g>
            <path class="cls-9" d="M51.07,62.73c0-1.49-2.15-1.49-2.15,0,0,1.49,2.15,1.49,2.15,0Z"/>
            <path class="cls-1" d="M51.01,62.73c.12-1.11-1.79-1.06-1.58,0,.08.37.28.37.57.48.37.18.96.09,1.01-.48h0ZM51.14,62.73c.35,2.38-2.89,2.27-2.72,0,.16-1.86,2.67-1.96,2.72,0h0Z"/>
          </g>
          <g>
            <path class="cls-9" d="M51.07,70.26c0-1.49-2.15-1.49-2.15,0,0,1.49,2.15,1.49,2.15,0Z"/>
            <path class="cls-1" d="M51.01,70.26c.12-1.11-1.79-1.06-1.58,0,.08.37.28.37.57.48.37.17.96.09,1.01-.48h0ZM51.14,70.26c.35,2.38-2.89,2.27-2.72,0,.16-1.86,2.67-1.96,2.72,0h0Z"/>
          </g>
          <g>
            <path class="cls-9" d="M51.07,77.79c0-1.49-2.15-1.49-2.15,0,0,1.49,2.15,1.49,2.15,0Z"/>
            <path class="cls-1" d="M51.01,77.79c.12-1.11-1.79-1.06-1.58,0,.08.37.28.37.57.48.37.17.96.09,1.01-.48h0ZM51.14,77.79c.35,2.38-2.89,2.27-2.72,0,.16-1.86,2.67-1.96,2.72,0h0Z"/>
          </g>
          <g>
            <path class="cls-9" d="M51.07,85.31c0-1.49-2.15-1.49-2.15,0,0,1.49,2.15,1.49,2.15,0Z"/>
            <path class="cls-1" d="M51.01,85.31c.12-1.11-1.79-1.06-1.58,0,.08.37.28.37.57.48.37.17.96.09,1.01-.48h0ZM51.14,85.31c.35,2.38-2.89,2.27-2.72,0,.16-1.86,2.67-1.96,2.72,0h0Z"/>
          </g>
          <g>
            <path class="cls-9" d="M51.07,92.84c0-1.49-2.15-1.49-2.15,0,0,1.49,2.15,1.49,2.15,0Z"/>
            <path class="cls-1" d="M51.01,92.84c.12-1.11-1.79-1.06-1.58,0,.08.37.28.37.57.48.37.17.96.09,1.01-.48h0ZM51.14,92.84c.35,2.38-2.89,2.27-2.72,0,.16-1.86,2.67-1.96,2.72,0h0Z"/>
          </g>
        </g>
      </g>
    </g>
  </g>
  <g id="paleta">
    <g>
      <rect class="cls-10" x="13.61" y="84.39" width="72.48" height="23.47" rx="3.8" ry="3.8"/>
      <g>
        <path class="cls-7" d="M38.18,101.24c-.11,0-.19-.03-.25-.1s-.08-.16-.06-.26l1.87-8.82-3.02,1.98c-.11.06-.2.09-.29.08-.09-.01-.16-.06-.21-.16l-.34-.59c-.04-.1-.05-.19-.02-.29.03-.1.1-.18.22-.24l4.06-2.69c.07-.05.14-.09.18-.1.05-.01.12-.02.2-.02h.85c.11,0,.19.04.25.1.06.07.08.16.06.26l-2.24,10.46c-.02.11-.07.19-.15.26s-.17.1-.28.1h-.83Z"/>
        <path class="cls-7" d="M42.15,99.82c.05-.13.12-.24.2-.33.08-.09.19-.14.34-.14h1.09c.09,0,.15.04.19.1.04.07.04.15-.02.23l-1.39,2.38c-.06.11-.13.19-.21.26-.07.07-.18.1-.32.1h-.56c-.08,0-.15-.04-.18-.1-.04-.07-.04-.15,0-.25l.85-2.27Z"/>
        <path class="cls-7" d="M47.24,101.24c-.1,0-.17-.03-.21-.1-.04-.07-.05-.15-.03-.25,0-.04.02-.09.06-.14l5.97-9.31h-5.26c-.11,0-.19-.03-.24-.1-.05-.07-.07-.16-.05-.26l.14-.64c.02-.12.07-.21.16-.28.09-.07.18-.1.29-.1h6.56c.12,0,.2.04.26.1.05.07.07.16.05.28l-.13.59c-.02.14-.05.25-.1.34-.04.09-.1.18-.18.29l-5.89,9.2c-.05.09-.12.17-.22.26-.09.09-.2.14-.33.14h-.86Z"/>
        <path class="cls-7" d="M56.15,101.24c-.1,0-.17-.03-.21-.1-.04-.07-.05-.15-.03-.25,0-.05.03-.1.05-.13.02-.03.04-.06.06-.08l3.17-3.41c-.28.06-.57.1-.88.1-.6-.01-1.11-.12-1.54-.32s-.77-.48-1.02-.82c-.26-.35-.42-.74-.5-1.18s-.07-.9.04-1.38c.1-.47.28-.93.54-1.38.27-.45.6-.85,1.01-1.22.41-.36.88-.65,1.43-.87.55-.22,1.17-.33,1.85-.33s1.24.1,1.7.31c.46.21.83.49,1.1.85.27.36.44.76.51,1.21.07.45.06.91-.05,1.39-.09.44-.23.84-.44,1.2s-.43.69-.67.98c-.24.29-.47.55-.68.8l-4,4.3c-.04.05-.11.12-.21.2s-.22.12-.37.12h-.86ZM58.8,96.07c.45,0,.88-.1,1.3-.3s.78-.47,1.08-.83.51-.79.62-1.29c.1-.5.07-.93-.07-1.29-.14-.36-.38-.63-.72-.83-.34-.2-.73-.3-1.18-.3s-.88.1-1.29.3c-.41.2-.77.47-1.06.83s-.5.79-.61,1.29c-.11.5-.09.93.06,1.29s.39.63.72.83c.33.2.71.3,1.15.3Z"/>
        <path class="cls-7" d="M64.2,101.24c-.16,0-.25-.06-.28-.18-.03-.12,0-.22.1-.32l10.1-10.4c.1-.1.18-.17.26-.22.08-.05.19-.08.34-.08h.64c.15,0,.24.06.27.18.03.12,0,.22-.1.32l-10.1,10.4c-.1.1-.18.17-.26.22-.08.05-.19.08-.34.08h-.64ZM66.67,95.72c-.44,0-.81-.09-1.13-.27-.31-.18-.54-.43-.69-.76-.14-.33-.19-.7-.14-1.13.04-.28.09-.51.14-.7.05-.19.11-.44.18-.74.17-.65.47-1.17.91-1.57s1.02-.59,1.74-.59c.47,0,.86.09,1.17.28s.53.44.67.77.18.7.11,1.13c-.04.3-.09.54-.14.74-.05.19-.11.43-.18.7-.17.64-.48,1.16-.92,1.55s-1.02.59-1.74.59ZM66.71,94.66c.42,0,.75-.12.99-.38.25-.25.41-.51.5-.78.07-.29.13-.51.16-.68.03-.17.07-.38.11-.65.03-.19.04-.38.02-.55-.02-.18-.1-.32-.22-.44s-.33-.18-.61-.18c-.44,0-.77.12-1.01.37-.23.25-.39.51-.46.8-.07.27-.13.48-.16.65-.03.17-.07.39-.11.68-.02.18-.02.36,0,.54.03.18.1.32.23.44.13.12.31.18.56.18ZM71.86,101.34c-.44,0-.82-.09-1.14-.27-.32-.18-.55-.43-.7-.76-.14-.33-.18-.7-.12-1.13.04-.28.08-.51.13-.71.04-.2.1-.45.18-.74.18-.64.49-1.16.92-1.55.43-.39,1.01-.59,1.74-.59.47,0,.86.09,1.18.28s.54.44.68.77c.14.33.17.7.1,1.13-.04.3-.09.54-.13.74-.04.19-.1.43-.18.7-.17.64-.48,1.16-.92,1.55-.44.4-1.02.59-1.74.59ZM71.89,100.28c.42,0,.75-.13.99-.38s.41-.51.48-.78c.08-.29.14-.51.18-.68.03-.17.06-.38.1-.65.04-.19.05-.38.02-.55-.03-.18-.11-.32-.22-.44-.12-.12-.31-.18-.59-.18-.45,0-.79.12-1.02.37-.23.25-.38.51-.46.8-.08.27-.13.48-.16.65-.03.17-.07.39-.11.68-.02.18-.02.36,0,.54.03.18.1.32.23.44.13.12.31.18.56.18Z"/>
      </g>
      <polygon class="cls-7" points="18.21 99.22 24.41 93.02 30.6 99.22 18.21 99.22"/>
    </g>
  </g>
</svg>