<svg id="Layer_1" data-name="Layer 1" xmlns="http://www.w3.org/2000/svg" width="781.2766" height="626.11608" viewBox="0 0 781.2766 626.11608"><defs><style>.cls-1{opacity:0.3;}</style></defs><g class="cls-1"><path d="M289.28871,142.8858c19.751-4.67774,51.45605-7.7959,82.6416-7.7959,45.21875,0,74.32617,7.7959,95.63574,25.46777,18.19141,13.51367,29.627,34.30469,29.627,61.85156,0,34.30469-22.87012,63.93067-59.25293,76.92481v1.55957c33.26464,7.7959,72.24609,35.34375,72.24609,87.31933,0,30.14649-11.9541,53.53516-30.14551,70.168-23.90918,22.34961-63.41113,32.74414-120.585,32.74414-31.18555,0-55.09375-2.0791-70.167-4.15722Zm45.21875,143.4541H375.569c47.29785,0,75.36524-25.46778,75.36524-59.25293,0-40.541-30.666-57.17285-76.40528-57.17285-20.79,0-32.74511,1.55859-40.02148,3.11816Zm0,167.36328c9.35547,1.55859,21.83008,2.07812,37.94238,2.07812,46.77832,0,89.919-17.15136,89.919-68.08789,0-47.29883-41.06153-67.56933-90.43848-67.56933H334.50746Z"/></g></svg>