<svg id="Layer_1" data-name="Layer 1" xmlns="http://www.w3.org/2000/svg" width="320" height="144.76596" viewBox="0 0 320 144.76596"><defs><style>.cls-1{fill:#191919;}.cls-2,.cls-3,.cls-4{fill:#e6be3e;}.cls-2{opacity:0.6;}.cls-3{opacity:0.8;}</style></defs><path class="cls-1" d="M27.34563,138.47047a.35182.35182,0,0,1-.374-.374v-.25489a.65347.65347,0,0,1,.09375-.33154,1.81574,1.81574,0,0,1,.33105-.38257l4.40332-4.40307a8.74982,8.74982,0,0,0,.98633-1.03687,2.6979,2.6979,0,0,0,.4668-.87549,3.36276,3.36276,0,0,0,.12793-.96045,2.39815,2.39815,0,0,0-.6543-1.78515,2.5386,2.5386,0,0,0-1.86133-.646,2.72618,2.72618,0,0,0-1.32617.30615,2.25476,2.25476,0,0,0-.88379.8584,3.46608,3.46608,0,0,0-.42578,1.28345.37635.37635,0,0,1-.15234.29761.44149.44149,0,0,1-.23828.0935H27.499a.3574.3574,0,0,1-.26367-.0935.31123.31123,0,0,1-.09375-.2295,3.92129,3.92129,0,0,1,.23828-1.19848,3.62875,3.62875,0,0,1,.67188-1.14746,3.40369,3.40369,0,0,1,1.14746-.85865,3.8457,3.8457,0,0,1,1.666-.33154,3.89481,3.89481,0,0,1,2.082.49317,2.91757,2.91757,0,0,1,1.14746,1.2749,4.00134,4.00134,0,0,1,.35742,1.6831,3.8895,3.8895,0,0,1-.2041,1.28345,4.27117,4.27117,0,0,1-.61231,1.13892,8.05948,8.05948,0,0,1-1.03711,1.13061l-3.97754,4.0459h5.69434a.356.356,0,0,1,.3916.39111v.25489a.366.366,0,0,1-.10254.272.38911.38911,0,0,1-.28906.10205Z"/><path class="cls-1" d="M40.84368,138.64039a4.4186,4.4186,0,0,1-1.92969-.374,3.2065,3.2065,0,0,1-1.24121-1.02832,4.29,4.29,0,0,1-.67187-1.50464,9.04112,9.04112,0,0,1-.23731-1.78491q0-.45886-.00879-.93506-.00879-.47571,0-.96045.00879-.4845.00879-.96045a7.90653,7.90653,0,0,1,.22949-1.78516,4.39763,4.39763,0,0,1,.67969-1.50439,3.21133,3.21133,0,0,1,1.24121-1.02857,5.16243,5.16243,0,0,1,3.8584,0A3.21126,3.21126,0,0,1,44.0136,127.803a4.41741,4.41741,0,0,1,.68067,1.50439,7.96266,7.96266,0,0,1,.22949,1.78516q.01611.47607.0166.96045v.96045q0,.47607-.0166.93506a7.95674,7.95674,0,0,1-.22949,1.78491,4.41234,4.41234,0,0,1-.68067,1.50464,3.20642,3.20642,0,0,1-1.24121,1.02832A4.417,4.417,0,0,1,40.84368,138.64039Zm0-1.02a2.59413,2.59413,0,0,0,2.24414-1.00293,4.76837,4.76837,0,0,0,.76465-2.7539q.01611-.49293.0166-.92652v-.86694q0-.43359-.0166-.89258a4.79038,4.79038,0,0,0-.76465-2.73706,2.969,2.969,0,0,0-4.47949,0,4.73935,4.73935,0,0,0-.77442,2.73706q0,.45886-.00781.89258-.00879.43323,0,.86694.00732.43359.00781.92652a4.71768,4.71768,0,0,0,.77442,2.7539A2.594,2.594,0,0,0,40.84368,137.62037Z"/><path class="cls-1" d="M50.77239,138.47047a.35048.35048,0,0,1-.374-.374V127.96437l-3.043,2.34619a.38446.38446,0,0,1-.28125.085.356.356,0,0,1-.2461-.15308l-.1875-.238a.38816.38816,0,0,1-.085-.28051.35648.35648,0,0,1,.15332-.24634l3.6211-2.78809a.54867.54867,0,0,1,.2207-.102,1.39229,1.39229,0,0,1,.22168-.01684h.32227a.35015.35015,0,0,1,.374.374v11.15186a.35048.35048,0,0,1-.374.374Z"/><path class="cls-1" d="M58.082,138.64039a4.4186,4.4186,0,0,1-1.92969-.374,3.20657,3.20657,0,0,1-1.24121-1.02832,4.29,4.29,0,0,1-.67187-1.50464,9.04187,9.04187,0,0,1-.23731-1.78491q0-.45886-.00879-.93506-.00879-.47571,0-.96045.00879-.4845.00879-.96045a7.90653,7.90653,0,0,1,.2295-1.78516,4.39742,4.39742,0,0,1,.67968-1.50439,3.2114,3.2114,0,0,1,1.24121-1.02857,5.16243,5.16243,0,0,1,3.8584,0,3.21126,3.21126,0,0,1,1.24121,1.02857,4.41741,4.41741,0,0,1,.68067,1.50439,7.96266,7.96266,0,0,1,.22949,1.78516q.01611.47607.0166.96045v.96045q0,.47607-.0166.93506a7.95674,7.95674,0,0,1-.22949,1.78491,4.41234,4.41234,0,0,1-.68067,1.50464,3.20642,3.20642,0,0,1-1.24121,1.02832A4.417,4.417,0,0,1,58.082,138.64039Zm0-1.02a2.59413,2.59413,0,0,0,2.24414-1.00293,4.76837,4.76837,0,0,0,.76465-2.7539q.01611-.49293.0166-.92652v-.86694q0-.43359-.0166-.89258a4.79038,4.79038,0,0,0-.76465-2.73706,2.969,2.969,0,0,0-4.47949,0,4.73935,4.73935,0,0,0-.77441,2.73706q0,.45886-.00782.89258-.00879.43323,0,.86694.00734.43359.00782.92652a4.71768,4.71768,0,0,0,.77441,2.7539A2.594,2.594,0,0,0,58.082,137.62037Z"/><path class="cls-1" d="M128.748,138.47047a.35182.35182,0,0,1-.374-.374v-.25489a.65347.65347,0,0,1,.09375-.33154,1.81555,1.81555,0,0,1,.33106-.38257l4.40332-4.40307a8.75064,8.75064,0,0,0,.98633-1.03687,2.698,2.698,0,0,0,.46679-.87549,3.36276,3.36276,0,0,0,.12793-.96045,2.39818,2.39818,0,0,0-.65429-1.78515,2.53862,2.53862,0,0,0-1.86133-.646,2.72615,2.72615,0,0,0-1.32617.30615,2.25463,2.25463,0,0,0-.88379.8584,3.46608,3.46608,0,0,0-.42578,1.28345.37635.37635,0,0,1-.15235.29761.44149.44149,0,0,1-.23828.0935h-.33984a.3574.3574,0,0,1-.26367-.0935.31123.31123,0,0,1-.09375-.2295,3.921,3.921,0,0,1,.23828-1.19848,3.62872,3.62872,0,0,1,.67187-1.14746,3.40389,3.40389,0,0,1,1.14746-.85865,3.84572,3.84572,0,0,1,1.666-.33154,3.89477,3.89477,0,0,1,2.082.49317,2.91757,2.91757,0,0,1,1.14746,1.2749,4.00134,4.00134,0,0,1,.35742,1.6831,3.8895,3.8895,0,0,1-.2041,1.28345,4.27085,4.27085,0,0,1-.6123,1.13892,8.0607,8.0607,0,0,1-1.03711,1.13061l-3.97754,4.0459h5.69433a.356.356,0,0,1,.3916.39111v.25489a.366.366,0,0,1-.10253.272.38915.38915,0,0,1-.28907.10205Z"/><path class="cls-1" d="M142.246,138.64039a4.41853,4.41853,0,0,1-1.92968-.374,3.20642,3.20642,0,0,1-1.24121-1.02832,4.28985,4.28985,0,0,1-.67188-1.50464,9.04187,9.04187,0,0,1-.2373-1.78491q0-.45886-.00879-.93506-.00879-.47571,0-.96045.00879-.4845.00879-.96045a7.90653,7.90653,0,0,1,.22949-1.78516,4.39725,4.39725,0,0,1,.67969-1.50439,3.21126,3.21126,0,0,1,1.24121-1.02857,5.1624,5.1624,0,0,1,3.85839,0A3.21136,3.21136,0,0,1,145.416,127.803a4.41759,4.41759,0,0,1,.68066,1.50439,7.96266,7.96266,0,0,1,.22949,1.78516q.01611.47607.0166.96045v.96045q0,.47607-.0166.93506a7.95674,7.95674,0,0,1-.22949,1.78491,4.41251,4.41251,0,0,1-.68066,1.50464,3.20653,3.20653,0,0,1-1.24122,1.02832A4.417,4.417,0,0,1,142.246,138.64039Zm0-1.02a2.59412,2.59412,0,0,0,2.24414-1.00293,4.7683,4.7683,0,0,0,.76465-2.7539q.01611-.49293.0166-.92652v-.86694q0-.43359-.0166-.89258a4.7903,4.7903,0,0,0-.76465-2.73706,2.969,2.969,0,0,0-4.47949,0,4.73942,4.73942,0,0,0-.77441,2.73706q0,.45886-.00781.89258-.00879.43323,0,.86694.00732.43359.00781.92652a4.71775,4.71775,0,0,0,.77441,2.7539A2.594,2.594,0,0,0,142.246,137.62037Z"/><path class="cls-1" d="M152.17473,138.47047a.35048.35048,0,0,1-.374-.374V127.96437l-3.043,2.34619a.38446.38446,0,0,1-.28125.085.356.356,0,0,1-.24609-.15308l-.1875-.238a.38816.38816,0,0,1-.085-.28051.35648.35648,0,0,1,.15332-.24634l3.62109-2.78809a.54867.54867,0,0,1,.2207-.102,1.39238,1.39238,0,0,1,.22168-.01684h.32227a.35015.35015,0,0,1,.374.374v11.15186a.35048.35048,0,0,1-.374.374Z"/><path class="cls-1" d="M156.84856,138.47047a.30622.30622,0,0,1-.24609-.1106.39339.39339,0,0,1-.09375-.26342.55053.55053,0,0,1,.03418-.15308l4.36914-10.35278h-5.79688a.35048.35048,0,0,1-.374-.374v-.25512a.3938.3938,0,0,1,.10156-.28907.36974.36974,0,0,1,.27246-.1018h6.56153a.35563.35563,0,0,1,.3916.39087v.25512a1.78087,1.78087,0,0,1-.02539.3313,1.82255,1.82255,0,0,1-.09375.29761l-4.30078,10.2a2.99377,2.99377,0,0,1-.16211.28052.31114.31114,0,0,1-.28028.14453Z"/><path class="cls-1" d="M241.34563,138.47047a.35182.35182,0,0,1-.374-.374v-.25489a.65347.65347,0,0,1,.09375-.33154,1.81574,1.81574,0,0,1,.33105-.38257l4.40332-4.40307a8.74982,8.74982,0,0,0,.98633-1.03687,2.6979,2.6979,0,0,0,.4668-.87549,3.36276,3.36276,0,0,0,.12793-.96045,2.39815,2.39815,0,0,0-.6543-1.78515,2.5386,2.5386,0,0,0-1.86133-.646,2.72618,2.72618,0,0,0-1.32617.30615,2.25476,2.25476,0,0,0-.88379.8584,3.46608,3.46608,0,0,0-.42578,1.28345.37635.37635,0,0,1-.15234.29761.44149.44149,0,0,1-.23828.0935H241.499a.3574.3574,0,0,1-.26367-.0935.31123.31123,0,0,1-.09375-.2295,3.92129,3.92129,0,0,1,.23828-1.19848,3.62875,3.62875,0,0,1,.67188-1.14746,3.40369,3.40369,0,0,1,1.14746-.85865,3.8457,3.8457,0,0,1,1.666-.33154,3.89481,3.89481,0,0,1,2.082.49317,2.91757,2.91757,0,0,1,1.14746,1.2749,4.00134,4.00134,0,0,1,.35742,1.6831,3.8895,3.8895,0,0,1-.2041,1.28345,4.27117,4.27117,0,0,1-.61231,1.13892,8.05948,8.05948,0,0,1-1.03711,1.13061l-3.97754,4.0459h5.69434a.356.356,0,0,1,.3916.39111v.25489a.366.366,0,0,1-.10254.272.38911.38911,0,0,1-.28906.10205Z"/><path class="cls-1" d="M254.84368,138.64039a4.4186,4.4186,0,0,1-1.92969-.374,3.2065,3.2065,0,0,1-1.24121-1.02832,4.29,4.29,0,0,1-.67187-1.50464,9.04112,9.04112,0,0,1-.23731-1.78491q0-.45886-.00879-.93506-.00879-.47571,0-.96045.00879-.4845.00879-.96045a7.90653,7.90653,0,0,1,.22949-1.78516,4.39763,4.39763,0,0,1,.67969-1.50439,3.21133,3.21133,0,0,1,1.24121-1.02857,5.16243,5.16243,0,0,1,3.8584,0,3.21126,3.21126,0,0,1,1.24121,1.02857,4.41741,4.41741,0,0,1,.68067,1.50439,7.96266,7.96266,0,0,1,.22949,1.78516q.01611.47607.0166.96045v.96045q0,.47607-.0166.93506a7.95674,7.95674,0,0,1-.22949,1.78491,4.41234,4.41234,0,0,1-.68067,1.50464,3.20642,3.20642,0,0,1-1.24121,1.02832A4.417,4.417,0,0,1,254.84368,138.64039Zm0-1.02a2.59413,2.59413,0,0,0,2.24414-1.00293,4.76837,4.76837,0,0,0,.76465-2.7539q.01611-.49293.0166-.92652v-.86694q0-.43359-.0166-.89258a4.79038,4.79038,0,0,0-.76465-2.73706,2.969,2.969,0,0,0-4.47949,0,4.73935,4.73935,0,0,0-.77442,2.73706q0,.45886-.00781.89258-.00879.43323,0,.86694.00732.43359.00781.92652a4.71768,4.71768,0,0,0,.77442,2.7539A2.594,2.594,0,0,0,254.84368,137.62037Z"/><path class="cls-1" d="M261.33782,138.47047a.35182.35182,0,0,1-.374-.374v-.25489a.65347.65347,0,0,1,.09375-.33154,1.81574,1.81574,0,0,1,.33105-.38257l4.40332-4.40307a8.74982,8.74982,0,0,0,.98633-1.03687,2.69809,2.69809,0,0,0,.4668-.87549,3.36311,3.36311,0,0,0,.12793-.96045,2.39815,2.39815,0,0,0-.6543-1.78515,2.5386,2.5386,0,0,0-1.86133-.646,2.72615,2.72615,0,0,0-1.32617.30615,2.25469,2.25469,0,0,0-.88379.8584,3.46608,3.46608,0,0,0-.42578,1.28345.37635.37635,0,0,1-.15234.29761.44152.44152,0,0,1-.23829.0935h-.33984a.3574.3574,0,0,1-.26367-.0935.31123.31123,0,0,1-.09375-.2295,3.92129,3.92129,0,0,1,.23828-1.19848,3.62856,3.62856,0,0,1,.67188-1.14746,3.40369,3.40369,0,0,1,1.14746-.85865,3.84567,3.84567,0,0,1,1.666-.33154,3.89477,3.89477,0,0,1,2.082.49317,2.91751,2.91751,0,0,1,1.14746,1.2749,4.0012,4.0012,0,0,1,.35743,1.6831,3.88924,3.88924,0,0,1-.20411,1.28345,4.27085,4.27085,0,0,1-.6123,1.13892,8.05948,8.05948,0,0,1-1.03711,1.13061l-3.97754,4.0459h5.69434a.356.356,0,0,1,.3916.39111v.25489a.366.366,0,0,1-.10254.272.38911.38911,0,0,1-.28906.10205Z"/><path class="cls-1" d="M274.46184,138.64039a5.42744,5.42744,0,0,1-1.70019-.24634,4.10348,4.10348,0,0,1-1.2666-.65454,2.986,2.986,0,0,1-.79883-.92651,2.39506,2.39506,0,0,1-.29785-1.07959.29234.29234,0,0,1,.10254-.238.38383.38383,0,0,1,.25488-.085h.2373a.55534.55534,0,0,1,.26368.06812.48615.48615,0,0,1,.19531.323,2.08185,2.08185,0,0,0,.67187,1.13038,2.65831,2.65831,0,0,0,1.10547.54418,5.42089,5.42089,0,0,0,1.23242.14429,3.49661,3.49661,0,0,0,2.15039-.6289,2.20548,2.20548,0,0,0,.84082-1.887,2.06851,2.06851,0,0,0-.75585-1.802,3.47953,3.47953,0,0,0-2.06543-.54394h-1.4961a.3505.3505,0,0,1-.374-.374v-.25513a.55464.55464,0,0,1,.042-.22949.8395.8395,0,0,1,.11133-.17846l3.502-4.13086h-5.13476a.35182.35182,0,0,1-.374-.374v-.25512a.39025.39025,0,0,1,.10254-.28907.36591.36591,0,0,1,.27149-.1018H277.624a.35433.35433,0,0,1,.39063.39087v.25512a.36223.36223,0,0,1-.043.17847,1.21489,1.21489,0,0,1-.09277.14453l-3.58692,4.199h.33985a5.28366,5.28366,0,0,1,2.04785.36547,2.9113,2.9113,0,0,1,1.36035,1.11353,3.82435,3.82435,0,0,1-.042,3.79932,3.36207,3.36207,0,0,1-1.44532,1.207A5.013,5.013,0,0,1,274.46184,138.64039Z"/><circle class="cls-2" cx="44.61694" cy="63.35748" r="42.80022"/><circle class="cls-3" cx="145.00925" cy="63.35748" r="49.11083"/><circle class="cls-4" cx="259.74045" cy="63.35748" r="57.19667"/><path class="cls-1" d="M15.02337,73.198a.44589.44589,0,0,1-.46-.46v-11.2l-3.31934,2.55981a.46682.46682,0,0,1-.33984.1001.42482.42482,0,0,1-.30078-.17993l-.51954-.66016a.48716.48716,0,0,1-.08984-.35986.46.46,0,0,1,.18945-.30005l4.36036-3.36011a.64076.64076,0,0,1,.25976-.11987,1.60256,1.60256,0,0,1,.25977-.02h1.0205a.4169.4169,0,0,1,.32032.12988.46775.46775,0,0,1,.11914.33008V72.73805a.46693.46693,0,0,1-.11914.33008.416.416,0,0,1-.32032.12988Z"/><path class="cls-1" d="M19.50384,73.198a.4444.4444,0,0,1-.46-.46v-.64014a.96766.96766,0,0,1,.0996-.3999,1.51433,1.51433,0,0,1,.4004-.48l4.23925-4.24q1.021-.85986,1.61035-1.47a4.22138,4.22138,0,0,0,.83985-1.17017,2.81016,2.81016,0,0,0,.25-1.15991,2.28014,2.28014,0,0,0-2.54-2.48,2.746,2.746,0,0,0-1.37988.33008,2.406,2.406,0,0,0-.91016.8999,3.51243,3.51243,0,0,0-.42969,1.29.47249.47249,0,0,1-.21.35986.62123.62123,0,0,1-.31055.1001h-1.04a.42854.42854,0,0,1-.29981-.10986.35182.35182,0,0,1-.12012-.27,4.528,4.528,0,0,1,.32032-1.53,4.233,4.233,0,0,1,.88964-1.39014,4.56808,4.56808,0,0,1,1.46-1.01,4.92439,4.92439,0,0,1,2.03027-.38989,5.22448,5.22448,0,0,1,2.58984.57007,3.60768,3.60768,0,0,1,1.49024,1.51,4.45926,4.45926,0,0,1,.48047,2.05981,4.19238,4.19238,0,0,1-.30079,1.61011,5.49878,5.49878,0,0,1-.87011,1.41992,11.73577,11.73577,0,0,1-1.40918,1.41016L22.08294,71.458h6.24023a.49873.49873,0,0,1,.35059.11987.44274.44274,0,0,1,.12988.34009v.82007a.45012.45012,0,0,1-.12988.33008.475.475,0,0,1-.35059.12988Z"/><path class="cls-1" d="M35.32317,73.198a.44589.44589,0,0,1-.46-.46v-11.2l-3.31933,2.55981a.46685.46685,0,0,1-.33985.1001.42484.42484,0,0,1-.30078-.17993l-.51953-.66016a.48711.48711,0,0,1-.08984-.35986.45992.45992,0,0,1,.18945-.30005l4.36035-3.36011a.64079.64079,0,0,1,.25977-.11987,1.60243,1.60243,0,0,1,.25976-.02h1.02051a.41689.41689,0,0,1,.32031.12988.4677.4677,0,0,1,.11914.33008V72.73805a.46688.46688,0,0,1-.11914.33008.416.416,0,0,1-.32031.12988Z"/><path class="cls-1" d="M40.163,73.198a.44442.44442,0,0,1-.46-.46V71.29811a.44481.44481,0,0,1,.46-.46021h1.44043a.44481.44481,0,0,1,.46.46021v1.43994a.44442.44442,0,0,1-.46.46Z"/><path class="cls-1" d="M49.56341,73.398a7.41781,7.41781,0,0,1-2.12989-.29,4.85568,4.85568,0,0,1-1.66015-.83984A3.82254,3.82254,0,0,1,44.70305,70.938a3.95821,3.95821,0,0,1-.37988-1.76,3.682,3.682,0,0,1,.58985-2.1001,3.79674,3.79674,0,0,1,1.57031-1.33984,3.57832,3.57832,0,0,1-1.07031-4.99,3.83626,3.83626,0,0,1,1.66015-1.29,6.26023,6.26023,0,0,1,2.49024-.46,6.33027,6.33027,0,0,1,2.46972.44995,3.74355,3.74355,0,0,1,1.66016,1.29,3.49273,3.49273,0,0,1-1.04981,5,3.80008,3.80008,0,0,1,1.56934,1.33984,3.682,3.682,0,0,1,.58984,2.1001,3.8464,3.8464,0,0,1-.65918,2.25,4.21024,4.21024,0,0,1-1.84082,1.46A6.85,6.85,0,0,1,49.56341,73.398Zm0-1.59985a4.1399,4.1399,0,0,0,1.65918-.32007,2.85011,2.85011,0,0,0,1.18066-.90991A2.26242,2.26242,0,0,0,52.8427,69.178a2.208,2.208,0,0,0-.43945-1.38989,2.84962,2.84962,0,0,0-1.18066-.88013,4.25952,4.25952,0,0,0-1.65918-.31006,4.33166,4.33166,0,0,0-1.66993.31006,2.832,2.832,0,0,0-1.19043.88013,2.20869,2.20869,0,0,0-.44042,1.38989,2.26319,2.26319,0,0,0,.44042,1.39014,2.83173,2.83173,0,0,0,1.19043.90991A4.20975,4.20975,0,0,0,49.56341,71.79811Zm0-6.78a3.5204,3.5204,0,0,0,1.40918-.28,2.66528,2.66528,0,0,0,1.04-.76,1.77711,1.77711,0,0,0,.39062-1.15991,1.934,1.934,0,0,0-.37012-1.18018,2.36619,2.36619,0,0,0-1.0205-.77,4.02668,4.02668,0,0,0-2.89942,0,2.43273,2.43273,0,0,0-1.03027.77,2.03831,2.03831,0,0,0,0,2.37012,2.38758,2.38758,0,0,0,1.03027.75A3.86831,3.86831,0,0,0,49.56341,65.01808Z"/><path class="cls-1" d="M59.78313,73.198a.361.361,0,0,1-.29-.12988.46059.46059,0,0,1-.11035-.31006.354.354,0,0,1,.03028-.16016q.02929-.05968.0498-.09985l3.05957-4.26a4.61492,4.61492,0,0,1-1.08008.11987,5.2349,5.2349,0,0,1-2-.3999,4.53479,4.53479,0,0,1-1.5-1.03,4.45475,4.45475,0,0,1-.93945-1.47,4.67885,4.67885,0,0,1-.32031-1.72,4.92247,4.92247,0,0,1,.31054-1.72,4.51613,4.51613,0,0,1,.93946-1.52A4.63152,4.63152,0,0,1,59.50286,59.408a5.52273,5.52273,0,0,1,2.21973-.40991,5.78722,5.78722,0,0,1,2.21.38989A4.66468,4.66468,0,0,1,65.53313,60.448a4.29594,4.29594,0,0,1,.96,1.51,4.99977,4.99977,0,0,1,.30957,1.74,4.47487,4.47487,0,0,1-.24023,1.5,6.40981,6.40981,0,0,1-.56934,1.22q-.331.54017-.65039,1l-3.83984,5.38013c-.05371.06689-.127.1499-.21973.25a.5487.5487,0,0,1-.41992.1499Zm1.93946-6.46a3.29424,3.29424,0,0,0,1.5498-.37012,2.87823,2.87823,0,0,0,1.13086-1.04,3.29632,3.29632,0,0,0,0-3.22,2.883,2.883,0,0,0-1.13086-1.03979,3.3,3.3,0,0,0-1.5498-.37012,3.19906,3.19906,0,0,0-1.51954.37012,2.90051,2.90051,0,0,0-1.12011,1.03979,3.29632,3.29632,0,0,0,0,3.22,2.89568,2.89568,0,0,0,1.12011,1.04A3.19349,3.19349,0,0,0,61.72259,66.73805Z"/><path class="cls-1" d="M75.50286,73.198a.44589.44589,0,0,1-.46-.46V69.85792H68.56341a.4444.4444,0,0,1-.46-.46v-.8a1.00975,1.00975,0,0,1,.0498-.25,1.29077,1.29077,0,0,1,.16992-.34985l6-8.46a.84425.84425,0,0,1,.74024-.34009h1.43945a.44594.44594,0,0,1,.46094.46v8.46h1.7998a.47275.47275,0,0,1,.34961.13013.44646.44646,0,0,1,.12988.32983V69.398a.4444.4444,0,0,1-.46.46H76.9638v2.88013a.44594.44594,0,0,1-.46094.46Zm-5.25977-5.04h4.82032V61.29811Z"/><path class="cls-1" d="M113.34075,73.5818a.48872.48872,0,0,1-.50586-.50611V60.75587l-3.65234,2.81592a.51325.51325,0,0,1-.374.11011.46634.46634,0,0,1-.33007-.198l-.57227-.72608a.53735.53735,0,0,1-.09863-.396.50667.50667,0,0,1,.209-.33008l4.7959-3.696a.70593.70593,0,0,1,.28613-.13183,1.77309,1.77309,0,0,1,.28614-.022h1.12207a.45542.45542,0,0,1,.35156.14282.5157.5157,0,0,1,.13183.363V73.07569a.51406.51406,0,0,1-.13183.363.454.454,0,0,1-.35156.14307Z"/><path class="cls-1" d="M118.26848,73.5818a.4887.4887,0,0,1-.50585-.50611v-.70385a1.06327,1.06327,0,0,1,.11035-.43994,1.654,1.654,0,0,1,.43945-.52808l4.66406-4.66406q1.12208-.94555,1.77149-1.617a4.64308,4.64308,0,0,0,.92382-1.28711,3.10748,3.10748,0,0,0,.27442-1.27588,2.5089,2.5089,0,0,0-2.79395-2.728,3.0171,3.0171,0,0,0-1.51757.363,2.64619,2.64619,0,0,0-1.001.99,3.857,3.857,0,0,0-.47363,1.41895.51906.51906,0,0,1-.23047.396.6848.6848,0,0,1-.34082.1101h-1.14453a.46951.46951,0,0,1-.33008-.12109.38661.38661,0,0,1-.13184-.29688,4.95959,4.95959,0,0,1,.35254-1.6831,4.65205,4.65205,0,0,1,.97852-1.529,5.01571,5.01571,0,0,1,1.60644-1.11084,5.40987,5.40987,0,0,1,2.23242-.4292,5.75447,5.75447,0,0,1,2.84961.62719,3.97494,3.97494,0,0,1,1.63867,1.66089,4.91612,4.91612,0,0,1,.52833,2.26612,4.62116,4.62116,0,0,1-.33008,1.771,6.12417,6.12417,0,0,1-.957,1.562A12.9222,12.9222,0,0,1,125.331,67.3777l-4.2246,4.29h6.86425a.5451.5451,0,0,1,.38477.13209.48243.48243,0,0,1,.14355.374v.90185a.49024.49024,0,0,1-.14355.363.51918.51918,0,0,1-.38477.14307Z"/><path class="cls-1" d="M136.37493,73.80177a6.10456,6.10456,0,0,1-3.10254-.73706,5.08839,5.08839,0,0,1-1.94726-1.93579,5.25067,5.25067,0,0,1-.6709-2.60718,4.81328,4.81328,0,0,1,.165-1.26489,7.16744,7.16744,0,0,1,.418-1.14405q.25342-.53869.50586-.968a7.78686,7.78686,0,0,1,.45118-.69288l4.18066-5.83007q.10986-.10988.26367-.27515a.60273.60273,0,0,1,.46192-.16479h1.166a.399.399,0,0,1,.31934.14282.51453.51453,0,0,1,.12109.34106.59774.59774,0,0,1-.02246.165.27342.27342,0,0,1-.06641.12109l-3.21191,4.4878a2.78669,2.78669,0,0,1,.60547-.12085q.34131-.033.64844-.033a5.88526,5.88526,0,0,1,2.20019.43994,5.29426,5.29426,0,0,1,1.70508,1.13306,4.86231,4.86231,0,0,1,1.08887,1.6499,5.4562,5.4562,0,0,1-.28614,4.58691,5.07258,5.07258,0,0,1-1.9248,1.958A5.92833,5.92833,0,0,1,136.37493,73.80177Zm-.02246-1.86987a3.781,3.781,0,0,0,1.71582-.396,3.25072,3.25072,0,0,0,1.28711-1.155,3.3304,3.3304,0,0,0,.49512-1.85913,3.42585,3.42585,0,0,0-.48438-1.88086,3.07494,3.07494,0,0,0-1.28613-1.144,3.948,3.948,0,0,0-1.72754-.385,3.873,3.873,0,0,0-1.71582.385,3.16782,3.16782,0,0,0-1.28711,1.144,3.37152,3.37152,0,0,0-.49512,1.88086,3.3304,3.3304,0,0,0,.49512,1.85913,3.25072,3.25072,0,0,0,1.28711,1.155A3.784,3.784,0,0,0,136.35247,71.9319Z"/><path class="cls-1" d="M144.84466,73.5818a.49026.49026,0,0,1-.50684-.50611v-1.584a.49024.49024,0,0,1,.50684-.50586h1.584a.49018.49018,0,0,1,.50586.50586v1.584a.49019.49019,0,0,1-.50586.50611Z"/><path class="cls-1" d="M155.05169,73.80177a6.20084,6.20084,0,0,1-2.5625-.4729,4.48116,4.48116,0,0,1-1.70508-1.30908,5.33725,5.33725,0,0,1-.957-1.91407,9.93077,9.93077,0,0,1-.34082-2.28784q-.022-.594-.03321-1.25415-.01171-.65991,0-1.33105.01026-.67054.03321-1.28687a8.69871,8.69871,0,0,1,.34082-2.29907,5.61722,5.61722,0,0,1,.96777-1.91406,4.42448,4.42448,0,0,1,1.70508-1.29786,7.14928,7.14928,0,0,1,5.11523,0,4.54436,4.54436,0,0,1,1.70508,1.29786,5.51814,5.51814,0,0,1,.97852,1.91406,8.69871,8.69871,0,0,1,.34082,2.29907q.022.61633.0332,1.28687.01172.67162,0,1.33105-.01024.66028-.0332,1.25415a8.56546,8.56546,0,0,1-.34082,2.28784,5.74916,5.74916,0,0,1-.96778,1.91407,4.38559,4.38559,0,0,1-1.69433,1.30908A6.26449,6.26449,0,0,1,155.05169,73.80177Zm0-1.86987a2.93249,2.93249,0,0,0,2.541-1.13306,5.25179,5.25179,0,0,0,.84766-3.09107q.04395-.63793.04394-1.24292v-1.21q0-.605-.04394-1.199a5.27625,5.27625,0,0,0-.84766-3.06909,3.34789,3.34789,0,0,0-5.05957,0,5.39641,5.39641,0,0,0-.86914,3.06909q0,.594-.01074,1.199-.01172.60536,0,1.21.01026.60536.01074,1.24292a5.30955,5.30955,0,0,0,.87989,3.09107A2.9156,2.9156,0,0,0,155.05169,71.9319Z"/><path class="cls-1" d="M168.12005,73.5818a.48872.48872,0,0,1-.50586-.50611V60.75587l-3.65235,2.81592a.51322.51322,0,0,1-.374.11011.46634.46634,0,0,1-.33008-.198l-.57226-.72608a.53736.53736,0,0,1-.09864-.396.50672.50672,0,0,1,.209-.33008l4.7959-3.696a.70593.70593,0,0,1,.28613-.13183,1.773,1.773,0,0,1,.28613-.022h1.12207a.45544.45544,0,0,1,.35157.14282.5157.5157,0,0,1,.13183.363V73.07569a.51406.51406,0,0,1-.13183.363.454.454,0,0,1-.35157.14307Z"/><path class="cls-1" d="M174.74212,73.5818a.39643.39643,0,0,1-.31934-.14307.50849.50849,0,0,1-.12109-.34082.69716.69716,0,0,1,.04394-.198l5.47852-12.8042h-7.2168a.48981.48981,0,0,1-.50586-.50586v-.88012a.52.52,0,0,1,.14356-.385.48985.48985,0,0,1,.3623-.14282h9.02051a.49336.49336,0,0,1,.52832.52783v.814a2.02263,2.02263,0,0,1-.04395.46216,3.28954,3.28954,0,0,1-.13281.396l-5.43359,12.6499a1.44413,1.44413,0,0,1-.209.363.483.483,0,0,1-.40722.187Z"/><path class="cls-1" d="M224.10052,73.96583a.54679.54679,0,0,1-.4209-.168.57866.57866,0,0,1-.15528-.408V60.95777l-3.64843,2.80811a.58793.58793,0,0,1-.43164.10791.61232.61232,0,0,1-.38379-.252l-1.00879-1.2959a.62906.62906,0,0,1-.10742-.45606.54112.54112,0,0,1,.252-.384l5.376-4.1521a.61.61,0,0,1,.28808-.1438,1.903,1.903,0,0,1,.31152-.02417h2.11231a.5735.5735,0,0,1,.57617.57593V73.3899a.5735.5735,0,0,1-.57617.57593Z"/><path class="cls-1" d="M235.90813,74.22975a7.95881,7.95881,0,0,1-3.47949-.68384,5.22158,5.22158,0,0,1-2.14844-1.78809,4.50484,4.50484,0,0,1-.78027-2.352.37444.37444,0,0,1,.13281-.3479.55614.55614,0,0,1,.37207-.13208h2.23145a.85093.85093,0,0,1,.44433.10816.68035.68035,0,0,1,.27539.37182,3.01687,3.01687,0,0,0,.68457,1.176,2.74011,2.74011,0,0,0,1.03223.67212,3.55663,3.55663,0,0,0,1.23535.21582,3.51243,3.51243,0,0,0,1.57227-.3479,2.75053,2.75053,0,0,0,1.13965-1.044,3.17055,3.17055,0,0,0,.43261-1.7041,2.82688,2.82688,0,0,0-.4082-1.53589,2.87191,2.87191,0,0,0-1.11621-1.02,3.42888,3.42888,0,0,0-1.62012-.37207,3.08228,3.08228,0,0,0-1.10351.168,3.29951,3.29951,0,0,0-.73242.384q-.3003.21607-.52735.384a.84922.84922,0,0,1-.5166.168h-2.208a.53314.53314,0,0,1-.52832-.52808l.84082-8.208a.65355.65355,0,0,1,.67188-.648h9.02343a.5735.5735,0,0,1,.57618.57593v1.60815a.5735.5735,0,0,1-.57618.57593h-6.93554l-.38379,3.91211a5.56441,5.56441,0,0,1,1.15137-.552,5.98831,5.98831,0,0,1,1.99218-.26416,6.4987,6.4987,0,0,1,2.19629.37207,5.76094,5.76094,0,0,1,1.85938,1.08008,5.10088,5.10088,0,0,1,1.28418,1.70385,5.26692,5.26692,0,0,1,.46875,2.26807,5.60038,5.60038,0,0,1-.81641,3.0481,5.48915,5.48915,0,0,1-2.28027,2.01587A7.7486,7.7486,0,0,1,235.90813,74.22975Z"/><path class="cls-1" d="M249.829,73.96583a.54681.54681,0,0,1-.4209-.168.57869.57869,0,0,1-.15527-.408V60.95777l-3.64844,2.80811a.58791.58791,0,0,1-.43164.10791.61237.61237,0,0,1-.38379-.252l-1.00879-1.2959a.62915.62915,0,0,1-.10742-.45606.54115.54115,0,0,1,.252-.384l5.376-4.1521a.61.61,0,0,1,.28809-.1438,1.903,1.903,0,0,1,.31152-.02417h2.11231a.5735.5735,0,0,1,.57617.57593V73.3899a.5735.5735,0,0,1-.57617.57593Z"/><path class="cls-1" d="M256.30755,73.96583a.5735.5735,0,0,1-.5752-.57593v-2.376a.58393.58393,0,0,1,.168-.43213.5531.5531,0,0,1,.40723-.168h2.40039a.55683.55683,0,0,1,.4082.168.58773.58773,0,0,1,.168.43213v2.376a.5735.5735,0,0,1-.57617.57593Z"/><path class="cls-1" d="M268.42864,74.20582a9.63084,9.63084,0,0,1-2.832-.384,6.10518,6.10518,0,0,1-2.09961-1.08008,4.68518,4.68518,0,0,1-1.29687-1.63184,4.81242,4.81242,0,0,1-.44336-2.08813,4.228,4.228,0,0,1,.68359-2.41187,4.586,4.586,0,0,1,1.78809-1.572,3.84676,3.84676,0,0,1-1.87207-3.43213,4.23734,4.23734,0,0,1,.708-2.43579,4.7197,4.7197,0,0,1,2.06446-1.644,9.42844,9.42844,0,0,1,6.58789-.012,4.57993,4.57993,0,0,1,2.04,1.63183,4.29056,4.29056,0,0,1,.69628,2.436,4.0816,4.0816,0,0,1-.48046,2.01611,4.12534,4.12534,0,0,1-1.34375,1.43994,4.23428,4.23428,0,0,1,1.7998,1.572,4.408,4.408,0,0,1,.67188,2.436,4.691,4.691,0,0,1-.78028,2.676,5.15064,5.15064,0,0,1-2.27929,1.824A8.94832,8.94832,0,0,1,268.42864,74.20582Zm0-2.49609a4.2578,4.2578,0,0,0,1.69238-.324,2.84774,2.84774,0,0,0,1.19922-.92383,2.4975,2.4975,0,0,0,0-2.844,2.89194,2.89194,0,0,0-1.19922-.91211,4.58238,4.58238,0,0,0-3.38476,0,2.88566,2.88566,0,0,0-1.19922.91211,2.4975,2.4975,0,0,0,0,2.844,2.84168,2.84168,0,0,0,1.19922.92383A4.25442,4.25442,0,0,0,268.42864,71.70973Zm0-7.70386a3.89247,3.89247,0,0,0,1.45215-.312,2.72276,2.72276,0,0,0,1.05566-.78,1.83573,1.83573,0,0,0,.39649-1.188,2.01781,2.01781,0,0,0-.37207-1.21191,2.45193,2.45193,0,0,0-1.03223-.8042,4.05234,4.05234,0,0,0-3,0,2.43984,2.43984,0,0,0-1.03223.8042,2.01781,2.01781,0,0,0-.37207,1.21191,1.96348,1.96348,0,0,0,.37207,1.2,2.47857,2.47857,0,0,0,1.03223.792A3.71007,3.71007,0,0,0,268.42864,64.00587Z"/><path class="cls-1" d="M283.64348,74.22975a7.95881,7.95881,0,0,1-3.47949-.68384,5.22171,5.22171,0,0,1-2.14844-1.78809,4.50484,4.50484,0,0,1-.78027-2.352.37446.37446,0,0,1,.13281-.3479.55614.55614,0,0,1,.37207-.13208h2.23145a.851.851,0,0,1,.44434.10816.68044.68044,0,0,1,.27539.37182,3.01663,3.01663,0,0,0,.68457,1.176,2.74,2.74,0,0,0,1.03222.67212,3.55663,3.55663,0,0,0,1.23535.21582,3.5124,3.5124,0,0,0,1.57227-.3479,2.75053,2.75053,0,0,0,1.13965-1.044,3.17055,3.17055,0,0,0,.43262-1.7041,2.82689,2.82689,0,0,0-.40821-1.53589,2.87191,2.87191,0,0,0-1.11621-1.02,3.42888,3.42888,0,0,0-1.62012-.37207,3.08228,3.08228,0,0,0-1.10351.168,3.29951,3.29951,0,0,0-.73242.384q-.3003.21607-.52735.384a.84922.84922,0,0,1-.5166.168h-2.208a.53314.53314,0,0,1-.52832-.52808l.84082-8.208a.65355.65355,0,0,1,.67188-.648h9.02344a.5735.5735,0,0,1,.57617.57593v1.60815a.5735.5735,0,0,1-.57617.57593h-6.93555l-.38379,3.91211a5.56491,5.56491,0,0,1,1.15137-.552,5.98838,5.98838,0,0,1,1.99219-.26416,6.49864,6.49864,0,0,1,2.19628.37207,5.76094,5.76094,0,0,1,1.85938,1.08008,5.10075,5.10075,0,0,1,1.28418,1.70385,5.26692,5.26692,0,0,1,.46875,2.26807,5.60038,5.60038,0,0,1-.81641,3.0481,5.48909,5.48909,0,0,1-2.28027,2.01587A7.7486,7.7486,0,0,1,283.64348,74.22975Z"/><path class="cls-1" d="M297.56438,73.96583a.54682.54682,0,0,1-.4209-.168.57869.57869,0,0,1-.15527-.408V60.95777l-3.64844,2.80811a.58791.58791,0,0,1-.43164.10791.61237.61237,0,0,1-.38379-.252l-1.00879-1.2959a.62915.62915,0,0,1-.10742-.45606.54114.54114,0,0,1,.252-.384l5.376-4.1521a.61.61,0,0,1,.28809-.1438,1.903,1.903,0,0,1,.31152-.02417H299.748a.5735.5735,0,0,1,.57617.57593V73.3899a.5735.5735,0,0,1-.57617.57593Z"/></svg>