<svg id="Layer_1" data-name="Layer 1" xmlns="http://www.w3.org/2000/svg" width="540" height="212.93617" viewBox="0 0 540 212.93617"><defs><style>.cls-1{fill:#191919;}.cls-2,.cls-3,.cls-4{fill:#e6be3e;}.cls-2{opacity:0.6;}.cls-3{opacity:0.8;}</style></defs><path class="cls-1" d="M52.77727,199.90821a.34982.34982,0,0,1-.374-.374v-.25488a.65649.65649,0,0,1,.09375-.332,1.79211,1.79211,0,0,1,.331-.38184l4.40333-4.40332a8.749,8.749,0,0,0,.98632-1.03711,2.68853,2.68853,0,0,0,.4668-.875,3.4,3.4,0,0,0,.12793-.96094,2.39852,2.39852,0,0,0-.6543-1.78515,2.53978,2.53978,0,0,0-1.8623-.64551,2.72483,2.72483,0,0,0-1.3252.30566,2.26533,2.26533,0,0,0-.88476.8584,3.48989,3.48989,0,0,0-.42481,1.28418.37484.37484,0,0,1-.15332.29688.44027.44027,0,0,1-.2373.09375h-.33985a.3535.3535,0,0,1-.26367-.09375.31008.31008,0,0,1-.09375-.2295,3.895,3.895,0,0,1,.23828-1.19824,3.62343,3.62343,0,0,1,.6709-1.14746,3.40663,3.40663,0,0,1,1.14746-.8584,3.84091,3.84091,0,0,1,1.666-.332,3.9006,3.9006,0,0,1,2.083.49317,2.91871,2.91871,0,0,1,1.14746,1.27539,3.99842,3.99842,0,0,1,.35644,1.68261,3.8861,3.8861,0,0,1-.20312,1.28321,4.3194,4.3194,0,0,1-.61231,1.13964,8.103,8.103,0,0,1-1.03711,1.12989l-3.97754,4.04687H59.747a.35531.35531,0,0,1,.3916.39063v.25488a.36827.36827,0,0,1-.10254.27246.39185.39185,0,0,1-.28906.10156Z"/><path class="cls-1" d="M66.27532,200.07814a4.425,4.425,0,0,1-1.92969-.374,3.20431,3.20431,0,0,1-1.24121-1.02832,4.27023,4.27023,0,0,1-.6709-1.50488,8.96436,8.96436,0,0,1-.23828-1.78516q0-.45849-.00879-.93457t0-.96094q.00879-.48339.00879-.96a7.91186,7.91186,0,0,1,.22949-1.78515,4.40016,4.40016,0,0,1,.67969-1.50489,3.22148,3.22148,0,0,1,1.24121-1.02832,5.165,5.165,0,0,1,3.85938,0,3.2286,3.2286,0,0,1,1.24121,1.02832,4.40016,4.40016,0,0,1,.67969,1.50489,7.96806,7.96806,0,0,1,.22949,1.78515q.01611.47608.0166.96v.96094q0,.47609-.0166.93457a7.95341,7.95341,0,0,1-.22949,1.78516,4.39168,4.39168,0,0,1-.67969,1.50488,3.21135,3.21135,0,0,1-1.24121,1.02832A4.428,4.428,0,0,1,66.27532,200.07814Zm0-1.01954a2.59422,2.59422,0,0,0,2.24414-1.00293,4.75646,4.75646,0,0,0,.76465-2.75488q.01758-.49218.01758-.92578v-.86719q0-.43359-.01758-.89258a4.77794,4.77794,0,0,0-.76465-2.7373,2.96994,2.96994,0,0,0-4.47949,0,4.73446,4.73446,0,0,0-.77344,2.7373q0,.4585-.00879.89258-.00879.4336,0,.86719t.00879.92578a4.71322,4.71322,0,0,0,.77344,2.75488A2.59882,2.59882,0,0,0,66.27532,199.0586Z"/><path class="cls-1" d="M76.20305,199.90821a.34982.34982,0,0,1-.374-.374V189.40235l-3.043,2.34571a.38016.38016,0,0,1-.28027.085.35317.35317,0,0,1-.24707-.15235l-.18652-.23828a.38022.38022,0,0,1-.085-.28027.3532.3532,0,0,1,.15235-.24707l3.62109-2.78809a.54774.54774,0,0,1,.22168-.10156,1.296,1.296,0,0,1,.2207-.01758h.32325a.35249.35249,0,0,1,.374.374v11.15234a.35115.35115,0,0,1-.374.374Z"/><path class="cls-1" d="M83.51263,200.07814a4.42047,4.42047,0,0,1-1.92872-.374,3.19723,3.19723,0,0,1-1.24121-1.02832,4.25415,4.25415,0,0,1-.67187-1.50488,9.10926,9.10926,0,0,1-.23828-1.78516c0-.30566-.002-.61718-.00782-.93457s-.00585-.63769,0-.96094c.00586-.32226.00782-.64257.00782-.96a7.91177,7.91177,0,0,1,.23047-1.78515,4.36328,4.36328,0,0,1,.67968-1.50489,3.21432,3.21432,0,0,1,1.24121-1.02832,5.16243,5.16243,0,0,1,3.8584,0,3.22133,3.22133,0,0,1,1.24121,1.02832,4.39978,4.39978,0,0,1,.67969,1.50489,7.91186,7.91186,0,0,1,.22949,1.78515q.01758.47608.01758.96v.96094q0,.47609-.01758.93457a7.89742,7.89742,0,0,1-.22949,1.78516,4.3913,4.3913,0,0,1-.67969,1.50488,3.20417,3.20417,0,0,1-1.24121,1.02832A4.425,4.425,0,0,1,83.51263,200.07814Zm0-1.01954a2.59424,2.59424,0,0,0,2.24414-1.00293,4.76383,4.76383,0,0,0,.76562-2.75488q.01611-.49218.0166-.92578v-.86719q0-.43359-.0166-.89258a4.78555,4.78555,0,0,0-.76562-2.7373,2.97,2.97,0,0,0-4.4795,0,4.73453,4.73453,0,0,0-.77343,2.7373q0,.4585-.00879.89258-.00733.4336,0,.86719.00879.43359.00879.92578a4.71329,4.71329,0,0,0,.77343,2.75488A2.59884,2.59884,0,0,0,83.51263,199.0586Z"/><path class="cls-1" d="M233.16106,199.90821a.35124.35124,0,0,1-.375-.374v-.25488a.65649.65649,0,0,1,.09375-.332,1.83109,1.83109,0,0,1,.332-.38184l4.40235-4.40332a8.59114,8.59114,0,0,0,.98633-1.03711,2.69248,2.69248,0,0,0,.46777-.875,3.4,3.4,0,0,0,.12793-.96094,2.39852,2.39852,0,0,0-.6543-1.78515,2.54135,2.54135,0,0,0-1.8623-.64551,2.72217,2.72217,0,0,0-1.3252.30566,2.25236,2.25236,0,0,0-.88476.8584,3.472,3.472,0,0,0-.42481,1.28418.37484.37484,0,0,1-.15332.29688.44013.44013,0,0,1-.23828.09375h-.33984a.35653.35653,0,0,1-.26368-.09375.30925.30925,0,0,1-.09277-.2295,3.92127,3.92127,0,0,1,.23731-1.19824,3.6262,3.6262,0,0,1,.67187-1.14746,3.40663,3.40663,0,0,1,1.14746-.8584,3.84091,3.84091,0,0,1,1.666-.332,3.9006,3.9006,0,0,1,2.083.49317,2.91049,2.91049,0,0,1,1.14648,1.27539,3.99911,3.99911,0,0,1,.35742,1.68261,3.91171,3.91171,0,0,1-.20312,1.28321,4.29537,4.29537,0,0,1-.61328,1.13964,8.03244,8.03244,0,0,1-1.03614,1.12989l-3.97754,4.04687h5.69434a.38946.38946,0,0,1,.28906.10156.39385.39385,0,0,1,.10254.28907v.25488a.37217.37217,0,0,1-.10254.27246.39339.39339,0,0,1-.28906.10156Z"/><path class="cls-1" d="M246.65911,200.07814a4.422,4.422,0,0,1-1.92969-.374,3.20424,3.20424,0,0,1-1.24121-1.02832,4.2528,4.2528,0,0,1-.6709-1.50488,8.96436,8.96436,0,0,1-.23828-1.78516q0-.45849-.00879-.93457t0-.96094q.00879-.48339.00879-.96a7.91186,7.91186,0,0,1,.22949-1.78515,4.40016,4.40016,0,0,1,.67969-1.50489,3.22141,3.22141,0,0,1,1.24121-1.02832,5.165,5.165,0,0,1,3.85938,0,3.21827,3.21827,0,0,1,1.24023,1.02832,4.36348,4.36348,0,0,1,.67969,1.50489,7.91177,7.91177,0,0,1,.23047,1.78515q.01611.47608.0166.96v.96094q0,.47609-.0166.93457a7.89727,7.89727,0,0,1-.23047,1.78516,4.35515,4.35515,0,0,1-.67969,1.50488,3.20113,3.20113,0,0,1-1.24023,1.02832A4.431,4.431,0,0,1,246.65911,200.07814Zm0-1.01954a2.59659,2.59659,0,0,0,2.24414-1.00293,4.76378,4.76378,0,0,0,.76465-2.75488q.01611-.49218.0166-.92578v-.86719q0-.43359-.0166-.89258a4.78541,4.78541,0,0,0-.76465-2.7373,2.971,2.971,0,0,0-4.48047,0,4.7491,4.7491,0,0,0-.77344,2.7373c0,.30567-.00195.60352-.00781.89258s-.00586.57813,0,.86719.00781.59766.00781.92578a4.72756,4.72756,0,0,0,.77344,2.75488A2.60069,2.60069,0,0,0,246.65911,199.0586Z"/><path class="cls-1" d="M256.58684,199.90821a.35124.35124,0,0,1-.375-.374V189.40235l-3.043,2.34571a.37674.37674,0,0,1-.2793.085.34934.34934,0,0,1-.24707-.15235l-.18653-.23828a.38116.38116,0,0,1-.08593-.28027.35785.35785,0,0,1,.15332-.24707l3.62109-2.78809a.54774.54774,0,0,1,.22168-.10156,1.28786,1.28786,0,0,1,.2207-.01758h.32227a.35258.35258,0,0,1,.375.374v11.15234a.35124.35124,0,0,1-.375.374Z"/><path class="cls-1" d="M261.26165,199.90821a.30886.30886,0,0,1-.24707-.11035.39372.39372,0,0,1-.09278-.26367.51813.51813,0,0,1,.03418-.15332l4.36915-10.35254h-5.79688a.35258.35258,0,0,1-.375-.374v-.25489a.38833.38833,0,0,1,.10254-.28906.36522.36522,0,0,1,.27246-.10254h6.56152a.35649.35649,0,0,1,.39063.3916v.25489a1.77981,1.77981,0,0,1-.02539.331,1.73262,1.73262,0,0,1-.09278.29785l-4.30175,10.2002a2.9131,2.9131,0,0,1-.16114.28027.31224.31224,0,0,1-.28125.14453Z"/><path class="cls-1" d="M431.74114,199.90821a.34982.34982,0,0,1-.374-.374v-.25488a.65649.65649,0,0,1,.09375-.332,1.79211,1.79211,0,0,1,.33105-.38184l4.40332-4.40332a8.74842,8.74842,0,0,0,.98633-1.03711,2.68872,2.68872,0,0,0,.4668-.875,3.4,3.4,0,0,0,.12793-.96094,2.39852,2.39852,0,0,0-.6543-1.78515,2.5398,2.5398,0,0,0-1.8623-.64551,2.7248,2.7248,0,0,0-1.3252.30566,2.26536,2.26536,0,0,0-.88477.8584,3.49007,3.49007,0,0,0-.4248,1.28418.37484.37484,0,0,1-.15332.29688.44026.44026,0,0,1-.23731.09375h-.33984a.35346.35346,0,0,1-.26367-.09375.31008.31008,0,0,1-.09375-.2295,3.895,3.895,0,0,1,.23828-1.19824,3.623,3.623,0,0,1,.6709-1.14746,3.40663,3.40663,0,0,1,1.14746-.8584,3.84088,3.84088,0,0,1,1.666-.332,3.90056,3.90056,0,0,1,2.083.49317,2.91865,2.91865,0,0,1,1.14746,1.27539,3.99827,3.99827,0,0,1,.35645,1.68261,3.88584,3.88584,0,0,1-.20313,1.28321,4.31935,4.31935,0,0,1-.6123,1.13964,8.103,8.103,0,0,1-1.03711,1.12989l-3.97754,4.04687h5.69434a.35531.35531,0,0,1,.3916.39063v.25488a.36827.36827,0,0,1-.10254.27246.39185.39185,0,0,1-.28906.10156Z"/><path class="cls-1" d="M445.23919,200.07814a4.425,4.425,0,0,1-1.92969-.374,3.20424,3.20424,0,0,1-1.24121-1.02832,4.27005,4.27005,0,0,1-.6709-1.50488,8.96436,8.96436,0,0,1-.23828-1.78516q0-.45849-.00879-.93457t0-.96094q.00879-.48339.00879-.96a7.91186,7.91186,0,0,1,.22949-1.78515,4.4,4.4,0,0,1,.67969-1.50489,3.22141,3.22141,0,0,1,1.24121-1.02832,5.165,5.165,0,0,1,3.85938,0,3.2286,3.2286,0,0,1,1.24121,1.02832,4.4,4.4,0,0,1,.67968,1.50489,7.96749,7.96749,0,0,1,.2295,1.78515q.01611.47608.0166.96v.96094q0,.47609-.0166.93457a7.95283,7.95283,0,0,1-.2295,1.78516,4.39147,4.39147,0,0,1-.67968,1.50488,3.21135,3.21135,0,0,1-1.24121,1.02832A4.428,4.428,0,0,1,445.23919,200.07814Zm0-1.01954a2.59423,2.59423,0,0,0,2.24414-1.00293,4.75653,4.75653,0,0,0,.76465-2.75488q.01758-.49218.01757-.92578v-.86719q0-.43359-.01757-.89258a4.778,4.778,0,0,0-.76465-2.7373,2.96994,2.96994,0,0,0-4.47949,0,4.73446,4.73446,0,0,0-.77344,2.7373q0,.4585-.00879.89258-.00879.4336,0,.86719t.00879.92578a4.71322,4.71322,0,0,0,.77344,2.75488A2.59882,2.59882,0,0,0,445.23919,199.0586Z"/><path class="cls-1" d="M451.73235,199.90821a.35115.35115,0,0,1-.374-.374v-.25488a.65649.65649,0,0,1,.09375-.332,1.8019,1.8019,0,0,1,.332-.38184l4.40234-4.40332a8.66826,8.66826,0,0,0,.98633-1.03711,2.69248,2.69248,0,0,0,.46777-.875,3.40054,3.40054,0,0,0,.127-.96094,2.39472,2.39472,0,0,0-.6543-1.78515,2.53737,2.53737,0,0,0-1.86133-.64551,2.72872,2.72872,0,0,0-1.32617.30566,2.25639,2.25639,0,0,0-.88379.8584,3.45437,3.45437,0,0,0-.4248,1.28418.37484.37484,0,0,1-.15332.29688.44013.44013,0,0,1-.23828.09375h-.33985a.35651.35651,0,0,1-.26367-.09375.30925.30925,0,0,1-.09277-.2295,3.89252,3.89252,0,0,1,.2373-1.19824,3.62623,3.62623,0,0,1,.67188-1.14746,3.39686,3.39686,0,0,1,1.14746-.8584,3.83784,3.83784,0,0,1,1.666-.332,3.89455,3.89455,0,0,1,2.082.49317,2.9128,2.9128,0,0,1,1.14747,1.27539,3.99911,3.99911,0,0,1,.35742,1.68261,3.886,3.886,0,0,1-.2041,1.28321,4.2638,4.2638,0,0,1-.61231,1.13964,8.03233,8.03233,0,0,1-1.03613,1.12989l-3.97852,4.04687h5.69531a.354.354,0,0,1,.39063.39063v.25488a.37156.37156,0,0,1-.10156.27246.395.395,0,0,1-.28907.10156Z"/><path class="cls-1" d="M464.85638,200.07814a5.42157,5.42157,0,0,1-1.69922-.2461,4.08886,4.08886,0,0,1-1.26661-.65527,2.97833,2.97833,0,0,1-.79882-.92578,2.38467,2.38467,0,0,1-.29785-1.08008.29339.29339,0,0,1,.10156-.23731.38613.38613,0,0,1,.25488-.085h.23828a.55715.55715,0,0,1,.26367.06739.48874.48874,0,0,1,.19532.32324,2.085,2.085,0,0,0,.67187,1.13086,2.67769,2.67769,0,0,0,1.10449.54394,5.462,5.462,0,0,0,1.23243.14453,3.50079,3.50079,0,0,0,2.15136-.6289,2.20778,2.20778,0,0,0,.84082-1.8877,2.0695,2.0695,0,0,0-.75586-1.80176,3.4813,3.4813,0,0,0-2.06543-.54394h-1.49609a.35115.35115,0,0,1-.374-.374v-.25489a.55384.55384,0,0,1,.042-.22949.85785.85785,0,0,1,.11035-.17871l3.50195-4.13086h-5.13379a.35249.35249,0,0,1-.374-.374v-.25489a.38833.38833,0,0,1,.10254-.28906.36443.36443,0,0,1,.27148-.10254h6.34082a.35663.35663,0,0,1,.39161.3916v.25489a.36382.36382,0,0,1-.043.17871,1.30788,1.30788,0,0,1-.09375.14453l-3.58692,4.19824h.34082a5.28117,5.28117,0,0,1,2.04786.36621,2.90374,2.90374,0,0,1,1.36035,1.11328,3.40567,3.40567,0,0,1,.48437,1.88672,3.24141,3.24141,0,0,1-1.97168,3.12012A5.01826,5.01826,0,0,1,464.85638,200.07814Z"/><circle class="cls-2" cx="70.00678" cy="91.58977" r="63.7"/><circle class="cls-3" cx="249.4284" cy="91.58977" r="73.09214"/><circle class="cls-4" cx="450.2764" cy="91.58977" r="85.12637"/><path class="cls-1" d="M34.51848,101.34962a.53446.53446,0,0,1-.55175-.55176V87.35743L29.98235,90.4297a.5608.5608,0,0,1-.40722.12012.50675.50675,0,0,1-.36036-.21583l-.624-.792a.59411.59411,0,0,1-.1084-.43261.55574.55574,0,0,1,.22852-.35938l5.23144-4.03223a.7836.7836,0,0,1,.3125-.14453,1.9434,1.9434,0,0,1,.31153-.02343H35.791a.4962.4962,0,0,1,.38378.15625.55975.55975,0,0,1,.14356.3955v15.69629a.55977.55977,0,0,1-.14356.39551.49623.49623,0,0,1-.38378.15625Z"/><path class="cls-1" d="M39.89446,101.34962a.53446.53446,0,0,1-.55176-.55176v-.76855a1.17237,1.17237,0,0,1,.12012-.47949,1.831,1.831,0,0,1,.47949-.57618l5.08789-5.08789q1.22461-1.03125,1.93262-1.76367a5.05242,5.05242,0,0,0,1.00781-1.4043,3.37806,3.37806,0,0,0,.29981-1.39257,2.73585,2.73585,0,0,0-3.04785-2.97559,3.28973,3.28973,0,0,0-1.65625.39648,2.882,2.882,0,0,0-1.0918,1.07911,4.22424,4.22424,0,0,0-.51563,1.54882.56616.56616,0,0,1-.252.43164.75142.75142,0,0,1-.37207.12012h-1.248a.51236.51236,0,0,1-.36035-.13183.42351.42351,0,0,1-.14355-.32422,5.411,5.411,0,0,1,.38379-1.83594,5.06871,5.06871,0,0,1,1.06836-1.668,5.459,5.459,0,0,1,1.752-1.21191,5.89622,5.89622,0,0,1,2.43555-.46875,6.27776,6.27776,0,0,1,3.10839.68457,4.33726,4.33726,0,0,1,1.78809,1.81152,5.36194,5.36194,0,0,1,.5752,2.47266,5.029,5.029,0,0,1-.35938,1.93164,6.65861,6.65861,0,0,1-1.04394,1.7041A14.09334,14.09334,0,0,1,47.59856,94.582l-4.60742,4.67969h7.48731a.59543.59543,0,0,1,.41992.14355.52777.52777,0,0,1,.15625.40821v.98437a.53271.53271,0,0,1-.15625.39551.56517.56517,0,0,1-.41992.15625Z"/><path class="cls-1" d="M58.87884,101.34962a.53451.53451,0,0,1-.55274-.55176V87.35743L54.3427,90.4297a.56191.56191,0,0,1-.4082.12012.51051.51051,0,0,1-.36035-.21583l-.624-.792a.58873.58873,0,0,1-.10743-.43261.55056.55056,0,0,1,.22754-.35938l5.23242-4.03223a.77439.77439,0,0,1,.31153-.14453,1.95575,1.95575,0,0,1,.3125-.02343h1.22363a.49479.49479,0,0,1,.38379.15625.55614.55614,0,0,1,.14453.3955v15.69629a.55616.55616,0,0,1-.14453.39551.49483.49483,0,0,1-.38379.15625Z"/><path class="cls-1" d="M64.68645,101.34962a.53451.53451,0,0,1-.55273-.55176V99.06935a.53451.53451,0,0,1,.55273-.55176H66.414a.533.533,0,0,1,.55176.55176v1.72851a.533.533,0,0,1-.55176.55176Z"/><path class="cls-1" d="M75.96575,101.58985a8.88078,8.88078,0,0,1-2.55566-.34863,5.82718,5.82718,0,0,1-1.99219-1.00781,4.58417,4.58417,0,0,1-1.28418-1.5957,4.76443,4.76443,0,0,1-.45508-2.11231,4.4202,4.4202,0,0,1,.707-2.51953,4.55631,4.55631,0,0,1,1.88477-1.6084,4.294,4.294,0,0,1-1.28418-5.98828,4.606,4.606,0,0,1,1.99219-1.54785,8.38547,8.38547,0,0,1,5.95214-.01172,4.489,4.489,0,0,1,1.99121,1.54785,4.1885,4.1885,0,0,1-1.25976,6,4.54749,4.54749,0,0,1,1.88379,1.6084,4.42071,4.42071,0,0,1,.708,2.51953,4.6108,4.6108,0,0,1-.792,2.7002,5.05,5.05,0,0,1-2.208,1.75195A8.22662,8.22662,0,0,1,75.96575,101.58985Zm0-1.91992a4.95516,4.95516,0,0,0,1.99219-.38476,3.39722,3.39722,0,0,0,1.416-1.0918,2.71339,2.71339,0,0,0,.52832-1.668,2.65227,2.65227,0,0,0-.52832-1.668,3.40607,3.40607,0,0,0-1.416-1.05566,5.10814,5.10814,0,0,0-1.99219-.37207,5.20263,5.20263,0,0,0-2.00391.37207,3.395,3.395,0,0,0-1.42773,1.05566,2.64645,2.64645,0,0,0-.52832,1.668,2.70727,2.70727,0,0,0,.52832,1.668,3.38528,3.38528,0,0,0,1.42773,1.0918A5.04643,5.04643,0,0,0,75.96575,99.66993Zm0-8.13672a4.22268,4.22268,0,0,0,1.69238-.33593,3.20134,3.20134,0,0,0,1.24805-.91211,2.13812,2.13812,0,0,0,.46777-1.3916,2.31591,2.31591,0,0,0-.44336-1.416,2.84445,2.84445,0,0,0-1.22461-.92383,4.82979,4.82979,0,0,0-3.47949,0,2.91737,2.91737,0,0,0-1.23633.92383,2.44456,2.44456,0,0,0,0,2.84375,2.86576,2.86576,0,0,0,1.23633.90039A4.6432,4.6432,0,0,0,75.96575,91.53321Z"/><path class="cls-1" d="M88.22942,101.34962a.432.432,0,0,1-.34765-.15625.556.556,0,0,1-.13184-.37207.426.426,0,0,1,.03613-.19141c.02344-.04785.04395-.08789.05957-.12011l3.67188-5.11231a5.55653,5.55653,0,0,1-1.2959.14453,6.27873,6.27873,0,0,1-2.39941-.48047,5.40911,5.40911,0,0,1-1.80079-1.23632,5.34413,5.34413,0,0,1-1.12793-1.76368,5.62942,5.62942,0,0,1-.38378-2.06347,5.91792,5.91792,0,0,1,.37207-2.06446,5.43482,5.43482,0,0,1,1.12793-1.82421,5.55515,5.55515,0,0,1,1.88378-1.30762,6.62533,6.62533,0,0,1,2.66407-.49219,6.95751,6.95751,0,0,1,2.65234.46777,5.60714,5.60714,0,0,1,1.91992,1.27247,5.15892,5.15892,0,0,1,1.15235,1.81152,6.00518,6.00518,0,0,1,.37207,2.08789A5.395,5.395,0,0,1,96.36614,91.75a7.74222,7.74222,0,0,1-.68457,1.46387q-.3955.64746-.7793,1.20019l-4.60839,6.45508c-.06446.08106-.15235.18067-.26368.30078a.65723.65723,0,0,1-.5039.17969Zm2.32813-7.752a3.9565,3.9565,0,0,0,1.86035-.44434,3.45572,3.45572,0,0,0,1.35547-1.248,3.94761,3.94761,0,0,0,0-3.86328,3.4557,3.4557,0,0,0-1.35547-1.248,3.96822,3.96822,0,0,0-1.86035-.44434,3.84,3.84,0,0,0-1.82325.44434,3.47316,3.47316,0,0,0-1.34472,1.248,3.95424,3.95424,0,0,0,0,3.86328,3.47319,3.47319,0,0,0,1.34472,1.248A3.82866,3.82866,0,0,0,90.55755,93.59767Z"/><path class="cls-1" d="M107.09368,101.34962a.53451.53451,0,0,1-.55273-.55176V97.34181h-7.7754A.533.533,0,0,1,98.2138,96.79v-.96a1.20092,1.20092,0,0,1,.05957-.30078,1.57669,1.57669,0,0,1,.2041-.41992L105.67766,84.958a1.01026,1.01026,0,0,1,.8877-.4082h1.72852a.53446.53446,0,0,1,.55175.55175V95.25392h2.16016a.57.57,0,0,1,.41992.15527.5395.5395,0,0,1,.15527.39648V96.79a.533.533,0,0,1-.55175.55176h-2.1836v3.45605a.53446.53446,0,0,1-.55175.55176Zm-6.3125-6.04785h5.78418V87.06935Z"/><path class="cls-1" d="M211.99505,101.34962a.578.578,0,0,1-.59766-.59766V86.19142L207.081,89.51954a.60287.60287,0,0,1-.44238.12988.54974.54974,0,0,1-.38965-.23339l-.67578-.8584a.63314.63314,0,0,1-.11719-.46778.60354.60354,0,0,1,.24707-.39062l5.668-4.36719a.8354.8354,0,0,1,.33789-.15625,2.036,2.036,0,0,1,.33789-.02637H213.373a.54016.54016,0,0,1,.416.16895.60774.60774,0,0,1,.15625.42969V100.752a.60529.60529,0,0,1-.15625.42871.53675.53675,0,0,1-.416.16895Z"/><path class="cls-1" d="M217.81927,101.34962a.57807.57807,0,0,1-.59864-.59766v-.832a1.27213,1.27213,0,0,1,.12989-.52051,1.98614,1.98614,0,0,1,.5205-.624l5.51172-5.51172q1.32568-1.11766,2.09278-1.91113a5.45427,5.45427,0,0,0,1.09277-1.52051,3.67588,3.67588,0,0,0,.32422-1.50879,2.9649,2.9649,0,0,0-3.30176-3.22363,3.56829,3.56829,0,0,0-1.794.42871,3.13454,3.13454,0,0,0-1.18261,1.16992,4.57168,4.57168,0,0,0-.55957,1.67774.61274.61274,0,0,1-.27246.46777.80925.80925,0,0,1-.40332.12988h-1.35157a.55963.55963,0,0,1-.39062-.14257.46041.46041,0,0,1-.15527-.35157,5.85142,5.85142,0,0,1,.416-1.98926,5.50235,5.50235,0,0,1,1.15625-1.80664,5.93926,5.93926,0,0,1,1.89844-1.3125,6.38589,6.38589,0,0,1,2.63867-.50781,6.79629,6.79629,0,0,1,3.36719.74121,4.69681,4.69681,0,0,1,1.9375,1.96289,5.81859,5.81859,0,0,1,.623,2.67871,5.4593,5.4593,0,0,1-.38964,2.09278,7.19119,7.19119,0,0,1-1.13086,1.8457,15.28467,15.28467,0,0,1-1.833,1.833l-4.99219,5.07031h8.11231a.648.648,0,0,1,.45507.15527.57474.57474,0,0,1,.16895.44239v1.0664a.58211.58211,0,0,1-.16895.42871.61385.61385,0,0,1-.45507.16895Z"/><path class="cls-1" d="M239.21673,101.60939a7.21087,7.21087,0,0,1-3.666-.8711,6.00125,6.00125,0,0,1-2.30078-2.28808,6.194,6.194,0,0,1-.793-3.08106,5.657,5.657,0,0,1,.19434-1.49414,8.44629,8.44629,0,0,1,.49414-1.35254q.29883-.6372.59863-1.14355a9.07545,9.07545,0,0,1,.53223-.81934l4.94043-6.88965q.13036-.13036.31152-.32519a.71331.71331,0,0,1,.54688-.19532h1.37792a.47213.47213,0,0,1,.377.16895.60794.60794,0,0,1,.14258.40332.69919.69919,0,0,1-.02637.19531.31658.31658,0,0,1-.07715.14258l-3.79687,5.30371a3.33817,3.33817,0,0,1,.71582-.14258c.26855-.02636.52343-.03906.7666-.03906a6.95652,6.95652,0,0,1,2.59961.51953,6.26827,6.26827,0,0,1,2.01562,1.33985,5.76923,5.76923,0,0,1,1.28711,1.94921,6.45551,6.45551,0,0,1-.33789,5.4209,6.00962,6.00962,0,0,1-2.27539,2.31446A7.00452,7.00452,0,0,1,239.21673,101.60939Zm-.02637-2.21a4.47708,4.47708,0,0,0,2.02832-.46777,3.83638,3.83638,0,0,0,1.52051-1.36523,3.9309,3.9309,0,0,0,.58594-2.19727,4.05809,4.05809,0,0,0-.57227-2.22266,3.6384,3.6384,0,0,0-1.52148-1.35156,4.6535,4.6535,0,0,0-2.041-.45508,4.57019,4.57019,0,0,0-2.02734.45508,3.74686,3.74686,0,0,0-1.52149,1.35156,3.98772,3.98772,0,0,0-.585,2.22266,3.93846,3.93846,0,0,0,.585,2.19727,3.84551,3.84551,0,0,0,1.52149,1.36523A4.476,4.476,0,0,0,239.19036,99.39942Z"/><path class="cls-1" d="M249.22649,101.34962a.578.578,0,0,1-.59765-.59766V98.87989a.57805.57805,0,0,1,.59765-.59863h1.87207a.57807.57807,0,0,1,.59766.59863V100.752a.578.578,0,0,1-.59766.59766Z"/><path class="cls-1" d="M261.291,101.60939a7.33872,7.33872,0,0,1-3.0293-.5586,5.30586,5.30586,0,0,1-2.01465-1.54687,6.31825,6.31825,0,0,1-1.13184-2.2627,11.755,11.755,0,0,1-.40234-2.70312q-.02637-.70312-.03906-1.48243c-.00879-.5205-.00879-1.04394,0-1.57324q.01172-.79248.03906-1.52051a10.28314,10.28314,0,0,1,.40234-2.71777,6.626,6.626,0,0,1,1.14454-2.26172,5.23087,5.23087,0,0,1,2.01464-1.53418,8.45637,8.45637,0,0,1,6.04493,0,5.377,5.377,0,0,1,2.01562,1.53418,6.51228,6.51228,0,0,1,1.15625,2.26172,10.32328,10.32328,0,0,1,.40332,2.71777q.02637.728.03906,1.52051c.00879.5293.00879,1.05274,0,1.57324q-.01318.77931-.03906,1.48243a10.153,10.153,0,0,1-.40332,2.70312,6.80114,6.80114,0,0,1-1.14355,2.2627,5.203,5.203,0,0,1-2.002,1.54687A7.41052,7.41052,0,0,1,261.291,101.60939Zm0-2.21a3.46847,3.46847,0,0,0,3.00293-1.33886,6.22024,6.22024,0,0,0,1.001-3.65332q.05127-.75294.05176-1.46875V91.5088q0-.71484-.05176-1.417a6.2492,6.2492,0,0,0-1.001-3.627,3.9573,3.9573,0,0,0-5.98047,0,6.385,6.385,0,0,0-1.02735,3.627q0,.70166-.01269,1.417-.01318.71484,0,1.42969.01318.71631.01269,1.46875a6.28547,6.28547,0,0,0,1.04,3.65332A3.447,3.447,0,0,0,261.291,99.39942Z"/><path class="cls-1" d="M276.7343,101.34962a.578.578,0,0,1-.59765-.59766V86.19142l-4.31641,3.32812a.60287.60287,0,0,1-.44238.12988.54972.54972,0,0,1-.38965-.23339l-.67578-.8584a.63314.63314,0,0,1-.11719-.46778.60354.60354,0,0,1,.24707-.39062l5.668-4.36719a.8354.8354,0,0,1,.33789-.15625,2.03587,2.03587,0,0,1,.33789-.02637h1.32617a.54019.54019,0,0,1,.416.16895.60774.60774,0,0,1,.15625.42969V100.752a.60529.60529,0,0,1-.15625.42871.53677.53677,0,0,1-.416.16895Z"/><path class="cls-1" d="M284.56048,101.34962a.46648.46648,0,0,1-.377-.16895.60192.60192,0,0,1-.14355-.40332.83561.83561,0,0,1,.05176-.23339l6.47461-15.13282H282.038a.578.578,0,0,1-.59766-.59765v-1.04a.6139.6139,0,0,1,.16894-.45508.58218.58218,0,0,1,.42872-.16895h10.66015a.58234.58234,0,0,1,.624.624v.96191a2.34478,2.34478,0,0,1-.05176.5459,3.7541,3.7541,0,0,1-.15625.46875l-6.42188,14.94922a1.689,1.689,0,0,1-.24707.42969.57079.57079,0,0,1-.48144.2207Z"/><path class="cls-1" d="M408.55462,101.34962a.63423.63423,0,0,1-.48926-.19629.66941.66941,0,0,1-.18262-.47559V86.17384l-4.25586,3.27539a.6833.6833,0,0,1-.5039.126.71753.71753,0,0,1-.44825-.29395L401.499,87.76954a.73175.73175,0,0,1-.126-.53222.63373.63373,0,0,1,.29394-.44727l6.27246-4.84473a.72277.72277,0,0,1,.33594-.168,2.21674,2.21674,0,0,1,.36328-.02734h2.46485a.66853.66853,0,0,1,.67187.67188v18.25585a.67018.67018,0,0,1-.67187.67188Z"/><path class="cls-1" d="M422.331,101.65724a9.28668,9.28668,0,0,1-4.06054-.79785,6.08511,6.08511,0,0,1-2.50586-2.08594,5.26354,5.26354,0,0,1-.91016-2.74414.43633.43633,0,0,1,.1543-.40528.652.652,0,0,1,.43457-.15429h2.60351a.989.989,0,0,1,.51758.126.79389.79389,0,0,1,.32227.4336,3.51956,3.51956,0,0,0,.79785,1.37207,3.19979,3.19979,0,0,0,1.2041.78418,4.15052,4.15052,0,0,0,1.44238.252,4.09086,4.09086,0,0,0,1.834-.40625,3.20312,3.20312,0,0,0,1.33008-1.21777,3.70035,3.70035,0,0,0,.5039-1.98828,3.29555,3.29555,0,0,0-.47656-1.792,3.33833,3.33833,0,0,0-1.30176-1.18945,4.00617,4.00617,0,0,0-1.88965-.43457,3.61332,3.61332,0,0,0-1.28808.19629,3.85791,3.85791,0,0,0-.85449.44824q-.3501.252-.61524.44824a.98857.98857,0,0,1-.60254.19532h-2.57617a.62023.62023,0,0,1-.61523-.61524l.97949-9.57617a.76161.76161,0,0,1,.78418-.75586h10.52832a.66853.66853,0,0,1,.67187.67188v1.876a.67018.67018,0,0,1-.67187.67188h-8.09277l-.44727,4.56347a6.5139,6.5139,0,0,1,1.34375-.64355,6.98681,6.98681,0,0,1,2.32422-.30762,7.5789,7.5789,0,0,1,2.56152.4336,6.744,6.744,0,0,1,2.16992,1.25976,5.95744,5.95744,0,0,1,1.498,1.98828,6.14772,6.14772,0,0,1,.5459,2.64551,6.53266,6.53266,0,0,1-.95215,3.55664,6.40273,6.40273,0,0,1-2.65918,2.35156A9.03636,9.03636,0,0,1,422.331,101.65724Z"/><path class="cls-1" d="M438.57122,101.34962a.635.635,0,0,1-.49024-.19629.67283.67283,0,0,1-.18164-.47559V86.17384l-4.25586,3.27539a.68329.68329,0,0,1-.5039.126.71255.71255,0,0,1-.44824-.29395l-1.17579-1.51172a.73175.73175,0,0,1-.126-.53222.63075.63075,0,0,1,.29394-.44727l6.27149-4.84473a.72719.72719,0,0,1,.33594-.168,2.23735,2.23735,0,0,1,.36425-.02734h2.46387a.66853.66853,0,0,1,.67188.67188v18.25585a.67018.67018,0,0,1-.67188.67188Z"/><path class="cls-1" d="M446.13079,101.34962a.67018.67018,0,0,1-.67188-.67188V97.90528a.68218.68218,0,0,1,.19629-.5039.64851.64851,0,0,1,.47559-.19531h2.7998a.65226.65226,0,0,1,.47657.19531.686.686,0,0,1,.19629.5039v2.77246a.67019.67019,0,0,1-.67286.67188Z"/><path class="cls-1" d="M460.27141,101.62989a11.22547,11.22547,0,0,1-3.30468-.44824,7.14548,7.14548,0,0,1-2.44922-1.25976,5.46669,5.46669,0,0,1-1.5127-1.9043,5.60528,5.60528,0,0,1-.51758-2.43555,4.933,4.933,0,0,1,.79786-2.81445,5.359,5.359,0,0,1,2.08593-1.834,4.62207,4.62207,0,0,1-1.61035-1.65234,4.66893,4.66893,0,0,1-.57324-2.35156,4.93964,4.93964,0,0,1,.8252-2.8418,5.50633,5.50633,0,0,1,2.4082-1.918,11.00576,11.00576,0,0,1,7.68652-.01465,5.34824,5.34824,0,0,1,2.37988,1.9043,5.00726,5.00726,0,0,1,.81153,2.8418,4.76826,4.76826,0,0,1-.55957,2.35254,4.82232,4.82232,0,0,1-1.56836,1.67968,4.94733,4.94733,0,0,1,2.10058,1.834,5.13785,5.13785,0,0,1,.78321,2.8418,5.47868,5.47868,0,0,1-.90918,3.12207,6.00742,6.00742,0,0,1-2.66016,2.12793A10.423,10.423,0,0,1,460.27141,101.62989Zm0-2.91211a4.96331,4.96331,0,0,0,1.97364-.37793,3.33177,3.33177,0,0,0,1.40039-1.07812,2.91813,2.91813,0,0,0,0-3.31836,3.38247,3.38247,0,0,0-1.40039-1.06348,5.34491,5.34491,0,0,0-3.94825,0,3.373,3.373,0,0,0-1.39941,1.06348,2.91364,2.91364,0,0,0,0,3.31836,3.32261,3.32261,0,0,0,1.39941,1.07812A4.9648,4.9648,0,0,0,460.27141,98.71778Zm0-8.98828a4.52751,4.52751,0,0,0,1.69336-.36426,3.1725,3.1725,0,0,0,1.23243-.90917,2.144,2.144,0,0,0,.46191-1.38672,2.35838,2.35838,0,0,0-.43359-1.41407,2.85883,2.85883,0,0,0-1.20411-.9375,4.72621,4.72621,0,0,0-3.5,0,2.84683,2.84683,0,0,0-1.2041.9375,2.35249,2.35249,0,0,0-.43457,1.41407,2.289,2.289,0,0,0,.43457,1.40039,2.89062,2.89062,0,0,0,1.2041.92383A4.33637,4.33637,0,0,0,460.27141,89.7295Z"/><path class="cls-1" d="M478.02239,101.65724a9.28215,9.28215,0,0,1-4.05957-.79785,6.08517,6.08517,0,0,1-2.50586-2.08594,5.25491,5.25491,0,0,1-.91016-2.74414.4341.4341,0,0,1,.1543-.40528.64952.64952,0,0,1,.4336-.15429h2.60449a.989.989,0,0,1,.51758.126.80315.80315,0,0,1,.32226.4336,3.51956,3.51956,0,0,0,.79785,1.37207,3.18474,3.18474,0,0,0,1.2041.78418,4.1451,4.1451,0,0,0,1.44141.252,4.088,4.088,0,0,0,1.834-.40625,3.19718,3.19718,0,0,0,1.33007-1.21777,3.70026,3.70026,0,0,0,.50391-1.98828,3.295,3.295,0,0,0-.47559-1.792,3.34507,3.34507,0,0,0-1.30175-1.18945,4.00745,4.00745,0,0,0-1.89063-.43457,3.61711,3.61711,0,0,0-1.28809.19629,3.84979,3.84979,0,0,0-.85351.44824q-.3501.252-.61621.44824a.98779.98779,0,0,1-.60156.19532h-2.57618a.62194.62194,0,0,1-.61621-.61524l.98047-9.57617a.76156.76156,0,0,1,.7832-.75586h10.52833a.66689.66689,0,0,1,.67187.67188v1.876a.66853.66853,0,0,1-.67187.67188h-8.0918l-.44824,4.56347a6.53858,6.53858,0,0,1,1.34375-.64355,6.99467,6.99467,0,0,1,2.32421-.30762,7.58455,7.58455,0,0,1,2.5625.4336A6.75443,6.75443,0,0,1,483.623,90.2754a5.97031,5.97031,0,0,1,1.498,1.98828,6.16212,6.16212,0,0,1,.5459,2.64551,6.53266,6.53266,0,0,1-.95215,3.55664,6.39949,6.39949,0,0,1-2.66015,2.35156A9.03342,9.03342,0,0,1,478.02239,101.65724Z"/><path class="cls-1" d="M494.26263,101.34962a.63423.63423,0,0,1-.48926-.19629.66941.66941,0,0,1-.18262-.47559V86.17384l-4.25586,3.27539a.68332.68332,0,0,1-.50391.126.71753.71753,0,0,1-.44824-.29395L487.207,87.76954a.73175.73175,0,0,1-.126-.53222.63374.63374,0,0,1,.29395-.44727l6.27246-4.84473a.72272.72272,0,0,1,.33594-.168,2.21674,2.21674,0,0,1,.36328-.02734h2.46484a.66853.66853,0,0,1,.67188.67188v18.25585a.67018.67018,0,0,1-.67188.67188Z"/></svg>