<?xml version="1.0" encoding="UTF-8"?>
<svg id="btn10" xmlns="http://www.w3.org/2000/svg" width="50" height="50" viewBox="0 0 50 50">
  <defs>
    <style>
      .cls-1 {
        stroke-dasharray: 0 0 1.44 .96;
      }

      .cls-1, .cls-2, .cls-3 {
        fill: none;
        stroke: #1a1a1a;
        stroke-miterlimit: 10;
        stroke-width: .99px;
      }

      .cls-2 {
        stroke-dasharray: 0 0 1.7 1.13;
      }

      .cls-4 {
        fill: #fcddd0;
        stroke-width: 0px;
      }
    </style>
  </defs>
  <circle class="cls-4" cx="25" cy="25" r="24.77"/>
  <g>
    <polyline class="cls-3" points="23.46 24.8 17.26 24.39 17.07 19.03 19.03 18.54 17.27 8.91 7.17 9.46 7.44 24.74 2.07 25.59"/>
    <line class="cls-3" x1="13.06" y1="14.83" x2="16.58" y2="14.73"/>
    <line class="cls-3" x1="15.62" y1="21.95" x2="15.9" y2="23.06"/>
    <polyline class="cls-3" points="47.68 24.8 41.47 24.39 41.29 19.03 43.24 18.54 41.48 8.91 31.39 9.46 31.66 24.74 26.28 25.59"/>
    <line class="cls-3" x1="37.27" y1="14.83" x2="40.79" y2="14.73"/>
    <line class="cls-3" x1="39.84" y1="21.95" x2="40.12" y2="23.06"/>
    <g>
      <line class="cls-3" x1="25" y1="7.23" x2="25" y2="7.98"/>
      <line class="cls-1" x1="25" y1="8.94" x2="25" y2="34.87"/>
      <line class="cls-3" x1="25" y1="35.35" x2="25" y2="36.1"/>
    </g>
    <line id="olho" class="cls-3" x1="14.82" y1="14.91" x2="14.82" y2="15.95"/>
    <g>
      <line class="cls-3" x1="25" y1="46.44" x2="25" y2="45.7"/>
      <line class="cls-2" x1="25" y1="44.57" x2="25" y2="42.3"/>
      <line class="cls-3" x1="25" y1="41.73" x2="25" y2="40.99"/>
    </g>
  </g>
  <g id="mao_ok">
    <path class="cls-3" d="M25,37.29h1.94c.5,0,.5-2.95,1.8-4.39,1.3-1.44,1.73-3.96,1.73-5.04s2.52-.36,2.52,1.8-1.8,4.75-.5,4.75,3.75,0,4.83,0,.94,2.09.43,2.09c.88,0,.88,2.38,0,2.38h-.26c.69,0,.69,2.08,0,2.08h-.27c.46,0,.48,1.5,0,1.8,0,0-1.22,1.04-5.68,1.44-4.46.4-3.18-.43-6.61-.43"/>
    <path class="cls-3" d="M37.22,42.75h-3.23c-.58,0-.77-1.7,0-1.7h3.23"/>
    <path class="cls-3" d="M37.22,41.06c-.7,0-3.94,0-4.52,0s-.77-2.22,0-2.22,5.05,0,5.05,0"/>
    <path class="cls-3" d="M37.22,38.84c-.7,0-3.94,0-4.52,0s-.77-2.22,0-2.22h5.05"/>
    <path class="cls-3" d="M37.22,36.62h-4.52c-.58,0-.77-2.22,0-2.22h5.05"/>
  </g>
</svg>