<?xml version="1.0" encoding="UTF-8"?>
<svg id="btn7" xmlns="http://www.w3.org/2000/svg" width="50" height="50" viewBox="0 0 50 50">
  <defs>
    <style>
      .cls-1 {
        fill: #9dbad6;
      }

      .cls-1, .cls-2 {
        stroke: #1a1a1a;
        stroke-miterlimit: 10;
        stroke-width: .99px;
      }

      .cls-3 {
        fill: #1a1a1a;
      }

      .cls-3, .cls-4 {
        stroke-width: 0px;
      }

      .cls-4 {
        fill: #fcddd0;
      }

      .cls-2 {
        fill: none;
      }
    </style>
  </defs>
  <circle class="cls-4" cx="25" cy="25" r="24.77"/>
  <g>
    <g id="roldana1">
      <path class="cls-2" d="M31.4,20.61v-3.96l-1.29.23-1.2-3.29,1.14-.66-2.54-3.03-.85,1.01-3.03-1.75.45-1.24-3.9-.69v1.32l-3.45.61-.45-1.24-3.43,1.98.85,1.02c-.9.75-2.25,2.68-2.25,2.68l-1.15-.66c-.7,1.21-1.35,3.72-1.35,3.72l1.31.23v3.5l-1.31.23,1.35,3.72,1.15-.66,2.25,2.68-.85,1.02,3.43,1.98.45-1.24,3.45.61v1.32l3.9-.69-.45-1.24,3.03-1.75.85,1.01,2.54-3.03-1.14-.66,1.2-3.29,1.29.23Z"/>
      <circle class="cls-2" cx="20.19" cy="18.63" r="3.06"/>
    </g>
    <g id="roldana2">
      <path class="cls-2" d="M42.84,14.25v-2.24l-1.39.25-.6-1.64,1.23-.71-1.44-1.72-.91,1.08-1.52-.88.48-1.33-2.21-.39v1.42l-1.72.3-.48-1.33-1.94,1.12.91,1.09c-.45.38-1.12,1.34-1.12,1.34l-1.23-.71c-.4.69-.77,2.11-.77,2.11l1.4.25v1.75l-1.4.25.77,2.11,1.23-.71,1.12,1.34-.91,1.09,1.94,1.12.48-1.33,1.72.3v1.42l2.21-.39-.48-1.33,1.52-.88.91,1.08,1.44-1.72-1.23-.71.6-1.64,1.39.25Z"/>
      <circle class="cls-2" cx="36.48" cy="13.13" r="2"/>
    </g>
    <g id="euro">
      <path class="cls-3" d="M43.17,35.45h-1.65c.02.54.15.94.4,1.2s.61.4,1.08.4c.34,0,.66-.05.95-.15l.13.94c-.37.09-.75.13-1.15.13-.79,0-1.41-.22-1.86-.67-.45-.44-.69-1.06-.72-1.86h-.8v-.65h.8v-.59h-.8v-.65h.8c.04-.79.29-1.4.75-1.83s1.08-.65,1.86-.65c.33,0,.7.05,1.11.14l-.13.95c-.31-.1-.63-.16-.94-.16-.47,0-.82.13-1.07.4s-.39.65-.42,1.16h1.64v.65h-1.65v.59h1.65v.65Z"/>
    </g>
    <polyline class="cls-1" points="4.03 44.79 6.45 44.79 6.45 21.69 11.78 21.69 11.78 44.79 13.23 44.79"/>
    <polyline class="cls-1" points="13.23 44.79 14.63 44.79 14.63 26.63 19.96 26.63 19.96 44.79 21.41 44.79"/>
    <polyline class="cls-1" points="21.41 44.79 22.81 44.79 22.81 31.13 28.13 31.13 28.13 44.79 29.59 44.79"/>
    <polyline class="cls-1" points="29.59 44.79 30.98 44.79 30.98 35.64 36.31 35.64 36.31 44.79 37.76 44.79"/>
    <polyline class="cls-1" points="37.76 44.79 39.16 44.79 39.16 40.14 44.49 40.14 44.49 44.79 45.94 44.79"/>
  </g>
</svg>