<?xml version="1.0" encoding="UTF-8"?>
<svg id="btn12" xmlns="http://www.w3.org/2000/svg" width="50" height="50" viewBox="0 0 50 50">
  <defs>
    <style>
      .cls-1 {
        fill: #f3979c;
      }

      .cls-1, .cls-2, .cls-3 {
        stroke: #1a1a1a;
        stroke-miterlimit: 10;
        stroke-width: .99px;
      }

      .cls-4 {
        fill: #fcddd0;
        stroke-width: 0px;
      }

      .cls-2 {
        stroke-dasharray: 0 0 1.51 1.01;
      }

      .cls-2, .cls-3 {
        fill: none;
      }
    </style>
  </defs>
  <circle class="cls-4" cx="25" cy="25" r="24.77"/>
  <g>
    <g>
      <path class="cls-1" d="M24.22,32.99S-4.29,15.47,14.66,7.17c15.18-6.65,10.87,25.82,10.87,25.82M15.79,10.91c-7.54,2.58-1.91,12.23,3.63,9.55,5.94-2.88,2.44-11.63-3.63-9.55Z"/>
      <g>
        <line class="cls-3" x1="32.42" y1="32.99" x2="9.45" y2="32.99"/>
        <line class="cls-3" x1="37.59" y1="32.99" x2="42.89" y2="32.99"/>
      </g>
    </g>
    <g id="linha_local">
      <g>
        <path class="cls-3" d="M24.83,32.99c0,.24.02.49.07.74"/>
        <path class="cls-2" d="M25.17,34.69c1.55,4.13,8.06,8.82,12.42,8.82,4.98,0,3.9-4.98,0-4.98s-11.53,7.81-22.88,8.36"/>
        <path class="cls-3" d="M14.2,46.91c-.25,0-.49.01-.74.01"/>
      </g>
    </g>
  </g>
</svg>