<?xml version="1.0" encoding="UTF-8"?>
<svg id="btn1" xmlns="http://www.w3.org/2000/svg" width="50" height="50" viewBox="0 0 50 50">
  <defs>
    <style>
      .cls-1 {
        fill: gray;
      }

      .cls-1, .cls-2 {
        stroke-width: 0px;
      }

      .cls-2 {
        fill: #fcddd0;
      }

      .cls-3 {
        stroke: #1a1a1a;
        stroke-miterlimit: 10;
        stroke-width: .99px;
      }

      .cls-3, .cls-4 {
        fill: none;
      }

      .cls-4 {
        stroke: #f3979c;
        stroke-linecap: round;
        stroke-linejoin: round;
        stroke-width: 3.46px;
      }
    </style>
  </defs>
  <circle class="cls-2" cx="25" cy="25" r="24.77"/>
  <g id="sinal">
    <polygon class="cls-4" points="9 36.26 41 36.26 25 6.96 9 36.26"/>
    <g id="exclama">
      <polygon class="cls-1" points="24.09 28.83 23.01 19.41 26.74 19.41 25.81 28.83 24.09 28.83"/>
      <rect class="cls-1" x="24.09" y="30.63" width="1.7" height="1.66"/>
    </g>
  </g>
  <g id="grade">
    <path class="cls-3" d="M5.63,18.05c0-2.18,1.77-3.94,3.94-3.94h30.85c2.18,0,3.94,1.77,3.94,3.94v15.49H5.63v-15.49Z"/>
    <line class="cls-3" x1="44.37" y1="18.05" x2="44.37" y2="40.99"/>
    <line class="cls-3" x1="44.37" y1="20.36" x2="46.18" y2="20.36"/>
    <line class="cls-3" x1="44.37" y1="29.6" x2="46.18" y2="29.6"/>
    <line class="cls-3" x1="42" y1="40.99" x2="46.74" y2="40.99"/>
    <line class="cls-3" x1="5.63" y1="18.05" x2="5.63" y2="40.99"/>
    <line class="cls-3" x1="3.26" y1="40.99" x2="8" y2="40.99"/>
    <line class="cls-3" x1="3.82" y1="20.36" x2="5.63" y2="20.36"/>
    <line class="cls-3" x1="3.82" y1="29.6" x2="5.63" y2="29.6"/>
    <g>
      <line class="cls-3" x1="9.58" y1="14.11" x2="9.58" y2="33.54"/>
      <line class="cls-3" x1="12.66" y1="14.11" x2="12.66" y2="33.54"/>
      <line class="cls-3" x1="15.75" y1="14.11" x2="15.75" y2="33.54"/>
      <line class="cls-3" x1="18.83" y1="14.11" x2="18.83" y2="33.54"/>
      <line class="cls-3" x1="21.92" y1="14.11" x2="21.92" y2="33.54"/>
      <line class="cls-3" x1="25" y1="14.11" x2="25" y2="33.54"/>
      <line class="cls-3" x1="28.08" y1="14.11" x2="28.08" y2="33.54"/>
      <line class="cls-3" x1="31.17" y1="14.11" x2="31.17" y2="33.54"/>
      <line class="cls-3" x1="34.25" y1="14.11" x2="34.25" y2="33.54"/>
      <line class="cls-3" x1="37.34" y1="14.11" x2="37.34" y2="33.54"/>
      <line class="cls-3" x1="40.42" y1="14.11" x2="40.42" y2="33.54"/>
    </g>
  </g>
</svg>