<?xml version="1.0" encoding="UTF-8"?>
<svg id="btn4" xmlns="http://www.w3.org/2000/svg" width="50" height="50" viewBox="0 0 50 50">
  <defs>
    <style>
      .cls-1 {
        fill: #1a1a1a;
      }

      .cls-1, .cls-2 {
        stroke-width: 0px;
      }

      .cls-3, .cls-2 {
        fill: #fcddd0;
      }

      .cls-3, .cls-4, .cls-5 {
        stroke: #1a1a1a;
        stroke-width: .99px;
      }

      .cls-3, .cls-5 {
        stroke-miterlimit: 10;
      }

      .cls-4 {
        fill: #ebcf9e;
        stroke-linejoin: bevel;
      }

      .cls-5 {
        fill: none;
      }
    </style>
  </defs>
  <circle class="cls-2" cx="25.03" cy="25" r="24.77"/>
  <g id="porco">
    <path class="cls-5" d="M11.15,16.72c-.58-.43-1.13-.98-1.66-1.66-1.08,1.11-3.4,5.64.74,8.44"/>
    <path class="cls-5" d="M39.01,47.49h-6.93c-1.03-4.16-3.88-6.33-6.7-6.19h8.33"/>
    <path class="cls-5" d="M8.16,35.96s.42,1.64,1.8,4.12c1.38,2.48.13,7.42.13,7.42h9.11"/>
    <path class="cls-5" d="M19.2,47.49c2.44-8.61,12.5-7.89,14.46,0h5.35s11.88-15.97,0-26.74c-11.88-10.77-20.74,2.75-27.63-6.07,0,0-3.89,4.59-1.15,8.82,0,0-1.2,3.53-2.59,3.88-1.38.35-5.61,0-5.61,0-1.75,0-1.75,8.57,0,8.57h6.13s.74,1.64,2.6,4.12,1.57,7.42,1.57,7.42h6.88Z"/>
    <path class="cls-5" d="M2.03,27.39c1.61,0,1.61,8.57,0,8.57"/>
    <path class="cls-5" d="M11.36,18.39s4.08.58,4.08,6.11"/>
    <path class="cls-1" d="M12.11,25.75c.97,0,1.19,1.42,0,1.42s-.97-1.42,0-1.42Z"/>
    <path class="cls-5" d="M43.86,28.72c4.72,0,5.12,3.07,3.29,3.07s-1.5-3.07,3.6-3.07"/>
    <path class="cls-1" d="M33.63,18.74c-3.5-1.57-7.87-1.1-10.57-.17l.35,1.17c2.71-.93,7.07-1.4,10.57.17l-.35-1.17Z"/>
    <g>
      <ellipse class="cls-1" cx="2.35" cy="31.67" rx=".12" ry=".98"/>
      <ellipse class="cls-1" cx="1.46" cy="31.67" rx=".12" ry=".98"/>
    </g>
    <path class="cls-5" d="M14.31,20.36s-2.2.17-2.2,2.13"/>
    <path class="cls-5" d="M10.76,40.08c.98,2.04-.18,4.09-.18,4.09"/>
    <path class="cls-5" d="M41.59,32.65c2.94,4.9,0,10.42,0,10.42"/>
    <path class="cls-5" d="M19.2,43.79c5.46-4.41,11.67-2.1,15.48-.31"/>
    <path class="cls-3" d="M11.81,38.75c-4.58,1.01-5.89-.46-5.33-1.36s3.09-.51,2.61-1.43h-.52"/>
    <path class="cls-5" d="M11.44,41.3c.98,2.04-1.18,5.39-1.18,5.39"/>
    <path class="cls-5" d="M12.2,44.4c-.39,1.82-1.62,3.1-1.62,3.1"/>
    <path class="cls-5" d="M29.07,42.52c1.82.39,3.1,1.62,3.1,1.62"/>
    <path class="cls-5" d="M30.48,43.98c1.82.39,2.49,1.62,2.49,1.62"/>
    <path class="cls-5" d="M31.18,45.09c1.12.42,2.25,1.6,2.25,1.6"/>
    <path class="cls-5" d="M31.73,46.34c.62.32,1.25,1.15,1.25,1.15"/>
  </g>
  <g id="moeda">
    <g>
      <path class="cls-4" d="M28.51,11.95c5.77,0,5.15-8.02-.18-8.02-5.6,0-5.26,8.02.18,8.02Z"/>
      <path class="cls-4" d="M28.51,13.11c5.77,0,5.15-8.02-.18-8.02-5.6,0-5.26,8.02.18,8.02Z"/>
    </g>
    <path class="cls-1" d="M29.04,9.5h-1c.01.33.09.57.25.73.15.16.37.24.66.24.21,0,.4-.03.58-.09l.08.57c-.23.05-.46.08-.7.08-.48,0-.86-.14-1.13-.41s-.42-.65-.44-1.13h-.48v-.4h.48v-.36h-.48v-.4h.49c.02-.48.18-.85.46-1.12.28-.27.66-.4,1.13-.4.2,0,.42.03.67.09l-.08.58c-.19-.06-.38-.1-.57-.1-.28,0-.5.08-.65.24-.15.16-.24.4-.25.7h1v.4h-1v.36h1v.4Z"/>
    <line class="cls-5" x1="31.98" y1="7.03" x2="31.98" y2="5.93"/>
    <line class="cls-5" x1="32.59" y1="9.1" x2="32.59" y2="7.99"/>
    <line class="cls-5" x1="24.28" y1="9.1" x2="24.28" y2="7.99"/>
    <line class="cls-5" x1="31.55" y1="6.43" x2="31.55" y2="5.32"/>
    <line class="cls-5" x1="31.04" y1="5.94" x2="31.04" y2="4.83"/>
    <line class="cls-5" x1="30.42" y1="5.53" x2="30.42" y2="4.42"/>
    <line class="cls-5" x1="29.8" y1="5.27" x2="29.8" y2="4.16"/>
    <line class="cls-5" x1="29.12" y1="5.1" x2="29.12" y2="3.99"/>
    <line class="cls-5" x1="28.33" y1="5.04" x2="28.33" y2="3.93"/>
    <line class="cls-5" x1="27.52" y1="5.1" x2="27.52" y2="3.99"/>
    <line class="cls-5" x1="26.58" y1="5.36" x2="26.58" y2="4.25"/>
    <line class="cls-5" x1="25.63" y1="5.91" x2="25.63" y2="4.8"/>
    <line class="cls-5" x1="25.09" y1="6.47" x2="25.09" y2="5.36"/>
    <line class="cls-5" x1="24.53" y1="7.48" x2="24.53" y2="6.37"/>
  </g>
</svg>