<?xml version="1.0" encoding="UTF-8"?>
<svg id="btn11" xmlns="http://www.w3.org/2000/svg" width="50" height="50" viewBox="0 0 50 50">
  <defs>
    <style>
      .cls-1 {
        stroke-dasharray: 0 0 1.41 .94;
      }

      .cls-1, .cls-2 {
        fill: none;
      }

      .cls-1, .cls-2, .cls-3 {
        stroke: #1a1a1a;
        stroke-miterlimit: 10;
        stroke-width: .99px;
      }

      .cls-4 {
        fill: #fcddd0;
        stroke-width: 0px;
      }

      .cls-3 {
        fill: #ebcf9e;
      }
    </style>
  </defs>
  <circle class="cls-4" cx="25" cy="25" r="24.77"/>
  <g>
    <path class="cls-2" d="M24.98,19.32H6.34c-1,0-1.83-.82-1.83-1.83V5.24c0-1,.82-1.83,1.83-1.83h38.47c1,0,1.83.82,1.83,1.83v12.26c0,1-.82,1.83-1.83,1.83h-16.87l-2.91,7.05-.06-7.05Z"/>
    <g id="estrelas">
      <polygon class="cls-3" points="10.33 8.14 11.15 10.68 13.83 10.68 11.66 12.25 12.49 14.8 10.33 13.22 8.17 14.8 8.99 12.25 6.83 10.68 9.5 10.68 10.33 8.14"/>
      <polygon class="cls-3" points="17.95 8.14 18.78 10.68 21.45 10.68 19.29 12.25 20.11 14.8 17.95 13.22 15.79 14.8 16.62 12.25 14.46 10.68 17.13 10.68 17.95 8.14"/>
      <polygon class="cls-3" points="25.58 8.14 26.4 10.68 29.08 10.68 26.91 12.25 27.74 14.8 25.58 13.22 23.42 14.8 24.24 12.25 22.08 10.68 24.75 10.68 25.58 8.14"/>
      <polygon class="cls-3" points="33.2 8.14 34.03 10.68 36.7 10.68 34.54 12.25 35.36 14.8 33.2 13.22 31.04 14.8 31.87 12.25 29.71 10.68 32.38 10.68 33.2 8.14"/>
      <polygon class="cls-3" points="40.83 8.14 41.65 10.68 44.32 10.68 42.16 12.25 42.99 14.8 40.83 13.22 38.67 14.8 39.49 12.25 37.33 10.68 40 10.68 40.83 8.14"/>
    </g>
    <circle class="cls-2" cx="28.21" cy="36.08" r="3.44"/>
    <rect class="cls-2" x="26.18" y="39.54" width="2.33" height=".96" transform="translate(9.2 -4.92) rotate(12.35)"/>
    <rect class="cls-2" x="26.21" y="40.44" width="1.11" height="4.48" transform="translate(9.75 -4.74) rotate(12.35)"/>
    <polyline class="cls-2" points="24.69 45.82 18.77 43.92 19.89 38.67 21.9 38.67 22.53 28.91 12.6 26.98 9.16 41.87 4.52 43.67"/>
    <line class="cls-2" x1="17.01" y1="33.63" x2="20.45" y2="34.38"/>
    <line class="cls-2" x1="17.77" y1="41.15" x2="17.77" y2="42.3"/>
    <g id="linha_revisao">
      <g>
        <line class="cls-2" x1="23.51" y1="35.05" x2="24.24" y2="35.21"/>
        <line class="cls-1" x1="25.16" y1="35.41" x2="45.36" y2="39.84"/>
        <line class="cls-2" x1="45.82" y1="39.94" x2="46.55" y2="40.1"/>
      </g>
    </g>
  </g>
</svg>