<?xml version="1.0" encoding="UTF-8"?>
<svg id="btn9" xmlns="http://www.w3.org/2000/svg" width="50" height="50" viewBox="0 0 50 50">
  <defs>
    <style>
      .cls-1 {
        fill: #1a1a1a;
      }

      .cls-1, .cls-2 {
        stroke-width: 0px;
      }

      .cls-2 {
        fill: #fcddd0;
      }

      .cls-3 {
        fill: #ebcf9e;
        stroke-linejoin: bevel;
      }

      .cls-3, .cls-4 {
        stroke: #1a1a1a;
        stroke-width: .99px;
      }

      .cls-4 {
        fill: none;
        stroke-miterlimit: 10;
      }
    </style>
  </defs>
  <circle class="cls-2" cx="25" cy="25" r="24.77"/>
  <g>
    <g>
      <path class="cls-3" d="M25.34,22.22c-13.92,0-12.41,19.35.44,19.35,13.51,0,12.68-19.35-.44-19.35Z"/>
      <path class="cls-3" d="M25.34,19.45c-13.92,0-12.41,19.35.44,19.35,13.51,0,12.68-19.35-.44-19.35Z"/>
    </g>
    <path class="cls-1" d="M26.98,30.48h-2.41c.03.79.22,1.37.59,1.76.37.39.9.58,1.58.58.5,0,.96-.07,1.39-.22l.19,1.38c-.54.13-1.1.2-1.68.2-1.16,0-2.07-.33-2.73-.98-.66-.65-1.02-1.56-1.05-2.73h-1.17v-.96h1.17v-.87h-1.17v-.96h1.17c.06-1.15.43-2.05,1.11-2.69.68-.64,1.59-.96,2.73-.96.48,0,1.02.07,1.62.21l-.19,1.39c-.46-.15-.92-.23-1.38-.23-.68,0-1.21.19-1.57.58-.37.39-.57.95-.61,1.7h2.41v.96h-2.41v.87h2.41v.96Z"/>
    <path class="cls-1" d="M20.57,7.38c0-.6.19-1.09.58-1.47.38-.38.89-.57,1.51-.57s1.14.19,1.52.57c.38.38.57.88.57,1.5v.49c0,.59-.19,1.08-.57,1.46-.38.38-.89.57-1.51.57s-1.11-.19-1.51-.56c-.4-.37-.59-.88-.59-1.51v-.48ZM21.72,7.9c0,.31.09.57.26.76.17.19.4.29.69.29s.51-.1.68-.29c.17-.19.26-.45.26-.79v-.5c0-.31-.09-.57-.26-.76s-.4-.29-.69-.29-.51.1-.68.3-.25.46-.25.78v.5ZM23.01,14.62l-.85-.49,4.82-7.72.85.49-4.82,7.72ZM25.32,12.93c0-.61.2-1.1.59-1.47.39-.38.9-.56,1.51-.56s1.12.19,1.51.56c.39.38.59.88.59,1.52v.48c0,.59-.19,1.07-.57,1.46-.38.38-.88.57-1.52.57s-1.14-.19-1.53-.57-.58-.88-.58-1.5v-.49ZM26.47,13.46c0,.31.09.56.27.76.18.2.41.29.69.29s.52-.09.68-.28.25-.45.25-.79v-.51c0-.32-.09-.57-.26-.76s-.4-.28-.68-.28-.51.09-.68.28c-.17.19-.26.45-.26.79v.5Z"/>
    <line class="cls-4" x1="16.98" y1="34.09" x2="16.98" y2="36.76"/>
    <line class="cls-4" x1="15.5" y1="31.78" x2="15.5" y2="29.1"/>
    <line class="cls-4" x1="35.54" y1="29.1" x2="35.54" y2="31.78"/>
    <line class="cls-4" x1="18.03" y1="35.54" x2="18.03" y2="38.22"/>
    <line class="cls-4" x1="19.25" y1="36.72" x2="19.25" y2="39.4"/>
    <line class="cls-4" x1="20.75" y1="37.7" x2="20.75" y2="40.38"/>
    <line class="cls-4" x1="22.25" y1="38.35" x2="22.25" y2="41.02"/>
    <line class="cls-4" x1="23.89" y1="38.75" x2="23.89" y2="41.42"/>
    <line class="cls-4" x1="25.77" y1="38.9" x2="25.77" y2="41.57"/>
    <line class="cls-4" x1="27.74" y1="38.75" x2="27.74" y2="41.42"/>
    <line class="cls-4" x1="30.01" y1="38.13" x2="30.01" y2="40.8"/>
    <line class="cls-4" x1="32.29" y1="36.79" x2="32.29" y2="39.46"/>
    <line class="cls-4" x1="33.6" y1="35.45" x2="33.6" y2="38.13"/>
    <line class="cls-4" x1="34.94" y1="33.02" x2="34.94" y2="35.7"/>
    <g id="seta">
      <polyline id="linha_seta" class="cls-4" points="3.19 9.37 10.36 16.54 12.02 14.87 21.21 24.06 23.62 21.65 30.5 28.53 33.73 25.31 45.22 36.8"/>
      <g id="arrow">
        <polygon class="cls-1" points="42.96 38.03 47.73 39.31 46.45 34.54 42.96 38.03"/>
      </g>
    </g>
  </g>
</svg>