<?xml version="1.0" encoding="UTF-8"?>
<svg id="btn2" xmlns="http://www.w3.org/2000/svg" width="50" height="50" viewBox="0 0 50 50">
  <defs>
    <style>
      .cls-1 {
        fill: #9dbad6;
      }

      .cls-1, .cls-2, .cls-3, .cls-4 {
        stroke: #1a1a1a;
        stroke-miterlimit: 10;
        stroke-width: .99px;
      }

      .cls-5 {
        fill: #1a1a1a;
      }

      .cls-5, .cls-6 {
        stroke-width: 0px;
      }

      .cls-2 {
        fill: #000;
      }

      .cls-6 {
        fill: #fcddd0;
      }

      .cls-3 {
        fill: none;
      }

      .cls-4 {
        fill: #fff;
      }
    </style>
  </defs>
  <circle class="cls-6" cx="25" cy="25" r="24.77"/>
  <g id="wagon">
    <g>
      <rect class="cls-4" x="8.54" y="37.38" width="32.92" height="1.12"/>
      <line class="cls-4" x1="43.86" y1="38.5" x2="43.86" y2="37.38"/>
      <line class="cls-4" x1="6.14" y1="38.5" x2="6.14" y2="37.38"/>
      <line class="cls-4" x1="6.14" y1="44.12" x2="43.86" y2="44.12"/>
    </g>
    <circle class="cls-2" cx="11.76" cy="42.84" r="1.29"/>
    <circle class="cls-2" cx="17.3" cy="42.84" r="1.29"/>
    <polygon class="cls-5" points="19.03 39.5 19.03 40.5 15.03 40.5 15.03 41.86 14.03 41.86 14.03 40.5 10.03 40.5 10.03 39.5 19.03 39.5"/>
    <circle class="cls-2" cx="32.96" cy="42.84" r="1.29"/>
    <circle class="cls-2" cx="38.51" cy="42.84" r="1.29"/>
    <polygon class="cls-5" points="40.24 39.5 40.24 40.5 36.24 40.5 36.24 41.86 35.23 41.86 35.23 40.5 31.23 40.5 31.23 39.5 40.24 39.5"/>
    <line class="cls-4" x1="42.65" y1="37.94" x2="43.86" y2="37.94"/>
    <line class="cls-4" x1="7.35" y1="37.94" x2="6.14" y2="37.94"/>
    <g>
      <line class="cls-4" x1="8.23" y1="44.12" x2="8.23" y2="45.33"/>
      <line class="cls-4" x1="11" y1="44.12" x2="11" y2="45.33"/>
      <line class="cls-4" x1="13.77" y1="44.12" x2="13.77" y2="45.33"/>
      <line class="cls-4" x1="16.54" y1="44.12" x2="16.54" y2="45.33"/>
      <line class="cls-4" x1="19.31" y1="44.12" x2="19.31" y2="45.33"/>
      <line class="cls-4" x1="22.08" y1="44.12" x2="22.08" y2="45.33"/>
      <line class="cls-4" x1="24.85" y1="44.12" x2="24.85" y2="45.33"/>
      <line class="cls-4" x1="27.62" y1="44.12" x2="27.62" y2="45.33"/>
      <line class="cls-4" x1="30.4" y1="44.12" x2="30.4" y2="45.33"/>
      <line class="cls-4" x1="33.17" y1="44.12" x2="33.17" y2="45.33"/>
      <line class="cls-4" x1="35.94" y1="44.12" x2="35.94" y2="45.33"/>
      <line class="cls-4" x1="38.71" y1="44.12" x2="38.71" y2="45.33"/>
      <line class="cls-4" x1="41.48" y1="44.12" x2="41.48" y2="45.33"/>
    </g>
  </g>
  <g id="contentor">
    <path class="cls-3" d="M23.72,11.01c0,.71.58,1.28,1.28,1.28s1.28-.58,1.28-1.28-.58-1.28-1.28-1.28v-1.57"/>
    <rect class="cls-1" x="10.47" y="17.87" width="29.06" height="15.51"/>
    <rect class="cls-4" x="9.76" y="16.74" width="30.48" height="1.12"/>
    <rect class="cls-4" x="9.76" y="33.38" width="30.48" height="1.12"/>
    <g>
      <line class="cls-4" x1="36.96" y1="19.35" x2="36.96" y2="31.89"/>
      <line class="cls-4" x1="34.97" y1="19.35" x2="34.97" y2="31.89"/>
      <line class="cls-4" x1="32.97" y1="19.35" x2="32.97" y2="31.89"/>
      <line class="cls-4" x1="30.98" y1="19.35" x2="30.98" y2="31.89"/>
      <line class="cls-4" x1="28.99" y1="19.35" x2="28.99" y2="31.89"/>
      <line class="cls-4" x1="26.99" y1="19.35" x2="26.99" y2="31.89"/>
      <line class="cls-4" x1="25" y1="19.35" x2="25" y2="31.89"/>
      <line class="cls-4" x1="23.01" y1="19.35" x2="23.01" y2="31.89"/>
      <line class="cls-4" x1="21.01" y1="19.35" x2="21.01" y2="31.89"/>
      <line class="cls-4" x1="19.02" y1="19.35" x2="19.02" y2="31.89"/>
      <line class="cls-4" x1="17.03" y1="19.35" x2="17.03" y2="31.89"/>
      <line class="cls-4" x1="15.03" y1="19.35" x2="15.03" y2="31.89"/>
      <line class="cls-4" x1="13.04" y1="19.35" x2="13.04" y2="31.89"/>
    </g>
    <line class="cls-3" x1="25.87" y1="11.95" x2="39.53" y2="16.74"/>
    <line class="cls-3" x1="9.76" y1="16.74" x2="24.11" y2="11.94"/>
    <polygon class="cls-3" points="25.79 8.16 24.21 8.16 23.96 6.57 26.04 6.57 25.79 8.16"/>
    <line class="cls-3" x1="25" y1="6.57" x2="25" y2="3.8"/>
  </g>
</svg>