<?xml version="1.0" encoding="UTF-8"?>
<svg id="btn3" xmlns="http://www.w3.org/2000/svg" width="50" height="50" viewBox="0 0 50 50">
  <defs>
    <style>
      .cls-1 {
        fill: #9dbad6;
      }

      .cls-1, .cls-2, .cls-3, .cls-4 {
        stroke: #1a1a1a;
        stroke-miterlimit: 10;
        stroke-width: .99px;
      }

      .cls-5 {
        fill: #ebcf9e;
      }

      .cls-5, .cls-6 {
        stroke-width: 0px;
      }

      .cls-2 {
        fill: #edeef0;
      }

      .cls-6 {
        fill: #fcddd0;
      }

      .cls-3 {
        fill: none;
      }

      .cls-4 {
        fill: #fff;
      }
    </style>
  </defs>
  <g id="edificio">
    <circle class="cls-6" cx="25" cy="25" r="24.77"/>
    <g>
      <rect class="cls-4" x="9.55" y="5.85" width="30.9" height="1.33"/>
      <rect class="cls-3" x="10.66" y="7.18" width="28.69" height="38.27"/>
      <line class="cls-4" x1="45.2" y1="45.45" x2="4.8" y2="45.45"/>
      <rect class="cls-4" x="18.5" y="3.91" width="13" height="1.93"/>
      <g>
        <g>
          <rect class="cls-1" x="8.61" y="11.92" width="11.41" height="4.66"/>
          <rect class="cls-4" x="13.39" y="9.05" width="5.57" height="2.87"/>
        </g>
        <g>
          <rect class="cls-1" x="29.99" y="11.92" width="11.41" height="4.66" transform="translate(71.38 28.51) rotate(180)"/>
          <rect class="cls-4" x="31.03" y="9.05" width="5.57" height="2.87" transform="translate(67.64 20.98) rotate(180)"/>
        </g>
        <rect class="cls-4" x="22.41" y="15.49" width="5.31" height="1.09"/>
        <rect class="cls-4" x="22.98" y="12.62" width="4.17" height="2.87"/>
      </g>
      <g>
        <g>
          <rect class="cls-1" x="8.61" y="21.35" width="11.41" height="4.66"/>
          <rect class="cls-2" x="13.39" y="18.48" width="5.57" height="2.87"/>
        </g>
        <g>
          <rect class="cls-1" x="29.99" y="21.35" width="11.41" height="4.66" transform="translate(71.38 47.36) rotate(180)"/>
          <rect class="cls-4" x="31.03" y="18.48" width="5.57" height="2.87" transform="translate(67.64 39.83) rotate(180)"/>
        </g>
        <rect class="cls-4" x="22.41" y="24.92" width="5.31" height="1.09"/>
        <rect class="cls-4" x="22.98" y="22.05" width="4.17" height="2.87"/>
      </g>
      <g>
        <g>
          <rect class="cls-1" x="8.61" y="30.78" width="11.41" height="4.66"/>
          <rect class="cls-4" x="13.39" y="27.9" width="5.57" height="2.87"/>
        </g>
        <g>
          <rect class="cls-1" x="29.99" y="30.78" width="11.41" height="4.66" transform="translate(71.38 66.21) rotate(180)"/>
          <rect class="cls-4" x="31.03" y="27.9" width="5.57" height="2.87" transform="translate(67.64 58.68) rotate(180)"/>
          <rect class="cls-4" x="13.39" y="38.43" width="7.6" height="4.67"/>
          <rect class="cls-4" x="29.01" y="38.43" width="7.6" height="4.67" transform="translate(65.62 81.52) rotate(180)"/>
        </g>
        <rect class="cls-4" x="22.41" y="34.35" width="5.31" height="1.09"/>
        <rect class="cls-4" x="22.98" y="31.47" width="4.17" height="2.87"/>
        <rect class="cls-3" x="22.76" y="37" width="4.61" height="8.45"/>
      </g>
      <line class="cls-4" x1="39.34" y1="37" x2="10.66" y2="37"/>
      <line class="cls-4" x1="22.76" y1="43.09" x2="10.66" y2="43.09"/>
      <line class="cls-4" x1="39.34" y1="43.09" x2="27.24" y2="43.09"/>
    </g>
    <g id="janelas">
      <rect class="cls-5" x="31.5" y="9.85" width="3.92" height="1.34"/>
      <rect class="cls-5" x="31.5" y="19.28" width="3.92" height="1.34"/>
      <rect class="cls-5" x="13.86" y="9.85" width="3.92" height="1.34"/>
      <rect class="cls-5" x="13.86" y="19.28" width="3.92" height="1.34"/>
      <rect class="cls-5" x="23.48" y="32.25" width="2.27" height="1.34"/>
      <rect class="cls-5" x="23.48" y="22.83" width="2.27" height="1.34"/>
      <rect class="cls-5" x="23.48" y="13.4" width="2.27" height="1.34"/>
      <rect class="cls-5" x="31.5" y="28.71" width="3.92" height="1.34"/>
      <rect class="cls-5" x="13.86" y="28.71" width="3.92" height="1.34"/>
      <rect class="cls-5" x="29.62" y="39.39" width="5.31" height="2.83"/>
      <rect class="cls-5" x="14.01" y="39.39" width="5.31" height="2.83"/>
    </g>
  </g>
</svg>