<?xml version="1.0" encoding="UTF-8"?>
<svg id="btn5" xmlns="http://www.w3.org/2000/svg" width="50" height="50" viewBox="0 0 50 50">
  <defs>
    <style>
      .cls-1, .cls-2, .cls-3, .cls-4, .cls-5 {
        stroke-width: .99px;
      }

      .cls-1, .cls-6 {
        fill: #9dbad6;
      }

      .cls-1, .cls-3, .cls-4, .cls-5 {
        stroke: #1a1a1a;
      }

      .cls-1, .cls-4, .cls-5 {
        stroke-miterlimit: 10;
      }

      .cls-7 {
        fill: #1a1a1a;
      }

      .cls-7, .cls-6, .cls-8 {
        stroke-width: 0px;
      }

      .cls-2 {
        stroke: #fff;
      }

      .cls-2, .cls-3 {
        stroke-linejoin: bevel;
      }

      .cls-2, .cls-4 {
        fill: none;
      }

      .cls-8 {
        fill: #fcddd0;
      }

      .cls-3 {
        fill: #ebcf9e;
      }

      .cls-5 {
        fill: #fff;
      }
    </style>
  </defs>
  <circle class="cls-8" cx="25.03" cy="25" r="24.77"/>
  <g>
    <path class="cls-4" d="M36.67,40.52v1.8c0,.82-.67,1.49-1.49,1.49H14.88c-.82,0-1.49-.67-1.49-1.49v-1.8"/>
    <line class="cls-5" x1="13.88" y1="43.42" x2="13.88" y2="41.62"/>
    <line class="cls-5" x1="14.88" y1="43.81" x2="14.88" y2="42.01"/>
    <line class="cls-5" x1="16.21" y1="43.81" x2="16.21" y2="42.01"/>
    <line class="cls-5" x1="18.53" y1="43.81" x2="18.53" y2="42.01"/>
    <line class="cls-5" x1="21.75" y1="43.81" x2="21.75" y2="42.01"/>
    <line class="cls-5" x1="26.13" y1="43.81" x2="26.13" y2="42.01"/>
    <rect class="cls-4" x="13.39" y="8.24" width="23.28" height="33.77" rx="1.48" ry="1.48"/>
    <rect class="cls-3" x="16.21" y="10.81" width="17.64" height="6.75"/>
    <line class="cls-2" x1="33.38" y1="11.31" x2="16.68" y2="11.31"/>
    <rect class="cls-5" x="16.21" y="21.57" width="3.56" height="3.56"/>
    <rect class="cls-5" x="23.25" y="21.57" width="3.56" height="3.56"/>
    <rect class="cls-5" x="30.3" y="21.57" width="3.56" height="3.56"/>
    <rect class="cls-5" x="16.21" y="27.8" width="3.56" height="3.56"/>
    <rect class="cls-5" x="23.25" y="27.8" width="3.56" height="3.56"/>
    <rect class="cls-5" x="16.21" y="34.03" width="3.56" height="3.56"/>
    <rect class="cls-5" x="23.25" y="34.03" width="3.56" height="3.56"/>
    <rect class="cls-5" x="30.3" y="27.8" width="3.56" height="9.79"/>
    <path class="cls-7" d="M31.34,15.13h-1.12c.01.36.1.64.28.82.17.18.42.27.73.27.23,0,.45-.03.64-.1l.09.64c-.25.06-.51.09-.78.09-.54,0-.96-.15-1.27-.45s-.47-.72-.49-1.26h-.54v-.44h.54v-.4h-.54v-.44h.54c.03-.53.2-.95.51-1.25s.74-.44,1.27-.44c.22,0,.47.03.75.1l-.09.64c-.21-.07-.43-.11-.64-.11-.32,0-.56.09-.73.27-.17.18-.26.44-.28.79h1.12v.44h-1.12v.4h1.12v.44Z"/>
  </g>
  <g id="btn_s" data-name="btn&amp;apos;s">
    <rect class="cls-6" x="30.75" y="29.12" width="2.05" height="7.99"/>
    <rect class="cls-6" x="23.71" y="28.91" width="1.97" height="1.97"/>
    <rect class="cls-6" x="23.71" y="22.68" width="1.97" height="1.97"/>
    <rect class="cls-6" x="30.75" y="22.68" width="1.97" height="1.97"/>
    <rect class="cls-6" x="16.67" y="28.91" width="1.97" height="1.97"/>
    <rect class="cls-6" x="16.67" y="22.68" width="1.97" height="1.97"/>
    <rect class="cls-6" x="23.71" y="35.14" width="1.97" height="1.97"/>
    <rect class="cls-6" x="16.67" y="35.14" width="1.97" height="1.97"/>
  </g>
  <g id="setas_predio">
    <polyline class="cls-1" points="-.09 13.18 5.02 18.29 3.03 20.28 11.41 20.28 11.41 11.9 9.42 13.89 4.31 8.78"/>
    <polyline class="cls-1" points="-.09 40.06 5.02 34.95 3.03 32.96 11.41 32.96 11.41 41.34 9.42 39.35 4.31 44.46"/>
    <polyline class="cls-1" points="45.75 7.93 40.64 13.04 38.65 11.05 38.65 19.43 47.03 19.43 45.04 17.44 50.15 12.33"/>
    <polyline class="cls-1" points="45.75 39.03 40.64 33.92 38.65 35.91 38.65 27.53 47.03 27.53 45.04 29.52 50.15 34.63"/>
  </g>
</svg>