<?xml version="1.0" encoding="UTF-8"?>
<svg id="btn8" xmlns="http://www.w3.org/2000/svg" width="50" height="50" viewBox="0 0 50 50">
  <defs>
    <style>
      .cls-1 {
        fill: #9dbad6;
      }

      .cls-1, .cls-2, .cls-3, .cls-4 {
        stroke: #1a1a1a;
        stroke-width: .99px;
      }

      .cls-1, .cls-3, .cls-4 {
        stroke-miterlimit: 10;
      }

      .cls-5, .cls-6, .cls-7 {
        stroke-width: 0px;
      }

      .cls-5, .cls-3 {
        fill: none;
      }

      .cls-6 {
        fill: #1a1a1a;
      }

      .cls-7 {
        fill: #fcddd0;
      }

      .cls-2 {
        fill: #ebcf9e;
        stroke-linejoin: bevel;
      }

      .cls-4 {
        fill: #fff;
      }
    </style>
  </defs>
  <g>
    <circle class="cls-7" cx="25" cy="25" r="24.77"/>
    <g>
      <rect class="cls-3" x="11.17" y="8.66" width="25.74" height="33.42"/>
      <path class="cls-6" d="M26.02,34.4h-2.41c.03.79.22,1.37.59,1.76.37.39.9.58,1.58.58.5,0,.96-.07,1.39-.22l.19,1.38c-.54.13-1.1.2-1.68.2-1.16,0-2.07-.33-2.73-.98-.66-.65-1.02-1.56-1.05-2.73h-1.17v-.96h1.17v-.87h-1.17v-.96h1.17c.06-1.15.43-2.05,1.11-2.69.68-.64,1.59-.96,2.73-.96.48,0,1.02.07,1.62.21l-.19,1.39c-.46-.15-.92-.23-1.38-.23-.68,0-1.21.19-1.57.58-.37.39-.57.95-.61,1.7h2.41v.96h-2.41v.87h2.41v.96Z"/>
      <path class="cls-6" d="M19.61,16.55c0-.6.19-1.09.58-1.47.38-.38.89-.57,1.51-.57s1.14.19,1.52.57c.38.38.57.88.57,1.5v.49c0,.59-.19,1.08-.57,1.46-.38.38-.89.57-1.51.57s-1.11-.19-1.51-.56c-.4-.37-.59-.88-.59-1.51v-.48ZM20.76,17.07c0,.31.09.57.26.76.17.19.4.29.69.29s.51-.1.68-.29c.17-.19.26-.45.26-.79v-.5c0-.31-.09-.57-.26-.76s-.4-.29-.69-.29-.51.1-.68.3-.25.46-.25.78v.5ZM22.05,23.78l-.85-.49,4.82-7.72.85.49-4.82,7.72ZM24.35,22.1c0-.61.2-1.1.59-1.47.39-.38.9-.56,1.51-.56s1.12.19,1.51.56c.39.38.59.88.59,1.52v.48c0,.59-.19,1.07-.57,1.46-.38.38-.88.57-1.52.57s-1.14-.19-1.53-.57-.58-.88-.58-1.5v-.5ZM25.51,22.62c0,.31.09.56.27.76.18.2.41.29.69.29s.52-.09.68-.28.25-.45.25-.79v-.51c0-.32-.09-.57-.26-.76s-.4-.28-.68-.28-.51.09-.68.28c-.17.19-.26.45-.26.79v.5Z"/>
      <polygon class="cls-1" points="27.74 7.71 27.74 4.69 20.33 4.69 20.33 7.71 17.49 7.71 17.49 10.85 30.58 10.85 30.58 7.71 27.74 7.71"/>
      <line class="cls-4" x1="27.74" y1="7.77" x2="20.33" y2="7.77"/>
    </g>
  </g>
  <g id="lapis">
    <g id="lapis_regime">
      <path class="cls-2" d="M40.08,42.08c-1.06,0-1.55-.34-1.55-.34v-21.46l1.55-3.02,1.55,3.02v21.46s-.5.34-1.55.34Z"/>
      <polygon class="cls-3" points="39.49 18.41 40.08 17.27 40.86 18.78 39.49 18.41"/>
      <path class="cls-3" d="M38.53,20.29s.17.81.81.81.74-.81.74-.81c0,0,0,.81.78.81s.78-.81.78-.81"/>
    </g>
    <circle class="cls-5" cx="40.08" cy="25.37" r="7.17"/>
  </g>
</svg>