<?xml version="1.0" encoding="UTF-8"?>
<svg id="btn6" xmlns="http://www.w3.org/2000/svg" width="50" height="50" viewBox="0 0 50 50">
  <defs>
    <style>
      .cls-1 {
        fill: #1a1a1a;
      }

      .cls-1, .cls-2, .cls-3, .cls-4 {
        stroke-width: 0px;
      }

      .cls-5 {
        fill: #6895c0;
      }

      .cls-5, .cls-6, .cls-7 {
        stroke: #1a1a1a;
        stroke-width: .99px;
      }

      .cls-5, .cls-7 {
        stroke-miterlimit: 10;
      }

      .cls-2 {
        fill: #9dbad6;
      }

      .cls-3 {
        fill: #fcddd0;
      }

      .cls-6 {
        fill: #ebcf9e;
        stroke-linejoin: bevel;
      }

      .cls-7 {
        fill: none;
      }

      .cls-4 {
        fill: #fff;
      }
    </style>
  </defs>
  <circle class="cls-3" cx="25.03" cy="25" r="24.77"/>
  <g>
    <path id="mao" class="cls-7" d="M11.04,50.27v-7.63s-4.04-6.73-3.14-14.37C7.9,28.27-1.38,14.33-.05,12.74s2.13-2.39,3.46-1.6,5.95,11.44,7.63,11.44-2.84-18.09-1.51-19.15c1.33-1.06,4.52-.53,4.79,1.06.27,1.6,1.86,15.96,3.19,15.96S15.65.77,17.51-.56c1.86-1.33,3.99-1.6,4.79,0,.8,1.6-.27,19.95,1.06,20.22s2.13-15.16,3.72-16.23,3.72-.53,3.99,1.06-2.93,20.48-1.6,22.61c1.33,2.13,1.33,5.05,2.93,5.32s9.04-9.86,12.5-8.12c3.46,1.74,3.99,3.6,0,5.46s-6.38,9.04-9.84,11.17-9.04,5.36-9.04,9.33"/>
    <g id="dinheiro">
      <g id="nota">
        <rect class="cls-5" x="7.47" y="19.58" width="31.38" height="18.27" transform="translate(-12.83 20.59) rotate(-38.39)"/>
        <path class="cls-4" d="M30.44,16.14l-.65.51c.16.18.32.29.49.31.17.02.35-.05.55-.21.14-.11.24-.22.32-.35l.44.41c-.13.16-.28.31-.45.45-.34.27-.68.39-1.02.36-.34-.03-.65-.2-.91-.51l-.33.26-.23-.29.33-.26-.19-.24-.33.26-.23-.29.33-.26c-.23-.34-.32-.68-.26-1.02.06-.34.26-.64.6-.91.13-.11.3-.21.5-.3l.3.52c-.15.05-.29.13-.41.22-.36.29-.42.63-.16,1.03l.64-.51.23.29-.65.51.19.24.65-.51.23.29Z"/>
        <path class="cls-4" d="M17.78,41.49l-.65.51c.16.18.32.29.49.31.17.02.35-.05.55-.21.14-.11.24-.22.32-.35l.44.41c-.13.16-.28.31-.45.45-.34.27-.68.39-1.02.36-.34-.03-.65-.2-.91-.51l-.33.26-.23-.29.33-.26-.19-.24-.33.26-.23-.29.33-.26c-.23-.34-.32-.68-.26-1.02.06-.34.26-.64.6-.91.13-.11.3-.21.5-.3l.3.52c-.15.05-.29.13-.41.22-.36.29-.42.63-.16,1.03l.64-.51.23.29-.65.51.19.24.65-.51.23.29Z"/>
        <path class="cls-2" d="M19.46,39.7l17.94-14.21-5.66-7.14c-1.52,1.16-3.7.89-4.9-.6l-17.94,14.21,5.66,7.14c1.52-1.16,3.7-.89,4.9.6Z"/>
      </g>
      <g id="moeda">
        <g>
          <path class="cls-6" d="M17.09,23.15c-5.77,0-5.15,8.02.18,8.02,5.6,0,5.26-8.02-.18-8.02Z"/>
          <path class="cls-6" d="M17.09,22c-5.77,0-5.15,8.02.18,8.02,5.6,0,5.26-8.02-.18-8.02Z"/>
        </g>
        <path class="cls-1" d="M17.77,26.58h-1c.01.33.09.57.25.73.15.16.37.24.66.24.21,0,.4-.03.58-.09l.08.57c-.23.05-.46.08-.7.08-.48,0-.86-.14-1.13-.41s-.42-.65-.44-1.13h-.48v-.4h.48v-.36h-.48v-.4h.49c.02-.48.18-.85.46-1.12.28-.27.66-.4,1.13-.4.2,0,.42.03.67.09l-.08.58c-.19-.06-.38-.1-.57-.1-.28,0-.5.08-.65.24-.15.16-.24.4-.25.7h1v.4h-1v.36h1v.4Z"/>
        <line class="cls-7" x1="13.62" y1="28.07" x2="13.62" y2="29.18"/>
        <line class="cls-7" x1="13.01" y1="26.01" x2="13.01" y2="27.11"/>
        <line class="cls-7" x1="21.32" y1="26.01" x2="21.32" y2="27.11"/>
        <line class="cls-7" x1="14.05" y1="28.68" x2="14.05" y2="29.78"/>
        <line class="cls-7" x1="14.56" y1="29.16" x2="14.56" y2="30.27"/>
        <line class="cls-7" x1="15.18" y1="29.57" x2="15.18" y2="30.68"/>
        <line class="cls-7" x1="15.8" y1="29.84" x2="15.8" y2="30.95"/>
        <line class="cls-7" x1="16.48" y1="30" x2="16.48" y2="31.11"/>
        <line class="cls-7" x1="17.27" y1="30.07" x2="17.27" y2="31.18"/>
        <line class="cls-7" x1="18.08" y1="30" x2="18.08" y2="31.11"/>
        <line class="cls-7" x1="19.02" y1="29.75" x2="19.02" y2="30.86"/>
        <line class="cls-7" x1="19.97" y1="29.19" x2="19.97" y2="30.3"/>
        <line class="cls-7" x1="20.51" y1="28.64" x2="20.51" y2="29.75"/>
        <line class="cls-7" x1="21.07" y1="27.63" x2="21.07" y2="28.74"/>
      </g>
    </g>
  </g>
</svg>