<svg xmlns="http://www.w3.org/2000/svg" width="186.6383" height="251.23404" viewBox="0 0 186.6383 251.23404"><defs><style>.cls-1{fill:#f5eae6;stroke-width:0.75px;}.cls-1,.cls-10,.cls-11,.cls-12,.cls-13,.cls-3,.cls-4,.cls-5,.cls-6,.cls-7,.cls-8,.cls-9{stroke:#000;}.cls-1,.cls-10,.cls-12,.cls-3,.cls-4,.cls-5{stroke-linejoin:bevel;}.cls-10,.cls-2,.cls-9{fill:#fff;}.cls-13,.cls-3,.cls-4,.cls-5,.cls-6{fill:none;}.cls-3,.cls-4,.cls-5{stroke-linecap:round;stroke-width:0.97697px;}.cls-4{stroke-dasharray:0 3.93679;}.cls-5{stroke-dasharray:0 3.94214;}.cls-11,.cls-13,.cls-6,.cls-7,.cls-8,.cls-9{stroke-miterlimit:10;}.cls-10,.cls-11,.cls-12,.cls-6,.cls-7,.cls-8,.cls-9{stroke-width:0.55017px;}.cls-7{fill:#8c9aa3;}.cls-11{fill:#ed1c24;}.cls-13{stroke-width:0.35423px;}</style></defs><g id="venda"><rect class="cls-1" x="3.13722" y="2.21965" width="180.61917" height="245.90147"/><rect class="cls-2" x="20.61618" y="18.73257" width="145.66125" height="212.87563"/><line class="cls-3" x1="166.27745" y1="231.60808" x2="166.27745" y2="231.60808"/><line class="cls-4" x1="162.34068" y1="231.60808" x2="22.58458" y2="231.60808"/><line class="cls-3" x1="20.6162" y1="231.60808" x2="20.6162" y2="231.60808"/><line class="cls-5" x1="20.6162" y1="227.66594" x2="20.6162" y2="20.70354"/><line class="cls-3" x1="20.6162" y1="18.73259" x2="20.6162" y2="18.73259"/><line class="cls-4" x1="24.55296" y1="18.73259" x2="164.30907" y2="18.73259"/><line class="cls-3" x1="166.27745" y1="18.73259" x2="166.27745" y2="18.73259"/><line class="cls-5" x1="166.27745" y1="22.67473" x2="166.27745" y2="229.63713"/><path class="cls-6" d="M73.59518,172.15263c.88107,8.9768,9.47876,11.975,17.5262,6.49244l-1.766-9.08357a10.45917,10.45917,0,0,1,7.70148-1.739l3.28564,10.82258c11.56891,0,17.00526,8.58995,20.39013,16.60656l-4.27091,1.77761c-1.739-6.95619-7.05694-12.6383-11.03529-12.17329l1.8094,16.02923c2.80026,11.8941,2.57462,15.0658,1.49615,21.03468h-5.18886c.82243-7.42973-3.05834-19.61654-5.55435-19.61654s-5.84538,12.93077-4.13462,19.61654H88.637c-2.10261-9.545-1.67809-13.48616,1.29943-21.24025l-.05726-15.07836C78.4655,187.4825,71.20563,184.088,70.25288,172.68264Z"/><path class="cls-7" d="M89.93647,200.67961c-2.97752,7.75409-3.402,11.69523-1.29943,21.24025h5.2171c-1.71076-6.68577,1.63861-19.61654,4.13462-19.61654s6.37678,12.18681,5.55435,19.61654H108.732c1.07847-5.96888,1.30411-9.14058-1.49615-21.03468l-4.9412-2.5227-1.29448,2.59138-2.96863-2.59138-3.3207,2.85719-.88029-3.43157Z"/><path class="cls-8" d="M91.12138,178.64507c-6.39973,4.35995-13.14744,3.35657-16.08546-1.75184l-4.4325,1.69859c2.6343,6.90418,10.00216,8.538,19.27579,7.00943a85.89291,85.89291,0,0,0-2.41214,19.42811C93.06089,203.63132,97.98876,196.163,91.12138,178.64507Z"/><path class="cls-8" d="M109.04185,205.02936c-.23429-8.38787-1.469-15.06171-3.61543-20.17344,3.38571-.3957,5.89515,3.85454,8.87636,10.42089l5.32386-2.48515c-4.16033-7.94177-9.33191-14.14659-19.28415-14.14659C98.46493,192.16891,101.20286,200.98022,109.04185,205.02936Z"/><path class="cls-9" d="M93.41872,175.05852c-3.10125-.53347-1.59418,3.826-5.314,2.55068,0,0,3.50723,3.8738,5.95166-.25717,0,0,2.76326,2.48907,6.2705-1.23072C96.7134,177.50292,96.7134,173.03917,93.41872,175.05852Z"/><path class="cls-9" d="M72.48163,175.90872a1.341,1.341,0,0,1,1.34265-2.26649l1.851-1.53158.55817.4367-1.90485,2.70646.21152.65491"/><path class="cls-10" d="M70.97117,172.983a2.60333,2.60333,0,0,1,2.68036-.34727c-.82857-2.342.45514-2.69609,1.61451-2.6117l.04944-.9892a2.48353,2.48353,0,0,0-3.04692,3.32813l-.79645.12632-1.70838-3.56189-.94483.56518,1.7255,3.41458-2.57952-2.37607-.52762.81692,2.58467,2.44667-2.53588-.93128-.15363.53772,3.15113,1.62709.25221.8805"/><path class="cls-8" d="M88.77165,169.793a35.21678,35.21678,0,0,0-2.70757-8.9703c.73914-2.46669,7.51072-3.83805,9.44357-2.18371a47.01716,47.01716,0,0,0,2.20558,9.135C92.52924,167.5645,89.19029,169.21861,88.77165,169.793Z"/><path class="cls-8" d="M88.14393,166.814c.75967-1.124,5.64515-2.67248,8.64656-1.99938"/><path class="cls-8" d="M89.62937,170.97085c-2.92309.44415-5.684-2.11505,3.226-4.16766s6.82764,2.25827,4.53183,2.1074l-.33033-1.0881c-4.465-.18046-7.3409,1.24425-7.70148,1.739Z"/><polyline class="cls-6" points="93.831 198.362 94.711 201.22 98.032 198.362 101 200.954 102.295 198.362"/><polygon class="cls-11" points="92.836 182.618 92.761 185.447 95.978 183.663 100.381 184.477 99.675 181.087 92.836 182.618"/><path class="cls-6" d="M93.26761,204.56092s3.42989-5.14734,10.47363,0"/><path class="cls-7" d="M97.83221,194.95129c-.48494.34272-.32939.75759,0,.62584S98.11476,194.75159,97.83221,194.95129Z"/><path class="cls-7" d="M97.37413,190.93944c-.48493.34272-.32939.7576,0,.62584S97.65669,190.73975,97.37413,190.93944Z"/><path class="cls-7" d="M96.91606,186.9276c-.48493.34272-.32939.75759,0,.62584S97.19862,186.7279,96.91606,186.9276Z"/><path class="cls-6" d="M125.11056,221.91986l-8.0586-19.64664c-1.8103-3.87406,2.09573-6.21152,4.0293-2.48213l-.63475.60974c-1.50382-2.56722-3.51973-1.23183-2.46171,1.19858L126.026,220.993Z"/><path class="cls-10" d="M76.23346,169.93645c-1.88114-.45183-1.6026,2.17851-.44376,2.26371S77.72911,170.2957,76.23346,169.93645Z"/><path class="cls-12" d="M90.87858,221.91987a2.59484,2.59484,0,0,0-2.73465-2.38122s-2.73376,2.38122-4.79433,2.38122C85.12582,223.45566,87.319,224.11838,90.87858,221.91987Z"/><path class="cls-12" d="M93.49391,220.3865a2.03061,2.03061,0,0,0-1.60526,1.53337s.35911.60644,2.094.60644A5.07929,5.07929,0,0,0,93.49391,220.3865Z"/><path class="cls-12" d="M106.42935,221.91987a2.59485,2.59485,0,0,1,2.73466-2.38122s2.73375,2.38122,4.79432,2.38122C112.18211,223.45566,109.98894,224.11838,106.42935,221.91987Z"/><path class="cls-12" d="M103.64622,220.3865a2.03061,2.03061,0,0,1,1.60526,1.53337s-.35911.60644-2.094.60644A5.07919,5.07919,0,0,1,103.64622,220.3865Z"/><line class="cls-13" x1="59.26251" y1="146.93617" x2="86.63914" y2="146.93617"/><line class="cls-13" x1="99.99916" y1="146.93617" x2="127.37579" y2="146.93617"/><rect class="cls-13" x="90.87512" y="145.05421" width="3.76392" height="3.76392" transform="translate(-76.73164 108.62577) rotate(-45)"/></g></svg>