<?xml version="1.0" encoding="UTF-8"?>
<svg id="dinheiro-mao" xmlns="http://www.w3.org/2000/svg" width="300" height="400" viewBox="0 0 300 400">
  <defs>
    <style>
      .cls-1 {
        fill: #c0bec3;
      }

      .cls-1, .cls-2, .cls-3, .cls-4, .cls-5, .cls-6, .cls-7, .cls-8 {
        stroke-width: 2px;
      }

      .cls-1, .cls-2, .cls-3, .cls-4, .cls-5, .cls-6, .cls-7, .cls-8, .cls-9 {
        stroke: #000;
      }

      .cls-1, .cls-9 {
        stroke-linejoin: bevel;
      }

      .cls-10 {
        fill: #f5eae6;
      }

      .cls-10, .cls-11, .cls-12, .cls-13, .cls-14 {
        stroke-width: 0px;
      }

      .cls-2, .cls-4, .cls-6, .cls-8 {
        stroke-miterlimit: 10;
      }

      .cls-2, .cls-14, .cls-9 {
        fill: #fff;
      }

      .cls-3, .cls-4, .cls-5, .cls-7 {
        fill: none;
      }

      .cls-3, .cls-5, .cls-7 {
        stroke-linecap: round;
        stroke-linejoin: round;
      }

      .cls-11 {
        fill: #000;
      }

      .cls-5 {
        stroke-dasharray: 0 0 0 7.25;
      }

      .cls-6, .cls-12 {
        fill: #fab8a0;
      }

      .cls-7 {
        stroke-dasharray: 0 0 0 7.3;
      }

      .cls-13 {
        fill: #9dbad6;
      }

      .cls-8 {
        fill: #6a97c1;
      }
		
				
	
#dedo{opacity:1;animation:dedo 1s infinite forwards;animation-delay:0s;-webkit-animation-delay:0s; transform-origin: 112.21px 155.94px}
@keyframes dedo{
    0%{opacity:1;transform:translateY(0px)scaleY(1)rotate(3deg)}
    50%{opacity:1;transform:translateY(0px)scaleY(1)rotate(-3deg)}
    100%{opacity:1;transform:translateY(0px)scaleY(1)rotate(3deg)}
}
		
		
    </style>
  </defs>
  <g>
    <rect class="cls-9" x="6.63" y="4.81" width="286.74" height="390.38"/>
    <g>
      <rect class="cls-10" x="29.47" y="25.78" width="239.25" height="350.38"/>
      <g>
        <line class="cls-3" x1="268.72" y1="376.15" x2="268.72" y2="376.15"/>
        <line class="cls-5" x1="261.47" y1="376.15" x2="33.1" y2="376.15"/>
        <line class="cls-3" x1="29.47" y1="376.15" x2="29.47" y2="376.15"/>
        <line class="cls-7" x1="29.47" y1="368.85" x2="29.47" y2="29.42"/>
        <line class="cls-3" x1="29.47" y1="25.78" x2="29.47" y2="25.78"/>
        <line class="cls-5" x1="36.72" y1="25.78" x2="265.1" y2="25.78"/>
        <line class="cls-3" x1="268.72" y1="25.78" x2="268.72" y2="25.78"/>
        <line class="cls-7" x1="268.72" y1="33.07" x2="268.72" y2="372.5"/>
      </g>
    </g>
    <g>
      <path class="cls-11" d="M79.47,294.68h-4.27v-17.77h4.27v17.77Z"/>
      <path class="cls-11" d="M97.3,294.68h-4.26l-6.3-11.06v11.06h-4.28v-17.77h4.28l6.29,11.06v-11.06h4.27v17.77Z"/>
      <path class="cls-11" d="M114.39,288.66c-.06,1.24-.39,2.33-1,3.28s-1.47,1.68-2.57,2.2c-1.1.52-2.36.78-3.78.78-2.34,0-4.17-.76-5.52-2.28-1.34-1.52-2.01-3.67-2.01-6.45v-.88c0-1.74.3-3.26.91-4.57.61-1.31,1.48-2.31,2.62-3.03,1.14-.71,2.46-1.07,3.96-1.07,2.16,0,3.89.57,5.2,1.7,1.31,1.14,2.05,2.7,2.23,4.69h-4.27c-.03-1.08-.3-1.86-.82-2.33s-1.29-.71-2.34-.71-1.85.4-2.34,1.2-.76,2.07-.78,3.82v1.26c0,1.9.24,3.25.71,4.06.48.81,1.3,1.22,2.46,1.22.98,0,1.74-.23,2.26-.7.52-.46.8-1.2.83-2.21h4.26Z"/>
      <path class="cls-11" d="M127.43,287.13h-6.74v4.25h7.96v3.3h-12.24v-17.77h12.27v3.31h-7.98v3.75h6.74v3.17Z"/>
      <path class="cls-11" d="M145.24,294.68h-4.26l-6.3-11.06v11.06h-4.28v-17.77h4.28l6.29,11.06v-11.06h4.27v17.77Z"/>
      <path class="cls-11" d="M161.55,280.21h-5.33v14.46h-4.29v-14.46h-5.24v-3.31h14.86v3.31Z"/>
      <path class="cls-11" d="M167.93,294.68h-4.27v-17.77h4.27v17.77Z"/>
      <path class="cls-11" d="M177.8,289.84l3.54-12.94h4.79l-5.98,17.77h-4.69l-5.93-17.77h4.75l3.53,12.94Z"/>
      <path class="cls-11" d="M202.31,286.16c0,1.73-.32,3.27-.96,4.6-.64,1.33-1.56,2.36-2.74,3.08-1.18.72-2.53,1.08-4.05,1.08s-2.86-.35-4.03-1.04c-1.17-.7-2.09-1.69-2.74-2.98-.66-1.29-1-2.78-1.03-4.46v-1c0-1.74.32-3.28.96-4.61.64-1.33,1.55-2.36,2.75-3.08,1.19-.72,2.55-1.09,4.07-1.09s2.85.36,4.03,1.07,2.1,1.74,2.75,3.06c.65,1.32.99,2.84,1,4.55v.82ZM197.95,285.41c0-1.77-.29-3.11-.88-4.02-.59-.92-1.43-1.37-2.53-1.37-2.15,0-3.28,1.61-3.41,4.83v1.31c-.01,1.74.28,3.08.85,4.02.58.94,1.44,1.4,2.58,1.4s1.92-.46,2.5-1.38c.59-.92.88-2.24.89-3.97v-.82Z"/>
      <path class="cls-11" d="M220.84,291.36h-5.87l-1.03,3.32h-4.58l6.52-17.77h4.03l6.57,17.77h-4.6l-1.04-3.32ZM219.9,275.97h-3.34s-3.44-3.83-3.44-3.83h4.35l2.44,3.83ZM216,288.05h3.82l-1.92-6.16-1.9,6.16Z"/>
      <path class="cls-11" d="M69.76,315.66c-.06,1.24-.39,2.33-1,3.28s-1.47,1.68-2.57,2.2c-1.1.52-2.36.78-3.78.78-2.34,0-4.17-.76-5.52-2.28-1.34-1.52-2.01-3.67-2.01-6.45v-.88c0-1.74.3-3.26.91-4.57.61-1.31,1.48-2.31,2.62-3.03,1.14-.71,2.46-1.07,3.96-1.07,2.16,0,3.89.57,5.2,1.7,1.31,1.14,2.05,2.7,2.23,4.69h-4.27c-.03-1.08-.3-1.86-.82-2.33s-1.29-.71-2.34-.71-1.85.4-2.34,1.2-.76,2.07-.78,3.82v1.26c0,1.9.24,3.25.71,4.06.48.81,1.3,1.22,2.46,1.22.98,0,1.74-.23,2.26-.7.52-.46.8-1.2.83-2.21h4.26Z"/>
      <path class="cls-11" d="M81.88,318.36h-5.87l-1.03,3.32h-4.58l6.52-17.77h4.03l6.57,17.77h-4.6l-1.04-3.32ZM77.03,315.05h3.82l-1.92-6.16-1.9,6.16Z"/>
      <path class="cls-11" d="M93.1,315.65v6.03h-4.28v-17.77h7.09c1.36,0,2.56.25,3.61.75,1.05.5,1.86,1.21,2.43,2.14.57.92.86,1.97.86,3.14,0,1.73-.62,3.12-1.86,4.16-1.24,1.04-2.94,1.56-5.11,1.56h-2.73ZM93.1,312.34h2.81c.83,0,1.46-.21,1.9-.62s.65-1,.65-1.76c0-.83-.22-1.49-.67-1.99-.45-.5-1.06-.75-1.83-.76h-2.86v5.13Z"/>
      <path class="cls-11" d="M109.65,321.68h-4.27v-17.77h4.27v17.77Z"/>
      <path class="cls-11" d="M126.23,307.21h-5.33v14.46h-4.29v-14.46h-5.24v-3.31h14.86v3.31Z"/>
      <path class="cls-11" d="M136.66,318.36h-5.87l-1.03,3.32h-4.58l6.52-17.77h4.03l6.57,17.77h-4.6l-1.04-3.32ZM131.82,315.05h3.82l-1.92-6.16-1.9,6.16Z"/>
      <path class="cls-11" d="M147.88,318.38h7.46v3.3h-11.74v-17.77h4.28v14.48Z"/>
      <path class="cls-11" d="M161.71,321.68h-4.27v-17.77h4.27v17.77Z"/>
      <path class="cls-11" d="M169.5,318.38h8.5v3.3h-13.84v-2.26l8.47-12.21h-8.52v-3.31h13.81v2.2l-8.41,12.28Z"/>
      <path class="cls-11" d="M190.19,318.36h-5.87l-1.03,3.32h-4.58l6.52-17.77h4.03l6.57,17.77h-4.6l-1.04-3.32ZM185.35,315.05h3.82l-1.92-6.16-1.9,6.16Z"/>
      <path class="cls-11" d="M211.25,315.66c-.06,1.24-.39,2.33-1,3.28s-1.47,1.68-2.57,2.2c-1.1.52-2.36.78-3.78.78-2.34,0-4.17-.76-5.52-2.28-1.34-1.52-2.01-3.67-2.01-6.45v-.88c0-1.74.3-3.26.91-4.57.61-1.31,1.48-2.31,2.62-3.03,1.14-.71,2.46-1.07,3.96-1.07,2.16,0,3.89.57,5.2,1.7,1.31,1.14,2.05,2.7,2.23,4.69h-4.27c-.03-1.08-.3-1.86-.82-2.33s-1.29-.71-2.34-.71-1.85.4-2.34,1.2-.76,2.07-.78,3.82v1.26c0,1.9.24,3.25.71,4.06.48.81,1.3,1.22,2.46,1.22.98,0,1.74-.23,2.26-.7.52-.46.8-1.2.83-2.21h4.26ZM205.51,321.56l-.12.75c1.22.23,1.83.93,1.83,2.11,0,.94-.4,1.68-1.21,2.22-.81.54-1.92.81-3.36.81l-.09-2.27c.72,0,1.07-.31,1.07-.94,0-.31-.13-.52-.38-.65-.26-.12-.67-.2-1.25-.24l.38-1.78h3.12Z"/>
      <path class="cls-11" d="M223.37,318.36h-5.87l-1.03,3.32h-4.58l6.52-17.77h4.03l6.57,17.77h-4.6l-1.04-3.32ZM225.18,299.25c0,.93-.27,1.71-.81,2.36-.54.65-1.21.97-2.01.97-.54,0-1.14-.17-1.79-.51-.66-.34-1.19-.51-1.6-.51-.26,0-.48.09-.67.27-.18.18-.27.46-.27.83l-2.28-.12c0-.9.27-1.68.81-2.34s1.21-.99,2-.99c.41,0,.94.15,1.6.45.66.3,1.08.47,1.25.51.17.04.36.06.55.06.26,0,.48-.09.67-.27.19-.18.28-.46.28-.84l2.27.13ZM218.52,315.05h3.82l-1.92-6.16-1.9,6.16Z"/>
      <path class="cls-11" d="M245.1,313.16c0,1.73-.32,3.27-.96,4.6-.64,1.33-1.56,2.36-2.74,3.08-1.18.72-2.53,1.08-4.05,1.08s-2.86-.35-4.03-1.04c-1.17-.7-2.09-1.69-2.74-2.98-.66-1.29-1-2.78-1.03-4.46v-1c0-1.74.32-3.28.96-4.61.64-1.33,1.55-2.36,2.75-3.08,1.19-.72,2.55-1.09,4.07-1.09s2.85.36,4.03,1.07,2.1,1.74,2.75,3.06c.65,1.32.99,2.84,1,4.55v.82ZM240.74,312.41c0-1.77-.29-3.11-.88-4.02-.59-.92-1.43-1.37-2.53-1.37-2.15,0-3.28,1.61-3.41,4.83v1.31c-.01,1.74.28,3.08.85,4.02.58.94,1.44,1.4,2.58,1.4s1.92-.46,2.5-1.38c.59-.92.88-2.24.89-3.97v-.82Z"/>
    </g>
  </g>
  <g id="dinheiro-mao-2" data-name="dinheiro-mao">
    <g>
      <g>
        <path class="cls-6" d="M90.36,195.4l5.19-.44c18.06-1.76,20.85,8.6,60.03,4.31l40-8.12c4.22.3,4.97-7.7.82-7.98l-34.83.76.34-2.99,49.12-1.84c6.3.08,7.4-9.52,1.36-9.38l-46.76,2.21v-1.48l54.57-4.37c6.5-.39,5.26-10.81-1.09-10.48l-53.04,4.37-.65-2.12,44.53-7.43c5.36-.99,3.83-10.37-1.53-9.39l-70.5,8.51-36.76,8.31h-10.78"/>
        <polyline class="cls-2" points="83.69 154.69 93.24 154.69 93.24 197.91 83.69 197.91"/>
        <polyline class="cls-1" points="71.86 149.38 88.56 149.38 88.56 203.22 71.86 203.22"/>
        <path class="cls-4" d="M129.38,178.62c15.13,1.12,34-7.09,39.68-20.57"/>
        <path class="cls-4" d="M162.69,149.57s8.12,24.28-4.64,47.87"/>
      </g>
      <g id="nota">
        <g>
          <rect class="cls-8" x="127.94" y="137.69" width="94.18" height="54.84" transform="translate(-39.99 273.12) rotate(-70)"/>
          <path class="cls-14" d="M173.86,121.5l-.85,2.32c.69.22,1.26.23,1.73.01.47-.22.83-.68,1.09-1.4.18-.49.27-.95.26-1.4l1.77.36c-.08.62-.22,1.24-.45,1.85-.44,1.22-1.12,2.06-2.03,2.53-.91.47-1.96.51-3.14.13l-.43,1.17-1.06-.38.43-1.17-.86-.31-.43,1.17-1.05-.38.43-1.19c-1.14-.5-1.9-1.24-2.27-2.21-.38-.97-.35-2.06.09-3.27.18-.48.45-1,.81-1.56l1.59.86c-.31.38-.54.78-.69,1.2-.48,1.31-.07,2.27,1.22,2.88l.84-2.31,1.05.38-.85,2.32.86.31.85-2.32,1.06.38Z"/>
          <path class="cls-13" d="M182.88,198.98l23.5-64.55-25.71-9.36c-2.08,5.35-8.04,8.1-13.47,6.17l-23.5,64.55,25.71,9.36c2.08-5.35,8.04-8.1,13.47-6.17Z"/>
        </g>
        <path class="cls-14" d="M179.3,203.52l-.85,2.32.86.31.85-2.32,1.05.38-.84,2.31c1.38.36,2.31-.11,2.79-1.42.15-.42.23-.88.24-1.36l1.78.36c-.08.66-.2,1.23-.38,1.72-.44,1.21-1.12,2.07-2.03,2.57-.91.5-1.97.57-3.16.23l-.43,1.19-1.05-.38.43-1.17-.86-.31-.43,1.17-1.06-.38.43-1.17c-1.15-.46-1.93-1.16-2.32-2.11-.4-.95-.37-2.03.07-3.25.22-.61.5-1.18.85-1.7l1.59.86c-.29.34-.52.75-.7,1.24-.26.72-.28,1.31-.06,1.77.22.47.66.83,1.34,1.1l.85-2.32,1.06.38Z"/>
      </g>
    </g>
    <g id="dedo">
      <circle class="cls-12" cx="112.21" cy="155.94" r="5.21"/>
      <g id="aaa">
        <path class="cls-6" d="M134.27,177.73c19.59.24,25.86-23.06,15.29-30.25"/>
        <path class="cls-6" d="M101.03,158.56c23.67-22.25,66.52-33.11,94.56-13.31,0,0,1.82,8.4-7.07,7.2-25.8-3.49-39.33,4.75-39.33,4.75"/>
      </g>
    </g>
  </g>
</svg>