<?xml version="1.0" encoding="UTF-8"?>
<svg id="envelope" xmlns="http://www.w3.org/2000/svg" width="300" height="400" viewBox="0 0 300 400">
  <defs>
    <style>
      .cls-1 {
        fill: #f5eae6;
      }

      .cls-1, .cls-2, .cls-3, .cls-4, .cls-5, .cls-6 {
        stroke-width: 0px;
      }

      .cls-2, .cls-7, .cls-8, .cls-9 {
        fill: none;
      }

      .cls-7, .cls-10, .cls-8, .cls-9, .cls-11 {
        stroke-width: 2px;
      }

      .cls-7, .cls-10, .cls-8, .cls-9, .cls-11, .cls-12 {
        stroke: #000;
      }

      .cls-7, .cls-8, .cls-9 {
        stroke-linecap: round;
        stroke-linejoin: round;
      }

      .cls-3 {
        fill: #000;
      }

      .cls-10 {
        fill: #6a97c1;
      }

      .cls-10, .cls-11, .cls-12 {
        stroke-linejoin: bevel;
      }

      .cls-8 {
        stroke-dasharray: 0 0 0 7.25;
      }

      .cls-9 {
        stroke-dasharray: 0 0 0 7.3;
      }

      .cls-4 {
        fill: #e66f4f;
      }

      .cls-11 {
        fill: #9dbad6;
      }

      .cls-5, .cls-12 {
        fill: #fff;
      }

      .cls-6 {
        fill: #c0bec3;
      }
		
				
#carta{opacity:1;animation:carta 6s infinite forwards;animation-delay:0s;-webkit-animation-delay:0s; transform-origin: 145.81px 155.21px}
@keyframes carta{
    0%{opacity:1;transform:translateY(0px)scaleY(-1)}
    10%{opacity:1;transform:translateY(0px)scaleY(1)}
    90%{opacity:1;transform:translateY(0px)scaleY(1)}
    100%{opacity:1;transform:translateY(-1px)scaleY(-1)}
}

		#taxa{opacity:1;animation:taxa 6s infinite forwards;animation-delay:0s;-webkit-animation-delay:0s; transform-origin: 145.81px 185.21px}
@keyframes taxa{
    0%{opacity:1;transform:translateY(0px)scaleY(0)}
    10%{opacity:1;transform:translateY(0px)scaleY(0)}
    20%{opacity:1;transform:translateY(-1px)scaleY(1)}
    80%{opacity:1;transform:translateY(-1px)scaleY(1)}
    90%{opacity:1;transform:translateY(-1px)scaleY(0)}
    100%{opacity:1;transform:translateY(-1px)scaleY(0)}
}

    </style>
  </defs>
  <g>
    <rect class="cls-12" x="6.63" y="4.81" width="286.74" height="390.38"/>
    <g>
      <rect class="cls-1" x="29.47" y="25.78" width="239.25" height="350.38"/>
      <g>
        <line class="cls-7" x1="268.72" y1="376.15" x2="268.72" y2="376.15"/>
        <line class="cls-8" x1="261.47" y1="376.15" x2="33.1" y2="376.15"/>
        <line class="cls-7" x1="29.47" y1="376.15" x2="29.47" y2="376.15"/>
        <line class="cls-9" x1="29.47" y1="368.85" x2="29.47" y2="29.42"/>
        <line class="cls-7" x1="29.47" y1="25.78" x2="29.47" y2="25.78"/>
        <line class="cls-8" x1="36.72" y1="25.78" x2="265.1" y2="25.78"/>
        <line class="cls-7" x1="268.72" y1="25.78" x2="268.72" y2="25.78"/>
        <line class="cls-9" x1="268.72" y1="33.07" x2="268.72" y2="372.5"/>
      </g>
    </g>
    <g>
      <path class="cls-3" d="M112.56,274.77h-2.32v6.29h-4.28v-17.77h7c2.11,0,3.75.47,4.94,1.4s1.78,2.26,1.78,3.96c0,1.24-.25,2.26-.75,3.07-.5.81-1.28,1.47-2.35,1.98l3.71,7.18v.18h-4.59l-3.14-6.29ZM110.23,271.48h2.71c.81,0,1.43-.21,1.84-.64.41-.43.62-1.03.62-1.79s-.21-1.37-.62-1.8c-.41-.44-1.03-.66-1.83-.66h-2.71v4.9Z"/>
      <path class="cls-3" d="M133.28,273.52h-6.74v4.25h7.96v3.3h-12.24v-17.77h12.27v3.31h-7.98v3.75h6.74v3.17Z"/>
      <path class="cls-3" d="M150.8,278.86c-.66.73-1.62,1.32-2.89,1.77-1.27.45-2.66.67-4.17.67-2.33,0-4.19-.71-5.58-2.14-1.39-1.42-2.14-3.41-2.23-5.94v-1.54c-.01-1.75.3-3.28.92-4.58.62-1.31,1.5-2.31,2.66-3.01,1.15-.7,2.48-1.06,4-1.06,2.21,0,3.93.51,5.16,1.52,1.22,1.01,1.94,2.52,2.14,4.54h-4.12c-.15-.99-.46-1.7-.95-2.12-.49-.42-1.18-.63-2.07-.63-1.07,0-1.9.46-2.49,1.37-.59.91-.88,2.21-.89,3.91v1.07c0,1.77.3,3.11.91,4,.61.89,1.56,1.34,2.86,1.34,1.11,0,1.94-.25,2.49-.75v-2.76h-2.98v-2.94h7.26v7.3Z"/>
      <path class="cls-3" d="M157.86,281.06h-4.27v-17.77h4.27v17.77Z"/>
      <path class="cls-3" d="M166.46,263.29l3.97,12.37,3.96-12.37h5.64v17.77h-4.3v-4.15l.42-8.5-4.3,12.65h-2.83l-4.31-12.66.41,8.51v4.15h-4.28v-17.77h5.63Z"/>
      <path class="cls-3" d="M193.77,273.52h-6.74v4.25h7.96v3.3h-12.24v-17.77h12.27v3.31h-7.98v3.75h6.74v3.17Z"/>
      <path class="cls-3" d="M75.24,303.34c0-.63-.22-1.11-.67-1.46-.44-.35-1.22-.71-2.34-1.09-1.12-.37-2.03-.74-2.73-1.09-2.3-1.13-3.46-2.69-3.46-4.66,0-.98.29-1.85.86-2.61.57-.75,1.39-1.34,2.44-1.76s2.23-.63,3.54-.63,2.42.23,3.44.68c1.01.46,1.8,1.1,2.36,1.95.56.84.84,1.8.84,2.89h-4.27c0-.72-.22-1.29-.67-1.68-.44-.4-1.04-.6-1.8-.6s-1.37.17-1.81.51c-.44.34-.67.77-.67,1.29,0,.46.24.87.73,1.24s1.35.75,2.58,1.15,2.24.82,3.03,1.28c1.92,1.11,2.88,2.63,2.88,4.58,0,1.55-.59,2.77-1.76,3.66-1.17.89-2.78,1.33-4.82,1.33-1.44,0-2.74-.26-3.91-.78-1.17-.52-2.05-1.22-2.64-2.12-.59-.9-.88-1.93-.88-3.11h4.3c0,.95.25,1.65.74,2.11.49.45,1.29.68,2.4.68.71,0,1.27-.15,1.68-.46.41-.3.62-.73.62-1.29Z"/>
      <path class="cls-3" d="M86.28,308.06h-4.27v-17.77h4.27v17.77Z"/>
      <path class="cls-3" d="M94.89,290.29l3.97,12.37,3.96-12.37h5.64v17.77h-4.3v-4.15l.42-8.5-4.3,12.65h-2.83l-4.31-12.66.41,8.51v4.15h-4.28v-17.77h5.63Z"/>
      <path class="cls-3" d="M115.46,302.03v6.03h-4.28v-17.77h7.09c1.36,0,2.56.25,3.61.75,1.05.5,1.86,1.21,2.43,2.14.57.92.86,1.97.86,3.14,0,1.73-.62,3.12-1.86,4.16-1.24,1.04-2.94,1.56-5.11,1.56h-2.73ZM115.46,298.72h2.81c.83,0,1.46-.21,1.9-.62s.65-1,.65-1.76c0-.83-.22-1.49-.67-1.99-.45-.5-1.06-.75-1.83-.76h-2.86v5.13Z"/>
      <path class="cls-3" d="M131.73,304.76h7.46v3.3h-11.74v-17.77h4.28v14.48Z"/>
      <path class="cls-3" d="M145.56,308.06h-4.27v-17.77h4.27v17.77Z"/>
      <path class="cls-3" d="M159.73,300.98h-6.91v7.08h-4.28v-17.77h11.89v3.31h-7.61v4.09h6.91v3.3Z"/>
      <path class="cls-3" d="M166.78,308.06h-4.27v-17.77h4.27v17.77Z"/>
      <path class="cls-3" d="M184.14,302.04c-.06,1.24-.39,2.33-1,3.28s-1.47,1.68-2.57,2.2c-1.1.52-2.36.78-3.78.78-2.34,0-4.17-.76-5.52-2.28-1.34-1.52-2.01-3.67-2.01-6.45v-.88c0-1.74.3-3.26.91-4.57.61-1.31,1.48-2.31,2.62-3.03,1.14-.71,2.46-1.07,3.96-1.07,2.16,0,3.89.57,5.2,1.7,1.31,1.14,2.05,2.7,2.23,4.69h-4.27c-.03-1.08-.3-1.86-.82-2.33s-1.29-.71-2.34-.71-1.85.4-2.34,1.2-.76,2.07-.78,3.82v1.26c0,1.9.24,3.25.71,4.06.48.81,1.3,1.22,2.46,1.22.98,0,1.74-.23,2.26-.7.52-.46.8-1.2.83-2.21h4.26Z"/>
      <path class="cls-3" d="M196.26,304.74h-5.87l-1.03,3.32h-4.58l6.52-17.77h4.03l6.57,17.77h-4.6l-1.04-3.32ZM191.41,301.43h3.82l-1.92-6.16-1.9,6.16Z"/>
      <path class="cls-3" d="M203.19,308.06v-17.77h5.73c1.57,0,2.98.36,4.24,1.07s2.23,1.72,2.94,3.01c.7,1.3,1.06,2.75,1.07,4.36v.82c0,1.63-.34,3.09-1.03,4.38-.69,1.29-1.66,2.3-2.91,3.03-1.25.73-2.64,1.1-4.18,1.1h-5.85ZM207.48,293.6v11.17h1.49c1.23,0,2.17-.44,2.83-1.31.66-.87.99-2.17.99-3.9v-.77c0-1.72-.33-3.01-.99-3.88-.66-.87-1.62-1.31-2.88-1.31h-1.44Z"/>
      <path class="cls-3" d="M234.41,299.54c0,1.73-.32,3.27-.96,4.6-.64,1.33-1.56,2.36-2.74,3.08-1.18.72-2.53,1.08-4.05,1.08s-2.86-.35-4.03-1.04c-1.17-.7-2.09-1.69-2.74-2.98-.66-1.29-1-2.78-1.03-4.46v-1c0-1.74.32-3.28.96-4.61.64-1.33,1.55-2.36,2.75-3.08,1.19-.72,2.55-1.09,4.07-1.09s2.85.36,4.03,1.07,2.1,1.74,2.75,3.06c.65,1.32.99,2.84,1,4.55v.82ZM230.05,298.79c0-1.77-.29-3.11-.88-4.02-.59-.92-1.43-1.37-2.53-1.37-2.15,0-3.28,1.61-3.41,4.83v1.31c-.01,1.74.28,3.08.85,4.02.58.94,1.44,1.4,2.58,1.4s1.92-.46,2.5-1.38c.59-.92.88-2.24.89-3.97v-.82Z"/>
      <path class="cls-3" d="M113.02,335.06v-17.77h5.73c1.57,0,2.98.36,4.24,1.07s2.23,1.72,2.94,3.01c.7,1.3,1.06,2.75,1.07,4.36v.82c0,1.63-.34,3.09-1.03,4.38-.69,1.29-1.66,2.3-2.91,3.03-1.25.73-2.64,1.1-4.18,1.1h-5.85ZM117.31,320.6v11.17h1.49c1.23,0,2.17-.44,2.83-1.31.66-.87.99-2.17.99-3.9v-.77c0-1.72-.33-3.01-.99-3.88-.66-.87-1.62-1.31-2.88-1.31h-1.44Z"/>
      <path class="cls-3" d="M140.21,327.52h-6.74v4.25h7.96v3.3h-12.24v-17.77h12.27v3.31h-7.98v3.75h6.74v3.17Z"/>
      <path class="cls-3" d="M153.97,335.06h-4.27v-17.77h4.27v17.77Z"/>
      <path class="cls-3" d="M163.55,328.77h-2.32v6.29h-4.28v-17.77h7c2.11,0,3.75.47,4.94,1.4s1.78,2.26,1.78,3.96c0,1.24-.25,2.26-.75,3.07-.5.81-1.28,1.47-2.35,1.98l3.71,7.18v.18h-4.59l-3.14-6.29ZM161.23,325.48h2.71c.81,0,1.43-.21,1.84-.64.41-.43.62-1.03.62-1.79s-.21-1.37-.62-1.8c-.41-.44-1.03-.66-1.83-.66h-2.71v4.9Z"/>
      <path class="cls-3" d="M187.63,329.04c-.06,1.24-.39,2.33-1,3.28s-1.47,1.68-2.57,2.2c-1.1.52-2.36.78-3.78.78-2.34,0-4.17-.76-5.52-2.28-1.34-1.52-2.01-3.67-2.01-6.45v-.88c0-1.74.3-3.26.91-4.57.61-1.31,1.48-2.31,2.62-3.03,1.14-.71,2.46-1.07,3.96-1.07,2.16,0,3.89.57,5.2,1.7,1.31,1.14,2.05,2.7,2.23,4.69h-4.27c-.03-1.08-.3-1.86-.82-2.33s-1.29-.71-2.34-.71-1.85.4-2.34,1.2-.76,2.07-.78,3.82v1.26c0,1.9.24,3.25.71,4.06.48.81,1.3,1.22,2.46,1.22.98,0,1.74-.23,2.26-.7.52-.46.8-1.2.83-2.21h4.26Z"/>
    </g>
  </g>
  <g id="envelope-2" data-name="envelope">
    <polyline class="cls-11" points="201.61 155.21 201.61 215.18 88.95 215.18 90.01 155.21"/>
    <g id="carta">
      <polyline class="cls-11" points="90.01 155.21 145.81 99.4 201.61 155.21"/>
      <circle class="cls-2" cx="145.81" cy="155.21" r="6.78"/>
    </g>
    <g id="taxa">
      <g>
        <rect class="cls-5" x="110.69" y="113.06" width="70.24" height="102.12"/>
        <path class="cls-3" d="M110.62,112.99l70.31-.36s.43.43.43.43l.37,102.12s-.8.8-.8.8c-8.76.08-26.36.21-35.12.22-8.75.02-26.37.04-35.12,0,0,0-1.03-1.03-1.03-1.03-.07-29.11.61-72.7.96-102.19h0ZM110.76,113.14c.44,29.49.92,72.97.96,102.05,0,0-1.03-1.03-1.03-1.03l17.56-.03c15.64,0,37.04.1,52.68.26,0,0-.8.8-.8.8,0,0,.37-102.12.37-102.12,0,0,.43.43.43.43l-70.17-.36h0Z"/>
      </g>
      <g>
        <path class="cls-4" d="M134.63,124.56h-3.55v9.63h-2.85v-9.63h-3.49v-2.2h9.89v2.2Z"/>
        <path class="cls-4" d="M141.58,131.98h-3.91l-.68,2.21h-3.05l4.34-11.83h2.68l4.37,11.83h-3.06l-.69-2.21ZM138.35,129.78h2.54l-1.28-4.11-1.27,4.11Z"/>
        <path class="cls-4" d="M150.61,126.3l1.93-3.94h3.26l-3.31,5.87,3.4,5.97h-3.29l-1.99-4.01-1.99,4.01h-3.28l3.39-5.97-3.3-5.87h3.25l1.93,3.94Z"/>
        <path class="cls-4" d="M163.54,131.98h-3.91l-.68,2.21h-3.05l4.34-11.83h2.68l4.37,11.83h-3.06l-.69-2.21ZM160.31,129.78h2.54l-1.28-4.11-1.27,4.11Z"/>
      </g>
      <rect class="cls-6" x="120.97" y="141.54" width="23.19" height="4.54"/>
      <rect class="cls-6" x="120.97" y="154.15" width="49.68" height="4.54"/>
      <rect class="cls-6" x="120.97" y="166.76" width="49.68" height="4.54"/>
    </g>
    <g>
      <polygon class="cls-10" points="172.15 184.67 201.61 155.21 201.61 215.18 90.01 215.18 90.01 155.21 119.47 184.67 172.15 184.67"/>
      <polyline class="cls-11" points="202.67 215.18 159.68 172.2 131.94 172.2 88.95 215.18"/>
    </g>
  </g>
</svg>