<svg xmlns="http://www.w3.org/2000/svg" width="300" height="400" viewBox="0 0 300 400"><defs><style>.cls-1{fill:#f5eae6;}.cls-1,.cls-3,.cls-4,.cls-5,.cls-6,.cls-7{stroke:#000;}.cls-1,.cls-3,.cls-4,.cls-5{stroke-linecap:round;stroke-linejoin:round;}.cls-2,.cls-6{fill:#fff;}.cls-3,.cls-4,.cls-5,.cls-7{fill:none;}.cls-3,.cls-4,.cls-5{stroke-width:2px;}.cls-4{stroke-dasharray:0 7.24997;}.cls-5{stroke-dasharray:0 7.29956;}.cls-6,.cls-7{stroke-miterlimit:10;}</style></defs><g id="venda"><rect class="cls-1" x="6.62962" y="4.81039" width="286.74076" height="390.37923"/><rect class="cls-2" x="29.47326" y="25.77515" width="239.2489" height="350.37879"/><line class="cls-3" x1="268.72226" y1="376.15399" x2="268.72226" y2="376.15399"/><line class="cls-4" x1="261.47226" y1="376.15399" x2="33.09824" y2="376.15399"/><line class="cls-3" x1="29.47324" y1="376.15399" x2="29.47324" y2="376.15399"/><line class="cls-5" x1="29.47324" y1="368.85443" x2="29.47324" y2="29.42499"/><line class="cls-3" x1="29.47324" y1="25.77508" x2="29.47324" y2="25.77508"/><line class="cls-4" x1="36.72324" y1="25.77508" x2="265.09726" y2="25.77508"/><line class="cls-3" x1="268.72226" y1="25.77508" x2="268.72226" y2="25.77508"/><line class="cls-5" x1="268.72226" y1="33.07464" x2="268.72226" y2="372.50409"/><path class="cls-6" d="M129.21648,329.08943c.69007,7.03065,7.42378,9.37881,13.72655,5.08489l-1.38314-7.11426a8.1916,8.1916,0,0,1,6.0318-1.362l2.57332,8.47625c9.06079,0,13.31854,6.72766,15.96958,13.00628l-3.345,1.39223c-1.362-5.4481-5.527-9.89834-8.64285-9.53414l1.41713,12.55412c2.19316,9.31547,2.01645,11.79955,1.17179,16.47438h-4.06392c.64412-5.819-2.3953-15.3637-4.35018-15.3637s-4.57811,10.1274-3.23824,15.3637h-4.086c-1.64677-7.47567-1.31428-10.56237,1.01772-16.63539l-.04485-11.80939c-8.93923,1.4734-14.62518-1.18516-15.37137-10.11787Z"/><path d="M142.015,351.4318c-2.332,6.073-2.66449,9.15972-1.01772,16.63539h4.086c-1.33987-5.2363,1.28336-15.3637,3.23824-15.3637s4.9943,9.54473,4.35018,15.3637h4.06392c.84466-4.67483,1.02137-7.15891-1.17179-16.47438l-3.87-1.97579-1.01384,2.02958-2.325-2.02958-2.60078,2.23776-.68944-2.68761Z"/><path d="M142.943,334.17432c-5.01228,3.41472-10.29709,2.62887-12.59815-1.372l-3.47154,1.33034c2.06319,5.40736,7.8337,6.68694,15.09682,5.48979a67.27218,67.27218,0,0,0-1.8892,15.21613C144.46206,353.74358,148.32157,347.8944,142.943,334.17432Z"/><path d="M156.97836,354.83854c-.18349-6.5694-1.15052-11.79636-2.83161-15.79987,2.65169-.30991,4.61709,3.01888,6.952,8.16165l4.16967-1.94637c-3.25839-6.22-7.30877-11.07963-15.10338-11.07963C148.69451,344.76622,150.83886,351.66724,156.97836,354.83854Z"/><path d="M144.7423,331.36533c-2.42889-.41781-1.24856,2.99656-4.1619,1.9977,0,0,2.74686,3.034,4.66135-.20142,0,0,2.16419,1.94945,4.91106-.9639C147.32271,333.27979,147.32271,329.78378,144.7423,331.36533Z"/><path d="M128.34435,332.03122a1.05028,1.05028,0,0,1,1.05157-1.77513l1.44971-1.19953.43716.342-1.49188,2.11971.16566.51293"/><path d="M127.16136,329.7398a2.03892,2.03892,0,0,1,2.09926-.272c-.64894-1.83423.35646-2.11159,1.26449-2.04549l.03872-.77474a1.9451,1.9451,0,0,0-2.38635,2.6066l-.62378.09893-1.338-2.78968-.74.44265,1.35141,2.6743-2.02028-1.86094-.41323.63982,2.02431,1.91623-1.9861-.72938-.12033.42114,2.468,1.27434.19754.68962"/><path d="M141.10272,327.2414a27.58213,27.58213,0,0,0-2.12057-7.02555c.57889-1.93191,5.8824-3.006,7.39621-1.71028a36.82389,36.82389,0,0,0,1.72742,7.15453C144.04567,325.496,141.4306,326.79151,141.10272,327.2414Z"/><path d="M140.61108,324.90819c.595-.88032,4.42129-2.09309,6.772-1.56592"/><path d="M141.77449,328.16386c-2.28938.34786-4.45175-1.65651,2.52659-3.26411s5.34741,1.76868,3.54933,1.65052l-.25872-.8522c-3.497-.14134-5.7494.9745-6.0318,1.362Z"/><polyline points="145.065 349.617 145.754 351.855 148.355 349.617 150.68 351.647 151.694 349.617"/><polygon points="144.286 337.286 144.227 339.502 146.747 338.105 150.195 338.742 149.642 336.087 144.286 337.286"/><path d="M144.624,354.47165s2.68629-4.0314,8.20295,0"/><path d="M148.199,346.94537c-.3798.26842-.258.59335,0,.49016S148.42025,346.789,148.199,346.94537Z"/><path d="M147.84019,343.80329c-.3798.26842-.258.59335,0,.49016S148.06149,343.64689,147.84019,343.80329Z"/><path d="M147.48143,340.66121c-.3798.26842-.258.59335,0,.49016S147.70273,340.50481,147.48143,340.66121Z"/><path d="M169.56339,368.06719l-6.3115-15.38727c-1.41783-3.03417,1.64138-4.86487,3.15575-1.944l-.49714.47754c-1.17779-2.01064-2.75665-.96477-1.928.93873l6.2979,15.18906Z"/><path d="M131.28279,327.35373c-1.47331-.35388-1.25515,1.70621-.34755,1.77293S132.45418,327.63509,131.28279,327.35373Z"/><path d="M142.75287,368.0672a2.0323,2.0323,0,0,0-2.14179-1.865s-2.14108,1.865-3.75492,1.865C138.2473,369.27,139.965,369.78907,142.75287,368.0672Z"/><path d="M144.8012,366.86626a1.59038,1.59038,0,0,0-1.25724,1.20094s.28125.475,1.64.475A3.9781,3.9781,0,0,0,144.8012,366.86626Z"/><path d="M154.93225,368.0672a2.03229,2.03229,0,0,1,2.14178-1.865s2.14108,1.865,3.75492,1.865C159.43782,369.27,157.72012,369.78907,154.93225,368.0672Z"/><path d="M152.7525,366.86626a1.59038,1.59038,0,0,1,1.25724,1.20094s-.28126.475-1.64.475A3.9781,3.9781,0,0,1,152.7525,366.86626Z"/><rect class="cls-7" x="146.01666" y="301.83948" width="6.19337" height="6.19337" transform="translate(-171.94815 194.75279) rotate(-45)"/><line class="cls-7" x1="160.5358" y1="304.93617" x2="204.57058" y2="304.93617"/><line class="cls-7" x1="95.42942" y1="304.93617" x2="139.4642" y2="304.93617"/></g></svg>