<svg xmlns="http://www.w3.org/2000/svg" width="186.6383" height="251.23404" viewBox="0 0 186.6383 251.23404"><defs><style>.cls-1{fill:#fff;stroke-width:0.75px;}.cls-1,.cls-10,.cls-11,.cls-3,.cls-4,.cls-5,.cls-7,.cls-9{stroke:#000;}.cls-1,.cls-11,.cls-3,.cls-4,.cls-5{stroke-linejoin:bevel;}.cls-2{fill:#f5eae6;}.cls-3,.cls-4,.cls-5,.cls-8,.cls-9{fill:none;}.cls-3,.cls-4,.cls-5{stroke-linecap:round;stroke-width:0.97697px;}.cls-4{stroke-dasharray:0 3.93679;}.cls-5{stroke-dasharray:0 3.94214;}.cls-6{fill:#1d1d1b;}.cls-7{fill:#fab8a0;}.cls-10,.cls-7,.cls-8,.cls-9{stroke-miterlimit:10;}.cls-8{stroke:#b7735e;}.cls-10{fill:#b7735e;}.cls-11{fill:#fff200;}</style></defs><g id="venda"><rect class="cls-1" x="3.13722" y="2.21965" width="180.61917" height="245.90147"/><rect class="cls-2" x="20.61618" y="18.73257" width="145.66125" height="212.87563"/><line class="cls-3" x1="166.27744" y1="231.60808" x2="166.27744" y2="231.60808"/><line class="cls-4" x1="162.34067" y1="231.60808" x2="22.58457" y2="231.60808"/><line class="cls-3" x1="20.61619" y1="231.60808" x2="20.61619" y2="231.60808"/><line class="cls-5" x1="20.61619" y1="227.66594" x2="20.61619" y2="20.70354"/><line class="cls-3" x1="20.61619" y1="18.73259" x2="20.61619" y2="18.73259"/><line class="cls-4" x1="24.55296" y1="18.73259" x2="164.30906" y2="18.73259"/><line class="cls-3" x1="166.27744" y1="18.73259" x2="166.27744" y2="18.73259"/><line class="cls-5" x1="166.27744" y1="22.67473" x2="166.27744" y2="229.63713"/><path class="cls-6" d="M81.30161,165.85784H77.67466v9.83593H74.7606v-9.83593H71.20005v-2.25H81.30161Z"/><path class="cls-6" d="M88.39927,173.436H84.40708l-.69726,2.25781H80.59653l4.43262-12.08593h2.73926l4.46582,12.08593H89.10435Zm-3.29492-2.25H87.702l-1.30273-4.1914Z"/><path class="cls-6" d="M97.62192,167.62542l1.97461-4.01758h3.32911L99.54771,169.601l3.46875,6.09277H99.65513L97.62192,171.602l-2.03417,4.09179H92.23423l3.46191-6.09277-3.37109-5.99316h3.32031Z"/><path class="cls-6" d="M110.828,173.436h-3.99316l-.69727,2.25781h-3.1123l4.43261-12.08593h2.73926l4.46582,12.08593H111.534Zm-3.2959-2.25h2.59863l-1.30371-4.1914Z"/><path class="cls-6" d="M57.77817,189.41838H56.20005v4.27539H53.287V181.60784H58.0438a5.31555,5.31555,0,0,1,3.36133.95312,3.22981,3.22981,0,0,1,1.21191,2.69531,3.91909,3.91909,0,0,1-.51074,2.08985,3.62129,3.62129,0,0,1-1.59766,1.34277l2.52344,4.87988v.125H59.911Zm-1.57812-2.24023H58.0438a1.65687,1.65687,0,0,0,1.249-.4375,1.68818,1.68818,0,0,0,.419-1.21875,1.70522,1.70522,0,0,0-.42383-1.22754,1.63605,1.63605,0,0,0-1.24414-.44531H56.20005Z"/><path class="cls-6" d="M71.87192,188.56389h-4.582v2.88867H72.702v2.24121H64.37681V181.60784h8.34277v2.25H67.28989v2.54785h4.582Z"/><path class="cls-6" d="M73.8895,193.69377V181.60784h3.89258a5.72445,5.72445,0,0,1,2.88086.72656,5.10659,5.10659,0,0,1,1.99609,2.0498,6.19739,6.19739,0,0,1,.72657,2.96778v.55664a6.23477,6.23477,0,0,1-.70118,2.97558,5.13383,5.13383,0,0,1-1.97558,2.0586,5.60748,5.60748,0,0,1-2.84277.751Zm2.91407-9.83593v7.59472h1.01171a2.26552,2.26552,0,0,0,1.92579-.89257,4.36393,4.36393,0,0,0,.67285-2.65137v-.52344a4.3289,4.3289,0,0,0-.67285-2.63965,2.3045,2.3045,0,0,0-1.959-.88769Z"/><path class="cls-6" d="M94.35923,181.60784V189.518a4.541,4.541,0,0,1-.57324,2.32911,3.70833,3.70833,0,0,1-1.64258,1.498,5.80078,5.80078,0,0,1-2.53223.51465,4.99961,4.99961,0,0,1-3.47754-1.14551,4.07874,4.07874,0,0,1-1.29492-3.13769v-7.96875h2.92969v8.02734q.0498,1.98341,1.84277,1.9834a1.78672,1.78672,0,0,0,1.37012-.49805,2.32981,2.32981,0,0,0,.46484-1.61816v-7.89453Z"/><path class="cls-6" d="M99.4481,191.45256h5.77734v2.24121H95.81138v-1.53515l5.76172-8.30078H95.77817v-2.25h9.38868V183.102Z"/><path class="cls-6" d="M109.64927,193.69377H106.744V181.60784h2.90527Z"/><path class="cls-6" d="M111.67466,193.69377V181.60784h3.89258a5.72448,5.72448,0,0,1,2.88086.72656,5.10665,5.10665,0,0,1,1.99609,2.0498,6.19738,6.19738,0,0,1,.72656,2.96778v.55664a6.23477,6.23477,0,0,1-.70117,2.97558,5.13383,5.13383,0,0,1-1.97558,2.0586,5.60752,5.60752,0,0,1-2.84278.751Zm2.91406-9.83593v7.59472h1.01172a2.26549,2.26549,0,0,0,1.92578-.89257,4.36386,4.36386,0,0,0,.67285-2.65137v-.52344a4.32883,4.32883,0,0,0-.67285-2.63965,2.30446,2.30446,0,0,0-1.959-.88769Z"/><path class="cls-6" d="M129.35532,191.436h-3.99316l-.69727,2.25781h-3.1123l4.43262-12.08593h2.73925l4.46582,12.08593h-3.1289Zm-3.2959-2.25h2.59864l-1.30371-4.1914Z"/><path class="cls-6" d="M67.62192,211.69377V199.60784h3.89356a5.72337,5.72337,0,0,1,2.87988.72656,5.10038,5.10038,0,0,1,1.9961,2.0498A6.17518,6.17518,0,0,1,77.118,205.352v.55664a6.22355,6.22355,0,0,1-.70117,2.97558,5.1251,5.1251,0,0,1-1.97461,2.0586,5.60846,5.60846,0,0,1-2.84375.751Zm2.91407-9.83593v7.59472h1.01269a2.26792,2.26792,0,0,0,1.92578-.89257,4.37054,4.37054,0,0,0,.67286-2.65137v-.52344a4.33546,4.33546,0,0,0-.67286-2.63965,2.30568,2.30568,0,0,0-1.959-.88769Z"/><path class="cls-6" d="M86.10825,206.56389h-4.582v2.88867h5.41211v2.24121H78.61216V199.60784h8.34277v2.25H81.52622v2.54785h4.582Z"/><path class="cls-6" d="M95.46372,211.69377H92.55747V199.60784h2.90625Z"/><path class="cls-6" d="M101.97935,207.41838H100.4022v4.27539H97.48911V199.60784H102.245a5.31176,5.31176,0,0,1,3.36133.95312,3.23052,3.23052,0,0,1,1.21289,2.69531,3.91022,3.91022,0,0,1-.51172,2.08985,3.61586,3.61586,0,0,1-1.59765,1.34277l2.52343,4.87988v.125h-3.12109Zm-1.57715-2.24023H102.245a1.65924,1.65924,0,0,0,1.25-.4375,1.68776,1.68776,0,0,0,.418-1.21875,1.709,1.709,0,0,0-.42285-1.22754,1.63839,1.63839,0,0,0-1.24512-.44531H100.4022Z"/><path class="cls-6" d="M118.3563,207.602a4.41589,4.41589,0,0,1-.67969,2.22851,4.11764,4.11764,0,0,1-1.748,1.49805,5.93968,5.93968,0,0,1-2.56836.53125,4.743,4.743,0,0,1-3.752-1.55273,6.40191,6.40191,0,0,1-1.37011-4.38282v-.59765a7.32061,7.32061,0,0,1,.61816-3.1084,4.68562,4.68562,0,0,1,1.78125-2.05859,4.96431,4.96431,0,0,1,2.68945-.72559,5.20936,5.20936,0,0,1,3.53516,1.15723,4.57179,4.57179,0,0,1,1.51953,3.19238h-2.90527a2.17121,2.17121,0,0,0-.55567-1.58594,2.28908,2.28908,0,0,0-1.59375-.48144,1.73966,1.73966,0,0,0-1.59375.81347,5.21188,5.21188,0,0,0-.53125,2.59766v.85547a5.80268,5.80268,0,0,0,.48438,2.76367,1.77826,1.77826,0,0,0,1.67383.83008,2.23585,2.23585,0,0,0,1.53515-.47266,2.008,2.008,0,0,0,.56446-1.50195Z"/><path class="cls-7" d="M120.19393,81.362C96.4007,59.78609,74.84405,87.638,61.05528,69.9669c-2.16447,2.22074-6.80878,11.3016,1.47836,16.90858"/><path class="cls-8" d="M62.05528,69.9669c-2.16447,2.22074-6.80878,11.3016,1.47836,16.90858"/><path class="cls-7" d="M120.19393,134.94057H106.30672c-2.07243-8.33989-7.77533-12.68341-13.41962-12.39356h16.684"/><path class="cls-8" d="M108.30672,134.94057c-2.07243-8.33989-7.77533-12.68341-13.41962-12.39356"/><path class="cls-7" d="M58.384,111.82814a38.81833,38.81833,0,0,0,3.60348,8.25388c2.76068,4.96276.26165,14.85855.26165,14.85855h18.2618"/><path class="cls-8" d="M63.98746,120.082c2.76068,4.96276.26165,14.85855.26165,14.85855"/><path class="cls-7" d="M80.51091,134.94057c4.88821-17.25846,25.038-15.81153,28.96711,0h10.71591s23.79323-32.0027,0-53.57859-41.562,5.51349-55.35079-12.15749c0,0-7.79433,9.18891-2.30949,17.671,0,0-2.41407,7.06839-5.17959,7.77523s-11.2476,0-11.2476,0c-3.50474-.00013-3.50474,17.17735,0,17.17748l12.27752-.00006A49.04179,49.04179,0,0,0,63.5884,120.082c3.72325,4.96276,3.14363,14.85855,3.14363,14.85855Z"/><path class="cls-9" d="M46.10646,94.65072c3.22-.00013,3.22,17.17735,0,17.17748"/><path class="cls-9" d="M64.79635,76.62731s8.165,1.16627,8.165,12.24578"/><path class="cls-9" d="M66.30453,91.3693c1.94172,0,2.38981,2.8379,0,2.8379S64.36281,91.3693,66.30453,91.3693Z"/><path class="cls-9" d="M129.90959,97.33251c9.462,0,10.25312,6.14348,6.59437,6.14348-3.55986,0-3.003-6.14348,7.21861-6.14348"/><path class="cls-10" d="M109.40634,77.33759c-7.01722-3.14385-15.76432-2.20742-21.18394-.3375l.70261,2.35336c5.41962-1.86993,14.16672-2.80635,21.18394.33749Z"/><ellipse class="cls-9" cx="46.75115" cy="103.23946" rx="0.24603" ry="1.96144"/><ellipse class="cls-9" cx="44.95183" cy="103.23946" rx="0.24603" ry="1.96144"/><path class="cls-9" d="M70.71179,80.5813s-4.40726.33661-4.40726,4.25934"/><path class="cls-9" d="M66.7041,119.09534a4.91224,4.91224,0,0,0-2.71664,5.876"/><path class="cls-9" d="M125.36074,105.2009c5.894,9.82293,0,20.88535,0,20.88535"/><path class="cls-9" d="M80.51091,127.5113c10.93526-8.83411,23.37173-4.19856,31.01214-.6219"/><path class="cls-7" d="M65.70219,117.41851c-9.17129,2.02073-11.80249-.91732-10.68761-2.729,1.13-1.83629,6.1927-1.01469,5.226-2.86136H59.1954"/><path class="cls-11" d="M97.24611,53.29494c-10.12281,0-9.02371,13.15745.31668,13.15745C107.38682,66.45239,106.77877,53.29494,97.24611,53.29494Z"/></g></svg>