<?xml version="1.0" encoding="UTF-8"?>
<svg id="balanca" xmlns="http://www.w3.org/2000/svg" width="300" height="400" viewBox="0 0 300 400">
  <defs>
    <style>
      .cls-1 {
        fill: #f5eae6;
      }

      .cls-1, .cls-2, .cls-3 {
        stroke-width: 0px;
      }

      .cls-2, .cls-4, .cls-5, .cls-6, .cls-7 {
        fill: none;
      }

      .cls-8, .cls-4, .cls-5, .cls-6, .cls-7 {
        stroke-width: 2px;
      }

      .cls-8, .cls-4, .cls-5, .cls-6, .cls-7, .cls-9 {
        stroke: #000;
      }

      .cls-8, .cls-5 {
        stroke-miterlimit: 10;
      }

      .cls-8, .cls-9 {
        fill: #fff;
      }

      .cls-4, .cls-6, .cls-7 {
        stroke-linecap: round;
        stroke-linejoin: round;
      }

      .cls-3 {
        fill: #000;
      }

      .cls-6 {
        stroke-dasharray: 0 0 0 7.25;
      }

      .cls-7 {
        stroke-dasharray: 0 0 0 7.3;
      }

      .cls-9 {
        stroke-linejoin: bevel;
      }
#lintel{opacity:1;animation:lintel 2s infinite forwards;animation-delay:0s;-webkit-animation-delay:0s; transform-origin: 150px 110.12px}
@keyframes lintel{
    0%{opacity:1;transform:translateY(0px)scaleY(1)rotate(0deg)}
    25%{opacity:1;transform:translateY(0px)scaleY(1)rotate(10deg)}
    50%{opacity:1;transform:translateY(0px)scaleY(1)rotate(0deg)}
    75%{opacity:1;transform:translateY(0px)scaleY(1)rotate(-10deg)}
    100%{opacity:1;transform:translateY(0px)scaleY(1)rotate(0deg)}
}
	
#prato-dto{opacity:1;animation:prato-dto 2s infinite forwards;animation-delay:0s;-webkit-animation-delay:0s; transform-origin: 150px 110.12px}
@keyframes prato-dto{
    0%{opacity:1;transform:translateY(0px)scaleY(1)rotate(0deg)}
    25%{opacity:1;transform:translateY(8px)scaleY(1)rotate(0deg)}
    50%{opacity:1;transform:translateY(0px)scaleY(1)rotate(0deg)}
    75%{opacity:1;transform:translateY(-8px)scaleY(1)rotate(0deg)}
    100%{opacity:1;transform:translateY(0px)scaleY(1)rotate(0deg)}
}
	
	
#prato-esq{opacity:1;animation:prato-esq 2s infinite forwards;animation-delay:0s;-webkit-animation-delay:0s; transform-origin: 150px 110.12px}
@keyframes prato-esq{
    0%{opacity:1;transform:translateY(0px)scaleY(1)rotate(0deg)}
    25%{opacity:1;transform:translateY(-8px)scaleY(1)rotate(0deg)}
    50%{opacity:1;transform:translateY(0px)scaleY(1)rotate(0deg)}
    75%{opacity:1;transform:translateY(8px)scaleY(1)rotate(0deg)}
    100%{opacity:1;transform:translateY(0px)scaleY(1)rotate(0deg)}
}
		
    </style>
  </defs>
  <g>
    <rect class="cls-9" x="6.63" y="4.81" width="286.74" height="390.38"/>
    <g>
      <rect class="cls-1" x="29.47" y="25.78" width="239.25" height="350.38"/>
      <g>
        <line class="cls-4" x1="268.72" y1="376.15" x2="268.72" y2="376.15"/>
        <line class="cls-6" x1="261.47" y1="376.15" x2="33.1" y2="376.15"/>
        <line class="cls-4" x1="29.47" y1="376.15" x2="29.47" y2="376.15"/>
        <line class="cls-7" x1="29.47" y1="368.85" x2="29.47" y2="29.42"/>
        <line class="cls-4" x1="29.47" y1="25.78" x2="29.47" y2="25.78"/>
        <line class="cls-6" x1="36.72" y1="25.78" x2="265.1" y2="25.78"/>
        <line class="cls-4" x1="268.72" y1="25.78" x2="268.72" y2="25.78"/>
        <line class="cls-7" x1="268.72" y1="33.07" x2="268.72" y2="372.5"/>
      </g>
    </g>
    <g>
      <path class="cls-3" d="M88.37,266.6h-5.33v14.46h-4.29v-14.46h-5.24v-3.31h14.86v3.31Z"/>
      <path class="cls-3" d="M96.78,274.77h-2.32v6.29h-4.28v-17.77h7c2.11,0,3.75.47,4.94,1.4s1.78,2.26,1.78,3.96c0,1.24-.25,2.26-.75,3.07-.5.81-1.28,1.47-2.35,1.98l3.71,7.18v.18h-4.59l-3.14-6.29ZM94.46,271.48h2.71c.81,0,1.43-.21,1.84-.64.41-.43.62-1.03.62-1.79s-.21-1.37-.62-1.8c-.41-.44-1.03-.66-1.83-.66h-2.71v4.9Z"/>
      <path class="cls-3" d="M111.05,281.06h-4.27v-17.77h4.27v17.77Z"/>
      <path class="cls-3" d="M114.03,281.06v-17.77h6.38c2.29,0,4.03.42,5.22,1.26,1.19.84,1.79,2.05,1.79,3.65,0,.92-.21,1.71-.63,2.36-.42.65-1.05,1.13-1.87,1.44.93.24,1.64.7,2.14,1.37.5.67.75,1.48.75,2.44,0,1.74-.55,3.05-1.65,3.92-1.1.88-2.74,1.32-4.9,1.34h-7.21ZM118.31,270.7h2.23c.94,0,1.6-.18,2-.51s.6-.83.6-1.48c0-.75-.21-1.29-.65-1.62-.43-.33-1.13-.5-2.09-.5h-2.1v4.11ZM118.31,273.5v4.26h2.81c.77,0,1.37-.18,1.78-.53.42-.35.62-.85.62-1.5,0-1.48-.74-2.23-2.21-2.23h-3Z"/>
      <path class="cls-3" d="M144.09,263.29v11.63c0,1.32-.28,2.46-.84,3.42-.56.96-1.37,1.7-2.42,2.2-1.05.5-2.29.76-3.72.76-2.17,0-3.87-.56-5.12-1.68-1.24-1.12-1.88-2.66-1.9-4.61v-11.72h4.31v11.8c.05,1.94.95,2.92,2.71,2.92.89,0,1.56-.24,2.01-.73.46-.49.68-1.28.68-2.38v-11.61h4.29Z"/>
      <path class="cls-3" d="M160.72,266.6h-5.33v14.46h-4.29v-14.46h-5.24v-3.31h14.86v3.31Z"/>
      <path class="cls-3" d="M171.15,277.74h-5.87l-1.03,3.32h-4.58l6.52-17.77h4.03l6.57,17.77h-4.6l-1.04-3.32ZM166.31,274.43h3.82l-1.92-6.16-1.9,6.16Z"/>
      <path class="cls-3" d="M192.21,275.04c-.06,1.24-.39,2.33-1,3.28s-1.47,1.68-2.57,2.2c-1.1.52-2.36.78-3.78.78-2.34,0-4.17-.76-5.52-2.28-1.34-1.52-2.01-3.67-2.01-6.45v-.88c0-1.74.3-3.26.91-4.57.61-1.31,1.48-2.31,2.62-3.03,1.14-.71,2.46-1.07,3.96-1.07,2.16,0,3.89.57,5.2,1.7,1.31,1.14,2.05,2.7,2.23,4.69h-4.27c-.03-1.08-.3-1.86-.82-2.33s-1.29-.71-2.34-.71-1.85.4-2.34,1.2-.76,2.07-.78,3.82v1.26c0,1.9.24,3.25.71,4.06.48.81,1.3,1.22,2.46,1.22.98,0,1.74-.23,2.26-.7.52-.46.8-1.2.83-2.21h4.26ZM186.48,280.94l-.12.75c1.22.23,1.83.93,1.83,2.11,0,.94-.4,1.68-1.21,2.22-.81.54-1.92.81-3.36.81l-.09-2.27c.72,0,1.07-.31,1.07-.94,0-.31-.13-.52-.38-.65-.26-.12-.67-.2-1.25-.24l.38-1.78h3.12Z"/>
      <path class="cls-3" d="M204.33,277.74h-5.87l-1.03,3.32h-4.58l6.52-17.77h4.03l6.57,17.77h-4.6l-1.04-3.32ZM206.14,258.64c0,.93-.27,1.71-.81,2.36-.54.65-1.21.97-2.01.97-.54,0-1.14-.17-1.79-.51-.66-.34-1.19-.51-1.6-.51-.26,0-.48.09-.67.27-.18.18-.27.46-.27.83l-2.28-.12c0-.9.27-1.68.81-2.34s1.21-.99,2-.99c.41,0,.94.15,1.6.45.66.3,1.08.47,1.25.51.17.04.36.06.55.06.26,0,.48-.09.67-.27.19-.18.28-.46.28-.84l2.27.13ZM199.49,274.43h3.82l-1.92-6.16-1.9,6.16Z"/>
      <path class="cls-3" d="M226.06,272.54c0,1.73-.32,3.27-.96,4.6-.64,1.33-1.56,2.36-2.74,3.08-1.18.72-2.53,1.08-4.05,1.08s-2.86-.35-4.03-1.04c-1.17-.7-2.09-1.69-2.74-2.98-.66-1.29-1-2.78-1.03-4.46v-1c0-1.74.32-3.28.96-4.61.64-1.33,1.55-2.36,2.75-3.08,1.19-.72,2.55-1.09,4.07-1.09s2.85.36,4.03,1.07,2.1,1.74,2.75,3.06c.65,1.32.99,2.84,1,4.55v.82ZM221.7,271.79c0-1.77-.29-3.11-.88-4.02-.59-.92-1.43-1.37-2.53-1.37-2.15,0-3.28,1.61-3.41,4.83v1.31c-.01,1.74.28,3.08.85,4.02.58.94,1.44,1.4,2.58,1.4s1.92-.46,2.5-1.38c.59-.92.88-2.24.89-3.97v-.82Z"/>
      <path class="cls-3" d="M92.79,308.06v-17.77h5.73c1.57,0,2.98.36,4.24,1.07s2.23,1.72,2.94,3.01c.7,1.3,1.06,2.75,1.07,4.36v.82c0,1.63-.34,3.09-1.03,4.38-.69,1.29-1.66,2.3-2.91,3.03-1.25.73-2.64,1.1-4.18,1.1h-5.85ZM97.08,293.6v11.17h1.49c1.23,0,2.17-.44,2.83-1.31.66-.87.99-2.17.99-3.9v-.77c0-1.72-.33-3.01-.99-3.88-.66-.87-1.62-1.31-2.88-1.31h-1.44Z"/>
      <path class="cls-3" d="M119.98,300.52h-6.74v4.25h7.96v3.3h-12.24v-17.77h12.27v3.31h-7.98v3.75h6.74v3.17Z"/>
      <path class="cls-3" d="M138.34,303.34c0-.63-.22-1.11-.67-1.46-.44-.35-1.22-.71-2.34-1.09-1.12-.37-2.03-.74-2.73-1.09-2.3-1.13-3.46-2.69-3.46-4.66,0-.98.29-1.85.86-2.61.57-.75,1.39-1.34,2.44-1.76s2.23-.63,3.54-.63,2.42.23,3.44.68c1.01.46,1.8,1.1,2.36,1.95.56.84.84,1.8.84,2.89h-4.27c0-.72-.22-1.29-.67-1.68-.44-.4-1.04-.6-1.8-.6s-1.37.17-1.81.51c-.44.34-.67.77-.67,1.29,0,.46.24.87.73,1.24s1.35.75,2.58,1.15,2.24.82,3.03,1.28c1.92,1.11,2.88,2.63,2.88,4.58,0,1.55-.59,2.77-1.76,3.66-1.17.89-2.78,1.33-4.82,1.33-1.44,0-2.74-.26-3.91-.78-1.17-.52-2.05-1.22-2.64-2.12-.59-.9-.88-1.93-.88-3.11h4.3c0,.95.25,1.65.74,2.11.49.45,1.29.68,2.4.68.71,0,1.27-.15,1.68-.46.41-.3.62-.73.62-1.29Z"/>
      <path class="cls-3" d="M158.77,293.6h-5.33v14.46h-4.29v-14.46h-5.24v-3.31h14.86v3.31Z"/>
      <path class="cls-3" d="M175.29,299.54c0,1.73-.32,3.27-.96,4.6-.64,1.33-1.56,2.36-2.74,3.08-1.18.72-2.53,1.08-4.05,1.08s-2.86-.35-4.03-1.04c-1.17-.7-2.09-1.69-2.74-2.98-.66-1.29-1-2.78-1.03-4.46v-1c0-1.74.32-3.28.96-4.61.64-1.33,1.55-2.36,2.75-3.08,1.19-.72,2.55-1.09,4.07-1.09s2.85.36,4.03,1.07,2.1,1.74,2.75,3.06c.65,1.32.99,2.84,1,4.55v.82ZM170.93,298.79c0-1.77-.29-3.11-.88-4.02-.59-.92-1.43-1.37-2.53-1.37-2.15,0-3.28,1.61-3.41,4.83v1.31c-.01,1.74.28,3.08.85,4.02.58.94,1.44,1.4,2.58,1.4s1.92-.46,2.5-1.38c.59-.92.88-2.24.89-3.97v-.82Z"/>
      <path class="cls-3" d="M191.88,302.04c-.06,1.24-.39,2.33-1,3.28s-1.47,1.68-2.57,2.2c-1.1.52-2.36.78-3.78.78-2.34,0-4.17-.76-5.52-2.28-1.34-1.52-2.01-3.67-2.01-6.45v-.88c0-1.74.3-3.26.91-4.57.61-1.31,1.48-2.31,2.62-3.03,1.14-.71,2.46-1.07,3.96-1.07,2.16,0,3.89.57,5.2,1.7,1.31,1.14,2.05,2.7,2.23,4.69h-4.27c-.03-1.08-.3-1.86-.82-2.33s-1.29-.71-2.34-.71-1.85.4-2.34,1.2-.76,2.07-.78,3.82v1.26c0,1.9.24,3.25.71,4.06.48.81,1.3,1.22,2.46,1.22.98,0,1.74-.23,2.26-.7.52-.46.8-1.2.83-2.21h4.26Z"/>
      <path class="cls-3" d="M199.95,301.44l-1.76,1.93v4.69h-4.28v-17.77h4.28v7.84l1.49-2.26,3.83-5.58h5.3l-6.01,7.86,6.01,9.91h-5.08l-3.79-6.62Z"/>
      <path class="cls-3" d="M112.74,326.54c0,1.73-.32,3.27-.96,4.6-.64,1.33-1.56,2.36-2.74,3.08-1.18.72-2.53,1.08-4.05,1.08s-2.86-.35-4.03-1.04c-1.17-.7-2.09-1.69-2.74-2.98-.66-1.29-1-2.78-1.03-4.46v-1c0-1.74.32-3.28.96-4.61.64-1.33,1.55-2.36,2.75-3.08,1.19-.72,2.55-1.09,4.07-1.09s2.85.36,4.03,1.07,2.1,1.74,2.75,3.06c.65,1.32.99,2.84,1,4.55v.82ZM108.39,325.79c0-1.77-.29-3.11-.88-4.02-.59-.92-1.43-1.37-2.53-1.37-2.15,0-3.28,1.61-3.41,4.83v1.31c-.01,1.74.28,3.08.85,4.02.58.94,1.44,1.4,2.58,1.4s1.92-.46,2.5-1.38c.59-.92.88-2.24.89-3.97v-.82Z"/>
      <path class="cls-3" d="M119.24,329.03v6.03h-4.28v-17.77h7.09c1.36,0,2.56.25,3.61.75,1.05.5,1.86,1.21,2.43,2.14.57.92.86,1.97.86,3.14,0,1.73-.62,3.12-1.86,4.16-1.24,1.04-2.94,1.56-5.11,1.56h-2.73ZM119.24,325.72h2.81c.83,0,1.46-.21,1.9-.62s.65-1,.65-1.76c0-.83-.22-1.49-.67-1.99-.45-.5-1.06-.75-1.83-.76h-2.86v5.13Z"/>
      <path class="cls-3" d="M145.18,320.6h-5.33v14.46h-4.29v-14.46h-5.24v-3.31h14.86v3.31Z"/>
      <path class="cls-3" d="M151.55,335.06h-4.27v-17.77h4.27v17.77Z"/>
      <path class="cls-3" d="M169.58,326.54c0,1.73-.32,3.27-.96,4.6-.64,1.33-1.56,2.36-2.74,3.08-1.18.72-2.53,1.08-4.05,1.08s-2.86-.35-4.03-1.04c-1.17-.7-2.09-1.69-2.74-2.98-.66-1.29-1-2.78-1.03-4.46v-1c0-1.74.32-3.28.96-4.61.64-1.33,1.55-2.36,2.75-3.08,1.19-.72,2.55-1.09,4.07-1.09s2.85.36,4.03,1.07,2.1,1.74,2.75,3.06c.65,1.32.99,2.84,1,4.55v.82ZM165.22,325.79c0-1.77-.29-3.11-.88-4.02-.59-.92-1.43-1.37-2.53-1.37-2.15,0-3.28,1.61-3.41,4.83v1.31c-.01,1.74.28,3.08.85,4.02.58.94,1.44,1.4,2.58,1.4s1.92-.46,2.5-1.38c.59-.92.88-2.24.89-3.97v-.82Z"/>
      <path class="cls-3" d="M186.63,335.06h-4.26l-6.3-11.06v11.06h-4.28v-17.77h4.28l6.29,11.06v-11.06h4.27v17.77Z"/>
      <path class="cls-3" d="M198.51,330.34c0-.63-.22-1.11-.67-1.46-.44-.35-1.22-.71-2.34-1.09-1.12-.37-2.03-.74-2.73-1.09-2.3-1.13-3.46-2.69-3.46-4.66,0-.98.29-1.85.86-2.61.57-.75,1.39-1.34,2.44-1.76s2.23-.63,3.54-.63,2.42.23,3.44.68c1.01.46,1.8,1.1,2.36,1.95.56.84.84,1.8.84,2.89h-4.27c0-.72-.22-1.29-.67-1.68-.44-.4-1.04-.6-1.8-.6s-1.37.17-1.81.51c-.44.34-.67.77-.67,1.29,0,.46.24.87.73,1.24s1.35.75,2.58,1.15,2.24.82,3.03,1.28c1.92,1.11,2.88,2.63,2.88,4.58,0,1.55-.59,2.77-1.76,3.66-1.17.89-2.78,1.33-4.82,1.33-1.44,0-2.74-.26-3.91-.78-1.17-.52-2.05-1.22-2.64-2.12-.59-.9-.88-1.93-.88-3.11h4.3c0,.95.25,1.65.74,2.11.49.45,1.29.68,2.4.68.71,0,1.27-.15,1.68-.46.41-.3.62-.73.62-1.29Z"/>
    </g>
  </g>
  <g id="balanca-2" data-name="balanca">
    <g id="prumo">
      <rect class="cls-8" x="113.57" y="212.5" width="72.85" height="4.76"/>
      <line class="cls-8" x1="150" y1="109.54" x2="150" y2="212.5"/>
    </g>
    <g id="prato-dto">
      <line class="cls-5" x1="186.43" y1="109.54" x2="216.89" y2="179.84"/>
      <rect class="cls-8" x="167.25" y="179.84" width="49.64" height="3.3"/>
      <line class="cls-5" x1="167.25" y1="179.84" x2="186.43" y2="109.54"/>
    </g>
    <g id="prato-esq">
      <line class="cls-5" x1="83.11" y1="179.84" x2="113.57" y2="109.54"/>
      <rect class="cls-8" x="83.11" y="179.84" width="49.64" height="3.3"/>
      <line class="cls-5" x1="132.75" y1="179.84" x2="113.57" y2="109.54"/>
    </g>
    <g id="lintel">
      <ellipse class="cls-2" cx="150" cy="110.12" rx="6" ry="6"/>
      <path class="cls-5" d="M193.33,109.54h-86.67"/>
      <path class="cls-8" d="M150.07,100.97c-13.02,0-11.61,18.3.41,18.3,12.64,0,11.86-18.3-.41-18.3Z"/>
    </g>
  </g>
</svg>