<?xml version="1.0" encoding="UTF-8"?>
<svg id="porco" xmlns="http://www.w3.org/2000/svg" width="300" height="400" xmlns:xlink="http://www.w3.org/1999/xlink" viewBox="0 0 300 400">
  <defs>
    <style>
      .cls-1 {
        fill: #b7735e;
      }

      .cls-1, .cls-2, .cls-3, .cls-4 {
        stroke-width: 0px;
      }

      .cls-2 {
        fill: #f5eae6;
      }

      .cls-5 {
        clip-path: url(#clippath);
      }

      .cls-3, .cls-6, .cls-7, .cls-8, .cls-9, .cls-10 {
        fill: none;
      }

      .cls-11 {
        fill: #fff200;
      }

      .cls-11, .cls-6, .cls-7, .cls-8, .cls-12, .cls-9, .cls-10, .cls-13 {
        stroke: #000;
      }

      .cls-11, .cls-13 {
        stroke-linejoin: bevel;
      }

      .cls-6, .cls-7, .cls-8, .cls-12, .cls-9 {
        stroke-width: 2px;
      }

      .cls-6, .cls-8, .cls-9 {
        stroke-linecap: round;
        stroke-linejoin: round;
      }

      .cls-7, .cls-12, .cls-10 {
        stroke-miterlimit: 10;
      }

      .cls-4 {
        fill: #000;
      }

      .cls-8 {
        stroke-dasharray: 0 0 0 7.25;
      }

      .cls-12 {
        fill: #fab8a0;
      }

      .cls-9 {
        stroke-dasharray: 0 0 0 7.3;
      }

      .cls-13 {
        fill: #fff;
      }
		
#moeda{opacity:1;animation:moeda 5s infinite forwards;animation-delay:0s;-webkit-animation-delay:0s; <!--transform-origin: 304.85px 185.75px-->}
@keyframes moeda{
    0%{opacity:1;transform:translateY(0px)}
    50%{opacity:1;transform:translateY(70px)}
    70%{opacity:1;transform:translateY(70px)}
    100%{opacity:1;transform:translateY(400px)}
}
    </style>
    <clipPath id="clippath">
      <path class="cls-3" d="M175.04,122.48c-.57-.26,0-87.82,0-87.82l-34.21-.55s.83,87.54,0,87.82l1.13,3.8c8.75-3.02,22.88-4.53,34.21.55l-1.13-3.8Z"/>
    </clipPath>
  </defs>
  <g>
    <g>
      <rect class="cls-13" x="6.63" y="4.81" width="286.74" height="390.38"/>
      <g>
        <rect class="cls-2" x="29.47" y="25.78" width="239.25" height="350.38"/>
        <g>
          <line class="cls-6" x1="268.72" y1="376.15" x2="268.72" y2="376.15"/>
          <line class="cls-8" x1="261.47" y1="376.15" x2="33.1" y2="376.15"/>
          <line class="cls-6" x1="29.47" y1="376.15" x2="29.47" y2="376.15"/>
          <line class="cls-9" x1="29.47" y1="368.85" x2="29.47" y2="29.42"/>
          <line class="cls-6" x1="29.47" y1="25.78" x2="29.47" y2="25.78"/>
          <line class="cls-8" x1="36.72" y1="25.78" x2="265.1" y2="25.78"/>
          <line class="cls-6" x1="268.72" y1="25.78" x2="268.72" y2="25.78"/>
          <line class="cls-9" x1="268.72" y1="33.07" x2="268.72" y2="372.5"/>
        </g>
      </g>
    </g>
    <g>
      <path class="cls-4" d="M130.87,266.6h-5.33v14.46h-4.29v-14.46h-5.24v-3.31h14.86v3.31Z"/>
      <path class="cls-4" d="M141.31,277.74h-5.87l-1.03,3.32h-4.58l6.52-17.77h4.03l6.57,17.77h-4.6l-1.04-3.32ZM136.46,274.43h3.82l-1.92-6.16-1.9,6.16Z"/>
      <path class="cls-4" d="M154.87,269.2l2.91-5.91h4.89l-4.97,8.81,5.1,8.96h-4.94l-2.99-6.02-2.99,6.02h-4.93l5.09-8.96-4.96-8.81h4.88l2.9,5.91Z"/>
      <path class="cls-4" d="M174.29,277.74h-5.87l-1.03,3.32h-4.58l6.52-17.77h4.03l6.57,17.77h-4.6l-1.04-3.32ZM169.44,274.43h3.82l-1.92-6.16-1.9,6.16Z"/>
      <path class="cls-4" d="M96.27,301.77h-2.32v6.29h-4.28v-17.77h7c2.11,0,3.75.47,4.94,1.4s1.78,2.26,1.78,3.96c0,1.24-.25,2.26-.75,3.07-.5.81-1.28,1.47-2.35,1.98l3.71,7.18v.18h-4.59l-3.14-6.29ZM93.95,298.48h2.71c.81,0,1.43-.21,1.84-.64.41-.43.62-1.03.62-1.79s-.21-1.37-.62-1.8c-.41-.44-1.03-.66-1.83-.66h-2.71v4.9Z"/>
      <path class="cls-4" d="M117,300.52h-6.74v4.25h7.96v3.3h-12.24v-17.77h12.27v3.31h-7.98v3.75h6.74v3.17Z"/>
      <path class="cls-4" d="M119.97,308.06v-17.77h5.73c1.57,0,2.98.36,4.24,1.07s2.23,1.72,2.94,3.01c.7,1.3,1.06,2.75,1.07,4.36v.82c0,1.63-.34,3.09-1.03,4.38-.69,1.29-1.66,2.3-2.91,3.03-1.25.73-2.64,1.1-4.18,1.1h-5.85ZM124.25,293.6v11.17h1.49c1.23,0,2.17-.44,2.83-1.31.66-.87.99-2.17.99-3.9v-.77c0-1.72-.33-3.01-.99-3.88-.66-.87-1.62-1.31-2.88-1.31h-1.44Z"/>
      <path class="cls-4" d="M150.07,290.29v11.63c0,1.32-.28,2.46-.84,3.42-.56.96-1.37,1.7-2.42,2.2-1.05.5-2.29.76-3.72.76-2.17,0-3.87-.56-5.12-1.68-1.24-1.12-1.88-2.66-1.9-4.61v-11.72h4.31v11.8c.05,1.94.95,2.92,2.71,2.92.89,0,1.56-.24,2.01-.73.46-.49.68-1.28.68-2.38v-11.61h4.29Z"/>
      <path class="cls-4" d="M157.55,304.76h8.5v3.3h-13.84v-2.26l8.47-12.21h-8.52v-3.31h13.81v2.2l-8.41,12.28Z"/>
      <path class="cls-4" d="M172.56,308.06h-4.27v-17.77h4.27v17.77Z"/>
      <path class="cls-4" d="M175.53,308.06v-17.77h5.73c1.57,0,2.98.36,4.24,1.07s2.23,1.72,2.94,3.01c.7,1.3,1.06,2.75,1.07,4.36v.82c0,1.63-.34,3.09-1.03,4.38-.69,1.29-1.66,2.3-2.91,3.03-1.25.73-2.64,1.1-4.18,1.1h-5.85ZM179.82,293.6v11.17h1.49c1.23,0,2.17-.44,2.83-1.31.66-.87.99-2.17.99-3.9v-.77c0-1.72-.33-3.01-.99-3.88-.66-.87-1.62-1.31-2.88-1.31h-1.44Z"/>
      <path class="cls-4" d="M201.54,304.74h-5.87l-1.03,3.32h-4.58l6.52-17.77h4.03l6.57,17.77h-4.6l-1.04-3.32ZM196.69,301.43h3.82l-1.92-6.16-1.9,6.16Z"/>
      <path class="cls-4" d="M110.75,335.06v-17.77h5.73c1.57,0,2.98.36,4.24,1.07s2.23,1.72,2.94,3.01c.7,1.3,1.06,2.75,1.07,4.36v.82c0,1.63-.34,3.09-1.03,4.38-.69,1.29-1.66,2.3-2.91,3.03-1.25.73-2.64,1.1-4.18,1.1h-5.85ZM115.04,320.6v11.17h1.49c1.23,0,2.17-.44,2.83-1.31.66-.87.99-2.17.99-3.9v-.77c0-1.72-.33-3.01-.99-3.88-.66-.87-1.62-1.31-2.88-1.31h-1.44Z"/>
      <path class="cls-4" d="M137.94,327.52h-6.74v4.25h7.96v3.3h-12.24v-17.77h12.27v3.31h-7.98v3.75h6.74v3.17Z"/>
      <path class="cls-4" d="M151.69,335.06h-4.27v-17.77h4.27v17.77Z"/>
      <path class="cls-4" d="M161.28,328.77h-2.32v6.29h-4.28v-17.77h7c2.11,0,3.75.47,4.94,1.4s1.78,2.26,1.78,3.96c0,1.24-.25,2.26-.75,3.07-.5.81-1.28,1.47-2.35,1.98l3.71,7.18v.18h-4.59l-3.14-6.29ZM158.96,325.48h2.71c.81,0,1.43-.21,1.84-.64.41-.43.62-1.03.62-1.79s-.21-1.37-.62-1.8c-.41-.44-1.03-.66-1.83-.66h-2.71v4.9Z"/>
      <path class="cls-4" d="M185.36,329.04c-.06,1.24-.39,2.33-1,3.28s-1.47,1.68-2.57,2.2c-1.1.52-2.36.78-3.78.78-2.34,0-4.17-.76-5.52-2.28-1.34-1.52-2.01-3.67-2.01-6.45v-.88c0-1.74.3-3.26.91-4.57.61-1.31,1.48-2.31,2.62-3.03,1.14-.71,2.46-1.07,3.96-1.07,2.16,0,3.89.57,5.2,1.7,1.31,1.14,2.05,2.7,2.23,4.69h-4.27c-.03-1.08-.3-1.86-.82-2.33s-1.29-.71-2.34-.71-1.85.4-2.34,1.2-.76,2.07-.78,3.82v1.26c0,1.9.24,3.25.71,4.06.48.81,1.3,1.22,2.46,1.22.98,0,1.74-.23,2.26-.7.52-.46.8-1.2.83-2.21h4.26Z"/>
    </g>
  </g>
  <g id="porco-2" data-name="porco">
    <g id="mealheiro">
      <path class="cls-12" d="M192.46,128.98c-38.43-34.85-73.24,10.14-95.51-18.4-3.5,3.59-11,18.25,2.39,27.31"/>
      <path class="cls-1" d="M98.64,110.64c-3.09,4-4.8,9.26-4.51,14.27.45,5.19,3.35,9.16,6.88,12.89,0,0-.11.17-.11.17-8.6-3.64-10.07-12.91-6.71-20.85,1.05-2.44,2.41-4.76,4.31-6.61l.14.14h0Z"/>
      <path class="cls-12" d="M192.46,215.51h-22.43c-3.35-13.47-12.56-20.48-21.67-20.02h26.95"/>
      <path class="cls-1" d="M173.17,215.53c-4.51-9.61-9.51-19.64-21.57-19.94,0,0-.01-.2-.01-.2,8.29-.88,16.28,4.88,19.79,12.18,1.13,2.51,1.85,5.19,1.98,7.91,0,0-.19.05-.19.05h0Z"/>
      <path class="cls-12" d="M92.63,178.18s1.36,5.32,5.82,13.33c4.46,8.02.42,24,.42,24h29.49"/>
      <path class="cls-1" d="M101.77,191.46c2.2,3.55,2.69,7.89,2.78,11.98.2,4.16-.36,8.36-2.35,12.09,0,0-.19-.05-.19-.05-.32-6.13,1.58-11.99.96-18.09-.17-1.99-.55-3.98-1.37-5.84,0,0,.17-.1.17-.1h0Z"/>
      <path class="cls-12" d="M128.37,215.51c7.89-27.87,40.44-25.54,46.78,0h17.31s38.43-51.69,0-86.53c-38.43-34.85-67.13,8.9-89.4-19.64,0,0-12.59,14.84-3.73,28.54,0,0-3.9,11.42-8.37,12.56-4.47,1.14-18.17,0-18.17,0-5.66,0-5.66,27.74,0,27.74h19.83s2.39,5.32,8.41,13.33c6.01,8.02,5.08,24,5.08,24h22.25Z"/>
      <path class="cls-7" d="M72.81,150.44c5.2,0,5.2,27.74,0,27.74"/>
      <path class="cls-7" d="M102.99,121.33s13.19,1.88,13.19,19.78"/>
      <path class="cls-7" d="M105.43,145.14c3.14,0,3.86,4.58,0,4.58s-3.14-4.58,0-4.58Z"/>
      <path class="cls-7" d="M208.15,154.77c15.28,0,16.56,9.92,10.65,9.92s-4.85-9.92,11.66-9.92"/>
      <g>
        <path class="cls-1" d="M175.04,122.48c-11.33-5.08-25.46-3.57-34.21-.55l1.13,3.8c8.75-3.02,22.88-4.53,34.21.55l-1.13-3.8Z"/>
        <path class="cls-4" d="M174.96,122.54c-10.7-4.31-23.13-3.57-33.9.09,0,0,.47-.91.47-.91l1.19,3.78-1.03-.53c8.31-3.16,17.58-3.89,26.28-2.04,2.9.64,5.73,1.63,8.35,2.99,0,0-.54.47-.54.47-.27-1.24-.56-2.51-.83-3.85h0ZM175.11,122.41c.58,1.43,1.16,3.03,1.73,4.54,0,0-.83-.31-.83-.31-8.11-2.99-16.94-3.14-25.41-1.95-3.11.46-6.18,1.15-9.2,2.03,0,0-.21-.76-.21-.76-.14-.47-1.16-4.14-1.27-4.51,11.35-3.64,24.2-4.06,35.19.96h0Z"/>
      </g>
      <g>
        <ellipse class="cls-7" cx="73.85" cy="164.31" rx=".4" ry="3.17"/>
        <ellipse class="cls-7" cx="70.94" cy="164.31" rx=".4" ry="3.17"/>
      </g>
      <path class="cls-7" d="M112.54,127.72s-7.12.54-7.12,6.88"/>
      <path class="cls-7" d="M106.07,189.92c-6.46,3.43-4.39,9.49-4.39,9.49"/>
      <path class="cls-7" d="M200.81,167.48c9.52,15.86,0,33.73,0,33.73"/>
      <path class="cls-7" d="M128.37,203.51c17.66-14.27,37.75-6.78,50.09-1"/>
      <path class="cls-12" d="M104.45,187.21c-14.81,3.26-19.06-1.48-17.26-4.41,1.83-2.97,10-1.64,8.44-4.62h-1.69"/>
    </g>
    <g class="cls-5">
      <g id="moeda">
        <g>
          <path class="cls-11" d="M160.14,67.54c-19.19,3.3-21.69-23.72-3.99-26.77,18.62-3.2,22.06,23.66,3.99,26.77Z"/>
          <path class="cls-11" d="M160.79,71.37c-19.19,3.3-21.69-23.72-3.99-26.77,18.62-3.2,22.06,23.66,3.99,26.77Z"/>
        </g>
        <path class="cls-4" d="M160.47,59.5h-3.38c.04,1.1.31,1.92.83,2.47.52.54,1.25.82,2.21.82.7,0,1.34-.1,1.94-.31l.27,1.94c-.76.18-1.54.28-2.35.28-1.62,0-2.89-.46-3.82-1.37-.93-.91-1.42-2.18-1.47-3.81h-1.63v-1.34h1.63v-1.21h-1.63v-1.34h1.64c.08-1.61.6-2.87,1.55-3.76.95-.9,2.22-1.34,3.82-1.34.67,0,1.43.1,2.27.29l-.27,1.94c-.64-.21-1.29-.32-1.93-.32-.95,0-1.69.27-2.2.82-.51.54-.8,1.33-.85,2.37h3.37v1.34h-3.38v1.21h3.38v1.34Z"/>
        <line class="cls-10" x1="145.8" y1="53.18" x2="145.17" y2="49.49"/>
        <line class="cls-10" x1="144.32" y1="56.71" x2="144.95" y2="60.39"/>
        <line class="cls-10" x1="172.57" y1="55.64" x2="171.94" y2="51.95"/>
        <line class="cls-10" x1="146.9" y1="50.92" x2="146.27" y2="47.23"/>
        <line class="cls-10" x1="148.31" y1="49.01" x2="147.68" y2="45.32"/>
        <line class="cls-10" x1="150.14" y1="47.3" x2="149.5" y2="43.61"/>
        <line class="cls-10" x1="152.05" y1="46.06" x2="151.42" y2="42.37"/>
        <line class="cls-10" x1="154.22" y1="45.12" x2="153.58" y2="41.43"/>
        <line class="cls-10" x1="156.78" y1="44.46" x2="156.15" y2="40.78"/>
        <line class="cls-10" x1="159.53" y1="44.21" x2="158.89" y2="40.52"/>
        <line class="cls-10" x1="162.81" y1="44.52" x2="162.18" y2="40.83"/>
        <line class="cls-10" x1="166.27" y1="45.82" x2="165.63" y2="42.13"/>
        <line class="cls-10" x1="168.39" y1="47.36" x2="167.75" y2="43.67"/>
        <line class="cls-10" x1="170.81" y1="50.38" x2="170.17" y2="46.7"/>
      </g>
    </g>
  </g>
</svg>