<?xml version="1.0" encoding="UTF-8"?>
<svg id="Layer_1" xmlns="http://www.w3.org/2000/svg" width="350" height="144.18" viewBox="0 0 350 144.18">
  <defs>
    <style>
      .cls-1 {
        fill: #93d9dd;
      }

      .cls-2 {
        fill: #58595b;
      }

      .cls-3 {
        fill: #00a5af;
      }

      .cls-4 {
        fill: #ceeef0;
      }
    </style>
  </defs>
  <path class="cls-4" d="M198.03,29.21c-2.01,4.82,1.52,7.13,2.02,2.34s-1.22-4.26-2.02-2.34Z"/>
  <path class="cls-4" d="M202.59,13.4c.34,1.26,7.23,9.79,7.05,16.78s5.7-.57,0-9.76-7.32-8.02-7.06-7.02Z"/>
  <path class="cls-4" d="M135.12,67.71c.66,7.17,1.47,21.17,0,25.99s-1.8,11.27-1.98,15.73-1.44,23.55-1.27,27.3-.34,6.3,2.07.72,7.28-16.55,5.15-16.6-8.5,7.11-2.48-11.73,6.57-27.88,3.38-21.93-1.12-.56,0-10.6.12-17.2-1.46-12.24-6.51-27.54-6.51-27.54c0,0,2.47,24.22,3.09,30.9Z"/>
  <path class="cls-4" d="M131.87,43.55c3.08,9.72,2.93,29.18,1.27,32s-11.61,18.13-20.23,20.82-17.5,4.25-22.84,5.19-42.15-2.77-42.15-2.77c0,0-.28-5.36,2.97-4.65s1.29,3.18,11.33,3.18,15.92-4.85,18.32-1.57,4.94,4.74,12.49,1.57-.58-6.19,4.53-7.35,8.59,10.8,20.2,1.8-4.18-9.78-2.09-15.78,12.79,6.31,12.39,2.61c-.29-2.68-.81-33.74,3.81-35.05Z"/>
  <path class="cls-4" d="M219.14,68.16c-2.07,5.01-3.32,8.69,4.07,16.88s21.82,16.26,27.47,16.5,44.95.63,47.12.63,4.15-3.08-2.49-2.18-16.65.51-17.55-1.54,7.76-7.86,7.76-7.86c0,0-11.64,4.42-13.29,7.42s-10.13,3.01-20.78.82-26.66-12.78-28.99-18.52-2.26-14.73-3.32-12.16Z"/>
  <path class="cls-4" d="M185.26,16.6c-.78.28-2.64,2.66-2.51,3.82s1.14-.42,1.71-.63-2.29,8.03-2.29,8.03c1.02-.29,6.01-12.26,3.09-11.23Z"/>
  <g>
    <path class="cls-3" d="M141.64,33.29c-.33,1.06-.67,2.1-1.05,3.13l-.23-.57c.5.15,1.01.29,1.52.42l-.73.29c.33-1.18.98-2.17,1.93-2.98,0,0,.11.05.11.05.02,1.46-.49,2.76-1.33,3.91-.73-.39-1.49-.76-2.23-1.13.6-1.08,1.24-2.14,1.9-3.19,0,0,.11.05.11.05h0Z"/>
    <path class="cls-3" d="M143.63,32.7c-.51,1.44-1.03,2.87-1.59,4.28l-.15-.51c.84.46,1.67.92,2.52,1.36l-.86.25c.56-1.56,1.41-2.97,2.54-4.21,0,0,.11.05.11.05-.22,1.66-.74,3.22-1.57,4.66,0,0-.37.62-.37.62l-.49-.37c-.86-.65-1.75-1.27-2.62-1.91.76-1.44,1.55-2.87,2.36-4.29,0,0,.11.05.11.05h0Z"/>
    <path class="cls-3" d="M142.8,37.45c5.31.25,5.31,5.12,1.93,8.1-3.45,3.27-9.21.57-8.02-4.31.65-2.71,3.54-4.1,6.09-3.8h0ZM142.79,37.58c-5.01-.41-7.26,7.64-1.65,8.43,4.87.14,8.46-8.19,1.65-8.43h0Z"/>
    <path class="cls-3" d="M138,40.91c-.68,3.35,2.22,5.29,5.02,3.49,1.04-.79,1.79-2.11,2-3.25.27-1.43-1.12-2.07-2.31-2.52,0,0,.01-.12.01-.12,3.31-.41,4.55,2.61,2.63,5.09-1.76,2.8-6.89,3.37-7.64-.46-.13-.77-.02-1.53.16-2.26,0,0,.12.03.12.03h0Z"/>
    <path class="cls-3" d="M136.66,40.2l2.15,1.9c.35.3.73.67,1.05.93,1.04.5,2.28-.91,2.83-1.74.44-.73.68-1.49.48-1.98l.05.07c-.59-.79-1.15-1.61-1.6-2.52l.09-.08c.88.56,1.69,1.19,2.41,1.9.78,1.09.27,2.45-.48,3.31-.86.96-1.99,1.95-3.38,1.94-.85-.02-1.33-.94-1.84-1.46,0,0-1.86-2.17-1.86-2.17l.09-.09h0Z"/>
    <path class="cls-3" d="M140.58,36.46c-1.28-.53-2.67.34-3.43,1.32-.84.96-.84,2.2.56,2.49,1.9.59,5.8-2.46,2.87-3.82h0ZM140.63,36.34c1.86.52,2.35,2.26,1.12,3.71-1.03,1.22-2.8,1.72-4.33,1.18-1.97-.62-2.09-2.59-.74-3.87,1.06-1.02,2.61-1.43,3.94-1.02h0Z"/>
    <path class="cls-3" d="M157.24,3.64c-5.21,6.6-8.92,14.25-12.19,21.95-1.09,2.58-2.05,5.21-2.99,7.84,0,0-.53-.67-.53-.67.71-.05,1.35-.02,1.96.46,0,0-.81.15-.81.15,4.92-9.48,6.45-20.79,14.1-28.65-2.75,4.23-5.48,9.22-7,14.25-1.58,5.38-3.91,10.52-6.49,15.49,0,0-.5-.46-.5-.46-.47-.39-1.38-.22-1.95-.19,3.06-8.14,6.66-16.11,11.35-23.45,1.52-2.37,3.13-4.68,4.97-6.81,0,0,.09.08.09.08h0Z"/>
    <path class="cls-3" d="M156.85,4.82c-3.37,4.08-5.7,9.06-7.38,14.05-1.53,5.14-3.59,10.12-5.92,14.96,0,0-.86-.39-.86-.39.2-.35.37-.32.46-.37,1.18-.26,2.61.14,3.09,1.41,0,0-.93-.09-.93-.09,1.91-3.76,3.58-7.67,4.86-11.69,1.93-6.63,4.25-14.37,9.3-19.06-4.3,5.75-6.22,12.62-8.07,19.45-1.44,4.48-3.51,8.72-5.78,12.84,0,0-.36-1.14-.36-1.14-.19-.65-1.19-.94-1.84-.82-.03-.02,0,.06.13-.17,0,0-.86-.39-.86-.39,2.41-4.74,4.55-9.64,6.2-14.71,1.33-3.82,3.19-7.41,5.4-10.78.75-1.11,1.5-2.23,2.46-3.19l.08.09h0Z"/>
    <path class="cls-3" d="M173.48,50.92l-7.84-8.47c-4.42-4.85-9.74-9.51-14.37-14.18-.19-.23-.61-.6-.77-.85-.12-.18-.24-.34-.11-.65.04-.12.25-.25.19-.21-.06.04.01-.02.05-.06,1.5-1.83,3.39-3.89,4.19-6.08,0-.02,0,.07.05.12.02.05.09.09.11.12-1.1.23-2.31,1.37-3.24,2.15,0,0-2.94,2.6-2.94,2.6l1.96-3.4c2.57-5.74,3.76-12.49,7.91-17.5,0,0,.1.07.1.07-1.64,2.78-2.87,5.74-3.82,8.8-1.11,3.13-1.53,6.26-3.1,9.3,0,0-.99-.81-.99-.81.94-.87,4.55-4.01,5.2-1.54-.14,1.46-1.15,2.42-1.87,3.52-.99,1.25-1.91,2.49-3.08,3.58-.06.04.15-.08.18-.2.09-.2.04-.35,0-.41.03.04.13.18.21.26,4.64,5.01,10.07,9.85,14.5,15.06,0,0,7.58,8.71,7.58,8.71l-.09.08h0Z"/>
    <path class="cls-3" d="M160.69,4.54c-.72,3.61,1.3,6.71,2.77,9.85,4.31,9.6,8.96,19.08,12.15,29.13,0,0-.12.05-.12.05-5.08-9.25-8.49-19.24-12.6-28.93-1.34-3.21-3.23-6.52-2.33-10.12,0,0,.12.01.12.01h0Z"/>
    <path class="cls-3" d="M191.29,3.97c.23,1.44.57,2.98.05,4.43-.45,1.43-1.12,2.76-1.75,4.1-2.57,5.34-4.25,11.07-6.98,16.36-2.88,5.22-4.81,10.78-7.16,16.25-2.07,3.92-3.44,8.11-3.53,12.57-.09,2.98.06,10.23.03,13.31.06,17.78.48,35.58-.37,53.35-.25,5.92-.5,11.84-.84,17.76h-.12c-.02-5.93.03-11.86.09-17.79.26-17.77,0-35.54.24-53.32.07-3.19-.01-10.28.11-13.36.13-4.51,1.6-8.91,3.74-12.83,2.38-5.39,4.43-11.04,7.37-16.18,2.8-5.23,4.55-10.93,7.2-16.24.65-1.33,1.34-2.65,1.8-4.04.52-1.4.22-2.9,0-4.36l.12-.02h0Z"/>
    <path class="cls-3" d="M173.98,49.14c3.7-2.87,7.31-5.85,10.86-8.89,4.59-4.06,9.48-7.94,13.45-12.61,0-.02.02-.03,0-.01,0,0,0,.02-.02.08-.01.09.01.22.07.31,0,0-.23-.31-.23-.31-1.35-2.02-2.95-3.89-3.81-6.2-.17-.52.34-.99.71-1.02,1.61-.18,3.3.21,4.82-.16,1.1-.23,1.79-.77,2.15-1.88.82-2.13,1.28-4.44,1.6-6.75h.12c.03,2.36-.22,4.73-.9,7.03-.16.6-.45,1.29-.95,1.73-1.84,1.57-4.4,1.12-6.56,1.27-.02,0-.04.04.12-.09.07-.05.13-.24.15-.35.66,1.46,1.69,2.91,2.56,4.29,0,0,.96,1.46.96,1.46.2.29.48.64.3,1-.88,1.43-2.27,2.44-3.43,3.59-3.47,3.17-7.07,6.17-10.72,9.12-3.66,2.92-7.38,5.77-11.18,8.51l-.07-.1h0Z"/>
    <path class="cls-3" d="M193.85,5.05c.47.34.92.6,1.4.75.65.08.92.28,1.29.93,0,0-.01.12-.01.12-.64.55-1.34.36-1.8-.21-.47-.42-.82-.96-.98-1.53l.1-.07h0Z"/>
    <path class="cls-3" d="M199.77,29.94c-.16.79-.51,2.41.59,2.54.49.04.83-.26.94-.72.35-1.55-.38-3.11-.03-4.77.66-3.79,4.89-6.08,8.09-3.47,1.3,1.08,2.17,2.62,2.69,4.21.14.53.29,1.05.4,1.58l-.12.04c-1.04-1.87-2.14-3.71-3.73-4.83-2.65-1.95-5.77-.46-6.55,2.64-.41,1.49.24,3.21-.3,4.76-.24.95-1.69,1.35-2.23.43-.39-.78-.1-1.67.11-2.44,0,0,.12.03.12.03h0Z"/>
    <path class="cls-3" d="M201.46,13.11c1.03,3.64-.28,7.36-.44,10.99.05,1.43.6,2.79,1.09,4.16.23.54.4,1.61-.29,2.06-1.15,1-2.57.54-2.93-.89-.9-5.21-.11-10.46.5-15.65,0,0,.13,0,.13,0,.26,2.97.24,5.92.29,8.87v4.4c.06.92-.08,2.06.49,2.71.23.22.93-.09,1.08-.39-.16-1.68-1.17-3.46-1.07-5.26.08-2.26.9-4.38,1.14-6.59.17-1.45.16-2.93-.11-4.38l.12-.03h0Z"/>
    <path class="cls-3" d="M212.77,29.96c-.11.24-.2.5-.17.71.1.63,1.1.62,1.37.19.1-.13.15-.3.12-.41-.1-.62-.37-1.09-.66-1.85,0,0,.07-.1.07-.1,1,.09,2.07,1.01,1.81,2.15-.36,1.63-3.15,1.83-3.09.01.06-.34.26-.57.46-.77l.1.08h0Z"/>
    <path class="cls-3" d="M201.13,32.66c.24,3.57,2.3,6.46,3.34,9.81.5,1.69.78,3.44.95,5.18.41,4.42,1.01,11.2,6.25,12.19,1.95.19,4.12-.57,5.47-2.05.18-.22.67-.39.93-.24,1.19.37,2.02,3.01.01,2.13,0,0,.04-.12.04-.12,1.62.41.48-1.22-.25-1.4-.12-.01-.07-.02-.22.13-1.36,1.9-3.79,2.86-6.1,2.79-6.11-.82-6.71-8.5-6.94-13.37-.12-3.49-1.08-6.75-2.49-9.94-.64-1.63-1-3.37-1.11-5.11,0,0,.12-.01.12-.01h0Z"/>
    <path class="cls-3" d="M213.61,31.54c2.1,7.32,3.63,14.83,5.85,22.1,3.33,9.25-3.46,10.34-10.29,6.47-.46-.23-.95-.51-1.37-.56.02-.01.02-.06,0,.01-.02.14.01.37.07.54.16.57.95.87,1.53.75.23-.05.35-.13.11-.29l.06-.11c.78.46-.44.83-.87.73-.51-.04-1.08-.31-1.35-.85-.37-.66-.26-1.63.72-1.48,2.32.59,4.43,1.91,6.76,2.03,5.11.7,4.72-3.47,3.67-6.98-1.87-7.34-3.55-15.17-4.89-22.38h0Z"/>
    <path class="cls-3" d="M204.82,11.63c1.4.82,2.14,2.37,3.42,3.26,1.34.81,2.92,1.15,4.44,1.59,3.06.83,6.06,1.89,9.02,3.01,0,0,1.12.39,1.12.39.41.13.73.43,1,.73,1.42,1.94,1.91,4.38,3.12,6.42,2.46,4.05,4.82,8.26,6.32,12.79.79,2.25.92,4.67,1.7,6.9.54,1.49,1.77,2.55,2.66,3.84,3.23,4.55,5.34,9.73,7.36,14.88.76,1.33,1.82,2.53,3.02,3.46l-.22-.05c2.35-.25,5.12-.57,7.2.9,1.77,1.53,3.49,3.27,5.5,4.45.67.41,1.65-.1,2.75.17,1.4.34,2.08,1.69,2.31,2.94.05.22.12.46.17.53-.11-.03.22.05.41.04.21,0,.44-.01.63-.05l-.25.5c-.86-2.38,2.37-2.34,3.84-2.12,1.98.25,4.08.78,5.67,2.1.73.74,1.55,1.73,2.59,1.24.7-.3,1.12-.95,1.79-1.4.72-.48,1.59-.73,2.47-.7.88.04,1.78.45,2.35,1.14.26.29.44.45.74.52,1.08.16,2.05-.56,3.14-.9,1.56-.67,3.24.57,4.75.66.72.06,1.43-.06,2.12-.33,1.59-.63,3.38-.99,5.19-.47.17,3.56,2.54,25.51-1.72,25.43-3.87.39-7.73-.3-11.58-.22-2.47-.04-4.85.25-7.33.39-4.95.21-9.87.03-14.78-.14-2.45-.1-8.67-.35-11.03-.41-3.71.03-7.6-.2-11.06-1.73-7.86-3.65-15.5-8.15-21.46-14.52-2.38-2.94-4.07-6.26-5.64-9.67,0,0,1.04-.21,1.04-.21-.2,18.76-1.34,46.58-1.08,65.11,0,0-.12,0-.12,0-.72-18.78.07-46.05.12-65.13,0,0,.02-2.41.02-2.41,1.82,3.98,3.77,8.13,6.58,11.51,4.13,4.42,9.28,7.86,14.51,10.87,4.23,2.35,8.53,4.71,13.46,4.85,9.75.09,19.64,1.05,29.4.74,2.43-.12,4.93-.4,7.39-.34,3.68-.03,7.35.54,10.99.35.15,0,.29-.04.43-.05.13-.02.33-.04.32-.07.1-.01.24-.21.36-.42,1.06-2.76.9-5.9.99-8.87,0-4.89-.27-9.8-.67-14.67l.3.38c-2.32-.72-4.51,1.07-6.82.88-1.58-.05-2.87-1.26-4.41-.72-1.1.34-2.3,1.18-3.6.9-.49-.1-.91-.49-1.16-.79-.44-.53-1.08-.83-1.77-.86-.69-.03-1.41.17-2,.56-.78.61-1.99,2.03-3.33,1.58-1.27-.34-1.8-1.6-2.91-2.13-1.94-1.04-4.4-1.54-6.6-1.34-.35.05-.66.18-.81.37-.27.29-.02.85.12,1.18,0,0-.43.07-.43.07-.58.06-1.29.2-1.73-.25-.34-.55-.3-.95-.48-1.48-.23-.84-.83-1.56-1.62-1.76-.9-.23-1.96.3-2.89-.23-.91-.49-1.63-1.11-2.38-1.71-1.1-.9-2.17-1.91-3.22-2.84-1.89-1.3-4.47-1.02-6.7-.8,0,0-.13.02-.13.02-1.33-1.03-2.44-2.29-3.26-3.74-.81-1.4-1.06-2.99-1.71-4.46-1.21-2.91-2.65-5.73-4.26-8.44-1.08-2.15-3.04-3.71-3.97-5.94-.79-2.27-.9-4.69-1.67-6.94-1.47-4.51-3.78-8.69-6.21-12.76-.77-1.4-1.33-2.9-1.93-4.35-.48-1.03-.91-2.25-2.01-2.71-3.35-1.21-6.67-2.52-10.11-3.45-1.51-.45-3.09-.79-4.47-1.64-.71-.42-1.15-1.12-1.65-1.72-.51-.6-1.11-1.11-1.75-1.57,0,0,.07-.1.07-.1h0Z"/>
    <path class="cls-3" d="M152.49,9.84c-7.51,2.33-15.07,4.73-22.23,8.01-.49.27-1,.51-1.3.9-2.1-.02-2.73,2.6-3.62,4.11-1.26,2.66-2.89,5.18-4.37,7.7-1.96,4.21-3.51,8.66-4.63,13.17-.95,2.07-2.99,3.34-4.31,5.14-2.54,2.92-3.66,6.96-4.25,10.66,0,0-.02.16-.02.16,0,0-.11.08-.11.08-.99.76-2.11,1.54-2.46,2.77-.12.23-.34.39-.53.5-1.4.66-2.93.79-4.35,1.27-.91.31-1.87.65-2.26,1.44-1.06,1.75-2.4,3.25-3.78,4.71-.33.4-.94.61-1.41.79-.63.27-1.29.43-1.4,1.12-.13.51-.51.61-.74.73-1.75.68-4.05.27-5.6,1.18-.1.28-.42.59-.72.62-1.31.19-2.58-.22-3.83-.26-2.55-.39-4.72.92-7.19,1.34-.65.1-1.07.21-1.43.64-.86,1.08-1.91-.3-2.67-.68-.79-.44-1.7-.45-2.65-.27-.94.13-1.82.57-2.91.73-1.08.14-2.13-.08-3.11-.35-2.2-.52-4.73-1.78-6.89-.82-.47.3-.42.71-.93,1.13-.58.47-1.37-.03-1.84-.37-.99-.75-2.56-1.15-3.41-.06-1.18,2.53-.65,5.78-.89,8.58-.05,4.49-.41,10.01-.01,14.45.01.1.05.23.04.2-.04-.04-.07-.1-.12-.11.14.03.28.06.44.09,0,0,.72.09.72.09,8.42.68,16.86.87,25.32,1,4.05.21,7.83,1.47,11.84,1.66,3.91.3,7.86-.06,11.76-.63.93-.17,1.78-.26,2.55-.85,2.6-1.68,5.79-2.06,8.65-2.89,7.75-1.91,13.89-7.27,18.47-13.68,0,0,7.59-9.25,7.59-9.25l.89-1.08.06,1.4c.22,6.95.68,13.95-.18,20.89-1,4.06-1.42,8.15-1.75,12.31-.22,2.77-.36,5.5-.36,8.31-.88,8.3-1.75,16.55-1.55,24.9,0,0-.13,0-.13,0-.36-8.31.26-16.67,1.05-24.94-.04-5.54.36-11.13,1.11-16.64.46-2.75,1.15-5.38,1.12-8.18.15-5.52-.08-11.07-.38-16.59l.95.31-7.46,9.29c-4.56,6.58-11.16,12.2-19.1,14.15-2.81.82-5.81,1.16-8.27,2.71-.83.65-2.03.89-3.05,1.05-3.98.58-8,.96-12.05.63-3.97-.2-7.89-1.49-11.79-1.72-3.96-.05-7.97-.19-11.94-.35-4.48-.2-8.98-.36-13.45-.8,0,0-.76-.1-.76-.1-.21-.05-.43-.06-.65-.15-.51-.2-.55-.83-.59-1.26-.02-.75-.12-1.54-.1-2.28-.13-3.44.18-8.47.22-11.96.42-3.14-1.1-11.24,4.28-9.96.78.23,1.37.74,2.01,1.1.19.08.21.07.26.03.31-.36.5-.88.96-1.14,2.43-1.24,5.27.17,7.59.73,2.05.77,3.61.12,5.66-.37.98-.19,2.19-.18,3.16.37.55.22,1.13.96,1.56.99.17-.09.29-.31.47-.43.47-.41,1.1-.5,1.56-.58,1.53-.2,2.75-.81,4.3-1.18,2.06-.43,4.13.03,6.03.2.3,0,.67.05.83-.13.29-.68,1.08-.81,1.7-.95,1.44-.36,3.51-.15,4.68-.91.08-.91,1.14-1.39,1.83-1.63.48-.19.92-.31,1.18-.63,1.36-1.42,2.69-2.91,3.7-4.57.23-.48.73-.9,1.18-1.13,1.83-1.04,4.14-.92,5.92-1.94.19-.28.11-.46.47-.95.63-.86,1.42-1.5,2.26-2.09,0,0-.12.23-.12.23.22-2.07.87-3.91,1.49-5.8.87-2.9,2.87-5.26,4.95-7.37.79-.89,1.81-1.66,2.24-2.75.86-3.59,2.16-7.09,3.52-10.52,1.42-3.71,3.99-6.78,5.64-10.38.71-1.28,1.19-2.8,2.39-3.76.41-.31.9-.56,1.48-.49,0,0-.15.06-.15.06.81-.83,1.8-1.1,2.79-1.59,4.85-2.05,9.85-3.71,14.84-5.37,2-.64,4-1.3,6.04-1.86,0,0,.03.12.03.12h0Z"/>
    <path class="cls-3" d="M131.97,141.3c-.05-5.02-.04-10.05.64-15.08.13-.71.22-1.48.57-2.17.18-.33.62-.33.91-.35,0,0,.95-.05.95-.05,5.82-.22,13.02-.34,18.82-.64.59-.02,2.21-.12,2.78-.18.46-.04,1.01-.25,1.37.07.98,1.04.9,2.74,1.13,4.06.41,5.06.42,10.08.13,15.11h-.12c-.64-6.02-.44-12.16-1.86-18.01-.03-.1-.13-.21-.05-.13.02.04.26.11.34.06-.48.1-1.28.15-1.78.17-5.14.19-11.78.11-16.97.15-.9.02-4.3.01-5.08.09-1.53,5.28-1.42,11.28-1.65,16.87,0,0-.12,0-.12,0h0Z"/>
    <path class="cls-3" d="M143.04,125.32c.18.91.68,1.59.71,1.86,0,.21-.14.32-.15.71l-.05.12c-.38.18-.78-.12-.97-.39-.19-.26-.09-.57-.07-.83.04-.52.15-1.03.41-1.5l.12.02h0Z"/>
    <path class="cls-3" d="M155.9,130.27c-1.47,3.36-3.01,6.93-5.71,9.53-.97.82-2.18,1.47-3.47,1.57l-.04-.12c1.98-1.46,3.45-3.15,5.06-4.98,1.49-1.88,2.78-3.96,4.05-6.06l.11.06h0Z"/>
    <path class="cls-3" d="M157.71,136.75c0,1.16-.51,2.46-1.31,3.27-.34.22-.72.4-1.24.37,0,0-.08-.1-.08-.1.07-.5.23-.83.41-1.14.73-.76,1.63-1.37,2.09-2.43,0,0,.12.02.12.02h0Z"/>
    <path class="cls-3" d="M140.27,56.28c.13,6.95-1.01,13.85-2.1,20.68-1.06,6.38-2.37,14.42-4.34,20.33,1.04-13.81,5.6-27.32,6.44-41.01h0Z"/>
    <path class="cls-3" d="M134.35,76.8c-.12-2.77-.27-5.55-.47-8.31-.33-3.33-.3-6.87-1.36-10.02.02.06.29.15.42.08.12-.03.15-.11.14-.07-.5,1.67-.56,3.54-.56,5.28.04,2.69.55,5.39,1.44,8.02l-.11.06c-2.46-3.9-3.29-8.92-2.01-13.39.07-.2.17-.48.36-.73.28-.35.84-.37,1.12-.04.35.43.42.97.51,1.36.53,3.13.57,6.29.67,9.42.04,2.78.02,5.56-.03,8.34h-.12Z"/>
    <path class="cls-3" d="M122.62,76.93c-2.9-2.38-5.41-5.26-8.86-6.84-3.4-1.6-6.99-2.38-10.59-3.53,0,0,.01-.12.01-.12,5.82-.37,11.53,2.21,15.62,6.27,1.36,1.34,2.51,2.85,3.9,4.12,0,0-.08.1-.08.1h0Z"/>
    <path class="cls-3" d="M100.28,63.92c5.1-1.53,10.44-3.09,14.65-6.43,2.08-1.69,3.88-3.81,6.09-5.37,2.21-1.6,4.54-3.04,7.02-4.19l.07.11c-3.81,2.94-8.85,7.31-12.57,10.25-4.49,3.26-9.93,4.54-15.22,5.76,0,0-.03-.12-.03-.12h0Z"/>
    <path class="cls-3" d="M128.96,18.57c1.85,3.38,1.99,7.35,2.5,11.09.37,3.79.58,7.58.78,11.37.67,7.55,2.16,15.04,1.72,22.67,0,0-.12,0-.12,0-.7-5.45-2.02-14.4-2.49-19.76-.28-6.64-.17-13.29-1.03-19.88-.29-1.85-.55-3.78-1.46-5.42,0,0,.1-.07.1-.07h0Z"/>
    <path class="cls-3" d="M52.24,76.78c3.44,9.19,12.76,14.58,20.05,20.47,0,0-.06.11-.06.11-6.85-2.83-12.53-8.03-16.89-13.94-1.4-2.03-2.58-4.23-3.22-6.6l.12-.04h0Z"/>
    <path class="cls-3" d="M60.04,83.65c3.39,2.44,8.9,4.14,9.9-1.45.08-.37.22-.99.78-1.26,1.71-.58,3.34.81,4.75,1.56,2.7,1.7,5.27,3.52,7.8,5.38,2.51,1.89,5.06,3.69,7.79,5.27,0,0-.05.12-.05.12-3.06-.94-5.8-2.65-8.46-4.36-2.65-1.74-5.06-3.8-7.63-5.57-1.14-.67-2.49-1.87-3.84-1.67-.2.08-.29.31-.39.69-.29,1.21-.83,2.41-1.82,3.22-2.84,2.13-6.49-.06-8.9-1.83,0,0,.07-.1.07-.1h0Z"/>
    <path class="cls-3" d="M94.32,84.15c3.32,4.06,7.29,7.77,11.96,10.17,1.37.65,3.24,1.77,4.53.41,0,0,.11.06.11.06-.81,2.05-3.64,1.32-5.18.65-1.72-.73-3.13-1.94-4.49-3.11-2.73-2.38-5.06-5.14-7.03-8.12,0,0,.1-.07.1-.07h0Z"/>
    <path class="cls-3" d="M163.01,13.99c.8,1.45,2.27,2.43,3.65,3.26,0,0-.29.05-.29.05,2.25-2.66,5.8-3.86,9.22-3.78,0,0-.3.9-.3.9-3.52-2.22-7.45-4.44-10.37-7.43-.65-.95-.25-2.18.25-3.05,0,0,.11.05.11.05-.16.62-.25,1.27-.13,1.84.1.65.54.87,1.05,1.22,1.92,1.25,4.63,2.96,6.46,4.29.94.67,3.66,2.6,4.57,3.24-2.13-.14-4.4-.26-6.43.49-1.57.54-3.09,1.43-4.21,2.66-1.44-.99-2.92-2.09-3.68-3.7,0,0,.11-.05.11-.05h0Z"/>
    <path class="cls-3" d="M187.41,4.53c.07,1.3.5,2.36-.64,3.27-2.59,2.26-5.48,4.05-8.43,5.82,0,0-.3-1.05-.3-1.05.97-.09,1.87-.04,2.8.12,2.71.49,5.24,2.23,6.47,4.71,0,0-.1.07-.1.07-.66-.6-1.29-1.18-2.01-1.64-2.74-1.91-6.27-2.31-9.51-2.17,3.72-1.76,7.48-3.76,10.82-6.18.21-.18.42-.35.59-.55.31-.65.18-1.65.2-2.4,0,0,.12-.01.12-.01h0Z"/>
    <path class="cls-3" d="M171.2,33.22c1.83-2.85,1.17-6.43,2.43-9.52.73-.82,1.08-1.77.89-2.84,0,0,.08.16.08.16l-5.63-5.38-.37-.35c4.71-3.08,13.3-4.2,17.59.08,0,0-.5.46-.5.46-2.14,2.22-6.12,4.11-5.36,7.65,0,0,.1,1.15.1,1.15l.21,2.3c.14,1.53.25,3.07.34,4.61l-.12.02c-.59-3.02-1.24-6.08-1.62-9.16-.04-3.43,3.46-5.39,5.59-7.53,0,0-.05.91-.05.91-3.1-2.5-7.77-2.48-11.51-1.6-1.32.34-2.64.84-3.78,1.51l.06-.63,5.48,5.53c.07.07.08.06.08.16.18,1.16-.26,2.39-1.06,3.18-1.28,2.92-.83,6.65-2.75,9.36,0,0-.1-.08-.1-.08h0Z"/>
    <path class="cls-3" d="M174.77,20.76c1.29-1.54,4.63-1.29,5.05.94,0,0-.09.09-.09.09-1.56-.08-2.17-1.24-3.62-1.23-.42-.02-.84.13-1.27.31l-.08-.1h0Z"/>
    <path class="cls-3" d="M167.43,16.54c2.23.6,4.35,1.35,6.21,2.85.18.17.47.45.44.85-.03.43-.51.64-.85.59-.64-.07-1.05-.22-1.51-.15.01-.02.06-.04.07-.08.02-.04.06-.11.04-.15.02,0-.01-.04,0,0,.24.76,1.23,1.73,1.74,2.5,0,0-.08.1-.08.1-1.06-.41-3.58-1.7-2.74-3.22.63-.83,1.95-.34,2.59-.1-.19.02-.42.34-.31.54-1.36-1.62-3.69-2.68-5.65-3.61,0,0,.04-.12.04-.12h0Z"/>
    <path class="cls-3" d="M186.28,17.01c-.67.29-1.26.63-1.75,1.07-.49.6-.87.89-1.73,1.08,0,0-.11-.07-.11-.07-.18-.96.48-1.63,1.31-1.86.73-.31,1.51-.43,2.25-.34l.02.12h0Z"/>
    <path class="cls-3" d="M174.08,5.95c.09.8.38,1.52.97,2.05.71.48,1.19.86,1.62,1.72,0,0-.04.12-.04.12-.53.16-1.01.04-1.44-.17-1.14-.75-1.71-2.46-1.24-3.74,0,0,.12.02.12.02h0Z"/>
    <path class="cls-3" d="M189.82,62.32c-1.17,5.14-.41,10.43-.43,15.67-.06.54-.07.63.15,1.16.53,1.1,1.39,2.39,2.31,3.13,1.54.15,3.22.03,4.83.11,1.27.06,2.57.04,3.84.41,0,0-.03.12-.03.12-2.84.07-5.7.77-8.62.65-.43.02-.96-.3-1.21-.59-.97-1.03-1.64-2.11-2.16-3.42-.18-.42-.27-1.1-.13-1.64.17-3.93.01-7.96.55-11.89.17-1.27.37-2.54.8-3.75l.12.04h0Z"/>
    <path class="cls-3" d="M217.84,63.03c-.2,5.24-.74,10.69.2,15.86,0,0-.11.06-.11.06-1.86-2.18-1.79-5.29-1.44-7.95.28-2.7.78-5.34,1.23-7.99h.12Z"/>
    <path class="cls-3" d="M220.97,43.55c.27,3.62.34,7.3,1.61,10.69.35,1.1.83,2.13,1.5,3.2l-.08.09c-2.39-1.19-3.29-4.1-3.34-6.58-.17-2.5,0-4.96.19-7.41,0,0,.13,0,.12,0h0Z"/>
    <path class="cls-3" d="M222.53,20.96c.15,2.25-.31,5.46-.54,7.72-.15,1.28-.2,2.57-.49,3.82-.27,1.26-.6,2.48-1.02,3.73h-.12c-.27-1.32-.2-2.64-.09-3.92.27-2.22,1.12-5.33,1.52-7.56.26-1.26.54-2.51.62-3.78h.12Z"/>
    <path class="cls-3" d="M189.94,87.19c.46,8.37.7,16.75.94,25.13.12,4.19.31,8.38.26,12.57-.1,4.19-.11,8.38-.59,12.58h-.12c-.51-8.38-.68-16.75-.54-25.13.1-7.31-.2-18.16.06-25.14h0Z"/>
    <path class="cls-3" d="M163.24,70.96c.68,8.61-.29,17.24-.92,25.82-.35,4.29-.69,8.59-1.12,12.85-.44,4.28-.9,8.59-1.93,12.8,0,0-.12-.02-.12-.02.32-4.3.59-8.58.81-12.88,1.1-12.8,3.31-25.93,3.28-38.58h0Z"/>
    <path class="cls-3" d="M147.73,67.41c-1.68,8.96-3.57,17.89-5.46,26.81-1.88,8.85-3.64,18.18-6.21,26.64.96-9.09,3.04-18,5.23-26.86,1.96-7.72,4.39-19.24,6.44-26.59h0Z"/>
    <path class="cls-3" d="M233.57,65.14c2.06,1.41,3.91,3.72,6.47,4.03,1.23.16,2.51-.08,3.81-.11,1.3-.04,2.62-.11,3.98.04l.02.12c-3.65,1.56-8.64,2.02-11.57-1.15-.95-.95-1.84-1.91-2.79-2.84l.08-.09h0Z"/>
    <path class="cls-3" d="M261.68,74.63c-.45.12-.9.25-1.26.49-.78.52-1.01,1.5-1.67,2.18-1.71,1.82-4.22,2.74-6.69,2.38,0,0-.02-.12-.02-.12,2.27-1.57,5.38-1.42,7.04-3.82.56-.82,1.61-1.25,2.58-1.23,0,0,.02.12.02.12h0Z"/>
    <path class="cls-3" d="M255.61,89.32c2.22-3.3,4.19-6.77,6.02-10.3.3-.47.47-1.05,1.03-1.34,1.16-.29,1.14,1.61,1.26,2.26.32,4.05-.67,8.11-2.18,11.84,0,0-.12-.03-.12-.03.23-2.29.58-4.52.81-6.76.18-2.1.64-4.45.2-6.48.06.11.36.15.42.07-1.2,1.61-2.17,3.61-3.32,5.26-1.26,1.91-2.61,3.75-4.01,5.55l-.1-.07h0Z"/>
    <path class="cls-3" d="M266.9,78.18c-.53,3.99-1.5,8.08-.79,12.05.75,2.36,3.8,2.19,5.81,1.59,6.42-1.88,9.37-8.74,12.78-13.67-2.07,6.11-5.69,13.01-12.51,14.64-3.97.99-7.44-.16-6.94-4.91.16-3.32.89-6.52,1.54-9.72,0,0,.12.02.12.02h0Z"/>
    <path class="cls-3" d="M293.1,80.37c-1,1.58-2.28,3.16-3.87,4.17-.58.28-1.21.49-1.93.45l-.05-.11c.76-1.11,1.71-1.73,2.84-2.34,1.02-.66,1.98-1.42,2.91-2.25l.1.08h0Z"/>
    <path class="cls-3" d="M289.47,89.17c-5.49,2.28-11.39,4.32-16.02,8.1-1.1.97-1.72,2.23-.36,3.05,2.07,1.19,4.67.58,7.03.31,1.96-.32,3.92-.72,5.88-1.16,3.92-.83,7.81-1.89,11.74-2.83l.04.12c-3.71,1.63-7.57,2.87-11.49,3.93-1.97.49-3.96.92-5.99,1.17-2.47.2-5.48.73-7.75-.76-1.09-.71-1.51-2.11-.71-3.21,1.56-2.14,4.09-3.24,6.33-4.4,3.67-1.73,7.47-3.11,11.28-4.43,0,0,.04.12.04.12h0Z"/>
    <path class="cls-3" d="M256.27,92.72c-2.85.84-5.73,1.6-8.67,2.14-2.03.36-4.25.9-6.31.17-1.76-.81-.36-2.08.86-2.42,0,0,.07.11.07.11-.26.28-.53.53-.72.82-.09.09-.32.54-.18.46.06.03.44.13.75.13,3.24,0,6.55-.31,9.78-.83,1.47-.21,2.93-.44,4.39-.7l.03.12h0Z"/>
    <path class="cls-3" d="M244.25,85c-1.82.49-9.88,3.53-10.39.68.06-1.17,1.06-1.58,1.92-1.91,0,0,.07.1.07.1-.33.5-.95,1.16-.9,1.65.02-.02,0-.06.02-.05,3.03.54,6.19-.23,9.25-.6,0,0,.03.12.03.12h0Z"/>
    <path class="cls-3" d="M234.97,78.19c-1.57-.08-3.54-.32-4.48-1.84-1.08-1.74.76-3.87,2.37-4.3,1.1-.33,2.25-.35,3.32-.08,0,0,0,.13,0,.12-2.02.76-7.35,2.31-4.06,4.89.81.57,1.84.84,2.86,1.08v.12h-.01Z"/>
    <path class="cls-3" d="M301.45,91.7c1.65-.23,2.93-1.4,4.51-1.96,1.56-.62,3.26-.77,4.9-.81,4.12-.18,8.25-.46,12.22-1.55,2.81-.49,5.78-.37,8.41-1.49,1.94-.88,4.16-.86,6.23-.89.84.06.97-.56,1.08-1.22,0,0,.05-.48.05-.48l.47.08c1.18.16,2.52.41,3.6-.13.33-.15.46-.47.43-.47l.56-.63c.78.16,1.52-.21,1.1-1.01-1.63-2.53-5.09-2.49-7.93-2.57-4.61-.06-9.26-.11-13.87.09-.61.01-1.15.21-1.82-.06-.64-.3-.68-.68-1.22-.86-2.76-.67-5.5,1.22-8.32.76-2.64-1.13-5.39-1.45-8.23-.99-1.01.12-2.08.21-2.83.93,0,0-.09-.09-.09-.09.72-.83,1.87-1.02,2.86-1.21,1.03-.17,2.03-.36,3.1-.43,2.11-.25,4.02.79,6.04,1,2.53-.3,5.17-1.66,7.82-1.06.66.16,1.2.86,1.33.85,5.05-.33,10.18-.33,15.25-.13,2.1.1,4.32.12,6.28,1.08,1.4.61,3.78,2.57,2.21,4.27-.58.47-1.23.48-1.9.37,0,0,.56-.63.56-.63.23,2.49-3.56,2.08-5.11,1.77,0,0,.52-.39.52-.39-.08,1.03-.77,2.11-1.93,1.98-1.64,0-3.26-.05-4.84.35-3.1,1.32-6.46,1.4-9.73,1.78-4.03,1.01-8.19,1.2-12.31,1.29-1.65,0-3.29.11-4.83.69-1.54.51-2.87,1.67-4.57,1.87l-.02-.12h0Z"/>
    <path class="cls-3" d="M303.63,81.11c3.33-.62,6.89-.35,10.13.54,1.05.31,2.11.55,3.22.92v.12c-1.14.32-2.32.34-3.48.18-1.16-.15-2.2-.63-3.26-.91-2.12-.59-4.36-.72-6.61-.73v-.12h-.01Z"/>
    <path class="cls-3" d="M323.18,83.16c2.71-.45,5.43-.81,8.18-1.02,2.41-.21,5.03-.43,7.26.75.3.2.68.5.68.92l-.12.02c-.17-.27-.46-.35-.77-.42-.97-.16-1.96-.13-2.95-.14-2.69-.07-5.43-.23-8.15-.1-1.37.02-2.74.06-4.11.11,0,0-.01-.12-.01-.12h0Z"/>
    <path class="cls-3" d="M328.4,81c2.64-.48,5.32-.78,8.02-.85,2.35-.07,5.06-.15,7,1.45.26.26.51.65.44,1.03h-.12c-.62-1.03-2.34-.88-3.42-1.07-2.6-.3-5.26-.59-7.9-.52-1.33-.01-2.67.02-4.01.09,0,0-.01-.12-.01-.12h0Z"/>
    <path class="cls-3" d="M341.07,78.36c-2.46.05-4.89.32-7.31.65-2.44.4-4.97.79-7.4-.02,0,0,.01-.12.01-.12,2.44-.55,4.81-.87,7.3-.85,2.46-.09,4.96-.11,7.41.23v.12h0Z"/>
    <path class="cls-3" d="M321.81,78.19c-2.38.59-4.91.98-7.36.81-.82-.14-1.63-.35-2.4-.81l.02-.12c1.66-.45,3.22-.33,4.86-.1,1.61.13,3.22.16,4.86.1l.02.12h0Z"/>
    <path class="cls-3" d="M45.97,88.69c-5.24-2.44-11.07-3.03-16.74-3.84-1.43-.12-2.89-.57-4.21-1.15-2.04-.88-4.06-1.33-6.24-1.63-.8-.29-1.33-.9-1.84-1.35-1.02-.99-2.3-1.35-3.7-1.41-1.42-.13-4.26-.06-3.4-2.33,0,0,.05-.25.05-.25,0-.05,0,0,0,0-1.43-.81-5.34-.26-4.64-2.99,2.33-5.3,18.8-1.11,23.42-.64,0,0-.68.68-.68.68-.09-5.9,6.72-2.4,9.77-1.77.79.16,1.89.09,2.69.07,2.66-.03,6.24.16,7.51,2.92,0,0-.11.05-.11.05-1.79-2.93-5.81-2.34-8.75-2.15-2.66.61-10.13-4-9.89.74,0,0,.07.77.07.77l-.75-.09c-6.99-.66-14.19-3.3-21.1-1.39-.76.29-1.52.91-1.24,1.66,1.03.83,2.63.63,3.88,1.2.19.1.45.22.62.57.13.29.04.55-.02.81-.1.36-.17.71-.12.73.61.49,1.87.47,2.71.58,1.48.07,3.09.58,4.15,1.68.54.51,1,1.02,1.58,1.23,2.12.28,4.27.87,6.21,1.75,3.95,1.74,8.42,1.6,12.58,2.71,2.81.64,5.62,1.4,8.2,2.72,0,0-.06.11-.06.11h0Z"/>
    <path class="cls-3" d="M37.01,72.37c-1.54-.3-1.92.97-1.71,2.22-.3,0-1.71,0-2.04,0-1.6.09-3.19-.07-4.66-.81,0,0,0-.12,0-.12,2.05-.73,4.21-.17,6.28.15,0,0-.42.4-.42.4.05-.68.24-1.32.75-1.79.5-.47,1.24-.41,1.82-.17,0,0-.03.12-.03.12h0Z"/>
    <path class="cls-3" d="M24.87,74.86c-5.87-1.23-11.82-2.62-17.85-2.23,0,0-.05-.12-.05-.12,2.75-1.7,6.2-1.1,9.14-.38,2.99.68,5.9,1.62,8.79,2.6,0,0-.03.12-.03.12h0Z"/>
    <path class="cls-3" d="M5.94,73.35c3.23-.53,6.51-.06,9.72.37,3.23.42,6.51,1.13,9.25,3.02,0,0-.05.11-.05.11-2.81-.53-6.67-1.41-9.38-2.15-3.12-.65-6.31-1.4-9.51-1.23,0,0-.02-.12-.02-.12h0Z"/>
    <path class="cls-3" d="M10.28,76.78c.76-2.24,4.28-1.79,6.13-1.56,2.24.26,4.38,1.03,6.1,2.53,0,0-.05.11-.05.11-2.22-.25-4.17-1.01-6.25-1.67-1.66-.38-4.8-1.22-5.81.61,0,0-.12-.03-.12-.03h0Z"/>
  </g>
  <g>
    <path class="cls-4" d="M96.13,42.61c.31-1.19.82-2.7.76-3.91-.02-.14.28-2.91.28-3,.11-1.53,1.14-1.2,1.99-1.51.09-.1.78-.43.73-.49-.12-.12-.05-.99-.21-1.13-1.76.81-1.03-1.79-1.07-2.84.54-5.68,9.69-4.24,7.17,3.33-.24-.03-.69.25-.69.49-.47,1.59,1.87.39,2.18,1.99,1.22,5.24,1.32,10.05,1.8,15.19.15.64-.44,2.04-.99,2.3-.14.92-.29,2.92-.42,3.92-.25,4.59,1.1,6.22-.62,11.36-.46,1.41,0,2.67-.28,4.31-.02.46-1.23.18-1.44.21-.27-.6-1.36-.02-1.09-1.11.48-.24.43-.96.5-1.49.19-.83.24-2.19.14-2.96-.09-2.32.05-4.6-.57-6.95-.33-2.51-.65-5.87-1.21-8.26-1.4.58-1.21,3.84-1,4.99.3,1.25-.29,2.07.14,3.66.66,2.38.62,4.57,1.32,6.79.96.89-.12,2.95-.75,3.48-.28.83-1.56.81-2.18.64-1-.99,1.21-1.84,1.28-2.86-.29-1.78-2.54-6.42-2.94-7.97-.76-3.57-1.55-7.55-1.25-11.38.17-2.41,1.42-4.38.92-6.58-.07,1.61-4.53,4.52-4.75,5.59-.12.26-.62,2.25-.88,2.17-1.36-.42-.57-1.67-.73-2.56-.1-.16-.71.12-.55-.1.38-.65.87-.54,1.26-.99.73-1.1,2.53-3.26,3.15-4.33Z"/>
    <path class="cls-4" d="M336.43,44.36c1.12-.71,3.16.07,3.54,1.33.17.64.19,2.07.29,2.14.1.07.29.21.17.48-.12.26-.31.97-.55,1.05-.24.07-.45-.05-.55.24-.1.29-.45,1.31-.29,1.55.4.51,1.86,1.3,2.28,1.74.52.41,1.12,3.38,1.45,3.71.12.19.36.5.12.64-1.28.17-.34,1.75-.64,2.76-.55,1.57-1.26,2.9-1.66,4.26.04,1.12-.16,2.57-.14,3.78,0,.57.05,2.57-.29,2.95-.17,0-.49-.12-.45,0,.22.83-.62,2.95-.69,3.71.35.46.28,1.42.31,2.04.05.36.38,2.26.1,2.57-.69.62-1.59,1.51-2.43.71-.62-1-.13-2.53-.26-3.42-.27-.57.1-2.09.69-2.31-.16,0-.66-3.38-.45-3.42-.08.06-1.05-.13-1.09-.31-.53,1.52-.64,4.16-.93,5.78-.04.6.2,1.39.43,1.88-.12.39-.15,1-.43,1.31-.89.36-2.31.06-2.58-.89.12-.4.65-1.01.89-1.31.22-.33-.14-2.06-.14-2.29-.17-.43-.04-3.92.29-4.42-2.3-.5-1.89-.67-1.62-2.78.27-1.06.04-2.23.33-3.26.14-.23.34-.62.3-.77-.19-.34-.05-.8.19-.97,0,0-.57-.14-.59-.21.17-.73.43-1.69.69-2.44.39-1.75.6-4.33.69-6.06-.16.16-1.73.64-2.01.48-.58.28-.02-1.84.24-2,1.26-.86,2.02-2.75,3.71-2.19.06-.06.38-.14.44-.11.1-.02-.09-.75-.16-.75-.6.5-1.17-1.19-.82-1.49.12-.02.33.04.29-.09-.51-1.12.18-2.94,1.34-3.57Z"/>
    <path class="cls-4" d="M241.36,54.67c1.87-3.8-.83-6.57.49-9.3.32-1.32-.62-3.75-.82-5.09.32-3.97-.78-5.34-3.57-7.89-.2-.31.38-.4.75-.9,1.47-2.89-1.5-7.34-4.89-5.36-.59.41-2.76,2.88-1.39,3.68.2.16.2.4.18.6-.04.51-.62,1.03.23,1.08.23.02.1.31.08.48-.02.16.15.27.26.31.11.04.07.18.07.27.2.25.5.62.68.97.64.34,1.75.14.31.66-1.18.98-1.57,1.85-.86,3.37.38,1.97.09,4.3.2,6.54,0,.73-2.55,4.77-2.86,5.27-.5,1.07-.14,1.38-.76,2.66-.27.56.22.73.37,1.03.4.53.45.44,1.1.46.24.02.34-.73.17-1-.07-.52,1.12-2.03,1.37-2.34.1-.07-.39,2.81-.51,3.12-.12.32-.02,3.17-.22,3.74-.65,2.51-.92,6.47.2,8.86.12.34,1.29,2.51,1.49,2.86.48,1.02.63,2.23,2.06,1.96,1.35-.22.29,1.78.15,2.31-.09.2-.42,1.57-.62,1.92-.2.35-.84.68-1.06.82-.69.68.2,1.37,1.01,1.28.37.04,2.58-.33,2.78-.49.88-.74,2.69-1.96,3.86-2.64.4-.68-1.31-2.04-1.63-2.58-.15-6.13-1.09-10.51,1.39-16.66ZM236.11,64.35s-1.42-1.34-1.37-1.68c.05-.34.42-1.15.29-1.42-.38-.71.16-1.56.71-1.78-.57,1.44.48,3.49.37,4.88Z"/>
    <g>
      <path class="cls-3" d="M246.58,32.63c-1.2-.79-1.39-2.31-1.31-3.62-.26-1.68.41-3.79,2.3-4.2,3.36-.66,3.52,1.96,3.3,4.55-.1.56-.4.68-.69,1.11-.08.3.1,1.12.06,1.36.32,0,1.54.03,1.73.23,1.05-.2,2.08.81,3.05,1.18,1.19.42,1.86,1.51,1.99,2.73.24.5.77.65.34,1.22-.07.28.09.24.19.51.17.47.04,1.04.22,1.56.34.97,1.02,2.14,1.6,3,1.66,2.49,1.71,6.12,3.64,8.38.53,1.21.3,1.83-.88,2.47-.41.53-1.66.83-2.39.91-1.04.46-2.35.31-3.35-.01-.2.53-.11,1.23-.44,2.16-.16.46-.55,1.19-.6,1.41-.93,2.88-.44,5.58-.13,8.49-.2,2.22-.76,4.56-.35,6.76-.26.4-.39.86-.38,1.34.13.86-.76,2.05-1.7,1.17-.36-.59-.25-.89-.38-1.3-.29-.29-.34-.89-.39-1.27-.44-3.83-.66-7.75-1.32-11.59-.06-1.99-.03-3.98-.32-5.9-.65,1.35.09,2.92,0,4.34.05,1.2.21,2.67.14,3.93-.28,3.95.57,8.07.94,11.95.07.42.16,1.78.09,2.16-.05.02-.28.08-.28.08,0,1.82.17,2.04-1.87,2.1-.38-.08-.53-.52-.88-.68-.39-.15-.59-.48-.51-.86-.11-1.37-.9-3.03-1.2-4.43-.28-1.36-.33-4.45-.39-6.12.06-2.1-.21-4.24-.32-6.29-.09-.09-.53-.83-.55-.93-.29-.79-.41-1.84-.91-2.53.09-.27-.22-.54-.47-.58-.19,2.3-.03,4.68-.42,7.01-.18,1.55-.95,3.33-.42,4.89.14,1.49-.8,2.99-.62,4.52.03.07,0-.04.04.26-.38,1.95.62,1.22.83,2.72,0,1.07-2.5,2.16-2.86.86-.39-.42-.48-1.27-.66-1.85-1.14.09-2.07-.26-1.82-1.59-.03.04-.06.07-.11.06-.27-.65,1.08-1.07.61-1.59-1.17-.22-.78-2.74-.93-3.7-.28-1.39-.33-2.82-.4-4.23.17-.6.32-1.09.02-1.68-.51-2.75-2.11-5.34-1.28-8.21.13-.33-.27-.41-.27-.7.04-.47.12-1.03.2-1.43-1.02.73-1.86-.94-1.9-1.79-.23-1,.13-1.43.34-2.31.14-.78.27-1.25.46-1.94.19-.62-.44-1.28-.31-1.89.15-.76.99-.38,1.5-.67.1-.06.34-.48.46-.42.18.06.42-.06.58-.13.05,0,.51-.13.52-.26.01-.13.13-.28.13-.28-.94-.83-1.93-2.74-1.49-4.1.62-1.64,2.99-2.34,4.39-1.48,1.08-1.98,2.36-3.5,4.64-4.17.41-.19,1.17-.18,1.19-.65Z"/>
      <path class="cls-1" d="M278.59,37.8c-.09,2.83,1.98,12.5-3.25,6.99-.23.21-.42,1-.27,1.33.02.19-.2.32-.06.44.47.35-.15.59.04.85.42.06-.25.59-.09.84.07.23.32.34.34.66.02.32-.27.44-.15.61.11.17.27.36.27.72.08,2.65-.18,6.08.21,8.66-.07,1.2-.29,2.53-.68,3.72-.04.34.05,2.2,0,2.41-.04.21-.16.17-.33.11-.17-.06-.97-.09-1.16-.06-3.43-.57.28.99-2.89,8.83.02.19.56,1.1.72,1.2.08,0,.59.11.36.4-.92,1.18-2.13,2.55-2.58,3.89.02-.12.44.75.46.68,0,0,.27.15.19.32-.08.17-.25.82-.49.87-.25.06-2.3.09-2.53-.21-.27-.5-.36-.22-.68-.44-.06-.13-.21-.97-.11-1.18.07-.47.47-.49.65-.82.19-.49.06-.82.28-1.29.21-.46.72-.88.8-1.42-.02-.48.16-1.33.29-1.79-.37-1.49-1.86-3-2.64-4.26-1.45-1.82-2.15-5.22-2.53-7.33-1.47.07.43-6.48.47-7.48.07-1.56.39-4.53,1.39-5.68.04-1.21.36-2.8.61-3.97-.11-.51.12-2.14.13-2.53-.55.38-1.53,1.5-2.37,1.03-.44-.4-1.36-1.53-1.14-2.24.1-.45.2-1.12.63-1.39.25-.17.4-.21.49-.46.27-.93.91-2.01,1.08-3.1,1.24-6.5,2.13-3.06,5.17-4.92-.45-.65-.42-1.73-.57-2.45-.23-.68.11-1.13.28-1.88.07-1,.24-1.79.99-2.58,1.75-1.47,4.97-.23,4.67,2.37-.31,1.61.34,1.55-.25,2.64-.79.29-1.39,1.7-.59,2.39,1.08.51,1.92,1.3,2.87,1.92,1.43.31,1.85,2.14,1.98,3.55Z"/>
      <g>
        <path class="cls-4" d="M293.91,41.89c-.44,1.33-1.34,3.73-1.06,5.02-.12,2.28.32,4.74.79,6.96-.66,1.75.25,3.83.43,5.89.04,1.73-.21,4.13-.48,5.37.09.19.66,1.95.59,2.38-.07.43-.13,1.02,0,1.16.32.45.25,1.88.49,2.54.16.47.74,2.83.55,3.11-.19.28-.35.88-.33,1.17.02.29.45.81.37.95-.09.14-.19.07-.12.29.55.78-.28,1.14-.48,1.99-.1.54-.12.98-.33,1.04-.68.06-3.26.61-3.59-.52.04-.49.86-.22,1-.76.1-.16.14-.31.1-.48-.03-.17.24-.62.02-.59-1.04.53-2.49.6-3.59.41-.68.39-1.11-.23-1.78-.31-1.86-.49.34,1.31-.78,1.55-.55.15-1.43.06-1.9-.16-.37-.06-.68.19-1.1-.21-.65-.24-.64-.76-.36-1.09.05.07,1.31-.15.97-.36-.19-.12-.55-.19-.66-.28-.23-1.34,0-3.96.35-5.27.02-.12-.09-4.18-.16-4.28-.17-2.45-.3-6.88-.21-9.55.43-2.96,1.08-6.67,2-9.24-.3-.79-.3-2.57-.1-3.28,0-.1.45-.57.29-.67-1.48-.67.19-3.75.25-4.84.24-.62.67-3.22.94-3.94.16-.16.36-.81.52-.83.6-.36.03-.82-.38-1.1-.78-.38-.08-1.29-.22-1.88-.99-.43-.76-.86-.26-1.24.15-.6-.53-2.04-.24-2.62.85-.98,2.64-1.41,3.95-1.48,2.86.25,3.08,6.14,4.28,7.96.87,1.09.99,2.96,1.09,4.33-.03.41-.81,2.73-.85,2.87Z"/>
        <path class="cls-4" d="M288.78,43.52c-.48-2.78-1.23-5.91-2-8.67-.6-1.18-2.44-.7-2.59-2.04-.19-2.23-.6-5.18-1.59-7.22-1.32-1.43-4.48-1.43-5.15.79-.24.48-.45,2.35-.45,2.73-.14.94.81,4.17-1.07,4.28-.59.24-.38.1-.86.83-.48.73-.38,2.31-.27,3.07.17,1.72-.53,5.44-.59,6.98.03.38,1.11.93,1.28.9.17-.03-.24,1.17-.22,1.45s-.26,2.11-.3,2.31c-.18.8.13,1.41-.28,2.21-.38,2.92.46,7.68.45,11.02.07,4.19.34,8.98,1.5,12.8-.56.56-.25,1.25.1,1.93.03.49-.44,1.6-1.05,1.66-.67-.01-1.33.96-.71,1.42.35-.03,2.49.27,2.75-.21,2.07-.02.6-.16,1.54-.86.1-.1-.19-.1-.31-.16-.12-.05-.12-.24-.03-.35.09-.1.03-.86,0-1.04-.1-.34.11-1.41.05-1.78.14-.55.44-1.37.28-2.04-.4-1.29-.33-1.79-.47-3.35,0-2.04-.89-4.73-.28-6.63.37-1.3.21-3.44.41-4.84.29-1.27.6-3.09,1.19-4.21.86,1.12.16,4.97.14,6.6-.04,1.17-.05,2.96.21,4.09.29.78.63,1.28.55,2-.03,1.82-.37,5.2-.52,7.06,0,.28.21.69.33.93.12.24-.28,1.36-.28,1.47-.41.54.12,1.18-.19,1.78-.1.24-.73.97-.85,1.12-.12.32.15.55.07.88,0,.12.52.19.66.19s.57-.1.71-.19c.14-.09.19.14.26.22.4.1,1.37.41,1.36-.38.1-.38.34-.82.1-1.21-.09-.12-.1-.29-.02-.35.13-.17.09-.75.26-.97,1.1-4.29,1.35-9.88.67-14.28.2-2.81,1.58-7.02,2.23-9.79,0-1.23-.34-3.6-.59-4.66-.07-1.64-1.29-3.61-.71-5.21.42.5,2.05,1.38,2.73,1.47,1.2,1.07,1.82-.62,1.53-1.78ZM284.6,41.73c-.12-.17.19-.55.22-.66.03-.1.26-1.23.26-1.33.55-2.61,1.12,2.21,1.4,2.81.09.45-1.76-.66-1.88-.83Z"/>
      </g>
      <path class="cls-4" d="M262.12,76.99c-.19-.08.02-.42,0-.61-.44-.76-.97-1.59-1.21-2.55-.39-1.76-.9-4-1.84-5.61-2.11-2.13-2.42-1.75-2.34-4.87.04-.25,1.13-.17,1.44-.33.2-1.31-.93-4.07-.94-5.38,0-.13-.29-1.19-.36-1.34-.06-.15.25-1.44.4-1.67.33-1.75.22-5.11.62-6.9.19-2.39-.84-5.82-1.77-7.91-.83-.79-2.74-1.12-3.61-2.41-.62-1.26.55-1.66.52-3.63.19-2.2-2.04-2.5-3.77-2.12-3.14,1.01-1.64,5.27-.01,6.92-.1,1.63-1.57,1.05-2.05,2.57-.17,2.11,0,5.09-.35,7.25-.68,1.14-1.51,2.77-1.95,4-.38.63-1.06,1.97-1.66,2.45-.34.23-.82,2.3.03,1.53.2.7-.07,1.35-1.03,1.45-.11.04.14.18.25.17.11-.01-.32.45-.39.56.22.29,1.25-.69,1.58-.82.17-.11.57-1.32.63-1.55.13-1.09,1.39-2.46,1.95-3.18.08.59-.31,2.08-.56,2.75-.04.24-.32,2.4-.34,2.68-.02.28-.52,2.51-.69,3.01-.37.59.52.9.71.71,0,0,.33,1.88.66,2.38.47,1.46-.24,6.17.05,7.66.13,1.11.3,3.99.44,5.4.06,1.12-.77,1.51-1.34,2.22-.39.41-1.57.27-1.32,1.11.06.08.88.27,1.11.29.37.05,1.61-.35,1.82-.13.06.04,1.57-.13,1.74-.13s.13-.27.08-.38c-.04-.1.08-.44.17-.65-.7-2-.21-4.3.31-6.82.34-1.93.07-4.69.19-6.11.2-.68.57-3,.67-3.64.49,0,2.36.04,2.82.04.08.27,1.04,3.55,1.19,4.06.54.89,1.59,1.05,2.15,2.05,1.35,2.17,3.55,4.6,4.12,7.15-.14,1.52-1.87,2.39-2.45,3.68,1.42.92,3.17.06,3.62-1.63.04-.19.06-.36.44-.25.61-.07,1.03-1.26.27-1.49ZM255.97,47.79c-.16.55-.39,1.7-.69,2.03-.37-.85.13-2.73.54-3.49.04.19.25,1.13.15,1.46Z"/>
      <path class="cls-1" d="M252.08,28.21c1.43-.9,3.95-1.22,4.69.7.41,1.68-.21,3.33-.28,4.71.25.83,2.56,1.34,3.18,1.67.99.86,1.66.55,2.37,2.01,1.19,4.7,2.75,10.61,2.82,15.51-.4,1,2.52,2.53,1.59,3.29-.42-.12-.51.57-.84.67-.17.08-.17.17-.5.28-1.58.39-1.68-1.05-1.95-2.04.23-.64-.55-4.68-.7-5.19-.77.85-.17,2.86-.45,3.9-.32,1.3-1.83,4.5-1.87,5.91.11.36,1.03,2.45,1.09,2.73.06.28.17,2.37.31,2.57,1.55,3.23,2.87,7.93,4.21,11.24,0,.57.78,3.17.22,3.54-1.6.37-3.26.3-4.8.5-.82.08-3.35.28-2.68-1.03,1.38.06,3.07-.58,3.68-1.92-.03-.22.17-.42-.14-.36-.31.06-.5.17-.59-.2-.67-1.59-2.03-5.41-2.09-7.14-.78-6.17-1.17,2.23-1.48,3.24-.11.28-.53,3.1-.5,3.37s-.63,3.74-.61,4.1c-.03.67-2.27.44-2.49.23-.15-.14-.08-.34-.39-.34s-3.1.42-3.68-.67c-.59-1.09-.11-.92,0-.95.11-.03,1.17.42,1.78-.03,1.43-1.1,2.1-2.06,2.29-3.63-.14-.28-.53-.47-.36-1.03.17-.56.5-5.52.53-6,.03-.47-.42-4.04-.25-4.46.09-.94.95-2.83.84-3.68-.43-1.76-1.33-5.6-1.79-7.36-.06-.22-.45.56-.45.56,0,0-.86,1.59-.78,1.76.08.17,1.09.92,1.19,1.44.19,4.86-3.39.62-2.55-2.27.9-2.4,1.16-4.38,1.67-6.47.14-.31.78-1.78.81-3.37.06-2.29-.53-1.27-.47-2.87-.38-1.85-.65-3.69,1.23-4.88-.08-.17-.47-.5-.61-.75-.14-.25-.17-.39-.39-.33-.22.06-.75.17-.92-.08-.42-.74-.17-1.6-.75-2.15-.2-.03-.39-.11-.25-.56.33-.82-.13-1-.17-1.67.08-.63.32-2.32,1.28-2.48Z"/>
      <path class="cls-4" d="M78.41,70.15c-.7-3.7-.82-6.05.66-9.37,0-.37.15.15-.59,0-.74-.15-1.33.76-1.33-.14s-.66-2.82-.74-4.37c-1.86-5.74-3.16-6.87-2.44-13.28,0,0-2.88.52-2.95,0-.07-.52.22-3.32.66-4.35.44-1.03,1.55-5.76,2.66-5.98,1.11-.22,1.55-.44,1.25-.74-1.95-1.37-.47-5.92,1.03-7.23,1.6-1.33,4.84-1.21,5.17,1.25.15,1.11.59,1.62.81,1.99.22.37,0,1.25,0,1.48.19.84.4,2.72-1.11,2.73-.59,0-1.33.37-.74.59,2.36.02,2.97,3.64,3.17,5.39.15.89,1.99,5.09,2.58,5.9.59.81,1.03,3.84,1.4,4.43s2.58,1.99,2.07,2.66c-.52.66-1.55,1.2-1.84.67-.3-.52.3-1.04-.74-1.41-1.98-1.24-3.51-5.49-4.21-7.31-.79-3.38-.51,2.7,0,3.54.37.81,1.18,9,1.18,9.74s-.74,4.28-.96,4.43c-.22.15-.96,1.99-.96,2.8s-.52,5.31-.52,6.57-.74,2.66.07,3.39c.81.74,2.95.96,2.44,1.62-1,1.11-4.88.94-6.05.37-1.71-1.7.07-3.88,0-5.39Z"/>
      <path class="cls-1" d="M308.81,67.26c-.16-1.02-.32-5.36,0-7.18.31-4.08-.15-8.14-.02-11.67-.32-2.06-1.81-6.13-1.08-7.65,1.66,1.39,2.45,5.3,3.55,7.29,2.32,2.6.59,3.77,1.37,5.95,1.25,1.63,2.88.76,3.56-.59.51-.92-1.48-2.31-1.77-2.88-.61-1.27-1.09-4.41-1.54-5.68.11-.72-1.52-3.93-1.42-4.61.12-.16.6-.32.44-.75-.16-.43-2.33-5.28-2.92-5.76-1.39-1.18-5.77-1.53-4.99-3.94.13-.24.71-1.97.71-2.6-.15-5.81-7.44-2.41-5.36,1.79,0,.32.15,1.82.34,2.02.39.42.37,1.37.05,1.5-2.09.92-4.92,1.37-5.44,4.97-.24,1.81-.76,3.76-.6,3.86.16.11,1.08.34.95.68-.13.34-1.31,3.27-1.45,3.67-.19,1.44-.66,4.45-1.47,5.69-.92.49-1.23,2.1-1.31,3.05.09.48.48.11.55.53.08.03.33.06.4.03.07-.03.1.09.17.12.07.04.37-.03.39-.06.37.23.36-.02.55-.26.57.17.43-.6.61-.91.34-.46.45-1.53.43-2.06.91-1.69,2.18-3.31,2.88-5.5.31-1.13.35-2.47.85-2.82.46.56-.12,2.25-.16,2.88,0,.26-.06,1.75-.14,2.17-.08.41-.12,2.39-.02,2.5.41.32.14,1.58.32,2.07,0,2.37-.02,6.51.1,8.93.47,1.49.57,2.72-.41,4.06-.12.3-.55,4.06-.63,4.55-.32,1.39-1.57,6.5-.59,7.98.1.2.35.87.32,1.18-.04.32-.37,1.14-.12,1.22,1.42.32,3.29.29,4.59-.24,1.02-.91-.72-1.27-.79-1.99,1.19-1.77,1.28-5.73,1.72-7.69.37-3.34,1.53-9.24,2.03-12.46,1.16,5.54.45,13.25-.32,18.82.57,1.04.84,1.7.35,2.9-.23,1.31,1.82.96,2.64.73.67-.61,1.65-.88,1.73-1.77-.12-.28-.63-.73-.51-.89.12-.16.24-1.48.37-2.01.56-2.59.88-6.86,1.1-9.21Z"/>
      <path class="cls-1" d="M42.3,71.86c.04-1.73.47-5.25.44-6.88-.29-2.86-1.02-8.29-1.06-11.13-.96.1-.81,3.44-1.16,4.01-.13.34-.6,3.42-.54,3.98.39,3.78,1.11,8.99.71,12.68-.08.04-2.2.55-2.35.34-.39-.26-1.32-.44-1.29-1.02.47-.43.23-2.54.47-3.2.11-2.58-.69-5.59-.94-8.17.22-1.75-.42-5.81-.58-7.59.07-.38.16-4.93,0-5.02-.17-.09-.51-.43-.51-.64-.12-.79.87-6.36.28-7.02-.26-.02-.77-.13-.91-.68-.85-1.55-.54-7.51.38-9.1.21-.28,1.66-.66,2.15-.81,1.01-.19,2.39-1.26,2.4-2.21-.4-.52-.76-.68-.49-2.04-.61-4.4,5.34-4.5,5.4-1.35.02,1.6-.3,3.38-.93,4.74.69,1.09,3.08,1.2,3.87,2.17-.31,2.22,1.88,6.84-1.12,7.97.1,3.62.56,8.56.55,12.32-.03,3.39-.34,7.12-.66,10.47.03,2.31-.55,5.28-1,7.49-.24,1.51-.75,2.4.31,3.63.39,1.41-2.45,2.17-3.38,1.6-.61-.9-.05-3.56-.04-4.54Z"/>
      <path class="cls-4" d="M26.31,74.27v.72h-1.35s.16-.88,0-1.19c-.4-1.16.53-2.46.24-3.9-.12-.8-.64-3.07-.92-4.18-.38-1.61.22-6.11.16-7.25h-.76c-.55,1.45-1.8,3.57-2.31,5.77-.75,2.84-2.33,4.78-2.31,7.49-.08,1.41-.08,2.28-.49,3.09l-.53.17v-.38s-.32.4-.4.38c-.38-.12-3.82.57-2.34-.78,3.81-3.04,1.33-7.53,3.36-12.52.88-1.99,1.11-3.78,1.11-3.78,0,0-.73.88-.72.52.18-3.78.41-6.12.76-8.96-.87.23-4.05-.07-4.18-1.71.28-2.05,1.84-7.06,2.51-8.8.9-2.31.98-7.23,4.16-8.1,1.29-.3,1.65-.42,1.87-.6.93-.63.78-2.1-.1-2.59-.28-1-.86-1.82-.7-3.23,1.3-4.55,7.12-2.6,5.77,2.43-.07.61-.39,1.62-.82,2.23-.33.22-.62,1.58-.52,1.91.74.8,1.87.63,2.85,1.29,1.28.71.84,3.75.92,4.74.11,1.61,1,2.75,1.06,4.24-1.64,3.73-2.3-.56-2.03,5.71.38,1.59.97,6.79,1.15,8.34.02.22.66,3.19.38,3.19s-.78.28-.94.34c-.56.18-2.24-.29-2.71-.14-.08.8-.69,2.69-.86,3.58-.02.22.2,3.27.1,3.82.16,2.23-1.04,5.35,1.23,6.93,1.23.76,1.87,1.29,2.07,1.31.2.02.74.02.76.18.02.16.12.62-.1.64-5.12.29-2.11-.14-5.4-.92Z"/>
      <g>
        <path class="cls-4" d="M51.11,33.7c.54-.85,2.59-.62,2.71-1.77,0-.68-.09-1.24,0-1.66.12-.76.84-1.2.72-1.96-.09-.34-.3-1.41.02-1.96,1.33-1.99,5.29-1.78,6.2.13-.04.26.13,1.19.3,1.66,1.03,1.19,1.16,2.87-.38,3.75-.51.3-1.02.17-1.24.47-.21.3-.47.38-.47.38,1.77,1.01,3.57.58,3.83,3.24-.05,2.45,1.28,4.81,1.5,7.15.03.97.1,2.3-1.25,2.28-.22-.14-.38-.38-.58-.46-1.09-.45-.97-1.6-1.73-2.3-.6.67.2,2.02-.25,2.78,1.67,7.29,4.17,17.03-1.43,23.24-.68.75-.82,1.58-.65,2.52-.19.9-.04,1.68.46,2.45.14.66.23.88.6,1.38.42.08.4.25.87.43.89.27.29,1.37-.29,1.53-.34.22-.57,0-.98.26-.52.68-1.58.56-2.29.51-.56-.13-.22-.89-.46-1.24-.82-.69-1.06-1.74-.73-2.73-.44-1.22-1.91-3.29-.32-4.27-1.52-2.57.62-6.1-.62-8.72-.14-.22-1.01-1.77-1.09-1.97-.21-1.02-.72-2.5-1.21-3.4-.1-.41-.48-.88-.74-1.14-.04-.56-.23-1.17-.35-1.67-.3.09-1.12.22-1.4.2.13.11.36.55-.06.3.09.73.76,1.5,1.37,1.81.13.75-.88-.07-1.33-.18-.72-.36-.63-1.19-1.13-1.68-.05-.06-.04-.17-.14-.07-.1.1-.31-.04-.35-.12-2.06-1.61-2.98-2.77-2.97-5.53-.23-1.11-.72-2.5-.59-3.66.1-.92,2-2.13,2.77-2.64.7-.34,2.19-.68,1.3-1.79-.08-.08,1.36-1.07,1.39-1.15.12-1.1.12-3.46,1-4.41Z"/>
        <g>
          <path class="cls-1" d="M67.28,63.39c1.04,4-1.02,6.13-1.32,9.78.1,1.38-.12,1.74,0,1.84.33.14.29,1.17.18,1.46-.14.29-.4.43-.57,1.03-.17.6-.17.46-.27.51-.45-.16-4.33.03-3.6-1.05.41-.17.19-.67.59-.97.22-.17.57-.81.68-1.09.2-.42-.26-.41.08-.79.47-.51.72-1.71.97-2.43.17-1.69-.71-4.87-.43-6.53.03-.3.25-.97.19-1.24-.18-.33-.43-1.22-.29-1.52,0,0-2.7-.27-2.77-.29-.43.14-.54,1.49-.51,1.92.76,2.49-2.15,7.31-1.03,8.86l.03.36c-.12.06-.12.58-.08.65,0,0,.21.24.08.25-.13.02-.16-.05-.11.22.05.27.08.75.06.82,0,.19.24.39.02.62-.9.43-2.61.12-3.3-.6-.27-.1-1.05-.88-.71-1.25.34-.42.91-.39,1.3-.6.14-.26.42-.51.54-.81,0-.19-.06-1.66-.11-1.87-.66-4.19-.88-5.54.24-9.65,0,0-1.03-.29-1.08-.25-.05.03.06-.29.11-.48.38-1.53.76-3.38.65-5.07-.04-1.68.29-3.72.4-5.3.09-.69.3-1.61-.1-2.09-.78-.32-2.22-.99-1.73-2.16.42-.69,1.01-1.47,1.28-2.28.17-.76.78-.81.92-1.54,0-.33-.03-2.25-.17-2.55-.58-1.64-1.12-4.77.76-5.77.87-.07,2.33-.83,3.01-1.14.59-.38-1.15.24-.94-.48.14-.96-.68-1.15-.59-2.12.03-.57.47-.84.27-1.25-2.07-3.87,6.24-4.99,6.06-.84-.02.43-.05,2.55-.19,2.96-.14.41-.73.14-.63.36.08,1.43,1.77,1.12,2.68,1.63,1.37.89,2.55.08,3.61,2.27.93,2.4,2.64,5.87,2.3,8.37-.06.35-1.68,2.38-1.76,2.52-.08.14-.31.03-.41-.03-.63-.1-2.19.59-2.48,1.27-.35,1.97.71,6.39-.1,8.91-.38,1.59-1.34,6.11-1.15,6.37.5.8-.65.66-.59,1.05Z"/>
          <path class="cls-2" d="M68.54,33.07c.7.77.44,2.31.59,3.29.28,1.88-.37,3.86-.94,5.6-.36,2.38-.66,5.33.07,7.69.84,2.05,3.21,2.68,4.51.75-.23-2.68-1.34-5.93-1.87-8.59-.45-1.56-1.1-3.22-.89-4.89.02-.97-.04-3-.43-3.72-.02-.11-1.05-.13-1.05-.13Z"/>
        </g>
        <path class="cls-3" d="M43.1,51.12c-1.33-2.06-1.18-5.84-2.16-8.09-.96-1.77-1.03-3.9-1.89-5.68-.25-1.25-.11-2.53-.8-3.58-.12-.3-1.63-.58-1.93-.74-.63-.36-2.38-1.61-3.05-1.81-.14-.18-.18-1.36-.18-1.65.33-.73.56-.54.76-1.81.27-1.24-.42-.51-.69-.42.02-.09-.19-1.58-.32-2.05-1.26-2.47-4.9-.62-4.89,1.72.01.61.2,2.05.48,2.66.4.78.91,1.18-.05,1.66-1.24.83-2.92.7-4.13,1.65-.78.76-1.46,3.49-1.65,4.43-.51.91-.92,2.86-1.2,3.72.1-1.12.02-3.85-.27-5.24-.34-1.58.23-3.73-1.58-4.14-.59-1.09-.07-2.64-.28-4.07-.29-1.55-.57-2.58-1.66-3.81-3.64-2.64-4.48,3.15-6.02,5.21-.58,1.08-1.04,2.2-1.93,2.99-.45,1.26-.62,3.83-.8,5.26-.1,1.25-.56,6.72,2.04,3.97.21-.28.27,0,.35.11.09.11-.18.27-.25.37-.07.11-.39.9-.46,1.12-.62,1.38-.66,3.83-1.24,5.26.32,1.93,1.1,5.91,1.49,7.84.47,2.32-.11,4.26-.25,6.76-.01,2.31.25,3.67.46,5.99.18,1.72-.18,2.32-.04,4.04-.04,1.01-.41,2.13.27,2.66v.89l1.82.04s.4-.64.37-.6c.02,0,.19.44.21.46l1.86-.04c.8-1.77.04-3.99.25-5.9.45-1.78.83-4.49,1.17-6.53.12-.55.05-3.54.23-5.42.71-3.79,1.62-4.68,1.98-8.02.07-.18.64-.02.78,0,.35-.01.41.3.74.39.26,0,.44-.58.8-.23.52.94.62.27.28-.37-.07-.16.32-.16.44-.07.12.07.63,1.38.58.57-.01-.22-.22-.95.09-1.1.09-.05.16.02.19.16.1.28.62.74.43.11-.13-.53-.06-1.07-.16-1.72-.17-.55-.53-1.57-.18-2.04.09-.11.66-1.06.87-1.43.11-.52,1.38-4.85,1.58-4.85.05.37.29,1.24.14,1.7-.07.19-.04.27.04.5.23.49-.34,1.55-.39,1.97-.42,1.63-.58,3.22-.57,5.01-.19,2.58-.03,5.68.14,8.04.02.16.14,1.84.27,2.51.12.67-.02.5-.07.55-.05.05-.09.8-.12,1.01-.04.21.18.19.32.18.5.18.4.91.6,1.72-.13,1.4-.38,5.2.11,6.45.21,1.16.94,2.98.9,4.11-.15.49-.57.1-.87.51-.14.16-.11.74-.18.87-.07.12-.6.58-.71.71-.37.35-.63.92-.28,1.35.05.09,1.15.02,1.27,0,.64-.13,2.18.29,2.55-.46.16-1.17.2-2.54.11-3.74.1-2.16.7-4.33.87-6.57.14-.66-.51-1.8-.21-2.36.21-.78.55-2.55.6-3.35,0-.12.28-.21.34-.37.05-.16.02-.9.02-.9-.34-.73.62-2.94.6-3.74.37.7.95,2.13,1.27,3.01,0,.66-.45,1.26.21,1.86.19.25.25.27.48.3.23.04,0,0,.02.12.02.12.23.71.34.9-.22,1.59-1.96,3.79-1.19,5.56.15,1.15-.11,3.2-.3,4.27-.02.18-.16.09-.23.12-.31.33-.51,1.09-.78,1.58-.34,1.14,1.14,1.86,1.2,3.12.39.83,2.31.5,2.9.51.42-.24.19-.96-.07-1.29-.71-.57-.36-1.86-.71-2.53-.2-.21-.1.39-.5-.19-.35-1.94,1.77-4.62,2.51-6.48.62-2.31.97-5.09,1.51-7.07-.22-.97-.08-2.18-.11-3.52-.14-2.49-.62-4.42-.51-6.59.11-.14-.41-.23-.55-.39-.21-.36.17-1.16-.02-1.58-.02-.23-.16-.44-.27-.55-.11-.59.17-1.32.07-2.09-.15-.6-.26-3,.16-3.51,1.05.68,1.04,2.63,1.35,3.97.68,1.9,2.2,3.18,3.12,4.95.12.35-.12.46-.18.83.05,1.03.45,1.74.37,2.79.74.52.65-1.04.66-1.49,0-.15.21-.13.34-.05.13.08.05.06.04.15-.01.09.09.45.12.51-.64.83-.52,1.85.67.87.23-.41.41-1.86.11-2.36ZM14.27,69.29c-.43,1.06-.48,2.99-.94,3.79-.43-1.91-.67-5.07-.19-6.94.16-1.99.16-5.47.81-7.33.43,1.3.21,3.62.04,4.98.07,1.55.44,3.95.28,5.51Z"/>
        <path class="cls-1" d="M78.18,36.77c-.84-4.66-2.73-2.33-3.87-9.89-3.33-4.51-6.64,2.66-7.67,5.51-1.47,2.59-3.94,6.11-4.93,9.05.12,2.34,2.13,4.35,2.65,6.56.28,1.06.22,1.8.98,2.42.19.13.21.11.38.21.17.1.14.3.38.22.24-.08,0-.17.25.06.25.24.04.3.05.67-.23,1.44.77,4.07,1.12,5.93.22.84.63,3.31.63,3.6-.08,1.17-.47,4.36-.19,5.5.49,2.22.28,5.03,1.28,7.19.37.84-.4,1.15-.78,1.73-.19.9.37,1.23,1.43,1.27,2.73-.11,1.05-1.39,1.39-3.06-.05-1.23.14-2.45-.38-3.49-.02-.16,0-2.6,0-2.77-.21-1.21-.18-4.45.46-5.59,0-1.53.38-6.58.6-8.03.03-.19.63.92.65,1.17.29,1.53,1,4.58.79,6.12.1.62.5,1.89.32,2.52-.1,2.38-.14,5.25-.33,7.67-.04.97.35,2.19.11,3.06-.33.96-.34,2.12,1.09,1.82.45.47,2.05.4,2.58.3.53-.23,0-1.43-.51-1.36-.21.02-.78-1.19-.92-1.52-.25-1.39.76-3.66.67-5.09-.1-.48.43-5.28.33-5.7.03-3.44.95-10.12.48-13.79.18-2.29,1.36-6.44,1.57-8.6.13-.51-.63-3.11-.63-3.68ZM67,44.01c-.28.58,0,1.48-.1,2.11-.04.14-.17.89,0,1,.17.11.07.33,0,.41-.78-.34-1.76-2.05-2.29-3.11-.24-.59-.84-2.47-.65-2.93.58-1.1,1.85-2.72,2.54-3.39.22,1.11.33,2.63.67,3.72.09.67.31,1.69-.16,2.19ZM76.39,43.78c-.29.78-.25.1-.12-.27-.43-1.01-.52-2.44-.12-3.45,0,0,.27,3.52.24,3.72Z"/>
        <path class="cls-3" d="M106.37,72.59c-.07-.46-.36-5.75-2.33-4.25-.35.19-.63,1.47-.63,1.68-.43.05-.79-1.54-.95-1.95-.06-.24-.55-.36-.65-.49-.1-.13-.27-1.28-.36-1.54-.27-.63-.24-1.15-.13-1.77-.41-1.35-.47-3,.63-4.15.25-.16,0-1.2-.09-1.39-.38-1.03-.17-2.53-.25-3.6-.09-2.01.63-5.02.17-7-.71-1.2-2.32-3.79-3.45-4.71-.27-.19.19-1.52.22-1.92.1-1.13-1.18-2.78-1.57-3.85-.16-.32.3-.57.35-.68.05-.11-1.09-1.58-1.17-1.74-1.89-3-3.16-2.78-5.99-4.23-.19-.11.17-1.44.17-1.65s.3-.05.41-.02c.11.03.4-1.16.48-1.39.08-.24-.03-.36-.13-.33-.49-.13.04-1.85-.14-2.33-1.1-2.24-4.07-1.73-5.43-.03-.17.24-.1,1.54-.06,1.79.18.73-.09.18-.24.71.07.33.24,1.61.81,1.58.13.02.36,1.09.38,1.25.02.16-.87.11-1.01.17-1.13.44-3.06,1.4-4.13,2.03-.15.08-.76,1.68-.78,1.79-.02.12-.92,4.02-.97,4.25-.02.38.74.36.74.75.02.11-.01,1.97,0,2.54.38,1.24,2.32,2.68,2.5,3.67.15.66-2.45,2.31-1.25,2.88.1.12.08,1.27-.02,1.47-.71.68-.91.51-.4,1.52-.5,1.01-.85,3.16-.68,4.65.19.76,1.68.43,1.9.36.56,3.45.55,8.69.86,12.31-.2,1.6-1.97,10.92,1.9,8.95,2.51,3.58,2.79-2.45,2.87-3.93.1.15.72.3.93.35.16.03,1.01.95,1.14,1.09.05.52-.96,1.27-.08,1.7.86.31,2.09-.02,2.76-.62,1.07-.02,1.73-.47,1.71-1.7-.01-1.12-.97-.65-1.22-1.62-.1-.17,2.44-.08,2.82-.03,1.16.08,2.25-.13,3.3-.02,1.21.2,1.22.96,1.25,2.27.06.62.54,2.09.74,2.33,1.25.84,1.97-.81,2.11-1.7.05.9.67,3.63,2.17,2.57.96-1.27.99-4.44.82-6.05ZM95.64,42.47c-.06.02-2.46-.23-2.56-.14-.13.11-.01-1.78.06-2.03.07-.25.71-1.62.71-1.62,0,0,1.22,1.75,1.34,1.82.62.5.95,1.3.44,1.97Z"/>
        <path class="cls-4" d="M38.18,49.95c.34-2.34-.19-.89-.87-2.08.12-1.26.52-2.87.18-4.03.15-2.76,1.75-8.13,2.88-10.67.57-.45.84-1.26,1.42-1.51.23-.13,3.27-1.26,3.44-1.52.16-.26.79-.98,1.03-.98s.49,0,.44-.08c-.16-1.47-.68-3.36-.49-4.91,1-1.53,3.92-2.42,5.24-.54.88,1.48.25,2.32.38,3.65.03.39-.21,1.55-.36,1.72-.15.16-.41.64-.23.75.67.52,1.56.8,1.88,1.62.05.29-.02.46.26.57,5.48,1.54,3.54,10.04,5.15,13.79.47.27.74,2.04.39,2.45-.96.39-.28,1.34-.44,2.09-.37.77.37,2.66-.74,3.86-1.11.81-1.72,1.54-1.91,1-.1.03-.23,0-.18-.21.24-.55.65-1.06.74-1.6.06-.23.09-1.19-.31-.67-.07.2-.26,1.06-.51,1.11-.78.23.06-2.12.18-2.42.15-.08.98-1.73.57-1.93-.15-.03-.18-.14-.2-.28-.02-.14-.15.04-.34-.14-.2-.18-.43-.85-.36-1.29.07-.44.31-.65.07-.72-.79.17-.59-2.07-.85-2.19-.28-.49.3-1.39,0-1.93-.15-.23-.38-.39-.39-.85,0-.65-.03-1.86-.38-1.98-.1.23.05,1.95.05,2.11,0,1.27-.11,3.09.15,4.32.63,1.36-.91.29.57,3.01.79,1.25-.44,1.36-.36,3.32.17,2.97-.96,4.19-1.55,6.64-.08,2.17.31,11.45-.69,13.76-.16.82-.38,1.88,0,2.67.38.46,1.31,1,.88,1.55-.62.3-2.8.63-3.29-.18-.08-.18.03-.39-.15-.46-.18-.07-.31-.33-.34-.15.05.74-.82.03-.94-.18,0-.16.2-.33,0-.34-.2-.02-.63-.15-.51-.31.81-1.4-1.88.47-2.52-1.08-.9,0,.06-1.53-.21-1.88-.15-.21-.83-3.11-.92-3.75-.28-3.37-.36-6.32-.44-9.47-.16-.25-.83-3.16-.88-4.03-.05-2.09-.82-3.89-1.18-5.81.25-.99.99-1.67.54-2.85-.26-.41-.18-.64-.16-.74,0-.33-.05-.8.28-1.13-.13-.63.05-1.89-.11-2.49-.55-.33-.33,1.16-.47,1.49-.07.29-.59.87-.46,1.11-.02.77-.6,1.5-.11,2.32.75.87-.91.53.03,3.31.01.69.51,2.33-.11,2.52-.1.26.23,1.22-.36,1.19-.4-.13-.46.11-.93-.33-1.92-.62-1.68-2.57-1.47-4.25Z"/>
      </g>
      <path class="cls-3" d="M325.65,62.8c-.56,2.84.43,6.83.81,9.69.22.88.16,4.25.22,5.31-.65.25.06,1.03-.06,1.5-.3.52-2.34.3-2.83.27-.17-.13-.56-.52-.81-.6-.96-.32-1.71.06-2.37-.85-.35-.94.54-1.62,1.29-1.4.71.29.78-1.16.92-1.42.14-.4-.53-2.11-.6-2.46-.3-1.45-.57-3.41-.81-4.9.04-.95-.12-1.91-.56-2.67-.08-.1-.44-.27-.44-.5-.39-1.65.04-3.67-.38-5.29,0-1.72.38-4,.21-5.75.12-2.41.63-5.39.83-7.71,0,0-.71.81-.96,1.04-.25.23-1.06.48-1.13.58-.08.1-.62.62-.81.6-.19-.02-1.1-.73-1.1-1s.08-.87-.12-1.08c-.19-.21-.08-.37,0-.9.08-.54.12-2,.27-2.25.15-.25.4-1.48.37-1.56-.04-.08-.5-.1-.52-.15.47-1.78.98-4.77,3.14-5.39.83-.35,2.26-1.27,3.08-1.42-5.67-5.2,2.78-9.96,4.04-4.21-.05,1.5-.15,2.39-.23,3.52.69.12,3.41.95,4.1,1.02.19-.06,1.19.29,1.33.46.99,1.04,1.94,3.33,2.62,4.56.04.06-.67.29-.67.29.31,1.15.1,3.52.33,4.71.28,2.44.57,6.28,0,8.85.17.95.2,3.77-1.31,3.63-.7-.09-1.77-.09-1.77-.6-1.31.27,1.23-3.03,1.35-3.52.1-1.78-.28-3.69-.92-5.14-.03,1.06.08,2.33.5,3.46.07.81-.73,1.49-1.21,2-.41.93-.18,1.85-.46,2.98-.04,1.99-.43,3.48-.06,5.33-.3,2.04.12,3.37.21,5.35-.24,1.75.19,3.84.29,5.54.25.6.93,1.09.6,1.71-1.19,1.5,1.52,3.14-.17,4.87-.96.83-1.98.52-2.27.35-1.13-1.14-.07-3.11-.75-4.33-1.47-.75-1.46-3.36-1.81-4.77-.06-.21-.69-3.92-.77-4.27-.08-.92.03-2.77-.58-3.46Z"/>
      <path class="cls-3" d="M316.74,31.34c1.74,1.35,4.82,1.19,6.02,3.64,1.68,4.54,2.59,7.61,3.22,12.04.17,2.08.05,4.89.31,6.44.06.28.5,1.28.34,1.59-.32.59-.23,1.61-.98,1.79-.26.12-1.25.6-1.2.34.05-.26.13-.34-.01-.33-.14.01-.34-.09-.34-.23.37-1.08-.26-2.08.19-3.21,1.11-1.26-.47-3.92-.72-5.08-.54-1.21-.84-3.9-1.3-5.17-.19-.26-1.19-2.6-1.25-2.77-.56-1.15-.46,4.21-.35,4.97.59,3.24.41,5.24.9,8.26.25,4.16-.89,7.47-.56,11.83.38,3.95-1.13,7.77-.27,11.3.14.76,1.17,2.49-.16,2.73-1.35-.07-.59.02-1.04.62-.5.24-1.36.59-1.98.47-.62-.09-.56-.36-.63-.72-.25-.36-.11-.54-.4-1.03-.21-.33.43-.4-.28-.16-.71.23-1.62.29-1.95.42-.33.13-.69.29-.74.06.1-1.27,1.48-2.54.88-3.86-.34-.24-.54-1-.61-1.39.88-.42-.71-1.58-.69-2.7-.04-1.85-.65-3.43-.77-4.94.18-.59-.63-1.62-.56-2.21.04-.33-.02-.85-.18-1.14-.6-1.25-1.08-2.95-1.52-4.21-.07-1.13-.67-2.13-.71-3.57.05-.81-.1-2.54-.26-2.77-.15-.22-.05-1.9.2-2.5.36-1.04.63-1.51-.33-1.72-.31-.48.21-2.01.28-2.39.07-.32.02-1.21.01-1.48-.75.39-1.98,2.25-2.78.43.04-.58-.44-1.44-.43-1.97.2-.67-.06-1.91.05-2.53.66-1.71.12-3.94,1.02-5.63.73-1.95,6.06-1.85,4.96-4.2-.05-1.03-.93-.04-1.19-.84-.05-.41-.33-.71-.17-1.11-.02-.48.49.13.12-.58-1.79-4.37,4.97-6.06,5.71-1.65-.07.79.21.31.54.71.84,2.63-1.57.12-.39,4.44Z"/>
    </g>
    <path class="cls-4" d="M305.98,43.64c-.44,1.33-1.34,3.73-1.06,5.02-.12,2.28.32,4.74.79,6.96-.66,1.75.25,3.83.43,5.89.04,1.73-.21,4.13-.48,5.37.09.19.66,1.95.59,2.38-.07.43-.13,1.02,0,1.16.32.45.25,1.88.49,2.54.16.47.74,2.83.55,3.11-.19.28-.35.88-.33,1.17.02.29.45.81.37.95-.09.14-.19.07-.12.29.55.78-.28,1.14-.48,1.99-.1.54-.12.98-.33,1.04-.68.06-3.26.61-3.59-.52.04-.49.86-.22,1-.76.1-.16.14-.31.1-.48-.03-.17.24-.62.02-.59-1.04.53-2.49.6-3.59.41-.68.39-1.11-.23-1.78-.31-1.86-.49.34,1.31-.78,1.55-.55.15-1.43.06-1.9-.16-.37-.06-.68.19-1.1-.21-.65-.24-.64-.76-.36-1.09.05.07,1.31-.15.97-.36-.19-.12-.55-.19-.66-.28-.23-1.34,0-3.96.35-5.27.02-.12-.09-4.18-.16-4.28-.17-2.45-.3-6.88-.21-9.55.43-2.96,1.08-6.67,2-9.24-.3-.79-.3-2.57-.1-3.28,0-.1.45-.57.29-.67-1.48-.67.19-3.75.25-4.84.24-.62.67-3.22.94-3.94.16-.16.36-.81.52-.83.6-.36.03-.82-.38-1.1-.78-.38-.08-1.29-.22-1.88-.99-.43-.76-.86-.26-1.24.15-.6-.53-2.04-.24-2.62.85-.98,2.64-1.41,3.95-1.48,2.86.25,3.08,6.14,4.28,7.96.87,1.09.99,2.96,1.09,4.33-.03.41-.81,2.73-.85,2.87Z"/>
    <path class="cls-3" d="M298.91,57.7c.54-1.65,3.8-1.7,4.18.1.28,1.21-.6,2.75-.19,3.52,1.39.44.56,2.05.86,3.11,1.02,2.1-.43,4.83.26,6.92.06,1.57-.06,3.06-.29,4.63-.15.51,0,.75.13.92.27.58-.1,1.33-.06,1.98.23.89.13,2.22.39,2.97.65.11-.14.83-.7.71-1.75.03-1.38-.29-1.32-1.56.07-.11.15-.62-.07-.64-2.32-.04-1.57-2.4-2.25-3.63-.75.17-1.26,1.59-1.56,2.2-.05.2-.07.57-.49.57s-1.45-.16-1.57-.05c-.42.48-.55,1.53-1.08,2-1.03.6-2.68-.12-3.59-.79-.62-.58-.42-1.05.4-.64.99.35,1.72.01,2.22-.71.39-.66.97-1.56,1.14-2.36-.04-.29-.2-1.06-.04-1.34.3-1.09,1.74-2.7,1.98-3.63-.11-.07-.77.29-.86.18-.47-.69.76-1.75.9-2.07-.58-.49.42-1.07,0-1.46-.22-.16-.73-.16-.51-.46.22-.29.84-3.66.95-3.83.11-.16,1.03-1.36,1.25-1.56.22-.2.53-.42.38-.51-1.05.09-.65-.28-.26-.82.07-.02.13-.22-.09-.24-1.32-.25-.32-2.81-.09-3.52Z"/>
  </g>
  <path class="cls-3" d="M196.93,3.94c.76.83,1.19,2,2.2,2.54.33.17.68.16,1.09.27.97.32,1.69,1.04,2.31,1.8.45.4.33,1.22.31,1.78,0,0-.09-.2-.09-.2,1.53,1.17,2.9,2.5,4.17,3.93,3.89,4.47,6.61,9.91,7.91,15.71-.67.25-1.89.7-2.56.95-1.5-7.26-5.84-13.62-10.82-18.99,0,0,.08-.1.08-.1,1.48,1.08,2.76,2.41,3.98,3.76,2.47,2.69,4.74,5.7,6.14,9.11.73,1.71,1.29,3.45,1.65,5.31l-.79-.46,1.46-.49-.38.63c-.68-3.61-2.19-7.18-3.97-10.41-1.87-3.28-4.36-6.26-7.26-8.68.03-.73.22-1.21-.16-1.62-.54-.73-1.23-1.45-2.08-1.76-.32-.11-.76-.12-1.12-.33-1.04-.6-1.45-1.81-2.18-2.69,0,0,.1-.08.1-.08h0Z"/>
  <path class="cls-3" d="M196.55,6.86c-.61.23-1.63.39-1.89,1.02.08.19.6.56.78.73,1.46,1.19,3.05,2.6,4.56,3.59.14.13.78-.09.91-.32.05-.08,0-.05,0,0-.08-.11-.45-.56-.58-.7,0,0-.75-.88-.75-.88-1.01-1.07-1.72-2.75-3.04-3.45h0ZM196.51,6.74c.28-.02.42.13.6.22,1.8,1.13,3.61,2.35,4.79,4.15.97,1.41-1.26,2.72-2.41,1.95-1.61-1.27-2.99-2.63-4.37-4.11-.27-.37-.59-.56-.72-1.06.11-.54.61-.58.99-.76,0,0,1.12-.39,1.12-.39h0Z"/>
  <path class="cls-3" d="M194.58,7.94c1.65,1.63,3.54,3.11,5.4,4.41.25.15,1.11-.14,1.11-.51,0,0,.83-.32.83-.32.42,1.14-.07,2.55-1.41,3-.67.17-1.28-.15-1.78-.47-2.15-1.4-3.76-3.31-5.26-5.33.36-.29.82-.59,1.11-.79h0ZM194.56,8.06c-.26.34-.42.63-.59.88v-.34c1.86,1.42,3.62,3.04,5.46,4.44.35.27.66.44.84.41.58-.1,1.03-1.01.82-1.6,0,0,.84-.32.84-.32.23.66-.3,1.2-.81,1.43-1.31.75-2.46-.79-3.32-1.52-1.08-1.07-2.35-2.15-3.23-3.37h0Z"/>
  <path class="cls-4" d="M179.26,14.01c-1.14-.48-.13.74-1.17,1.1s-4.14-1.32-5.94,0,2.01,2.69,2.66,4,3.71.08,4.45,0,2.09-4.23,0-5.11Z"/>
  <path class="cls-4" d="M177.29,21.74c-2.06-.73-2.39,3.09-3.28,3.9s-1.5,7.02-1.5,7.62,3.04,7.9,3.04,7.9l1.7-3.66s-1.63-2.96-.61-4.83-2.27-2.11-.62-5.18,1.98-5.51,1.27-5.76Z"/>
  <path class="cls-4" d="M196.53,7.3c-.74-.25-1.49.28-1.05.7s3.96,3.36,4.52,3.68-3.47-4.39-3.47-4.39Z"/>
  <path class="cls-4" d="M156.15,5.95c-3.12,4.33-4.6,8.37-6.76,14.61s-5.04,12.12-5.04,12.12l1.31.59s2.33-5.97,4.59-13.46,5.9-13.85,5.9-13.85Z"/>
  <path class="cls-4" d="M148.18,18.78c-1.43,2.84-4.11,8.88-5.8,13.89h.37l5.43-13.89Z"/>
  <polygon class="cls-4" points="141.73 33.89 140.89 35.91 141.31 36.05 142.19 33.89 141.73 33.89"/>
  <path class="cls-4" d="M143.54,34.05l-1.15,2.56.9.45,1.27-2.7c-.21-.24-.49-.41-1.01-.31Z"/>
  <path class="cls-4" d="M138.73,37.86c-1.8.21-2.32,1.76-.56,2s2.78-2.25.56-2Z"/>
  <path class="cls-4" d="M150.25,27.7c.91,2.8,1.24,9.72,4.18,10.39s6.66-1.09,7.75,3.06,9.61,9.58,8.3,11.12-3.45,13.48-1.22,12.91-2.89,11.08-1.25,12.94,1.48,63.18,1.48,63.18c0,0,1.27-77.55,1.13-80.8s.48-9.95,1.06-10.59c.75-.82-20.87-22.21-21.42-22.21Z"/>
</svg>