<?xml version="1.0" encoding="UTF-8"?>
<svg id="Layer_1" xmlns="http://www.w3.org/2000/svg" width="270" height="125.62" viewBox="0 0 270 125.62">
  <defs>
    <style>
      .cls-1 {
        fill: #a6a935;
      }

      .cls-2 {
        fill: #fff;
      }

      .cls-3 {
        fill: #b3c05e;
      }

      .cls-4 {
        fill: #b0cc7b;
      }

      .cls-5 {
        fill: none;
        stroke: #a6a935;
        stroke-linecap: round;
        stroke-linejoin: round;
        stroke-width: 1.99px;
      }

      .cls-6 {
        fill: #b2bf7c;
      }

      .cls-7 {
        fill: #d7ddba;
      }

      .cls-8 {
        fill: #e8e8e8;
      }
    </style>
  </defs>
  <g>
    <path class="cls-6" d="M119.73,74.99c-4.37,0-8.24-.74-11.63-2.23-3.38-1.49-6.05-3.61-7.99-6.37-1.94-2.76-2.92-6.01-2.92-9.76,0-1.49.24-3,.72-4.54.48-1.54,1.08-2.99,1.8-4.36.72-1.37,1.44-2.59,2.16-3.67.72-1.08,1.32-1.93,1.8-2.56l12.24-16.2c.19-.24.5-.54.94-.9.43-.36,1.01-.54,1.73-.54h12.02c.43,0,.8.16,1.12.47.31.31.47.68.47,1.12,0,.19-.04.37-.11.54-.07.17-.16.3-.25.4l-9.36,12.6c.19,0,.42-.01.68-.04.26-.02.47-.04.61-.04,1.97.1,4.01.56,6.12,1.4,2.11.84,4.07,1.99,5.87,3.46,1.8,1.46,3.26,3.25,4.39,5.36,1.13,2.11,1.69,4.51,1.69,7.2,0,3.46-.92,6.6-2.77,9.43-1.85,2.83-4.43,5.08-7.74,6.73-3.31,1.66-7.18,2.48-11.59,2.48ZM119.59,62.75c1.15,0,2.22-.23,3.21-.68.98-.46,1.78-1.15,2.38-2.09s.9-2.08.9-3.42-.3-2.4-.9-3.31c-.6-.91-1.38-1.61-2.34-2.09-.96-.48-2.04-.72-3.24-.72s-2.23.24-3.24.72c-1.01.48-1.8,1.18-2.38,2.09-.58.91-.86,2.02-.86,3.31s.3,2.48.9,3.42,1.39,1.63,2.38,2.09c.98.46,2.05.68,3.2.68Z"/>
    <path class="cls-6" d="M168.69,74.99c-3.55,0-6.65-.48-9.29-1.44-2.64-.96-4.84-2.28-6.59-3.96-1.75-1.68-3.11-3.66-4.07-5.94-.96-2.28-1.54-4.74-1.73-7.38-.05-1.3-.08-2.83-.11-4.61-.03-1.77-.03-3.56,0-5.36.02-1.8.06-3.37.11-4.72.19-2.64.78-5.08,1.76-7.31.98-2.23,2.39-4.18,4.21-5.83s4.03-2.95,6.62-3.89c2.59-.94,5.62-1.4,9.07-1.4s6.42.47,9.04,1.4c2.62.94,4.82,2.23,6.62,3.89,1.8,1.66,3.19,3.6,4.18,5.83.98,2.23,1.57,4.67,1.76,7.31.1,1.34.14,2.92.14,4.72v5.36c0,1.78-.05,3.31-.14,4.61-.19,2.64-.76,5.1-1.69,7.38-.94,2.28-2.29,4.26-4.07,5.94-1.78,1.68-3.98,3-6.62,3.96-2.64.96-5.71,1.44-9.22,1.44ZM168.69,62.68c1.92,0,3.3-.62,4.14-1.87.84-1.25,1.31-2.88,1.4-4.9.05-1.39.08-2.9.11-4.54.02-1.63.02-3.28,0-4.93-.02-1.66-.06-3.13-.11-4.43-.1-1.92-.55-3.52-1.37-4.79-.82-1.27-2.21-1.93-4.18-1.98-1.97.05-3.36.71-4.18,1.98-.82,1.27-1.27,2.87-1.37,4.79-.05,1.3-.08,2.77-.11,4.43-.02,1.66-.02,3.3,0,4.93.02,1.63.06,3.14.11,4.54.1,2.02.56,3.65,1.4,4.9.84,1.25,2.22,1.87,4.14,1.87Z"/>
    <path class="cls-6" d="M207.86,49.07c-3.12,0-5.54-.84-7.27-2.52-1.73-1.68-2.66-3.96-2.81-6.84-.05-1.25-.07-2.29-.07-3.13s.02-1.93.07-3.28c.14-2.88,1.03-5.23,2.66-7.06,1.63-1.82,4.1-2.74,7.42-2.74s5.78.91,7.42,2.74c1.63,1.83,2.52,4.18,2.66,7.06.1,1.34.14,2.44.14,3.28s-.05,1.88-.14,3.13c-.14,2.88-1.08,5.16-2.81,6.84-1.73,1.68-4.15,2.52-7.27,2.52ZM201.67,74.27c-.96,0-1.44-.48-1.44-1.44,0-.29.1-.55.29-.79l35.5-46.8c.33-.43.66-.77.97-1.01.31-.24.78-.36,1.4-.36h1.22c.96,0,1.44.48,1.44,1.44,0,.29-.1.55-.29.79l-35.5,46.8c-.34.43-.65.77-.94,1.01-.29.24-.77.36-1.44.36h-1.22ZM207.86,45.4c1.44,0,2.58-.3,3.42-.9.84-.6,1.45-1.36,1.84-2.27.38-.91.6-1.82.65-2.74.1-1.34.14-2.36.14-3.06s-.05-1.67-.14-2.92c-.05-1.44-.52-2.8-1.4-4.07-.89-1.27-2.39-1.91-4.5-1.91s-3.6.64-4.46,1.91c-.86,1.27-1.34,2.63-1.44,4.07-.05,1.25-.07,2.22-.07,2.92s.02,1.72.07,3.06c.1.91.32,1.83.68,2.74.36.91.96,1.67,1.8,2.27.84.6,1.98.9,3.42.9ZM233.28,74.7c-3.12,0-5.54-.9-7.27-2.7-1.73-1.8-2.66-4.14-2.81-7.02-.05-1.25-.07-2.29-.07-3.13s.02-1.93.07-3.28c.14-2.88,1.03-5.23,2.66-7.06,1.63-1.82,4.1-2.74,7.42-2.74s5.78.91,7.42,2.74c1.63,1.82,2.52,4.18,2.66,7.06.1,1.34.14,2.44.14,3.28s-.05,1.88-.14,3.13c-.14,2.88-1.08,5.22-2.81,7.02-1.73,1.8-4.15,2.7-7.27,2.7ZM233.28,70.67c1.44,0,2.58-.3,3.42-.9.84-.6,1.45-1.36,1.84-2.27.38-.91.6-1.82.65-2.74.1-1.34.14-2.36.14-3.06s-.05-1.67-.14-2.92c-.05-1.44-.52-2.79-1.4-4.07-.89-1.27-2.39-1.91-4.5-1.91s-3.6.64-4.46,1.91c-.86,1.27-1.34,2.63-1.44,4.07-.05,1.25-.07,2.22-.07,2.92s.02,1.72.07,3.06c.1.91.32,1.82.68,2.74.36.91.96,1.67,1.8,2.27.84.6,1.98.9,3.42.9Z"/>
  </g>
  <g>
    <path d="M100.57,99.29c-.7,0-1.3-.12-1.8-.35-.5-.23-.88-.59-1.13-1.08s-.38-1.1-.38-1.84v-3.57h-1.33c-.12,0-.23-.04-.31-.12s-.12-.18-.12-.31v-1.16c0-.12.04-.23.12-.31s.18-.12.31-.12h1.33v-2.8c0-.12.04-.23.13-.31.08-.08.18-.12.3-.12h1.67c.12,0,.23.04.31.12.08.08.12.18.12.31v2.8h2.12c.11,0,.21.04.29.12.08.08.12.18.12.31v1.16c0,.12-.04.23-.12.31-.08.08-.18.12-.29.12h-2.12v3.37c0,.43.08.77.23,1.01.15.24.42.37.81.37h1.24c.11,0,.21.04.29.12s.12.18.12.29v1.26c0,.12-.04.23-.12.31s-.18.12-.29.12h-1.48Z"/>
    <path d="M106.54,99.46c-.6,0-1.14-.12-1.61-.35-.48-.23-.86-.55-1.14-.94s-.42-.84-.42-1.33c0-.8.33-1.44.98-1.9s1.51-.78,2.58-.95l2.23-.32v-.31c0-.44-.1-.78-.31-1.02-.2-.24-.56-.36-1.07-.36-.37,0-.67.07-.9.22s-.4.34-.53.58c-.09.15-.22.22-.39.22h-1.62c-.12,0-.22-.04-.29-.11-.07-.07-.1-.16-.08-.26,0-.19.07-.42.22-.68.15-.26.37-.52.68-.77s.7-.47,1.17-.64c.48-.17,1.06-.25,1.75-.25s1.33.08,1.84.25.92.41,1.22.71c.31.31.53.66.68,1.06s.22.84.22,1.3v5.25c0,.12-.04.23-.12.31s-.18.12-.31.12h-1.67c-.11,0-.21-.04-.29-.12s-.12-.18-.12-.31v-.63c-.15.21-.35.42-.59.6-.25.19-.55.34-.89.45s-.75.17-1.22.17ZM107.22,97.69c.37,0,.71-.08,1-.24.29-.16.53-.4.7-.73.17-.33.26-.74.26-1.24v-.29l-1.58.25c-.61.1-1.06.25-1.34.46s-.42.45-.42.75c0,.21.07.4.2.56.13.16.3.28.52.36.22.08.44.12.68.12Z"/>
    <path d="M113.43,99.29c-.1,0-.19-.04-.26-.11-.07-.07-.11-.16-.11-.26,0-.03,0-.08.03-.13.02-.05.04-.1.08-.14l2.87-3.89-2.63-3.66s-.06-.09-.08-.14c-.02-.04-.03-.09-.03-.14,0-.1.04-.19.11-.26.07-.07.16-.11.26-.11h1.77c.14,0,.24.03.31.1.07.07.13.13.16.19l1.75,2.38,1.75-2.36c.04-.06.1-.12.17-.2.07-.07.18-.11.32-.11h1.68c.1,0,.19.04.26.11.07.07.11.16.11.26,0,.04,0,.09-.02.14-.01.05-.04.09-.08.14l-2.69,3.67,2.91,3.88s.06.09.08.14c.02.04.03.09.03.14,0,.1-.04.19-.11.26-.07.07-.16.11-.26.11h-1.85c-.12,0-.22-.03-.29-.09-.07-.06-.12-.12-.17-.18l-1.89-2.52-1.92,2.52s-.08.1-.15.17c-.07.07-.17.1-.31.1h-1.8Z"/>
    <path d="M126.02,99.46c-.6,0-1.14-.12-1.62-.35-.48-.23-.86-.55-1.14-.94s-.42-.84-.42-1.33c0-.8.33-1.44.98-1.9.65-.46,1.51-.78,2.58-.95l2.23-.32v-.31c0-.44-.1-.78-.31-1.02s-.56-.36-1.07-.36c-.37,0-.67.07-.9.22-.23.15-.4.34-.53.58-.09.15-.22.22-.39.22h-1.62c-.12,0-.22-.04-.29-.11-.07-.07-.1-.16-.08-.26,0-.19.07-.42.22-.68s.37-.52.68-.77c.31-.25.7-.47,1.17-.64.48-.17,1.06-.25,1.75-.25s1.33.08,1.84.25c.51.17.92.41,1.22.71s.53.66.68,1.06.22.84.22,1.3v5.25c0,.12-.04.23-.12.31s-.18.12-.31.12h-1.67c-.11,0-.21-.04-.29-.12-.08-.08-.12-.18-.12-.31v-.63c-.15.21-.35.42-.6.6-.25.19-.55.34-.89.45-.35.11-.75.17-1.22.17ZM126.7,97.69c.37,0,.71-.08,1-.24.29-.16.53-.4.7-.73.17-.33.25-.74.25-1.24v-.29l-1.58.25c-.61.1-1.06.25-1.34.46s-.42.45-.42.75c0,.21.06.4.2.56.13.16.3.28.52.36.21.08.44.12.68.12Z"/>
    <path d="M140.32,99.46c-.57,0-1.07-.09-1.51-.28-.44-.19-.82-.46-1.12-.82-.31-.36-.54-.78-.7-1.27-.16-.49-.25-1.04-.29-1.64-.01-.22-.02-.41-.02-.59s0-.37.02-.57c.02-.59.12-1.13.28-1.62s.4-.91.7-1.27c.3-.36.67-.63,1.12-.83.45-.2.95-.3,1.52-.3s1.09.1,1.51.3c.42.2.76.46,1.04.77v-3.71c0-.12.04-.23.12-.31s.18-.12.31-.12h1.75c.11,0,.21.04.29.12.08.08.12.18.12.31v11.22c0,.12-.04.23-.12.31s-.18.12-.29.12h-1.63c-.11,0-.21-.04-.29-.12s-.12-.18-.12-.31v-.58c-.28.34-.64.62-1.07.84-.43.22-.97.33-1.61.33ZM141.1,97.42c.42,0,.76-.1,1.01-.29.25-.19.44-.44.56-.73s.18-.61.2-.95c.02-.22.03-.43.03-.65s-.01-.42-.03-.63c-.01-.32-.08-.61-.2-.89-.12-.28-.31-.51-.57-.69-.25-.18-.59-.27-1-.27-.43,0-.77.09-1.02.28-.25.19-.43.43-.54.74-.11.31-.17.64-.2,1-.03.35-.03.7,0,1.05.02.36.09.7.2,1,.11.31.29.55.54.74.25.19.59.28,1.02.28Z"/>
    <path d="M151.56,99.46c-1.3,0-2.34-.36-3.1-1.09-.76-.73-1.17-1.78-1.22-3.16v-.73c.05-.87.24-1.62.6-2.25.35-.63.84-1.11,1.48-1.45.63-.33,1.38-.5,2.23-.5.95,0,1.75.2,2.39.59.64.39,1.12.92,1.44,1.6.32.67.48,1.45.48,2.32v.39c0,.11-.04.21-.13.29-.08.08-.18.12-.3.12h-5.56v.14c.01.36.08.69.21,1,.13.3.32.54.56.72.24.18.54.27.88.27.28,0,.52-.04.7-.12.18-.08.33-.18.45-.29s.21-.21.26-.29c.1-.11.18-.18.25-.21.06-.03.16-.04.3-.04h1.77c.11,0,.21.03.28.09.07.06.1.15.09.26-.01.18-.11.41-.28.67-.18.27-.43.53-.77.78s-.76.47-1.27.64c-.5.17-1.08.25-1.74.25ZM149.87,94.03h3.33v-.03c0-.41-.07-.76-.2-1.06-.13-.3-.32-.54-.57-.71s-.55-.25-.9-.25-.65.08-.9.25-.44.41-.57.71c-.13.3-.2.65-.2,1.06v.03Z"/>
    <path d="M162.42,99.29c-.12,0-.23-.04-.31-.12s-.12-.18-.12-.31v-6.41h-1.33c-.12,0-.23-.04-.31-.12s-.12-.18-.12-.31v-1.16c0-.12.04-.23.12-.31s.18-.12.31-.12h1.33v-.61c0-.72.14-1.32.41-1.79.27-.46.67-.8,1.19-1.02.52-.21,1.16-.32,1.92-.32h1.24c.12,0,.23.04.31.12.08.08.12.18.12.31v1.16c0,.12-.04.23-.12.31s-.18.12-.31.12h-1.14c-.42,0-.71.1-.88.31-.17.2-.25.5-.25.9v.53h2.09c.12,0,.23.04.31.12.08.08.12.18.12.31v1.16c0,.12-.04.23-.12.31-.08.08-.18.12-.31.12h-2.09v6.41c0,.12-.04.23-.12.31s-.18.12-.29.12h-1.67Z"/>
    <path d="M172.13,99.46c-1.3,0-2.34-.36-3.1-1.09-.77-.73-1.17-1.78-1.22-3.16v-.73c.04-.87.24-1.62.59-2.25s.84-1.11,1.48-1.45c.63-.33,1.38-.5,2.23-.5.95,0,1.75.2,2.39.59.64.39,1.12.92,1.45,1.6.32.67.48,1.45.48,2.32v.39c0,.11-.04.21-.13.29-.08.08-.18.12-.3.12h-5.56v.14c.01.36.08.69.21,1,.13.3.32.54.56.72.24.18.54.27.88.27.28,0,.52-.04.7-.12.18-.08.33-.18.45-.29s.21-.21.26-.29c.1-.11.18-.18.25-.21s.16-.04.3-.04h1.77c.11,0,.21.03.28.09.07.06.11.15.09.26-.01.18-.1.41-.28.67-.18.27-.43.53-.77.78s-.76.47-1.27.64c-.5.17-1.08.25-1.74.25ZM170.44,94.03h3.33v-.03c0-.41-.07-.76-.2-1.06-.13-.3-.32-.54-.57-.71-.25-.17-.55-.25-.9-.25s-.65.08-.9.25c-.25.17-.44.41-.57.71-.13.3-.2.65-.2,1.06v.03Z"/>
    <path d="M178.54,99.29c-.11,0-.21-.04-.29-.12s-.12-.18-.12-.31v-7.99c0-.12.04-.23.12-.31s.18-.12.29-.12h1.58c.11,0,.21.04.3.12s.13.18.13.31v.58c.23-.32.54-.59.94-.82.4-.23.88-.35,1.44-.36,1.31-.02,2.21.48,2.7,1.5.26-.44.64-.8,1.13-1.08.49-.28,1.03-.42,1.62-.42s1.12.13,1.6.4c.48.27.85.67,1.13,1.22.28.55.42,1.26.42,2.12v4.84c0,.12-.04.23-.12.31s-.18.12-.29.12h-1.68c-.11,0-.21-.04-.29-.12s-.12-.18-.12-.31v-4.71c0-.46-.07-.83-.2-1.1s-.31-.46-.54-.57c-.22-.11-.47-.17-.74-.17-.24,0-.47.06-.69.17-.22.11-.4.3-.54.57s-.21.63-.21,1.1v4.71c0,.12-.04.23-.12.31s-.18.12-.31.12h-1.67c-.12,0-.23-.04-.31-.12s-.12-.18-.12-.31v-4.71c0-.46-.07-.83-.2-1.1-.14-.27-.32-.46-.54-.57s-.46-.17-.72-.17c-.24,0-.47.06-.7.18-.23.12-.41.31-.55.57s-.21.62-.21,1.07v4.73c0,.12-.04.23-.12.31s-.18.12-.29.12h-1.72Z"/>
    <path d="M193.94,89.09c-.11,0-.21-.04-.29-.12-.08-.08-.12-.18-.12-.31v-1.36c0-.12.04-.23.12-.31s.18-.13.29-.13h1.79c.12,0,.23.04.31.13s.13.19.13.31v1.36c0,.12-.04.23-.13.31-.08.08-.19.12-.31.12h-1.79ZM193.99,99.29c-.11,0-.21-.04-.29-.12s-.12-.18-.12-.31v-7.99c0-.12.04-.23.12-.31s.18-.12.29-.12h1.7c.12,0,.23.04.31.12s.12.18.12.31v7.99c0,.12-.04.23-.12.31s-.18.12-.31.12h-1.7Z"/>
    <path d="M198.65,99.29c-.11,0-.21-.04-.29-.12-.08-.08-.12-.18-.12-.31v-7.99c0-.12.04-.23.12-.31.08-.08.18-.12.29-.12h1.67c.12,0,.23.04.31.12s.12.18.12.31v.66c.29-.36.67-.66,1.14-.9.46-.24,1.03-.36,1.7-.36s1.25.15,1.76.45c.5.3.9.74,1.19,1.31.29.57.43,1.27.43,2.08v4.74c0,.12-.04.23-.13.31s-.18.12-.3.12h-1.8c-.12,0-.23-.04-.31-.12-.08-.08-.12-.18-.12-.31v-4.64c0-.6-.14-1.07-.43-1.4-.29-.33-.71-.5-1.27-.5s-.96.17-1.28.5c-.32.33-.48.8-.48,1.4v4.64c0,.12-.04.23-.12.31s-.18.12-.29.12h-1.8Z"/>
    <path d="M209.36,89.09c-.11,0-.21-.04-.29-.12-.08-.08-.12-.18-.12-.31v-1.36c0-.12.04-.23.12-.31.08-.08.17-.13.29-.13h1.78c.12,0,.23.04.31.13s.13.19.13.31v1.36c0,.12-.04.23-.13.31-.08.08-.19.12-.31.12h-1.78ZM209.41,99.29c-.11,0-.21-.04-.29-.12-.08-.08-.12-.18-.12-.31v-7.99c0-.12.04-.23.12-.31.08-.08.18-.12.29-.12h1.7c.12,0,.23.04.31.12s.12.18.12.31v7.99c0,.12-.04.23-.12.31s-.18.12-.31.12h-1.7Z"/>
    <path d="M213.66,99.29c-.11,0-.21-.04-.29-.12-.08-.08-.12-.18-.12-.31v-1.14c0-.11.03-.21.08-.31s.11-.18.18-.25l4.17-4.74h-3.86c-.12,0-.23-.04-.31-.12-.08-.08-.12-.17-.12-.29v-1.14c0-.12.04-.23.12-.31.08-.08.18-.12.31-.12h6.63c.12,0,.23.04.31.12.08.08.12.18.12.31v1.22c0,.1-.02.19-.07.27-.05.08-.1.16-.17.24l-4.08,4.71h4.25c.11,0,.21.04.29.12s.12.18.12.29v1.14c0,.12-.04.23-.12.31-.08.08-.18.12-.29.12h-7.14Z"/>
    <path d="M225.45,99.46c-.6,0-1.14-.12-1.61-.35-.48-.23-.86-.55-1.14-.94s-.42-.84-.42-1.33c0-.8.33-1.44.98-1.9s1.51-.78,2.58-.95l2.23-.32v-.31c0-.44-.1-.78-.31-1.02-.2-.24-.56-.36-1.07-.36-.37,0-.67.07-.9.22s-.4.34-.53.58c-.09.15-.22.22-.39.22h-1.62c-.12,0-.22-.04-.29-.11-.07-.07-.1-.16-.08-.26,0-.19.07-.42.22-.68.15-.26.37-.52.68-.77s.7-.47,1.17-.64c.48-.17,1.06-.25,1.75-.25s1.33.08,1.84.25.92.41,1.22.71c.31.31.53.66.68,1.06s.22.84.22,1.3v5.25c0,.12-.04.23-.12.31s-.18.12-.31.12h-1.67c-.11,0-.21-.04-.29-.12s-.12-.18-.12-.31v-.63c-.15.21-.35.42-.59.6-.25.19-.55.34-.89.45s-.75.17-1.22.17ZM226.14,97.69c.37,0,.71-.08,1-.24.29-.16.53-.4.7-.73.17-.33.26-.74.26-1.24v-.29l-1.58.25c-.61.1-1.06.25-1.34.46s-.42.45-.42.75c0,.21.07.4.2.56.13.16.3.28.52.36.22.08.44.12.68.12Z"/>
    <path d="M236.62,103.03c-.31,0-.58-.05-.82-.15-.24-.1-.42-.22-.53-.36-.11-.14-.1-.26,0-.36l.31-.27c.1-.09.19-.12.26-.08.07.04.17.09.28.16.11.07.28.1.49.1.18,0,.33-.05.44-.15.11-.1.17-.23.17-.39,0-.15-.06-.27-.17-.37-.11-.1-.26-.15-.44-.15-.14,0-.26.02-.37.06s-.22.07-.31.08c-.1.01-.18-.02-.26-.1l-.32-.32c-.07-.07-.1-.14-.08-.23.01-.08.04-.19.1-.31l.36-.78c-.99-.16-1.78-.57-2.38-1.22-.6-.66-.92-1.52-.97-2.6-.01-.18-.02-.41-.02-.69s0-.51.02-.69c.03-.83.23-1.53.59-2.12.36-.58.85-1.03,1.49-1.33.63-.31,1.37-.46,2.19-.46.76,0,1.41.1,1.94.31.53.21.97.47,1.31.79.34.32.59.65.76,1s.25.65.26.91c.01.11-.03.21-.11.3s-.18.13-.3.13h-1.82c-.11,0-.2-.03-.26-.09-.06-.06-.12-.15-.18-.26-.16-.4-.36-.68-.61-.85-.25-.17-.56-.25-.93-.25-.51,0-.91.16-1.21.49s-.45.84-.48,1.53c-.01.44-.01.84,0,1.21.03.7.2,1.21.48,1.53.29.32.69.48,1.2.48.4,0,.71-.08.95-.25.24-.17.44-.45.59-.85.04-.11.1-.2.17-.26.07-.06.16-.09.27-.09h1.82c.11,0,.21.04.3.13s.12.18.11.3c-.01.24-.1.53-.25.87-.16.34-.4.67-.72.99s-.75.59-1.28.81c-.53.21-1.18.33-1.94.34l-.34.7c.07-.03.16-.06.28-.08.12-.02.21-.03.28-.03.41,0,.73.14.98.41.24.27.37.62.37,1.05s-.14.79-.43,1.08-.69.43-1.22.43Z"/>
    <path d="M245.17,99.46c-.6,0-1.14-.12-1.61-.35-.48-.23-.86-.55-1.14-.94s-.42-.84-.42-1.33c0-.8.33-1.44.98-1.9s1.51-.78,2.58-.95l2.23-.32v-.31c0-.44-.1-.78-.31-1.02-.2-.24-.56-.36-1.07-.36-.37,0-.67.07-.9.22s-.4.34-.53.58c-.09.15-.22.22-.39.22h-1.62c-.12,0-.22-.04-.29-.11-.07-.07-.1-.16-.08-.26,0-.19.07-.42.22-.68.15-.26.37-.52.68-.77s.7-.47,1.17-.64c.48-.17,1.06-.25,1.75-.25s1.33.08,1.84.25.92.41,1.22.71c.31.31.53.66.68,1.06s.22.84.22,1.3v5.25c0,.12-.04.23-.12.31s-.18.12-.31.12h-1.67c-.11,0-.21-.04-.29-.12s-.12-.18-.12-.31v-.63c-.15.21-.35.42-.59.6-.25.19-.55.34-.89.45s-.75.17-1.22.17ZM247.37,89.26c-.31,0-.55-.05-.74-.15-.19-.1-.36-.2-.51-.3-.15-.1-.33-.14-.52-.14-.15,0-.26.04-.32.12-.07.08-.13.16-.19.25s-.15.14-.27.14h-.9c-.08,0-.15-.03-.2-.09-.06-.06-.08-.13-.08-.2,0-.18.03-.38.09-.6.06-.22.16-.44.31-.65s.33-.38.55-.52.5-.2.82-.2.55.05.75.14c.19.1.37.2.52.3.15.1.33.15.52.15.15,0,.25-.04.31-.14.06-.09.12-.18.19-.26s.16-.13.28-.13h.88c.1,0,.18.03.23.09.05.06.08.13.08.21,0,.18-.03.38-.1.6-.07.22-.17.44-.31.65-.14.21-.33.38-.55.52-.23.14-.5.2-.82.2ZM245.85,97.69c.37,0,.71-.08,1-.24.29-.16.53-.4.7-.73.17-.33.26-.74.26-1.24v-.29l-1.58.25c-.61.1-1.06.25-1.34.46s-.42.45-.42.75c0,.21.07.4.2.56.13.16.3.28.52.36.22.08.44.12.68.12Z"/>
    <path d="M256.48,99.46c-.94,0-1.73-.16-2.36-.47s-1.12-.76-1.45-1.33c-.33-.58-.52-1.25-.55-2.02-.01-.23-.02-.48-.02-.77s0-.54.02-.76c.03-.78.23-1.46.58-2.03.35-.57.84-1.01,1.48-1.33.63-.31,1.41-.47,2.31-.47s1.66.16,2.29.47c.63.31,1.13.75,1.48,1.33s.54,1.25.58,2.03c.02.21.03.47.03.76s-.01.55-.03.77c-.03.77-.22,1.45-.55,2.02s-.82,1.02-1.45,1.33-1.42.47-2.35.47ZM256.48,97.59c.55,0,.97-.17,1.26-.52s.44-.85.46-1.52c.01-.17.02-.4.02-.68s0-.51-.02-.68c-.02-.66-.18-1.16-.46-1.51-.28-.35-.7-.53-1.26-.53s-.98.18-1.27.53c-.29.35-.45.86-.47,1.51-.01.17-.02.4-.02.68s0,.51.02.68c.02.67.18,1.18.47,1.52s.71.52,1.27.52Z"/>
  </g>
  <g>
    <g>
      <g>
        <path class="cls-7" d="M46.99,64.17c10.82,0,19.26-2.44,19.26-13.16s4.07-33.27-15.47-33.27c0,0,0-3.38-5.39-3.38-8.46,0-16.57,7.34-16.57,14.57,0,28.28-6.55,35.24,18.16,35.24Z"/>
        <path class="cls-1" d="M46.99,64.02c8.44.19,18.87-1.77,18.74-12.24-.19-8.38,1.25-17.35-1.97-25.29-2.07-5.34-7.44-7.92-12.97-7.67,0,0-1.08-1.08-1.08-1.08-.78-2.83-4.77-2.25-7.11-1.85-5.81,1.3-11.5,6.14-12.2,12.25-.07,1.47,0,3.37-.06,4.93-.07,6.71-.97,13.41-1.13,20.07-.03,3.12.45,6.46,3.3,8.21,4.28,2.53,9.62,2.48,14.49,2.66h0ZM46.99,64.32c-13.7.03-20.77-.15-20.2-16.21.05-4.9.35-10.21.44-15.1,0,0,.04-2.5.04-2.5-.35-4.63,1.95-9.35,5.31-12.23,4.04-3.61,9.53-5.88,15.02-4.88,2.04.36,4.22,2.03,4.26,4.34,0,0-1.08-1.08-1.08-1.08,11.03-.07,15.91,7.62,16.44,17.81.44,5.82-.31,11.55-.48,17.35-.48,10.85-10.94,12.52-19.75,12.5h0Z"/>
      </g>
      <path class="cls-6" d="M43.85,62.39c-6.64,1.32-15.54-1.23-14.6-9.53,0,0,.09-1.79.09-1.79.34-6.94.83-14.55,1.09-21.45.04-5.07,3.59-9.24,7.64-11.85-3.55,3.02-6.64,7.04-6.48,11.88.08,6.91-.4,14.58-.85,21.51,0,0-.14,1.79-.14,1.79-1.14,7.51,7.2,9.84,13.24,9.44h0Z"/>
      <path class="cls-6" d="M48.42,61.94c-11.1,1.61-15.7-11.62-14.67-20.62,0,0,.15,0,.15,0,.19,10.33,4.11,18.18,14.52,20.61h0Z"/>
      <path class="cls-6" d="M46.79,63.07c-11.1,1.61-15.7-11.62-14.67-20.62,0,0,.15,0,.15,0,.19,10.33,4.11,18.17,14.52,20.61h0Z"/>
    </g>
    <g>
      <path class="cls-2" d="M85.17,103.02c0-25.27,0-18.76,0-23.81,0-5.05-16.98-16.38-37.51-16.38-20.54,0-37.51,11.33-37.51,16.38s0-1.45,0,23.81c0,0,18.36,15.71,37.28,15.71s37.75-15.71,37.75-15.71Z"/>
      <path class="cls-7" d="M33.69,115.19v-39.02s4.64,5.71,13.62,5.71c8.97,0,13.62-5.71,13.62-5.71v39.02c-9.52,3.05-18.57,2.86-27.23,0Z"/>
      <path class="cls-6" d="M85.02,103.02c-.92-7.87-1.42-15.87-1.81-23.77-.8-2.32-3.57-4.08-5.68-5.49-4.47-2.86-9.59-4.87-14.79-6.25-10.43-2.83-21.54-2.65-31.88.48-6.33,1.92-12.7,4.62-17.42,9.17-.6.67-1.17,1.3-1.34,2.1-.11,2.91-.3,5.81-.45,8.72-.35,5.63-.73,11.27-1.36,16.9h-.3l-.04-16.9s-.02-8.45-.02-8.45c-.09-1.49.86-2.81,1.78-3.88,4.89-5.18,11.66-8.16,18.31-10.36,10.8-3.44,22.58-3.65,33.48-.53,7.23,2.15,17.42,6.21,21.47,12.88.66,1.16.34,2.99.4,4.26,0,2.76-.05,18.04-.06,21.13,0,0-.3,0-.3,0h0Z"/>
      <path class="cls-8" d="M34.68,103.02c-3.83-1.71-12.82-7.13-10.95-12.3,1.02-1.91,2.83-3.37,4.22-4.89,1.58-1.57.41-2.71-.98-3.9-3.74-3.18-3.19-6.83-.04-10.14-6.34,9.65,5.41,8.28,3.46,14.08-.97,2.21-2.97,3.58-4.19,5.53-1.85,2.45,6.67,9.52,8.48,11.62h0Z"/>
      <path class="cls-8" d="M19.17,87.29c1.76,7.56,1.82,15.48.15,23.05-1.77-7.55-1.81-15.48-.15-23.05h0Z"/>
      <path class="cls-8" d="M73.35,87.43c1.76,7.56,1.82,15.48.15,23.05-1.77-7.55-1.81-15.48-.15-23.05h0Z"/>
      <path class="cls-8" d="M36.19,65.45c-6.34,3.35-19.85,8.84-21.96,15.92-.42,1.97-.7,7.26-.91,9.35-.37,4.24-.7,8.5-1.35,12.75-.55-4.27-.72-8.55-.76-12.84.26-4.31-.53-9.4,2.15-13.11,2.76-3.68,6.69-5.85,10.66-7.8,3.92-1.83,8-3.24,12.16-4.28h0Z"/>
      <path class="cls-6" d="M75.22,110.48c-.18-5.98-.5-18.01-.64-24,0,0,.71.71.71.71l-1.36.03.74-.74c.06,2.57.01,5.14-.09,7.7-.12,2.57-.28,5.14-.58,7.7,0,0-.15,0-.15,0-.58-5.37-.79-10.77-.65-16.16,0,0,.73.02.73.02.47.03,1.63.02,2.09.05,0,0-.02.69-.02.69-.14,5.98-.45,18.02-.64,24,0,0-.15,0-.15,0h0Z"/>
      <path class="cls-6" d="M19.94,111.75c-.17-6.3-.45-18.97-.56-25.27,0,0-.01-.62-.01-.62.39-.03,1.35-.02,1.75-.04,0,0,.61-.01.61-.01l.06.64c.47,5.21.75,10.43.72,15.65,0,1.74-.02,3.49-.1,5.24h-.15c-1.08-6.89-1.61-13.85-1.79-20.82,0,0,.66.62.66.62l-1.1-.03.64-.64c-.11,6.3-.39,18.97-.56,25.27,0,0-.15,0-.15,0h0Z"/>
      <g>
        <path class="cls-2" d="M47.66,62.83c-9.09,0-17.26,5.57-19.62,7.38s-3.76,4.7-3.19,6.77c.56,2.07,4.89,4.32,4.89,6.77s-4.98,4.7-4.98,6.58,8.94,10.71,8.94,10.71v-29.88s3.36-6.1,13.97-6.1"/>
        <path class="cls-6" d="M47.66,62.9c-5.02.1-9.88,1.77-14.23,4.16-3.06,1.83-6.76,3.68-8.02,7.23-1.44,3.47,2.33,4.97,4.02,7.39,2.66,3.37-2.24,5.74-3.87,8-.34.45-.27.78-.01,1.2,2.34,3.61,5.62,6.61,8.63,9.67,0,0-1.15.48-1.15.48-.09-10.04-.23-20.16.16-30.16,2.79-4.06,7.78-5.71,12.48-5.91.67,0,1.33,0,1.99.01,0,0,0,.15,0,.15l-1.97.17c-3.2.4-6.42,1.4-8.98,3.4-.99.77-1.91,1.75-2.51,2.74l.07-.28c.22,10.5.23,21.01.08,31.52-2.15-2.17-4.28-4.39-6.29-6.69-1.34-1.61-2.84-3.14-3.73-5.08-.24-.6-.02-1.36.33-1.8,1.23-1.65,2.83-2.47,4.01-4,1.33-1.52.07-3-1.17-4.27-1.03-1.13-2.53-2.18-3.05-3.79-.76-3.78,2.55-6.77,5.46-8.51,5.29-3.36,11.41-5.79,17.74-5.78,0,0,0,.15,0,.15h0Z"/>
      </g>
      <g>
        <path class="cls-2" d="M46.95,62.83c9.09,0,17.26,5.57,19.62,7.38,2.44,1.88,3.76,4.7,3.19,6.77-.56,2.07-4.89,4.32-4.89,6.77s4.98,4.7,4.98,6.58c0,1.88-8.94,10.71-8.94,10.71v-31.37s-3.36-6.1-13.97-6.1"/>
        <path class="cls-6" d="M46.95,62.75c6.33-.01,12.45,2.42,17.74,5.78,2.91,1.74,6.22,4.74,5.46,8.52-.51,1.61-2.02,2.65-3.05,3.79-1.25,1.27-2.5,2.75-1.17,4.27,1.23,1.79,3.95,2.8,4.46,5.12.01.55-.19.86-.34,1.17-.96,1.71-2.25,3.12-3.5,4.58-2.01,2.3-4.15,4.51-6.29,6.69-.16-11-.13-22,.09-33,0,0,.07.28.07.28-.59-1-1.52-1.96-2.51-2.74-3.08-2.42-7.1-3.36-10.95-3.56,0,0,0-.15,0-.15,5.33-.22,11.26,1.28,14.47,5.9.26,5.27.2,10.65.26,15.96.03,5.23-.04,10.46-.09,15.68l-1.15-.48c2.65-2.62,5.32-5.28,7.63-8.19.45-.61,1.11-1.4,1.24-2.08-1.07-2.84-7.03-4.71-4.13-8.6,1.1-1.53,2.8-2.66,3.84-4.12,1.27-2-.23-4.75-1.74-6.29-5.61-4.79-12.88-8.14-20.34-8.38,0,0,0-.15,0-.15h0Z"/>
      </g>
      <g>
        <path class="cls-2" d="M47.31,64.37c8.34,0,13.62,2.95,13.62,7.67v4.13s-4.64,5.71-13.62,5.71c-8.97,0-13.62-5.71-13.62-5.71v-4.13c0-4.72,5.28-7.67,13.62-7.67"/>
        <path class="cls-1" d="M47.31,64.29c1.79-.02,3.59.08,5.36.39,1.77.32,3.53.83,5.1,1.78.79.46,1.51,1.06,2.11,1.78.61.71,1.04,1.58,1.24,2.51.14.45.13.94.17,1.4l.02,1.34.03,2.68v.15s-.09.11-.09.11c-1.75,1.99-3.95,3.44-6.34,4.47-2.39,1.02-5,1.53-7.6,1.57-2.6.02-5.23-.41-7.68-1.38-1.23-.47-2.39-1.1-3.49-1.82-1.11-.74-2.11-1.54-3.04-2.62l-.17-.2v-.28s.02-2.68.02-2.68l.02-1.34c.04-.47.04-.99.18-1.47.21-.98.68-1.9,1.32-2.65.63-.75,1.38-1.37,2.2-1.84,1.64-.96,3.44-1.43,5.24-1.71,1.8-.26,3.61-.31,5.4-.19v.15c-1.78.13-3.55.35-5.26.77-1.71.4-3.37,1.01-4.77,1.96-1.41.9-2.53,2.24-2.77,3.8-.1.38-.07.77-.09,1.19l.02,1.34.02,2.68-.17-.48c1.56,1.7,3.67,3.14,5.89,4.09,2.24.96,4.68,1.45,7.14,1.51,2.46.01,4.93-.4,7.22-1.31,2.27-.91,4.44-2.28,6.08-4.06l-.09.26.03-2.68c0-.9.08-1.79-.09-2.6-.28-1.67-1.49-3.08-2.95-4-1.46-.96-3.17-1.52-4.9-1.89-1.74-.37-3.52-.53-5.3-.56v-.15Z"/>
      </g>
      <path class="cls-8" d="M34.6,75.68l-.22-2.5c-.19-6.73,8.47-9.26,13.91-7.9,0,0,0,.15,0,.15-1.66.39-3.27.66-4.84,1.04-3.66.75-8.38,2.27-8.48,6.71,0,0-.22,2.49-.22,2.49h-.15Z"/>
      <path class="cls-5" d="M31,101.89v-32.92s5.56-6.83,16.3-6.83c10.74,0,16.3,6.83,16.3,6.83v21.47"/>
      <g>
        <path class="cls-2" d="M38.73,69.41s1.6-1.27,1.6-3.47v-10.59h14.26v10.59c0,2.01,1.28,3.47,1.28,3.47"/>
        <path class="cls-1" d="M38.69,69.35c.86-.81,1.42-1.95,1.46-3.12,0-1.19-.06-2.41-.09-3.62l-.18-7.26v-.44s.45-.01.45-.01l14.26-.32.76-.02v.78c.02,2.39-.03,4.78-.14,7.18-.04,1.19-.15,2.41-.21,3.57-.04,1.1.31,2.26.93,3.26l-.11.1c-.45-.43-.8-.94-1.08-1.5-.29-.56-.48-1.18-.54-1.82-.09-1.23-.18-2.4-.22-3.6-.12-2.39-.17-4.78-.15-7.18l.77.77-14.26-.32.45-.45-.18,7.26c-.04,1.22-.05,2.41-.11,3.64-.12,1.26-.77,2.42-1.72,3.21l-.09-.12Z"/>
      </g>
      <path class="cls-8" d="M39.67,70.34c1.86-1.87,1.11-4.4,1.05-6.73-.25-2.45-.29-4.87.52-7.26,0,0,.15,0,.15,0,.81,2.39.77,4.81.52,7.26-.17,2.35.09,5.38-2.15,6.85,0,0-.09-.12-.09-.12h0Z"/>
    </g>
    <g>
      <path class="cls-2" d="M34.12,30.81c0,15.84,1.24,29.55,13.53,29.55s13.39-13.71,13.39-29.55l-10.34-5.77-16.58,5.77Z"/>
      <path class="cls-1" d="M34.19,30.85c.37,8.25-.19,19.4,5.51,25.96,3.95,4.21,11.89,4.18,15.76-.08,3.91-4.53,4.3-11.08,4.68-16.86.14-3.01.16-6.04.14-9.07l.4.68c-3.06-1.69-7.31-4.13-10.29-5.85,0,0,.55.05.55.05-5.55,1.83-11.06,3.49-16.75,5.17h0ZM34.06,30.76c5.45-2.22,11.1-4.42,16.7-6.47,3.15,1.65,7.5,4.1,10.66,5.84,0,0,.4.22.4.22,0,0,0,.46,0,.46-.27,8.42.24,19.95-5.59,26.65-4.34,4.6-12.82,4.52-17.09-.13-5.69-6.75-4.98-18.17-5.08-26.57h0Z"/>
    </g>
    <path class="cls-8" d="M35.19,29.82c.67,10.32-.07,27.97,13.46,29.48,0,0,0,.15,0,.15-7.32,1.05-11.6-4.77-12.69-11.35-1.24-6.08-1.1-12.21-.92-18.28h.15Z"/>
    <path class="cls-8" d="M49.92,26.21c1.8,4.68,4.86,12.75,10.3,13.81,0,0,0,.15,0,.15-4.31-.05-8.44-5.57-9.97-9.23-.51-1.49-.86-3.15-.49-4.73h.15Z"/>
    <path class="cls-7" d="M50.71,25.04c0,9.97-9.42,13.34-18.03,13.34l1.99-14.72h27.82v15.26c-6.07,0-11.79-9.22-11.79-13.89Z"/>
    <path class="cls-3" d="M61.09,39c-1.59-.02-3.02-.88-4.21-1.86-1.2-1-2.23-2.18-3.14-3.44-.92-1.26-1.69-2.62-2.33-4.05-.62-1.44-1.15-2.94-1.23-4.61h1.08c.01,2.06-.34,4.17-1.26,6.08-.91,1.9-2.36,3.57-4.12,4.72-1.74,1.18-3.72,1.9-5.72,2.33-2.01.4-4.05.52-6.06.29v-.15c1.98-.25,3.92-.62,5.77-1.24,1.85-.59,3.6-1.42,5.15-2.49,1.53-1.1,2.87-2.43,3.76-4.08.91-1.64,1.34-3.53,1.4-5.46h1.08c0,1.41.43,2.88.97,4.27.55,1.4,1.25,2.74,2.07,4.02.82,1.27,1.76,2.48,2.86,3.51,1.1,1.01,2.42,1.91,3.94,2.02v.15Z"/>
    <path class="cls-6" d="M32.87,37.3c7.01-1.83,17.06-6.13,17.39-14.48,0,0,.96.28.96.28-1.75,2.48-3.82,4.65-6.2,6.49-2.37,1.82-5.05,3.27-7.93,4.01,0,0-.04-.14-.04-.14,6.16-2.02,10.96-6.94,14.22-12.37.56,5.31-1.93,9.73-6.31,12.61-3.58,2.34-7.81,3.69-12.06,3.75,0,0-.02-.15-.02-.15h0Z"/>
    <g>
      <path class="cls-6" d="M46.25,16.15c-7.42,1.55-15.73,6.2-16.49,14.5,0,0-.15,0-.15,0-.41-7.74,9.14-16.67,16.64-14.5h0Z"/>
      <path class="cls-6" d="M64.46,52.73c-.24-11.37,2.26-28.28-11.27-32.8,0,0,.03-.15.03-.15,11.7,1.01,12.55,14.22,12.01,23.41-.16,3.19-.5,6.36-.62,9.54,0,0-.15,0-.15,0h0Z"/>
      <path class="cls-6" d="M62.42,36.29c-.61-6.36-3.52-13.07-9.23-16.37,0,0,.03-.15.03-.15,5.7.21,7.98,6.76,9,11.45.3,1.67.46,3.37.35,5.06,0,0-.15,0-.15,0h0Z"/>
      <path class="cls-6" d="M32.01,36.44c7.78-1.45,16.14-6.17,17.84-14.48,0,0,.15,0,.15,0,.91,4.43-2.31,8.67-6.01,10.74-3.64,2.26-7.78,3.57-11.96,3.89l-.02-.15h0Z"/>
    </g>
    <g>
      <path class="cls-7" d="M60.92,111.75v-35.58s-4.64,5.71-13.62,5.71c-8.97,0-13.62-5.71-13.62-5.71v35.58"/>
      <path class="cls-1" d="M60.85,111.75l-.39-35.58.82.29c-7.12,7.93-20.96,8.02-28.18.18,0,0,1.34-.48,1.34-.48.06,8.9-.09,17.79-.34,26.69-.07,2.97-.2,5.93-.34,8.9,0,0-.15,0-.15,0-.56-12.52-.77-25.06-.66-37.58,0,0,1.32,1.53,1.32,1.53,6.92,7.7,20.62,7.34,27.12-.73,0,0-.01,1.2-.01,1.2-.16.02-.11,35.87-.54,35.58h0Z"/>
    </g>
    <path class="cls-4" d="M59.31,78.57c.53,2.66.81,5.31,1,7.97.19,2.66.3,5.32.31,7.98.02,2.66-.07,5.32-.24,7.98-.17,2.66-.43,5.32-.93,7.98-.53-2.66-.81-5.31-1.01-7.97-.19-2.66-.3-5.32-.31-7.98-.01-2.66.07-5.32.24-7.98.17-2.66.43-5.32.93-7.98Z"/>
    <g>
      <g>
        <circle class="cls-7" cx="31" cy="101.89" r="3.09"/>
        <path class="cls-1" d="M34.02,101.89c.05-3.59-5.64-3.6-5.51,0,.17,3.08,5.36,3.15,5.51,0h0ZM34.17,101.89c.13,5.13-6.86,5.03-6.86,0,.33-4.55,6.62-4.61,6.86,0h0Z"/>
      </g>
      <g>
        <circle class="cls-7" cx="31" cy="101.89" r="1.13"/>
        <path class="cls-1" d="M32.06,101.89c.11-1.09-1.82-.99-1.59,0,.07.28.33.29.54.39.32.22.99.19,1.06-.39h0ZM32.21,101.89c.36,2.55-3.07,2.43-2.94,0,.26-1.99,2.82-2.02,2.94,0h0Z"/>
      </g>
    </g>
    <path class="cls-5" d="M66.89,108.72c1.36,0,2.47-1.11,2.47-2.47v-13.35c0-1.36-1.11-2.47-2.47-2.47h-6.57c-1.36,0-2.47,1.11-2.47,2.47v13.35c0,1.36,1.11,2.47,2.47,2.47"/>
  </g>
</svg>