<?xml version="1.0" encoding="UTF-8"?>
<svg id="enfermeiros" xmlns="http://www.w3.org/2000/svg" width="100" height="100" viewBox="0 0 100 100">
  <defs>
    <style>
      .cls-1 {
        fill: #b9c6dd;
      }

      .cls-2 {
        fill: #bec5d7;
      }

      .cls-3 {
        fill: #f5f5f6;
      }

      .cls-4 {
        fill: #a6a6a6;
      }

      .cls-5 {
        fill: #47576d;
      }

      .cls-6 {
        fill: #fff;
      }

      .cls-7 {
        fill: #0d1729;
      }

      .cls-8 {
        fill: #7a92be;
      }

      .cls-9 {
        fill: none;
        stroke: #acdaa0;
        stroke-miterlimit: 10;
        stroke-width: 2.94px;
      }

      .cls-10 {
        fill: #707487;
      }
    </style>
  </defs>
  <circle class="cls-9" cx="49.85" cy="50.13" r="47.1"/>
  <g>
    <g>
      <path class="cls-10" d="M49.55,49.17c9.19,0,16.37-2.08,16.37-11.18,0-9.1,3.46-28.27-13.15-28.27,0,0,0-2.87-4.58-2.87-7.19,0-14.08,6.24-14.08,12.38,0,24.03-5.57,29.94,15.43,29.94Z"/>
      <path class="cls-7" d="M49.55,49.05c7.14.18,16.07-1.55,15.92-10.4-.16-7.12,1.06-14.74-1.67-21.49-1.96-4.95-6.8-6.83-11.85-6.51,0,0-.09-.92-.09-.92-.17-1-1.17-1.59-2.19-1.74-3.86-.55-7.97,1.23-10.73,3.93-1.87,1.83-3.28,4.21-3.49,6.65-.06,1.25,0,2.87-.06,4.19-.1,4.29-.42,8.62-.76,12.86-.15,2.8-.47,5.67.3,8.17,1.96,5.42,9.83,4.97,14.62,5.26h0ZM49.55,49.3c-5.31-.19-13.34.86-16-4.97-1.17-2.83-1.14-5.84-1.16-8.8.03-4.32.32-8.54.38-12.83.07-1.37-.03-2.95.1-4.38.84-6.45,6.51-11,12.53-12.25,2.97-.62,7.96-.33,8.29,3.65,0,0-.92-.92-.92-.92,2.53.03,5.19.48,7.48,1.83,9.08,5.86,6.2,18.9,6.08,28.04-.37,9.18-9.33,10.66-16.78,10.62h0Z"/>
    </g>
    <path class="cls-5" d="M46.88,47.66c-5.79,1.43-13.55-.88-12.79-8.12,0,0,.06-1.52.06-1.52.15-3.86.76-14.22,1-18.21.09-4.36,3.23-7.99,6.82-10.06-2.87,2.69-5.38,6.04-5.17,10.1.15,6.61-.24,13.23-.79,19.81-1.04,6.15,5.91,8.09,10.87,8h0Z"/>
    <path class="cls-5" d="M50.76,47.28c-9.43,1.37-13.34-9.87-12.47-17.52,0,0,.13,0,.13,0,.13,8.72,3.55,15.49,12.34,17.52h0Z"/>
    <path class="cls-5" d="M49.38,48.24c-9.43,1.37-13.34-9.87-12.47-17.52,0,0,.13,0,.13,0,.13,8.72,3.55,15.49,12.34,17.52h0Z"/>
  </g>
  <g>
    <path class="cls-3" d="M81.99,82.19c0-21.47,0-15.94,0-20.23,0-4.29-14.43-13.92-31.88-13.92-17.45,0-31.88,9.62-31.88,13.92s0-1.24,0,20.23c0,0,9.63,11.93,31.68,11.93s32.07-11.93,32.07-11.93Z"/>
    <g>
      <path class="cls-3" d="M81.99,82.19c0-21.47,0-15.94,0-20.23,0-4.29-14.43-13.92-31.88-13.92-17.45,0-31.88,9.62-31.88,13.92v21.81"/>
      <path class="cls-8" d="M81.86,82.19c-.73-6.68-1.22-13.49-1.54-20.2-.68-1.97-3.04-3.46-4.82-4.67-3.8-2.43-8.15-4.14-12.57-5.31-8.87-2.41-18.3-2.25-27.09.41-4.39,1.27-8.68,3.16-12.34,5.72-1.41,1.06-2.97,2.17-3.59,3.79-.26,6.04-.7,12.21-1.19,18.25,0,0-.36,3.59-.36,3.59h-.25l-.04-14.36-.02-7.18c-.05-.62.16-1.28.45-1.8,5.71-8.3,21.12-12.52,30.81-12.62,9.6-.09,19.32,2.48,27.37,7.76,2.15,1.57,4.65,3.27,5.43,5.96.11,1.65,0,4.64.03,6.32,0,0-.04,14.36-.04,14.36h-.25Z"/>
    </g>
    <path class="cls-1" d="M25.91,68.82c1.49,6.42,1.55,13.15.13,19.59-1.5-6.42-1.53-13.15-.13-19.59h0Z"/>
    <path class="cls-1" d="M71.95,68.94c1.49,6.42,1.55,13.15.13,19.59-1.5-6.42-1.53-13.15-.13-19.59h0Z"/>
    <path class="cls-1" d="M40.37,50.26c-5.48,2.92-16.75,7.41-18.66,13.52-.35,1.67-.6,6.17-.77,7.94-.31,3.6-.6,7.22-1.15,10.84-.47-3.63-.61-7.27-.64-10.91.22-3.66-.45-7.99,1.83-11.14,4.74-5.83,12.44-8.31,19.39-10.26h0Z"/>
    <g>
      <g>
        <rect class="cls-3" x="57.67" y="67.41" width="7.71" height="14.67"/>
        <path class="cls-8" d="M65.42,67.36l.33,14.71v.37s-.38,0-.38,0l-7.7.13h-.48s-.03-.51-.03-.51c-.26-5.06-.19-10.14,0-15.2,2.75.05,5.58.29,8.26.49h0ZM65.33,67.45c-2.21.16-5.5.41-7.66.48,0,0,.53-.53.53-.53.18,4.89.23,9.78-.02,14.67,0,0-.51-.51-.51-.51l7.7.13-.38.38.33-14.62h0Z"/>
      </g>
      <g>
        <rect class="cls-3" x="56.33" y="70.31" width="10.38" height="13.09"/>
        <path class="cls-8" d="M66.75,70.26l.29,13.13v.33s-.34,0-.34,0l-10.38.17h-.48s-.03-.51-.03-.51c-.22-4.56-.2-9.13-.07-13.7,3.65.08,7.43.3,10.99.57h0ZM66.66,70.35c-2.99.2-7.4.48-10.33.55,0,0,.59-.59.59-.59.1,4.36.13,8.73-.09,13.09,0,0-.51-.51-.51-.51l10.38.17-.34.34.29-13.04h0Z"/>
      </g>
    </g>
    <path class="cls-8" d="M73.54,88.53c-.16-5.08-.43-15.31-.54-20.39,0,0,.6.6.6.6l-1.16.03.63-.63c.06,2.18,0,4.36-.08,6.54-.1,2.18-.24,4.36-.49,6.54h-.13c-.49-4.57-.68-9.15-.55-13.74,0,0,.61.01.61.01.4.03,1.39.02,1.78.04,0,0-.01.59-.01.59-.11,5.08-.39,15.31-.54,20.39,0,0-.13,0-.13,0h0Z"/>
    <path class="cls-8" d="M26.57,89.61c-.15-5.62-.39-16.37-.49-22,.57-.01,1.43-.03,2.01-.05l.04.54c.51,5.83.77,11.91.52,17.75,0,0-.13,0-.13,0-.48-2.93-.78-5.88-1.04-8.83-.27-2.56-.38-6.26-.48-8.86,0,0,.56.53.56.53l-.94-.02.54-.54-.21,10.73-.27,10.73h-.13Z"/>
    <g>
      <path class="cls-6" d="M49.82,50.12c4.68,0,7.65,1.66,7.65,4.31h0s-2.61,3.21-7.65,3.21c-5.04,0-7.65-3.21-7.65-3.21h0c0-2.65,2.96-4.31,7.65-4.31"/>
      <path d="M49.82,50.05c3.01-.08,7.71.58,7.95,4.37.02-.04-.13.37-.07.2h0c-.82.98-1.88,1.73-3,2.31-4.18,2.08-9.8,1.55-13-2.12,0,0-.14-.17-.14-.17-.08-2.01,1.56-3.63,3.34-4.14,1.62-.55,3.3-.6,4.93-.45v.13c-2.67.36-6.88.94-7.04,4.25,0,0-.14-.39-.14-.39,3.67,3.81,10.5,4.2,14.38.41.03-.04.17-.17.21-.21.06-.18-.09.27-.07.17.04-2.19-2.16-3.36-4.05-3.82-1.07-.27-2.18-.39-3.29-.42v-.13h0Z"/>
    </g>
    <g>
      <path class="cls-6" d="M42.53,53.63s1.36-1.08,1.36-2.95v-9h12.12v9c0,1.7,1.09,2.95,1.09,2.95"/>
      <path d="M42.49,53.58c1.69-1.46,1.17-3.75,1.17-5.72,0,0-.15-6.17-.15-6.17v-.37s.38,0,.38,0l12.12-.27h.64c.03,1.22,0,2.47,0,3.7,0,0-.12,3.05-.12,3.05-.02,1.99-.6,4.01.62,5.8,0,0-.1.08-.1.08-.73-.73-1.27-1.72-1.38-2.82-.15-1.79-.24-4.3-.3-6.11,0-1.02-.04-2.03-.02-3.05l.65.65-12.12-.27.38-.38-.15,6.17c-.09,2,.26,4.45-1.56,5.82,0,0-.08-.1-.08-.1h0Z"/>
    </g>
    <path class="cls-4" d="M43.33,54.42c.68-.74,1.1-1.71,1.07-2.66l-.18-3.06c-.22-2.08-.24-4.13.44-6.17,0,0,.13,0,.13,0,.69,2.03.66,4.08.44,6.17-.14,2,.08,4.57-1.83,5.82,0,0-.08-.1-.08-.1h0Z"/>
  </g>
  <g>
    <path class="cls-6" d="M38.62,20.83c0,13.46,1.05,25.11,11.5,25.11s11.38-11.65,11.38-25.11l-8.79-4.9-14.09,4.9Z"/>
    <path d="M38.67,20.86c.11,5.07.19,10.34,1.39,15.32.62,2.46,1.56,4.93,3.29,6.75,3.36,3.58,10.11,3.55,13.39-.07,1.67-1.82,2.53-4.28,3.08-6.74,1.05-4.98,1-10.16,1.01-15.29l.34.57c-2.92-1.64-5.85-3.28-8.75-4.97l.47.04c-4.72,1.55-9.4,2.97-14.23,4.39h0ZM38.56,20.79c4.63-1.89,9.43-3.76,14.19-5.5,3.04,1.62,6.05,3.29,9.06,4.96l.34.19v.39c-.06,5.16-.14,10.4-1.32,15.53-.62,2.53-1.55,5.13-3.43,7.12-3.73,3.92-10.87,3.84-14.52-.11-4.88-5.89-4.21-15.31-4.32-22.57h0Z"/>
  </g>
  <path class="cls-4" d="M39.52,19.99c.49,7.55.06,20.17,7.8,24.04,1.13.56,2.39.76,3.64,1.01,0,0,0,.13,0,.13-2.88.47-6.27-.71-8.11-3.2-1.47-1.83-2.18-4.19-2.66-6.44-1.06-5.16-.92-10.37-.79-15.53h.13Z"/>
  <path class="cls-4" d="M60.79,28.79c-4.97.75-8.95-7.72-8.88-11.86,0,0,.13,0,.13,0,.53,3.8,3.01,7.11,5.71,9.68.89.86,1.79,1.65,3.04,2.06v.13h0Z"/>
  <path class="cls-10" d="M52.71,15.93c0,8.47-8,11.34-15.32,11.34l1.69-12.5h23.64v12.97c-5.15,0-10.02-7.83-10.02-11.8Z"/>
  <path class="cls-7" d="M61.53,27.79c-3.94-.39-6.64-4.67-8.23-7.94-.53-1.22-.98-2.5-1.05-3.92h.92c.33,8.01-7.34,12.28-14.57,11.4,0,0,0-.13,0-.13,1.68-.21,3.33-.52,4.9-1.05,3.06-.97,5.99-2.75,7.57-5.59.77-1.39,1.13-3,1.19-4.64h.92c.24,3.74,2.39,7.39,5.01,10.02.93.86,2.05,1.62,3.35,1.71v.13h0Z"/>
  <path class="cls-5" d="M37.55,26.35c6.02-1.59,14.44-5.15,14.78-12.31,0,0,.81.24.81.24-1.48,2.11-3.25,3.95-5.28,5.51-2,1.56-4.29,2.75-6.74,3.41,0,0-.03-.12-.03-.12,4.73-1.57,8.6-5.18,11.3-9.28,0,0,.78-1.23.78-1.23.49,4.45-1.68,8.32-5.36,10.71-3.04,1.98-6.64,3.14-10.25,3.19,0,0-.01-.13-.01-.13h0Z"/>
  <g>
    <g>
      <path class="cls-3" d="M36.06,7.93s5.01-6.16,14.7-6.16c9.69,0,14.7,6.16,14.7,6.16,0,2.58-2.72,4.56-2.72,6.06s-1.31,4.53-1.31,4.53c0,0-3.64-4.47-10.67-4.47-7.03,0-10.67,4.47-10.67,4.47,0-.96-1.31-4.67-1.31-5.51s-2.72-1.43-2.72-5.08Z"/>
      <path class="cls-8" d="M35.96,7.89C42.48.44,54.58-.71,62.73,4.73c1.19.79,2.27,1.64,3.28,2.76.11.13.16.28.16.44.08,2.37-1.88,4.02-2.6,5.94-.06,1.76-.69,3.39-1.3,5.01-.24.63-1.12.74-1.52.21-5.17-5.29-14.8-5.21-20.04-.07-.29.36-.83.42-1.17.08-.37-.37-.18-1.15-.4-1.83-.23-1.22-.67-2.76-.82-3.99-.01-.36.05-.27-.31-.65-1.38-1.17-2.27-2.89-2.03-4.73h0ZM36.16,7.96c.1,1.67,1.01,3.11,2.4,4.02.19.17.42.29.63.7.05.09.07.27.08.35,0,.08.09.36.1.44.46,1.7,1.24,3.27,1.51,5.06,0,0-1.39-.49-1.39-.49,5.58-6.74,16.98-6.68,22.65-.07,0,0-1.52.21-1.52.21.65-1.48,1.27-3,1.37-4.62.62-2.11,2.72-3.45,2.78-5.61,0,0,.16.44.16.44-.8-.94-1.84-1.83-2.91-2.58-7.65-5.43-19.29-4.66-25.85,2.17h0Z"/>
    </g>
    <rect class="cls-2" x="46.94" y="6.22" width="7.64" height="2.92" rx=".04" ry=".04"/>
    <rect class="cls-2" x="46.94" y="6.22" width="7.64" height="2.92" rx=".04" ry=".04" transform="translate(58.44 -43.08) rotate(90)"/>
  </g>
  <g>
    <path class="cls-3" d="M41.23,54.85s2.93,3.6,8.59,3.6c5.66,0,8.59-3.6,8.59-3.6,0-1.51-1.59-2.66-1.59-3.54s-.76-2.64-.76-2.64c0,0-2.13,2.61-6.23,2.61-4.11,0-6.23-2.61-6.23-2.61,0,.56-.76,2.73-.76,3.22s-1.59.83-1.59,2.97Z"/>
    <path class="cls-8" d="M41.33,54.81c4.32,4.4,12.48,4.24,16.53-.41,0,0-.16.44-.16.44-.08-1.2-1.32-1.95-1.66-3.21-.06-.9-.44-1.79-.81-2.62,0,0,1.51.21,1.51.21-3.43,4.14-10.41,4.21-13.77-.07,0,0,1.4-.5,1.4-.5-.18,1.19-.71,2.07-1.05,3.17-.04.55-.52.78-.86,1.03-.66.44-1.02,1.19-1.14,1.95h0ZM41.13,54.88c-.2-1.11.3-2.17,1.11-2.91.09-.09.17-.22.12-.17-.01,0-.02.09-.02.06-.01-.1.02-.32.02-.42.08-.62.25-1.52.37-2.13.04-.25.09-.59.07-.66-.11-.37.1-.77.47-.88.38-.13.69.13.93.38,2.96,2.67,8.28,2.73,11.16-.07.32-.41.93-.47,1.31-.1.58.97.88,2.21.96,3.31.15.5.57.95.91,1.58.31.55.6,1.25.58,2.01,0,.15-.06.29-.16.39-1.24,1.31-2.67,2.16-4.24,2.78-4.63,1.76-10.32.64-13.58-3.19h0Z"/>
  </g>
</svg>