<svg xmlns="http://www.w3.org/2000/svg" width="100" height="108" viewBox="0 0 100 108"><defs><style>.cls-1{fill:none;stroke:#acdaa0;stroke-miterlimit:10;stroke-width:2.93546px;}.cls-2{fill:#707487;}.cls-3{fill:#0d1729;}.cls-4{fill:#47576d;}.cls-5{fill:#f5f5f6;}.cls-6{fill:#7a92be;}.cls-7{fill:#b9c6dd;}.cls-8{fill:#fff;}.cls-9{fill:#a6a6a6;}.cls-10{fill:#bec5d7;}.cls-11{fill:#acdaa0;}.cls-12{fill:#1d1d1b;}</style></defs><g id="enfermeiros"><circle class="cls-1" cx="49.85365" cy="50.13466" r="47.1047"/><path class="cls-2" d="M49.548,49.17428c9.19372,0,16.3696-2.07614,16.3696-11.17923S69.37984,9.72466,52.7707,9.72466c0,0,0-2.87466-4.58016-2.87466C41.00389,6.85,34.115,13.08577,34.115,19.23068,34.115,43.26236,28.547,49.17428,49.548,49.17428Z"/><path class="cls-3" d="M49.548,49.04743c7.13583.18319,16.07166-1.54641,15.92227-10.40128-.16152-7.12449,1.06232-14.73845-1.67461-21.48984-1.95528-4.9469-6.8047-6.83219-11.85046-6.50909l-.08975-.92254a2.41,2.41,0,0,0-2.19309-1.74141C45.80332,7.43176,41.6926,9.218,38.93293,11.91754a11.02007,11.02007,0,0,0-3.4853,6.64967c-.05534,1.24972-.0003,2.86642-.06152,4.1919-.1034,4.28512-.42152,8.61558-.76126,12.85864-.1547,2.79858-.47228,5.67212.30055,8.17212,1.957,5.41658,9.8253,4.96978,14.62262,5.25756Zm0,.25367c-5.31446-.19152-13.3403.86278-16.00284-4.97267-1.16834-2.8295-1.14126-5.84223-1.15979-8.79759.03372-4.31919.3233-8.53981.38059-12.82838.06573-1.36966-.029-2.94563.099-4.3757.84005-6.44812,6.51238-11.00158,12.53266-12.25257,2.97312-.61995,7.96367-.33336,8.28829,3.6503L52.7708,8.8094a15.01816,15.01816,0,0,1,7.481,1.83447c9.07762,5.85912,6.2011,18.9043,6.07968,28.0375C65.96329,47.8595,56.99885,49.34106,49.548,49.3011Z"/><path class="cls-4" d="M46.88179,47.66072c-5.79376,1.43145-13.54518-.87546-12.78721-8.12292l.06024-1.5182c.154-3.86475.75974-14.2234.996-18.21338.09431-4.35822,3.23082-7.99062,6.82159-10.05606-2.86871,2.689-5.378,6.04475-5.17361,10.1025a186.921,186.921,0,0,1-.788,19.81245c-1.04028,6.15163,5.90875,8.08664,10.871,7.99561Z"/><path class="cls-4" d="M50.76057,47.28059c-9.42842,1.36886-13.33816-9.86972-12.46647-17.5208l.12646.00444c.13025,8.71838,3.5454,15.4936,12.34,17.51636Z"/><path class="cls-4" d="M49.37753,48.23884C39.949,49.60739,36.03946,38.36937,36.91107,30.718l.12647.00444c.13015,8.71824,3.54565,15.49368,12.34,17.51636Z"/><path class="cls-5" d="M81.99027,82.18807V61.95438c0-4.294-14.42563-13.91727-31.87557-13.91727S18.23912,57.66038,18.23912,61.95438V82.18807S27.87055,94.12084,49.9169,94.12084,81.99027,82.18807,81.99027,82.18807Z"/><path class="cls-5" d="M81.99027,82.18807V61.95438c0-4.294-14.42563-13.91727-31.87557-13.91727S18.23912,57.66038,18.23912,61.95438V83.76467"/><path class="cls-6" d="M81.86351,82.18806C81.12881,75.51157,80.642,68.701,80.32176,61.9908c-.68218-1.96928-3.03531-3.465-4.82378-4.669A44.60835,44.60835,0,0,0,62.93262,52.0091a49.26083,49.26083,0,0,0-27.0898.407,42.05337,42.05337,0,0,0-12.33939,5.71557c-1.40877,1.0638-2.97237,2.16979-3.59145,3.789-.2583,6.04129-.70284,12.21088-1.18637,18.25348l-.35973,3.59058h-.25351l-.03591-14.36255L18.05852,62.221a3.31188,3.31188,0,0,1,.45086-1.8042c5.71222-8.30075,21.12385-12.51591,30.81276-12.62465A49.35378,49.35378,0,0,1,76.69405,55.552c2.1467,1.56776,4.65167,3.27205,5.43484,5.9585.11385,1.64838-.00515,4.63543.02716,6.315l-.039,14.36255Z"/><path class="cls-7" d="M25.90843,68.82234a44.519,44.519,0,0,1,.12772,19.5896,44.51184,44.51184,0,0,1-.12772-19.5896Z"/><path class="cls-7" d="M71.94782,68.9383a44.51765,44.51765,0,0,1,.12773,19.58936,44.51,44.51,0,0,1-.12773-19.58936Z"/><path class="cls-7" d="M40.36813,50.264c-5.47857,2.91945-16.75336,7.40753-18.659,13.524-.35393,1.67317-.59813,6.16631-.7722,7.94292-.3125,3.60344-.59714,7.21941-1.14805,10.83781a90.6318,90.6318,0,0,1-.64282-10.9082c.219-3.65884-.45311-7.99242,1.83-11.13553,4.73944-5.82738,12.43642-8.30887,19.39214-10.261Z"/><rect class="cls-5" x="57.66888" y="67.40745" width="7.70503" height="14.66758"/><path class="cls-6" d="M65.41872,67.36262,65.75,82.075l.00834.36963-.3845.00635-7.70481.1311-.48011.00806-.027-.51514c-.25613-5.06494-.18842-10.13621.00009-15.20288,2.74846.04778,5.58232.29144,8.25678.49048Zm-.08963.0896c-2.21235.15921-5.50164.41014-7.66011.48076l.52526-.52544c.17669,4.88875.22752,9.78074-.01833,14.66748l-.50693-.50708,7.70481.13111-.37594.376.33124-14.6228Z"/><rect class="cls-5" x="56.33366" y="70.30983" width="10.37546" height="13.08798"/><path class="cls-6" d="M66.75394,70.265l.294,13.13282.00746.33325-.34643.00561-10.37526.16822-.479.00781-.02815-.51489c-.21762-4.56487-.19742-9.1338-.0655-13.7002,3.65147.084,7.43052.30023,10.99281.56738Zm-.08963.0896c-2.99376.20055-7.40336.48128-10.33055.54883l.59341-.5935c.10348,4.36332.12616,8.72641-.08646,13.08789l-.507-.50708,10.37526.16821-.33877.33887.29406-13.04322Z"/><path class="cls-6" d="M73.53566,88.52766c-.1553-5.08369-.4265-15.307-.54106-20.38992l.60434.60452-1.15622.02783.63219-.63232c.05989,2.18139.00267,4.36279-.08011,6.54394-.09714,2.1814-.24169,4.36279-.4888,6.544h-.12677a102.58,102.58,0,0,1-.55117-13.73511c.38342-.00487,1.37551.04346,1.77089.04269l.619.01493-.01442.5896c-.11494,5.08058-.38564,15.311-.54111,20.38991l-.12674,0Z"/><path class="cls-6" d="M26.567,89.60774c-.14515-5.35248-.38522-16.11814-.477-21.47l-.01035-.52707.5508-.01319c.33347.01244,1.13072-.04189,1.455-.03486.01851.25693.35567,4.56015.38638,4.96876.25909,4.437.35858,8.882.17718,13.32709l-.12658.00708c-.4789-2.93155-.77716-5.87822-1.03911-8.83154-.26942-2.56061-.38446-6.257-.47942-8.8638l.56177.5303-.93525-.02246.54027-.54028-.21032,10.7351-.26667,10.73487Z"/><path class="cls-8" d="M49.81618,50.11791c4.68456,0,7.64946,1.65794,7.64946,4.31065h0a10.73024,10.73024,0,0,1-15.29892,0h0c0-2.65271,2.96491-4.31065,7.64946-4.31065"/><path d="M49.81618,50.05451c3.01447-.07958,7.70723.58314,7.95225,4.37134.01569-.03906-.13012.3667-.071.19776l-.00488.0061a9.73956,9.73956,0,0,1-3.00189,2.30884c-4.18045,2.077-9.79823,1.55327-13.00056-2.12179l-.14456-.16825A4.40469,4.40469,0,0,1,44.8894,50.504a11.75417,11.75417,0,0,1,4.92678-.44952v.12671c-2.67457.35791-6.87716.94177-7.035,4.24723l-.13775-.38785c3.6663,3.8136,10.50111,4.19564,14.378.40882.03471-.04078.173-.1663.207-.20961.06147-.18329-.086.27029-.06642.17482.04307-2.186-2.1628-3.36269-4.05338-3.81663a14.96244,14.96244,0,0,0-3.29245-.41678v-.12671Z"/><path class="cls-8" d="M42.53134,53.63162A4.00019,4.00019,0,0,0,43.893,50.6855V41.68989H56.0117V50.6855A4.90047,4.90047,0,0,0,57.101,53.63162"/><path d="M42.49191,53.5821c1.69418-1.46445,1.16789-3.74709,1.167-5.72243L43.51021,41.69l-.009-.37426.39191-.00855,12.1185-.2688.63929-.01416c.0346,1.234.00572,2.48217-.00606,3.7146l-.1159,3.04883c-.01935,1.98822-.60105,4.01326.6198,5.80223l-.09535.08351a4.68183,4.68183,0,0,1-1.37629-2.82422c-.1454-1.78613-.236-4.3037-.29849-6.11036-.00523-1.01635-.03714-2.03246-.01839-3.04882l.65139.65137-12.1185-.2688.38269-.38257-.14873,6.16968c-.09072,2.00285.25558,4.44975-1.55638,5.8215l-.07877-.09909Z"/><path class="cls-9" d="M43.331,54.42121a3.85272,3.85272,0,0,0,1.0733-2.65942l-.17924-3.063a14.28535,14.28535,0,0,1,.4437-6.16968h.1267a14.28532,14.28532,0,0,1,.44357,6.16968c-.1443,1.99941.07953,4.5736-1.82928,5.82149l-.07875-.09908Z"/><path class="cls-8" d="M38.61619,20.82771c0,13.458,1.05159,25.1116,11.49851,25.1116s11.38013-11.65358,11.38013-25.1116l-8.78636-4.90039Z"/><path d="M38.66785,20.86433c.11108,5.07324.19143,10.33618,1.38778,15.31518a14.82455,14.82455,0,0,0,3.2937,6.74756c3.357,3.57685,10.10611,3.552,13.39395-.06921a14.50108,14.50108,0,0,0,3.08311-6.73523c1.0476-4.97583,1.0021-10.15845,1.01-15.29492l.33765.575c-2.92407-1.6416-5.85025-3.27979-8.74707-4.97046l.47133.04126c-4.71744,1.55379-9.39854,2.96858-14.23042,4.39087Zm-.10331-.07324c4.632-1.88522,9.42787-3.75789,14.18662-5.49584,3.0417,1.61578,6.05211,3.28849,9.06432,4.95726l.34191.18946-.0041.38574c-.055,5.1643-.1364,10.39624-1.32074,15.52734a15.48658,15.48658,0,0,1-3.432,7.117,10.40348,10.40348,0,0,1-14.519-.10628c-4.87912-5.88573-4.20865-15.31354-4.317-22.57463Z"/><path class="cls-9" d="M39.51869,19.9886c.4914,7.54549.06079,20.167,7.79726,24.03914a14.56683,14.56683,0,0,0,3.63786,1.00893v.127a8.661,8.661,0,0,1-8.11276-3.20217,15.23025,15.23025,0,0,1-2.66087-6.44432c-1.0649-5.16089-.92427-10.37134-.78824-15.52856Z"/><path class="cls-9" d="M60.78952,28.78767c-4.97259.74706-8.946-7.72367-8.88164-11.86438l.12691-.00012c.53357,3.79887,3.013,7.10675,5.71006,9.67749a7.87566,7.87566,0,0,0,3.04467,2.0603v.12671Z"/><path class="cls-2" d="M52.70847,15.92732c0,8.47108-8.00328,11.33894-15.3164,11.33894L39.085,14.76188h23.6416l0,12.96649C57.573,27.72837,52.70847,19.89709,52.70847,15.92732Z"/><path class="cls-3" d="M61.52658,27.79182c-3.94272-.392-6.63979-4.67491-8.23-7.94367a11.13062,11.13062,0,0,1-1.04585-3.92083h.91542c.32893,8.01466-7.3445,12.283-14.57426,11.40219l.00015-.12656a25.16542,25.16542,0,0,0,4.89964-1.05029A12.83821,12.83821,0,0,0,51.064,20.56407a10.25746,10.25746,0,0,0,1.18671-4.63675h.91545c.23656,3.73661,2.39257,7.39414,5.01309,10.024a5.723,5.723,0,0,0,3.34729,1.7138v.12671Z"/><path class="cls-4" d="M37.55008,26.34553C43.56738,24.75205,51.99387,21.2,52.32985,14.03979l.81386.23494a25.5199,25.5199,0,0,1-5.27508,5.51466,19.14642,19.14642,0,0,1-6.73891,3.41428l-.03475-.12206c4.73392-1.56561,8.59744-5.17953,11.30265-9.27706l.77981-1.23148a11.1486,11.1486,0,0,1-5.363,10.71286,19.4954,19.4954,0,0,1-10.25079,3.18564l-.01355-.126Z"/><path class="cls-5" d="M36.05838,7.92759A19.6162,19.6162,0,0,1,50.76057,1.76692,19.61616,19.61616,0,0,1,65.46275,7.92759c0,2.57992-2.72238,4.55809-2.72238,6.06221A16.8805,16.8805,0,0,1,61.432,18.51742a14.23827,14.23827,0,0,0-10.67147-4.47167A14.23827,14.23827,0,0,0,40.0891,18.51742c0-.96-1.30833-4.6734-1.30833-5.51145S36.05838,11.57893,36.05838,7.92759Z"/><path class="cls-6" d="M35.95886,7.89216C42.48017.435,54.58222-.7135,62.7256,4.72761A16.73419,16.73419,0,0,1,66.008,7.48347a.6198.6198,0,0,1,.15791.44434c.07923,2.36523-1.88289,4.02128-2.60467,5.936a15.76336,15.76336,0,0,1-1.30451,5.01031.89.89,0,0,1-1.52161.21041c-5.17349-5.28631-14.79637-5.21457-20.03809-.07225a.78421.78421,0,0,1-1.16546.08179c-.36667-.36508-.18284-1.15112-.40357-1.82882-.23383-1.22026-.67256-2.75979-.822-3.991-.01471-.35742.05083-.2715-.31449-.64918a5.382,5.382,0,0,1-2.03264-4.73291Zm.199.0708A5.11353,5.11353,0,0,0,38.55952,11.978a1.974,1.974,0,0,1,.63.6966,1.12781,1.12781,0,0,1,.07748.34522c-.00012.07643.08707.36069.10071.44116A44.19011,44.19011,0,0,1,40.873,18.51714l-1.39176-.49461c5.58-6.74,16.98217-6.67917,22.64754-.07242l-1.52136.21036a13.98141,13.98141,0,0,0,1.37289-4.61865c.62037-2.1057,2.72063-3.45437,2.77919-5.61429l.15784.44388a15.62423,15.62423,0,0,0-2.9128-2.58228C54.35566.35774,42.71285,1.12967,36.15791,7.963Z"/><rect class="cls-10" x="46.94266" y="6.22207" width="7.63582" height="2.91934" rx="0.04163"/><rect class="cls-10" x="46.94266" y="6.22207" width="7.63582" height="2.91934" rx="0.04163" transform="translate(58.44231 -43.07883) rotate(90)"/><path class="cls-5" d="M41.2289,54.84794a12.04579,12.04579,0,0,0,17.17457,0c0-1.50689-1.5901-2.6623-1.5901-3.54083a9.85952,9.85952,0,0,0-.76417-2.6445,8.74334,8.74334,0,0,1-12.466,0c0,.5607-.76417,2.72965-.76417,3.21914S41.2289,52.71526,41.2289,54.84794Z"/><path class="cls-6" d="M41.32843,54.81257c4.32144,4.39951,12.47958,4.2382,16.52968-.40849l-.15781.44389c-.08-1.19892-1.31985-1.95237-1.65964-3.21239a7.88659,7.88659,0,0,0-.81174-2.61793l1.51337.20923c-3.43122,4.136-10.413,4.20785-13.76863-.068l1.39551-.49625a21.59264,21.59264,0,0,1-1.04808,3.16675c-.04113.54881-.52045.7834-.85529,1.02953a2.82243,2.82243,0,0,0-1.13737,1.95362Zm-.199.0708a3.21732,3.21732,0,0,1,1.11056-2.91379c.08622-.08523.16872-.21707.12-.1697-.01249.0039-.02484.08667-.02459.063a3.04556,3.04556,0,0,1,.025-.41528c.07985-.61794.25387-1.51526.36773-2.12964a3.06093,3.06093,0,0,0,.06907-.65527.7048.7048,0,0,1,.46884-.8794c.37941-.13069.68748.1344.92679.38309C47.1539,50.83511,52.469,50.90009,55.356,48.0985a.88331.88331,0,0,1,1.30961-.09964,7.64972,7.64972,0,0,1,.95623,3.31489,10.794,10.794,0,0,0,.90714,1.57573,3.85554,3.85554,0,0,1,.577,2.01367.57857.57857,0,0,1-.15722.38891,11.384,11.384,0,0,1-4.23995,2.7815,12.35227,12.35227,0,0,1-13.57939-3.19019Z"/></g><g id="paleta"><rect class="cls-11" x="6.4262" y="79.52632" width="86.9814" height="28.15918" rx="4.56377"/><path class="cls-12" d="M32.31709,99.7482a.33861.33861,0,0,1-.28759-.125.37252.37252,0,0,1-.05762-.31641l.13428-.61475a1.22612,1.22612,0,0,1,.17285-.38379,1.848,1.848,0,0,1,.48-.46093L37.7126,93.777q1.13232-.82544,1.8335-1.41113a5.4201,5.4201,0,0,0,1.05615-1.123,3.13142,3.13142,0,0,0,.47021-1.11377,2.08687,2.08687,0,0,0-.24951-1.7378,1.98035,1.98035,0,0,0-1.68945-.64306,2.97032,2.97032,0,0,0-1.38281.31689,3.26072,3.26072,0,0,0-1.05567.86377,4.24812,4.24812,0,0,0-.6914,1.23877.54721.54721,0,0,1-.25928.34521.724.724,0,0,1-.33594.0962h-.979a.31112.31112,0,0,1-.269-.10547.351.351,0,0,1-.05761-.25928,5.19883,5.19883,0,0,1,.61474-1.46875,5.43131,5.43131,0,0,1,1.13282-1.33447,5.82533,5.82533,0,0,1,1.603-.96973,5.28764,5.28764,0,0,1,2.02539-.37451,4.38041,4.38041,0,0,1,2.37159.54736,2.55813,2.55813,0,0,1,1.123,1.44971,3.95247,3.95247,0,0,1,.03858,1.97754,4.71582,4.71582,0,0,1-.605,1.54541,6.96058,6.96058,0,0,1-1.123,1.36328,15.33691,15.33691,0,0,1-1.65137,1.35352l-4.47363,3.74414h5.99023a.35009.35009,0,0,1,.29786.11523.40853.40853,0,0,1,.04785.32617l-.15332.7876a.53117.53117,0,0,1-.19239.31641.55955.55955,0,0,1-.36474.125Z"/><path class="cls-12" d="M43.79854,98.03921a1.41706,1.41706,0,0,1,.23974-.39355.52284.52284,0,0,1,.41309-.16309H45.757a.253.253,0,0,1,.23047.125.24959.24959,0,0,1-.01953.27832l-1.67041,2.86084a1.46269,1.46269,0,0,1-.24951.3169.54512.54512,0,0,1-.38379.12451H42.9919a.232.232,0,0,1-.22071-.12451.32852.32852,0,0,1,.00977-.29786Z"/><path class="cls-12" d="M49.904,99.7482a.26955.26955,0,0,1-.24951-.125.38569.38569,0,0,1-.03858-.29737.29129.29129,0,0,1,.07715-.17285l7.16162-11.17432H50.5378a.33957.33957,0,0,1-.28809-.125.37327.37327,0,0,1-.05762-.31689l.17285-.76758a.54093.54093,0,0,1,.1919-.33642.53529.53529,0,0,1,.3457-.12452h7.87207a.36419.36419,0,0,1,.30713.12452.41235.41235,0,0,1,.05762.33642l-.15381.71a1.387,1.387,0,0,1-.11523.40332,2.82221,2.82221,0,0,1-.21094.34571l-7.06592,11.04a1.83459,1.83459,0,0,1-.25879.31689.53643.53643,0,0,1-.39355.16309Z"/><path class="cls-12" d="M62.57588,99.94009a6.22311,6.22311,0,0,1-2.0542-.29736,3.60461,3.60461,0,0,1-1.35351-.79688,2.67952,2.67952,0,0,1-.70069-1.09424,2.48918,2.48918,0,0,1-.07714-1.229.43654.43654,0,0,1,.17285-.269.51773.51773,0,0,1,.30713-.09571h.94091a.60078.60078,0,0,1,.3169.07666.44231.44231,0,0,1,.16308.32666,1.49343,1.49343,0,0,0,.41309,1.0752,2.09038,2.09038,0,0,0,.998.52783,5.237,5.237,0,0,0,1.21924.144,4.05284,4.05284,0,0,0,2.28466-.63378,2.86189,2.86189,0,0,0,1.229-1.86231,1.70645,1.70645,0,0,0-.37451-1.78564,2.99,2.99,0,0,0-1.94874-.5376H62.28828a.352.352,0,0,1-.28808-.11524.42735.42735,0,0,1-.07666-.32617l.11474-.51855a.742.742,0,0,1,.13477-.29737,2.22546,2.22546,0,0,1,.19189-.22119l4.56934-4.07031H61.28975a.34812.34812,0,0,1-.29785-.11523.40617.40617,0,0,1-.04785-.32618l.1538-.72949a.54093.54093,0,0,1,.1919-.33642.53339.53339,0,0,1,.3457-.12452H69.2961a.33571.33571,0,0,1,.29736.12452.43915.43915,0,0,1,.04834.33642l-.13428.69092a.48256.48256,0,0,1-.10595.24023q-.08643.10548-.18213.20166l-4.60791,4.12793.32617.01905a5.10412,5.10412,0,0,1,2.09277.46093,2.47682,2.47682,0,0,1,1.229,1.25733,3.37146,3.37146,0,0,1,.07666,2.10254,4.56829,4.56829,0,0,1-1.104,2.19824,5.44907,5.44907,0,0,1-2.04492,1.39209A7.01768,7.01768,0,0,1,62.57588,99.94009Z"/><path class="cls-12" d="M70.40938,99.7482c-.1919,0-.3042-.07032-.33594-.21143a.394.394,0,0,1,.125-.38379l12.11524-12.48a2.17194,2.17194,0,0,1,.31689-.269.74608.74608,0,0,1,.4126-.09571h.76806a.29354.29354,0,0,1,.32618.21094.37529.37529,0,0,1-.11524.38428l-12.11523,12.48a2.105,2.105,0,0,1-.31641.26855.74045.74045,0,0,1-.41309.0962Zm2.97607-6.624a2.6637,2.6637,0,0,1-1.35351-.32617,1.93509,1.93509,0,0,1-.82569-.91211,2.518,2.518,0,0,1-.16308-1.35351q.07617-.49952.16308-.84522.08643-.345.22071-.88281a3.73946,3.73946,0,0,1,1.09472-1.88184,3.00623,3.00623,0,0,1,2.09278-.71045,2.67674,2.67674,0,0,1,1.40136.33594,1.94894,1.94894,0,0,1,.80664.92188,2.474,2.474,0,0,1,.13428,1.35351q-.07691.5376-.16308.8833-.08643.34571-.22071.84473a3.7062,3.7062,0,0,1-1.104,1.8623A3.014,3.014,0,0,1,73.38545,93.12417Zm.03858-1.26709a1.59069,1.59069,0,0,0,1.19043-.45117,2.39193,2.39193,0,0,0,.59521-.93115q.134-.51855.1919-.81641.05785-.29736.13427-.77734a2.32159,2.32159,0,0,0,.01953-.6626.8303.8303,0,0,0-.269-.52783,1.05841,1.05841,0,0,0-.72949-.21143,1.59428,1.59428,0,0,0-1.20947.4419,2.17073,2.17073,0,0,0-.55713.96q-.134.48046-.1919.77734-.05785.2981-.13427.81641a2.4,2.4,0,0,0,.00927.64307.87266.87266,0,0,0,.27881.52783A.9593.9593,0,0,0,73.424,91.85708Zm6.18213,8.00635a2.716,2.716,0,0,1-1.3628-.32666,1.91811,1.91811,0,0,1-.83545-.91162,2.40977,2.40977,0,0,1-.144-1.35352q.07691-.4995.15381-.85449.07617-.35522.21094-.89306a3.897,3.897,0,0,1,1.104-1.86231,2.9721,2.9721,0,0,1,2.0835-.71045,2.73082,2.73082,0,0,1,1.41113.33594,1.93308,1.93308,0,0,1,.81592.92187,2.36655,2.36655,0,0,1,.11523,1.35352q-.07691.5376-.15381.8833t-.21093.84473a3.70626,3.70626,0,0,1-1.104,1.8623A3.014,3.014,0,0,1,79.60616,99.86343Zm.03857-1.26709a1.58992,1.58992,0,0,0,1.19043-.45117,2.19842,2.19842,0,0,0,.57617-.93115q.15307-.51857.21094-.81641.05785-.29736.11523-.77734a1.65676,1.65676,0,0,0,.01905-.6626.97276.97276,0,0,0-.26856-.52783.9837.9837,0,0,0-.71045-.21143,1.58967,1.58967,0,0,0-1.21924.4419,2.21429,2.21429,0,0,0-.54736.96q-.134.47973-.19189.77734c-.03809.19873-.0835.4707-.13428.81641a2.3802,2.3802,0,0,0,.00976.64306.86951.86951,0,0,0,.27832.52783A.95929.95929,0,0,0,79.64473,98.59634Z"/><polygon class="cls-12" points="11.944 97.324 19.38 89.888 26.816 97.324 11.944 97.324"/></g></svg>