<svg id="Layer_1" data-name="Layer 1" xmlns="http://www.w3.org/2000/svg" width="270" height="270" viewBox="0 0 270 270"><defs><style>.cls-1{fill:#fc0;}</style></defs><polygon class="cls-1" points="135 116.343 146.11 124.415 141.866 111.355 152.976 103.283 139.243 103.283 135 90.223 130.757 103.283 117.024 103.283 128.134 111.355 123.89 124.415 135 116.343"/><polygon class="cls-1" points="135 170.205 146.11 178.277 141.866 165.217 152.976 157.145 139.243 157.145 135 144.085 130.757 157.145 117.024 157.145 128.134 165.217 123.89 178.277 135 170.205"/><polygon class="cls-1" points="135 4.5 130.757 17.56 117.024 17.56 128.134 25.632 123.89 38.692 135 30.62 146.11 38.692 141.866 25.632 152.976 17.56 139.243 17.56 135 4.5"/><polygon class="cls-1" points="139.243 244.368 135 231.308 130.757 244.368 117.024 244.368 128.134 252.44 123.89 265.5 135 257.428 146.11 265.5 141.866 252.44 152.976 244.368 139.243 244.368"/><polygon class="cls-1" points="21.596 144.024 32.705 152.096 28.462 139.036 39.571 130.964 25.839 130.964 21.596 117.904 17.352 130.964 3.62 130.964 14.73 139.036 10.486 152.096 21.596 144.024"/><polygon class="cls-1" points="168.404 140.024 179.514 148.096 175.27 135.036 186.38 126.964 172.648 126.964 168.404 113.904 164.161 126.964 150.429 126.964 161.538 135.036 157.295 148.096 168.404 140.024"/><polygon class="cls-1" points="205 159.705 216.11 167.777 211.866 154.717 222.976 146.645 209.243 146.645 205 133.585 200.757 146.645 187.024 146.645 198.134 154.717 193.89 167.777 205 159.705"/><polygon class="cls-1" points="101.596 140.024 112.705 148.096 108.462 135.036 119.571 126.964 105.839 126.964 101.596 113.904 97.352 126.964 83.62 126.964 94.73 135.036 90.486 148.096 101.596 140.024"/><polygon class="cls-1" points="115 215.067 126.11 223.138 121.866 210.078 132.976 202.007 119.243 202.007 115 188.947 110.757 202.007 97.024 202.007 108.134 210.078 103.89 223.138 115 215.067"/><polygon class="cls-1" points="65 159.705 76.11 167.777 71.866 154.717 82.976 146.645 69.243 146.645 65 133.585 60.757 146.645 47.024 146.645 58.134 154.717 53.89 167.777 65 159.705"/><polygon class="cls-1" points="169.596 87.177 180.705 95.249 176.462 82.189 187.571 74.117 173.839 74.117 169.596 61.057 165.352 74.117 151.62 74.117 162.73 82.189 158.486 95.249 169.596 87.177"/><polygon class="cls-1" points="188.404 191.726 199.514 199.798 195.27 186.738 206.38 178.666 192.648 178.666 188.404 165.606 184.161 178.666 170.429 178.666 181.538 186.738 177.295 199.798 188.404 191.726"/><polygon class="cls-1" points="155 215.067 166.11 223.138 161.866 210.078 172.976 202.007 159.243 202.007 155 188.947 150.757 202.007 137.024 202.007 148.134 210.078 143.89 223.138 155 215.067"/><polygon class="cls-1" points="81.596 191.726 92.705 199.798 88.462 186.738 99.571 178.666 85.839 178.666 81.596 165.606 77.352 178.666 63.62 178.666 74.73 186.738 70.486 199.798 81.596 191.726"/><polygon class="cls-1" points="65 114.343 76.11 122.415 71.866 109.355 82.976 101.283 69.243 101.283 65 88.223 60.757 101.283 47.024 101.283 58.134 109.355 53.89 122.415 65 114.343"/><polygon class="cls-1" points="78.298 19.693 74.054 32.753 60.322 32.753 71.432 40.825 67.188 53.885 78.298 45.813 89.407 53.885 85.164 40.825 96.274 32.753 82.541 32.753 78.298 19.693"/><polygon class="cls-1" points="36.789 61.057 32.546 74.117 18.813 74.117 29.923 82.189 25.68 95.249 36.789 87.177 47.899 95.249 43.655 82.189 54.765 74.117 41.033 74.117 36.789 61.057"/><polygon class="cls-1" points="41.033 187.666 36.789 174.606 32.546 187.666 18.813 187.666 29.923 195.738 25.68 208.798 36.789 200.726 47.899 208.798 43.655 195.738 54.765 187.666 41.033 187.666"/><polygon class="cls-1" points="82.541 229.175 78.298 216.115 74.054 229.175 60.322 229.175 71.432 237.247 67.188 250.307 78.298 242.235 89.407 250.307 85.164 237.247 96.274 229.175 82.541 229.175"/><polygon class="cls-1" points="266.38 130.964 252.648 130.964 248.404 117.904 244.161 130.964 230.429 130.964 241.538 139.036 237.295 152.096 248.404 144.024 259.514 152.096 255.27 139.036 266.38 130.964"/><polygon class="cls-1" points="191.702 19.693 187.459 32.753 173.726 32.753 184.836 40.825 180.593 53.885 191.702 45.813 202.812 53.885 198.568 40.825 209.678 32.753 195.946 32.753 191.702 19.693"/><polygon class="cls-1" points="135 42.362 130.757 55.422 117.024 55.422 128.134 63.493 123.89 76.553 135 68.482 146.11 76.553 141.866 63.493 152.976 55.422 139.243 55.422 135 42.362"/><polygon class="cls-1" points="101.298 61.057 97.054 74.117 83.322 74.117 94.432 82.189 90.188 95.249 101.298 87.177 112.407 95.249 108.164 82.189 119.274 74.117 105.541 74.117 101.298 61.057"/><polygon class="cls-1" points="205 88.223 200.757 101.283 187.024 101.283 198.134 109.355 193.89 122.415 205 114.343 216.11 122.415 211.866 109.355 222.976 101.283 209.243 101.283 205 88.223"/><polygon class="cls-1" points="226.345 82.189 222.101 95.249 233.211 87.177 244.32 95.249 240.077 82.189 251.187 74.117 237.454 74.117 233.211 61.057 228.967 74.117 215.235 74.117 226.345 82.189"/><polygon class="cls-1" points="237.454 187.666 233.211 174.606 228.967 187.666 215.235 187.666 226.345 195.738 222.101 208.798 233.211 200.726 244.32 208.798 240.077 195.738 251.187 187.666 237.454 187.666"/><polygon class="cls-1" points="195.946 229.175 191.702 216.115 187.459 229.175 173.726 229.175 184.836 237.247 180.593 250.307 191.702 242.235 202.812 250.307 198.568 237.247 209.678 229.175 195.946 229.175"/></svg>