<?xml version="1.0" encoding="UTF-8"?>
<svg id="farmaceuticos" xmlns="http://www.w3.org/2000/svg" width="100" height="100" viewBox="0 0 100 100">
  <defs>
    <style>
      .cls-1 {
        fill: #bec5d7;
      }

      .cls-2 {
        fill: #68768c;
      }

      .cls-3 {
        fill: #a1b6e6;
      }

      .cls-4 {
        fill: #a6a6a6;
      }

      .cls-5 {
        fill: #47576d;
      }

      .cls-6 {
        fill: #9fbae1;
      }

      .cls-7 {
        fill: #fff;
      }

      .cls-8 {
        fill: none;
        stroke: #bec5d7;
        stroke-miterlimit: 10;
        stroke-width: 2.94px;
      }

      .cls-9 {
        fill: #0d1729;
      }

      .cls-10 {
        fill: #e4eaf8;
      }

      .cls-11 {
        fill: #707487;
      }
    </style>
  </defs>
  <g>
    <circle class="cls-8" cx="49.85" cy="50.36" r="47.1"/>
    <g>
      <g>
        <g>
          <g>
            <path class="cls-11" d="M49.79,49.86c9.24,0,16.46-2.09,16.46-11.24,0-9.15,3.48-28.42-13.22-28.42,0,0,0-2.89-4.6-2.89-7.22,0-14.15,6.27-14.15,12.45,0,24.16-5.6,30.1,15.51,30.1Z"/>
            <path class="cls-9" d="M49.79,49.74c7.17.18,16.16-1.55,16.01-10.46-.16-7.16,1.07-14.82-1.68-21.6-1.97-4.97-6.84-6.87-11.91-6.54,0,0-.09-.93-.09-.93-.17-1-1.17-1.6-2.2-1.75-3.88-.55-8.01,1.24-10.79,3.95-1.88,1.84-3.3,4.24-3.5,6.68-.06,1.26,0,2.88-.06,4.21-.1,4.31-.42,8.66-.77,12.93-.16,2.81-.47,5.7.3,8.21,1.93,5.42,9.91,5.01,14.7,5.29h0ZM49.79,49.99c-5.34-.19-13.41.87-16.09-5-1.17-2.84-1.15-5.87-1.17-8.84.03-4.34.32-8.58.38-12.9.07-1.38-.03-2.96.1-4.4.84-6.48,6.55-11.06,12.6-12.32,2.99-.62,8.01-.34,8.33,3.67,0,0-.92-.92-.92-.92,2.55.03,5.21.48,7.52,1.84,9.12,5.89,6.23,19,6.11,28.18-.37,9.23-9.38,10.72-16.87,10.68h0Z"/>
          </g>
          <path class="cls-5" d="M47.11,48.34c-5.82,1.44-13.62-.88-12.85-8.17,0,0,.06-1.53.06-1.53.15-3.88.76-14.3,1-18.31.09-4.38,3.25-8.03,6.86-10.11-2.88,2.7-5.41,6.08-5.2,10.16.15,6.64-.24,13.3-.79,19.92-1.05,6.18,5.94,8.13,10.93,8.04h0Z"/>
          <path class="cls-5" d="M51,47.96c-9.48,1.38-13.41-9.92-12.53-17.61,0,0,.13,0,.13,0,.13,8.76,3.56,15.57,12.4,17.61h0Z"/>
          <path class="cls-5" d="M49.61,48.92c-9.48,1.38-13.41-9.92-12.53-17.61,0,0,.13,0,.13,0,.13,8.76,3.56,15.57,12.4,17.61h0Z"/>
        </g>
        <g>
          <path class="cls-10" d="M82.4,83.05c0-21.58,0-16.02,0-20.34s-14.5-13.99-32.04-13.99c-17.54,0-32.04,9.67-32.04,13.99s0-1.24,0,20.34c0,0,15.68,12.53,31.84,12.53s32.24-12.53,32.24-12.53Z"/>
          <g>
            <path class="cls-6" d="M39.27,83.05c-3.26-1.44-11.49-6.43-9.17-10.85.56-.87,1.3-1.68,1.99-2.39.74-.79,2-1.71,2.1-2.69.02-.68-.88-1.57-1.51-2.08-3.19-2.71-2.72-5.83-.04-8.66-5.4,8.23,4.62,7.08,2.96,12.03-.83,1.88-2.53,3.06-3.58,4.73-1.56,2.13,5.68,8.11,7.25,9.93h0Z"/>
            <g>
              <path class="cls-10" d="M50.36,48.72c-7.77,0-14.74,4.75-16.76,6.3-2.09,1.61-3.21,4.01-2.73,5.78s4.17,3.69,4.17,5.78-4.25,4.01-4.25,5.62,7.63,9.15,7.63,9.15v-25.53s2.87-5.21,11.93-5.21"/>
              <path class="cls-2" d="M50.36,48.78c-4.28.08-8.44,1.51-12.16,3.56-2.61,1.57-5.77,3.14-6.85,6.17-1.23,2.93,2,4.27,3.43,6.31,2.47,3.28-2.59,4.93-3.52,7.35.15.66.65,1.2,1.05,1.78,1.98,2.49,4.25,4.76,6.52,7,0,0-.98.41-.98.41-.04-4.25-.1-8.51-.08-12.76.05-4.32,0-8.71.22-13,2.74-3.95,7.81-5.23,12.37-5.04,0,0,0,.13,0,.13-3.29.18-6.72.98-9.35,3.05-.85.66-1.63,1.49-2.15,2.34l.06-.24c.19,8.97.2,17.95.07,26.92-2.92-3.08-6.09-6.01-8.36-9.63-1.08-1.86,1.45-3.22,2.46-4.27,2.1-1.79,1.94-2.89.06-4.75-.73-.76-1.56-1.45-2.22-2.41-1.76-3.35,1.65-6.54,4.28-8.1,4.33-2.7,10.18-5.28,15.15-4.81h0Z"/>
            </g>
            <g>
              <path class="cls-10" d="M49.76,48.72c7.77,0,14.74,4.75,16.76,6.3,2.09,1.61,3.21,4.01,2.73,5.78-.48,1.77-4.17,3.69-4.17,5.78,0,2.09,4.25,4.01,4.25,5.62s-7.63,9.15-7.63,9.15v-26.79s-2.87-5.21-11.93-5.21"/>
              <path class="cls-2" d="M49.76,48.66c5.41,0,10.63,2.07,15.15,4.94,2.64,1.55,6.05,4.75,4.28,8.1-.66.96-1.49,1.64-2.22,2.41-1.89,1.85-2.04,2.97.06,4.75,1.01,1.03,3.56,2.46,2.46,4.27-2.28,3.62-5.44,6.55-8.36,9.63-.14-9.4-.11-18.79.07-28.19,0,0,.06.24.06.24-.5-.85-1.3-1.68-2.15-2.34-2.63-2.07-6.06-2.87-9.36-3.04,0,0,0-.13,0-.13,4.56-.19,9.62,1.09,12.36,5.04.22,4.5.17,9.1.22,13.63.03,4.47-.04,8.93-.08,13.4l-.98-.41c2.26-2.23,4.54-4.51,6.52-7,.38-.52.95-1.2,1.06-1.77-.92-2.42-6-4.04-3.52-7.34.94-1.3,2.39-2.27,3.28-3.52,1.08-1.71-.2-4.05-1.49-5.37-4.79-4.09-11-6.95-17.37-7.16,0,0,0-.13,0-.13h0Z"/>
            </g>
          </g>
          <path class="cls-3" d="M38.42,93.45v-33.33s3.97,4.87,11.63,4.87c7.66,0,11.63-4.87,11.63-4.87v33.33c-4.5,1.44-19.5,1.24-23.26,0Z"/>
          <path class="cls-2" d="M82.27,83.05c-.74-6.71-1.23-13.56-1.55-20.3-.69-1.98-3.05-3.48-4.85-4.69-3.82-2.44-8.19-4.16-12.63-5.34-8.91-2.42-18.4-2.26-27.23.41-4.41,1.28-8.73,3.17-12.4,5.75-1.42,1.07-2.99,2.18-3.61,3.81-.26,6.07-.71,12.27-1.19,18.35,0,0-.36,3.61-.36,3.61h-.25l-.04-14.44-.02-7.22c-.05-.62.16-1.28.45-1.81,5.74-8.34,21.23-12.58,30.97-12.69,9.65-.09,19.42,2.49,27.51,7.8,2.16,1.58,4.68,3.29,5.46,5.99.11,1.66,0,4.66.03,6.35,0,0-.04,14.44-.04,14.44h-.25Z"/>
          <path class="cls-6" d="M26.02,69.61c1.5,6.46,1.55,13.22.13,19.69-1.51-6.45-1.54-13.22-.13-19.69h0Z"/>
          <path class="cls-6" d="M72.3,69.73c1.5,6.46,1.55,13.22.13,19.69-1.51-6.45-1.54-13.22-.13-19.69h0Z"/>
          <path class="cls-6" d="M40.56,50.96c-5.51,2.93-16.84,7.45-18.76,13.59-.36,1.68-.6,6.2-.78,7.98-.31,3.62-.6,7.26-1.15,10.89-.47-3.65-.62-7.3-.65-10.97.22-3.68-.46-8.03,1.84-11.19,4.76-5.86,12.5-8.35,19.49-10.31h0Z"/>
          <path class="cls-2" d="M73.9,89.42c-.16-5.11-.43-15.39-.54-20.5,0,0,.61.61.61.61l-1.16.03.64-.64c.06,2.19,0,4.39-.08,6.58-.1,2.19-.24,4.39-.49,6.58h-.13c-.49-4.59-.68-9.2-.55-13.81,0,0,.62.01.62.01.4.03,1.39.02,1.78.04,0,0-.01.59-.01.59-.12,5.11-.39,15.39-.54,20.5,0,0-.13,0-.13,0h0Z"/>
          <path class="cls-2" d="M26.68,90.51c-.15-5.38-.39-16.2-.48-21.58,0,0-.01-.53-.01-.53h.55c.33,0,1.13-.06,1.46-.05.56,6.11.82,12.25.57,18.39,0,0-.13,0-.13,0-.47-2.95-.8-5.91-1.05-8.88-.27-2.96-.39-5.94-.47-8.91l.56.53-.94-.02.54-.54-.21,10.79-.27,10.79h-.13Z"/>
          <g>
            <path class="cls-3" d="M61.69,93.45v-39.56s-3.97-5.2-11.63-5.2c-7.66,0-11.63,5.2-11.63,5.2v40.51"/>
            <path d="M61.62,93.45c-.01.08-.42-40.43-.25-39.32-4.18-4.85-11.7-6.26-17.46-3.57-1.9.86-3.68,2.18-4.97,3.72l.13-.39c-.08,13.38.11,27.38-.71,40.51-.46-13.5-.63-27-.58-40.51,0,0,0-.23,0-.23l.13-.16c6.01-7.11,18.18-7.04,24.09.15,0,0,.08.1.08.1v.14c-.14.01-.09,39.8-.46,39.56h0Z"/>
          </g>
          <g>
            <path class="cls-7" d="M50.06,50.03c7.12,0,7.98,2.52,7.98,6.55,0,0-.31-.51-7.98-.51-7.66,0-7.98.51-7.98.51,0-4.03.85-6.55,7.98-6.55"/>
            <path d="M50.06,49.97c4.93-.15,8.52.94,8.33,6.62,0,0-.66.19-.66.19.13.16.08.08.09.1-4.52-.63-9.18-.25-13.72.02-.54.05-1.18.13-1.66.25.08-.05.16-.12.21-.21l-1.22-.35c-.04-2.07.4-4.74,2.48-5.82,1.93-1.03,4.08-.97,6.16-.8,0,0,0,.13,0,.13-1.01.13-2.01.23-2.98.46-3.45.63-4.51,2.69-4.34,6.03,0,0-1.22-.35-1.22-.35.19-.3.59-.39.9-.46,2.53-.38,5.1-.24,7.64-.22,2.69.14,5.47-.04,8.09.67.05.04.04-.02.19.17l-.66.19c.42-5.38-3-6.38-7.62-6.49,0,0,0-.13,0-.13h0Z"/>
          </g>
          <g>
            <path class="cls-7" d="M42.73,54.34s1.37-1.09,1.37-2.96v-9.04h12.18v9.04c0,1.71,1.1,2.96,1.1,2.96"/>
            <path d="M42.69,54.29c1.7-1.47,1.17-3.77,1.17-5.75,0,0-.15-6.2-.15-6.2v-.38s.38,0,.38,0l12.18-.27h.65s0,.66,0,.66c.02,2.04-.03,4.09-.13,6.13-.03,2-.61,4.03.62,5.83,0,0-.1.08-.1.08-.73-.74-1.28-1.73-1.38-2.84-.23-3.08-.34-6.13-.32-9.21l.65.65-12.18-.27.38-.38-.15,6.2c-.09,2.01.26,4.47-1.56,5.85,0,0-.08-.1-.08-.1h0Z"/>
          </g>
          <path class="cls-4" d="M43.54,55.14c.69-.74,1.11-1.72,1.08-2.67-.1-3.03-.77-6.34.27-9.28,0,0,.13,0,.13,0,.69,2.05.66,4.11.45,6.2-.15,2.01.08,4.6-1.84,5.85,0,0-.08-.1-.08-.1h0Z"/>
        </g>
        <g>
          <path class="cls-7" d="M38.8,21.37c0,13.53,1.06,25.24,11.56,25.24s11.44-11.71,11.44-25.24l-8.83-4.93-14.17,4.93Z"/>
          <path d="M38.85,21.41c.11,5.1.19,10.39,1.4,15.4.62,2.48,1.56,4.96,3.31,6.78,3.37,3.6,10.16,3.57,13.46-.07,1.68-1.83,2.55-4.3,3.1-6.77,1.05-5,1.01-10.21,1.02-15.37l.34.58c-2.94-1.65-5.88-3.3-8.79-5l.47.04c-4.74,1.56-9.45,2.98-14.3,4.41h0ZM38.74,21.33c4.66-1.89,9.48-3.78,14.26-5.52,3.06,1.62,6.08,3.31,9.11,4.98l.34.19v.39c-.06,5.19-.14,10.45-1.33,15.61-.86,3.78-2.86,8.02-6.83,9.39-3.76,1.29-8.45.73-11.21-2.34-4.9-5.92-4.23-15.39-4.34-22.69h0Z"/>
        </g>
        <path class="cls-4" d="M39.7,20.53c.49,7.58.06,20.27,7.84,24.16,1.14.56,2.4.76,3.66,1.01,0,0,0,.13,0,.13-2.9.47-6.3-.71-8.16-3.22-1.48-1.84-2.19-4.22-2.67-6.48-1.07-5.19-.93-10.43-.79-15.61h.13Z"/>
        <path class="cls-4" d="M61.09,29.37c-5,.75-8.99-7.76-8.93-11.93,0,0,.13,0,.13,0,.54,3.82,3.03,7.14,5.74,9.73.89.86,1.8,1.66,3.06,2.07v.13h0Z"/>
        <path class="cls-11" d="M52.96,16.44c0,8.52-8.05,11.4-15.4,11.4l1.7-12.57h23.77v13.03c-5.18,0-10.07-7.87-10.07-11.86Z"/>
        <path class="cls-9" d="M61.83,28.37c-3.96-.39-6.67-4.7-8.27-7.99-.53-1.23-.98-2.51-1.05-3.94h.92c.33,8.06-7.38,12.35-14.65,11.46,0,0,0-.13,0-.13,1.69-.21,3.35-.53,4.93-1.06,3.07-1,6.03-2.75,7.61-5.62.77-1.4,1.14-3.02,1.19-4.66h.92c.24,3.76,2.4,7.43,5.04,10.08.94.86,2.06,1.63,3.36,1.72v.13h0Z"/>
        <path class="cls-5" d="M37.73,26.92c6.05-1.61,14.52-5.17,14.86-12.37,0,0,.82.24.82.24-2.23,3.14-5.11,5.82-8.53,7.6-1.12.6-2.33,1.02-3.55,1.37l-.03-.12c5.24-1.73,9.36-5.92,12.15-10.56.49,4.47-1.69,8.36-5.39,10.77-3.05,2-6.67,3.15-10.3,3.2,0,0-.01-.13-.01-.13h0Z"/>
      </g>
      <g>
        <path class="cls-3" d="M50.08,56.08c0,1.01-7.34,3.62-7.34,3.62l-3.09-6.36c.97-1.13,2.49-2,4.46-2.57l5.98,5.31Z"/>
        <path class="cls-2" d="M50.14,56.05c-.05.45-.42.59-.71.83-2.14,1.36-4.51,2.3-6.86,3.24,0,0-.15-.28-.15-.28l-3.27-6.27-.16-.3c1.31-1.73,3.28-2.73,5.27-3.22,2.07,1.86,4.09,3.92,5.86,6h0ZM50.02,56.1c-2.26-1.55-4.33-3.09-6.35-4.85,0,0,.61.14.61.14-1.57.49-3.15,1.12-4.23,2.29l.08-.58,2.92,6.44-.42-.17c2.26-.78,4.6-1.5,6.7-2.66.27-.16.62-.4.7-.62h0Z"/>
      </g>
      <g>
        <path class="cls-3" d="M50.08,56.08c0,1.01,7.34,3.62,7.34,3.62l3.09-6.36c-.97-1.13-2.49-2-4.46-2.57l-5.98,5.31Z"/>
        <path class="cls-2" d="M50.14,56.1c.08.22.42.45.7.62,2.11,1.16,4.44,1.87,6.7,2.66,0,0-.42.17-.42.17l2.92-6.44.08.58c-1.09-1.17-2.66-1.8-4.23-2.29l.61-.14c-2.02,1.75-4.09,3.3-6.35,4.85h0ZM50.02,56.05c1.77-2.08,3.79-4.15,5.86-6,1.99.49,3.97,1.49,5.27,3.22,0,0-.16.3-.16.3l-3.27,6.27-.15.28-.28-.11c-2.39-1.01-4.91-1.89-7-3.46-.12-.14-.28-.23-.29-.51h0Z"/>
      </g>
      <path class="cls-2" d="M50.01,95.58c-.14-4.93-.37-14.83-.45-19.75-.22-6.59-.24-13.18.45-19.75,0,0,.13,0,.13,0,.69,6.58.67,13.16.45,19.75-.08,4.92-.3,14.84-.45,19.75,0,0-.13,0-.13,0h0Z"/>
    </g>
  </g>
  <g id="meds">
    <g>
      <path class="cls-1" d="M23.33,35.87v1.53c0,1.39,1.46,1.3,1.46,2.92s0,10.96,0,10.96c-.46,0-.66.41-.66.83h-5.26s-5.26,0-5.26,0c0-.41-.21-.83-.66-.83v-10.96c0-1.62,1.46-1.53,1.46-2.92v-1.53"/>
      <polygon class="cls-11" points="18.87 40.54 12.95 40.54 12.95 50.09 18.87 50.09 24.79 50.09 24.79 40.54 18.87 40.54"/>
      <rect class="cls-7" x="16.12" y="44.25" width="5.5" height="2.1" rx=".03" ry=".03"/>
      <rect class="cls-7" x="16.12" y="44.25" width="5.5" height="2.1" rx=".03" ry=".03" transform="translate(64.18 26.43) rotate(90)"/>
      <polygon class="cls-11" points="18.87 36.13 24.08 36.13 24.08 35.13 23.77 35.13 23.77 32.53 18.87 32.53 13.98 32.53 13.98 35.13 13.66 35.13 13.66 36.13 18.87 36.13"/>
    </g>
  </g>
</svg>