<svg xmlns="http://www.w3.org/2000/svg" width="100" height="108" viewBox="0 0 100 108"><defs><style>.cls-1{fill:none;stroke:#bec5d7;stroke-miterlimit:10;stroke-width:2.93546px;}.cls-2{fill:#707487;}.cls-3{fill:#0d1729;}.cls-4{fill:#47576d;}.cls-5{fill:#e4eaf8;}.cls-6{fill:#9fbae1;}.cls-7{fill:#68768c;}.cls-8{fill:#a1b6e6;}.cls-9{fill:#fff;}.cls-10{fill:#a6a6a6;}.cls-11{fill:#bec5d7;}.cls-12{fill:#1d1d1b;}</style></defs><g id="farmaceuticos"><circle class="cls-1" cx="49.85365" cy="50.35954" r="47.1047"/><path class="cls-2" d="M49.78579,49.86375c9.24177,0,16.45516-2.087,16.45516-11.23767s3.48032-28.41816-13.21564-28.41816c0,0,0-2.88968-4.60409-2.88968-7.22422,0-14.14914,6.26836-14.14914,12.44539C34.27208,43.92093,28.675,49.86375,49.78579,49.86375Z"/><path class="cls-3" d="M49.78581,49.7364c7.17327.1836,16.15551-1.55426,16.00547-10.456-.1623-7.16166,1.06776-14.81525-1.68335-21.60215-1.96558-4.97279-6.84022-6.86767-11.91242-6.543l-.09024-.92718a2.42228,2.42228,0,0,0-2.20459-1.75069c-3.87918-.55407-8.01136,1.24121-10.78545,3.95477a11.07887,11.07887,0,0,0-3.50355,6.68459c-.05557,1.256-.00035,2.88137-.0618,4.21363-.104,4.30762-.42368,8.66051-.76525,12.926-.15549,2.81323-.47477,5.70166.30209,8.21484,1.92551,5.41994,9.91007,5.00921,14.69909,5.28516Zm0,.25488c-5.34239-.19276-13.41.86746-16.0865-4.99879-1.17451-2.84421-1.14723-5.87295-1.16586-8.84348.03385-4.34172.32506-8.58465.38255-12.89528.0661-1.377-.02921-2.96112.09959-4.3989C33.86,12.373,39.562,7.796,45.61377,6.5383c2.98876-.62312,8.005-.33508,8.33164,3.66934l-.92-.91973a15.09732,15.09732,0,0,1,7.52014,1.844C69.67064,17.02169,66.779,30.135,66.657,39.31613c-.37012,9.226-9.38157,10.71531-16.87121,10.67515Z"/><path class="cls-4" d="M47.10564,48.34236c-5.8241,1.43864-13.61609-.88-12.85406-8.16564l.06054-1.526c.15475-3.88494.76369-14.29754,1.00118-18.30835.095-4.38139,3.24769-8.03257,6.85728-10.109C39.287,12.937,36.76441,16.30956,36.97,20.3888a187.91,187.91,0,0,1-.79218,19.916c-1.04585,6.18366,5.93966,8.129,10.92787,8.0376Z"/><path class="cls-4" d="M51.00469,47.96028c-9.47783,1.37564-13.40783-9.92113-12.53165-17.6126l.12711.00444c.13109,8.76456,3.5637,15.57425,12.40454,17.60816Z"/><path class="cls-4" d="M49.61443,48.92341c-9.47782,1.37569-13.40787-9.92109-12.53165-17.61235l.12711.00444c.13105,8.76446,3.564,15.57427,12.40454,17.60791Z"/><path class="cls-5" d="M82.39761,83.0501V62.71065c0-4.31645-14.501-13.99-32.04219-13.99s-32.04219,9.67356-32.04219,13.99V83.0501S33.99567,95.58457,50.15637,95.58457,82.39761,83.0501,82.39761,83.0501Z"/><path class="cls-6" d="M39.26811,83.05012c-3.26273-1.44151-11.48938-6.42573-9.16565-10.85272a15.82,15.82,0,0,1,1.986-2.38849c.74133-.78907,1.997-1.71189,2.10272-2.69431.01679-.67815-.87795-1.57065-1.50507-2.08155-3.19266-2.7109-2.72284-5.83129-.04054-8.66309-5.398,8.22927,4.61743,7.078,2.95725,12.029-.8291,1.88344-2.53494,3.05753-3.58127,4.72591-1.56026,2.12724,5.68468,8.10625,7.24659,9.92526Z"/><path class="cls-5" d="M50.35542,48.72064c-7.76509,0-14.74358,4.75444-16.75539,6.30211-2.08683,1.60538-3.2106,4.01345-2.729,5.77937s4.174,3.69237,4.174,5.77937-4.25489,4.01345-4.25489,5.61883S38.42458,81.351,38.42458,81.351V55.82544s2.86986-5.2114,11.93084-5.2114"/><path class="cls-7" d="M50.35539,48.78425A26.52341,26.52341,0,0,0,38.19927,52.3404c-2.615,1.56637-5.77365,3.14258-6.85369,6.17426-1.228,2.93258,1.99953,4.26716,3.43,6.30963,2.47485,3.28279-2.5896,4.92907-3.51763,7.34514a5.49379,5.49379,0,0,0,1.05463,1.77524,80.14228,80.14228,0,0,0,6.51656,6.99682l-.98021.40941c-.04156-4.25415-.10327-8.50854-.07763-12.76269.05339-4.32178-.0042-8.71436.21811-13.00245,2.73533-3.95086,7.81107-5.22759,12.366-5.03539l0,.12744a16.52281,16.52281,0,0,0-9.3507,3.051,9.082,9.082,0,0,0-2.145,2.33615l.06158-.2395q.27789,13.458.06531,26.91992c-2.92221-3.083-6.08786-6.00988-8.36054-9.632-1.08287-1.86122,1.451-3.21621,2.45837-4.267,2.09933-1.78573,1.94454-2.89113.05672-4.74754a19.49449,19.49449,0,0,1-2.22-2.40966c-1.76368-3.35282,1.64676-6.54236,4.28264-8.09831,4.33161-2.70022,10.18477-5.27751,15.15168-4.80672Z"/><path class="cls-5" d="M49.75528,48.72064c7.76509,0,14.74358,4.75444,16.75539,6.30211,2.08683,1.60538,3.2106,4.01345,2.729,5.77937s-4.174,3.69237-4.174,5.77937,4.25489,4.01345,4.25489,5.61883S61.68612,81.351,61.68612,81.351V54.56017s-2.86986-5.21139-11.93084-5.21139"/><path class="cls-7" d="M49.7553,48.65681c5.40741-.00953,10.63421,2.06645,15.15369,4.93529,2.6366,1.55334,6.04663,4.75091,4.27929,8.10091a19.41959,19.41959,0,0,1-2.22205,2.40814c-1.8907,1.85277-2.03746,2.974.06054,4.74631,1.01023,1.02851,3.56237,2.46452,2.46136,4.272-2.28122,3.6162-5.44193,6.54585-8.36469,9.6275q-.20473-14.09355.07272-28.18661l.0606.23609a8.91389,8.91389,0,0,0-2.14563-2.33985,16.509,16.509,0,0,0-9.35584-3.04415V49.285c4.55618-.18765,9.61775,1.09465,12.36,5.03857.21916,4.49832.17078,9.1.22324,13.63208.02942,4.4651-.03516,8.93018-.07666,13.39527l-.98047-.40942A79.83486,79.83486,0,0,0,67.8,73.94394a5.42532,5.42532,0,0,0,1.05692-1.77245c-.91518-2.41925-6.00423-4.03893-3.52384-7.34383.93744-1.30435,2.38909-2.27345,3.28088-3.51606,1.08463-1.71084-.19737-4.053-1.48591-5.37133a28.81969,28.81969,0,0,0-17.37267-7.15616l-.00007-.1273Z"/><path class="cls-8" d="M38.42459,93.44574V60.116a15.51822,15.51822,0,0,0,11.63077,4.87364A15.5182,15.5182,0,0,0,61.68612,60.116V93.44574C57.18977,94.88451,42.18311,94.68518,38.42459,93.44574Z"/><path class="cls-7" d="M82.27019,83.05012c-.73855-6.71118-1.22772-13.55759-1.54984-20.30273-.68544-1.97993-3.05124-3.483-4.849-4.69368a44.84513,44.84513,0,0,0-12.63107-5.34026,49.52008,49.52008,0,0,0-27.23132.40894A42.27593,42.27593,0,0,0,23.60509,58.868c-1.4161,1.06923-2.98791,2.18119-3.61027,3.80878-.2596,6.073-.70643,12.27436-1.19258,18.34869l-.36158,3.60938h-.25482l-.03613-14.4375-.018-7.21875a3.32894,3.32894,0,0,1,.45319-1.81348c5.74165-8.34406,21.23451-12.58182,30.97387-12.69057a49.6087,49.6087,0,0,1,27.51493,7.80034c2.158,1.57555,4.676,3.28918,5.46323,5.9895.11464,1.657-.00516,4.65981.02729,6.34824l-.03914,14.4375Z"/><path class="cls-6" d="M26.02263,69.61457a44.75138,44.75138,0,0,1,.12841,19.6919,44.744,44.744,0,0,1-.12841-19.6919Z"/><path class="cls-6" d="M72.30266,69.731a44.75074,44.75074,0,0,1,.12841,19.69189A44.74339,44.74339,0,0,1,72.30266,69.731Z"/><path class="cls-6" d="M40.55791,50.9593C35.05066,53.89341,23.717,58.40561,21.80134,64.55381c-.35572,1.68176-.60124,6.19862-.77619,7.98442-.31417,3.62224-.6003,7.257-1.15407,10.89446A91.09974,91.09974,0,0,1,19.2249,72.4676c.22024-3.678-.4556-8.03425,1.83953-11.19388C25.82866,55.416,33.56577,52.92124,40.55791,50.9593Z"/><path class="cls-7" d="M73.89885,89.42292c-.15618-5.11029-.42882-15.38708-.54393-20.49661l.60753.6077-1.16235.02783.63549-.6355c.06031,2.19287.00269,4.3855-.08044,6.57813-.09766,2.19287-.243,4.38549-.49133,6.57837h-.12744A103.112,103.112,0,0,1,72.18227,68.276l.61783.01489c.40306.02734,1.39311.02062,1.78453.04277l-.01451.59273c-.11552,5.10717-.38758,15.39116-.54385,20.4966l-.12742,0Z"/><path class="cls-7" d="M26.68462,90.50862c-.14592-5.38036-.38722-16.20253-.47947-21.58231l-.0104-.53.55365-.01318c.333.01355,1.134-.04258,1.4577-.03487a138.73836,138.73836,0,0,1,.57142,18.39131l-.1272.00733c-.47164-2.94731-.79513-5.90827-1.05172-8.87744-.26518-2.96387-.39036-5.936-.47477-8.91065l.56476.5332-.94019-.02246.54309-.54321L27.08013,79.7176l-.26807,10.791Z"/><path class="cls-8" d="M61.68612,93.44574V53.8889a15.6094,15.6094,0,0,0-23.26154,0V94.39449"/><path d="M61.62236,93.44563c-.0106.07982-.421-40.42519-.25086-39.31743a15.18243,15.18243,0,0,0-17.46313-3.567,14.26334,14.26334,0,0,0-4.97113,3.71894l.13214-.39111c-.07654,13.39343.11117,27.369-.70811,40.50563q-.68361-20.24522-.58155-40.50563l.00176-.23487.13055-.15649c6.00858-7.11151,18.17581-7.04124,24.08825.15148l.08229.099-.00122.14087c-.139.01427-.08934,39.80177-.459,39.55664Z"/><path class="cls-9" d="M50.05535,50.03256c7.12272,0,7.97689,2.52085,7.97689,6.55421,0,0-.3132-.51094-7.97689-.51094s-7.97689.51094-7.97689.51094c0-4.03336.85417-6.55421,7.97689-6.55421"/><path d="M50.05535,49.96882c4.93178-.15255,8.51539.94511,8.33444,6.618l-.662.18788c.12756.15527.08093.07593.08838.09766-4.51556-.63349-9.18177-.2525-13.72094.01761a12.674,12.674,0,0,0-1.66432.2485.61133.61133,0,0,0,.20686-.2063l-1.21674-.34546c-.03772-2.075.401-4.74371,2.47828-5.81565a10.85689,10.85689,0,0,1,6.156-.8023v.12747a27.55288,27.55288,0,0,0-2.97815.46411c-3.44726.63161-4.509,2.68851-4.34116,6.02647l-1.21677-.3458a1.34126,1.34126,0,0,1,.89985-.45825,48.05757,48.05757,0,0,1,7.63622-.21661c2.68636.13993,5.47234-.03876,8.08816.66713.04527.03947.03587-.01937.193.16544l-.662.188c.42366-5.38163-3.00167-6.37951-7.61929-6.49038l.00015-.12754Z"/><path class="cls-9" d="M42.73243,54.34439a4.02112,4.02112,0,0,0,1.36877-2.96152V42.34023H56.28325v9.04264a4.92607,4.92607,0,0,0,1.095,2.96152"/><path d="M42.6928,54.2945c1.703-1.47184,1.17405-3.76673,1.173-5.75222l-.14942-6.20188-.0091-.37622.394-.00879,12.18183-.27.64978-.0144.00525.66943q.024,3.06483-.12818,6.1294c-.03455,1.99833-.60727,4.03469.61627,5.8325l-.09588.084A4.70525,4.70525,0,0,1,55.947,51.54719c-.23432-3.07829-.3399-6.12755-.31861-9.20679l.65479.65479L44.1013,42.72492l.38471-.38452-.14954,6.20191c-.09106,2.01342.25679,4.4729-1.56448,5.852l-.07919-.09982Z"/><path class="cls-10" d="M43.5363,55.138a3.87274,3.87274,0,0,0,1.07892-2.67334c-.09621-3.0278-.77345-6.34356.26583-9.281h.12736a14.36165,14.36165,0,0,1,.44592,6.20214c-.145,2.01008.07983,4.59733-1.83885,5.852L43.5363,55.138Z"/><path class="cls-9" d="M38.79682,21.369c0,13.52837,1.05709,25.24286,11.5586,25.24286S61.795,34.89738,61.795,21.369l-8.83228-4.926Z"/><path d="M38.84874,21.40583c.11163,5.09986.19245,10.39014,1.395,15.39527a14.90314,14.90314,0,0,0,3.31091,6.78271c3.37449,3.59574,10.15894,3.57069,13.46394-.06945A14.57571,14.57571,0,0,0,60.11785,36.744c1.0531-5.002,1.00732-10.21167,1.01525-15.37476l.33948.57788c-2.93945-1.65039-5.88086-3.29687-8.79285-4.99658l.47376.0415c-4.74213,1.56185-9.44763,2.984-14.30475,4.41382Zm-.10382-.07373c4.65611-1.89519,9.47721-3.77727,14.26075-5.5244,3.05783,1.62392,6.0837,3.30573,9.11169,4.98314l.34375.19043-.00415.38794c-.0553,5.19116-.13709,10.4502-1.32764,15.6084-.85848,3.77934-2.857,8.02034-6.83295,9.386-3.76,1.29388-8.451.72862-11.21186-2.339C38.1797,38.10814,38.8539,28.63129,38.74492,21.3321Z"/><path class="cls-10" d="M39.704,20.52546c.494,7.58546.06109,20.27207,7.838,24.16488a14.65172,14.65172,0,0,0,3.65686,1.0143v.12746a8.70631,8.70631,0,0,1-8.15515-3.21876A15.31036,15.31036,0,0,1,40.369,36.13508c-1.07049-5.18774-.92913-10.42529-.79235-15.60962Z"/><path class="cls-10" d="M61.08611,29.37043c-4.99845.75151-8.99287-7.764-8.92814-11.92614l.1276-.00013c.53641,3.81862,3.02862,7.1438,5.73983,9.72778a7.916,7.916,0,0,0,3.06071,2.0713v.12719Z"/><path class="cls-2" d="M52.96276,16.443c0,8.51535-8.04512,11.39821-15.39646,11.39821l1.70179-12.56974H63.03326l0,13.03426C57.8527,28.30574,52.96276,20.43352,52.96276,16.443Z"/><path class="cls-3" d="M61.827,28.36946c-3.96342-.39363-6.67436-4.6993-8.273-7.98517a11.19,11.19,0,0,1-1.05137-3.9411h.92029c.32729,8.0564-7.37768,12.35345-14.65049,11.46151l.00016-.12728a25.27487,25.27487,0,0,0,4.92523-1.05567c3.07109-.99636,6.02531-2.75248,7.612-5.61766a10.31119,10.31119,0,0,0,1.19285-4.6609h.92029c.23778,3.75589,2.4052,7.43285,5.03927,10.07624A5.75052,5.75052,0,0,0,61.827,28.242v.12745Z"/><path class="cls-4" d="M37.72515,26.9156c6.04491-1.60778,14.52143-5.17193,14.857-12.36994l.8182.23615a25.66183,25.66183,0,0,1-5.30267,5.54347,19.24421,19.24421,0,0,1-6.77418,3.4321l-.03491-.12254c5.24169-1.73415,9.35966-5.91851,12.14558-10.56371a11.207,11.207,0,0,1-5.391,10.769,19.49592,19.49592,0,0,1-10.30436,3.20223l-.01362-.12676Z"/><path class="cls-8" d="M50.07729,56.07583c-.0026,1.014-10.43845,5.32882-10.43845,5.32882V53.3354a9.04008,9.04008,0,0,1,4.46223-2.56671Z"/><path class="cls-7" d="M50.13542,56.04988c-.10744.53379-.71358.75232-1.09881,1.05766A88.97112,88.97112,0,0,1,39.31056,61.92l-.0126-.51543-.19666-8.06909-.00457-.18726a9.24105,9.24105,0,0,1,5.17444-3.1013,62.74852,62.74852,0,0,1,5.86425,6.00292Zm-.11633.052a69.88416,69.88416,0,0,1-6.35078-4.84569l.61189.13915a9.48244,9.48244,0,0,0-4.23328,2.29l.12946-.34985-.19666,8.06909-.47107-.31494c2.7315-1.09136,5.47621-2.18391,8.1247-3.46947a7.67142,7.67142,0,0,0,2.38574-1.51832Z"/><path class="cls-8" d="M50.078,56.07583c.0026,1.014,10.43845,5.32882,10.43845,5.32882V53.3354a9.04009,9.04009,0,0,0-4.46222-2.56671Z"/><path class="cls-7" d="M50.13616,56.10188a7.68685,7.68685,0,0,0,2.3857,1.51836c2.64856,1.28554,5.39329,2.37808,8.12467,3.46944l-.47107.31493-.19653-8.06909.12939.34985a9.48267,9.48267,0,0,0-4.23327-2.29l.61194-.13917a69.86392,69.86392,0,0,1-6.35083,4.84571Zm-.11634-.052a62.78288,62.78288,0,0,1,5.86424-6.00295,9.2401,9.2401,0,0,1,5.17445,3.10135l-.00463.18724-.19653,8.06909-.01258.51538a88.94451,88.94451,0,0,1-9.7261-4.81244c-.38839-.30646-.9877-.52214-1.09885-1.05767Z"/><path class="cls-7" d="M50.01421,95.58454c-.14119-4.92749-.36508-14.828-.4459-19.75442a143.43688,143.43688,0,0,1,.44594-19.75437h.1274a143.42931,143.42931,0,0,1,.44587,19.7544c-.08093,4.92005-.30438,14.83568-.4459,19.75441l-.12741,0Z"/><g id="meds"><path class="cls-11" d="M23.331,35.86961v1.53256c0,1.39164,1.4621,1.30356,1.4621,2.9242V51.28328c-.458,0-.66407.414-.66407.82793H13.61313c0-.414-.20606-.82793-.66407-.82793V40.32637c0-1.62064,1.4621-1.53256,1.4621-2.9242V35.86961"/><polygon class="cls-2" points="18.871 40.54 12.949 40.54 12.949 50.087 18.871 50.087 24.793 50.087 24.793 40.54 18.871 40.54"/><rect class="cls-9" x="16.11955" y="44.25401" width="5.50304" height="2.10394" rx="0.03"/><rect class="cls-9" x="16.11955" y="44.25401" width="5.50304" height="2.10394" rx="0.03" transform="translate(64.17704 26.43491) rotate(90)"/><polygon class="cls-2" points="18.871 36.129 24.079 36.129 24.079 35.127 23.767 35.127 23.767 32.535 18.871 32.535 13.975 32.535 13.975 35.127 13.663 35.127 13.663 36.129 18.871 36.129"/></g></g><g id="paleta"><rect class="cls-11" x="6.36295" y="79.52632" width="86.9814" height="28.15918" rx="4.56377"/><path class="cls-12" d="M32.254,99.7482a.34079.34079,0,0,1-.28808-.125.37759.37759,0,0,1-.05762-.31641L32.043,98.692a1.22612,1.22612,0,0,1,.17285-.38379,1.83671,1.83671,0,0,1,.47949-.46093l4.9541-4.07032q1.13232-.82544,1.833-1.41113a5.41046,5.41046,0,0,0,1.05664-1.123,3.14156,3.14156,0,0,0,.4707-1.11377,2.09039,2.09039,0,0,0-.25-1.7378,1.97974,1.97974,0,0,0-1.68945-.64306,2.97032,2.97032,0,0,0-1.38281.31689,3.26587,3.26587,0,0,0-1.05567.86377,4.23689,4.23689,0,0,0-.6914,1.23877.54664.54664,0,0,1-.25879.34521.7287.7287,0,0,1-.33594.0962h-.97949a.31011.31011,0,0,1-.26856-.10547.34441.34441,0,0,1-.05761-.25928,5.19694,5.19694,0,0,1,.61425-1.46875,5.43131,5.43131,0,0,1,1.13282-1.33447,5.83684,5.83684,0,0,1,1.60254-.96973,5.29083,5.29083,0,0,1,2.02636-.37451,4.38085,4.38085,0,0,1,2.3711.54736,2.55813,2.55813,0,0,1,1.123,1.44971,3.94714,3.94714,0,0,1,.03809,1.97754,4.71477,4.71477,0,0,1-.60449,1.54541,6.94313,6.94313,0,0,1-1.123,1.36328,15.33691,15.33691,0,0,1-1.65137,1.35352l-4.47363,3.74414H41.086a.35009.35009,0,0,1,.29786.11523.40853.40853,0,0,1,.04785.32617l-.15332.7876a.53353.53353,0,0,1-.19239.31641.55823.55823,0,0,1-.36425.125Z"/><path class="cls-12" d="M43.7354,98.03921a1.42979,1.42979,0,0,1,.24023-.39355.52351.52351,0,0,1,.41309-.16309h1.30566a.253.253,0,0,1,.23047.125.24871.24871,0,0,1-.01953.27832l-1.66992,2.86084a1.46421,1.46421,0,0,1-.25.3169.54512.54512,0,0,1-.38379.12451h-.67188a.23149.23149,0,0,1-.2207-.12451.32814.32814,0,0,1,.00879-.29786Z"/><path class="cls-12" d="M54.085,99.7482a.36687.36687,0,0,1-.29785-.125.35717.35717,0,0,1-.06739-.31641l.59571-2.76514H48.01763a.33927.33927,0,0,1-.28809-.12451.42907.42907,0,0,1-.07715-.31689l.17285-.76807a1.04193,1.04193,0,0,1,.09668-.27832,1.4734,1.4734,0,0,1,.17188-.24023l7.56543-8.1792a.97212.97212,0,0,1,.76758-.32618h1.459a.36934.36934,0,0,1,.29785.12452.3589.3589,0,0,1,.06738.31689l-1.72754,8.12158H58.251a.33749.33749,0,0,1,.29786.125.40069.40069,0,0,1,.04785.3169l-.17285.78711a.45149.45149,0,0,1-.17286.31689.53262.53262,0,0,1-.3457.12451H56.15825l-.59473,2.76514a.55461.55461,0,0,1-.18261.31641.49712.49712,0,0,1-.33594.125Zm-3.89746-4.83838h4.49218L56.043,88.51626Z"/><path class="cls-12" d="M59.90141,99.7482a.34079.34079,0,0,1-.28808-.125.37759.37759,0,0,1-.05762-.31641l.13477-.61475a1.22612,1.22612,0,0,1,.17285-.38379,1.83687,1.83687,0,0,1,.47949-.46093l4.9541-4.07032q1.13234-.82544,1.833-1.41113a5.41046,5.41046,0,0,0,1.05664-1.123,3.14138,3.14138,0,0,0,.4707-1.11377,2.09039,2.09039,0,0,0-.25-1.7378,1.97974,1.97974,0,0,0-1.68945-.64306,2.97035,2.97035,0,0,0-1.38281.31689,3.26587,3.26587,0,0,0-1.05567.86377,4.23689,4.23689,0,0,0-.6914,1.23877.54664.54664,0,0,1-.25879.34521.7287.7287,0,0,1-.33594.0962h-.97949a.31012.31012,0,0,1-.26856-.10547.34445.34445,0,0,1-.05761-.25928,5.19668,5.19668,0,0,1,.61426-1.46875,5.43105,5.43105,0,0,1,1.13281-1.33447,5.837,5.837,0,0,1,1.60254-.96973,5.29087,5.29087,0,0,1,2.02636-.37451,4.38083,4.38083,0,0,1,2.3711.54736,2.55813,2.55813,0,0,1,1.123,1.44971,3.947,3.947,0,0,1,.03809,1.97754,4.71477,4.71477,0,0,1-.60449,1.54541,6.94313,6.94313,0,0,1-1.123,1.36328,15.33691,15.33691,0,0,1-1.65137,1.35352l-4.47363,3.74414h5.99024a.35008.35008,0,0,1,.29785.11523.40853.40853,0,0,1,.04785.32617l-.15332.7876a.53357.53357,0,0,1-.19238.31641.55827.55827,0,0,1-.36426.125Z"/><path class="cls-12" d="M71.76763,99.7482c-.19239,0-.30469-.07032-.33594-.21143a.39337.39337,0,0,1,.124-.38379L83.671,86.673a2.14754,2.14754,0,0,1,.31738-.269.74539.74539,0,0,1,.41211-.09571H85.169a.29385.29385,0,0,1,.32617.21094.37626.37626,0,0,1-.11523.38428l-12.11523,12.48a2.12949,2.12949,0,0,1-.31641.26855.73824.73824,0,0,1-.41309.0962Zm2.97558-6.624A2.6637,2.6637,0,0,1,73.3897,92.798a1.93158,1.93158,0,0,1-.8252-.91211,2.52728,2.52728,0,0,1-.16406-1.35351q.07764-.49952.16406-.84522.08643-.345.2207-.88281A3.73821,3.73821,0,0,1,73.879,86.92251a3.00873,3.00873,0,0,1,2.09278-.71045,2.68165,2.68165,0,0,1,1.40234.33594,1.94436,1.94436,0,0,1,.80566.92188,2.46024,2.46024,0,0,1,.13477,1.35351c-.05176.3584-.10547.65283-.16309.8833s-.13183.51221-.2207.84473a3.70346,3.70346,0,0,1-1.10449,1.8623A3.01274,3.01274,0,0,1,74.74321,93.12417Zm.03809-1.26709a1.58768,1.58768,0,0,0,1.19043-.45117,2.38786,2.38786,0,0,0,.5957-.93115c.08887-.3457.15332-.61768.19141-.81641q.05859-.29736.13476-.77734a2.33949,2.33949,0,0,0,.01953-.6626.83438.83438,0,0,0-.26855-.52783,1.06122,1.06122,0,0,0-.73047-.21143,1.59386,1.59386,0,0,0-1.209.4419,2.16043,2.16043,0,0,0-.55665.96q-.13476.48046-.19238.77734-.05712.2981-.13476.81641a2.40031,2.40031,0,0,0,.00976.64307.87457.87457,0,0,0,.27832.52783A.96179.96179,0,0,0,74.7813,91.85708Zm6.18261,8.00635a2.72175,2.72175,0,0,1-1.36328-.32666,1.91945,1.91945,0,0,1-.835-.91162,2.40557,2.40557,0,0,1-.14355-1.35352q.07617-.4995.15332-.85449.07617-.35522.21094-.89306a3.89391,3.89391,0,0,1,1.10449-1.86231,2.96835,2.96835,0,0,1,2.083-.71045,2.732,2.732,0,0,1,1.41113.33594,1.93206,1.93206,0,0,1,.81543.92187,2.3541,2.3541,0,0,1,.11523,1.35352c-.05078.3584-.10254.65283-.15332.8833s-.12207.51172-.21094.84473a3.70343,3.70343,0,0,1-1.10449,1.8623A3.01277,3.01277,0,0,1,80.96391,99.86343Zm.03907-1.26709a1.5869,1.5869,0,0,0,1.18945-.45117,2.19356,2.19356,0,0,0,.57617-.93115q.15381-.51857.21192-.81641.05712-.29736.11523-.77734a1.65641,1.65641,0,0,0,.01856-.6626.84605.84605,0,0,0-.97852-.73926,1.59011,1.59011,0,0,0-1.21973.4419,2.20345,2.20345,0,0,0-.54687.96q-.13477.47973-.19238.77734-.05714.2981-.13477.81641a2.39981,2.39981,0,0,0,.00977.64306.87446.87446,0,0,0,.27832.52783A.96272.96272,0,0,0,81.003,98.59634Z"/><polygon class="cls-12" points="11.881 97.324 19.317 89.888 26.753 97.324 11.881 97.324"/></g></svg>