<?xml version="1.0" encoding="utf-8"?>
<!-- Generator: Adobe Illustrator 28.3.0, SVG Export Plug-In . SVG Version: 6.00 Build 0)  -->
<svg version="1.1" id="Layer_7" xmlns="http://www.w3.org/2000/svg" xmlns:xlink="http://www.w3.org/1999/xlink" x="0px" y="0px"
	 viewBox="0 0 600 245.3" style="enable-background:new 0 0 600 245.3;" xml:space="preserve">
<style type="text/css">
	.st0{fill:#FFFFFF;stroke:#000000;stroke-miterlimit:10;}
	.st1{fill:none;stroke:#000000;stroke-miterlimit:10;}
	.st2{fill:#ADCCA2;stroke:#231F20;stroke-miterlimit:10;}
	.st3{fill:#B0B1B3;stroke:#231F20;stroke-miterlimit:10;}
	.st4{fill:none;stroke:#231F20;stroke-miterlimit:10;}
	.st5{fill:#ADCCA2;stroke:#000000;stroke-miterlimit:10;}
	.st6{fill:#EBCF9E;stroke:#000000;stroke-miterlimit:10;}
	.st7{fill:#E1A091;stroke:#231F20;stroke-miterlimit:10;}
	.st8{fill:#FFFFFF;stroke:#231F20;stroke-miterlimit:10;}
	.st9{fill:#BDBFC1;}
</style>
<g>
	<path class="st0" d="M239.7,182.5c-14.1,1.2-11.7,19.2,2.4,18l-0.7-3.3c-8.6,1-9.6-8.5-1.2-9.5"/>
	<path class="st0" d="M238.9,224.5c4.2-18.9,4.8-38.7-10.2-48.8l5.2-6c13.1,8.5,26.1,26.5,19.7,54.8"/>
	<path class="st0" d="M249.5,224.5c0.7-9.2-0.2-14.7-2.3-20.4c1.5,8-1.7,18.4-2.6,20.4"/>
	<path class="st0" d="M243.6,205.2c0,0,2.9-1.8,7.8-1.8"/>
	<path class="st0" d="M241.3,182.2c2.9-7.9,6.9-16.3,11.8-25.2l1,1l-1,2.7l1.1,1.1c-4.2,7.9-6.3,17.3-8.7,25.7"/>
	<path class="st0" d="M241.3,199.3c0,0,7.8-3.5,12-3.5"/>
</g>
<g>
	<path class="st0" d="M566.4,222.8c0-6.9,3.7-22.8,3.7-29.2c0-2.5,0-10-6.1-12.2c-3.2-1.2,2.1-3.7,6.1-3.7c0,0,18.1,1.8,17.7,8.3
		c-0.4,6.5-2.7,26.4,0,33"/>
	<path class="st0" d="M570.2,194.6h2.2l2.1-15.9l2,0.2l-1,15.7h6.9c0,0,1.4-9.8,3.2-12.5"/>
	<polyline class="st1" points="595.4,173.2 556,186.2 555.8,184.9 593.3,172.1 	"/>
	<polygon class="st0" points="594.8,168.2 549.2,182.5 555.8,184.9 598,170.5 	"/>
	<polyline class="st0" points="576.5,180 579.3,169.3 586,171.6 584.4,183.6 	"/>
	<path class="st0" d="M576.5,170.8c2.8-9.7,14.2-6.4,11.4,3.3L576.5,170.8z"/>
	<path class="st0" d="M572.4,222.8c0,0,0.6-22.1,5.6-21.9c5.1,0.1,2.6,11.6,5,19.2"/>
	<path class="st0" d="M586,188.6c-1.9,0.4-10.9,2.4-12.8-12.2l-3,0c0,0,0.1,16.7,15.2,16"/>
	<path class="st0" d="M567.4,177.6c-3.8-2.3-6.4-0.9-8.6,1.9c0,0,3.5-1.3,5.3,0.7L567.4,177.6z"/>
	<polyline class="st1" points="545.3,181.8 552,184.2 551.8,182.9 	"/>
</g>
<g>
	<g>
		<path class="st0" d="M182.9,224.6c2-13.3,0.1-25.5-4.7-36.6c5.1,3.5,14.7,2.3,19.2,0.9l-1.3-3.8c-12.7,3-17.5-3.7-23.8-4.2
			l-4.2-10.6l-6.3,4.3l2.3,7.8c-6.2,2.3-11.6,8.6-19.9,6.3l-1,3.8c5.8,1.4,13.4,1.6,19.8-4.6c-2.9,12.4-5.1,23-2.2,36.5"/>
		<line class="st0" x1="160.5" y1="199.4" x2="181.9" y2="199.4"/>
		<path class="st0" d="M165,224.6c0,0-0.2-19,5.9-19.3s7,19.3,7,19.3"/>
	</g>
	<path class="st0" d="M168,170.3c1.8,7.4-5.5,7.7-6.3,4.3L168,170.3z"/>
	<path class="st0" d="M168,170.3l-6.3,4.3l-3.8-1.2c3.8-5.5,6.5-5.9,10.3-6.6L168,170.3z"/>
	<path class="st0" d="M158,173.5c3.8-1.1,6.5-1.6,10.3-6.6"/>
	<polygon class="st0" points="163.5,180.7 168.3,182.6 167,185.8 161.7,183.5 	"/>
	<polygon class="st0" points="168.3,182.6 171.5,184 174.2,180.7 171.5,178.9 	"/>
	<path class="st0" d="M168.3,182.6l-1.3,3.2l2.4,0.7c0,0,1.6,7.5,0,13.8l2.4,2.2l2.3-2.3c0,0,0-7.9-3.6-14.4l0.8-1.8L168.3,182.6z"
		/>
	<path class="st1" d="M163.2,208.5c0.6-2.1,8.7-6,15.1-1"/>
</g>
<g>
	<g>
		<path class="st2" d="M485.1,201l21.1-143.2L531.8,200C521,199,498.4,203.4,485.1,201z"/>
		<g>
			<polyline class="st3" points="508.5,161.5 517.3,147.4 508.5,155.2 			"/>
			<polyline class="st3" points="507.3,105.4 503.3,99.6 507.3,109.2 			"/>
			<polyline class="st3" points="507.3,115.6 511.3,109.2 507.3,112.4 			"/>
			<polyline class="st3" points="507.3,125.5 502.1,118.5 507.3,130.2 			"/>
			<polyline class="st3" points="507.3,147.4 501.3,138.4 506.4,152.2 			"/>
			<polyline class="st3" points="506.2,188.3 494.9,180.8 505.3,193.5 			"/>
		</g>
		<g>
			<polyline class="st3" points="511.3,223.8 507.3,83.5 503.3,223.8 			"/>
			<line class="st4" x1="499.2" y1="223.8" x2="507.1" y2="223.8"/>
			<line class="st4" x1="515.4" y1="223.8" x2="523.4" y2="223.8"/>
			<g>
				<polyline class="st3" points="508.5,180.8 519.5,163.3 508.5,172.8 				"/>
				<polyline class="st3" points="507.3,168.1 498.4,158.6 506.4,172.8 				"/>
				<polyline class="st3" points="508.5,138.4 512.9,129.1 507.3,133.8 				"/>
			</g>
			<line class="st4" x1="498.4" y1="121.8" x2="493.3" y2="127.8"/>
			<line class="st4" x1="495.9" y1="136.7" x2="492.1" y2="142.7"/>
			<line class="st4" x1="494.9" y1="147.4" x2="492.1" y2="149.2"/>
			<line class="st4" x1="523.4" y1="159.6" x2="527.3" y2="163.3"/>
			<line class="st4" x1="523.4" y1="170.5" x2="529.4" y2="175.9"/>
			<line class="st4" x1="527.3" y1="183.2" x2="531.8" y2="185"/>
			<line class="st4" x1="510.1" y1="92.5" x2="514" y2="94.1"/>
			<line class="st4" x1="506.2" y1="70.9" x2="500.6" y2="77.5"/>
			<line class="st4" x1="508.5" y1="79.4" x2="512" y2="81.8"/>
			<line class="st4" x1="489.7" y1="199.1" x2="487.3" y2="203.3"/>
			<line class="st4" x1="495.9" y1="199.9" x2="496.8" y2="202.9"/>
			<line class="st4" x1="489.7" y1="179.8" x2="485.1" y2="183.2"/>
			<line class="st4" x1="515.8" y1="197.8" x2="519.5" y2="202.9"/>
			<line class="st4" x1="526.4" y1="197.8" x2="528.5" y2="202"/>
			<line class="st4" x1="500.6" y1="171.9" x2="498.4" y2="175.9"/>
			<line class="st4" x1="498.4" y1="171.9" x2="495.9" y2="173.2"/>
			<line class="st4" x1="497.1" y1="169.1" x2="492.1" y2="169.1"/>
			<line class="st4" x1="521" y1="183.2" x2="523.4" y2="186.1"/>
			<line class="st4" x1="519.5" y1="185" x2="519.5" y2="189.6"/>
			<line class="st4" x1="521" y1="179.8" x2="523.4" y2="179.8"/>
			<line class="st4" x1="512.9" y1="138.4" x2="515.8" y2="136.4"/>
			<line class="st4" x1="514" y1="140.9" x2="515.8" y2="140.4"/>
			<line class="st4" x1="512.9" y1="142.7" x2="515.8" y2="144.8"/>
			<line class="st4" x1="514.9" y1="116.9" x2="518.5" y2="115.6"/>
			<line class="st4" x1="515.8" y1="120.3" x2="518.5" y2="120.3"/>
			<line class="st4" x1="514.9" y1="123.4" x2="519.5" y2="127.8"/>
			<line class="st4" x1="496.7" y1="223.8" x2="487.3" y2="223.8"/>
		</g>
	</g>
	<g>
		<g>
			<path class="st0" d="M279.4,151.8c-2.1-12.7,17.3-13.8,17.3-0.6C296.7,158.9,281.2,162.3,279.4,151.8z"/>
			<path class="st5" d="M303.3,159.8c13-28.1-31.5-42.7-39.6-12.2C259,165.3,292.7,182.9,303.3,159.8z"/>
			<g>
				<line class="st0" x1="293.9" y1="145.5" x2="270.3" y2="145.1"/>
				<line class="st0" x1="296.7" y1="149.2" x2="273.1" y2="148.8"/>
				<line class="st0" x1="293.9" y1="142" x2="270.3" y2="141.5"/>
			</g>
			<path class="st5" d="M307.6,155.8c7.5-16.2-18.2-24.7-22.9-7.1C282,159,301.4,169.1,307.6,155.8z"/>
			<polyline class="st6" points="283.4,223.8 282.5,138.2 276.6,138.1 277.4,223.8 			"/>
			<g>
				<path class="st1" d="M283,188.9c0,11.4-5.6,13.6-5.6,34.8"/>
				<path class="st1" d="M283,173.6c0,11.4-5.6,13.6-5.6,34.8"/>
			</g>
			<path class="st5" d="M297.3,119.4c-6,12.9,14.5,19.7,18.2,5.6C317.8,116.9,302.2,108.8,297.3,119.4z"/>
			<line class="st0" x1="304.3" y1="129.1" x2="298.4" y2="129"/>
			<line class="st0" x1="299.9" y1="123.6" x2="293.9" y2="123.5"/>
			<path class="st5" d="M280.4,97.1c-6,12.9,14.5,19.7,18.2,5.6C300.9,94.5,285.4,86.4,280.4,97.1z"/>
			<path class="st5" d="M273.7,138.8c19.9,2.9,20.8-27.6,0.3-27C262,112.2,257.3,136.5,273.7,138.8z"/>
			<path class="st5" d="M282.3,173.9c15.5,12.8,32.1-12.7,14.3-22.9C286.2,145.1,269.6,163.3,282.3,173.9z"/>
			<path class="st5" d="M263.4,170.1c-11.7,8.1,2.4,24.3,12.8,14.2C282.3,178.3,273.1,163.4,263.4,170.1z"/>
			<line class="st0" x1="269.3" y1="183.9" x2="258.3" y2="183.7"/>
			<line class="st0" x1="269.6" y1="181.7" x2="263.6" y2="181.6"/>
			<line class="st0" x1="263.8" y1="179" x2="257.9" y2="178.9"/>
			<path class="st5" d="M286,181.8c-5.7,12.4,13.8,18.8,17.4,5.4C305.5,179.4,290.7,171.7,286,181.8z"/>
			<line class="st0" x1="306" y1="127.3" x2="293.6" y2="127.1"/>
		</g>
		<line class="st1" x1="288" y1="223.4" x2="255.9" y2="223.8"/>
	</g>
	<g>
		<path class="st7" d="M118.9,224.6c-12.1-50.5,30-72.2,8.3-126.6h3.2c21.7,54.3-15.4,74.9,0,126.6"/>
		<g>
			<path class="st2" d="M156.5,110.8c0-72-48.8-72-48.8,0H156.5z"/>
			<path class="st4" d="M138.9,79.5c5.7,8.4,7.4,14.7,7.4,31.3"/>
			<path class="st4" d="M122.5,75.2c1.9-7,4.9-13.4,9.5-18.4"/>
			<path class="st4" d="M119.3,110.8c0-5.6,0-12.3,0.6-19.3"/>
			<path class="st4" d="M116.9,94.8c0.5-5.4,1.3-11,2.7-16.3"/>
			<path class="st4" d="M123.5,63.6c2.4-2.9,5.2-5.2,8.5-6.8c-6.6,27.7,8,32.7,8,54"/>
			<path class="st4" d="M112.3,110.8c0-11.8,1.1-24.9,4.9-35.6"/>
			<path class="st4" d="M114.7,76c1.6-4.4,3.7-8.4,6.4-11.7"/>
			<path class="st4" d="M132.1,56.8c-1,23.6,21.3,32.7,21.3,54"/>
			<path class="st4" d="M107.7,110.8c0-11.8,5.6-17.8,6.7-24.9"/>
			<path class="st4" d="M131.2,78.5c2.9,15.7-9.1,13-3.5,32.3"/>
			<line class="st4" x1="124.9" y1="60.3" x2="120.2" y2="58.2"/>
			<path class="st4" d="M126.2,59.2c0,0-4.2-4.4-3.6-4"/>
			<line class="st4" x1="127.7" y1="58.2" x2="127.3" y2="53"/>
		</g>
		<path class="st7" d="M125.5,190.3c0-31.6-24.6-29.6-24.6-57.6h-1.7c0,28,21.3,26,21.3,57.6"/>
		<path class="st7" d="M126.4,190.3c9.5-3.4,20.8-12.8,20.8-29h-1.7c0,15.3-9.5,20.1-19.1,23.6"/>
		<path class="st4" d="M137.3,137.1c-0.2,6.7-8.2,31.1-10.9,37.9"/>
		<path class="st4" d="M125.5,194.9c-1,13.8,0.5,21.3,3,27.8"/>
		<path class="st2" d="M159.6,166.9c0-38.4-24.6-38.4-24.6,0H159.6z"/>
		<path class="st2" d="M122.5,143c0-65-42.2-65-42.2,0H122.5z"/>
		<path class="st4" d="M101.5,94.2c-13.7,14.7-14,29.7-14,48.8"/>
		<path class="st4" d="M101.5,94.2c-13.7,14.7-5.7,29.7-5.7,48.8"/>
		<path class="st4" d="M101.5,94.2c12.3,11.4,15.4,29.7,15.4,48.8"/>
		<path class="st4" d="M101.5,94.2c0,28.2,10.8,21.1,10.8,48.8"/>
		<path class="st4" d="M140,166.9c0-12.1,1.4-21,7.3-28.8"/>
		<path class="st4" d="M153.3,166.9c0-12.1-11.9-21-6.1-28.8"/>
		<path class="st4" d="M156.5,166.9c3.9-8.4-10.2-14.4-1.7-24.9"/>
		<path class="st4" d="M142.6,146.9c-3.6,5.6-7.6,12.3-7.6,19.9"/>
		<path class="st4" d="M103.7,111.6c3,6.8-9.5,14.2-8.1,27.4"/>
		<path class="st4" d="M91.1,110.8c-2.4,9.1-10.7,16.4-10.7,24.2"/>
		<path class="st4" d="M130.5,149.6c-1.9,6.7-0.5,15.1-2.4,20.7"/>
		<path class="st4" d="M119.3,179c-3-15.2-10.8-20.8-14.8-30.3"/>
		<path class="st4" d="M118.9,224.6c-3.4-14.1,10-29.8,0-57.2"/>
		<line class="st4" x1="159.6" y1="224.6" x2="141.5" y2="224.6"/>
		<line class="st4" x1="127.3" y1="224.6" x2="109.3" y2="224.6"/>
		<path class="st4" d="M127.1,190.1c7.6-3,16.7-14.3,17.5-21.5"/>
		<line class="st4" x1="150.6" y1="139.7" x2="152.6" y2="136.6"/>
		<line class="st4" x1="149.5" y1="139.7" x2="148.5" y2="134.4"/>
		<line class="st4" x1="144.6" y1="138.7" x2="142.6" y2="136.6"/>
		<line class="st4" x1="98" y1="96.4" x2="93.4" y2="92.1"/>
		<line class="st4" x1="99.8" y1="95.2" x2="101.5" y2="87.6"/>
		<line class="st4" x1="103.2" y1="96" x2="106.9" y2="90.3"/>
	</g>
	<g>
		<g>
			<path class="st5" d="M355.7,133c8.4-18.3-20.5-27.8-25.8-8C326.9,136.6,348.8,148,355.7,133z"/>
			<path class="st5" d="M378,150.4c13-28.1-31.5-42.7-39.6-12.2C333.7,155.9,367.3,173.4,378,150.4z"/>
			<g>
				<line class="st0" x1="374.5" y1="137.2" x2="350.8" y2="136.8"/>
				<line class="st0" x1="371.6" y1="140.9" x2="348" y2="140.5"/>
				<line class="st0" x1="371.6" y1="133.7" x2="348" y2="133.3"/>
			</g>
			<path class="st5" d="M382.3,175.8c7.5-16.2-18.2-24.7-22.9-7.1C356.7,179,376.1,189.1,382.3,175.8z"/>
			<path class="st5" d="M354.1,152.1c-2.1-12.7,17.3-13.8,17.3-0.6C371.4,159.2,355.9,162.6,354.1,152.1z"/>
			<polyline class="st6" points="358.1,224.2 357.2,138.5 351.3,138.4 352.1,224.1 			"/>
			<path class="st1" d="M358.1,216.2c0-20.4-6.8-42.4-6.8-77.8"/>
			<path class="st5" d="M363.5,117.1c-6,12.9,14.5,19.7,18.2,5.6C384,114.5,368.5,106.4,363.5,117.1z"/>
			<path class="st5" d="M340.3,156.5c18.3,8.4,27.8-20.5,8-25.8C336.7,127.7,325.3,149.6,340.3,156.5z"/>
			<path class="st5" d="M326,158.8c-6,12.9,14.5,19.7,18.2,5.6C346.5,156.2,331,148.1,326,158.8z"/>
			<path class="st5" d="M335.9,179c-6,12.9,14.5,19.7,18.2,5.6C356.3,176.5,340.8,168.4,335.9,179z"/>
			<path class="st5" d="M360.7,182.2c-5.7,12.4,13.8,18.8,17.4,5.4C380.2,179.7,365.4,172,360.7,182.2z"/>
			<path class="st5" d="M372.6,224.1c0-7.8-17.4-10.1-17.4,0"/>
			<line class="st0" x1="362.5" y1="223.8" x2="385.1" y2="224.3"/>
		</g>
	</g>
</g>
<g>
	<g>
		<path class="st8" d="M339.9,223.4c0,0-6.3-45.9-3.2-49.1c3.2-3.2,10.9-1.4,10.9-7.3s-9.3-9.4-9.3-9.4l-0.7,2.1
			c0,0,7.3,2.9,7.3,7.3c0,4.5-12.7,1.4-21.4,2.4c-3.6,0.4-9.6,2.8-9.6,12.1"/>
		<path class="st8" d="M323.5,190.5c0,0,6.1,2.2,12.7-1.3"/>
		<path class="st8" d="M324.8,223.4c0,0,0.1-30,5.7-30c5.7,0,5.9,30,5.9,30"/>
		<path class="st8" d="M316.3,181.2c0-6.6,3.3-10.6,7.1-8.3c1.9,1.2-1.5,50.4-1.5,50.4"/>
		<polyline class="st8" points="327.5,170.6 326.7,160.2 334,160.2 333.3,173.6 		"/>
		<polygon class="st8" points="326.7,183.3 326.7,190.4 330.5,190.4 330.1,183.3 		"/>
		<path class="st8" d="M314,181.5c0,9.3,15.7,7.5,15.7,7.5v-2.4c0,0-13.4,2.5-13.4-5.4"/>
	</g>
	<line class="st8" x1="321.1" y1="169.9" x2="321.8" y2="172.3"/>
	<line class="st8" x1="338.4" y1="169.9" x2="338.6" y2="173.1"/>
	<line class="st8" x1="323.3" y1="199.3" x2="326.7" y2="200.4"/>
	<line class="st8" x1="334.3" y1="199.9" x2="337" y2="199.3"/>
</g>
<g>
	<g>
		<path class="st8" d="M83.8,223.2c0,0,4.7-45.6,1.5-48.9c-2.4-2.4-2.4,7.5-2.4,25.4H80c0,0-0.7-18.1,2.3-28.9
			c1-3.5,14.2-3.4,19.3-0.6c4.8,2.7,8.2,17.2,3,26.8l-2.3-0.4c0,0,4.6-8.1,1.5-17.7c-3.2-9.6-5.6-4.7-5.6-2.9
			c0,6.5,5.9,47.1,5.9,47.1"/>
		<path class="st4" d="M100.6,223.2c0,0,0.5-28.6-7.3-28.6s-6,28.6-6,28.6"/>
		<path class="st8" d="M89.1,169.6c-1.3,0.3-5.4,5.2,4.4,9.4c0,0,7.4-6.9,2.3-9.4"/>
		<polyline class="st8" points="89.1,171.4 89.1,160 95.8,160 95.8,171.4 		"/>
	</g>
	<polygon class="st8" points="89.1,169.6 92.7,173 91.2,174.5 87.4,171.4 	"/>
	<polygon class="st8" points="95.8,169.6 92.7,173 94.4,174.3 97.4,171.4 	"/>
	<polygon class="st8" points="91.7,174 92.7,173 93.9,173.9 93.3,174.9 94.3,178.1 93.4,179 92.3,178.5 92.4,175 	"/>
	<path class="st8" d="M86.1,192.4c0,0,4.5,2.1,13.7-0.5"/>
</g>
<g>
	<g>
		<g>
			<g>
				<path class="st4" d="M15,176.2"/>
				<g>
					<path class="st8" d="M33.7,222.7c0,0-12.1-16.1-12.7-27.1s1-13.7,1-13.7s3.7,18.1,15.7,8.7l-1.3-2.6c0,0-4.6,4.4-7.5,1.5
						c-2.9-2.9-5.8-13.9-5.8-13.9l-8-2.3c0,0-6.9,22.9-8.5,51.4"/>
					<path class="st8" d="M9.5,224.6c0,0,1.6-25.5,5-27.4c4.9-2.8,4,12.4,16.2,27.4"/>
					<path class="st8" d="M15,176.2C3,185.6,14,195,14,195l-1.7,1.7c-13.3-13.5,2.8-23.5,2.8-23.5l3.9,1.1"/>
					<polyline class="st8" points="17.6,175.8 24.5,164.7 28.5,168.3 23,178.1 					"/>
				</g>
				<polygon class="st8" points="38.5,184.5 39.5,187.6 33.6,191 32.8,187.4 				"/>
			</g>
			<g>
				<path class="st9" d="M14,177.1c0,0-10.3,7.3-1.9,15.9l0.1,2C12.2,195,0.9,185.2,14,177.1z"/>
			</g>
		</g>
	</g>
</g>
<path class="st8" d="M20.9,194.2c0,0-3.6,1.7-9.6-2.3"/>
<path class="st4" d="M19.7,197.4c0,0-4.8-2.7-7.9,1.6"/>
<g>
	<g>
		<g>
			<path class="st0" d="M556.5,222.5c-4.1-7.4-8.7-26.3-13.3-44.5c8,5.5,13,16.1,13,16.1l1.6-1.1c-3.4-12.7-16.1-20.8-16.1-20.8
				l-1.5,0.3l-4-9.8l-5.4,2.7l1.8,8.8l-2.4,0.5c-2.5,11.2-5.8,20.5-11.4,24.8l2.7,1.9c5.7-4.7,9.2-9.7,9.9-18.7
				c-1.4,13.6-2.3,27.4-0.8,42"/>
			<path class="st0" d="M534.1,224.6c-0.7-8.3-0.6-16.5,1.6-23.3l8-1.1c3.6,11.1,6.8,17.9,9.9,22.9"/>
		</g>
		<polyline class="st0" points="532.7,174.3 536.5,177.7 540.3,172.6 		"/>
		<path class="st0" d="M536.5,177.7c-0.8,6.6,0.1,13.7,3.8,22.9"/>
		<path class="st1" d="M531,187.8c0,0,5.5,1.8,14.1-2.2"/>
		<path class="st1" d="M530.5,188.6c0,0-1.2-2.7-3.6-1.7"/>
		<path class="st1" d="M549.5,183.8c0,0,0.5-2.5,2.3-2.4"/>
		<path class="st1" d="M546.4,207.8c2.1,0,3.3-0.3,4.3-1.5"/>
		<path class="st1" d="M529.9,210.1c1.4,0.6,2.5,1,4.1,0"/>
	</g>
</g>
<g>
	<g>
		<polygon class="st0" points="72.7,193.3 70.7,204.9 82.3,209.2 84.3,196.4 		"/>
		<polygon class="st0" points="88,196.9 86,208.5 82.3,209.2 84.3,196.4 		"/>
		<line class="st0" x1="86" y1="197.7" x2="84.5" y2="206.6"/>
		<line class="st0" x1="88" y1="196.9" x2="76.4" y2="193.8"/>
	</g>
	<path class="st0" d="M59.9,221.8c0,0,3.8-34.1,4.1-36c0.4-1.9,3.8,12.8,16.5,6.8l-1.9-4.1c0,0-7.1,4.5-13.1-7.9c0,0-6.4,0-6-2.3
		c0.4-2.3,1.1-8.3-1.5-8.3c-2.6,0-3.8-1.1-4.9,0c-1.1,1.1,0.4,9.4-1.5,9.4c-1.9,0-16.1-5.3-21.8-7.5l-1.5,4.1c0,0,17.3,5.3,18.4,8.6
		c1.1,3.4-6.8,37.5-6.8,37.5"/>
	<path class="st0" d="M45.1,182.9c3.5,1.9-1.3,16.6-1.3,16.6l9.9,1.6c3-14.5-2-21.6-2-21.6s-1-0.1-2.9-0.7"/>
	<path class="st0" d="M60.4,179.6c0,0,1.2,11-1.9,21.4l4.8,0.4l0.7-15.7l1.1,2.2"/>
	<path class="st0" d="M48,222.2c0,0,3.7-17.2,5.3-16.9c1.6,0.3,0,16,0,16"/>
	<polyline class="st0" points="52,180 57.7,183.3 60.4,179.6 	"/>
	<polyline class="st0" points="54,185 57.7,183.3 60.6,184.7 	"/>
	<path class="st0" d="M56.2,184.2l1.1,1.4c0,0-0.1,9.4-2.7,14.3l1.3,2.2l2.1-2.4c0,0,1.2-8.1,0.4-14.1l1.2-1.4l-2-0.9L56.2,184.2z"
		/>
</g>
<g>
	<g>
		<path class="st0" d="M195,223.8l-0.2-43.5c-4.3,5.4-5.9,14.9-3.9,19.5l-2.7,0.9c-2.7-9-0.2-14.7,6.9-26.5l17.3-0.9
			c2.5,10.4,6.9,13.4,13.1,8.9l2.5,1.1c-7.7,5.9-13.3,5.4-15.6-4.9l3.8,45.4"/>
		<path class="st0" d="M212.3,223.8c0-35.9-13.6-35.9-13.6,0"/>
		<polyline class="st0" points="193,177.6 195,174.2 200.7,173.7 203.2,214.2 194.6,214.2 194.8,180.3 193.6,182.1 		"/>
		<polyline class="st0" points="200.6,175.1 200.6,165.8 207.5,165.8 207.5,176.3 		"/>
		<polyline class="st0" points="207.7,173.3 208.6,213.8 217.2,213.1 212.3,178.4 		"/>
		<polyline class="st0" points="200.8,176.3 204.7,177.6 207.5,176.3 		"/>
		<polyline class="st0" points="200.8,180.3 204.7,177.6 207.8,179 		"/>
		<path class="st1" d="M200.6,172.4c-3.5-1.2-2.6,8,4.9,10.2c4.5-1.3,6.5-12,2.3-10.2"/>
		<path class="st1" d="M205.5,182.5c0.3,7.6,11.1,16.7,21.6-1"/>
		<path class="st1" d="M227.9,178.9c-2.1,0.3-2.3,2.5,0,2.7C230.2,181.8,230,178.5,227.9,178.9z"/>
		<line class="st1" x1="200.8" y1="210.3" x2="210.1" y2="210.3"/>
	</g>
</g>
<g>
	<g>
		<path class="st0" d="M400.3,219.2c46.2,0.2,37.4-33.2,68.3-28.4l-0.5,2c-24.4-4.6-28,34-67.8,29.3"/>
		<g>
			<path class="st0" d="M437.7,223.4c2.8-15.2,5.6-33.2,2-57.4h6.5l9.1,60.8"/>
			<path class="st0" d="M450.5,226.8c0.4-7.1-1.2-17.6-4.7-24.6l-1.6,0.1c-1.7,6.7-2.1,13.7-1.6,21.1"/>
			<path class="st0" d="M442.7,184.2c3.2,3.9,10.1,7.3,19.5,3.6l1,3.5c-10,3.2-16.9,2.8-20.9-1.6"/>
			<path class="st0" d="M440.1,201.6c3.4,0.8,5.5,1,9.6,0"/>
		</g>
		<polygon class="st0" points="468.7,189.3 467.4,194.4 468.7,195 470.4,190 		"/>
		<polygon class="st0" points="470.1,190.8 477.1,194 476.3,196.1 469.1,193.7 		"/>
		<polygon class="st0" points="477.1,193.1 476.1,196.8 477.1,197.2 478.6,193.4 		"/>
		<path class="st0" d="M477.9,196.4c4.6,2,8.9,6.3,12.7,14.4"/>
		<path class="st1" d="M478.3,194.2c5.1,2.9,10,4.9,16.3,14.2"/>
		<path class="st1" d="M486,198.9c3.7,3,8.6,10.2,9.8,18"/>
		<path class="st0" d="M480.4,200.3c0,0,3.6,2.6,2.2,3.8C481.1,205.3,480.4,200.3,480.4,200.3z"/>
	</g>
	<g>
		<g>
			<path class="st0" d="M404.1,225.9c1.8-15.1-11.1-33.4-4.2-45.7c6.2-4,14.4-10.5,16.4-18.8l-2.5-1.1c0,0-4.4,15.5-22.3,17.3
				c-16.8,1.6-20.5,19.7-9.9,24.4l1.2-2.2c-8.3-5.9-3.3-13.3,2.4-15.5c4.4,12.4-7,25.1-3.5,43.8"/>
			<path class="st0" d="M385.1,228c-3-25.3,13-38.7,15.8-3.1"/>
			<polyline class="st0" points="394.9,180.2 393.3,170.8 387.8,171.5 388.3,181.7 			"/>
		</g>
		<path class="st1" d="M385.3,198.2c4,2.8,8.4,3.8,13.9,0"/>
		<path class="st0" d="M374.5,202.6c-8.1,9.5-0.8,15.7,7.3,6.2L374.5,202.6z"/>
		<line class="st0" x1="376" y1="208.5" x2="393.5" y2="188.9"/>
		<polygon class="st0" points="392.2,187.4 395.1,190.5 396.1,189.5 393.3,186.3 		"/>
	</g>
</g>
<g>
	<g>
		<path class="st0" d="M286.4,224.5c0,0,1.9-38.7,0.8-38.7s-6.3,15.2-6.3,15.2l-3-0.5c0,0,6.2-19.2,8.1-20.9s3.6-0.3,4.9-1.1
			c1.3-0.8,0.8-9.1,1.3-10.7c0.5-1.6,5.8-0.9,7.6,0.2c1.7,1.1-0.8,9.3-1.1,10.2c-0.3,0.9,2.3-2.2,4.5,1c2,2.9,12.3,19,12.3,19
			l-2,1.3c-1.5-2.1-8.8-14.9-10.3-14.3c-1.5,0.6,7.3,38.7,7.3,38.7"/>
		<path class="st0" d="M290.2,198.5c0,0,5.7-2.3,13.7-1.7"/>
		<path class="st0" d="M305.5,223.4c-0.8-4.3-6.6-19.6-8.8-19.7c-2.2-0.1-5.2,21.9-5.2,21.9"/>
	</g>
	<path class="st0" d="M291.9,170.5c0.2-9.9,0.4-10.7-1.6-9.2c-2,1.5-3.2-7.8,1.2-6.8c9.6,2.2,10.7-1.4,12.5,0.8
		c1.8,2.1-0.2,8.7-1.7,6.9s-0.9,5.2-2.2,9.5C299.7,174,293.5,172.6,291.9,170.5z"/>
	<path class="st1" d="M292.4,154.7c5.6,1.4,6.2,3.1,10,2.6"/>
	<polyline class="st1" points="289.2,178.8 291,191.6 286.8,192.9 	"/>
	<polyline class="st1" points="301.1,177.1 301.1,190.2 304.7,191.1 	"/>
	<path class="st1" d="M301.1,190.2v-8l-11.2,1.4l1.2,7.9l-2.1,0.6c0.7,4.3,1.3,15.2,1.3,19.6c0,0,10-1.3,15.3-2.7
		c0.3-3.8-1.6-10.9-2.6-18.5L301.1,190.2z"/>
</g>
</svg>
