<svg xmlns="http://www.w3.org/2000/svg" width="50" height="50" viewBox="0 0 50 50"><defs><style>.cls-1,.cls-7{fill:#e30613;}.cls-2,.cls-5{fill:#fff;}.cls-3,.cls-4{fill:none;stroke-width:0.50551px;}.cls-3,.cls-5{stroke:#e30613;}.cls-3,.cls-4,.cls-5,.cls-7{stroke-miterlimit:10;}.cls-4,.cls-7{stroke:#fff;}.cls-5{stroke-width:0.5008px;}.cls-6{fill:#606060;}.cls-7{stroke-width:1.00159px;}</style></defs><g id="venda"><circle class="cls-1" cx="25" cy="25" r="25"/><path class="cls-2" d="M37.14672,17.89187c-10.20186-9.25113-19.44474,2.691-25.357-4.88589-.92806.95219-2.91941,4.84581.63388,7.24992"/><path class="cls-3" d="M12.21852,13.006c-.92807.95219-2.91942,4.84581.63387,7.24992"/><path class="cls-4" d="M37.14672,40.86484H31.19228c-.8886-3.57591-3.33385-5.43828-5.754-5.314H32.592"/><path class="cls-4" d="M32.04982,40.86484c-.8886-3.57591-3.33384-5.43828-5.75395-5.314"/><path class="cls-2" d="M10.64437,30.95489a16.644,16.644,0,0,0,1.54507,3.539c1.1837,2.12789.11219,6.37092.11219,6.37092h7.83014"/><path class="cls-4" d="M13.047,34.49392c1.1837,2.12789.11219,6.37092.11219,6.37092"/><path class="cls-5" d="M20.13177,40.86484c2.09592-7.39993,10.73558-6.77953,12.42027,0h4.59468s10.20186-13.72184,0-22.973-17.82061,2.364-23.73285-5.21279c0,0-3.342,3.93994-.99024,7.57682,0,0-1.03509,3.03072-2.22086,3.33379a24.77071,24.77071,0,0,1-4.82265,0c-1.50274-.00005-1.50274,7.36516,0,7.36522l5.26425,0a21.02794,21.02794,0,0,0,2.2315,3.539c1.59643,2.12789,1.3479,6.37092,1.3479,6.37092Z"/><path class="cls-3" d="M5.38012,23.5897c1.38065-.00005,1.38065,7.36516,0,7.36522"/><path class="cls-4" d="M13.39381,15.86178s3.50091.50006,3.50091,5.25064"/><path class="cls-1" d="M14.04047,22.18272c.83256,0,1.02468,1.21681,0,1.21681S13.20792,22.18272,14.04047,22.18272Z"/><path class="cls-4" d="M41.31251,24.73958c4.05706,0,4.39625,2.63415,2.82748,2.63415-1.52636,0-1.28759-2.63415,3.09514-2.63415"/><path class="cls-1" d="M32.5213,16.16632a13.221,13.221,0,0,0-9.08307-.1447l.30126,1.00905a13.221,13.221,0,0,1,9.08307.1447Z"/><ellipse class="cls-6" cx="5.65654" cy="27.27231" rx="0.10549" ry="0.84101"/><ellipse class="cls-6" cx="4.88504" cy="27.27231" rx="0.10549" ry="0.84101"/><path class="cls-4" d="M15.93018,17.55713s-1.88971.14433-1.88971,1.82629"/><path class="cls-4" d="M14.2118,34.07086A2.10623,2.10623,0,0,0,13.047,36.59032"/><path class="cls-4" d="M39.3621,28.11332c2.52717,4.21179,0,8.955,0,8.955"/><path class="cls-4" d="M20.13177,37.67938c4.68872-3.78781,10.02113-1.80022,13.29712-.26665"/><path class="cls-2" d="M13.78221,33.35188c-3.93239.86644-5.06058-.39332-4.58254-1.17012.48452-.78735,2.65525-.43507,2.24077-1.22687h-.44816"/><path class="cls-7" d="M27.30734,5.85752c-4.34037,0-3.86911,5.64154.13579,5.64154C31.65539,11.49906,31.39468,5.85752,27.30734,5.85752Z"/></g></svg>