<?xml version="1.0" encoding="utf-8"?>
<!-- Generator: Adobe Illustrator 28.3.0, SVG Export Plug-In . SVG Version: 6.00 Build 0)  -->
<svg version="1.1" xmlns="http://www.w3.org/2000/svg" xmlns:xlink="http://www.w3.org/1999/xlink" x="0px" y="0px"
	 viewBox="0 0 50 72" style="enable-background:new 0 0 50 72;" xml:space="preserve">
<style type="text/css">
	.st0{fill:#FFFFFF;}
	.st1{fill:#F5EAE6;}
	.st2{fill:none;stroke:#000000;stroke-linecap:round;stroke-linejoin:round;}
	.st3{fill:none;stroke:#000000;stroke-linecap:round;stroke-linejoin:round;stroke-dasharray:0,2.0727;}
	.st4{fill:none;stroke:#000000;stroke-linecap:round;stroke-linejoin:round;stroke-dasharray:0,1.9524;}
	.st5{fill:none;stroke:#000000;stroke-linecap:round;stroke-linejoin:round;stroke-miterlimit:10;}
	.st6{fill:#FFFFFF;stroke:#000000;stroke-linejoin:bevel;stroke-miterlimit:10;}
	.st7{fill:#F5EAE6;stroke:#000000;stroke-miterlimit:10;}
	
		#icone2{opacity:1;animation:icone2 4s infinite forwards;animation-delay:0s;-webkit-animation-delay:0s; transform-origin: 25.9px 29.6px}
@keyframes icone2{
    0%{opacity:1;transform:scalex(1)}
    20%{opacity:1;transform:scalex(0)}
    60%{opacity:1;transform:scalex(0)}
    80%{opacity:1;transform:scalex(1)}
    100%{opacity:1;transform:scalex(1)}
}
	#icone{opacity:1;animation:icone 4s infinite forwards;animation-delay:0s;-webkit-animation-delay:0s; transform-origin: 25.9px 29.6px}
@keyframes icone{
    0%{opacity:1;transform:scalex(0)}
    20%{opacity:1;transform:scalex(0)}
    40%{opacity:1;transform:scalex(1)}
    60%{opacity:1;transform:scalex(0)}
    100%{opacity:1;transform:scalex(0)}
}
	
</style>
<g id="icone">
	<g>
		<g>
			<rect x="12.3" y="9.3" class="st0" width="27.2" height="39.5"/>
			<path d="M38.9,9.8v38.5H12.8V9.8H38.9 M39.9,8.8H11.8v40.5h28.2V8.8L39.9,8.8z"/>
		</g>
		<g>
			<rect x="14.4" y="11.5" class="st1" width="22.8" height="35.1"/>
			<g>
				<line class="st2" x1="37.2" y1="46.7" x2="37.2" y2="46.7"/>
				<line class="st3" x1="35.2" y1="46.7" x2="15.5" y2="46.7"/>
				<line class="st2" x1="14.4" y1="46.7" x2="14.4" y2="46.7"/>
				<line class="st4" x1="14.4" y1="44.7" x2="14.4" y2="12.5"/>
				<line class="st2" x1="14.4" y1="11.5" x2="14.4" y2="11.5"/>
				<line class="st3" x1="16.5" y1="11.5" x2="36.2" y2="11.5"/>
				<line class="st2" x1="37.2" y1="11.5" x2="37.2" y2="11.5"/>
				<line class="st4" x1="37.2" y1="13.5" x2="37.2" y2="45.7"/>
			</g>
		</g>
	</g>
</g>
<g id="icone2">
	<g>
		<g>
			<rect x="12.3" y="9.3" class="st1" width="27.2" height="39.5"/>
			<path d="M38.9,9.8v38.5H12.8V9.8H38.9 M39.9,8.8H11.8v40.5h28.2V8.8L39.9,8.8z"/>
		</g>
		<g>
			<rect x="14.4" y="11.5" class="st0" width="22.8" height="35.1"/>
			<g>
				<line class="st2" x1="37.2" y1="46.7" x2="37.2" y2="46.7"/>
				<line class="st3" x1="35.2" y1="46.7" x2="15.5" y2="46.7"/>
				<line class="st2" x1="14.4" y1="46.7" x2="14.4" y2="46.7"/>
				<line class="st4" x1="14.4" y1="44.7" x2="14.4" y2="12.5"/>
				<line class="st2" x1="14.4" y1="11.5" x2="14.4" y2="11.5"/>
				<line class="st3" x1="16.5" y1="11.5" x2="36.2" y2="11.5"/>
				<line class="st2" x1="37.2" y1="11.5" x2="37.2" y2="11.5"/>
				<line class="st4" x1="37.2" y1="13.5" x2="37.2" y2="45.7"/>
			</g>
		</g>
	</g>

</g>
		<g>
		<path class="st5" d="M43.3,6.3C46.2,7,48,7.9,48,8.8c0,2.2-9.8,4-21.9,4c-4.3,0-8.2-0.2-11.6-0.6"/>
		<path class="st5" d="M7.9,11.1c-2.4-0.7-3.9-1.4-3.9-2.3c0-2.2,9.8-4,21.9-4c4.8,0,9.2,0.3,12.8,0.8"/>
		<polyline class="st5" points="36.6,6.9 38.8,5.5 37.2,3.5 		"/>
		<polyline class="st5" points="16.5,10.7 14.4,12.3 16.3,14.1 		"/>
	</g>
	<g>
		<path class="st6" d="M25.5,65.7c0,0,0-1.8-0.5-4.2c0,0-5.8-7.7-4.6-8.6c2-1.6,4.9,2.4,4.9,2.4s-0.8-12.8,1-13.8
			c1.8-1,1.5,10.2,1.5,10.2s6.7-1,7.7,1.2c1,2.2-3.3,9-3.3,9v3.9"/>
		<path class="st7" d="M29.6,51.5c0,0,1.5-0.4,1.1,2.7"/>
		<path class="st7" d="M32.1,51.7c0,0,1.5-0.4,1.1,2.7"/>
	</g>
</svg>
