<svg id="Layer_1" data-name="Layer 1" xmlns="http://www.w3.org/2000/svg" width="127" height="134" viewBox="0 0 127 134"><defs><style>.cls-1{fill:#746d6a;}.cls-2{fill:#17130f;}.cls-3{fill:#fff;}.cls-4{fill:#26231f;}.cls-5{fill:#0f3d54;}.cls-6{fill:#c71618;}.cls-7{fill:#f3f0e2;}.cls-8{fill:#fc0;}</style></defs><path class="cls-1" d="M58.55932,69.56572c5.938-11.8819,4.98414-21.97254,4.55754-26.93512-.624-7.25886,28.63353-6.26519,28.63353.13194s1.62691,34.36751,1.62691,41.467C81.07833,80.99965,61.49,82.32739,58.55932,69.56572Z"/><path class="cls-2" d="M58.47334,69.55546a46.91287,46.91287,0,0,0,3.90852-12.05022,48.42216,48.42216,0,0,0,.48262-12.59291l-.139-1.57819c-.0221-.27374-.05728-.50435-.06863-.8135a2.86553,2.86553,0,0,1,.1053-.93207,4.51655,4.51655,0,0,1,2.3674-2.52728,18.93635,18.93635,0,0,1,6.27625-1.74095,43.84119,43.84119,0,0,1,12.85275.335,17.78983,17.78983,0,0,1,6.22419,2.14135A5.1153,5.1153,0,0,1,91.828,41.02132a2.99161,2.99161,0,0,1,.612,1.88229c.01366,1.047.05477,2.1031.09362,3.15924.17982,4.229.4143,8.46443.6454,12.69886.453,8.479.9741,16.92185,1.03563,25.46777l.0079,1.09759-1.058-.28767a93.25486,93.25486,0,0,0-9.71389-1.89307c-3.28651-.519-6.59824-1.02476-9.867-1.818a30.889,30.889,0,0,1-9.41337-3.65681A12.31755,12.31755,0,0,1,58.47334,69.55546Zm.172.02053a11.93758,11.93758,0,0,0,2.19747,4.33646A13.31358,13.31358,0,0,0,64.56593,77.028a30.60438,30.60438,0,0,0,9.26733,3.17c3.23909.63291,6.528,1.0602,9.82847,1.5129a94.54312,94.54312,0,0,1,9.92815,1.70887l-1.0499.80979c-.09907-4.1968-.29613-8.44788-.49616-12.67761L91.53469,58.838c-.15842-4.24032-.32026-8.47963-.42791-12.72956l-.04236-3.20194a2.37263,2.37263,0,0,0-1.32028-2.00292,16.683,16.683,0,0,0-5.7176-2.02932,42.72669,42.72669,0,0,0-12.49192-.50073,18.02635,18.02635,0,0,0-5.94932,1.54531A3.6247,3.6247,0,0,0,63.65155,41.847a1.94307,1.94307,0,0,0-.08039.63965c.00209.22087.03477.51734.05064.7723l.10759,1.59359A49.09678,49.09678,0,0,1,62.893,57.60235,46.69129,46.69129,0,0,1,58.6453,69.576Z"/><polygon class="cls-3" points="61.793 77.564 72.113 82.547 72.113 71.934 62.093 68.316 61.793 77.564"/><path class="cls-4" d="M61.86662,77.51964l10.38024,4.749-.44266.27784c-.12045-3.53747-.19518-7.07494-.27667-10.61242l.38642.55037-5.07416-1.63011c-1.69924-.5216-3.39558-1.05122-5.04337-1.71535l1.17081-.794C62.77831,71.27,62.40536,74.19316,61.86662,77.51964Zm-.14817.08967a78.32929,78.32929,0,0,1-.49914-9.32121l.00418-1.16765,1.16683.37354c1.692.54167,3.33542,1.21786,4.976,1.90207l4.94517,1.98733.39563.159-.009.39163c-.08149,3.53748-.15622,7.075-.27667,10.61242l-.01683.49449-.426-.21653Z"/><rect class="cls-3" x="68.2928" y="41.11105" width="14.98376" height="41.43548"/><path class="cls-5" d="M79.77766,128.13989c2.08186-.01611.97622-42.09268-1.10564-42.07657H75.21909c-2.26776,7.88021-2.0438,31.01707-.78026,42.07657H67.99758S61.49,85.75871,61.49,77.87138c9.19477,1.42374,19.41753,1.20677,30.26043,0,0,0-3.12107,30.66779-3.12107,50.26851"/><path class="cls-2" d="M79.777,128.0533c.12444-.03017.23561-.30255.29539-.50992a5.79647,5.79647,0,0,0,.15729-.68941c.08207-.46777.13974-.94178.18683-1.41687.09306-.95063.14793-1.90619.19118-2.86194.08288-1.9121.11174-3.82725.11768-5.74221.009-3.83019-.07408-7.661-.21766-11.48842-.14869-3.82686-.35018-7.65335-.68262-11.4641-.17353-1.90214-.361-3.81141-.69837-5.67314a10.5656,10.5656,0,0,0-.325-1.351,1.64908,1.64908,0,0,0-.2164-.46247c-.00691-.01443.0072.00643.04023.01818.03888.00769.06023-.00539.00864-.00112l-.17974.0011-.35947.00221-2.87582.01761.35395-.26645a57.36138,57.36138,0,0,0-1.3225,10.371c-.19921,3.50137-.26726,7.01329-.26647,10.52424.00433,3.51114.07774,7.02344.24008,10.53006.16388,3.5053.39127,7.01114.78946,10.48349l.07356.64144-.64854.003-6.44105.0296-.51979.0024-.08152-.51842Q65.42624,115.7038,63.6133,103.154c-.60127-4.18495-1.19246-8.37144-1.7299-12.5693-.51353-4.21431-1.10138-8.36357-1.26463-12.7132l-.03818-1.01695,1.04278.15591a97.70923,97.70923,0,0,0,14.98225.95177c5.02086-.044,10.04347-.40041,15.05461-.9l1.00739-.10043-.10722.99217q-.6751,6.24723-1.24262,12.52008l-1.0986,12.53808c-.343,4.18143-.63769,8.36646-.909,12.55336-.27,4.18691-.49221,8.37777-.59422,12.57445h-.17319c-.08107-4.20073-.04176-8.40419.04571-12.60632.09488-4.20221.30674-8.39934.51571-12.59654.42335-8.39608,1.09641-16.76946,1.83621-25.148l.9.89155a140.73688,140.73688,0,0,1-15.21622,1.05648,89.54033,89.54033,0,0,1-15.26738-1.00475l1.00441-.86085c.13472,4.09858.65827,8.3413,1.12438,12.5166.487,4.19046,1.02868,8.37857,1.58052,12.56505,1.10546,8.3731,2.30281,16.73793,3.53269,25.09436l-.60107-.51583,6.441.0296-.57479.64421c-.37121-3.5236-.56651-7.04678-.699-10.57173-.13069-3.52472-.172-7.05075-.14392-10.57664.03165-3.5258.13227-7.05208.36519-10.575A57.91885,57.91885,0,0,1,74.865,85.96153l.07058-.26838.28362.00174,2.87356.0176.35921.00222.1796.0011c.00507-.0197.35156.05494.378.1302a1.75391,1.75391,0,0,1,.44188.79631,11.15157,11.15157,0,0,1,.33086,1.44556c.32248,1.91514.48516,3.82818.6367,5.74374.28686,3.83041.44149,7.664.54347,11.49844.09679,3.83448.133,7.67021.07694,11.50571-.02945,1.91766-.08183,3.83543-.18843,5.75168-.05514.958-.12187,1.91582-.22724,2.87149-.05332.47775-.11718.955-.20653,1.43a5.974,5.974,0,0,1-.17118.70885c-.098.21361-.10742.51568-.46773.62874Z"/><path class="cls-6" d="M75.33137,41.22356l-1.93346,2.14352.96673.906c-1.10285,9.31218-2.23845,15.13493-2.38615,30.80606l3.35288,2.83824,3.47047-2.943c-1.6442-15.73583-3.14649-21.56136-2.89655-30.70131l.95135-.88347Z"/><path class="cls-2" d="M75.32616,41.31l-1.82625,2.149-.008-.192.9825.88891.05816.05263-.00845.08356c-.51917,5.13221-1.17765,10.245-1.48551,15.37637-.3518,5.12847-.43759,10.27234-.42413,15.4166l-.225-.49122,3.39028,2.79373-.89723.00038,3.42122-3.00075-.26777.66715-.98141-7.63981c-.35525-2.54336-.63966-5.09642-.94946-7.65348-.261-2.56282-.522-5.13491-.66056-7.72524A64.09011,64.09011,0,0,1,75.568,44.264l.01313-.1601.09463-.07807,1.00309-.82747-.03579.34156Zm.01042-.17287c.53251.64953,1.14615,1.34624,1.7335,2.10207l.13061.16806-.16642.17379-.89933.93921.10762-.23784a119.61774,119.61774,0,0,0,1.5641,15.26186c.34306,2.54564.72853,5.09313.99836,7.656.29727,2.5597.53,5.12759.76266,7.694l.03779.4169-.30569.25058-3.51941,2.885-.46222.37889-.43532-.3785-3.31515-2.88249-.232-.20172.00688-.28983c.12266-5.16193.34431-10.32824.83466-15.47467.49117-5.14876,1.33026-10.24173,2.028-15.34408l.0496.13586-.95068-.92286-.09944-.09653.09138-.09574Z"/><path class="cls-5" d="M91.75039,42.76254c.1547,6.39525,1.62691,34.36751,1.62691,41.467-3.54515-1.683-10.51893-2.29169-14.47037-3.83295,1.776-13.83869.62322-23.27095,1.15744-36.63229,0,0,1.64078-5.952,2.89869-5.74884S91.65356,38.75962,91.75039,42.76254Z"/><path class="cls-2" d="M91.837,42.76044c.11884,3.454.23013,6.9117.45441,10.36311l.65033,10.35637c.2034,3.45294.42358,6.90549.58585,10.36153.16215,3.4582.33557,6.90738.39661,10.388l.01495.85247-.79644-.35839a20.24974,20.24974,0,0,0-3.45947-1.11278c-1.19775-.29125-2.41622-.53615-3.64-.77928A51.00451,51.00451,0,0,1,78.662,81.02487l-.4881-.17712.06422-.53707A143.64222,143.64222,0,0,0,79.065,62.10013c-.03647-3.04708-.02485-6.10394-.02076-9.16754.04694-3.06316.14912-6.13322.41339-9.19242l.00849-.09829.0129-.039a29.35392,29.35392,0,0,1,1.65472-4.12845,8.2378,8.2378,0,0,1,.59079-.98754,3.17258,3.17258,0,0,1,.4027-.47258,1.1637,1.1637,0,0,1,.69384-.35817,1.42419,1.42419,0,0,1,.35456.03687l.2658.04516.53961.09071,1.08153.20366a16.83652,16.83652,0,0,1,4.193,1.35233,5.95425,5.95425,0,0,1,1.779,1.32387A3.1639,3.1639,0,0,1,91.837,42.76044Zm-.17314.00419a2.95779,2.95779,0,0,0-.804-1.90125,5.34722,5.34722,0,0,0-1.738-1.20467,14.68594,14.68594,0,0,0-4.1518-1.0763l-1.07413-.12047-1.00276-.08953c-.08341.00291-.35151.28626-.50267.55966a7.45393,7.45393,0,0,0-.45964.92039,28.17746,28.17746,0,0,0-1.281,4.07317l.02134-.13694.10119,9.14221c.00814,3.04928.10637,6.10494.06372,9.17077a137.19485,137.19485,0,0,1-1.26029,18.38069l-.42372-.71393a50.24,50.24,0,0,0,7.13881,1.86727c1.22283.26472,2.45085.53294,3.67628.853a21.24411,21.24411,0,0,1,3.64459,1.24683l-.78131.494c.00167-3.4361-.10922-6.89916-.20907-10.3523l-.2962-10.36978-.28224-10.37276C91.96523,49.67606,91.75035,46.22436,91.66382,42.76463Z"/><path class="cls-5" d="M64.30041,37.01253c-1.62691,7.10166-.5551,19.55041-5.74109,32.55319,2.93064.1372,3.63291,3.40706,11.82658,7.20305,0,0-1.1117-25.68625.30074-38.58045"/><path class="cls-2" d="M64.38481,37.03187a65.23659,65.23659,0,0,0-.87894,8.22451c-.17677,2.75884-.35659,5.52373-.65737,8.2831A64.69588,64.69588,0,0,1,59.10912,69.7849l-.522-.8104a4.43589,4.43589,0,0,1,1.92484.55159,9.9389,9.9389,0,0,1,1.5198,1.06412c.91783.74748,1.78676,1.47769,2.71709,2.13933a29.59378,29.59378,0,0,0,2.88269,1.8323c.99288.56194,2.02514,1.05768,3.06451,1.53725l-1.04747.70149c-.17669-3.22273-.33963-6.43789-.43453-9.66006-.11527-3.22061-.12472-6.44463-.07334-9.66867.08518-3.2235.13182-6.449.38146-9.66957a89.8588,89.8588,0,0,1,1.0784-9.62339l.17216.01886c-.1136,3.21844-.11362,6.42888-.10064,9.6397.04378,3.21086.04,6.42077.135,9.63162l.31616,19.26769.02012,1.22627-1.06776-.52466c-1.06266-.52217-2.11791-1.06189-3.13775-1.67258a31.24984,31.24984,0,0,1-2.97121-1.97256c-.95469-.70738-1.85514-1.49469-2.72839-2.23454a4.71056,4.71056,0,0,0-2.7065-1.40172l-.83591-.04407.31378-.76654a66.15719,66.15719,0,0,0,4.11318-15.89819c.39064-2.72775.66274-5.4761.9323-8.22865A65.47486,65.47486,0,0,1,64.216,36.99319Z"/><path class="cls-7" d="M73.1038,10.43656s3.81168-.15844,5.27891,2.81l-.43386,2.667s-2.087-.11725-5.95516-.32493"/><path class="cls-4" d="M73.1002,10.35a7.046,7.046,0,0,1,3.20287.44676,5.04428,5.04428,0,0,1,2.5737,2.20547l.06382.10157-.01384.23137-.08107,1.35548c-.02445.45225-.02575.90826-.03688,1.36268l-.0173.70692-.89162.02316a15.09677,15.09677,0,0,1-2.96975-.2844,14.49713,14.49713,0,0,1-2.94108-.82394l.00928-.17294a14.48754,14.48754,0,0,1,3.014-.499,15.12169,15.12169,0,0,1,2.98531.04053l-.9087.72989c.13348-.4345.2768-.86741.397-1.3041l.35276-1.31127.04991.33255a4.21376,4.21376,0,0,0-.749-1.17923,4.62594,4.62594,0,0,0-1.12791-.91013,7.17333,7.17333,0,0,0-2.90424-.87831Z"/><path class="cls-7" d="M85.31443,69.41711a6.35981,6.35981,0,0,1,7.4782-3.58889l1.55724,3.78415s-1.90719-.84969-3.84623,3.20977Z"/><path class="cls-4" d="M85.23172,69.44276a2.6223,2.6223,0,0,1,.2345-.58851q.12777-.25821.27732-.50562a6.85422,6.85422,0,0,1,.67582-.94221,6.53708,6.53708,0,0,1,1.81449-1.49172,6.8411,6.8411,0,0,1,4.67927-.605l.24756.05.12424.266,1.73363,3.71134-.96286.93588c.02757.02449-.1706-.00777-.27828.034a1.31788,1.31788,0,0,0-.399.16672,3.275,3.275,0,0,0-.77144.69089,10.15822,10.15822,0,0,0-.69282.95288c-.22347.34071-.42769.70643-.64728,1.06914l-.51882.857-.70848-.51441A41.466,41.466,0,0,1,85.23172,69.44276Zm.16541-.05129c2.16861.97872,3.931,1.775,5.57043,2.7235l-1.227.34253a7.51488,7.51488,0,0,1,1.59065-2.498,4.37171,4.37171,0,0,1,1.36957-.93262,3.04853,3.04853,0,0,1,.88758-.22567,2.124,2.124,0,0,1,1.05554.15045l-.96275.93577-1.38069-3.85659.37153.31578a6.28874,6.28874,0,0,0-4.14793.16167,5.98912,5.98912,0,0,0-1.7907,1.1936,7.78162,7.78162,0,0,0-.736.81971C85.77262,68.78635,85.56034,69.1843,85.39713,69.39147Z"/><path class="cls-5" d="M87.84582,43.7603c7.41507,2.53939,11.01069,8.959,12.45164,11.91134,2.15607,4.41761-8.54707,9.81066-8.54707,9.81066v6.45162s19.641-10.47106,14.69657-18.5119C103.378,48.43114,93.36169,35.24348,89.90879,34.91484c-1.52266-.14493-6.63223,3.10065-6.63223,3.10065"/><path class="cls-2" d="M87.87387,43.67838a19.73961,19.73961,0,0,1,6.88427,3.96111,25.43369,25.43369,0,0,1,5.01992,6.22311c.3415.58588.65494,1.146.9583,1.78506a3.359,3.359,0,0,1,.16895,2.2223,8.16714,8.16714,0,0,1-2.27908,3.502,30.12118,30.12118,0,0,1-6.57432,4.70847l.36834-.59805.07594,6.45141-1.09658-.65806a51.28406,51.28406,0,0,0,11.43928-8.51668c1.58972-1.68654,3.05847-3.63525,3.429-5.71759a4.39741,4.39741,0,0,0-.46166-2.93939c-.55326-.957-1.26015-1.99721-1.92894-2.97518a116.66117,116.66117,0,0,0-8.82695-11.43726c-.79593-.89726-1.61615-1.77294-2.487-2.57609A13.8538,13.8538,0,0,0,91.209,36.00042a3.30536,3.30536,0,0,0-1.40317-.65568,5.24017,5.24017,0,0,0-1.5958.39242c-.55573.20565-1.10738.44667-1.65342.70081-1.09054.51318-2.16742,1.07345-3.23357,1.65061l-.09286-.14619q1.48782-1.06506,3.07108-1.99161c.529-.30887,1.06643-.60646,1.62775-.876A5.10771,5.10771,0,0,1,89.81609,34.48a3.98559,3.98559,0,0,1,1.9265.70742,14.82638,14.82638,0,0,1,1.5267,1.10961,36.97456,36.97456,0,0,1,2.72381,2.50726c1.71765,1.75621,3.30943,3.61368,4.86208,5.50038,1.54095,1.89606,3.05893,3.81113,4.45884,5.82174.70817,1.0202,1.3855,1.97835,2.0572,3.11733a6.09282,6.09282,0,0,1,.66652,4.107,10.00518,10.00518,0,0,1-1.5513,3.65573,20.03859,20.03859,0,0,1-2.40261,2.94727,40.50308,40.50308,0,0,1-5.70728,4.75308,63.1839,63.1839,0,0,1-6.2752,3.88513l-1.11156.5997.01481-1.25786.07593-6.45141.00487-.41353.36365-.18483a29.02284,29.02284,0,0,0,6.44385-4.27091,7.277,7.277,0,0,0,2.13086-2.981,2.54317,2.54317,0,0,0-.05487-1.65807c-.239-.565-.5494-1.17369-.85324-1.74065a24.82233,24.82233,0,0,0-4.67229-6.25008,19.41822,19.41822,0,0,0-6.6256-4.14109Z"/><polygon class="cls-3" points="70.386 42.631 72.618 44.232 75.331 41.224 71.76 38.01 70.687 38.188 70.386 42.631"/><path class="cls-4" d="M70.46423,42.59368l2.33622,1.38353-.41568.04472c.81979-1.07923,1.668-2.13287,2.51194-3.1903l.04314.827-1.887-1.49387c-.62632-.501-1.29076-.95955-1.89429-1.48582l.74824.21854q-.53508.09736-1.077.15351l.72931-.80349A24.02317,24.02317,0,0,1,70.46423,42.59368Zm-.15667.07383a17.1074,17.1074,0,0,1-.49335-4.53815l.00532-.63668.72419-.167q.53093-.12246,1.06893-.20227l.44175-.06614.30684.28479c.58694.54473,1.113,1.15716,1.67712,1.72721l1.68438,1.71915.43414.44311-.391.38414c-.96509.94818-1.926,1.90015-2.91525,2.82651l-.22108.207-.19489-.16226C71.68957,43.86654,70.97768,43.25145,70.30756,42.66751Z"/><polyline class="cls-3" points="80.072 43.254 77.45 44.232 75.331 41.224 81.65 39.421"/><path class="cls-4" d="M80.10215,43.33527c-.83266.43674-1.67772.84022-2.51737,1.25821l-.2303.11465-.22005-.254c-.80715-.93166-1.59236-1.87877-2.36668-2.83355l-.58263-.71842.95721-.34159a18.40084,18.40084,0,0,1,3.11044-1.0725,10.71635,10.71635,0,0,1,3.37351-.15038l.04751.16655a10.71658,10.71658,0,0,1-2.94506,1.6522,18.39972,18.39972,0,0,1-3.20813.73008l.37451-1.05979c.63794,1.05081,1.265,2.10929,1.87011,3.18322l-.45-.13927c.90829-.234,1.81117-.48244,2.72645-.69766Z"/><path class="cls-3" d="M43.29514,15.51389c1.91255,3.62755,4.98234,10.64664,4.46686,16.47156C45.09285,62.14681,6.60035,59.24968,6.60035,29.02922c0-18.874,16.82826-26.41094,31.4522-19.51306"/><path class="cls-4" d="M43.37174,15.47351A47.82316,47.82316,0,0,1,46.6339,22.964a25.61582,25.61582,0,0,1,1.44053,8.06714,29.99908,29.99908,0,0,1-1.4148,8.09907,22.73331,22.73331,0,0,1-3.85818,7.29659,19.42965,19.42965,0,0,1-14.48182,7.3341,20.808,20.808,0,0,1-15.28727-5.86538A24.66227,24.66227,0,0,1,5.95758,32.96786a30.51885,30.51885,0,0,1,.08526-8.36533,23.09312,23.09312,0,0,1,2.68988-7.97838A19.82067,19.82067,0,0,1,22.029,7.007,24.19061,24.19061,0,0,1,38.08949,9.43784l-.07388.15663A24.97845,24.97845,0,0,0,22.29187,8.14019a19.96346,19.96346,0,0,0-7.063,3.38274,19.72835,19.72835,0,0,0-2.834,2.69082,20.96075,20.96075,0,0,0-2.193,3.22777C7.70486,22.05445,7.14747,27.518,7.68755,32.76534a23.2599,23.2599,0,0,0,6.34163,14.11591,19.47112,19.47112,0,0,0,14.251,5.73324,18.4164,18.4164,0,0,0,13.83971-6.744c3.43463-4.1012,5.08116-9.516,5.42669-14.85212a25.19332,25.19332,0,0,0-1.24681-7.9482,47.5654,47.5654,0,0,0-3.08124-7.51591Z"/><path class="cls-4" d="M56.58,12.26067,53.75475,11.065c-.96083-.33653-1.93663-.62182-2.89747-.92181a17.56292,17.56292,0,0,0-5.90165-.54877,13.8786,13.8786,0,0,0-5.3701,1.85631,8.46474,8.46474,0,0,0-1.21158.76466c-.42267.24464-.75334.60061-1.15975.88572a21.49634,21.49634,0,0,0-2.1211,2.14573l-.15814-.07059a9.27748,9.27748,0,0,1,3.71435-5.18249A10.8189,10.8189,0,0,1,44.879,8.21108,18.68471,18.68471,0,0,1,51.11319,9.316c.96042.41573,1.92325.81511,2.85673,1.2606L56.6637,12.109Z"/><path class="cls-7" d="M71.7598,38.0104l3.57157,3.21316L81.65,39.421l1.313-1.40546s.70536-12.02875,0-14.79928c0,0-6.80522-1.73158-10.10443-.69263C72.85863,22.52358,73.13371,33.39021,71.7598,38.0104Z"/><path class="cls-4" d="M71.84315,37.98692l3.62864,3.08042-.19795-.04581L81.546,39.05659l-.17278.10561L82.65,37.72314l-.11454.26717c.08674-2.46175.14-4.9307.14328-7.39174-.00321-1.23-.01071-2.46066-.05914-3.68217a20.64444,20.64444,0,0,0-.353-3.52278l.51916.51909a36.47122,36.47122,0,0,0-4.94022-.74127,21.43128,21.43128,0,0,0-2.44912-.08611,9.86983,9.86983,0,0,0-2.27131.28412l.6201-.86821a72.61253,72.61253,0,0,1-.32941,7.83722c-.13767,1.30169-.31508,2.60141-.54017,3.89449-.10085.64738-.27059,1.28763-.42327,1.92541l-.26759.94983Zm-.16669.047a31.33837,31.33837,0,0,0,.34614-3.8975c.06606-1.28506.07753-2.57458.0636-3.86438.0159-2.57435-.0618-5.164-.11413-7.72589l-.01367-.66943.634-.199a9.01667,9.01667,0,0,1,2.77972-.367,19.6751,19.6751,0,0,1,2.65035.18042,42.54094,42.54094,0,0,1,5.11775,1.0286l.44616.11635.07323.403a22.02733,22.02733,0,0,1,.24737,3.85322c.00124,1.24869-.03916,2.48889-.08371,3.72886q-.15,3.71838-.43254,7.41939l-.01239.16351-.1023.104-1.349,1.37159-.08063.082-.09248.02383L75.3891,41.42554,75.271,41.456l-.08017-.07633Z"/><polyline class="cls-7" points="81.806 34.983 81.806 32.853 84.105 33.399 84.682 28.988 81.884 28.988"/><path class="cls-4" d="M81.71949,34.98275c-.09952-.70988-.17411-1.41977-.25524-2.12965l-.04414-.38622.46511.05354c.78785.09069,1.57079.20206,2.35419.3115l-.71278.49151c.03735-.74283.081-1.48485.09268-2.23105a7.84455,7.84455,0,0,1,.22213-2.2141l.84038.95749a10.3513,10.3513,0,0,1-1.39885-.256,6.71022,6.71022,0,0,1-1.39886-.505v-.17318a6.70908,6.70908,0,0,1,1.39886-.505,10.34819,10.34819,0,0,1,1.39885-.256l.82459-.10234.016,1.06a7.84462,7.84462,0,0,1-.355,2.19671c-.1807.72408-.32945,1.45234-.48449,2.17978l-.14589.6845-.56711-.19284c-.7489-.25465-1.49825-.50738-2.2427-.78077l.42077-.33252c-.08112.70988-.15571,1.41977-.25524,2.12965Z"/><path class="cls-4" d="M74.81377,46.29969a10.27684,10.27684,0,0,1-.428-1.01324c-.06619-.16888-.1101-.33775-.16144-.50663-.04826-.16887-.13381-.33774-.20014-.50662L72.786,41.1213l2.90335,2.77053a.6387.6387,0,0,1,.12547.56432,1.76673,1.76673,0,0,1-.34669.79256l-.15593.07537a1.76664,1.76664,0,0,1-.83645-.22065.63873.63873,0,0,1-.36429-.44888l1.66511-.38135c-.06633.16888-.15188.33775-.20013.50662-.05135.16888-.09526.33775-.16145.50663a10.27684,10.27684,0,0,1-.428,1.01324Z"/><path class="cls-4" d="M76.51061,43.82868a10.20761,10.20761,0,0,1-.94029,1.498l-.84706.00252a.75243.75243,0,0,1-.76925-.37242,1.65837,1.65837,0,0,1-.18927-1.12782l.10547-.13737a1.65835,1.65835,0,0,1,1.13844-.10844.75243.75243,0,0,1,.55846.647l-.84675.00252a10.207,10.207,0,0,1,1.684-.54073Z"/><path class="cls-5" d="M63.54346,47.59318c-.40741-10.98845-10.53645-22.90155-10.59885-25.205-.14292-5.27558,19.43392-11.923,19.43392-11.923a43.05813,43.05813,0,0,1,.82206,6.63024s-10.66479.41991-12.01618,4.55036,8.27609,13.87352,8.34711,16.22"/><path class="cls-2" d="M63.45693,47.59639a31.66352,31.66352,0,0,0-3.63363-12.1057c-1.86905-3.82484-4.23512-7.34235-6.424-11.03765a9.60138,9.60138,0,0,1-.721-1.50432,2.50036,2.50036,0,0,1,.14068-1.82663,7.68813,7.68813,0,0,1,2.12046-2.60466,31.30764,31.30764,0,0,1,5.44082-3.52368,94.63549,94.63549,0,0,1,11.79566-5.125l.64285-.234.17111.678a45.243,45.243,0,0,1,.89715,6.72465l.06887.68869-.72824.05773a29.80758,29.80758,0,0,0-7.61233,1.48505,7.75511,7.75511,0,0,0-3.046,1.78859,2.16857,2.16857,0,0,0-.60617,1.25543,4.27333,4.27333,0,0,0,.22757,1.61843,31.05837,31.05837,0,0,0,3.63478,6.8269l2.143,3.387c.34614.57655.67976,1.16357.99105,1.76665a4.78241,4.78241,0,0,1,.65854,1.95141l-.1731.00525a5.39013,5.39013,0,0,0-.92812-1.68651c-.386-.53407-.80507-1.049-1.22059-1.56723l-2.49937-3.13173c-.82731-1.05786-1.60865-2.15638-2.35474-3.29873a16.54713,16.54713,0,0,1-1.91854-3.72563,5.956,5.956,0,0,1-.3369-2.31375,3.711,3.711,0,0,1,1.065-2.29319,9.07448,9.07448,0,0,1,3.8151-2.17327,31.35676,31.35676,0,0,1,8.10661-1.27128l-.65918.74621a44.39251,44.39251,0,0,0-.74691-6.53544l.81373.4439a93.58292,93.58292,0,0,0-11.73658,4.82495A30.44827,30.44827,0,0,0,55.505,19.19127,7.04655,7.04655,0,0,0,53.55154,21.443a1.71524,1.71524,0,0,0-.14907,1.276,9.05041,9.05041,0,0,0,.63288,1.38552c2.07353,3.68015,4.39841,7.30737,6.19262,11.19108A31.96155,31.96155,0,0,1,63.63,47.59Z"/><path class="cls-2" d="M63.70945,33.82451c-.6638-1.1194-1.331-2.24862-1.95322-3.41181a32.92607,32.92607,0,0,1-1.619-3.637,10.93882,10.93882,0,0,1-.9321-3.97983,5.23651,5.23651,0,0,1,1.50248-3.88059l.15111.08461a12.41564,12.41564,0,0,0,.07571,3.70227c.19877,1.18366.24306,2.43637.53057,3.67787a31.79765,31.79765,0,0,0,1.08634,3.68984c.39877,1.23418.89767,2.43616,1.317,3.68578Z"/><path class="cls-4" d="M67.96561,87.5336a26.86815,26.86815,0,0,1,4.88476-1.23952c1.65432-.273,3.31658-.4848,4.98152-.6707a33.09137,33.09137,0,0,1,5.00442-.36752,21.87587,21.87587,0,0,1,5.00951.72087v.17319a26.31284,26.31284,0,0,1-4.96852.83729c-1.65075.16565-3.30962.00444-4.96648.0194-1.65535.01187-3.31106.04948-4.96243.14782a30.90837,30.90837,0,0,0-4.91885.54012Z"/><path class="cls-8" d="M30.26115,17.33856c10.06246.44717,9.47125,13.75054-.59121,13.30336l-.31313,7.046H26.34234L25.438,27.51322c9.90824.76435,10.4721-6.53642,2.41155-6.32058V23.114l-2.94146.19154-.37443-5.967Z"/><path class="cls-4" d="M30.26307,17.252a8.44624,8.44624,0,0,1,5.23913,1.95086,6.72177,6.72177,0,0,1-.264,10.28671,8.53667,8.53667,0,0,1-5.5903,1.6505l.52017-.47589-.21143,7.05033-.017.56594-.583.00793-3.01426.041-.57683.00784-.06216-.59255-1.0659-10.16015-.09725-.927.9596.05454A14.50982,14.50982,0,0,0,29.358,26.4617a4.75359,4.75359,0,0,0,2.928-1.61459,1.1516,1.1516,0,0,0,.16688-1.12865,2.16635,2.16635,0,0,0-1.0108-1.00279,7.8892,7.8892,0,0,0-3.57157-.74131l.761-.78163-.04444,1.92121-.01645.711-.67328.02506-2.94659.10963-.68147.02535-.01542-.63849-.14442-5.98127-.01171-.485.436.03327c.95619.073,1.91126.16923,2.86594.22311C28.35426,17.19965,29.30878,17.22377,30.26307,17.252Zm-.00385.17315c-.95484.02821-1.90945.05232-2.864.11535-.95447.05387-1.90852.15012-2.86146.22309l.42411-.45155.6044,5.95241-.69667-.613,2.93592-.27341-.68953.73588-.04443-1.92121-.01736-.75049.77852-.03132a8.69483,8.69483,0,0,1,4.436.76829,3.8878,3.8878,0,0,1,1.82607,1.8661,2.95487,2.95487,0,0,1-.29957,2.78672A4.71142,4.71142,0,0,1,31.884,27.43594a8.48275,8.48275,0,0,1-2.168.72013,15.41354,15.41354,0,0,1-4.33975.15838l.86216-.87228.74276,10.18888-.63877-.58451,3.01426.041-.59972.57367.41482-7.0413.0296-.50255.49077.02646a7.837,7.837,0,0,0,5.05363-1.3013,6.206,6.206,0,0,0,.61447-9.484A7.9212,7.9212,0,0,0,30.25922,17.42513Z"/><polygon class="cls-8" points="25.735 41.387 29.964 41.387 29.964 44.83 27.215 44.83 25.735 41.387"/><path class="cls-4" d="M25.66241,41.33916c1.27626-.10328,2.74578-.32841,4.30189-.44076l.45007-.0325.03845.521.2541,3.44269.04993.67633-.79254.06631a15.97982,15.97982,0,0,1-2.74909.13606l-.63466-.05671-.17262-.47494a12.24909,12.24909,0,0,1-.5613-2.124A14.35711,14.35711,0,0,1,25.66241,41.33916Zm.14463.09526c.47133.70922.91911,1.259,1.29612,1.7293a8.39172,8.39172,0,0,1,.91906,1.31884l-.807-.53147a15.97882,15.97882,0,0,1,2.74909.13606l-.74242.74243.25412-3.44269.48831.48829C28.70071,41.76283,27.35051,41.5377,25.807,41.43442Z"/><path class="cls-4" d="M18.77771,128.09669l20.60136-.34765,20.60136-.26108c6.86713-.094,13.73425-.28751,20.60138-.17448,6.86713.15748,13.73426.28216,20.60139.778v.17319c-6.86713.49672-13.73424.62227-20.60136.78062-6.86711.11389-13.73424-.07873-20.60136-.17187l-20.60138-.25849-20.60138-.34506Z"/></svg>