<?xml version="1.0" encoding="UTF-8"?>
<svg xmlns="http://www.w3.org/2000/svg" width="299.1" height="193.77" viewBox="0 0 299.1 193.77">
  <defs>
    <style>
      .cls-1, .cls-2 {
        fill: none;
      }

      .cls-3 {
        fill: #00a5af;
      }

      .cls-4 {
        isolation: isolate;
      }

      .cls-5 {
        mix-blend-mode: multiply;
      }

      .cls-6 {
        fill: #7c9ac0;
      }

      .cls-7, .cls-2 {
        opacity: .5;
      }

      .cls-8 {
        fill: #dde5ef;
      }
    </style>
  </defs>
  <g class="cls-4">
    <g id="Layer_1">
      <g>
        <path class="cls-8" d="M37.71,123c-2.85,7.78-4.29,3.69-10.14,18.72-5.84,15.03-5.91,42.16-4.85,45.42.7,2.16,1.81-14.41,3.25-18.54s.21-14.97,4.67-8.23,4.14-4.25,11.52-1.16c7.38,3.09,4.66-3.97,12.39-1.28s30.96-6.06,17.3-8.18c-13.66-2.12-35.59,1.2-33.64-5.63s3.13-11.28,1.09-14.11-1.6-7.01-1.6-7.01Z"/>
        <path class="cls-8" d="M26.76,71.01c-5.11,3.45-7.43,11.27-7.19,19.47s-6.01,17.92-6.26,26.41-4.57,25.79-1.2,31.94,31.98,4.5,41.49,3.4-25.83-1.87-33.06-4.61-10.6-3.54-4.82-9.64,17.38-14.32,10.25-15.26c-7.13-.94-9.53-1.8-7.37-3.41s12.11-9.7,4.25-10.3,10.16-13.33,5.84-14.11-3.82-10.02,1.94-13.94,1.72-13.73-3.89-9.94Z"/>
        <path class="cls-8" d="M44.51,110.07v25.95s6.09,2.23,13.62,4.11c7.53,1.89-8.48-9.58-5.54-15.92s-8.08-14.15-8.08-14.15Z"/>
        <path class="cls-8" d="M101.86,159.41c-.22,5.87.32,25.67,2.65,27.73s2.84-9,3.95-12.39,2.82-7.43,7.71-8.91c.72-.22-10.19,1.12-14.31-6.43Z"/>
        <path class="cls-8" d="M121.33,132.09c-.65,1.44.01,10.51,1.78,12.02s12.66.05,9.63-.37-7.03-1.55-5.69-3.29-4.66,0-3.14-3.09-2.17-6.21-2.59-5.28Z"/>
        <path class="cls-8" d="M201.74,146.41c-2.76,4.33,4.53,36.68,6.67,40.98s2.19-5.35.67-16.74c-1.52-11.39-2.02-23.12,1.22-30.2,3.25-7.08-8.57,5.96-8.57,5.96Z"/>
        <path class="cls-8" d="M230.86,90.24c-3.25-.5,2.17,13.1,3.32,23.12s5.46,35.6,6.41,26.4.35-23.27-4.37-31.73c-4.72-8.46-2.15-17.29-5.36-17.79Z"/>
      </g>
      <path class="cls-1" d="M128.53,40.74c-2.31-2.41-3.96-8.46-3.96-8.46,0,0-1.54-3.3-.44-6.38l1.1-3.08s-1.76-1.43,0-4.62,5.17-8.03,7.59-7.7c0,0-.99-2.64,3.96-3.85s13.42-3.85,17.71,2.09c0,0,3.3-.47,6.27,3.39,2.97,3.87,5.72,9.03,5.17,13.1s-.33,9.46-2.97,9.24c0,0-2.2-.44-2.42-1.87s-.44-5.61-2.13-10.23-1.94-7.48-1.94-7.48c0,0-6.16-1.32-11.22-2.53s-5.83,2.42-7.19,6.6-4.36,4.07-6.45,4.62c-2.09.55-1.9,3.41-1.9,3.41,0,0-.3,4.07-.96,5.61s-.44,3.08-.33,5.39l.11,2.74Z"/>
      <g>
        <path class="cls-1" d="M184.19,154.57c0-2.19-21.11-35.59-19.63-46.79,1.48-11.21,2.96-17.86,4.07-18.79s4.81-5.06,6.1-5.4c1.29-.34,26.07-13.5,28.11-13.95.74-.16,35.33,87.48,37.48,80.06,12.1-41.84,8.25-74.87,8.25-74.87,0,0,16.34,5.53,19.17,7.25s7.37,8.23,8.48,10.93,0,6.51,0,6.51c0,0,2.95,3.93,2.58,5.41s3.44,2.33,5.41,12.29,4.91,26.04,6.63,34.15,3.32,15.48,2.21,19.17c-1.11,3.69-9.98,18.31-9.98,18.31-10.63,0-13.82-33.82-15.98-18.75s-3.04,18.62-6.61,18.75-9.84-20.69-24.97-14.1c-15.13,6.6,0,0,0,0,0,0-.81,12.89-4.56,13.69s3.83-8.77-7.46-7.12c-11.28,1.66-19.6-14.82-19.91-6.87s1.98,16.97-4.51,11.52-9.53-2.1-9.53-2.1"/>
        <path class="cls-1" d="M238.49,63.9l.98,5.72s3.32,8.04,3.93,10.25.86,6.02,1.47,19.53c.17,3.75.04,8.36-.26,13.22,0,0-4.1-10.04-5.55-15.33-1.45-5.29-2.26-9.4-3.57-10.05-1.32-.65-2.5-2.63-2.5-2.63,0,0-.68-4.89-2.06-6.08s-2.96-2.38-2.96-2.38c0,0,3.83-3.44,5.55-4.36s4.27-4.87,4.76-5.55.21-2.34.21-2.34Z"/>
        <polygon class="cls-1" points="220.64 85.63 226.86 98.36 226.58 91.99 222.66 80.95 220.64 85.63"/>
        <path class="cls-1" d="M217.92,81.47c-1.21-1.72-2.78-2.74-2.78-2.74l-6.73-12.48,2.64-6.74c-.26,2.77,2.25,6.08,5.15,7.8,2.91,1.72,12.42,7.8,11.1,8.59-1.01.61-4.4,7.69-5.94,11l-3.44-5.42Z"/>
        <path class="cls-1" d="M211.06,59.51c-.26,2.77,2.25,6.08,5.15,7.8,2.91,1.72,12.42,7.8,11.1,8.59l.66.26s3.83-3.44,5.55-4.36,4.27-4.87,4.76-5.55.21-5.81.21-5.81c0,0,4.5-2.33,5.28-9.78s1.93-10.78,1.19-13-1.08-3.33-1.3-6.11-2.78-9.33-9-12.67-12.8-.44-14.06,1.33c-1.27,1.78-1.16,4-2.16,4.89-1,.89-2.44,1.33-2,3.78s-4.33,9.56-4.33,9.56c0,0-.93-2.78-1.8-2.89s-2.65.78-2.65,6,1.41,7.44,2.65,7.44,1.24,0,1.24,0c.23,3.14.48,6.27-.49,10.51Z"/>
        <g>
          <path class="cls-1" d="M225.35,36.41c-1.04-.48-2.23.6-1.53,1.41.71.82,3.54-.49,1.53-1.41Z"/>
          <path class="cls-1" d="M238.82,38.08c-2.62.35-1.66,2.3,0,2.11,1.66-.19,1.09-2.25,0-2.11Z"/>
        </g>
        <path class="cls-1" d="M241.68,147.12c6.88-19.12,13.64-56.49,13.64-56.49l-6.27-2.52,6.76-1.84c-4.3-8.6-10.81-12.9-11.43-13.76-.61-.86-5.9-8.6-5.9-8.6l.98,5.72s3.32,8.04,3.93,10.25.86,6.02,1.47,19.53-2.7,38.21-3.56,44.96c-.19,1.68-.49,3.43-1,5.34l1.37-2.59Z"/>
        <path class="cls-1" d="M239.2,156.23s-9.25-24.31-14.93-37.66c-5.68-13.34-19.32-27.94-19.32-27.94l5.35-3.38s-7.18.41-8.1-.98-1.97-15.5-1.06-17.37,6.21-7.4,6.21-7.4c0,0-.58,2.12,2.95,8.72,3.53,6.6,4.06,8.23,6.17,9.66,2.11,1.43,11.76,16.63,16.78,38.69,5.02,22.07,6.71,32.38,6.71,32.38"/>
        <g class="cls-5">
          <path class="cls-6" d="M248.58,74.78c6.48,2.27,13.08,4.19,19.29,7.14,3.51,2.57,5.97,6.27,8.14,9.97,1.36,2.32,1.16,5.22.53,7.74,0,0-.06-.31-.06-.31.87,1.19,1.69,2.41,2.3,3.77.25.55.51,1.3.38,1.97,0,.06-.02.12.01.19.2.58.77,1.07,1.16,1.61,3.13,3.84,4.09,8.94,4.98,13.6,0,0,4.55,22.64,4.55,22.64.78,3.77,1.43,7.56,2.25,11.33.88,4.72,2.04,9.56,1.72,14.45-.52,2.85-1.27,5.62-1.56,8.53-.51,3.81-.96,7.63-1.38,11.46h-.12c.31-5.79.62-11.57,1.57-17.3.48-1.85.69-3.67.5-5.58-.78-7.59-2.96-15.07-4.21-22.62,0,0-4.26-22.71-4.26-22.71-.7-3.75-1.32-7.55-3.13-10.93-.71-1.6-2.19-2.8-2.82-4.29-.08-.24,0-.54.02-.79-.26-1.78-1.52-3.4-2.51-4.88,0,0-.1-.14-.1-.14.44-1.64.69-3.42.44-5.11-.24-1.65-1.22-3.1-2.07-4.51-1.84-2.79-3.83-5.73-6.55-7.69-5.99-3.1-13.09-4.93-19.06-7.51h0Z"/>
          <path class="cls-6" d="M174.71,83.53c4.03-2,9.76-5.3,13.8-7.44,4.59-2.52,9.21-5.15,14.31-6.51-4.17,2.79-9.18,5.19-13.85,7.4,0,0-7.07,3.41-7.07,3.41-2.38,1.1-4.71,2.27-7.16,3.26,0,0-.03-.12-.03-.12h0Z"/>
          <path class="cls-6" d="M206,188.14s-4.45-8.8-4.45-8.8l-2.23-4.39c-.75-1.31-1.9-3.07-3.5-3.15-.25-2.93-.58-5.89-1.33-8.71-.29-.98-.57-2-1.21-2.78-1.38-1.18-3.12-2.01-4.76-2.73,0,0,0-.28,0-.28.04-1.89.86-3.43,1.93-4.88.11-.13.3-.4.39-.54.5-.67.26-1.28-.27-2.02-.52-.73-1.25-1.48-1.59-2.57-.37-1.02-.06-2.14.27-3.12.75-2.7,1.24-5.5,1.61-8.28.27-2.53.6-5.1.05-7.58-.56-1.66-.26-3.52.4-5.1.28-1.34-.34-2.66-.66-3.97-.53-1.82-1.13-3.62-1.73-5.43,0,0,.12-.05.12-.05.79,1.73,1.51,3.5,2.19,5.28.44,1.37,1.18,2.82.92,4.33-.37,1.38-.8,2.56-.39,3.99.86,2.8.68,5.82.36,8.67-.37,3.32-1.07,6.59-2.09,9.78-.38,1.95,1.74,3.03,2.11,4.92.17.88-.35,1.68-.89,2.31-.94,1.16-1.76,2.74-1.81,4.2,0,0-.28-.4-.28-.4,1.36.61,2.62,1.33,3.84,2.17.62.36,1.26,1.06,1.53,1.77,1.38,3.41,1.6,7.11,1.89,10.73,0,0-.3-.28-.3-.28,1.89.38,2.8,2.01,3.64,3.5,0,0,2.13,4.45,2.13,4.45l4.23,8.9-.11.06h0Z"/>
          <path class="cls-6" d="M190.42,153.39c-1.81.22-3.7.35-5.38,1.05-.18.09-.4.26-.35.28-.02.02.01-.07.02-.03.16.19.44.35.71.49,1.39.7,2.83,1.38,4.14,2.3,0,0-.04.12-.04.12-1.98-.06-4.04-.53-5.47-1.99-.28-.28-.56-.91-.27-1.31.79-1.07,2.25-.92,3.39-1.08,1.09-.04,2.17-.03,3.24.06,0,0,0,.12,0,.12h0Z"/>
          <path class="cls-6" d="M196.17,171.52c.79,2.71-.71,7.28-4.24,6.08,0,0,0-.12,0-.12,1.19-.72,2.11-1.22,3.02-2.19.77-1.02,1-2.48,1.09-3.75,0,0,.12,0,.12,0h0Z"/>
          <path class="cls-6" d="M169.43,148.49c6.03-1.17,14.46-4.4,19.09,1.34,0,0-.08.09-.08.09-4.31-2.54-9.26-2.53-14.08-1.92-1.64.17-3.28.39-4.91.61,0,0-.02-.12-.02-.12h0Z"/>
          <path class="cls-6" d="M177.46,86.21c4.7,2.93,11.54,13.5,11.58,19.1,0,0-.13,0-.13,0-1.43-3.43-3.29-6.69-4.87-10.07-1.81-3.22-3.67-6.63-6.65-8.92,0,0,.07-.11.07-.11h0Z"/>
          <path class="cls-6" d="M182.52,96.68c2.83,5.28,4.89,11.28,4.64,17.35-.14,4.04,2.89,7.33,3.61,11.28,1.27,5.82-.7,12.33,3.3,17.3,0,0-.09.09-.09.09-.74-.69-1.4-1.48-1.93-2.37-2.06-3.61-1.84-7.9-2.16-11.88-.1-3.01-.97-5.7-2.2-8.47-.78-1.83-1.53-3.88-1.35-6,.18-1.97.03-3.94-.29-5.9-.63-3.92-1.87-7.76-3.66-11.34l.11-.06h0Z"/>
          <path class="cls-6" d="M187.36,134.75c.93,4.05,2.14,8.36,2.12,12.4-1.6-1.63-1.57-4-1.73-6.09-.17-2.09-.36-4.19-.51-6.29l.12-.02h0Z"/>
          <path class="cls-6" d="M190.84,140.44c.97,2.92,2.44,5.61,4.09,8.19,1.68,2.57,3.73,5.08,4.18,8.26,0,0-.12.04-.12.04-1.69-2.59-3.59-4.97-4.93-7.78-1.48-2.72-2.72-5.62-3.35-8.66,0,0,.12-.03.12-.03h0Z"/>
          <path class="cls-6" d="M204.89,183.88c-1.26-9.94-3.48-19.74-5.49-29.56-2.04-9.83-4.32-19.54-7.38-29.12-1.44-4.81-2.58-9.78-2.98-14.83-.49-5.01.02-10.07-.05-15.07-.07-3.68-.12-7.48-1.29-10.97-.26-.67-.53-1.29-1.07-1.7-.96-.49-.96.6-.81,1.47.17,1.81,1.41,3.92.75,5.71-1.12,1.33-2.67-.57-3.37-1.43-.77-1.01-1.43-2.08-2.02-3.2,0,0,.11-.06.11-.06,1,1.54,2.04,3.17,3.51,4.27,3.13,1.92-.18-4.95.11-6.16,0-.35.02-.76.32-1.16.31-.4.8-.48,1.26-.46,3.52,1.05,3.52,10.51,3.73,13.66.14,5.07-.39,10.05.04,15,.31,4.96,1.35,9.84,2.71,14.65,2.93,9.58,5.12,19.43,7.03,29.27,1.44,7.38,2.82,14.78,4.01,22.21.39,2.48.79,4.95.99,7.46h-.12Z"/>
          <path class="cls-6" d="M193.14,79.83c1.96,1.65,5,4.66,3.52,7.42,0,0-.12-.01-.12-.01-.55-1.37-.92-2.42-1.38-3.77-.54-1.23-1.26-2.44-2.11-3.54l.08-.09h0Z"/>
          <g class="cls-7">
            <path class="cls-6" d="M210.36,158.97c1.59,4.68,2.37,9.58,3.28,14.43.79,4.47,1.92,10.4,1.44,14.72-1.27-4.79-1.91-9.66-2.43-14.57-.54-4.83-1.46-10.01-2.29-14.58h0Z"/>
          </g>
          <path class="cls-6" d="M235.72,187.62c-.11-8.73-1-17.53.13-26.24.69-3.71,2.87-6.96,3.79-10.58.7-2.37,1.1-4.82,1.38-7.29,1.75-14.82,3.61-29.76,3.18-44.69-.4-6.19-.17-12.48-1.19-18.58-1-3.57-2.51-7.07-3.77-10.57,0,0-.82-5.75-.82-5.75l.12-.02s1.15,5.69,1.15,5.69c1.78,4.37,4.49,9.2,4.82,14.19.46,5,.73,9.98.97,14.98.48,15.04-1.82,29.97-3.68,44.85-.31,2.48-.75,4.98-1.5,7.39-1.49,4.88-4.37,8.87-4.37,14.17-.67,7.39.12,15.28-.22,22.45h0Z"/>
          <path class="cls-6" d="M241.63,147.09c6.26-18.35,9.72-37.53,13.35-56.53,0,0,.22.39.22.39l-6.28-2.5-1.05-.42,1.09-.3,6.75-1.87-.26.58c-2.11-4.19-5.08-7.91-8.55-11.07-1.01-1.02-2.47-1.87-3.27-3.13,0,0-.51-.73-.51-.73-.73-1.07-4.28-6.17-5.07-7.32,0,0,.95-.39.95-.39l1.01,5.71c1.08,2.53,2.62,6.3,3.71,9.36,1.09,3.34.99,6.77,1.27,10.2,0,0,.5,10.14.5,10.14.36,10.19-.85,20.34-2.07,30.43-1,6.7-1.46,13.48-3.03,20.08,0,0-.16-.06-.16-.06l1.39-2.57h0ZM241.74,147.14l-1.35,2.6-.37.71s.21-.77.21-.77c1.48-6.57,1.78-13.4,2.55-20.1.88-10.07,1.78-20.2,1.47-30.3,0,0-.49-10.13-.49-10.13-.26-3.28-.2-6.77-1.18-9.89-1.09-3.2-2.42-6.38-3.65-9.55-.25-1.52-1.1-6.62-1.35-8.09.83,1.25,4.43,6.5,5.34,7.86.57.8,1.4,2.13,1.98,2.86,4.67,3.91,8.9,8.61,11.51,14.18,0,0-.48.13-.48.13l-6.76,1.82.04-.72,6.26,2.55s.27.11.27.11c-3.74,19.12-7.78,38.25-13.98,56.74h0Z"/>
          <path class="cls-6" d="M238.55,63.89l1.04,5.71c1.98,4.92,4.7,10.12,4.81,15.64.75,9.8,1.33,19.66.58,29.48,0,0-.79-1.93-.79-1.93-1.94-4.78-3.87-9.53-5.43-14.45-.96-3.08-1.56-6.2-2.68-9.16-.22-.53-.52-1.13-.8-1.32-1.22-.67-2.16-1.85-2.88-3.04-.45-2.38-.58-5.25-2.75-6.66,0,0-1.97-1.62-1.97-1.62,0,0-.47-.39-.47-.39,0,0,.44-.38.44-.38,2.05-1.9,4.47-3.46,6.72-5.05.99-.93,1.87-2.03,2.72-3.13.4-.55.88-1.14,1.21-1.67.23-.61.21-1.34.14-2.02l.12-.02h0ZM238.55,63.89c.12.7.22,1.41,0,2.14-.35.68-.75,1.21-1.14,1.81-1,1.45-2.01,2.99-3.46,4.08-.93.57-1.69,1.15-2.52,1.84-1.07.89-2.11,1.82-3.14,2.75l-.03-.77,2.05,1.6c1.66.98,2.33,2.84,2.76,4.58.22.86.4,1.7.54,2.58l-.08-.24c.66,1.02,1.38,1.93,2.48,2.53,1.16.97,1.45,2.42,1.91,3.75,1.84,7.5,4.22,14.74,7.14,21.88,0,0-.91.15-.91.15.61-7.29.37-14.55,0-21.85-.22-3.6-.17-7.33-.96-10.84-1.09-3.46-2.5-6.86-3.83-10.26,0,0-.93-5.73-.93-5.73,0,0,.12-.02.12-.02h0Z"/>
          <path class="cls-6" d="M240.23,157.58c-1.56.07-2.47,3.79-.43,3.73.8,0,1.01-.68,1.15-1.5.1-.72.34-2.12-.73-2.24h0ZM240.22,157.46c1.17-.05,1.99,1.36,1.98,2.44.1,1.29-1.11,2.7-2.47,2.42-2.96-.38-1.85-4.43.49-4.86h0Z"/>
          <path class="cls-6" d="M209.8,62.4c-.32,1.26-.63,2.6-1.02,3.97l-.25.87c-.47-.85-.97-1.75-1.34-2.64-.38-1.06-1.07-2.13-.4-3.36,1-1.35,2.65.08,3.01,1.17h0ZM209.67,62.43c-.55-.26-1.2-.65-1.64-.66-.22,0-.19.07-.21.14,0,.03-.04.28,0,.56.06,1.18.49,2.49.93,3.62,0,0-.7.04-.7.04.49-1.19,1.06-2.4,1.62-3.7h0Z"/>
          <path class="cls-6" d="M239.14,156.25c-4.5-11.59-9.05-23.17-13.85-34.64-2.3-5.78-5.38-11.17-8.97-16.24-3.56-5.08-7.47-9.92-11.65-14.48l-.31-.34.39-.25,5.34-3.4.24.76c-2.26.09-4.51.16-6.75-.27-.81-.14-1.84-.57-2-1.52-.98-4.42-1.17-8.87-1.27-13.37.05-1.5-.13-3.31.83-4.57,2.12-2.97,4.62-5.48,7.04-8.13,0,0-.3,1.84-.3,1.84-.06.86.2,1.82.45,2.66,1.63,4.6,4.27,9.06,6.69,13.27.56.84,1.21,1.37,2.01,1.98.89.8,1.42,1.61,2.03,2.45,8.97,13.55,13.48,29.42,16.54,45.22,1.5,7.81,3.47,16.05,4.3,23.74-1.52-7.89-3.32-15.73-5.1-23.57-3.38-15.54-7.96-31.29-16.76-44.69-.87-1.36-1.81-2.25-3-3.19-1.82-1.88-2.77-4.4-3.99-6.59-1.72-3.59-4.39-7.43-4.23-11.58,0,0,.92.52.92.52-2.14,2.4-4.72,4.68-6.22,7.47-.45,2.46-.21,5.07-.13,7.57.24,3.01.3,6.24,1.16,9.11.87.7,2.22.67,3.33.8,1.94.13,4,.05,5.95-.05,0,0-1.32.83-1.32.83l-5.37,3.36.08-.59c4.18,4.64,8.07,9.51,11.62,14.65,3.57,5.11,6.63,10.61,8.88,16.42,4.55,11.49,9.47,23.36,13.41,34.82h0Z"/>
          <g class="cls-7">
            <path class="cls-6" d="M217.87,81.5c-.75-1.07-1.72-1.99-2.78-2.75-1.99-3.59-4.91-8.73-6.96-12.35,0,0-.07-.13-.07-.13,0,0,.06-.15.06-.15.68-1.79,2.89-7.63,3.54-9.33,0,0-.2,2.75-.2,2.75-.11,2.9,2.22,5.46,4.52,7.01,2.61,1.53,5.25,3.15,7.78,4.91,1.45,1.16,3.43,2.13,4.28,3.96.1.34-.06.81-.39,1-2.48,3.35-4.24,7.29-6.27,10.97-1.12-1.99-2.31-3.95-3.5-5.9h0ZM217.97,81.43c1.17,1.79,2.36,3.58,3.6,5.33l-.42.03c1.51-3.53,2.91-7.14,4.95-10.44.24-.36.51-.73.88-1-.03.01-.06.03-.08.06-.06.06-.12.24-.1.31-.92-1.23-2.44-2.22-3.77-3.23-4.48-3.73-12.4-6.07-12.37-13.02,0,0,.78.18.78.18l-2.72,6.71-.02-.27,3.24,6.31c1.05,2.06,2.23,4.32,3.24,6.27,1.08.75,2.03,1.69,2.79,2.76h0Z"/>
          </g>
          <g class="cls-7">
            <path class="cls-6" d="M236.4,88.45c1.98-5.48,2.75-11.22,3.78-16.93,0,0,.12-.02.12-.02.92,2.91.21,5.97-.65,8.78-.83,2.82-1.81,5.6-3.13,8.22l-.11-.05h0Z"/>
          </g>
          <path class="cls-6" d="M227.99,76.1c9.45,2.36,3.8,5.66,8.5,11.09,0,0-.07.11-.07.11-1.26-.44-2.31-1.44-2.92-2.71-.65-1.21-.37-2.62-.43-3.9-.15-2.64-3.12-3.44-5.13-4.47,0,0,.04-.12.04-.12h0Z"/>
          <g class="cls-7">
            <path class="cls-6" d="M256.69,84.44c2.52,3.46,4.42,7.34,6.14,11.25,1.77,3.91,3.27,7.98,3.65,12.29,0,0-.12.03-.12.03-1.67-3.94-3.09-7.9-4.45-11.94-1.5-3.97-3.11-7.92-5.32-11.56,0,0,.1-.07.1-.07h0Z"/>
          </g>
          <g class="cls-7">
            <path class="cls-6" d="M234.35,91.03c-.92-1.42-2.87-3.22-3.97-3.46-1.36.64-2.44,1.94-2.88,3.38-.17.48-.23.99-.3,1.49v-.21c.53,2.39.61,4.86.19,7.27,0,0-.13,0-.13,0-.51-2.28-.94-4.72-1.29-7.02.25-2.42,1.93-4.74,4.25-5.58,2.05.45,3.19,2.45,4.23,4.08,0,0-.11.07-.11.07h0Z"/>
          </g>
          <g class="cls-7">
            <path class="cls-6" d="M236.43,88.52c-2.07-1.26-5.51-2.97-7.2-3.44-1.85.85-3.02,2.82-3.19,4.82,0,0-.24,1.67-.24,1.67l-.91-1.43c-1.52-2.51-2.74-6.09-.94-8.74,0,0,.11.06.11.06-.8,2.8.66,5.59,1.89,8.02,0,0-1.15.24-1.15.24.41-2.33,1.9-4.52,4.17-5.38,0,0,.1-.04.1-.04,0,0,.08.02.08.02,1.47.33,2.62,1.07,3.87,1.8,1.19.73,2.34,1.49,3.48,2.29,0,0-.07.1-.07.1h0Z"/>
          </g>
          <g class="cls-7">
            <path class="cls-6" d="M264.76,84.46c1.06,3.08,2.27,6.09,3.3,9.2,1.14,3.09,1.81,6.39,1.46,9.7,0,0-.12.01-.12.01-1-3.14-1.57-6.25-2.29-9.43-.81-3.14-1.75-6.28-2.46-9.45,0,0,.12-.03.12-.03h0Z"/>
          </g>
          <g class="cls-7">
            <path class="cls-6" d="M268.99,84.46c.62,1.77,1.63,3.17,3.07,4.38.34.34.65.82.75,1.34.4,5.02,1.04,10.1.28,15.12,0,0-.12,0-.12,0-.41-1.81-.61-3.63-.76-5.45-.19-2.63-.02-5.57-.08-8.22,0-.89.11-1.69-.54-2.38-1.28-1.27-2.29-2.98-2.72-4.76,0,0,.12-.04.12-.04h0Z"/>
          </g>
          <g class="cls-7">
            <path class="cls-6" d="M274.94,102.06c-.37,7.15-.43,14.32-.49,21.48-.11,3.86.17,12.48-.58,16.15-1.42,8.86-3.45,17.63-5.58,26.31-1.7,6.91-2.27,14.12-3.52,21.14,0,0-.12-.01-.12-.01.54-7.16.92-14.38,2.42-21.41,2.21-10.46,5.66-20.79,6.49-31.45.38-10.31.27-22.24,1.38-32.22h0Z"/>
          </g>
          <g class="cls-7">
            <path class="cls-6" d="M267.14,170.1c.38,4.21,1.13,8.89,1.48,13.09.04,1.46.04,2.93-.16,4.42h-.12c-.96-2.83-1.18-5.75-1.2-8.71-.09-2.59-.18-6.25-.12-8.8,0,0,.12,0,.12,0h0Z"/>
          </g>
          <g class="cls-7">
            <path class="cls-6" d="M269.83,158.94c4.55,3.24,9.61,5.71,14.48,8.4,1.41.77,3.36,2.13,4.83,2.69,0,0,0,.12,0,.12-1,.04-1.92-.3-2.81-.61-2.68-.93-5.09-2.43-7.45-3.98-3.15-2.03-6.31-4.07-9.14-6.54,0,0,.08-.09.08-.09h0Z"/>
          </g>
          <g class="cls-7">
            <path class="cls-6" d="M273.77,158.25c-1.07-.96-2.02-2.14-2.7-3.38-.15-.46-.25-.94-.15-1.52l.11-.06c.99.51,1.42,1.31,1.7,2.29.36.87.68,1.76,1.13,2.58,0,0-.09.09-.09.09h0Z"/>
          </g>
          <g class="cls-7">
            <path class="cls-6" d="M272.36,147.07c2.45-2.18,6.07-2.75,9.25-2.69,1.09.12,2.17.33,3.19.82l-.02.12c-3.17.64-6.32-.12-9.44.66-1.02.23-2.01.59-2.89,1.18,0,0-.08-.1-.08-.1h0Z"/>
          </g>
          <g class="cls-7">
            <path class="cls-6" d="M274.13,120.27c.88-5.62.83-11.31,2-16.89,0,0,.12-.02.12-.02.77,2.85.36,5.74-.19,8.57-.48,2.82-1.09,5.6-1.81,8.36l-.12-.02h0Z"/>
          </g>
          <path class="cls-6" d="M266.48,98.34c.79,2.97,1.02,6.04,1.38,9.08.58,6.12,1.14,12.19,1.01,18.36-.88,9.14-1.18,18.29-1.69,27.45-.31,6.09-.76,12.2-.52,18.3,0,0-.12.02-.12.02-1.8-15.21.1-30.64,1.52-45.81.25-9.04-.4-18.62-1.58-27.39h0Z"/>
          <path class="cls-6" d="M268.49,116.91c-4.43-2.07-9.21-3.68-14.1-3.96,0,0,.33-.3.33-.3-.52,7.92-1.07,19.05-1.67,26.84,0,0-.53-.67-.53-.67,1.31.22,2.57.55,3.84.89,3.76,1.05,7.61,2.35,10.68,4.84,0,0-.07.1-.07.1-4.63-2.69-10.01-3.75-15.21-4.67.27-4.67.76-9.32,1.16-13.98,0,0,1.17-13.4,1.17-13.4,0,0,.03-.31.03-.31,3.85.27,7.55,1.44,11.08,2.92,1.14.48,2.26,1.02,3.36,1.59l-.06.11h0Z"/>
          <g>
            <path class="cls-6" d="M262.79,117.65c-.37-2.2-1.12-4.43-.53-6.67.12-.32.55-.64.95-.55.44.09.66.39.79.6.53.91.68,1.76.88,2.68l-1.16.12c-.08-.63.06-1.52.81-1.83,3.18-.64,1.67,4.19.89,5.65,0,0-.12-.03-.12-.03,0-1.22.09-2.43.01-3.53-.03-.32-.07-.68-.21-.88,0-.03,0,.03.03.02.05,0-.02-.01-.05-.02-.07-.02-.09,0-.07-.02.02-.01.03-.05,0,0-.05.07-.12.34-.12.53l-1.16.12c-.06-.8-.19-1.71-.5-2.33-.07-.17-.17-.22-.16-.23.02-.02-.02,0-.02,0,.01-.02-.03.02-.06.07-.59,1.95-.2,4.22-.07,6.28,0,0-.12.02-.12.02h0Z"/>
            <path class="cls-6" d="M264.76,112.64c-.13,1.42.18,2.87.07,4.27-.11.47-.27.93-.63,1.39h-.12c-.62-.95-.57-1.9-.27-2.9.21-.95.39-1.92.84-2.81,0,0,.12.04.12.04h0Z"/>
          </g>
          <path class="cls-6" d="M257.23,118.32c-.36,3.08,0,6.26.39,9.34.15.91.27,2.12.7,2.88-.11.02.25.04.48.04,3.82-.25,7.82-.72,11.51-1.59.14-.04.24-.08.34-.13-.05.01-.06.08-.11.07.01-.15.03-.42.02-.67-.12-3.32-.65-7.1-1.2-10.16-1.48-.19-4.15-.3-6.01-.31-2,.07-4.23-.17-6.12.53h0ZM257.11,118.29c.23-.28.5-.26.75-.35,1.8-.38,3.63-.59,5.45-.81,2.18-.19,4.24-.54,6.45-.17.1.04.18.03.4.2.19.17.29.41.36.62.85,3.73,1.22,7.58,1.01,11.4-.07.48-.55.69-.96.78-3.67.77-7.28,1.04-10.99,1.26-.42-.02-1.07.08-1.48-.06-.63-.33-.64-1.35-.77-1.86-.41-3.64-.54-7.34-.23-11h0Z"/>
          <path class="cls-6" d="M210.35,35.51c1.04.46,1.4,1.92,1.83,2.9,0,0-.16-.02-.16-.02,1.4-2.18,2.73-4.44,3.7-6.83.62-1.39.57-2.32.46-3.77-.04-1.47,1.51-2.21,2.32-3.08.34-.48.5-1.12.68-1.74.4-1.99,1.55-3.84,3.53-4.6,3.59-1.71,7.99-1.79,11.59-.03,5.32,2.61,9.38,8.13,9.87,14.08.15,1.99.79,3.71,1.37,5.63.27,1.42.05,2.75-.1,4.04,0,0-.95-.23-.95-.23,1.4-5.34,1-11.43-1.32-16.47-5.38-10.9-19.23-13.48-28.24-5.31-1.45,1.47-2.9,3.16-3.94,4.96-.32.58-.63,1.31-.48,1.79.02.02.2.42.18.56.18,2.66-.09,5.48-.33,8.1h0ZM210.26,35.59c.06-1.53.05-5.03.01-6.51-.06-.71.03-1.35-.31-2.01-.28-.86.11-1.59.44-2.31,1.05-1.96,2.39-3.65,3.91-5.3,6.68-6.42,17.06-7.32,24.43-1.48,7.29,5.49,8.99,15.78,6.69,24.21,0,0-.95-.23-.95-.23.17-1.27.37-2.56.16-3.72-.53-1.74-1.2-3.81-1.32-5.73-.52-6.85-6.02-13.55-12.91-14.7-3.27-.46-8.51.19-10.15,3.47-.59,1.18-.65,2.53-1.41,3.67-.47.57-1.06.85-1.52,1.28-.74.61-.91,1.6-.74,2.51.14,1-.23,2.01-.59,2.92-1.04,2.47-2.45,4.75-3.92,6.97-.42-1.02-.75-2.54-1.82-3.05h0Z"/>
          <path class="cls-6" d="M211.12,59.52c-.12,4.23,3.75,7.07,7.09,8.92,2.56,1.6,5.12,3.23,7.5,5.1.68.59,1.49,1.12,1.87,1.97.06.15,0,.41-.18.52l-.02-.3.66.26s-.18.03-.18.03c1.26-1.13,2.54-2.24,3.88-3.29,1.36-1.01,2.81-1.78,3.8-3.21.84-1.01,1.65-2.22,2.4-3.32.21-.25.17-.43.24-.75.16-1.69.06-3.47-.02-5.21,0,0,.19-.12.19-.12,4.55-2.85,5-8.63,5.51-13.5,0,0,.73-5.11.73-5.11.27-1.74.24-3.25-.45-4.88-.57-1.65-.84-3.45-.98-5.16-.47-3.25-2.25-6.37-4.47-8.78-2.28-2.42-5.28-4.26-8.55-4.64-3.06-.33-6.8.28-9.03,2.5-1.26,1.65-.97,4.54-3.12,5.68-.8.54-1.13,1.29-.99,2.22.03.16.06.52.07.69-.37,3.66-2.69,6.56-4.53,9.59,0,0-.6.89-.6.89-.42-1.17-.79-2.65-1.63-3.55-3.19-.19-2.68,10.55-.95,12.17.53.71,1.24.52,2.03.7,0,0,.32.04.32.04.27,3.51.27,7.1-.59,10.53h0ZM210.99,59.5c.79-3.45.73-6.98.39-10.49,0,0,.32.04.32.04-.85.16-2.08.32-2.66-.52-1.99-2.85-1.89-6.77-1.51-10.09.17-1.46,1.45-4.11,3.34-3.15.94.78,1.31,1.94,1.73,2.99,0,0-.94-.13-.94-.13,1.62-2.79,3.94-5.93,4.15-9.18-.15-.88-.13-1.82.37-2.63.59-.93,1.56-1.36,1.94-1.81.37-.46.57-1.34.82-2.17.59-2.97,3.27-4.52,5.99-5.16,9.05-2.52,17.91,5.47,19.19,14.2.12,2.15.57,4.2,1.28,6.21.39,1.32.2,2.73.04,4.04,0,0-.78,5.11-.78,5.11-.52,3.4-.56,7.05-2.4,10.11-.88,1.54-2.03,2.93-3.62,3.88l.18-.32c.06,1.7.14,3.38-.04,5.12-.01.3-.15.79-.36,1.02-.78,1.09-1.61,2.29-2.49,3.31-1.01,1.4-2.57,2.25-3.95,3.22-1.37,1.03-2.7,2.14-4,3.27,0,0-.1-.04-.1-.04,0,0-.66-.27-.66-.27l-.49-.2.47-.1c.17-.23-.39-.76-.59-.98-2.56-2.4-5.58-4.27-8.5-6.2-3.32-1.89-7.3-4.81-7.14-9.07h0Z"/>
          <path class="cls-2" d="M210.3,43.78c.46-1.44.54-3.89,0-3.11s.62,2.22-.57,2.56c-1.19.33-1.62,1.78-.52,1.44s.83,1.11,1.47.67-.38-1.56-.38-1.56Z"/>
          <g class="cls-7">
            <path class="cls-1" d="M219.43,35.44c2.92-3.44,8.85-2.16,9.72-1.48s.28,1.48.28,1.48c0,0-4.76-1.37-10,0Z"/>
          </g>
          <g class="cls-7">
            <path class="cls-1" d="M235.49,34.83c-1.77.24-1.55,1.74-.41,1.41,1.14-.33,6.26.54,7.18,1.2s.87-1.14-1.58-1.96-3.59-.87-5.19-.65Z"/>
          </g>
          <g>
            <path class="cls-2" d="M226.87,37.58c-2.44,1.52-4.48,1.3-6.28,0"/>
            <path class="cls-2" d="M240.96,40.52c-3.21.7-5.08-.14-5.93-2.11"/>
          </g>
          <g>
            <path class="cls-2" d="M220.59,37.58c2.69-1.66,5.03-1.66,6.28,0"/>
            <path class="cls-2" d="M235.03,38.41c2.94-1.45,5.5.5,5.93,2.11"/>
          </g>
          <path class="cls-2" d="M233.94,38.4c-.27,1.98,2.07,4.32,2.07,5.52"/>
          <path class="cls-2" d="M234.96,45.93c-.04-.98-1.4-1.9-1.51,0h1.51Z"/>
          <path class="cls-2" d="M230.93,45.42c-.36-1.23-2.27-1.3-2.49-.04l2.49.04Z"/>
          <path class="cls-2" d="M227.09,51.47c1.66.45,5.03.95,7.53.81"/>
          <path class="cls-2" d="M229.1,56.05c.98-.27,2.12-1.03,2.77,0"/>
          <path class="cls-2" d="M230.13,50.53c.98-.27,2.12-1.03,2.77,0"/>
          <path class="cls-2" d="M236.46,45.42c.53,2.25,1.4,5.45.96,6.41"/>
          <path class="cls-2" d="M229.1,41.16c-4.19,1.62-6.53,8.85-6.53,8.85"/>
          <path class="cls-2" d="M223.73,51.83c-1.76,1.72-1.54,4.22-1.54,4.22"/>
          <path class="cls-2" d="M237,54.69s.31,3.16.26,3.32"/>
          <path class="cls-2" d="M230.93,66.25c-.96,2.48-1.34,4-1.83,4.77"/>
          <path class="cls-2" d="M225.02,65.08c-.65,1.03-1.43,3.74-1.29,4.54s1.76,2.91,2.7,2.45"/>
          <path class="cls-2" d="M218.16,38.64c.11.87,1.89,1.74,3.45,2.12"/>
          <path class="cls-2" d="M236.46,41.47c1.51,1.63,3.76,1.74,3.76,1.74"/>
          <path class="cls-2" d="M239.97,37.9c.94.52,2.03,2.27,2.63,3.57"/>
          <path class="cls-2" d="M227.74,37.06c-1.14-1.03-3.43-2.47-6.8-.44"/>
          <path class="cls-2" d="M211.62,50.01c.13,3.85.88,6.41,3.03,7.03,2.15.62,5.23,4.19,5.23,4.19"/>
        </g>
      </g>
      <path class="cls-1" d="M149.76,188.92s-4.26-45.72-3.84-50.93-2.33-32.26-2.33-34.92,1.92-12.03,3.43-15.6,4.12-6.86,4.81-10.71,5.77-10.3,6.32-12.22.14-10.3,0-12.63c0,0,3.29,4.54,3.84,6.11s.82-.61,3.02,0,3.02,1.44,3.02,1.44c0,0,5.08-.27,9.2,1.24,4.12,1.51,10.43,5.22,12.08,7.14s6.45,12.49,7.41,14.42,12.77,37.57,12.36,42.54-1.78,5.9-2.47,10.37-2.75,7.22-5.49,9.56c-2.75,2.33-14.28,9.75-14.28,9.75l-1.46,30.44c-.16,4.07-3.19-2.4-5.42-11.49s-23.26-10.27-22.55.14-7.64,15.37-7.64,15.37Z"/>
      <path class="cls-1" d="M201.11,144.71c-2.75,2.33-14.28,9.75-14.28,9.75,0,0-23.61,10.71-27.87,12.22s-11.81,1.51-12.49,0,0-7.79-.82-10.42-1.51-10.33-1.1-12.52.55-5.07,1.37-5.76,8.1,2.75,10.3,2.61,3.98-1.69,6.59-2.7,5.08-1.59,7.28-3.36,3.99-3.17,6.25-3.64c2.26-.46,3.77,1.37,4.46-1.33s-.27-4.67,2.2-4.79c2.47-.11.69-4.37.69-4.37"/>
      <path class="cls-1" d="M102.48,187.97s-1.92-13.19-.96-19.37l.34-9.18c-4.39-5.01-6.82-11.31-6.82-11.31l-3.21-14.24,4.13-34.54c3.1-9.05,3.77-10.02,4.68-11s2.51-1.06,3.48-4.61,3.7-10.65,5.49-11.71,3.38-.53,5.69-2.93c2.31-2.4,1.69-2.31,4.08-3.1,2.4-.8,4.7-.89,7.1-1.6s8.34-6.34,8.34-6.34c0,0,1.15,3.33.8,4.57s-1.77,4.79-2.13,10.02-.8,12.95-2.93,20.49c-2.13,7.54-6.12,16.86-6.39,18.36s.71,34.16.71,34.16c0,0,.65,41.99-2.82,41.99s-7.12-19.02-7.12-19.02c0,0-6.57,5.14-5.62,12.73s-6.84,6.65-6.84,6.65Z"/>
      <path class="cls-1" d="M146.11,162.42c-.02-2.23-.02-4.73-.47-6.16-.82-2.63-1.51-10.33-1.1-12.52s.55-5.07,1.37-5.76c-1.94-.38-4-.74-5.37-.97h0c.48,1.98.89,3.67.89,3.67,0,0,.99,3.52-4.87,4.42s-14.44,0-14.44,0c0,0-2.26-.72-2.62-2.26s.48-6.03,0-8.31-1.8-2.97-2.89-2.07-.45,5.87-2.11,7.92l-1.24,3.1c-.44,5.94-2.48,8.34-2.93,12.77l.81,1.65s3.84.99,6.91,3.16,6.87,4.98,8.04,5.88,5.69.26,7.22-.37c1.53-.63,5.24-.35,5.96-1.3s-.18-1.73-1.9-1.47c0,0,4.47-1.49,8.74-1.4h0Z"/>
      <path class="cls-1" d="M122.11,145.11s-3.39-12-2.83-13.09,15.37-4.67,17-4.46c1.62.21,2.44,1.69,2.98,4.07s2.17,9.05,2.17,9.05c0,0,.99,3.52-4.87,4.42s-14.44,0-14.44,0Z"/>
      <g class="cls-5">
        <path class="cls-1" d="M20.54,186.91c.36-12.64,3.43-44.77,9.75-65.35,6.32-20.58-4.87-51.99-4.87-51.99,0,0-.72-2.53,4.33-4.51s12.46-5.42,13.54-7.04c0,0,10.65,9.75,15.53,19.32,4.87,9.57,21.66,14.8,25.09,14.98s5.96-7.22,5.78-9.57-3.43-4.69-3.43-4.69c0,0,.36-2.89-1.08-5.42,0,0,4.23,1.15,5.33,5.87,1.1,4.71.47,2.99,1.96,6.68s3.14,11.24,3.46,18.15-1.49,14.22-1.49,14.22l-5.99,37.55s-2.13,19.84-1,26.21c1.35,7.59-12.35,6.87-16.24-6.58-3.88-13.44-9.55-14.62-8.03-2.42s-10.57,16.45-12.33,1.07-24.09-11.41-22.14,1.05-8.16,12.46-8.16,12.46Z"/>
        <path class="cls-6" d="M25.36,69.59c-.16-3.91,5.64-4.81,8.33-6.29,3.21-1.58,6.88-2.87,9.47-5.37,0,0,.12-.15.12-.15l.13.12c6.74,6.17,12.5,13.39,16.96,21.35,3.68,4.79,9.21,7.82,14.71,10.11,2.79,1.11,5.7,2.13,8.61,2.55.69.08,1.29-.13,1.86-.55,2.18-1.91,3.26-4.97,3.69-7.77.28-2.31-1.79-4-3.44-5.32.2-1.82-.12-3.79-1.02-5.39,0,0-.59-1.05-.59-1.05,2.46.64,4.74,2.06,5.95,4.33.96,1.6,1.22,4.12,1.69,5.88,3.09,7.45,4.7,15.51,4.75,23.61-.05,4-.68,8.32-1.52,12.01-1.48,9.34-4.54,28.2-6.12,37.53-.04-.69,2.2,16.48,2.2,16.34.67,4.64,1.59,11.85,2.54,16.43,0,0-.12.03-.12.03-.65-2.7-1.14-5.43-1.64-8.16-.49-2.73-.96-5.46-1.4-8.2-.86-5.52-1.8-11.05-2.54-16.59,1.4-9.39,4.35-28.2,5.86-37.57.88-3.87,1.44-7.87,1.52-11.83.02-7.96-1.53-15.94-4.51-23.33-.44-1.61-.71-4.25-1.56-5.67-.88-1.65-2.48-2.96-4.22-3.54l.53-.68c.96,1.75,1.3,3.73,1.12,5.7,0,0-.18-.42-.18-.42,1.78,1.41,3.93,3.46,3.56,5.98-.49,3.15-2.51,9.24-6.47,9-8.44-1.63-18.4-6.18-23.71-13.09-1.72-2.57-2.92-5.31-4.76-7.77-3.49-4.94-7.57-9.48-11.95-13.67,0,0,.25-.03.25-.03-2.69,2.58-6.34,3.8-9.65,5.39-2.67,1.43-8.38,2.29-8.3,6.05,0,0-.12.03-.12.03h0Z"/>
        <path class="cls-6" d="M20.48,186.91c.04-6.64.47-13.28,1.04-19.9.48-6.64,1.33-13.25,3.04-19.69,0,0,.12.02.12.02-.38,6.65-1.26,13.2-2.17,19.78-.92,6.5-1.3,13.51-2.04,19.8h0Z"/>
        <path class="cls-6" d="M43.33,57.97c6.7,6.21,12.41,13.42,16.9,21.37,3.71,4.82,9.26,7.83,14.79,10.12,2.8,1.1,5.71,2.12,8.65,2.53,1.49.17,2.57-1.04,3.35-2.18.8-1.24,1.4-2.62,1.82-4.05.37-1.43.82-2.95.12-4.18-.66-1.26-1.77-2.33-2.93-3.22,0,0-.17-.13-.17-.13l.02-.22c.15-1.77-.19-3.67-1.08-5.22-.78-1.64-1.46-3.64-3.08-4.39-1.43-2.19-.63-5.43-2.53-7.36-.87-.65-1.97-1.46-2.48-2.55-.18-.4-.28-.9-.18-1.37.14-.49.4-1.27-.11-1.61-.31-.2-.7-.12-1.09-.18-.57-.13-.76-.81-.75-1.27.07-1.63.37-3.05.53-4.57.65-5.93,1.12-12.04.57-17.97-.71-5.87-3.63-11.42-7.01-16.18-2.64-3.56-6.29-6.34-10.74-6.88-4.21-.58-9.04-.25-12.58,2.26-1,.66-1.83,2.48-2.48,3.49-1.96,3.53-4.56,7.33-6.02,11.07-.07.22-.04.62-.16.86-.61,1.49-1.49,2.62-2.04,4.08-.99,2.14-.6,4.27.05,6.43,1.08,6.06-.93,7.73,5.01,11.65.28.27.55.62.59,1.05.05.38-.16.74-.09,1.11.26,1.05,1.47,1.65,2.2,2.43.24.27.58.63.45,1.08-.9,1.36-.76,2.9.47,4.01h0ZM43.24,58.07c-.55-.52-1.01-1.19-1.13-1.97-.14-.78.21-1.58.56-2.18.11-.32-.17-.64-.41-.89-.79-.82-1.96-1.31-2.3-2.52-.09-.38.11-.75.07-1.13-.04-.34-.26-.63-.52-.88-4.59-3.1-4.68-4.15-5.03-9.52-.13-1.54-.54-2.88-.98-4.39-.8-3.14,1.1-6.04,2.33-8.72.02-.07.06-.16.05-.21,0,0,.02-.22.02-.22.05-.63.34-1.24.57-1.79,1.43-3.28,3.65-6.88,5.39-10.03.72-1.16,1.53-3.05,2.71-3.86,4.99-3.53,12.56-3.56,18.04-1.21,7.48,3.55,13.2,14.9,14.16,22.85.67,7.57-.37,15.18-1.27,22.65,0,.16.03.34.05.38.29.02.91,0,1.36.32.89.59.79,1.69.49,2.54-.12.54.2,1.14.66,1.66.48.54,1.02.94,1.68,1.44.68.61.99,1.39,1.24,2.13.64,1.66.49,3.88,1.33,5.33,1.78.82,2.4,3.08,3.2,4.65.84,1.46,1.3,3.73,1.09,5.61,0,0-.15-.35-.15-.35,1.24.97,2.37,2.06,3.13,3.5,1.64,2.92-2.18,12.02-5.99,11.33-8.4-1.65-18.3-6.21-23.59-13.1-1.7-2.54-2.93-5.32-4.75-7.78-3.5-4.96-7.62-9.47-12.02-13.65h0Z"/>
        <path class="cls-6" d="M30.64,133.99c-2.58.93-5.17.56-7.75,1.67,0,0-.06-.11-.06-.11,1.12-.8,2.37-1.39,3.7-1.82,1.32-.54,2.85-.68,4.13.14,0,0-.01.12-.01.12h0Z"/>
        <path class="cls-6" d="M10.48,124.34c.31-1.5.67-3.19,1.25-4.68.07-.14.15-.33.32-.42,2.07-.64,4.28.18,6.26.78,4.99,1.63,10.28,2.9,15.08,4.99.08.03.24.23.2.32-.24,1.08-1.45,2.19-2.02,2.8,0,0-2.69,5.55-2.69,5.55l-.16-.31c6.72,1.05,13.39,2.55,19.62,5.34,6.33,2.41,13.07,3.52,19.82,2.79,1.67-.14,3.4-.22,4.94-.67,1.61-.36,2.18-2.04,3.36-3.4,2.4-2.7,6.25-3.07,9.53-3.66,3.95-1.03,7.99-3.29,12.36-3.13.67-.03,2.01.18,1.99,1.19-.14,1.18-.22,2.36-.87,3.35-.62.82-1.5,1.26-2.47,1.44l.4-.63c.27,1.02.65,2.18.19,3.27-.27.5-.46.92-.48,1.48-.1.65.22,1.08.17,1.78-.22,1.15-1.1,1.97-1.89,2.68,0,0,.17-.53.17-.53.16.66.25,1.28.26,1.96-.01.66-.05,1.4-.55,2.09-.33.38-.52.47-.69.68-.69.71-.79,1.5-1.61,2.3-.93.83-2.04,2.88-3.85,2.94-.28.04-.78-.04-1.07-.08-3.03-.63-5.97-1.86-8.91-2.5-2.52-.73-4.44.91-6.94,1.29-2.47.16-4.92-.33-7.41.09-4.89.49-9.71,1.88-14.63,2.18-12.3.99-24.93.53-36.76-3.19-7.06-.58-3.86-19.43-3.57-24.42,0,0,.23-1.84.23-1.84.12-.57.1-1.31.41-1.84h0ZM10.55,124.45c-.19.38-.21,1.3-.29,1.76-.14,1.79-.36,3.74-.44,5.52-.04,4.15-1.94,19.53,3.77,19.89,9.49,2.75,19.29,3.63,29.14,3.19,4.9-.19,9.82-.44,14.59-1.42,2.43-.49,4.88-.92,7.36-1.17,2.43-.39,4.92.02,7.34-.08,1.73-.25,3.5-1.36,5.39-1.46,3.96.15,7.45,2.24,11.27,2.84,1.27.17,2.13-1,2.86-1.91.19-.2.5-.58.71-.71.51-.48.94-1.62,1.56-2.22.23-.25.57-.5.63-.6.58-.9.31-2.42.06-3.45.71-.61,1.57-1.33,1.79-2.22,0-.14.01-.12-.06-.4-.26-1.06-.07-2.27.5-3.19.25-.75-.03-1.69-.24-2.51,0,0-.16-.53-.16-.53l.56-.1c.69-.12,1.43-.49,1.83-1.05.51-.76.55-1.87.71-2.73-.02-.13-.02-.11-.08-.16-2.72-.53-5.66.37-8.28,1.27-3.23,1.44-6.5,1.78-9.84,2.56-2.55.62-4.32,2.22-5.65,4.41-1.66,2.27-4.91,1.96-7.35,2.25-3.37.27-6.85.29-10.22-.27-5.07-.76-9.9-2.59-14.57-4.62-4.85-1.75-9.99-2.67-15.06-3.59,0,0,.13-.26.13-.26l2.74-5.53c.65-.71,1.38-1.42,1.87-2.25.2-.4.19-.36-.11-.52-4.71-1.96-9.9-3.36-14.76-4.96-1.83-.61-3.73-1.23-5.67-.97-.73,0-.78.81-1.02,1.38-.4,1.25-.66,2.46-1,3.81h0Z"/>
        <path class="cls-6" d="M31.47,128.01c.83-.52,2.06-.51,3.01-.67.51-.12.63-.7.73-1.19.5-2.59,1.36-5.1,2.14-7.62,1.18-4.03,3.02-7.88,3.78-12.03.75-4.13.55-8.38,1.08-12.57.29-4.18.2-8.4-.34-12.55-.51-4.11-1.72-8.22-4.62-11.29-1.97-2.26-5.15-3.63-8.04-2.35-6.55,3-10.1,10.66-11.31,17.46-.33,1.73.05,4.41.14,6.18-.36,1.75-1.08,3.53-1.12,5.33.02.25-.05.53-.1.76-1,2.91-2.43,5.48-3.12,8.46-.64,2.93-1.07,6-1.46,8.97-.84,2.67-1.83,5.37-2.43,8.1.02.42.51.71.9.9,0,0-.73.39-.73.39.39-1.61.73-3.23,1.37-4.79.51-1.18,2.21-.84,3.2-.78,2.33.32,5.31,1.57,7.56,2.23,2.47.81,4.95,1.62,7.4,2.51,1.32.54,2.79.89,3.99,1.7.06.08.07.14.06.19-.07.55-.46.91-.77,1.32-.38.47-.83.92-1.25,1.35-.03,0-.06.12-.08,0h0ZM31.36,128.08c.03-.17.07-.11.09-.17.61-.68,1.26-1.38,1.71-2.18.07-.13.14-.29.13-.39-1.12-.69-2.64-1-3.93-1.46-2.49-.75-8.79-2.66-11.21-3.36-1.88-.57-3.99-1.26-5.81-.77-.65,1.49-.93,3.16-1.3,4.76,0,0-.14.65-.14.65-.94-.39-2.17-.94-2.2-2.17.51-2.92,1.53-5.65,2.35-8.48.42-3.35.99-8.18,2.35-11.83.64-1.85,1.63-3.74,2.22-5.55.05-.15.08-.38.06-.56.09-1.86.69-3.57,1.18-5.33,0,0-.02.21-.02.21-.08-1.87-.43-4.57-.06-6.43,1.15-6.31,4.12-12.49,9.25-16.54,6.49-5.16,12.74,0,15.15,6.56,1.99,6.09,2.03,12.61,1.6,18.93-.58,4.17-.43,8.42-1.24,12.6-.82,4.16-2.71,8-3.94,12.04-.96,2.75-1.74,5.54-2.45,8.35-.38.84-1.5.54-2.21.72-.52.07-.98.27-1.58.4h0Z"/>
        <path class="cls-6" d="M91.77,133.85c.98-6.29,1.99-12.59,2.76-18.91.04-.96.46-2.11-.16-2.94-.59-.78-1.55-1.31-2.49-1.69l-.13-.05-.03-.14c-.21-.95-.77-1.97-1.81-1.9-1.04-.09-2.12-.15-3.18-.22-9.19-.53-22.8-1.19-32.03-1.64,0,0-6.41-.31-6.41-.31-1.86-.03-3.85-.33-5.59.35-.02.01-.04.03-.02.02,0,0,.02-.03.03-.05.01-.06.04-.03.02-.24v.12c.11,10.79.12,21.57-.03,32.36,0,0-.35-.5-.35-.5,7.61,2.85,15.19,5.78,22.74,8.78-7.53-2.11-15.48-5.21-23.11-7.78,0,0-.35-.12-.35-.12,0,0,0-.38,0-.38-.15-10.79-.13-21.57-.04-32.36.2-1.9,5.07-1.28,6.76-1.24,0,0,6.4.39,6.4.39l12.81.77c4.22.26,15.13.94,19.21,1.23,1.07.08,2.13.16,3.21.27.57.01,1.22.3,1.56.79.36.48.56,1.01.68,1.58l-.16-.19c1.21.53,2.67,1.28,3.04,2.7.11.83-.09,1.63-.17,2.45-.87,6.32-1.98,12.6-3.05,18.88,0,0-.12-.02-.12-.02h0Z"/>
        <path class="cls-6" d="M94.68,148.68c-1.03.73-1.28,2.12-2.27,2.88-.85.87-1.47,2.07-2.71,2.47-.82.29-1.67,0-2.46-.16-3.16-.74-6.26-2.16-9.48-2.44,0,0,.12-.28.12-.28,2.88,2.74,6.98,3.55,10.02,6.08,1.63,1.14,3.37,2.62,4.91,3.91,0,0-2.12-.95-2.12-.95l-7.34-3.28c-3.02-1.13-5.83-3.48-9.06-3.38-.38.07-.96.4-1.18.54,0-.01.02-.06,0-.09.79.57,2.31,1.33,3.23,2.02,2.21,1.54,4.33,3.18,6.45,4.83l-.6.81c-1.21-.81-2.43-1.6-3.65-2.38-1.51-.92-3.02-1.95-4.63-2.62-.68-.27-1.88.14-2.09.72-.05.1,0,.08.21.25,1.1.78,2.75,1.95,3.85,2.73,0,0-1.46.27-1.46.27-.34.06-.74.16-1.05.3-.34.09-.55.4-.46.24,0-.08-.02-.02.09.08.08.09.23.21.38.31,1.05.73,2.17,1.22,3.1,2.26.5.61,1.07,1.08,1.72,1.55,1.98,1.49,4.16,2.24,6.55,2.85,1.38.38,3.08,1.17,4.41.72,2.86-1.38,5.41-3.55,6.89-6.4.79-1.37,2.89-5.01,3.7-6.42,0,0,0,.19,0,.19,0,0-4.75-8.14-4.75-8.14h.12s-.42.54-.42.54h0ZM94.59,148.6s.4-.54.4-.54l.06-.08.05.09,4.96,8.02.05.09-.05.1-2.28,4.38-1.14,2.19c-1.06,2.29-2.81,4.28-4.87,5.74-.69.49-1.4.94-2.19,1.33-1,.43-1.94.24-2.78.1-3.26-.82-6.65-1.53-9.38-3.61-1.4-.91-2.2-2.29-3.75-3.12-2.85-1.48-2.78-3.31.52-3.89,0,0-.25,1.13-.25,1.13l-1.8-1.31c-.42-.36-1.16-.68-1.44-1.25-.42-.84.33-1.74.95-2.08,2.61-1.52,5.25,1.36,7.44,2.5,1.23.8,2.44,1.62,3.64,2.45l-.6.81c-2.08-1.66-4.19-3.32-6.35-4.86-.79-.57-1.68-1.1-2.52-1.59-1.49-.81-1.36-1.67.26-2.29.87-.38,1.92-.21,2.74.02,2.68.81,4.91,2.3,7.37,3.35l7.28,3.35-.34.54c-1.99-1.66-4.04-3.31-6.27-4.63-2.33-1.22-4.81-2.2-6.69-4.13,0,0-.32-.31-.32-.31l.43.03c3.32.37,6.31,1.82,9.51,2.63.78.18,1.61.45,2.38.17,1.2-.39,1.82-1.58,2.67-2.44.99-.77,1.22-2.14,2.27-2.87h0Z"/>
        <path class="cls-6" d="M38.26,85.71c2.14,2.3,3.59,5.4,4.13,8.5.1,1.06.1,2.14-.17,3.21,0,0-.12,0-.12,0-.83-1.98-1.12-3.94-1.53-6-.49-1.98-1.26-3.9-2.41-5.64l.1-.08h0Z"/>
        <path class="cls-6" d="M37.77,91.57c.86,3.76,1.51,7.57,1.88,11.42.45,3.85.5,7.83-.75,11.55,0,0-.12-.02-.12-.02-.1-3.4-.11-8.12-.13-11.47-.14-3.83-.5-7.66-1-11.46,0,0,.12-.02.12-.02h0Z"/>
        <path class="cls-6" d="M26.81,114.51c.9,1.48,1.69,3.02,2.45,4.57.85,1.55,1.5,3.15,1.44,4.98,0,0-.12.04-.12.04-1.21-1.36-1.8-2.94-2.25-4.64,0,0-1.63-4.89-1.63-4.89,0,0,.11-.05.11-.05h0Z"/>
        <path class="cls-6" d="M79.91,159.16c2.5,1.6,5.62,2.32,7.56,4.6,0,0-.05.11-.05.11-1.61-.04-2.92-.8-4.11-1.78-1.21-.88-2.38-1.81-3.47-2.83l.07-.1h0Z"/>
        <path class="cls-6" d="M74.36,159.95c2.51,1.99,5.39,3.17,7.78,5.31,0,0-.03.12-.03.12-1.75.16-3.21-.85-4.41-1.97-1.23-1.04-2.39-2.15-3.43-3.37l.08-.09h0Z"/>
        <g class="cls-7">
          <path class="cls-6" d="M42.23,106.24c.09,3.23,9.73,2.46,12.2,2.79,12.96.68,27.27.89,40.08,2.68,0,0,0,.12,0,.12-12.91.24-27.16-1.29-40.1-2.18-2.23-.33-13.04-.22-12.17-3.42h0Z"/>
        </g>
        <g class="cls-7">
          <path class="cls-6" d="M76.13,113.72c-.08,2.63-.3,7.92-.44,10.55-.09,3.54-.34,7.04-1.31,10.47,0,0-.12-.01-.12-.01-.6-5.12.54-10.69,1.07-15.78,0,0,.69-5.23.69-5.23h.12Z"/>
        </g>
        <g class="cls-7">
          <path class="cls-6" d="M73.29,88.93c2.26,2.69,4.1,5.69,5.87,8.71,1.76,3.01,3.67,6.22,3.79,9.8,0,0-.12.01-.12.01-1.43-3.16-3.16-6.15-4.54-9.34-1.56-3.1-3.13-6.23-5.09-9.1,0,0,.1-.08.1-.08h0Z"/>
        </g>
        <g class="cls-7">
          <path class="cls-6" d="M85.37,91.94c1.28,2.44,2.24,5.05,3.01,7.7.83,2.65,1.52,5.44.86,8.23,0,0-.12,0-.12,0-.63-2.34-1.36-5.62-1.71-7.98-.55-2.67-1.21-5.33-2.16-7.89,0,0,.11-.05.11-.05h0Z"/>
        </g>
        <g class="cls-7">
          <path class="cls-6" d="M51.26,77.39c4.44,8.91,8.51,18.6,8.19,28.73,0,0-.12.01-.12.01-1.13-4.89-2.03-9.73-3.22-14.59-1.27-4.81-2.99-9.51-4.96-14.1l.11-.05h0Z"/>
        </g>
        <g class="cls-7">
          <path class="cls-6" d="M49.87,85.73c1.01,3.02,1.55,6.16,2.11,9.28.63,3.13,1.03,6.28.67,9.48,0,0-.12.01-.12.01-.99-3.06-1.32-6.19-1.54-9.36-.33-3.13-.58-6.29-1.24-9.38,0,0,.12-.04.12-.04h0Z"/>
        </g>
        <g class="cls-7">
          <path class="cls-6" d="M60.38,160c-.93,7.1-.33,14.34-2.06,21.32,0,0-.12,0-.12,0-.44-3.6-.12-7.17.41-10.73.44-3.55.92-7.1,1.66-10.61l.12.02h0Z"/>
        </g>
        <g class="cls-7">
          <path class="cls-6" d="M27.63,156.69c.4,5.21.54,10.43.64,15.64.19,5.23.14,10.45-.64,15.64,0,0-.12,0-.12,0-.57-5.21-.48-10.42-.24-15.64.13-5.21.28-10.42.24-15.63,0,0,.12,0,.12,0h0Z"/>
        </g>
        <path class="cls-6" d="M43.91,53.77c7.29,3.65,14.7,7.07,21.93,10.85,4.54,2.32,9.11,4.66,13.33,7.54,2.55,1.7,5.1,3.51,7.12,5.86,0,0-.09.08-.09.08-6.45-4.93-13.87-8.44-20.83-12.6-3.56-1.97-7.15-3.91-10.75-5.81-3.59-1.94-7.21-3.79-10.77-5.81,0,0,.06-.11.06-.11h0Z"/>
        <g class="cls-7">
          <path class="cls-6" d="M64.15,71.52c2.24,2.59,4.22,5.4,5.66,8.53.73,1.55,1.41,3.16,1.87,4.77.46,1.61.98,3.06,2.4,4.1,0,0-.05.11-.05.11-.84-.22-1.66-.73-2.24-1.46-1.62-2.1-1.95-4.77-2.9-7.13-1.2-3.15-2.92-6.08-4.84-8.84,0,0,.1-.08.1-.08h0Z"/>
        </g>
        <g class="cls-7">
          <path class="cls-6" d="M44.54,56.24c7.4,3.93,14.55,9.88,17.2,18.09,0,0-.11.06-.11.06-2.46-3.44-4.77-6.84-7.51-10.03-2.79-3.1-6.06-5.77-9.64-8.01l.06-.11h0Z"/>
        </g>
        <g class="cls-7">
          <path class="cls-6" d="M66.32,85.09c1.44.07,3.4-.17,4.49,1.12.34.51.46,1.11.26,1.68l-.12.03c-.86-.67-1.19-1.05-1.99-1.65-.77-.43-1.75-.68-2.66-1.06l.02-.12h0Z"/>
        </g>
        <g class="cls-7">
          <path class="cls-6" d="M77.05,57c-2.72.37-4.56,2.76-7.06,3.76-.84.41-1.88.57-2.8.55-3.68-.03-7.22-.87-10.55-2.41,0,0,.03-.12.03-.12,3.58.19,7.05,1.09,10.55,1.53,2.59.35,4.89-1.67,7.2-2.72.81-.39,1.7-.74,2.62-.71,0,0,0,.13,0,.12h0Z"/>
        </g>
        <g class="cls-7">
          <path class="cls-6" d="M62.23,57.96c1.85.33,3.77.57,5.63.38.33-.05.79-.13.95-.31.01,0-.04.02-.01.04-.04-.02-.07-.08-.11-.13-1.65-2.15,5.19-4.34,6.39-3.79-1.78,1.18-3.98,1.96-5.58,3.12,1.24,2.19-2.27,1.96-3.54,1.74-1.28-.21-2.53-.54-3.75-.93,0,0,.03-.12.03-.12h0Z"/>
        </g>
        <g class="cls-7">
          <path class="cls-6" d="M68.64,60.68c1.97-.89,4.64-.28,5.91,1.53.38.63.64,1.34.57,2.12l-.12.04c-1.56-1.2-2.34-3.11-4.37-3.49-.62-.18-1.28-.13-1.96-.08l-.03-.12h0Z"/>
        </g>
        <g class="cls-7">
          <path class="cls-6" d="M77.11,64.8c1.52,2.2,3.94,3.41,5.85,5.19.6.66,1.17,1.42,1.41,2.35l-.1.07c-1.55-.96-2.84-1.97-4.04-3.32-1.24-1.25-2.53-2.58-3.23-4.24,0,0,.11-.06.11-.06h0Z"/>
        </g>
        <g class="cls-7">
          <path class="cls-6" d="M46.14,49.98c-2.21-2.76-3.94-5.86-5.55-8.99-1.69-3.12-3.08-6.37-3.68-9.89,0,0,.12-.04.12-.04,1.87,3.02,3.17,6.24,4.47,9.51,1.39,3.21,2.84,6.4,4.74,9.34,0,0-.1.07-.1.07h0Z"/>
        </g>
        <g class="cls-7">
          <path class="cls-6" d="M37.76,44.69c.93,1.41,3.02,1.71,3.88,3.31.23.37.34.79.53,1.15,1.36,1.8,3.5,2.89,5.08,4.62,0,0-.06.11-.06.11-1.16-.23-2.21-.72-3.19-1.33-1.1-.69-2.07-1.75-2.69-2.97-.16-.39-.23-.83-.4-1.19-.67-1.55-2.59-2.03-3.28-3.64,0,0,.11-.05.11-.05h0Z"/>
        </g>
        <path class="cls-6" d="M43.42,38.88c.41,2.68.99,5.37,2.1,7.86,2.23,4.86,6.78,8.85,11.88,10.38,3.88.99,8.27-.16,10.93-3.19,5.29-5,7.02-11.2,6.08-18.32-.71-8.01-3.75-15.97-9.17-21.95-2.62-3.13-6.26-4.89-10.29-4.25-4.02.13-7.52,2.36-9.78,5.69-1.68,2.2-2.32,4.65-2.15,7.43-.03,5.45.18,10.91.41,16.35h0ZM43.3,38.89s-.49-8.17-.49-8.17c-.16-2.72-.35-5.45-.46-8.18-.33-2.82.29-5.7,1.96-8.02,2.27-3.57,6.13-6.25,10.51-6.38,4.39-.76,8.61,1.31,11.35,4.69,5.52,6.29,8.49,14.44,9.16,22.7.87,7.36-.98,13.75-6.5,18.87-2.79,3.15-7.53,4.29-11.53,3.16-2.72-.73-4.97-2.44-7.04-4.19-4.3-3.58-6.21-9.08-6.94-14.47h0Z"/>
        <g>
          <path class="cls-3" d="M74.6,33.2c-.89-6.32-3.15-12.55-7.25-17.96-5.45-7.19-9.32-7.03-14.67-6.17-5.34.86-9.83,7.25-10,10.81,0,0,2.14-5.27,6.42-7.07s2.22-3.84,5.5-2.97,7.47,1.64,9.69,3.74,3.3,4.31,4.33,6.53,5.96,13.08,5.96,13.08Z"/>
          <path class="cls-6" d="M74.58,33.14c-1.11-6.35-3.42-12.64-7.45-17.76-1.97-2.51-4.27-4.96-7.36-5.94-4-.96-8.8-.29-11.93,2.54-2.26,2.02-4.36,4.93-4.65,7.94,0,0-.99-.22-.99-.22,1.3-2.92,3.26-5.67,6.15-7.18.93-.47,1.76-.79,2.49-1.47.64-.52.82-1.34,1.63-1.83,1.45-.58,2.91.3,4.2.5,1.99.52,4.03,1.03,5.95,2.01,3.97,2.16,5.71,6.48,7.21,10.04,1.39,3.4,3.25,8.03,4.74,11.38h0ZM74.62,33.26c-1.43-3.11-3.92-7.86-5.48-11.02-.96-1.93-1.75-3.78-2.86-5.44-1.1-1.61-2.42-3.14-4.2-3.98-2.59-1.21-5.76-1.91-8.59-2.52-.44,0-.42-.02-.73.38-.27.4-.64.91-1.07,1.29-1.6,1.38-3.71,1.71-5.16,3.28-2.19,1.96-3.5,5.03-4.67,7.67,0,0,.31-3.05.31-3.05.24-2.4,1.43-4.37,2.78-6.14,1.39-1.76,3.1-3.29,5.15-4.25,2.05-.95,4.32-1.09,6.55-1.18,10.29-.16,17.21,16.26,17.96,24.96h0Z"/>
        </g>
        <path class="cls-2" d="M45.28,28.02c1.99-1.54,6.71-3.54,8.28-2.65.38.21-1.62.61-3.76,1.28-2.42.76-5.02,1.77-4.52,1.38Z"/>
        <path class="cls-2" d="M62.22,24.25c1.04-1.93,4.93-1.51,5.69-1.36s2.29,1.68,2.22,1.98-1.38-1.01-2.68-1.01-5.73,1.31-5.23.39Z"/>
        <path class="cls-1" d="M45.75,33.2c2.14-2.91,5.55-3.93,7.86-2.85"/>
        <path class="cls-1" d="M48.11,31.56s2.6.76,4.59-1.21"/>
        <path class="cls-1" d="M62.22,28.77c3.63-2,6.69-1.47,7.91-.32"/>
        <path class="cls-1" d="M63.17,28.45c.99.54,4.32.75,5.48-.35"/>
        <path class="cls-2" d="M59.81,38.88c-.92-1.41-4.22-.19-3.14,0s3.14,0,3.14,0Z"/>
        <path class="cls-2" d="M62.56,38.59c.23-1.12,1.22-2.07,1.68-1.14s-1.68,1.14-1.68,1.14Z"/>
        <path class="cls-2" d="M53.1,45.04c1.97-.53,4.19-1.38,9.08-2.22,4.89-.84,6.91-1.42,6.47-.63s-2.54,2.83-6.47,3.62c-4.49.91-9.18.1-9.08-.77Z"/>
        <path class="cls-1" d="M66.17,42.1c-1.01.18-2.34.44-3.99.72-3.5.6-5.64,1.21-7.29,1.7v1.06s4.29.5,7.67-.31c3.38-.8,3.61-1.43,3.61-1.43v-1.74Z"/>
        <path class="cls-2" d="M51.78,41.08c-1.22,1.28-2.68,2.55-1.38,5.12"/>
        <path class="cls-2" d="M51.78,42.18c-.84,2.39-1.45,3.36.92,5.13"/>
        <path class="cls-2" d="M66.15,35.19c2.21,1.52,3.21,2.49,3.21,2.49"/>
        <path class="cls-2" d="M71.85,39.98c.18,2.22-.81,4.76-.81,4.76"/>
      </g>
      <g class="cls-5">
        <path class="cls-6" d="M95.1,148.08c3.7,8.67,14.38,22.99,24.14,13.39,0,0,.1.07.1.07-3.01,4.96-8.93,5.63-13.5,2.16-2.95-2.06-5.24-4.97-7.13-7.95-1.47-2.43-2.74-4.97-3.73-7.62,0,0,.12-.04.12-.04h0Z"/>
        <g class="cls-7">
          <path class="cls-6" d="M107.19,129.51c.99.26,1.86,1,2.1,2.01.31.93.98,1.64,1.79,2.16,1.6,1.03,3.55,1.78,4.86,3.25.04.05.13.19.17.38,0,0-.04.1-.04.1l-1.19,3.12c-1.34,2.17-3.26,4.34-4,6.74-.15,1.17-.43,2.21-.93,3.28-.14.27-.27.54-.59.85-.28.98-.15,2.33-.38,3.54-.59,2.2-1.11,3.86-1.25,6.26-.03,1.02-.2,2.18.32,3.04l-.08.1c-.8-.83-.79-2.08-.89-3.15-.15-2.36.22-4.15.7-6.42.11-1.01.06-2.04.21-3.23.06-.29.09-.67.52-1.1.4-.46.66-1.23.88-1.85.24-.66.33-1.3.48-1.96,1.05-2.23,3.05-4.77,4.27-6.4,0,0,1.3-3.08,1.3-3.08l-.02.17c-1.09-1.25-3.04-2.26-4.57-3.31-.83-.58-1.53-1.43-1.8-2.41-.15-.48-.3-.93-.64-1.26-.34-.33-.79-.54-1.24-.72,0,0,.04-.12.04-.12h0Z"/>
        </g>
        <g class="cls-7">
          <path class="cls-6" d="M113.32,143.5c.26,6.12-5.2,13.17-.75,18.62.23.28.71.66.99.75.35.05.9-.09,1.4-.23,1.02-.31,2.04-.76,3.06-1.18l.07.11c-.85.73-1.78,1.36-2.81,1.88-2.61,1.67-4.8-1.26-5.32-3.6-.75-3.41.56-6.86,1.69-9.96.77-2.06,1.3-4.2,1.55-6.39,0,0,.12,0,.12,0h0Z"/>
        </g>
        <g class="cls-7">
          <path class="cls-6" d="M99.49,130.39c1.19-.44,4.33-2.19,4.01.39-.71,3.39-2.57,6.58-5.37,8.67,0,0-.1-.08-.1-.08.5-1.17,1.11-2.23,1.72-3.27,1.07-1.77,2.51-3.39,3.03-5.43.06-.25.08-.55,0-.61-.28-.26-1.08-.05-1.48.03,0,0-1.79.43-1.79.43l-.04-.12h0Z"/>
        </g>
        <g class="cls-7">
          <path class="cls-6" d="M103.24,135.19c-1.43,2.4-2.85,4.88-4.69,6.98-.69.64-1.43,1.26-2.37,1.62l-.08-.1c.89-1.7,2.03-3.06,3.38-4.39,1.24-1.37,2.44-2.78,3.67-4.19,0,0,.1.07.1.07h0Z"/>
        </g>
        <g class="cls-7">
          <path class="cls-6" d="M106.84,138.82c-.88,2.53-2.63,7.98-6.2,6.87,0,0,0-.13,0-.13,2.08-1.08,3.55-2.81,4.82-4.74.45-.66.84-1.36,1.26-2.05l.11.05h0Z"/>
        </g>
        <g class="cls-7">
          <path class="cls-6" d="M93.51,130.86c.74-1.38,1.77-2.79,2.22-4.25.04-.02-.13.05.15.39.17.15.36.15.49.12-.73.83-1.62,1.56-2.76,2.05,0,0-.1-.07-.1-.07.48-1.22,1.16-2.41,2.38-3.04.5-.25,1.09.19.94.75-.75,1.65-2.04,2.86-3.21,4.14,0,0-.1-.08-.1-.08h0Z"/>
        </g>
        <g class="cls-7">
          <path class="cls-6" d="M93.47,123.98c1.05,1.67,3.55.92,5.18.93.64.05,1.28.09,1.98.34l.02.12c-1.19.85-2.56.97-3.94.69-1.25-.22-3.08-.58-3.36-2.07,0,0,.12-.01.12-.01h0Z"/>
        </g>
        <g class="cls-7">
          <path class="cls-6" d="M100.7,91.44c-1.08,5.63-.04,11.4-.49,17.1-.13,1.46-.24,3-.96,4.35-.65,1.14-1.54,2.39-1.51,3.64.12,1.7,2.18,2.6,3.44,3.6,0,0,2.32,1.67,2.32,1.67,1.7,1.41,3.74,2.55,5.07,4.4.07.12.1.42-.05.56-.19.22-.41.2-.59.18-.15,0-.39-.09-.53-.1-.04-.01-.13,0-.06-.02.02,0,.03-.01.05-.02-.03.01.14-.06.16-.22,0-.2,0-.17-.07-.26.51.43,2.88,1.44,2.07,2.3-.11.09-.23.13-.35.17l-.05-.12c1.07-.57-.89-1.23-1.35-1.47-.28-.17-.95-.27-.91-.75.15-.47.64-.26.95-.26.07.01.1,0,.15,0,.14,0,0-.02-.08.09-.03.07-.08.12-.06.19-1.4-1.22-3.38-2.52-5.08-3.66-3.19-2.43-8.36-4.43-5.11-9.21,2.28-3.08,1.79-7.16,2.01-10.81.14-3.8-.04-7.68.91-11.39,0,0,.12.03.12.03h0Z"/>
        </g>
        <g class="cls-7">
          <path class="cls-6" d="M109.06,106.22c.58,1.69,1.24,3.4,1.32,5.27.12,1.81-.4,3.63-.59,5.39-.22,3.56-.16,7.12-.74,10.69,0,0-.12,0-.12,0-.99-4.44-.71-9.11.47-13.48.69-2.62.25-5.24-.47-7.84,0,0,.12-.04.12-.04h0Z"/>
        </g>
        <g class="cls-7">
          <path class="cls-6" d="M111.89,123.94c.72.81,1.11,1.96,1.11,3.08.13,1.44-.8,3.15-.19,4.37.34.41.68.87.9,1.36.47,1.03.76,2.11.76,3.24l-.12.04c-.8-1.13-1.41-2.22-2.14-3.3-1.57-1.84.03-3.83.17-5.75.16-1.01-.04-2.06-.58-2.98l.1-.07h0Z"/>
        </g>
        <path class="cls-6" d="M123.97,161.53c-.06,3.31-.25,9.95-.37,13.25-.05,4.43-.3,8.84-1.24,13.2,0,0-.12,0-.12,0-.63-6.4.46-13.44.96-19.85,0,0,.65-6.6.65-6.6,0,0,.12,0,.12,0h0Z"/>
        <path class="cls-6" d="M95.9,99.3c1.31-3.55,2.2-7.31,4.2-10.56.72-1.07,2.05-1.49,2.74-2.56.73-1.01,1.01-2.22,1.37-3.45.74-2.43,1.61-4.8,2.68-7.11.56-1.14,1.1-2.3,1.97-3.31.97-1.08,2.39-1.19,3.5-1.62,2.15-.67,3.32-2.74,4.93-4.18,3.02-1.84,6.86-1.43,9.97-2.91,2.85-1.73,5.3-4.08,7.75-6.34,0,0,.21.63.21.63.46,1.6,1.19,3.35.77,5.04-1.29,3.74-1.98,7.56-2.11,11.52-.34,5.6-.87,11.2-2.16,16.68-1.25,5.3-3.4,10.85-5.33,15.95,0,0-.99,2.6-.99,2.6-.28.82-.69,1.63-.68,2.49-.05,7.62.19,25.63.22,33.47-.78-7.11-.75-14.95-1.14-22.31-.11-3.73-.25-7.43-.25-11.19,0-.5.07-1.09.25-1.54,2.2-6.44,5.08-13.17,6.72-19.77,1.94-7.21,1.93-14.7,2.96-22.06.33-1.86.84-3.68,1.44-5.46.38-.93.39-1.58.2-2.51-.16-.88-.41-1.78-.69-2.63l.7.17c-2.63,2.29-5.18,4.89-8.4,6.35-2.73.83-5.61.89-8.26,1.96-1.18.4-1.81,1.57-2.69,2.39-.86.94-1.95,1.79-3.2,2.19-1.14.41-2.48.52-3.31,1.43-2.26,2.94-3.47,6.68-4.68,10.17-.36,1.18-.68,2.48-1.46,3.53-.71,1.09-2.05,1.5-2.79,2.54-2,3.17-2.96,6.95-4.3,10.44,0,0-.12-.04-.12-.04h0Z"/>
        <path class="cls-6" d="M133.64,59.18c-2.95,2.92-5.55,6.19-8.23,9.36-2.29-.18-4.69.4-6.24,2.18,0,0-1.65,1.65-1.65,1.65l-6.6,6.61s0-.84,0-.84l1.35,1.24s-.86.01-.86.01c3.6-3.53,7.24-7.21,11.87-9.39,1.24-.58,2.7-.05,3.82.58.36.23.73.51.89.95l-.12.04c-.69-.93-2.17-1.13-3.25-1.22-1.14.15-2.15.98-3.08,1.65-3.45,2.62-6.55,5.72-9.69,8.7-.54-.53-1.62-1.61-2.16-2.14,0,0,.43-.41.43-.41l6.81-6.4,1.7-1.6c1.66-1.81,4.32-2.48,6.71-2.21,0,0-.26.1-.26.1,1.37-1.54,2.75-3.06,4.15-4.57,1.41-1.5,2.8-3.02,4.35-4.39l.08.09h0Z"/>
        <path class="cls-6" d="M121.01,99.15s-1.91-5.59-1.91-5.59c0,0-.03-.09-.03-.09,1.42-2.26,2.86-4.51,4.31-6.76,0,0-.05.29-.05.29,0,0-.72-2.46-.72-2.46l-.06-.2.15-.17,3.24-3.62-.12.33c-.03-4.41.1-9.13,2.43-13.02.76-1.3,1.63-2.5,2.67-3.63,0,0-.18.44-.18.44.02-.29.08-.41.16-.66.89-2.22,2.17-4.26,3.38-6.31,0,0-.07.48-.07.48-.53-2.25-1.17-4.47-1.23-6.81-.17-1.75-1.4-3.2-2.32-4.72-.24-.39-.78-1.14-1-1.52,0-.01,0,0,.02,0-.11,0-.72.04-1.06-.25-.31-.26-.39-.54-.46-.76-.12.26-.36-8.82-.39-8.97-.1-1.42.6-2.76.91-4.13.27-1.32.43-2.69.55-4.05-.02-.43.09-1.69.48-2.33,1.08-2.29,4.41-1.43,6.01-2.87,2.35-1.8,2.23-5.25,3.79-7.69,1.93-3.4,5.34-2.2,8.4-1.48,0,0,8.63,1.99,8.63,1.99l.22.05c.19,1.81.63,3.63,1.16,5.4,1.16,3.36,2.24,6.85,2.58,10.43.13.72.1,1.95.4,2.56.44.75,1.43,1.12,2.3,1.32,0,0-.06.19-.06.19,0-.02-1.25,3.71-1.23,3.6-.28,1.7-.6,3.39-.7,5.11-.18,1.12-1.36,1.68-2.28,2.11,0,0,.07-.09.07-.09,0,0-.8,6.64-.8,6.64h-.12s.71-6.66.71-6.66v-.06c.64-.28,1.27-.63,1.75-1.12.22-.24.4-.53.42-.83.08-1.73.38-3.45.64-5.16,0-.01,1.19-3.64,1.19-3.65,0,0,.14.24.14.24-.89-.22-1.82-.57-2.37-1.43-.26-.46-.24-.95-.32-1.38,0,0-.17-1.33-.17-1.33-.45-5.43-3.22-10.21-3.91-15.59,0,0,.25.29.25.29,0,0-8.67-1.91-8.67-1.91-2.63-.55-5.94-1.85-7.54,1.18-1.53,2.52-1.37,6.03-3.95,7.99-1.31,1-2.95,1.2-4.32,1.52-.66.13-1.09.49-1.37,1.06-.28.57-.38,1.31-.35,1.95-.11,1.41-.26,2.8-.53,4.21-.24,1.34-.94,2.52-.84,3.93,0,0,.4,8.25.4,8.25,0,.3.14.6.1.53-.05-.03-.04,0,.13-.01.27-.05,1,.12,1.19.53,1.12,1.7,2.31,3.27,3.15,5.19.22.49.43,1.2.4,1.77.09,2.25.74,4.5,1.26,6.7-1.25,2.15-2.64,4.25-3.49,6.58,0,0,0,.08,0-.03l-.18.44c-.95.99-1.83,2.15-2.55,3.35-2.29,3.69-2.42,8.15-2.51,12.4,0,0,0,.2,0,.2l-.12.13-3.35,3.52.09-.37s.65,2.48.65,2.48c0,0,.04.16.04.16,0,0-.09.13-.09.13-1.49,2.18-3,4.35-4.51,6.51,0,0,.02-.17.02-.17,0,0,1.65,5.67,1.65,5.67l-.12.04h0Z"/>
        <path class="cls-6" d="M145.85,137.98c-.04-11.15-1.6-22.25-2.38-33.37-.32-3.75.76-7.44,1.49-11.08.76-3.66,2.06-7.24,3.98-10.44.88-1.63,1.74-3.27,2.26-5.02.4-1.84.9-3.67,1.84-5.3,1.41-2.9,3.55-5.45,4.78-8.41.56-4.51.03-9.16-.14-13.72,1.64,2.32,3.35,4.49,4.6,7.07,0,0,.16.39.16.39.03.09.14.17.02.1-.15,0-.01,0,.09-.09.11-.07.24-.17.39-.25.58-.36,1.36-.44,2-.28,1.21.33,2.32.7,3.39,1.57,0,0-.32-.12-.32-.12,2.62-.09,5.22.12,7.78.75,5,1.59,9.66,4.07,13.65,7.47,1.71,2.03,2.68,4.48,3.92,6.79,1.42,2.93,2.86,5.75,4.18,8.74.44,1.15,1.51,4.27,1.93,5.47,3.77,11.63,7.95,23.22,10.18,35.27.32,3.33-1.09,6.49-1.98,9.58-.58,2.53-.88,5.2-2.28,7.47-1.34,2.34-3.32,4.19-5.44,5.69-4.21,2.99-8.54,5.75-12.88,8.53l.19-.39c.78,8.56,2.27,25.92,2.95,34.49,0,0-.12.01-.12.01-.97-8.61-2.79-25.82-3.64-34.43,0,0-.03-.25-.03-.25,0,0,.21-.14.21-.14,4.28-2.82,8.59-5.65,12.71-8.67,3.08-2.19,5.56-5.15,6.39-8.86.42-4.34,2.96-8.51,2.69-12.93-2.23-11.93-6.39-23.47-10.02-35.04-.79-2.08-1.6-5.2-2.65-7.16-2.27-4.51-4.06-9.42-7.01-13.52-1.78-1.7-4.07-3.02-6.23-4.25-4.41-2.62-9.32-4.09-14.45-3.81,0,0-.17,0-.17,0,0,0-.15-.13-.15-.13-1.05-.75-3.04-1.89-4.38-1.19-.39.17-.45.47-1.08.42-.43-.16-.44-.39-.55-.54-.92-2.24-2.51-4.29-3.89-6.31,0,0,.69-.25.69-.25.13,4.2.56,8.44-.03,12.64-1.24,3.05-3.45,5.59-4.89,8.53-.94,1.62-1.42,3.38-1.83,5.18-1.1,3.6-3.5,6.6-4.81,10.07-1.22,3.49-2.01,7.14-2.69,10.78-.3,1.84-.64,3.65-.42,5.5.53,7.42,1.22,14.83,1.72,22.25.22,3.72.56,7.43.41,11.16,0,0-.12-.01-.12-.01h0Z"/>
        <path class="cls-6" d="M149.7,188.92c-.45-3.59-1.3-10.82-1.7-14.42-.49-4.39-1.33-10.34-.7-14.51,1.62,6.85,1.63,14.65,2.14,21.67,0,0,.38,7.25.38,7.25h-.12Z"/>
        <path class="cls-6" d="M201.15,144.76c-4.47,3.51-9.5,6.71-14.22,9.86,0,.03-13.89,6.34-13.9,6.36-4.65,2.08-9.25,4.21-14.02,6.09-2.48.83-5.06,1.13-7.64,1.17-1.68-.09-3.77.1-5.16-1.13-.52-.84-.45-1.91-.52-2.83-.11-2.55.06-5.15-.43-7.5-1.08-4.36-1.69-8.97-1.24-13.45.39-1.85.23-3.96,1.31-5.61.4-.55,1.19-.46,1.72-.35,2.2.49,4.3,1.37,6.43,2.03,1.13.32,2.25.77,3.41.49,1.11-.24,2.2-.86,3.34-1.44,3.35-1.83,7.31-2.19,10.21-4.81,2.05-1.56,4.32-3.32,7.1-3.18.67.05,1.32.26,1.86.28.51.03.8-.33.99-.92.62-1.4.09-3.32,1.08-4.68.51-.54,1.23-.5,1.89-.59.92-.3.86-1.44.75-2.27-.09-.62-.26-1.23-.47-1.82l.12-.05c.5,1.3,1.47,3.74-.28,4.51-.9.13-1.87.21-1.96,1.29-.3,1.54.24,5.05-2.1,5.26-.74,0-1.33-.19-1.92-.21-3.16,0-5.5,2.64-7.95,4.37-2.69,1.82-5.95,2.32-8.72,3.92-1.38.73-2.98,1.67-4.72,1.71-3.38-.28-6.37-2.12-9.66-2.7-.11-.02-.24.02-.13-.02-.66,1.24-.76,3.41-1.07,5.01-.48,4.31.06,8.8,1.04,13.01.64,3.27.09,6.37.53,9.53.06.23.06.42.25.57,1.25.73,2.88.69,4.36.75,2.49,0,5.04-.28,7.39-1.04,4.71-1.79,9.37-3.9,14.03-5.91-.03,0,14.06-6.19,13.94-6.13,3.53-2.22,7.37-4.76,10.85-7.1,1.18-.82,2.37-1.64,3.49-2.54,0,0,.08.1.08.1h0Z"/>
        <path class="cls-6" d="M181.1,126.56c-.81-7.49-1.3-15.03-2.19-22.5-.17-1.07-.22-2.28-.64-3.23-.44-.29-1.13,0-1.68.11-1.78.51-3.66,1.11-5.63,1.1-1.96-.04-3.81-.37-5.68-.61-1.64-.17-3.77-.63-5.22.07,0,0,.25-.43.25-.43-.26,9.48-.69,19.89-1.37,29.29-.22,3.25-.47,6.51-.77,9.76,0,0-.12,0-.13,0-.07-12.95.47-26.45,1.21-39.41,1.09-.65,2.28-.63,3.3-.57,2.81.19,5.63.93,8.4,1.04,2.34.13,4.56-1,6.93-1.21.28.03.63.06.89.36.21.26.3.59.35.8.22.97.31,1.9.42,2.84.39,3.76.61,7.52.87,11.29.25,3.76.49,7.52.8,11.28h-.12Z"/>
        <path class="cls-6" d="M143.6,104.48l2.09-9.07c.58-1.92.73-3.95,1.89-5.67,2.37-1.28,5.08-2.18,7.47-3.39,1.45-.63,2.58-1.51,3.79-2.5,0,0,7.29-5.78,7.29-5.78l-.08.93c-1.2-1.28-2.34-2.6-3.48-3.94-.51-.64-1.02-1.22-1.45-1.93-.03-.03-.33-.59.12-.99.96-.54,2.07-.03,3.06.14,0,0-.61.58-.61.58-.42-3.04-.79-6.09-1.08-9.14,0,0,.12-.02.12-.02.36,1.5.71,2.99,1.02,4.49.36,1.74.75,3.48,1.06,5.22-.91-.17-1.91-.44-2.83-.38-.07,0-.11.05,0-.03.27-.24.07-.55.15-.4.3.42,1.03,1.26,1.39,1.66.26.29,3.81,4.28,3.93,4.42,0,0-.55.41-.55.41l-7.47,5.56c-1.22.96-2.58,1.92-4.02,2.5-2.06.93-4.37,1.81-6.47,2.66-.33.15-.77.3-.97.46-.91,1.52-1.31,3.54-1.86,5.27,0,0-2.4,8.99-2.4,8.99l-.12-.03h0Z"/>
        <g class="cls-7">
          <path class="cls-6" d="M177.83,68.24c.45,14.3,2.41,29.22,2.19,43.53,0,0-.12.01-.12.01-.64-3.6-.95-7.22-1.28-10.84-.3-3.62-.36-7.26-.48-10.89-.12-7.18-.75-14.86-.29-21.8h0Z"/>
        </g>
        <g class="cls-7">
          <path class="cls-6" d="M171.1,79.91c.04,6.16,2.21,11.97,2.33,18.1,0,0-.12.03-.12.03-1.35-2.82-1.89-5.86-2.12-8.94-.31-3.05-.48-6.14-.21-9.2,0,0,.12,0,.12,0h0Z"/>
        </g>
        <g class="cls-7">
          <path class="cls-6" d="M166.54,58.5c2.29,1.13,3.39,3.9,3.96,6.24.11.83.12,1.67-.08,2.54l-.12.02c-1.41-2.11-1.19-4.66-2.34-6.84-.34-.71-.83-1.34-1.47-1.84l.06-.11h0Z"/>
        </g>
        <g class="cls-7">
          <path class="cls-6" d="M158.16,142.16c1.4,1.05,2.11,2.79,2.87,4.29.86,1.51,1.57,2.69,2.63,4.11,0,0-.06.11-.06.11-1.89-.29-3.07-2.13-3.49-3.83-.56-1.63-.93-3.27-2.03-4.58l.09-.09h0Z"/>
        </g>
        <g class="cls-7">
          <path class="cls-6" d="M179.99,130.88c.42-2.3,3.01-3.57,4.59-1.37,1.04,1.57,1.11,3.42,2.27,4.97,0,0-.06.11-.06.11-1.02-.25-1.76-1.09-2.24-1.96-.49-.78-.42-1.78-.82-2.58-.97-1.87-3-.76-3.63.86,0,0-.12-.04-.12-.04h0Z"/>
        </g>
        <g class="cls-7">
          <path class="cls-6" d="M185.21,126.5c4.67,2.18,6.13,7.75,7.07,12.39.63,2.78,1.84,5.34,2.97,8.01,0,0-.1.07-.1.07-1.36-1.44-2.43-3.12-3.25-4.95-.87-1.78-.89-3.87-1.25-5.78-.72-3.67-2.07-7.66-5.5-9.63,0,0,.06-.11.06-.11h0Z"/>
        </g>
        <g class="cls-7">
          <path class="cls-6" d="M196.29,122.93c3.25-.74,7.21-1.03,9.96,1.25.87.83,1.49,2.23.96,3.39,0,0-.12-.02-.12-.02-.51-2.16-2.45-3.09-4.32-3.9-2.05-.7-4.29-.74-6.45-.59,0,0-.02-.12-.02-.12h0Z"/>
        </g>
        <g class="cls-7">
          <path class="cls-6" d="M195.25,128.69c1.88,2.08,4.62,3.37,5.89,5.8,0,0-.07.1-.07.1-1.5-.29-2.57-1.26-3.44-2.42-.92-1.07-1.76-2.2-2.47-3.4l.1-.08h0Z"/>
        </g>
        <g class="cls-7">
          <path class="cls-6" d="M166.51,168.54c6.88-.5,13.48-2.32,20.3-3.28,0,0,.04.12.04.12-3.05,1.75-6.54,2.43-9.99,2.74-3.44.39-6.89.58-10.34.55,0,0,0-.13,0-.12h0Z"/>
        </g>
        <path class="cls-6" d="M131.84,168.61c-.58,6.5,1.39,12.86.96,19.35,0,0-.12.02-.12.02-1.12-3.11-1.44-6.37-1.46-9.64-.09-3.25-.12-6.54.5-9.75,0,0,.12.02.12.02h0Z"/>
        <path class="cls-6" d="M102.41,187.98c-.62-3.19-1.12-6.4-1.46-9.64-.41-3.24-.62-6.61.5-9.75,0,0,.12.02.12.02.22,2.86.4,6.83.38,9.66.11,3.23.31,6.47.58,9.69,0,0-.12.02-.12.02h0Z"/>
        <path class="cls-6" d="M136.93,127.56c.09-1.3-.45-2.51-.97-3.69-1.74-3.63-1.05-7.83-.15-11.56,1.79-7.61,3.66-15.21,6.55-22.5,1.78-4.23,5.06-9.76,7.32-13.8,1.28-2.26,2.59-4.49,3.73-6.82l.12.05c-.82,2.48-1.96,4.84-3.08,7.18-2.25,4.66-4.75,9.23-6.96,13.89-3.08,7.09-5.12,14.66-7.07,22.15-1.02,3.72-1.82,7.68-.23,11.33.48,1.2.99,2.47.86,3.79,0,0-.12,0-.12,0h0Z"/>
        <path class="cls-6" d="M135.74,64.29c-1.84,4.02,1.5,3.41,4.22,4,2.34.41,5.01,2.13,7.25.9.43-.35.82-.87,1.24-1.39,1.48-1.68,3.57-3.09,6.01-2.61.3-.06.57-.38.82-.64,1.23-1.48,2.11-3.26,3.07-4.96,0,0,.12.04.12.04-.31,1.3-.75,2.56-1.31,3.79-.62,1.22-1.45,3.27-3.18,2.94-2.67-.17-4.35,1.97-6.17,3.64-1.23.86-2.9.53-4.24.17-1.3-.39-2.51-.91-3.76-1.26-1.27-.44-2.64-.35-3.87-.97-1.48-.71-.95-2.57-.31-3.68,0,0,.11.05.11.05h0Z"/>
        <path class="cls-6" d="M135.74,70.04c.08,2.32.09,4.61-.16,6.9-.3,2.29-.89,4.48-.89,6.81-.09,1.14-.16,2.32-.59,3.43-.83,3.29-.95,6.8-1.28,10.18,0,0-.41-.14-.41-.14,3.38-5.13,6.58-10.36,10.34-15.24.95-1.2,2.15-2.22,3.2-3.31.33-.36.55-.72.49-1.09-.73-2.16,1.01-4.1,2.18-5.73,1.24-1.62,2.46-3.25,3.61-4.93,2.9-4.12,5.09-8.48,6.15-13.37.11,1.61.39,5.57.5,7.23,0,0,.01.17.01.17,0,0-.1.14-.1.14-3.28,4.77-6.79,9.45-9.61,14.5-1.29,2.72-1.46,5.87-3.29,8.36-.27.26-.77.44-1.12.42-.36,0-.5-.01-.54.02-.75.76-.89,2.32-1.6,3.2-1.91,3.23-4.87,5.55-6.45,8.91-1.04,2.62-2.41,5.07-3.8,7.51,0,0-.35,0-.35,0-.43-.02-2.59-.01-2.99-.02,0,0,.07-.65.07-.65,1.39-12.21,3.63-24.28,5.07-36.48,0,0,.18.38.18.38l1.37,2.82h0ZM135.62,70.07l-1.47-2.73.24-.04c-.87,12.1-2.88,24.09-4.08,36.15,0,0-.59-.65-.59-.65,0,0,2.33-.02,2.33-.02,0,0-.53.31-.53.31,1.01-1.84,2.03-3.7,2.91-5.6,1.37-4.11,4.96-6.98,7.16-10.54.65-.95.74-1.85,1.32-2.89.17-.27.39-.59.82-.8.93-.4,1.2.3,1.69-.71,1.33-2.71,1.84-6.22,3.55-8.87,2.84-4.5,5.97-8.81,9.05-13.14,0,0-.09.31-.09.31l-.27-4.52.9.08c-1.14,4.05-3.34,7.6-5.66,10.98-1.17,1.68-2.42,3.32-3.67,4.93-.84,1.17-1.9,2.36-2.22,3.77-.09.53.03.85.14,1.42.1,1.21-1.06,1.97-1.8,2.71-2.28,2.05-3.94,4.6-5.71,7.09-2.49,3.59-4.93,7.23-7.34,10.88.23-2.58.47-5.16.82-7.72.18-2.29,1.2-4.41,1.28-6.74.02-2.3.65-4.55.97-6.81.28-2.26.29-4.58.24-6.85h0Z"/>
        <path class="cls-6" d="M129.76,103.44l-2.27,11.7-.43-.54,1.61-.04-.47.35c.98-3.93,1.99-7.84,3.53-11.6,0,0,.32.43.32.43-.71-.06-1.45-.19-2.29-.29h0ZM129.68,103.34c.82-.12,1.84-.27,2.78-.32-.74,4.28-2.08,8.4-3.44,12.51-.6-.02-1.94-.05-2.53-.07,1.03-4.12,2.16-8.19,3.19-12.12h0Z"/>
        <path class="cls-6" d="M127.06,115.09c-2.34.14-2.36,1.88-1.68,3.67.66,1.5,2.09,2.66,3.45,3.51,0,0-.81.44-.81.44-.15-2.58-.1-5.14.45-7.68,0,0,.21.21.21.21-.53-.08-1.07-.12-1.61-.14h0ZM127.05,114.97c.59-.03,1.2-.07,1.79-.17,0,0,.03.24.03.24.54,2.89.35,5.78.14,8.68-1.74-1.25-3.5-2.65-4.25-4.73-.56-2.1-.14-3.81,2.29-4.02h0Z"/>
        <path class="cls-6" d="M122.07,145.15c-1.18-4.16-2.47-8.12-3.08-12.38-.04-.38-.04-.98.38-1.18,3.52-1.71,7.43-2.46,11.19-3.46,1.73-.4,3.47-.83,5.25-1.02,3.15-.19,3.78,3.71,4.35,5.94.34,1.35,1.23,4.83,1.55,6.14,0,0,.25,1.02.25,1.02.72,2.1-.91,4.2-2.82,4.84-5.59,1.63-11.39.84-17.08.11h0ZM122.15,145.06c3.69-.14,18.43,1.22,18.68-3.68.04-.52-.25-1.37-.34-1.88,0,0-.48-2.07-.48-2.07l-.93-4.14c-.55-1.99-.65-5.2-3.2-5.27-5.47.82-11.07,1.97-16.22,4.01-.28.14-.15.43-.18.71.46,4.13,1.7,8.31,2.66,12.32h0Z"/>
        <path class="cls-6" d="M111.15,157.86c2.77.73,5.49,1.87,7.82,3.59l7.05,4.96c.33.24.49.33.8.42,2,.33,4.16-.05,6.08-.66,1.66-.7,3.75-.58,5.29-1.01.45-.13.59-.23.67-.48-.17-.32-1-.29-1.41-.24,0,0-.29-1.2-.29-1.2,3.66-.99,7.59-1.62,11.31-.63,0,0-.02.12-.02.12-3.7-.3-7.42.54-10.89,1.68,0,0-.29-1.2-.29-1.2.93-.1,1.86-.18,2.62.68.41.5.27,1.31-.08,1.75-.42.54-.9.63-1.28.75-1.74.42-3.25.26-4.79.64-1.93.66-3.96.9-6,.81-.74-.02-1.7-.27-2.22-.77,0,0-6.84-5.2-6.84-5.2-2.22-1.8-4.84-3.02-7.56-3.88l.03-.12h0Z"/>
        <path class="cls-6" d="M114.45,140.35c1.59-2.35.55-5.44,1.71-7.93,1.48-1.76,3.33-.08,3.72,1.6.94,3.16-.21,6.12.18,9.1.33.77,1.19,1.44,2.07,1.93l-.04.12c-5.49-.85-2.3-7.27-3.18-10.88-.23-1.22-1.2-2.41-2.16-1.43-1.08,2.34-.5,5.43-2.22,7.57,0,0-.1-.08-.1-.08h0Z"/>
        <path class="cls-6" d="M117.3,142.94c-.01,2.77,3.38,3.4,5.5,4,4.11,1.3,8.11-.52,12.22-1.18,1.22-.18,2.84-.19,3.64.98.31.41.16,1.05-.19,1.39-1.28,1.21-2.94,1.65-4.51,2.31-1.6.55-3.04,1.39-4.69,1.79-1.66.42-3.39.41-5.04.32-1.66-.09-3.34-.09-5.03-.61-.41-.15-.88-.34-1.2-.81-.41-.59-.88-1.35-1.55-1.56-.29-.09-.57.01-.85.22-.47.31-.29,1.19.03,1.86,1.77,3.78,6.68,4.51,10.45,4.24,3.87-.19,13.09-7.07,15.55-2.24.6,1.75-1.41,2.47-2.54,3.11-2.61,1.35-5.15,3.01-8,3.84-3.84,1.11-7.41-1.6-11.09-2.22-.96-.18-2.29-.54-3.1-.18.05-.04.02-.18.04-.12,1.44,1.91,3.97,3.3,6.14,4.41.74.37,1.29.44,2.12.37,3.19-.33,6.38-1.43,9.31-2.81,1.52-.68,3.03-1.43,4.77-1.81.68-.13,1.52-.21,2.18.2,1.49.91.83,2.43-.37,3.22-2.63,1.97-5.67,4.21-9.18,3.91-3.37-.28-6.6-1.16-9.79-2.08l.03-.12c4.68.9,9.93,2.92,14.39.44,1.64-.99,3.45-2.17,4.75-3.62.15-.29.16-.44,0-.64-.43-.55-1.15-.47-1.81-.33-3.13.82-6.02,2.84-9.19,3.74-2.39.66-5.28,1.84-7.72.68-1.53-.76-7.56-3.99-6.77-5.98.38-.73,1.36-.84,1.88-.84,2.62.11,5.03,1.03,7.45,1.86,1.86.66,3.78,1.46,5.72.81,2.74-.8,5.2-2.35,7.75-3.64.46-.3,1.67-.79,1.95-1.16.36-.4.14-.99-.45-1.36-1.35-.84-2.98-.25-4.41.18-2.35.76-4.64,1.8-6.99,2.64-2.4.95-5.15.79-7.61.23-2.56-.5-5.03-1.92-6.12-4.4-.38-.84-.7-2.05.21-2.75.37-.29.95-.5,1.48-.33,1.43.39,1.48,1.98,2.78,2.41,3.83.81,8.34,1.25,12.03-.42,1.22-.73,7.68-2.24,6.85-3.92-.72-1-2.09-.97-3.23-.83-3.24.45-6.46,1.75-9.85,1.5-2.59-.48-8.14-1.29-8.04-4.7,0,0,.12,0,.12,0h0Z"/>
        <path class="cls-6" d="M136.03,146.47c-.52.34-.6.85-.17,1.24.17.17.44.18.58.35l.67.71v.12c-.72.72-1.83.22-2.1-.66-.42-.81.03-1.9.98-1.88,0,0,.04.12.04.12h0Z"/>
        <path class="cls-6" d="M139.8,152.67c-.54.53-.96,1.19-1,1.78-.01.31.16.43.18.58.03.18.21.45.5.87l-.03.12c-.68.44-1.84-.16-1.79-1.05.04-1.2,1.11-2.14,2.08-2.4,0,0,.06.11.06.11h0Z"/>
        <path class="cls-6" d="M139.78,159.27c-.5.32-1.13.89-1.14,1.44.02.1.06.12.11.07.01-.03.05-.02.12.06.17.15.51.28.89.6v.12c-.88,1.02-2.59.26-2.09-1.1.4-.9,1.22-1.25,2.08-1.33,0,0,.04.12.04.12h0Z"/>
        <path class="cls-6" d="M117.24,157.86c.95-.23,2.41.79,2.31,1.9-.05.49-.69,1.03-1.15.67,0,0-.02-.12-.02-.12.23-.44-.05-.5-.08-.59-.09-.1.02-.34-.06-.57-.14-.45-.46-.91-1.01-1.16,0,0,0-.12,0-.12h0Z"/>
        <path class="cls-6" d="M115.86,149.57c.63.23,1.1.83,1.24,1.51.07.35.18.78-.12,1.16-.32.49-1.32.62-1.28-.15,0,0,.1-.08.1-.08.23,0,.35-.14.23-.22-.1-.07-.13-.09-.14-.16-.03-.12.17-.29.22-.51.1-.44.01-.96-.32-1.46l.08-.1h0Z"/>
        <path class="cls-6" d="M116.14,135.58c.08-.37-.04-.8-.1-1.18-.03-.2-.18-.41-.08-.61.08-.15.34-.59.7-.6.34.21.47.44.54.66.07.35-.32.92-.47,1.29-.08.11-.48.75-.6.43h0Z"/>
        <path class="cls-6" d="M138.65,164.36c-.35.32-.66.67-.76.99-.02.08,0,.14.05.14.06,0,.04-.23-.08-.27-.09-.03-.1.06-.04.16.03.11.27.33.24.53-.29.36-.63.49-1.09.19-.98-1.02.79-1.99,1.64-1.85,0,0,.04.12.04.12h0Z"/>
        <path class="cls-6" d="M145.91,138.05c-1.78-.09-3.59-.07-5.32-.38-.57-.19-1.12-.42-1.65-.86,0,0,.02-.12.02-.12,1.24-.46,2.4-.24,3.56.19,1.14.32,2.28.66,3.41,1.05l-.02.12h0Z"/>
        <g class="cls-7">
          <path class="cls-6" d="M106.84,90.5c-.51,4.37,1.72,8.49,1.31,12.87,0,0-.12.03-.12.03-1.13-1.97-1.5-4.14-1.6-6.36-.13-2.18-.37-4.45.29-6.57,0,0,.12.03.12.03h0Z"/>
        </g>
        <g class="cls-7">
          <path class="cls-6" d="M110.13,82.81c-1.66,5.99-.77,12.19-1.14,18.32,0,0-.12.02-.12.02-1.19-2.95-1.2-6.18-.82-9.28.32-3.09.79-6.22,1.96-9.11,0,0,.12.04.12.04h0Z"/>
        </g>
        <path class="cls-6" d="M111.18,79.3c-4.78,5.87-14.43,18.61-4.6,24.03,0,0-.05.12-.05.12-12.26-3.69-.81-19.38,4.65-24.14h0Z"/>
        <path class="cls-6" d="M123.04,84.48c-4.07,5.78-8.21,18.52-17.07,16.73,0,0,.01-.12.01-.12,4.28-.29,7.17-3.36,9.77-6.46,2.55-3.26,4.66-6.91,7.19-10.21,0,0,.1.07.1.07h0Z"/>
        <g>
          <path class="cls-6" d="M105.56,100.35c-1.69-1.42-2.21-1.43-2.9,0s.66,2.02,2.9,1.85,0-1.85,0-1.85Z"/>
          <path class="cls-6" d="M105.52,100.4c-1.16-1.01-2.17-1.45-2.6.42-.12,1.15,1.91.68,2.72.74.26.03.39-.08.49.08.2-.35-.29-.96-.61-1.24h0ZM105.59,100.3c3.61,2.13-.71,3.35-2.83,2.01-1.23-.72-.64-2.24.2-3.02.97-.82,1.88.51,2.62,1h0Z"/>
        </g>
        <g>
          <path class="cls-6" d="M107.84,102.23c-1.73,1.1-1.38,1.84-.67,2.27s3.46,1.99,4.67,0-3.22-2.77-4-2.27Z"/>
          <path class="cls-6" d="M107.87,102.28c-1.07.63-1.79,1.61-.18,2.17,1.05.48,2.63,1.05,3.47.03.09-.13.23-.38.24-.53,0-.33-.23-.48-.52-.69-.8-.48-2-1.29-3.01-.98h0ZM107.81,102.17c1.18-.42,2.5-.53,3.7,0,1.84.83,1.27,3.05-.46,3.63-1.63.45-3.22-.35-4.39-1.4-.77-.93.49-1.77,1.15-2.22h0Z"/>
        </g>
        <path class="cls-6" d="M173.69,118.99c-.22-4.12,2.15-2.56,3.47-.1.97,1.95,1.36,4.22.44,6.34-1.24,2.26-3.06.75-3.38-1.16,0,0,.11-.06.11-.06.44.51.92,1.04,1.38,1.27.25.1.34.08.42-.02,1.35-2.21.99-5.62-.67-7.67-1.25-1.77-1.58.28-1.65,1.4,0,0-.12,0-.12,0h0Z"/>
        <path class="cls-6" d="M159.61,54.08c5.96-.21,6.61,9.79,7.14,14.1.57,5.66,1.51,11.29,2.51,16.89.94,5.63,2.36,11.15,3.26,16.79.91,5.64,1.65,11.29,2.32,16.96,0,0,.06.55.06.55,0,0-.56,0-.56,0-.38,0-2.31.02-2.63.02-.23-5.68-.75-11.38-1.69-16.97-.96-5.43-2.49-10.81-3.44-16.26-1.01-5.46-1.76-11.03-1.99-16.56-.54-5.43-1.33-11.17-4.98-15.52h0ZM159.73,54.12c.04-.07.12.08.18.11.19.2.37.37.54.57,3.29,4.15,4.34,9.58,4.99,14.72.46,5.55,1.2,10.97,2.35,16.41,1.02,5.47,2.55,10.78,3.46,16.29.87,5.52,1.3,11.07,1.47,16.65l-.51-.5h2.14s-.5.57-.5.57c-.61-5.66-1.28-11.32-2.13-16.94-.84-5.63-2.2-11.18-3.08-16.81-.92-5.63-1.78-11.27-2.27-16.96-.5-4.43-.87-13.71-6.64-14.1h0Z"/>
        <path class="cls-6" d="M171.76,118.93l2-.17h.06c.48.31,1.01.56,1.48,1.02,1.44,1.46,1.03,3.84.51,5.61-1.36-.05-2.7-.15-4.04-.6,0,0,0-.12,0-.12,1.19-.4,2.38-.54,3.57-.59l-.62.47c.36-1.38,1.07-3.03.08-4.29-.3-.38-.74-.7-1.16-1.08,0,0,.14.05.14.05l-2-.17v-.12h0Z"/>
        <path class="cls-6" d="M170.72,116.47c-2.5,1.07-.82,8.69.87,9.95-.04,0-.02.02.06-.14.52-1.46.25-3.14.24-4.69-.14-1.02.18-5.16-1.18-5.12h0ZM170.67,116.35c.27-.15.57.04.73.23.48.59.76,1.3,1.03,2,.88,2.36,1.11,4.96.48,7.42-.16.62-.61,1.52-1.42,1.4-2.63-.79-3.49-9.84-.81-11.06h0Z"/>
        <path class="cls-6" d="M128.49,40.79c-2.58-3.07-3.71-7.09-4.79-10.81-.62-2.43.5-4.99,1.28-7.23,0,0,.08.3.08.3-2.24-2.37.19-5.53,1.52-7.68,1.16-1.69,2.41-3.4,4.13-4.6.59-.39,1.32-.74,2.17-.65,0,0-.44.55-.44.55-1.09-4.46,7.58-5.13,10.56-5.88,4.21-.78,9.34-.2,12.01,3.61,0,0-.6-.26-.6-.26,3.21-.21,5.69,1.94,7.25,4.16,3.24,4.38,5.73,9.8,4.37,15.34-.35,1.92-.31,7.07-3.07,6.92,0,0,.01-.12.01-.12,2.53-.09,2.09-5.04,2.37-6.86.31-2.63.35-5.24-.74-7.72-1.75-3.89-5.11-10.57-10.01-10.47,0,0-.4.03-.4.03l-.21-.29c-2.4-3.45-6.92-3.95-10.83-3.33-2.91.57-6.24.92-8.87,2.38-.72.47-1.3,1.36-1.07,2.19,0,0,.17.63.17.63l-.61-.08c-2.45.12-4.22,3.03-5.61,4.83-1.2,1.95-3.55,4.69-1.75,6.88,0,0,.14.14.14.14l-.06.16-.85,2.3c-1.01,2.25-.83,4.78.09,7.02.88,2.95,1.84,6.06,3.84,8.46,0,0-.09.09-.09.09h0Z"/>
        <path class="cls-1" d="M133.6,25.14c3.3-1.65,6.82-1.76,8.47.66"/>
        <path class="cls-1" d="M147.78,25.8c5.39-3.3,7.15-1.32,8.36-.44"/>
        <path class="cls-1" d="M133.6,28.77s4.18-1.43,6.93,0"/>
        <path class="cls-1" d="M148.99,28.77c3.85-1.43,6.09,0,6.09,0"/>
        <path class="cls-1" d="M129.82,25.8c-.1,1.21-.51,7.15,2.46,8.25,2.97,1.1,7.04,1.1,8.25-.66,1.21-1.76,3.41-4.84,2.09-6.16-1.32-1.32-12.8-1.43-12.8-1.43Z"/>
        <path class="cls-1" d="M148.99,25.8c-2.28,1.37-2.51.99-2.25,3.41s1.37,5.14,2.69,5.6,6.92.89,8.68-1.09,2.69-5.79,2.09-6.49-9.61-2.39-11.22-1.43Z"/>
        <path class="cls-2" d="M140.53,36.91c.66-.44,2.09.55,2.09.55"/>
        <path class="cls-2" d="M146.13,38.22c.66-.99,2.31-1.1,2.31-1.1"/>
        <path class="cls-2" d="M141.13,35.19c-.38-.7-2.44-1.5-3.06,0s-2.62,3.56-2.99,5.56,0,2.43,0,2.43c0,0,.93,2.53.61,3.74"/>
        <path class="cls-2" d="M152.73,38.88c.55,1.32,0,5.83,0,5.83"/>
        <path class="cls-1" d="M150.97,41.8s-.44,2.58-1.98,3.46c-1.54.88-6.27.55-8.47,0-2.2-.55-3.46-2.97-3.46-2.97"/>
        <path class="cls-1" d="M137.06,42.29s2.8-2,5-1.55,3.63-.12,5.72,0c2.09.12,3.19,1.06,3.19,1.06"/>
        <path class="cls-2" d="M138.99,45.81c1.54.78,7.04,2.21,9.46,1.11,2.42-1.1,2.53-3.08,2.53-3.08"/>
        <path class="cls-2" d="M136.38,42.18s2.71-2.2,4.14-2.2"/>
        <polyline class="cls-1" points="138.45 41.8 138.45 43.24 149.43 43.83 149.43 42.18"/>
        <line class="cls-2" x1="148.44" y1="44.71" x2="138.99" y2="44.51"/>
        <path class="cls-2" d="M140.53,54.09c3.52,1.84,5.5,2.17,7.26.85s3.19-3.04,3.19-3.04"/>
        <path class="cls-2" d="M154.49,45.81s-.94,2.76-1.52,3.64"/>
        <path class="cls-2" d="M160.39,34.8c-.18,1.11,0,7,0,7"/>
        <path class="cls-1" d="M135.68,61.43c-.07,1.16,3.31,5.85,3.31,5.85"/>
        <g class="cls-7">
          <path class="cls-6" d="M156.19,9.81c1.63,1.85,1.73,4.75,1.75,7.09-.08.81-.29,1.58-.47,2.39l-.12.04c-.51-.78-.57-1.65-.66-2.44-.04-2.32.64-4.86-.59-6.99,0,0,.1-.08.1-.08h0Z"/>
        </g>
        <g class="cls-7">
          <path class="cls-6" d="M158.14,13.53c1.19.25,2.55,1.11,3.36,1.98.23.37.41.79.41,1.33l-.1.08c-.53-.1-.9-.32-1.24-.57-.84-.87-1.42-2.03-2.48-2.71,0,0,.04-.12.04-.12h0Z"/>
        </g>
        <g class="cls-7">
          <path class="cls-6" d="M157.42,11.33c.58-.05,1.75.1,2.16.54.14.23.24.51.13.92-.27.21-.78.08-.93.04-.21-.05-.26-.3-.41-.45-.28-.32-.61-.61-.98-.92l.04-.12h0Z"/>
        </g>
        <g class="cls-7">
          <path class="cls-6" d="M145.01,5.73c-1.05.78-2,1.7-3.08,2.38-.4.16-.82.27-1.37.25l-.08-.1c.29-1.03,1.05-1.51,1.96-1.78.82-.34,1.64-.64,2.5-.86l.06.11h0Z"/>
        </g>
        <g class="cls-7">
          <path class="cls-6" d="M154.44,10.77c-3.38-3.89-7.34-2.75-11.8-1.96,0,0-.06-.11-.06-.11,3.31-3.3,10.09-1.95,11.86,2.07h0Z"/>
        </g>
        <g class="cls-7">
          <path class="cls-6" d="M141.58,9.13c-1.46.42-3.24.36-4.41,1.36-1.09,1.08-1.63,2.48-2.75,3.66,0,0-.12-.04-.12-.04-.28-2.73,2.1-5.21,4.81-5.12,0,0,2.44,0,2.44,0,0,0,.02.12.02.12h0Z"/>
        </g>
        <g class="cls-7">
          <path class="cls-6" d="M134.95,10.77c-1.43,2.11-3.21,5.34-6.29,4.53,0,0-.03-.12-.03-.12,1.05-.94,2.12-1.22,3.25-1.93,1.01-.74,1.96-1.7,2.97-2.56l.09.08h0Z"/>
        </g>
        <g class="cls-7">
          <path class="cls-6" d="M133.65,16.93c-1.25,1.69-3.06,5.35-5.66,4.2,0,0,0-.13,0-.13,1.08-.69,1.74-1.24,2.81-1.88.93-.69,1.82-1.51,2.76-2.28,0,0,.09.08.09.08h0Z"/>
        </g>
        <g class="cls-7">
          <path class="cls-6" d="M135.63,14.1c.61-1.09.61-2.23,1.43-3.26.83-1.1,2.17-1.47,3.46-1.05,0,0,.03.12.03.12-.86.85-1.85,1.09-2.77,1.63-.79.64-1.22,1.93-2.04,2.63,0,0-.1-.07-.1-.07h0Z"/>
        </g>
        <g class="cls-7">
          <path class="cls-6" d="M128.71,25.53c-.07.95-.07,1.87.05,2.77.23.97.32,1.75-.05,2.76,0,0-.12.04-.12.04-.91-.71-1.05-1.78-.83-2.8.12-.98.39-1.94.83-2.8l.12.03h0Z"/>
        </g>
        <g class="cls-7">
          <path class="cls-6" d="M160.36,16.85c.86.74,2.21,1.78,3.08,2.55,1.08.85,2.17,1.93,2.11,3.46,0,0-.12.04-.12.04-1.1-.85-1.96-1.67-2.71-2.81,0,0-1.25-1.54-1.25-1.54-.4-.53-.85-1.03-1.2-1.62l.1-.07h0Z"/>
        </g>
        <g class="cls-7">
          <path class="cls-6" d="M160.93,22.85c1.57,2.19,4.26,5.64,2.03,8.25,0,0-.12-.04-.12-.04-.17-1.51-.32-2.65-.55-4.1-.32-1.36-.91-2.69-1.48-4.04l.11-.06h0Z"/>
        </g>
      </g>
    </g>
  </g>
</svg>