<?xml version="1.0" encoding="UTF-8"?>
<svg xmlns="http://www.w3.org/2000/svg" width="302.7" height="239.32" viewBox="0 0 302.7 239.32">
  <defs>
    <style>
      .cls-1, .cls-2, .cls-3 {
        fill: none;
      }

      .cls-2, .cls-4 {
        opacity: .5;
      }

      .cls-2, .cls-4, .cls-5, .cls-3 {
        mix-blend-mode: multiply;
      }

      .cls-6 {
        isolation: isolate;
      }

      .cls-7 {
        fill: #e53e51;
      }

      .cls-8 {
        opacity: .8;
      }

      .cls-9 {
        fill: #f9d2d7;
      }
    </style>
  </defs>
  <g class="cls-6">
    <g id="Layer_1">
      <g>
        <path class="cls-9" d="M233.84,44.5s-2.16-1.36-4.8-5.04c-2.64-3.68-2.24-12.33-1.84-18.49s6.32-12.33,11.45-13.61,16.41-.56,20.66,1.12c4.24,1.68,4.16.32,6.4,2.16,1,.82-1.76,5.6-1.6,8.73s-.4,2.56-2.08,4.88c-1.68,2.32-.72,6.08-.8,9.29s-5.84,5.52-4.48,9.45c0,0-2.74,1.65-1.46,4s1.71,1.39,1.71,1.39l-6.2,14.85-18.38-8.98s.32-4.81,2.35-6.95,0,0,0,0l-1.18-1.71.26-1.09Z"/>
        <path class="cls-9" d="M276.76,94.32s-1.82-1.28-2.67-6.41-4.81-10.37-4.81-10.37c0,0,.75-2.24-.64-3.63-.38-.38-.79-.48-1.23-.4l.05.29c-.21-2.67-4.27-4.92-4.27-4.92.11-2.35-3.1-6.2-3.1-6.2-.75-3.42-3.1-3.42-3.1-3.42-.11-4.17-3.21-4.92-3.21-4.92-.32-2.89-.96-5.24-4.81-5.24l-8.28-5.29-7.11,2.62c-1.07.75-1.39,2.78.21,2.89,1.6.11,5.34,2.99,8.12,4.27,2.78,1.28,13.14,9.83,17.1,15.71,3.95,5.88,8.23,12.18,8.23,12.18l-.43-.85c1.28,3.1.32,6.52,1.18,10.47.85,3.95,2.67,6.09,2.67,6.09l.32-5.13c-.32-3.63,1.18-4.49,2.89-.75,1.71,3.74,2.89,2.99,2.89,2.99,0,0-1.82-1.28-2.67-6.41s-4.81-10.37-4.81-10.37"/>
        <path class="cls-9" d="M238.04,8.71c-4.8,1.58-8.77,8.31-9.26,18.85s2.62,11.68,5.06,14.79-3.61,4.68,7.34,9.6-.4,1.28-5.38,3.95,6.12-3.5,20.02,14.31,7.49,18.16,9.91,26.26,5.56-9.26,3.02-15.82-23.23-32.33-25.64-34.57-5.24-9.25-.77-13.34-9.69-.41-7.45-5.28-6.85-1.01-1.64-8.73,9.59-11.59,4.8-10.01Z"/>
      </g>
      <path class="cls-3" d="M60.83,51.27c-.21,3.76-1.25,4.73-3.03,6.55s-.52,7.46-.52,7.46"/>
      <path class="cls-3" d="M45.67,60.79c1.46,2.3,3.49,6.48,5.04,7.42"/>
      <path class="cls-3" d="M55.71,57.02c-.52.42-.63,6.85-.63,6.85"/>
      <polyline class="cls-3" points="61.46 59.32 57.95 59.32 57.95 60.45 61.37 60.79"/>
      <g class="cls-5">
        <path class="cls-7" d="M40.71,53.39c-2.66,5.7-9.41.08-9.21-4.48,0,0,.12-.04.12-.04.71.92,1.22,1.87,1.85,2.72,1.57,2.79,4.77,5.34,7.13,1.74,0,0,.11.05.11.05h0Z"/>
      </g>
      <g class="cls-5">
        <path class="cls-7" d="M22.3,74.89c1.32-8.54,4.67-30.1,5.98-38.34.69-4.45,1.36-8.9,2.12-13.34,3.49.15,8.27.48,11.8.71,3.74.28,7.48.56,11.22.95,0,0,0,.13,0,.12-3.76.04-7.51-.02-11.26-.1-3.32-.07-7.97-.23-11.24-.37,0,0,.67-.54.67-.54-.71,4.25-1.5,8.49-2.27,12.73-1.55,8.03-5.18,30.16-7,38.16h0Z"/>
      </g>
      <g class="cls-5">
        <path class="cls-7" d="M61.52,41.13s.09,5.02.09,5.02c1.46,1.23,3.63,3.46,5.16,5.22,1.12,1.11.96,2.82-.57,3.51-1.06.49-2.54.13-3.46.85,0,0,.12-.41.12-.41.32,1.09.73,2.18.67,3.37-.01.16-.11.42-.22.52-.5.53-1.28.57-1.9.55,0,0,.49-.44.49-.44v1.15s-.32-.44-.32-.44c.86.21,1.25,1.3.92,2.03-.22.56-.33,1.04-.42,1.61-.16,1.09-.18,2.26.12,3.22.2.59.68,1.1.67,1.77.08,1.58-1.44,2.73-2.87,2.79-.68.05-1.33-.05-1.95-.21h.39c-.76.24-1.5.45-2.28.63-.74.17-1.53.3-2.3.31-.23-.09-.5.65-.63,1.39-.15.81-.41,1.77-1.21,2.25-1.92,1.78-4.53,4.64-6.39,6.55,0,0-.1-.08-.1-.08.9-1.24,1.83-2.47,2.79-3.67,1.08-1.3,2.11-2.72,3.42-3.89.75-1.39.15-3.87,2.53-3.8,1.34-.15,2.67-.55,3.94-.99,1.36.46,3.35.38,3.49-1.24-.01-.19-.04-.38-.15-.54-.84-1.39-.69-3.19-.45-4.65.11-.58.28-1.24.51-1.76.17-.44.05-.69-.26-.83l-.34-.15v-.29c0-.32.02-1.32.02-1.63.52.04,1.27.15,1.66-.19.03-.02-.01,0,0,0,0,0,0-.05.02-.07.04-1.08-.35-2.22-.64-3.29,0,0,.2-.13.2-.13,1.16-.87,2.45-.45,3.67-.87,1.14-.47,1.27-1.68.41-2.57-1.53-1.91-3.28-3.69-4.99-5.45,0,0-.05-.05-.05-.05v-.06s.09-5.02.09-5.02c0,0,.12,0,.12,0h0Z"/>
      </g>
      <path class="cls-9" d="M28.53,126.11c1.6,7.89,7.59,22.43,9.09,28.38s-3.5,13.92,3.03,20.19,9.08,8.28,5.98,11.23-1.09,11.17,2.98,12.18,6.09-1.46,6.09-1.46c0,0,.87,10.97-1.08,15.29s-1.91,10.6-2.2,14.47,4.41-7.8,4.43-11.4-.91-14.03,2.85-15.54,4.8-4.26,1.13-3.31-4.83-7.07-8.4-5.21,2.43-6.27-1.72-11.51-8.64-10.14-9.26-20.86-13.96-37.56-12.93-32.46Z"/>
      <path class="cls-9" d="M28.39,145.14c3.58,16.61,5.61,19.26,9.04,39.74,3.43,20.48,5.72,40.78,3.05,47.97s-2.67-22.46-4.95-22.5-3.51,30.01-6.95,27.75,10.76-59.8,2.76-65.14,3.32,14.1-3.31,26.49c-6.62,12.39-1.61,16.47-3.3,19.12s-5.12-27.78-2.08-29.25,1.92-7.41-4.4-11.44,2.09-12.08-2.05-25.58c-3.81-12.43-4.86-42.85,0-39.91s-2.73,14.98,4.5,16.87,6.56,10.6,7.7,15.87Z"/>
      <path class="cls-1" d="M66.31,174.81c3.08,1.85,7.6,11.51,6.58,14.59s-8.42,7.19-17.05,9.25c-8.63,2.05-8.42-.21-9.25-2.26s-5.34-11.51-3.7-13.15,21.37-9.66,23.42-8.42Z"/>
      <g class="cls-5">
        <path class="cls-7" d="M59.65,47.95l-16.86-2.83-.35-.06c.05-.52.16-1.62.22-2.14,2.9.62,5.84,1.11,8.78,1.57,2.79.44,5.59.83,8.36,1.32l-.73.56c.09-.87.22-1.74.34-2.6l.08-.57c.68.07,2.36.25,3.04.33-.02,1.9-.15,3.8-.24,5.7-.96-.05-1.92-.13-2.88-.19,0-.06.23-.98.24-1.08h0ZM59.75,47.88c0,.32,0,.67-.02,1.03,0,0-.14-.16-.14-.16.81-.05,1.61-.12,2.42-.16,0,0-.31.31-.31.31-.07-1.64-.18-3.27-.21-4.91,0,0,.48.52.48.52l-2.02-.1.62-.51c-.08,1.08-.17,2.19-.29,3.27-5.83-.86-11.58-2.02-17.33-3.34,0,0,.5-.35.5-.35l-.17,1.32-.32-.43,16.81,3.53h0Z"/>
      </g>
      <path class="cls-9" d="M48.19,21.59c-.64,3.76,4.52,6.73,4.24,15.16-.29,8.43-3.2,10.66-3.2,10.66,0,0,3.32.63,4.33-1.99,0,0,2.57-.14,2.68-2,0,0,2.93,1.06,4.08-.61,0,0,2.82,1.57,3.55-.63s0-8.78,0-8.78c0,0,2.93,2.72,2.4,6.9,0,0,2.2-6.48-3.76-12.75s-14.31-5.96-14.31-5.96Z"/>
      <path class="cls-9" d="M48.19,21.59c3.02,5.85,6.2,11.29,2.52,16.31-3.68,5.02-6.09,5.96-7.24,11.71s-.94,7.42-2.2,8.68c-1.25,1.25-1.78,1.46-1.78,1.46,0,0,2.61-3.33,2.09-7.57s-1.99-4.03-2.09-2.67-1.57,2.51-3.4,1.25c-1.83-1.25-3.08-2.82-3.08-2.82l-2.4,1.99s2.4,6.38,7,13.17c4.6,6.79,15.92,10.63,16.48,23.76,0,0-3.83-7.98-6.76-10.59-2.93-2.61-.19.73.79,2.51s2.38,7.84,5.97,11.39v1.25s-4.36-3.76-6.55-7c-2.2-3.24-10.76-5.75-11.45-6.9-.68-1.15-1.72,3.76,1.1,4.81,2.82,1.05,4.77.94,5.16.94s-2.86,1.46-5.47.42-3.24-2.4-2.93-6.9c0,0-3.45-2.51-5.44-.84-1.99,1.67-2.82,5.23-1.46,7,1.36,1.78,6.17-.63,6.17-.63,0,0-1.05,4.18-4.5,3.97-3.45-.21-5.23-.94-5.23-.94,0,0-3.55,1.57-.73,4.6,0,0-2.72-.31-2.82-3.03,0,0-3.14,2.09-5.96,1.67,0,0,5.85-2.72,6.48-6.9s-1.99-2.93-1.99-2.93c0,0,3.55-4.91,2.2-7.84s-4.39,2.51-4.39,2.51l-.84-1.16s2.61-3.12,1.88-4.06-3.45,1.25-3.35,6.38-.73,9.2-.73,9.2c0,0-1.99-9.93,0-14.32s7-7.71,5.23-11.64-2.51-7.49-1.15-10.94c0,0-1.57-3.35,0-4.6,1.57-1.25,1.15-3.66,1.15-3.66,0,0-2.2-.84-1.15-2.09s.84-2.13-.31-2.01-1.88,2.63-1.88,2.63c0,0-.63-2.3,0-3.45s-1.25-2.93.21-4.6c1.46-1.67,7.42-1.78,7.42-1.78,0,0-.1-2.09.63-2.3s1.78,1.67,1.78,1.67c0,0,2.4-5.64,5.02-7.42,2.61-1.78,6.79-1.36,6.59,0,5.15-.72,11.92-1.18,11.41,2.3Z"/>
      <path class="cls-9" d="M23.69,32.52c-8.61,7.67-4.51,13.16-5.15,18.53s3.3,11.18-.19,13.46.66,2.46,2.34,6.43,0,9.9,3.11,12.54-1.32-7.48,4-9.62,7.84,2.26,12.86,3.69-15.13-9.55-15.62-25.27,1.91-3.6,10.66-7.56-3.94-.45-7.54-4.3-.86-11.12-4.47-7.9Z"/>
      <g>
        <g class="cls-5">
          <path class="cls-7" d="M63.7,191.45c.8,4.1,1.71,8.22,1.73,12.44-.08,2.09-.34,4.14.26,6.19.86,4.02,2.95,8.19,1.95,12.39-.5,2.56-.41,5.35-1.55,7.8-1.61,2.17-3.48,4.28-6.04,5.38-.67.24-1.7-.24-1.74-1.13-.02-.79.32-1.26.66-1.77l.55.75c-1.53.47-7.51,3.25-7.11-.1.13-.47.33-.79.6-1.14l.51.9c-.95.15-1.88.27-2.86.27-.56.03-1.82-.17-1.6-1.14.48-1.22,1.76-1.82,2.75-2.57,0,0,.55,1.1.55,1.1-1.15.49-3.65.91-3.33-1.09.42-1.44,1.82-2.39,2.27-3.72.28-.7.2-1.37.12-2.12-.25-1.6-.42-3.48.08-5.09.53-1.64.85-2.9.5-4.59-.71-2.6.62-4.93,1.4-7.3,1.13-4.16-.37-8.94-.45-12.05.93,3.94,2.07,8.14,1.26,12.25-.32,1.58-1.2,3.07-1.35,4.62-.14,1.6.6,3.21.37,4.89-.22,1.71-.91,3.07-.81,4.73.03,1.17.36,2.43.36,3.68.07,2.03-1.7,3.37-2.5,4.95-.03.12.01.04-.06-.02.4.06,1.22-.12,1.71-.31,0,0,5.17-1.83,5.17-1.83-1.51,1.02-5.44,3.26-6.7,4.5-.09.08-.17.2-.17.22-.01.02-.01.02,0-.02.01-.04,0-.03,0-.11,0-.07-.08-.16-.09-.18-.01-.02-.03-.04-.06-.05.03.02.37.09.63.09,1.3.04,2.79-.23,4.09-.41-.31.39-1.2,1.32-1.31,1.79-.14,1.23,6.54-1.38,7.29-1.64-.4.55-1.55,1.75-1.52,2.43,0,.2.22.4.58.31,2.15-.91,4.16-3.01,5.57-4.89,1.08-2.3,1.04-4.99,1.57-7.51,1.02-4.17-.97-8.11-1.73-12.17-.56-2.06-.27-4.2-.15-6.29.06-4.17-.76-8.3-1.49-12.42,0,0,.12-.02.12-.02h0Z"/>
        </g>
        <g class="cls-5">
          <path class="cls-7" d="M64.77,224.34c-.03,3.34-1.34,8.54-5.42,8.76,0,0-.04-.12-.04-.12,1.36-1.21,2.36-2.35,3.43-3.77.93-1.44,1.56-3.12,1.9-4.88h.12Z"/>
        </g>
        <g class="cls-5">
          <path class="cls-7" d="M60.9,224.36c-.78,3.6-3.11,8.5-7.46,8.32,0,0-.03-.12-.03-.12,1.61-1.14,3.01-2.06,4.39-3.41,1.26-1.36,2.24-3.04,2.98-4.82,0,0,.12.04.12.04h0Z"/>
        </g>
        <g class="cls-5">
          <path class="cls-7" d="M57.19,222.52c.25,3.56-.84,7.52-5.03,7.79,0,0-.05-.11-.05-.11.59-.68,1.23-1.16,1.81-1.68.57-.52,1.22-.9,1.67-1.5.9-1.19,1.09-2.91,1.48-4.51h.12Z"/>
        </g>
        <g class="cls-5">
          <path class="cls-7" d="M66.35,174.75c2.88,2.23,4.41,5.74,5.81,9.01.61,1.72,1.26,3.48,1.01,5.36-1.81,5.5-13.36,9.07-18.61,10.27-2.45.43-6.6,1.55-7.95-1.45-.96-3.1-6.59-12.82-4.03-15.28,4.08-2.56,8.73-4,13.23-5.58,2.58-.84,5.17-1.64,7.82-2.22.9-.14,1.82-.43,2.72-.1h0ZM66.28,174.86c-.82-.27-1.77.05-2.6.21-2.62.64-5.14,1.63-7.63,2.63-4.24,1.85-8.68,3.53-12.63,5.93-.33.33-.22.82-.2,1.34.64,4.31,2.91,8.43,4.36,12.54,1.03,2.36,4.7,1.27,6.8,1,5.04-1.03,16.39-4.42,18.36-9.47.44-4.17-3.1-11.67-6.45-14.17h0Z"/>
        </g>
        <g class="cls-5">
          <path class="cls-7" d="M64.77,113.97c.81,5.29.94,10.65,1.05,15.99.06,10.67-.12,21.36-.39,32.02,0,5.17-.8,10.85.32,15.87,0,0-.11.06-.11.06-.63-1.23-.77-2.6-.97-3.92-.95-9.32-.32-18.71.06-28.04.44-10.59.79-21.63.04-31.98h0Z"/>
        </g>
        <g class="cls-5">
          <path class="cls-7" d="M44.69,183.47c-4.73-6.7-9.18-14.19-9.76-22.59,0,0-.32-4.12-.32-4.12-.83-6.88-5.05-12.56-6.71-19.4-.32-1.34-.34-2.8-.54-4.13-.44-2.66-1.45-5.23-2.65-7.64-.6-1.23-1.27-2.43-2-3.6l.1-.07c1.75,2.15,3.2,4.54,4.33,7.1,1.25,2.51,1.39,5.37,1.98,8.05,1.74,6.47,5.71,12.71,6.4,19.63.15,3.96.42,8.38,1.74,12.13,1.69,5.21,4.54,9.98,7.54,14.58l-.1.07h0Z"/>
        </g>
        <g class="cls-5">
          <path class="cls-7" d="M77.47,179.83c1.37,9.88-.64,19.81-3.14,29.33-2.34,9.6-3.87,19.26-5.08,29.07,0,0-.12,0-.12,0-.14-9.91,1.47-19.81,4.23-29.31,1.28-4.77,2.64-9.51,3.41-14.36.83-4.84.97-9.8.57-14.71h.12Z"/>
        </g>
        <g class="cls-5">
          <path class="cls-7" d="M52.18,84.83c4.71,4.66,9.44,9.29,14,14.11,4.47,4.88,9.16,9.75,12.27,15.66,2.55,6.25,2.39,13.1,2.72,19.71.26,9.89,0,19.9,1.78,29.66,3.01,22.33,6.37,46.9,7.97,69.09-3.4-24.02-6.59-49.75-9.74-73.86-.99-8.25-.62-16.62-.82-24.87-.26-6.48-.06-13.37-2.47-19.46-3-5.86-7.61-10.79-11.98-15.67-4.34-4.9-9.56-9.62-13.72-14.36h0Z"/>
        </g>
        <g class="cls-5">
          <path class="cls-7" d="M17.35,236.71c.29-13.83,1.12-27.8-.87-41.53-.54-3.41-1.3-6.81-2.53-10.03-1.35-3.21-2.11-6.7-2.17-10.2-.19-7.01,1.67-13.86,1.03-20.73-.22-3.41-1.45-6.81-1.97-10.18-3.66-24.42,4.17-48.39,10.04-71.82,0,0,.06-.23.06-.23,2.3.59,4.57,1.25,6.84,1.94,0,0-.03.12-.03.12-2.22-.56-4.45-1.09-6.69-1.55l.28-.17c-4.08,20.31-10.61,40.38-10.34,61.27.04,4.31.35,8.62,1.2,12.84.58,2.47,1.27,5.19,1.41,7.72.56,7.05-1.36,13.89-1.26,20.78.02,3.45.69,6.85,2,10.06,1.22,3.27,1.97,6.69,2.49,10.13,1.01,6.89,1.18,13.85,1.16,20.78-.16,6.86-.07,14.2-.65,20.8h0Z"/>
        </g>
        <g class="cls-5">
          <path class="cls-7" d="M26.29,107.31c-4.27,5.45-6.78,11.85-6.77,18.79,0,0-.12.02-.12.02-2-5.16.58-10.63,3.51-14.86,1.01-1.42,2.13-2.74,3.28-4.03l.1.08h0Z"/>
        </g>
        <g class="cls-5">
          <path class="cls-7" d="M48.09,207.07c-.76,9.38-1.48,18.81,0,28.15,0,0-.12.04-.12.04-2.1-4.35-2.18-9.38-1.73-14.09.34-4.74,1-9.43,1.73-14.11h.12Z"/>
        </g>
        <g class="cls-5">
          <path class="cls-7" d="M22.79,202.66c2.07,5.85,4.11,13.03,0,18.52,0,0-.12-.05-.12-.05.55-3.13,1.47-5.97,1.43-9.15-.08-3.12-.75-6.23-1.43-9.29,0,0,.12-.04.12-.04h0Z"/>
        </g>
      </g>
      <path class="cls-9" d="M142.04,204.99c4.48,6.12,9.61,19.77,9.17,15.6s2.49-18.91-.47-19.05-8.7,3.46-8.7,3.46Z"/>
      <path class="cls-9" d="M126.37,202.79c-4.26-3.33,7.03.65,10.55,3.5s8.63,13.22,7.99,14.29-14.38-14.99-15.34-11.76-.15,14.74-3.2,14.52,2.69-18.46,0-20.56Z"/>
      <path class="cls-9" d="M221.14,82.45c3.52,24.67,4.06,51.63,0,69.21s-4.22,27.8-1.49,32.73,8.14,9.01,14.91,9.19,1.12-5.97-6.89-7.58,10.94-29.3.03-23.95,5.6-22.49,3.18-31.46c-3.5-12.94,0-24.35-9.73-48.14Z"/>
      <path class="cls-9" d="M233.84,112.4c0,16.77,1.4,35.32,4.24,43.2s1.43,20.9,4.26,17.57,3.66,1.82,3.09,5.76.33,8.35,2.42,6.98-1.49-9.86,0-14.41-4.33-17.15-8.27-24.35-5.74-34.74-5.74-34.74Z"/>
      <path class="cls-9" d="M256.36,200.65c3.08,7.03,14.79,30.05,22.76,35.16s-.96-13.04-6.09-17.87-8.15-11.54,1.6-19.21,9.42-5.62-2.56-3.63c-11.98,1.99-16.58,3.56-15.7,5.55Z"/>
      <g>
        <g>
          <path class="cls-9" d="M137.07,51.22s1.36.96,1.6,3.53,3.29,3.21,3.93,1.76.96-4.09.08-6.09.4-3.61-.88-5.05c-1.28-1.44.64-1.04.24-2.08s2-2.48,1.84-4.57,4.41-2.73,6.25-3.05c1.84-.32,2.16.24,2.56,2s1.36,2.08,2.73,1.92c1.36-.16,1.76,2.97,1.84,1.76s.96-3.61-.64-3.69c-1.6-.08-2.24-1.36-.88-1.44,1.36-.08,2.56-1.44.24-1.84-2.32-.4-.4-.96-.88-2.16s1.36-1.12,2.32-1.2-.8-2.48-.08-2.16,1.68-1.12.32-2.24-.16-1.6.72-2.16-.48-2.08.8-1.92.56-.96,1.44-.72c0,0-3.06-4.14-3.67-4.35s-3.33-.6-4.64-1.91c-1.31-1.31-10.88-.4-11.59-.3s-2.22-.5-2.32-2.22-1.31-2.22-1.41-4.03-6.65-2.72-11.08-1.21c-4.43,1.51-6.95,4.33-6.95,4.33,0,0-4.33.2-3.63,1.41s1.61,3.22.71,3.12-4.03-.6-3.53,1.21,2.32-.2,2.52,1.21-.2,2.82-1.01,1.31-.4,1.91,0,2.92-2.52,3.02-1.61,8.26,3.73,4.13,3.73,4.13c0,0,.2,3.93,3.83,3.12,3.63-.81,5.24-2.52,5.24-2.52,0,0-2.32,5.24-.4,6.15s2.62,1.21,3.63,4.13,8.62,4.64,8.62,4.64Z"/>
          <path class="cls-9" d="M116.75,21.78c-3.11,0-3.58,9.43-.47,11.67s12.05-1.25,10.74,2.99.13,5.46,4.3,8.44,7.31,3.98,8.31,8.13,2.11-5.8,0-8.83-7.89-5.1-5.81-9.78,4.49-13.15.55-8.56-12.05,8.58-15.38,4.56,3.77-8.62-2.25-8.63Z"/>
          <path class="cls-1" d="M159.82,199.81c12.39-1.58,31.11-8.7,31.11-8.7,0,0-4.09-41.42-7.12-56.69-3.7-18.68-5.31-34.55-17.01-47.06s-19.08-19.88-34.54-18.83h0s-9.22,12.74-10.98,25.09-1.76,29.49-3.53,37.19-2.24,28.53-.32,35.75c1.92,7.21,6.25,21.64,6.25,26.45v7.69s19.56,1.76,29.49.16"/>
          <path class="cls-9" d="M120.96,125.3c-4.64,19.66-3.33,39.69,0,48.47s5.15,25.54,5.15,25.54l8.9.43s-4.99-6.79-11.02-28.2c-6.03-21.4-3.03-46.24-3.03-46.24Z"/>
          <path class="cls-9" d="M124.51,94.41c-2.65,14.83,6.44,23.61,5.23,35.6s.61,31.86,7.27,47.5,6.19,22.18,10,21.79-2.42-16.15-6.36-25.54c-3.94-9.39-3.33-19.81-4.54-26.9s-2.49-17.66-2.49-17.66c0,0-3.87-24.83-6.73-27.25s-2.38-7.54-2.38-7.54Z"/>
          <path class="cls-1" d="M124.65,89.61s-.16,4.65-.16,6.89,2.08,3.05,2.4,5.45,2.08,4.33,3.05,8.18c.96,3.85,4.17,16.19,3.69,19.08s9.78-4.49,11.7-4.33,13.14-1.28,14.75-.96-1.28-25.65-4.01-36.23"/>
          <path class="cls-9" d="M127.62,84.62c-1.37,5.27-2.73,10.55,0,13.5s5.73,22.98,7.26,27.8,9.1-3.31,7.89-8.78-13.12-31.94-11.81-40.27-2.27,3.64-3.33,7.75Z"/>
          <path class="cls-1" d="M151.98,73.26c-.32-1.44-.08-3.93.56-4.97s1.44-3.29,1.44-4.41,2.32-3.05,2.81-6.09c0,0,10.18,1.52,11.46,1.12,1.28-.4,1.76-5.69,1.76-5.69,0,0,1.68-1.44,1.44-1.76s-1.2-.56-1.2-.56c0,0,.64-1.76.8-2.32s-1.6-.88-1.6-1.92v-1.04l1.52.16s1.36-.96,1.28-2.16-5.61-4.89-5.61-4.89v-1.52l.88-.48.08-.48-1.2.32.08-1.6s1.2-.56,1.2-1.76-.48-4.25-1.6-6.49-4.57-4.65-5.45-4.89-.16.88-1.44.72.08,1.36-.8,1.92-2.08,1.04-.72,2.16.4,2.56-.32,2.24,1.04,2.08.08,2.16-2.81,0-2.32,1.2-1.44,1.76.88,2.16c2.32.4,1.12,1.76-.24,1.84-1.36.08-.72,1.36.88,1.44,1.6.08.72,2.48.64,3.69s-.48-1.92-1.84-1.76c-1.36.16-2.32-.16-2.73-1.92s-.72-2.32-2.56-2c-1.84.32-6.41.96-6.25,3.05s-2.24,3.53-1.84,4.57-1.52.64-.24,2.08c1.28,1.44,0,3.05.88,5.05s.56,4.65-.08,6.09-3.69.8-3.93-1.76-1.6-3.53-1.6-3.53c0,0,.96,5.61-.56,8.9-.19.41-1.44,5.13-4.25,8.42,14.03-.88,19.72,4.73,19.72,4.73Z"/>
          <path class="cls-9" d="M163.6,92.9s-6.17-9.54-12.34-17.87c-6.17-8.34-16.43-13.3-16.83-13.38s-1.84.64-.24,1.76c1.6,1.12,11.06,6.33,15.63,12.98,4.57,6.65,9.3,11.86,10.42,14.19s1.44,3.13,1.44,3.13"/>
          <path class="cls-9" d="M136.51,60.12c-.96-.48-2.89,0-1.6,1.2s9.62,6.25,13.79,10.1,13.87,11.22,15.71,13.87c1.84,2.64,6.17,6.41,6.17,6.41l.56-.56s-5.61-7.05-13.63-14.11-8.82-7.61-13.38-11.7-7.61-5.21-7.61-5.21Z"/>
          <g class="cls-8">
            <g class="cls-5">
              <path class="cls-7" d="M159.81,199.75c10.47-1.4,21.59-5.55,30.97-8.62-2.01-18.5-3.85-37.06-7.04-55.4-3.15-14.96-4.53-31.18-13.77-43.88-1.78-2.51-3.96-4.7-6.09-6.96-4.29-4.45-8.65-8.95-13.94-12.07-5.28-3.2-11.54-4.25-17.64-3.77,0,0,.37-.21.37-.21-3.11,4.65-5.88,9.61-7.95,14.81-1.03,2.6-1.9,5.27-2.46,8-.5,2.71-.83,5.62-1.08,8.35-1.12,11.23-1,22.7-3.31,33.79-.75,5.56-1.02,11.22-1.08,16.84.04,5.58-.05,11.32,1.38,16.73,2.09,8.24,4.84,16.35,5.85,24.83.06,2.88,0,5.67,0,8.51l-.29-.32c7.35.62,14.73,1.1,22.1.95,2.46-.06,4.92-.18,7.35-.53l.02.12c-9.78,1.36-19.72.76-29.53.1,0,0-.29-.02-.29-.02,0,0,0-.3,0-.3-.03-2.82,0-5.68-.08-8.46-.26-2.76-.94-5.53-1.6-8.26-1.82-8.27-5.33-16.32-5.79-24.84-.49-8.52-.39-17.05.73-25.54,1.12-5.57,1.77-11.11,2.08-16.78,1.01-11.23.5-23.01,4.92-33.61,2.18-5.28,4.89-10.32,8.22-14.96,0,0,.14-.19.14-.19,0,0,.23-.01.23-.01,6.26-.47,12.78.66,18.18,3.98,5.43,3.24,9.8,7.81,14.08,12.29,2.12,2.26,4.32,4.5,6.13,7.07,9.28,12.86,10.62,29.18,13.72,44.25,3.1,18.38,4.83,36.95,6.74,55.48,0,0,.01.12.01.12l-.11.04c-5.07,1.87-10.19,3.56-15.37,5.07-5.18,1.49-10.43,2.83-15.78,3.55l-.02-.12h0Z"/>
            </g>
            <g class="cls-5">
              <path class="cls-7" d="M180,110.64c-.5.55.13,1.36.75,1.1.01,0,0-.01-.07.02-.12.09-.13.1-.15.14-.01,0-.02-.01-.03-.03-.09-.21-.19-.42-.23-.64-.08-.22.19-.96-.27-.59h0ZM179.9,110.58c.26-.74,1.26-.32,1.52.15.31.56.38,1.47-.22,1.89-.61.27-1.32-.1-1.64-.64-.29-.54.13-.98.34-1.4h0Z"/>
            </g>
            <g class="cls-5">
              <path class="cls-7" d="M177.69,112.35c-.28-.15-.87.06-.7.38.08.27.91.34,1.17.14.05-.02.04-.05,0-.01-.08.04-.12.22-.08.29.07.12.12-.13.04-.32-.06-.21-.23-.4-.43-.48h0ZM177.72,112.23c.58.1,1.31-.15,1.59.74.17,1.06-1.01,1.3-1.75,1.01-1.51-.32-1.72-2.25.16-1.75h0Z"/>
            </g>
            <g class="cls-5">
              <path class="cls-7" d="M176.53,113.95c-3.01.28-11.58-14.52-13.4-17.52.54-.23,1.37-.63,1.9-.88,3.14,5.18,6.07,10.92,9.65,15.78.5.69,1.07,1.31,1.78,1.79,0,0-.05.12-.05.12-1.64-.74-2.76-2.18-3.89-3.49-3.24-4.07-5.89-8.57-8.2-13.23,0,0,.7.25.7.25,0,0-.98.35-.98.35,0,0,.25-.7.25-.7,2.57,4.74,5.33,9.45,8.44,13.87.8,1.08,1.6,2.18,2.62,3.06.33.27.74.57,1.14.48l.05.12h0Z"/>
            </g>
            <g class="cls-5">
              <path class="cls-7" d="M167.34,88.71c1.75,4.2,4.11,8.14,7.13,11.55,2.3,2.57,4.88,5.11,5.88,8.53.18.76.44,1.73-.1,2.52-.14.14,0,.12-.07-.15-.11-.17-.06-.06.04-.06.09.02.22.04.32.05l-.5.3c1.49-4.39-3.21-7.43-5.33-10.73-1.32-1.77-2.64-3.54-3.82-5.43-1.14-1.88-2.36-3.83-2.72-6.06l.12-.02c1.56,4.08,4.73,7.33,7.38,10.74,2.54,3.45,7.26,7.1,5.28,11.92,0,0-.14.33-.14.33-.29-.04-.61-.04-.89-.14-.17-.08-.41-.07-.67-.5-.17-.4.07-.71.24-.9,0,.01.04-.07.06-.17.04-3.91-3.27-6.96-5.59-9.83-2.74-3.45-5.55-7.89-6.65-11.95h0Z"/>
            </g>
            <g class="cls-5">
              <path class="cls-7" d="M160.73,88.67c-1.13-2.87-.19-5.26,3.16-3.72,2.09.97,3.66,2.85,4.09,5.11,0,0-.11.05-.11.05l-2.23-2.26c-1.2-1.4-4.84-4.63-4.94-.81,0,.52.07,1.05.15,1.58l-.12.03h0Z"/>
            </g>
            <g class="cls-5">
              <path class="cls-7" d="M164.74,96.25c-.51-1.04-1.02-1.98-1.47-2.9l.41.21-1.89.61.31-.69c.34.58.73,1.15,1.06,1.73.33.59.57,1.22.78,1.87l-.75-.16c.4-.22.91-.39,1.53-.68,0,0-.63.28,0,0ZM164.86,96.28c-.27.52-.87,1.27-1.39,1.78-1.18-1.39-1.79-3.09-2.49-4.73.38-.07,2.12-.38,2.53-.45,0,0,.32-.06.32-.06.38,1.17.71,2.39,1.02,3.46h0Z"/>
            </g>
            <g class="cls-5">
              <path class="cls-7" d="M163.55,92.93c-4.06-6.06-8.25-12.05-12.65-17.86-4.35-5.55-10.24-9.88-16.56-12.94.05,0-.05,0-.1.03-.19.1-.35.16-.24.35.32.52,2.62,1.73,3.18,2.13,4.68,2.95,9.26,6.18,12.63,10.7,1.08,1.53,2.05,3.02,3.13,4.49l3.24,4.4c1.56,2.23,3.47,4.35,4.51,6.91,0,0,1.04,2.54,1.04,2.54l-.12.05c-.9-1.6-1.53-3.32-2.69-4.71-1.09-1.44-2.27-2.84-3.43-4.25-2.33-2.8-4.56-5.76-6.69-8.68-3.27-4.24-7.76-7.54-12.23-10.5,0,0-2.3-1.48-2.3-1.48-.62-.37-1.77-1.28-1.18-2.25.39-.63,1.19-.9,1.82-.55,3.11,1.53,5.99,3.46,8.73,5.57,2.89,2.28,5.56,4.86,7.76,7.82,4.13,5.92,8.7,12.15,12.15,18.23h0Z"/>
            </g>
            <g class="cls-5">
              <path class="cls-7" d="M136.48,60.17c-.76-.44-2.73-.04-1.59,1.04,3.85,3.01,9.06,5.91,12.82,9.05,4.73,4.12,9.74,7.94,14.45,12.1,1.62,1.32,2.86,3.11,4.25,4.65,1.41,1.51,2.93,2.94,4.5,4.3,0,0-.7.02-.7.02l.56-.57-.04.69c-3.71-4.45-7.82-8.6-12.07-12.53-4.21-3.78-8.85-7.9-12.95-11.76-2.8-2.68-5.66-5.37-9.23-6.99h0ZM136.53,60.06c5.21,2.27,9.65,6.89,14.11,10.32,7.53,6.12,14.88,12.79,20.89,20.43,0,0,.29.37.29.37-.2.2-.69.68-.9.88,0,0-.35.34-.35.34l-.35-.32c-1.95-1.78-3.87-3.6-5.54-5.67-.93-1.3-1.9-2.37-3.09-3.45-3.06-2.82-6.32-5.46-9.5-8.18-4.62-4.28-9.5-8.17-14.76-11.63-.86-.6-1.74-1.15-2.54-1.86-.19-.18-.37-.42-.38-.72.15-.88,1.49-.8,2.11-.52h0Z"/>
            </g>
            <g class="cls-5">
              <path class="cls-7" d="M152.66,70.41c2.26,1.9,5.16,5.01,7.26,7.14,2.42,2.37,4.69,4.92,6.44,7.84,0,0-.07.1-.07.1-2.81-2.05-4.98-4.6-7.12-7.28-1.94-2.25-4.57-5.6-6.59-7.71,0,0,.08-.1.08-.1h0Z"/>
            </g>
            <g class="cls-5">
              <path class="cls-7" d="M169.72,93.19c2.03-5.29,9.41-1.42,7.64,3.38-.53,1.46-2.21,2.24-3.65,1.92,0,0,0-.12,0-.12.64-.23,1.2-.5,1.64-.86,1.24-1.12,1.3-3.18.46-4.59-1.03-1.35-3.19-2.32-4.71-1.11-.5.37-.91.89-1.25,1.44l-.11-.06h0Z"/>
            </g>
            <g class="cls-5">
              <path class="cls-7" d="M173.38,93.92c-.9-.06-.54,1.46.24,1.12.31-.11.17-.19.22-.29.15-.27-.04-.79-.46-.82h0ZM173.38,93.8c.56-.1,1.44-.09,1.67.66.44,1.33-1.37,2.02-2.29,1.27-.84-.65-.41-1.92.61-1.93h0Z"/>
            </g>
            <g class="cls-5">
              <path class="cls-7" d="M151.92,73.27c-.27-1.37-.2-2.78.15-4.14.67-1.73,1.7-3.4,1.73-5.32.12-.91.79-1.62,1.21-2.37.78-1.23,1.38-2.55,1.54-3.97,3.83.4,7.75,1.22,11.59,1.04,1.16-1.32,1.17-3.79,1.43-5.52.5-.47,1.09-.96,1.42-1.5.03-.02-.02-.07.02.15.08.14.05.08.06.09-.39-.27-.99-.38-1.45-.5,0,0,.17-.51.17-.51.16-.52.63-1.85.75-2.27,0,.07,0,.13.02.15-.37-.33-.99-.52-1.45-1.22-.22-.33-.22-.84-.22-1.02,0-.34-.01-1.05-.02-1.38.42.03,1.71.17,2.15.2,0,0-.4.1-.4.1.54-.42,1.05-1.1,1.01-1.6.04-.02-.23-.4-.48-.65-1.54-1.52-3.39-2.74-5.16-4,0-.27,0-1.57,0-1.86,0,0,0-.38,0-.38l.33-.18.88-.48s-.32.45-.32.45l.09-.48.77.7c-.49.14-1.54.37-2.02.5.05-.7.14-2.04.19-2.75.54-.22,1.15-.68,1.21-1.26.04-.53-.05-1.26-.14-1.9-.39-2.64-1.12-5.26-3.19-7.11-.96-.93-2.01-1.86-3.2-2.45,0,0,.03-.12.03-.12,2.54,1.09,4.92,2.93,6.11,5.5.85,2.01,1.42,3.97,1.45,6.19-.1.91-.69,1.6-1.48,2.03,0,0,.33-.49.33-.49l-.05,1.6-.75-.61c.52-.13,1.6-.47,2.12-.61-.05.34-.17,1.12-.23,1.45,0,0-.05.3-.05.3l-.27.15-.88.49.33-.55v1.52s-.28-.53-.28-.53c1.78,1.21,3.56,2.45,5.08,4.01,1.57,1.4.48,3.23-.94,4.18-.07-.02-1.62-.19-1.74-.21,0,0,.62-.56.62-.56.01.47-.06,1.17.04,1.23.22.5,1.66.87,1.51,1.78-.17.61-.65,1.82-.85,2.44,0,0-.34-.64-.34-.64.66.17,1.96.62,1.48,1.5-.41.69-1,1.15-1.54,1.64,0,0,.16-.3.16-.3-.18,1.49-.39,2.96-.9,4.42-.24.78-.82,1.78-1.8,1.68-3.72-.09-7.36-.76-11.02-1.3,0,0,.31-.23.31-.23-.31,2.14-1.75,3.8-2.76,5.58-.23.64-.16,1.34-.41,1.99-.31,1.35-1.13,2.57-1.61,3.8-.37,1.3-.48,2.71-.25,4.05,0,0-.12.03-.12.03h0Z"/>
            </g>
            <g class="cls-5">
              <path class="cls-7" d="M137.13,51.21c.57,2.95.92,6.16-.16,9.06-.78,3.08-2.05,6.3-4.67,8.31,0,0-.1-.08-.1-.08.72-1.4,1.37-2.74,1.96-4.13.85-2.06,1.93-4.12,2.54-6.31.47-2.23.5-4.55.29-6.82,0,0,.12-.02.12-.02h0Z"/>
            </g>
            <g class="cls-4">
              <path class="cls-7" d="M115.72,26.36c4.93,5.39,6.17,7.94,13.81,5.11,0,0,.06.11.06.11-4.22,3.92-8.27,2.66-11.46-1.67-.88-1.14-1.69-2.31-2.51-3.48,0,0,.1-.08.1-.08h0Z"/>
            </g>
            <g class="cls-4">
              <path class="cls-7" d="M113.91,29.58c3.21,5.28,5.17,6.46,11.36,5.53,0,0,.05.12.05.12-3.49,2.7-7.73,1.29-9.85-2.33-.65-1.05-1.17-2.15-1.66-3.26,0,0,.11-.06.11-.06h0Z"/>
            </g>
            <g class="cls-4">
              <path class="cls-7" d="M118.91,26.24c1.79,1.01,3.75,1.67,5.72,1.73,2.05-.03,3.88-.44,5.97-.56,0,0,.05.12.05.12-3.42,2.89-8.72,1.45-11.81-1.18,0,0,.07-.1.07-.1h0Z"/>
            </g>
            <g class="cls-4">
              <path class="cls-7" d="M136.02,16.94c-3.15,2.92-6.38,6.16-10.59,7.48-1.45.41-2.96.13-4.4,0,0,0-.03-.12-.03-.12,2.74-.78,5.34-1.25,7.88-2.7,2.49-1.35,4.79-3.05,7.06-4.76,0,0,.08.09.08.09h0Z"/>
            </g>
            <g class="cls-4">
              <path class="cls-7" d="M129.38,17.05c-3.65,2.24-6.68,5.33-10.68,6.94,0,0-.08-.1-.08-.1,1.24-1.85,3.06-3.05,4.99-4.04,1.86-1.05,3.76-2.04,5.71-2.91,0,0,.06.11.06.11h0Z"/>
            </g>
            <g class="cls-4">
              <path class="cls-7" d="M132.07,8.2c.2.39-.01.79-.19,1.1-1.46,2.1-3.63,3.58-5.58,5.18-2.18,1.9-4.63,3.36-7.06,4.9,0,0-.1-.08-.1-.08,2.79-4.34,8.11-5.98,11.8-9.39.42-.44,1.18-.99,1.01-1.66,0,0,.11-.06.11-.06h0Z"/>
            </g>
            <g class="cls-4">
              <path class="cls-7" d="M116.46,16.95c1.04.9.94,2.49.93,3.73-.02.64.05,1.27-.07,1.83-.08.59-.25,1.04-.11,1.7l-.08.09c-.34-.11-.68-.44-.8-.79-.72-1.6.36-3.17.38-4.76.05-.59,0-1.2-.33-1.72,0,0,.09-.09.09-.09h0Z"/>
            </g>
            <g class="cls-4">
              <path class="cls-7" d="M136.98,24.33c1.53,1.46,2.24,3.55,2.98,5.48.81,1.95,1.28,3.95,1.2,6.09,0,0-.12.04-.12.04-1.84-2.63-1.79-5.87-2.85-8.79-.31-.96-.68-1.92-1.3-2.73l.09-.09h0Z"/>
            </g>
            <g class="cls-4">
              <path class="cls-7" d="M134.73,28.49c4.17,3.09,6.59,8.56,5.58,13.72,0,0-.12,0-.12,0-.85-2.43-1.09-4.88-1.69-7.33-.65-2.43-2.1-4.51-3.84-6.31,0,0,.09-.09.09-.09h0Z"/>
            </g>
            <g class="cls-4">
              <path class="cls-7" d="M135.49,32.46c1.78,2.65,2.17,5.97,2.57,9.06.5,3.11.68,6.08,1.6,9.11,0,0-.11.06-.11.06-2.19-2.46-2.43-5.97-2.49-9.08-.17-3.09-.23-6.28-1.68-9.08,0,0,.11-.06.11-.06h0Z"/>
            </g>
            <g class="cls-4">
              <path class="cls-7" d="M131.74,31.49c2.47,2.13,3.77,5.42,3.73,8.66.1,2.78.05,6.58.67,9.32,0,0-.11.05-.11.05-3.16-4.1-.61-9.42-2.04-13.93-.45-1.47-1.3-2.81-2.33-4.01l.09-.09h0Z"/>
            </g>
            <g class="cls-4">
              <path class="cls-7" d="M130.25,34.48c.48.41.66,1.05.78,1.63.32,1.75.21,3.56.41,5.3.3,2.35.73,4.49.96,6.88,0,0-.12.05-.12.05-2.78-3.48-1.59-8.1-1.63-12.17-.04-.56-.12-1.15-.49-1.59l.09-.09h0Z"/>
            </g>
            <g class="cls-4">
              <path class="cls-7" d="M140.83,20.8c1.66,1.63,4.22,3.85,5.94,5.46,2.01,1.8,4.09,3.86,4.65,6.63,0,0-.12.05-.12.05-1.74-2.07-3.56-3.88-5.25-5.98-1.78-2-3.66-3.94-5.32-6.08l.09-.08h0Z"/>
            </g>
            <g class="cls-4">
              <path class="cls-7" d="M145,20.49c1.41,1.56,3.03,2.81,4.93,3.7,2.02.77,4.09,2.37,4.16,4.76,0,0-.12.05-.12.05-.71-.84-1.33-1.6-2.09-2.17-2.42-1.84-5.43-3.47-6.98-6.26,0,0,.1-.08.1-.08h0Z"/>
            </g>
            <g class="cls-4">
              <path class="cls-7" d="M141.97,18.43c3.45.03,6.83,1.45,9.61,3.4.9.66,1.79,1.29,2.7,2.05,0,0-.05.12-.05.12-2.36-.22-4.3-1.69-6.1-3.02-1.85-1.26-3.98-1.97-6.17-2.42,0,0,.01-.12.01-.12h0Z"/>
            </g>
            <g class="cls-4">
              <path class="cls-7" d="M142.17,16.83c3.25-.41,6.91-.24,9.93,1.18.97.49,1.88.85,3,1.17v.12c-2.26.8-4.45-.63-6.47-1.35-2.07-.69-4.27-.87-6.45-1,0,0,0-.12,0-.12h0Z"/>
            </g>
            <g class="cls-4">
              <path class="cls-7" d="M140.63,16.26c-1.38,5.71-5.81,15.68-11.79,17.57,0,0-.05-.11-.05-.11,2.76-2.27,4.75-5.15,6.88-7.99,1.95-2.96,3.76-6.1,4.84-9.5,0,0,.12.03.12.03h0Z"/>
            </g>
            <g class="cls-4">
              <path class="cls-7" d="M138.88,22.82c1.36.41,2.67.96,3.93,1.67,1.3.63,2.72,1.75,2.63,3.39,0,0-.12.04-.12.04-1.1-.94-2.05-1.61-3.07-2.6-1.06-.86-2.23-1.63-3.42-2.38l.05-.11h0Z"/>
            </g>
            <g class="cls-5">
              <path class="cls-7" d="M151.6,47.27c-3.68,1.5-7.24-2.52-7.38-6.03-.16-1.5.27-3.36,1.75-4.14.75-.41,1.63-.31,2.26.03l-.03.12c-.71,0-1.33.19-1.74.58-1.24,1.32-1.13,3.59-.78,5.27.65,2.41,3.22,4.86,5.89,4.05,0,0,.05.11.05.11h0Z"/>
            </g>
            <g class="cls-4">
              <path class="cls-7" d="M150.01,41.87c.73.48,1.08,1.3,1.14,2.16-.03.17,0,.41-.31.66-.3.23-.71.09-.77.08-.45-.11-1.03-.06-1.57-.47-.63-.4-.85-1.45-.09-1.85,0,0,.11.06.11.06.04.3.14.53.25.59.54.17.98.4,1.63.73.16.07.03.01-.05.1-.09.12-.02.06,0,0,.11-.61,0-1.45-.4-1.96,0,0,.07-.11.07-.11h0Z"/>
            </g>
            <path class="cls-2" d="M167.13,33.67s-2.73,1.04-4.73,5.21"/>
            <path class="cls-2" d="M166.97,41.28c1.28,1.44,2.97,4.33,1.2,8.09"/>
            <polyline class="cls-2" points="165.92 37.51 164.48 38.32 164.72 39.76 166.89 39.52"/>
            <g class="cls-4">
              <path class="cls-7" d="M265.06,24.5c-.43.37-.86.73-1.3,1.06l.18-.37c.15.47.29.94.46,1.41l-.64-.48c.76-.27,1.5-.14,2.22.27,0,0,.01.12.01.12-.77.77-1.76.88-2.75.67.03-.72,0-1.46-.02-2.18.58-.23,1.17-.43,1.77-.61,0,0,.06.11.06.11h0Z"/>
            </g>
            <path class="cls-2" d="M151.26,51.38c0,1.68-.64,2.97-.08,3.21s5.61,3.21,5.61,3.21"/>
            <path class="cls-2" d="M152.54,60.28c-.08,2.32-.24,6.89-.08,7.77"/>
            <g class="cls-5">
              <path class="cls-7" d="M124.71,89.61l-.09,6.62c-.16,1.75,1.34,2.9,2.05,4.36.57,1.58.74,3.18,1.64,4.66,1.02,1.96,1.78,4.11,2.27,6.26.82,3.12,1.67,6.54,2.36,9.67.52,2.68,1.28,5.45,1.09,8.23.01.01.01.03,0,.04.02-.02-.03-.01,0-.02,0,0,.07.03.17.02,1.27-.18,2.44-.92,3.62-1.5,2.2-1.13,4.32-2.55,6.71-3.45.29-.11.66-.15.99-.14,4.89-.1,9.77-1.23,14.68-1.07-.19-.08-.47.13-.47.17.03-.05.09-.34.11-.58.17-7.38-.93-14.78-1.75-22.11-.56-4.37-1.17-8.75-2.07-13.07,0,0,.12-.03.12-.03,1.25,4.25,2.06,8.61,2.81,12.97.73,4.37,1.31,8.75,1.78,13.16.25,3.05.62,6.14.38,9.22-.05.31-.05.58-.25,1.03-.06.11-.15.31-.49.45-.12.05-.31.05-.43.03-4.24-.07-8.5.62-12.75.82-1.06.11-2.02-.15-3.08.38-1.96.87-3.88,2.01-5.86,3.01-1.28.6-2.55,1.4-4.03,1.54-.34.02-.74-.12-.92-.46-.18-.41-.04-.93-.03-1.23,0-.26-.01-.53-.02-.79-.71-6.48-2.39-13.04-4.07-19.34-.67-2.12-1.98-3.97-2.42-6.18-.09-1.11-.59-2.05-1.25-2.94-.67-.88-1.25-1.98-1.14-3.12,0,0,.22-6.63.22-6.63h.12Z"/>
            </g>
            <g class="cls-5">
              <path class="cls-7" d="M151.73,126.26c1.39-.45,2.78-.87,4.15-1.34,1.35-.6,2.66-.93,4.16-1.05,0,0,.08.09.08.09-.93,1.37-2.49,1.74-3.99,1.93-1.45.25-2.91.42-4.37.49l-.02-.12h0Z"/>
            </g>
            <g class="cls-4">
              <path class="cls-7" d="M126.63,119.25c.77,3.49,1.22,7.06,1.49,10.63.41,4.41.16,8.92,1.23,13.19.26.86.67,1.45,1.18,2.21,2.85,4.57,5.22,9.39,7.32,14.35,0,0-.11.06-.11.06-3.1-4.73-6.1-10.03-8.94-14.94-.66-1.28-.81-2.73-.95-4.11-.29-3.61-.2-7.17-.35-10.73-.1-3.56-.38-7.12-.99-10.64l.12-.02h0Z"/>
            </g>
            <g class="cls-5">
              <path class="cls-7" d="M134.65,121.83c.62,6.29.64,12.68.46,18.96.24.99.82,1.9,1.28,2.85,1,1.89,1.46,4.05,1.51,6.17.29,7.33,1.18,14.81,4.11,21.59,2.47,5.83,5.32,11.53,7.46,17.52,1.58,3.98,1.98,8.36,1.68,12.6-.12,3.67-.55,9.02-.38,12.63.1.87,0,1.98.89,2.38,1.23.61,2.96-.7,4.06-1.31,0,0-.85,1.52-.85,1.52-.17.31-.24.75-.08,1.01.49.87,1.89.75,2.43-.06.07-.1.11-.19.14-.29.01-.1.02-.21.06-.3.05-.03-.11.06.2-.23.73-.19.72.39.7.22.14.96.5,1.91,1.35,2.15.82.31,1.54-.24,1.88-.95,0,0,.94.41.94.41-.23.63-.53,1.41-.27,1.91,1.54,1.25,2.59-1.12,3.05-2.38,0-1.32.26-4.19.25-6.06-.04-3.05.25-6.15-.93-9.01-1.18-2.8-2.48-5.86-3.46-8.72-4.02-11.87-6.38-24.19-8.79-36.46-.46-2.55-.98-5.15-1.23-7.73-.16-1.55-1.06-2.75-1.62-4.25-1.55-4.1-.28-8.45.68-12.47.92-4.04,1.31-8.19,1.54-12.34,0,0,.12,0,.12,0-.1,4.16-.36,8.33-1.15,12.44-.37,2.06-.94,4.07-1.13,6.1-.16,2.03-.06,4.11.7,5.97.56,1.39,1.6,2.82,1.77,4.43.94,6.68,2.5,13.26,3.93,19.85,1.89,8.09,3.62,16.24,6.35,24.05,1,2.95,2.26,5.78,3.43,8.68,1.22,2.96.94,6.37.94,9.48-.06,2.09-.17,4.17-.33,6.26-.51,1.41-1.23,3.26-3,3.56-.65.06-1.19-.19-1.68-.53-1.01-.82-.43-2.31-.09-3.2,0,0,.94.41.94.41-1.55,3.07-5.03,1.3-5.06-1.21-.02-.17-.04.41.69.22.31-.29.15-.2.2-.23l.02-.04c-.16,1.79-3.33,2.75-4.38.73-.32-.64-.21-1.33.13-1.93,0,0,.65.64.65.64-2.67,1.54-4.95.6-4.84-2.68-.15-3.7.31-8.98.47-12.71.31-4.24-.02-8.35-1.56-12.33-2.09-5.98-4.9-11.66-7.31-17.53-2.89-6.88-3.73-14.4-3.95-21.79-.03-2.12-.45-4.16-1.42-6.05-.44-.95-1.02-1.86-1.27-2.93-.13-2.12.28-4.22.18-6.36.02-4.22-.13-8.45-.47-12.66h.12Z"/>
            </g>
            <g class="cls-4">
              <path class="cls-7" d="M138.73,139.03c1.26,1.74,2.12,4.98.16,6.55,0,0-.11-.05-.11-.05-.4-1.72.43-3.14.19-4.83-.03-.54-.19-1.06-.35-1.6l.11-.06h0Z"/>
            </g>
            <g class="cls-5">
              <path class="cls-7" d="M153.56,211.68c.62,1.19.79,2.76.6,4.06-.15.44-.37.86-.81,1.22l-.12-.03c-.24-.5-.29-.95-.31-1.38.17-1.25.7-2.5.52-3.82,0,0,.12-.04.12-.04h0Z"/>
            </g>
            <g class="cls-5">
              <path class="cls-7" d="M157.84,214.26c.29.83.76,1.86.78,2.7-.07.31-.19.66-.57.95,0,0-.12-.02-.12-.02-.58-.57-.68-1.07-.49-1.77.07-.61.14-1.22.27-1.85h.12Z"/>
            </g>
            <g class="cls-5">
              <path class="cls-7" d="M162.32,212.33c.55,1.67.69,3.62.28,5.33-.22.56-.51,1.11-1.03,1.55,0,0-.12-.04-.12-.04-.26-1.25-.02-2.28.36-3.42.26-1.1.41-2.22.38-3.38l.12-.03h0Z"/>
            </g>
            <g class="cls-5">
              <path class="cls-7" d="M177.5,195.23c.46,1.47,2.3,1.21,2.67-.2.02-.05.06-.1.12-.14.04-.06.26.02.25.09.04.15.02.13.02.18-.03.58-.24,1.78.28,2.07.29.09.64-.06.89-.35.52-.58.84-1.42,1.15-2.23.56-1.92,2.1-.83,1.96.72.03.89-.7,1.69-.75,2.49.03.27.03.23.31.21,1-.17,1.83-1.22,1.53-2.24,0,0-1.03-4.22-1.03-4.22,1.01,1.95,3.21,5.01,3.53,7.06-.03-.02-.08-.05-.07-.04.04.01.24-.04.41-.13,1.32-.75,1.58-2.42,1.54-3.84-.01-1.07-.1-2.16-.31-3.23l.12-.04c.82,2.06,1.57,4.6.57,6.73-.49,1.15-2.61,2.75-3.43,1.01-.26-1.06-.69-2.1-1.25-3.13,0,0,1.12-.46,1.12-.46.37,1.72-.88,3.3-2.58,3.53-.27.03-.66.04-1.01-.24-.34-.29-.4-.71-.39-.99.06-1.2,1.41-2.31.67-3.43-.43.67-.82,2.13-1.66,2.89-.52.61-1.83.75-2.02-.27-.14-.59-.04-1.16.04-1.73,0,0,.02-.16.02-.16,0,0-.01-.08.02.01,0,.06.2.14.23.08.04,0,.07-.07.04-.02-.27.86-1.36,1.59-2.27,1.13-.45-.19-.72-.63-.84-1.06l.12-.03h0Z"/>
            </g>
            <g class="cls-5">
              <path class="cls-7" d="M174.4,188.07c1.63,5.99,4.85,18.03,6.42,24.03,1.07,4.01,2.2,7.99,3.12,12.03.97,4.07,1.57,8.35.72,12.48,0,0-.12-.02-.12-.02.13-4.13-.64-8.21-1.8-12.12-1.08-4-1.95-8.07-2.88-12.11-1.42-6.03-4.22-18.21-5.58-24.26,0,0,.12-.03.12-.03h0Z"/>
            </g>
            <g class="cls-5">
              <path class="cls-7" d="M153.33,233.42c-2.8-6.81-6.93-13.02-10.62-19.38-1.91-3.16-3.9-6.28-5.68-9.51-1.74-3.26-3.56-6.5-4.85-9.99l.11-.05c3.48,5.56,8.27,13.33,11.28,19.06,1.8,3.23,3.58,6.47,5.3,9.74,1.67,3.29,3.41,6.58,4.58,10.11l-.12.04h0Z"/>
            </g>
            <g class="cls-5">
              <path class="cls-7" d="M155.38,195.15c-.66,5.01-2.05,15.06-2.77,20.05-.86,6.7-1.91,13.37-3.64,19.92,0,0-.12-.02-.12-.02.4-6.76,1.49-13.42,2.77-20.05.88-4.96,2.7-14.96,3.64-19.92,0,0,.12.02.12.02h0Z"/>
            </g>
            <g class="cls-5">
              <path class="cls-7" d="M121.06,235.32c-.11-6.24,2.8-12.16,2.57-18.38-.34-7.99-.57-16.2,1.7-23.96,0,0,.12.03.12.03-.72,7.96-.88,15.93-.92,23.91.17,2.67-.68,5.4-1.29,7.97-.99,3.66-1.7,6.88-2.19,10.43h0Z"/>
            </g>
          </g>
        </g>
        <g class="cls-5">
          <path class="cls-1" d="M252.66,58.41c2.73-6.57,5.77-12.5,5.77-12.5,0,0,7.51-.69,8.96-2.53s-1.12-2.8,0-4.16.16-2.16.16-2.16c0,0,1.12-1.52.4-2.08s-.16-1.6-.16-1.6c0,0,3.04-1.04,3.04-2.32s-4.64-4.88-4.64-4.88c0,0-.88-2.4,0-3.2s.56-1.84-.24-2.88-.08-5.2-1.28-7.53c-1.2-2.32-8.57-3.84-8.57-3.84"/>
          <path class="cls-1" d="M289.8,150.85c-.43-14.32-7.69-46.81-11.97-57.49,0,0-5.13-12.93-8.59-18.52.51,1.28.04,2.71.04,2.71,0,0,3.95,5.24,4.81,10.37.85,5.13,2.67,6.41,2.67,6.41,0,0-1.18.75-2.89-2.99-1.71-3.74-3.21-2.89-2.89.75l-.32,5.13s-1.82-2.14-2.67-6.09c-.81-3.75,0-7.01-1-9.98-.95-1.41-4.58-6.76-7.98-11.82-3.95-5.88-14.32-14.43-17.1-15.71-1.55-.71-3.39-1.93-5-2.88l-4.51,2.88c-5.24,6.41-15.28,17.1-13.14,31.42,2.14,14.32,4.06,36.55,2.35,53.86-1.71,17.31-7.61,28.55-2.78,47.88.21.86,12.4,10.69,15.6,10.05,3.21-.64,14.11-1.71,14.11-1.71l15.39-1.5c.8-.4,1.46-2.92,1.7-6.41h.01c-.43,6.63,3.63,7.7,9.4,6.41,5.77-1.28,19.45-5.34,19.45-7.05s-4.27-21.37-4.7-35.69Z"/>
          <path class="cls-1" d="M255.39,47.59s-1.75-1.24-.88-5.12.69-5.87-.69-5.87-4.05-1.9-4.05-1.9h0c-3.71,7.68-10.7,7.51-10.7,7.51l2.65,1.46c3.21-.64,6.09-2.78,6.84.32s2.43,4.89,2.43,4.89c0,0,3.13.88,3.61,4.73l2.24-4.81-1.44-1.2Z"/>
          <path class="cls-1" d="M263.72,76.26c1.6-1.39,3.53-3.74,4.92-2.35,1.39,1.39,2.14,2.89,2.03,3.74s-1.82-1.07-2.99.85-1.39,1.6-1.39,1.6"/>
          <path class="cls-1" d="M236.9,121.04c-.32,3.95-1.07,5.13.53,7.48s.32,11.65,5.13,22.55c4.81,10.9,7.69,17.21,7.48,19.02s-1.92,9.4-.32,12.08c1.6,2.67-3.42,9.3-2.24,10.9,1.18,1.6,3.91-7.69,4.81-7.05s-1.07,6.73-2.24,8.34c-1.18,1.6,2.23,1.6,3.14.75,0,0-.26,1.71,3.16,1.28.85-.11,1.92.96,3.85-.64,1.92-1.6,3.63-7.37,3.1-13.79-.53-6.41-3.53-8.23-3.85-13.04-.32-4.81-2.07-8.87-4.17-18.59-2.09-9.72-.53-12.82-2.89-19.88-2.35-7.05-2.35-9.94-2.35-9.94"/>
          <path class="cls-1" d="M262.65,85.45c-1.71,8.55.85,32.27-1.5,32.27s-9.62,1.28-9.62,1.28l-.8-7.05-.32,8.66-13.79.8s-2.73-26.61-4.65-35.75"/>
        </g>
      </g>
      <g class="cls-8">
        <g class="cls-5">
          <path class="cls-7" d="M252.61,58.39c1.72-4.31,3.62-8.55,5.66-12.72,1.39-.16,2.78-.38,4.15-.67,1.72-.49,4.15-.68,4.98-2.41.17-.5-.08-1-.42-1.64-.15-.31-.34-.73-.27-1.22.18-.93,1.28-1.52.56-2.34,0,0-.31-.28-.31-.28.3-.43.88-1.25.74-1.73-.78-.58-.7-1.66-.27-2.42,0,0,.2-.08.2-.08.9-.39,2.41-.93,2.64-1.87-.93-1.73-2.96-3.08-4.47-4.36-.15-.11-.15-.09-.21-.28-.34-1.16-.71-2.15-.19-3.42.15-.38.64-.61.67-1.03.07-.52-.4-1.14-.73-1.64-.73-1.74-.28-3.63-.57-5.41-.11-.87-.28-1.86-.82-2.53-.58-.65-1.45-1.14-2.32-1.56-1.77-.83-3.65-1.47-5.56-2.02l.03-.12c2.96.57,6.1,1.08,8.51,3.1,1.72,2.06,1.15,4.98,1.63,7.4.04.2.11.42.17.5.48.7,1,1.38.92,2.41-.03.61-.43,1.07-.79,1.49-.25.61.02,1.72.23,2.4,0,0-.21-.28-.21-.28.72.58,1.41,1.16,2.09,1.79,3.31,2.97,4.04,4.64-.72,6.39,0,0,.28-.23.28-.23-.13.28-.25.66-.06.9.97.81.3,2.04-.25,2.81,0,0-.07-.62-.07-.62.73.65.63,1.76.13,2.45-.26.36-.41.51-.44.71.02.93,1.06,1.89.6,2.97-.96,2.13-3.65,2.29-5.59,2.79-1.35.25-2.71.42-4.08.54,0,0,.21-.14.21-.14-2.12,4.06-4.12,8.2-5.95,12.41,0,0-.12-.05-.12-.05h0Z"/>
        </g>
        <g class="cls-4">
          <path class="cls-7" d="M253.2,36.07c-2.77.91-6.57-2.3-4.44-5.04,0,0,.12.03.12.03.19.71.32,1.28.51,1.8.36,1.79,1.81,3.06,3.8,3.08,0,0,.01.12.01.12h0Z"/>
        </g>
        <g class="cls-4">
          <path class="cls-7" d="M253.23,32.46c-.33.47-1.06.33-1.51.07-.23-.14-.56-.3-.6-.63-.06-.29.12-.91.56-.84.64.51.6.13.71.73.15.29.39.59.76.57,0,0,.08.1.08.1h0Z"/>
        </g>
        <g class="cls-4">
          <path class="cls-7" d="M254.08,23.52c-.29,5.41-3.86,13.94-8.47,17.04-3.26,1.97-7.25,1.69-10.67,3.07-.57.26-1.01.74-1.04,1.42,0,0-.12,0-.12,0-.19-.71.26-1.5.85-1.91,2.89-1.83,6.46-1.98,9.55-3.24,3.66-1.5,5.59-5.42,7.35-8.8,1.1-2.4,2.22-4.93,2.42-7.59,0,0,.12,0,.12,0h0Z"/>
        </g>
        <g class="cls-4">
          <path class="cls-7" d="M244.71,15.82c1.18,3.04,3.68,7.14.91,10.04-2.49,2.39-4.52,4.85-5.87,8.09,0,0-.12-.02-.12-.02.05-1.77.64-3.5,1.57-5.04.85-1.54,2.48-2.58,3.7-3.71,2.61-2.48.41-6.39-.3-9.31,0,0,.12-.04.12-.04h0Z"/>
        </g>
        <g class="cls-4">
          <path class="cls-7" d="M243.82,21.16c-2.16,3.63-3.77,7.4-4.47,11.56,0,0-.12.03-.12.03-1.08-2.07-.23-4.51.85-6.36,1.02-1.92,2.27-3.67,3.64-5.3,0,0,.1.07.1.07h0Z"/>
        </g>
        <g class="cls-4">
          <path class="cls-7" d="M238.31,31.51c1.21,3.23-1.96,5.82-2.24,8.88,0,0-.11.05-.11.05-1.36-1.39-.18-3.5.8-4.67.88-1.27,1.66-2.62,1.44-4.22,0,0,.12-.03.12-.03h0Z"/>
        </g>
        <g class="cls-4">
          <path class="cls-7" d="M239.18,15.07c-1.64,3.63-4.54,7.11-3.92,11.3.12.95.36,2.06.3,3.18,0,2.15-1.67,3.87-1.88,5.85-.06.93.2,1.92.53,2.91l-.11.06c-2.77-3.43-.36-5.52.22-8.93.2-1.94-.38-4.21.24-6.2.79-3.1,3.03-5.49,4.5-8.22,0,0,.11.06.11.06h0Z"/>
        </g>
        <g class="cls-4">
          <path class="cls-7" d="M248.96,18.72c2.08,12.85-4.33,8.44-7.11,17.79,0,0,0,.13,0,.13-.23-.11-.19-.49-.22-.7-.08-2.46,1.16-4.93,3.1-6.44,1.4-.99,2.74-1.8,3.44-3.36.93-2.31.6-4.94.67-7.42,0,0,.12,0,.12,0h0Z"/>
        </g>
        <g class="cls-4">
          <path class="cls-7" d="M257.76,11.27c.54,2.83.81,5.91.05,8.74-.34.93-.84,1.87-1.66,2.51,0,0-.1-.07-.1-.07.38-1.92.74-3.62,1.19-5.49.33-1.85.43-3.76.4-5.68,0,0,.12-.01.12-.01h0Z"/>
        </g>
        <g class="cls-4">
          <path class="cls-7" d="M257.32,35.83c2.05-6.05.42-11.54-3.27-16.5,0,0,.08-.09.08-.09,5.62,3.15,5.98,11.68,3.18,16.6h0Z"/>
        </g>
        <g class="cls-4">
          <path class="cls-7" d="M255.76,24.87c.48,1.97.36,4.06-.09,6.02-.56,2.45-1.4,4.81-.24,7.03.72,1.46.45,3.35.01,4.74-.64,1.92-.3,3.69.62,5.47,0,0-.1.07-.1.07-.71-.72-1.36-1.58-1.68-2.62-.8-2.23.65-4.49.27-6.63-.11-.73-.49-1.38-.58-2.18-.32-2.13.54-4.08,1.09-6.04.59-1.89.87-3.87.57-5.85,0,0,.12-.02.12-.02h0Z"/>
        </g>
        <g class="cls-5">
          <path class="cls-7" d="M238.12,40.84c2.64,1.58,5.24,3.86,3.23,7.11,0,0-.12-.01-.12-.01-.27-.73-.34-1.42-.43-2.06-.1-.64,0-1.23-.26-1.78-.41-1.01-1.78-2.29-2.5-3.16,0,0,.08-.09.08-.09h0Z"/>
        </g>
        <g class="cls-5">
          <path class="cls-7" d="M250.2,49.25c-1.15-1.86-1.62-4.45-2.53-6.01-.5-.58-1.52-.14-2.57.08-1.06.24-2.21.52-3.38.41l-.02-.12c2.41-1.4,6.85-3.66,7.36.76.33,1.63.73,3.25,1.25,4.84,0,0-.11.05-.11.05h0Z"/>
        </g>
        <g class="cls-5">
          <path class="cls-7" d="M246.24,48.67c.05-.95.17-1.91.03-2.74-.29-.92-.55-1.39-.76-2.43,0,0,.08-.09.08-.09.58.06,1.06.39,1.39.86.78,1.41-.05,3.17-.63,4.44,0,0-.12-.03-.12-.03h0Z"/>
        </g>
        <g class="cls-5">
          <path class="cls-7" d="M233.22,44.93c1.45,3.45,5.39,3.6,8.44,4.76.46.19.95.39,1.36.76l-.06.11c-3.04.2-6.18-.78-8.39-2.94-.71-.75-1.25-1.67-1.47-2.65l.12-.04h0Z"/>
        </g>
        <g class="cls-5">
          <path class="cls-7" d="M236.41,43.09c1.05.96,2.02,2.09,3.03,3.07,1.12.98,2.16,1.23,3.45,2.04,0,0-.02.12-.02.12-1.55.57-3.35-.1-4.17-1.49-.9-1.21-1.6-2.43-2.39-3.66l.1-.08h0Z"/>
        </g>
        <g class="cls-5">
          <path class="cls-7" d="M243.69,47.5c.58,1.61,1.07,3.26,1.86,4.69.91,1.44,1.95,2.56,2.72,4.15,0,0-.08.09-.08.09-1.74-.63-2.99-2.1-3.54-3.82-.64-1.68-.86-3.38-1.07-5.08,0,0,.12-.03.12-.03h0Z"/>
        </g>
        <g class="cls-5">
          <path class="cls-7" d="M248.5,49.34c-.05,1.6-.24,3.21-.16,4.75.18,1.6.56,2.86.79,4.51,0,0-.11.06-.11.06-1.46-1.01-1.97-2.92-1.68-4.59.16-1.66.61-3.2,1.03-4.75,0,0,.12.02.12.02h0Z"/>
        </g>
        <g class="cls-5">
          <path class="cls-7" d="M241.24,49.33c.45,3.85,4.81,4.44,7.02,7,0,0-.06.11-.06.11-1.87-.17-3.48-1.04-4.79-2.34-1.33-1.18-2.52-2.92-2.3-4.77,0,0,.12,0,.12,0h0Z"/>
        </g>
        <g class="cls-5">
          <path class="cls-7" d="M251.28,51.04c.29,1.49.25,3.2.74,4.59.67,1.35,2.02,1.88,3.06,3.05,0,0-.05.12-.05.12-3.27-.02-4.43-2.42-4.07-5.37,0,0,.19-2.38.19-2.38h.12Z"/>
        </g>
        <g class="cls-5">
          <path class="cls-7" d="M248.98,49.05c3.54-.4,4.98,2.1,5.36,5.24,0,0-.42-.48-.42-.48.65.15,1.16.4,1.65.77,1.4,1.07,1.91,3.02,1.49,4.68,0,0-.12,0-.12,0-.44-1.4-1.03-2.75-2.17-3.67-.45-.4-.97-.68-1.5-.87-.03-3.09-.85-5.39-4.28-5.55,0,0,0-.13,0-.13h0Z"/>
        </g>
        <g class="cls-5">
          <path class="cls-7" d="M256.47,58.35c1.95.58,3.47,2.29,3.96,4.26,0,0-.07-.15-.07-.15,1.52,1.9,3.28,3.89,3.47,6.45,0,0-.33-.59-.33-.59,1.95,1.13,4.13,3.02,4.03,5.47,0,0-.12,0-.12,0-.82-2.19-3.04-3.36-4.87-4.59.18-2.35-1.48-4.52-2.77-6.39-.3-1.88-1.52-3.62-3.32-4.36,0,0,.04-.12.04-.12h0Z"/>
        </g>
        <g class="cls-5">
          <path class="cls-7" d="M257.16,61.21c-.08.9-.11,1.77-.06,2.62.18.93.18,1.65-.26,2.58,0,0-.12.04-.12.04-.86-.71-.91-1.74-.62-2.69.19-.91.49-1.79.94-2.58l.12.04h0Z"/>
        </g>
        <g class="cls-5">
          <path class="cls-7" d="M257.68,61.79c1.12,1.04,2.44,1.89,3.29,3.16.23.49.36,1.1.14,1.68l-.12.03c-.86-.73-1.33-1.27-1.82-2.23-.54-.83-1.1-1.66-1.58-2.55l.1-.08h0Z"/>
        </g>
        <g class="cls-5">
          <path class="cls-7" d="M262.72,69.43c.05,1.58.81,2.89,1.25,4.32.07.51.1,1.04-.08,1.63l-.12.04c-.48-.39-.76-.83-.99-1.3-.46-1.46-.59-3.21-.18-4.71,0,0,.12.01.12.01h0Z"/>
        </g>
        <g class="cls-5">
          <path class="cls-7" d="M263.68,76.21c1.22-1.07,2.26-2.95,4.12-3.08,1.48-.13,5.28,5.15,2.54,5.39-1.03-.14-1.61-.72-2.39.37-.39.47-.81.95-1.36,1.26-.09.02-.19.12-.35,0,.74-.64.82-1.99,1.65-2.69.65-.64,1.85-.47,2.53-.22,0,0,0,0-.09.02-.1.02-.28.21-.28.28,0,.06,0,.02,0,0,0-.04,0-.1,0-.15-.06-1.11-.93-2.3-1.69-3.16-.19-.19-.38-.33-.62-.36-1.57.07-2.7,1.56-3.99,2.46,0,0-.08-.09-.08-.09h0Z"/>
        </g>
        <g class="cls-5">
          <path class="cls-7" d="M266.88,80.62c1.26,2.64.91,5.73,1.32,8.53.51,2.79,1.39,5.38,2.51,8.02,0,0-.1.08-.1.08-2.33-1.95-3.33-5.05-3.41-8-.21-2.9.47-5.78-.45-8.58,0,0,.12-.05.12-.05h0Z"/>
        </g>
        <g class="cls-5">
          <path class="cls-7" d="M270.93,92.08c-.18-1.09-.21-4.31,1.66-3.06,1.62,1.33,1.82,3.86,3.65,4.9.14.08.34.04.31.05l-.02.68c-2.48-2.28-2.64-5.71-3.59-8.71-.9-2.86-2.24-5.62-3.71-8.36l.1-.08c2.16,2.3,3.85,5.03,4.85,8.05.88,2.97.71,6.76,3.3,8.88-2.89,1.67-3.64-3.79-5.15-5.09-1.34-1.06-1.32,1.93-1.28,2.73,0,0-.12.01-.12.01h0Z"/>
        </g>
        <g class="cls-5">
          <path class="cls-7" d="M233.62,46.5c-1.02.75-1.3,2.74.38,2.72,2.84.78,5.18,2.85,7.83,3.99,1.98.96,3.65,2.3,5.36,3.59,4.18,3.35,8.28,6.87,11.62,11.09,3.04,4.41,5.83,8.91,8.5,13.56,0,0-.1.07-.1.07-2.68-3.33-5.14-6.8-7.61-10.27-3.45-5.29-8.08-9.76-12.91-13.83-1.64-1.32-3.28-2.71-5.12-3.66-2.66-1.27-4.82-3.36-7.6-4.28-.23-.05-.56-.07-.81-.23-.55-.31-.65-1.02-.5-1.53.13-.54.45-1.02.9-1.34,0,0,.07.1.07.1h0Z"/>
        </g>
        <g class="cls-5">
          <path class="cls-7" d="M234.28,48.4c-.77,1.63-1.47,3.41-1.55,5.21,0,0-.41-.32-.41-.32,3.13-.8,6.81-.8,9.57,1.09,0,0,1.59,1,1.59,1,1.07.65,2.13,1.31,3.26,1.91l-.03.12c-2.57-.24-4.88-1.6-7.06-2.8-2.16-1.05-4.81-1.1-7.16-.68,0,0-.44.08-.44.08.11-2.07,1.09-3.93,2.12-5.66,0,0,.11.06.11.06h0Z"/>
        </g>
        <g class="cls-5">
          <path class="cls-7" d="M272.44,82.43c2.85,5.22,5.83,10.41,9.34,15.2,1.14,1.43,2.14,3.46,4.06,3.84,0,0,.02.12.02.12-3.56.44-6.81-5.68-8.29-8.33-1.94-3.51-3.64-7.13-5.24-10.78,0,0,.11-.06.11-.06h0Z"/>
        </g>
        <g class="cls-5">
          <path class="cls-7" d="M274.68,84.67c2.64,3.85,5.37,8.36,8,12.2.88,1.22,1.57,2.87,3.01,3.48,0,0,0,.12,0,.12-.89.12-1.7-.5-2.33-1.04-1.9-1.66-3.07-3.9-4.22-6.07,0,0-2.29-4.31-2.29-4.31-.74-1.45-1.49-2.89-2.27-4.31l.11-.07h0Z"/>
        </g>
        <g class="cls-5">
          <path class="cls-7" d="M278.04,87.39c2.43,2.53,4.69,5.22,6.67,8.16,1.17,1.85,2.76,3.91,2.55,6.32-.29,2.02-2.68,1.56-3.83.84,0,0,.04-.12.04-.12,1.79.17,3.27.24,2.49-1.92-1.55-4.84-5.28-9.25-7.91-13.29h0Z"/>
        </g>
        <g class="cls-5">
          <path class="cls-7" d="M279.8,91.08c1.39,1.64,2.73,3.33,3.99,5.09.97,1.37,2.12,2.74,2.07,4.59-.05.93-.98,1.12-1.64.68,0,0,.03-.12.03-.12.39-.07.9-.06.73-.54-1.46-3.29-3.45-6.47-5.28-9.62,0,0,.1-.07.1-.07h0Z"/>
        </g>
        <g class="cls-5">
          <path class="cls-7" d="M281.52,101.31c-.38.85,1.6,1.55,1.84.68.02-.11-.27-.28-.6-.52-.32-.25-.88-.68-1.24-.17h0ZM281.41,101.25c.77-1.93,3.72-.69,2.84,1.21-.95,1.46-3.2.38-2.84-1.21h0Z"/>
        </g>
        <g class="cls-5">
          <path class="cls-7" d="M286.68,98.43c-.78-.06.31,1.38.58,1.46.03.02.02-.02,0-.01,0-.01-.13-.04-.17,0-.15.06-.13.06-.13.01.01-.1.02-.2.02-.29,0-.18.02-.34.04-.43,0-.09.15-.15.11-.34-.04-.19-.25-.36-.46-.39h0ZM286.69,98.31c.23,0,.47-.09.81-.05.35.03.73.41.78.76.1.5-.05.85-.26,1.24-.09.15-.16.37-.51.54-1.18.43-2.01-2.33-.82-2.48h0Z"/>
        </g>
        <g class="cls-5">
          <path class="cls-7" d="M232.46,53.65c-8.26,9.61-15.44,20.15-12.61,33.43,1.28,8.81,2.13,17.68,2.59,26.57.5,10.67.51,21.45-1.15,32.03-1.65,10.46-4.54,20.89-3.44,31.55.24,2.99.82,6.38,1.5,9.28,0,.04.03.15.02.08-.03-.06,0-.01.02.02.02.03.04.06.08.1,2.62,2.61,5.7,4.83,8.76,6.95,1.82,1.13,3.66,2.48,5.77,2.82,4.79-.64,9.71-1.08,14.54-1.45,0,0,.01.12.01.12-4.41.54-8.82,1.09-13.2,1.81-2.74.74-5.35-1.33-7.6-2.58-3.21-2.07-6.33-4.29-9.1-6.96-.12-.11-.37-.48-.37-.65-.74-2.95-1.39-6.39-1.68-9.44-1.11-10.77,1.74-21.34,3.58-31.84,1.77-10.5,1.85-21.19,1.44-31.82-.37-8.87-1.16-17.73-2.33-26.53-.94-5.28-.65-10.84,1.33-15.85,2.53-6.63,7.2-12.74,11.85-17.65h0Z"/>
        </g>
        <g class="cls-4">
          <path class="cls-7" d="M263.91,193.54c.5-.34.69-1.02.88-1.61.51-1.85.64-3.79.71-5.71.36-7.78-2.08-15.21-4.45-22.52-3.12-9.8-6.32-19.8-6.79-30.16,0,0,.12-.01.12-.01,1.8,10.15,4.92,19.95,7.62,29.88,2.21,7.41,4.51,14.99,3.87,22.82-.12,1.93-.32,3.89-.9,5.75-.22.6-.41,1.28-1.01,1.67l-.06-.11h0Z"/>
        </g>
        <g class="cls-5">
          <path class="cls-7" d="M265.71,187.19c-.58,7.76,5.69,7.41,11.32,5.74,5.19-1.41,10.45-2.9,15.34-5.14.64-.34,1.46-.69,1.8-1.24.01-.08-.02-.29-.03-.43-.69-4.24-1.59-8.77-2.28-12.99-1.11-6.69-2.07-13.42-2.49-20.2-.13-2.35-.32-5.76-.6-8.07-.82-6.66-1.99-13.4-3.28-19.98-2.12-10.59-4.31-21.23-7.7-31.5,0,0,.12-.05.12-.05,2.09,5.01,3.61,10.24,5.04,15.47,2.79,10.49,5.1,21.11,6.53,31.88.5,3.78.87,8.38.96,12.19.31,6.75,1.21,13.45,2.23,20.13.64,4.23,1.5,8.8,2.13,13.04.32,1.29-1.3,1.84-2.15,2.31-5,2.2-10.25,3.59-15.52,4.94-3.59.88-9.21,2.24-11.07-2.07-.5-1.29-.55-2.69-.46-4.04h.12Z"/>
        </g>
        <g class="cls-5">
          <path class="cls-7" d="M262.72,85.46c-1.02,6.97-.37,14.08-.28,21.11-.01,3.56.41,7.15-.41,10.66-.1.23-.17.49-.48.72-.17.13-.46.13-.51.13-3.31.2-6.59.86-9.86,1.42,0,0-.05-.44-.05-.44l-.85-7.05.93-.04-.25,8.66s-.01.48-.01.48c0,0-.49.03-.49.03l-13.78.91s-.61.04-.61.04l-.06-.62s-1.89-17.92-1.89-17.92c-.57-5.25-1.36-12.73-2.18-17.88,0,0,.12-.03.12-.03.71,2.93,1.25,5.89,1.73,8.86.85,5.13,1.85,12.63,2.51,17.87.34,2.99.7,5.97.99,8.97,0,0-.68-.58-.68-.58l13.79-.7-.5.52.39-8.65.93-.04.75,7.06s-.49-.37-.49-.37c3.22-.5,6.43-1.09,9.69-1.22.05-.02.16-.2.22-.37.79-3.35.47-6.98.54-10.42-.03-3.52-.09-7.05-.06-10.58.06-3.52.08-7.07.73-10.56,0,0,.12.02.12.02h0Z"/>
        </g>
        <g class="cls-4">
          <path class="cls-7" d="M235.61,115.17c-1.63-8.79-5.07-17.06-6.89-25.8,0,0,.12-.04.12-.04,2.15,3.97,3.45,8.27,4.42,12.65.88,4.02,2.25,9.33,2.35,13.19h0Z"/>
        </g>
        <g class="cls-5">
          <path class="cls-7" d="M236.96,121.04c-.06,1.98-.8,4.08-.18,6.01.23.73.76,1.32,1.05,2.02.43,1.21.53,2.51.69,3.77.42,4.05.93,8.08,2.04,11.99,2.31,7.8,6.6,14.85,9.26,22.57.31.97.7,2.1.5,3.13,0,0-.48,3.01-.48,3.01-.29,2-.52,4.02-.39,6,.06.84.2,1.67.59,2.4.66,1.16.34,2.56.03,3.65-.61,2.43-2.22,4.6-2.33,7.01,0,.15.18.28.05.2,1.28-1.42,1.98-3.8,2.93-5.61.29-.51.53-1.23,1.17-1.63,2.91-.62-.8,8.38-1.58,9.36.56.39,2.01.18,2.5-.23,0,0,.93-.77.93-.77l-.05,1.24c.12.77,1.4.75,2.07.7,0,0,.31-.03.31-.03.57-.14,1.4.2,1.76.2,3.34-.02,4.17-5.15,4.64-7.79.45-3.42.43-7.02-.62-10.31-.77-2.49-2.39-4.88-2.87-7.56-.52-6.22-2.6-12.16-3.87-18.27-.78-3.49-1.36-7.07-1.5-10.65-.14-3.56-.28-7.09-1.37-10.5-1.02-3.41-2.07-6.87-2.29-10.46h.12c.36,3.53,1.54,6.93,2.68,10.3.58,1.7.98,3.47,1.22,5.26.5,5.33.77,10.63,2.15,15.83.8,3.47,1.76,6.88,2.69,10.34.76,2.56,1.1,5.27,1.39,7.93.48,2.63,2.01,4.79,2.82,7.41,1.76,4.47,1.5,19.78-5.32,19.6-.73-.1-1-.29-1.53-.22-.9.07-1.72.11-2.6-.3-.52-.27-1.03-.84-.94-1.63,0,0,.89.47.89.47-1.32,1.21-5.53.93-3.87-1.5,1.25-2.24,2.33-5,2.33-7.54-.01-.06-.06-.1.01-.04.04.04.12.05.16.05.04,0,.08,0,.11-.02,0,.02,0-.01-.03.03-1.44,2.02-2,4.61-3.55,6.66-.58.8-1.59.77-1.81-.35-.02-2.69,1.8-4.94,2.41-7.39.3-1.05.55-2.14.07-3.03-1.27-2.77-.57-6.02-.23-8.9,0,0,.5-3.01.5-3.01.2-.9-.17-1.87-.45-2.83-1.31-3.81-3-7.53-4.6-11.27-1.42-3.27-3.57-7.96-4.42-11.4-1.44-4.92-1.54-10.06-2.35-15.07-.17-1.02-.92-1.79-1.24-2.76-.62-2.01.16-4.06.24-6.09,0,0,.12.01.12.01h0Z"/>
        </g>
        <g class="cls-4">
          <path class="cls-7" d="M241.23,122.71c1.08,1.4,4.16,3.71,2.14,5.51,0,0-.12-.05-.12-.05-.29-1.11-.58-1.57-.88-2.61-.39-.9-.88-1.82-1.25-2.79l.11-.07h0Z"/>
        </g>
        <g class="cls-5">
          <path class="cls-7" d="M256.09,186.76c.24,2.24-.31,4.64-1.28,6.66-.41.64-.89,1.25-1.57,1.72,0,0-.11-.07-.11-.07.16-1.57.8-2.82,1.53-4.14.61-1.32,1.12-2.69,1.3-4.16,0,0,.12,0,.12,0h0Z"/>
        </g>
        <g class="cls-5">
          <path class="cls-7" d="M259.3,188.58c.17,2.12-.41,4.37-1.36,6.26-.4.6-.87,1.16-1.54,1.58l-.11-.07c.14-1.5.76-2.66,1.5-3.89.62-1.22,1.15-2.49,1.37-3.88,0,0,.12,0,.12,0h0Z"/>
        </g>
        <g class="cls-5">
          <path class="cls-7" d="M260.79,183.77c-.13,8.32-.47,16.63-1.07,24.94-.29,4.15-.56,8.31-1.19,12.44-.66,4.11-1.36,8.24-2.66,12.22l-.12-.03c1.16-8.24,2.01-16.46,2.97-24.72.95-8.18,1.24-16.89,2.07-24.85h0Z"/>
        </g>
        <g class="cls-5">
          <path class="cls-7" d="M220.7,232.7c1.43-7.69,1.86-15.55,2.23-23.35.15-7.82.43-15.61-.09-23.43,0,0,.12-.02.12-.02,1.86,7.68,1.56,15.69.97,23.5-.28,3.92-.65,7.83-1.12,11.72-.51,3.89-1.06,7.79-1.99,11.6,0,0-.12-.03-.12-.03h0Z"/>
        </g>
        <g class="cls-5">
          <path class="cls-7" d="M288.15,184.6c2.44,8.09,4.73,16.23,6.86,24.42,1.07,4.09,2.16,8.18,2.96,12.34.74,4.16,1.49,8.37,1.51,12.62h-.12c-1.51-8.3-3.6-16.46-5.32-24.73-1.76-8.18-4.22-16.69-5.89-24.65h0Z"/>
        </g>
        <g class="cls-5">
          <path class="cls-7" d="M272,232.95c-4.16-8.15-9.34-15.71-14.57-23.2-5.29-7.46-10.91-14.81-14.71-23.18,0,0,.11-.06.11-.06,4.96,7.7,10.48,14.96,15.42,22.68,4.91,7.6,10.39,15.57,13.75,23.76h0Z"/>
        </g>
      </g>
      <path class="cls-9" d="M232.76,85.45c1.33,5.45,5.06,30.71,5.31,33.16s7.17.92,4.7-3.77-10.01-29.39-10.01-29.39Z"/>
      <path class="cls-9" d="M243.93,198.41c-6.81.71-14.27.38-17.27-2.03s0,13.83-1.92,26.31c-1.92,12.48.73,21.43,4.04,4.17,3.31-17.26,20.58-29.02,15.15-28.45Z"/>
      <g class="cls-4">
        <g class="cls-5">
          <path class="cls-7" d="M55.13,25.41c5.07,4.61,5.3,13.26,1.06,18.51,0,0-.11-.06-.11-.06,1.21-4.62,3.01-9.45,1.38-14.17-.46-1.56-1.4-2.91-2.42-4.19l.09-.09h0Z"/>
        </g>
        <g class="cls-5">
          <path class="cls-7" d="M57.45,26.25c2.47,2.47,3.99,5.94,4.38,9.39.05,1.18-.02,2.37-.41,3.51h-.12c-.93-3.31-.82-6.73-2.25-9.87-.42-1.05-1.03-2.01-1.69-2.95l.09-.08h0Z"/>
        </g>
        <g class="cls-5">
          <path class="cls-7" d="M53.36,28.78c2.06,4.63,4.18,11.53-1.37,14.68,0,0-.09-.09-.09-.09,2.15-3.26,3.32-6.88,2.26-10.73-.25-1.28-.58-2.55-.91-3.82l.12-.04h0Z"/>
        </g>
        <g class="cls-5">
          <path class="cls-7" d="M45.73,27.78c-1.81,5.59-7.99,9.29-13.75,7.67,0,0,0-.12,0-.12,1.4-.34,2.76-.54,4.09-.83,4.22-.55,7.61-2.84,9.55-6.76,0,0,.11.05.11.05h0Z"/>
        </g>
        <g class="cls-5">
          <path class="cls-7" d="M44.84,34.71c-4,4.81-13.21,8.96-17.71,2.6,0,0,.09-.09.09-.09,6.32,4.14,12.4,1.65,17.62-2.51h0Z"/>
        </g>
        <g class="cls-5">
          <path class="cls-7" d="M44.78,23c-3.5-.76-4.63,3.32-7.12,4.99-2.62,2.19-6.52,1.64-9.15-.18,0,0,.05-.12.05-.12,2.93.42,5.92,1.06,8.54-.52,2.4-1.42,4.33-5.53,7.72-4.29,0,0-.03.12-.03.12h0Z"/>
        </g>
        <g class="cls-5">
          <path class="cls-7" d="M38.25,19.16c-1.91.55-3.61,1.52-5.05,2.87-.73.65-1.37,1.45-2.31,1.98-.91.53-2.03.88-3.09.67l-.02-.12c3.45-1.93,6.24-5.29,10.44-5.52,0,0,.02.12.02.12h0Z"/>
        </g>
        <g class="cls-5">
          <path class="cls-7" d="M24.2,30.17c-1.27,9.78,3.01,17.49,13.71,13.19,2.63-.9,5.16-2.17,7.73-3.43,0,0,.07.1.07.1-2.2,1.83-4.66,3.38-7.36,4.49-5.93,2.59-12.65,1.11-14.22-5.83-.69-2.83-.64-5.76-.05-8.56l.12.02h0Z"/>
        </g>
        <g class="cls-5">
          <path class="cls-7" d="M18.6,39.53c1.57,3.43,6.26,4.69,6.75,8.68,0,0-.11.05-.11.05-1.36-1.34-2.57-2.48-3.73-3.98-1.21-1.4-2.53-2.89-3.02-4.71,0,0,.12-.04.12-.04h0Z"/>
        </g>
        <g class="cls-5">
          <path class="cls-7" d="M17.39,46.84l3.53,3c1.11.89,3.04,2.42,2.24,4.06,0,0-.12-.03-.12-.03-.22-.75-.82-1.07-1.33-1.6-1.54-1.67-3.03-3.51-4.4-5.35,0,0,.09-.09.09-.09h0Z"/>
        </g>
        <g class="cls-5">
          <path class="cls-7" d="M28.58,59.71c2.2,3.79,4.87,7.09,7.33,10.73,1.18,1.82,1.77,3.97,2.8,5.83.96,1.89,2.58,3.25,4.19,4.64,0,0-.07.11-.07.11-2.04-.86-4.02-2.17-5.2-4.11-1.21-1.87-1.55-4.05-2.59-5.96-1.88-3.34-5.28-7.81-6.46-11.23h0Z"/>
        </g>
        <g class="cls-5">
          <path class="cls-7" d="M37.68,63.06c1.59,2.73,2.55,5.89,2.76,9.03.1.97.35,1.77.8,2.54,1.18,1.73,2.87,2.82,4.47,4.29,0,0-.06.11-.06.11-3.15-.95-6.42-3.15-6.2-6.85,0-3.18-.62-6.16-1.88-9.06,0,0,.11-.06.11-.06h0Z"/>
        </g>
        <g class="cls-5">
          <path class="cls-7" d="M28.59,65.29c-.08,2.72-.93,5.39-1.79,7.94-.77,2.61-1.4,4.97-1.45,7.72,0,0-.12.03-.12.03-1.34-2.56-.56-5.67.64-8.1,1.07-2.49,2.17-4.93,2.6-7.6h.12Z"/>
        </g>
        <g class="cls-5">
          <path class="cls-7" d="M22.42,56.5c.46,3.02-.64,6.17-2.81,8.33-1.92,2.28-4.37,3.75-5.24,6.72,0,0-.12,0-.12,0-.29-1.53.4-3.18,1.38-4.37,1.93-2.28,4.68-3.6,5.84-6.43.6-1.3.82-2.76.83-4.23h.12Z"/>
        </g>
        <g class="cls-5">
          <path class="cls-7" d="M26.85,57.81c3.06,9.09-6.19,16.58-4.39,25.64,0,0-.11.05-.11.05-.6-.99-.85-2.14-.96-3.29-.67-5.87,3.93-10.44,5.25-15.83.59-2.11.45-4.35.1-6.55,0,0,.12-.02.12-.02h0Z"/>
        </g>
        <g class="cls-5">
          <path class="cls-7" d="M20.74,46.12c1.53,1.56,3.04,3.11,4.54,4.69,1.57,1.52,3.19,3.35,3.31,5.67,0,0-.12.04-.12.04-1.38-1.75-2.7-3.25-3.95-5.07-1.32-1.72-2.65-3.46-3.88-5.26,0,0,.1-.08.1-.08h0Z"/>
        </g>
        <g class="cls-5">
          <path class="cls-7" d="M39.96,27.8c-3.89,4-7.94,6.86-13.2,3.04,0,0,.05-.12.05-.12,2.39.16,4.62.98,6.95.56,1.1-.24,2.14-.82,3.13-1.5,1.01-.66,1.98-1.4,3-2.08,0,0,.08.1.08.1h0Z"/>
        </g>
        <g class="cls-5">
          <path class="cls-7" d="M20.66,32.77c-2.04-.66-4.05-.93-5.45.95,0,0-.12-.02-.12-.02-.26-.6-.12-1.4.43-1.93,1.62-1.26,3.83-.03,5.2.89,0,0-.06.11-.06.11h0Z"/>
        </g>
        <g class="cls-5">
          <path class="cls-7" d="M24.5,28.86c-1.43-.19-2.86-.44-4.23-.46-1.47.07-2.53.33-4.05.45,0,0-.06-.11-.06-.11.89-1.37,2.72-1.75,4.2-1.34,1.48.27,2.84.77,4.17,1.33l-.03.12h0Z"/>
        </g>
        <g class="cls-5">
          <path class="cls-7" d="M29.21,53.86c1.93,3.03,3.72,6.16,5.11,9.48,1.49,3.3,2.46,6.85,2.4,10.5,0,0-.12.02-.12.02-1.28-3.37-2.13-6.76-3.21-10.17-1.16-3.35-2.68-6.58-4.28-9.78,0,0,.11-.06.11-.06h0Z"/>
        </g>
      </g>
    </g>
  </g>
</svg>