<svg xmlns="http://www.w3.org/2000/svg" width="100" height="108" viewBox="0 0 100 108"><defs><style>.cls-1,.cls-11{fill:none;}.cls-1{stroke:#688bca;stroke-miterlimit:10;stroke-width:2.93546px;}.cls-2{fill:#707487;}.cls-3{fill:#0d1729;}.cls-4{fill:#47576d;}.cls-5{fill:#e4eaf8;}.cls-6{fill:#688bca;}.cls-7{fill:#68768c;}.cls-8{fill:#9fbae1;}.cls-9{fill:#fff;}.cls-10{fill:#a6a6a6;}.cls-11{stroke:#3d5c75;stroke-linecap:round;stroke-linejoin:round;stroke-width:1.69824px;}.cls-12{fill:#e2e1e4;}.cls-13{fill:#0a2346;}.cls-14{fill:#f5f5f6;}.cls-15{fill:#3d5c75;}.cls-16{fill:#434a5e;}</style></defs><g id="med-internos"><circle class="cls-1" cx="49.85365" cy="50.35954" r="47.1047"/><path class="cls-2" d="M49.62514,49.80046c9.2873,0,16.53622-2.09727,16.53622-11.293S69.65882,9.94928,52.88061,9.94928c0,0,0-2.90392-4.62677-2.90392-7.2598,0-14.21883,6.29925-14.21883,12.5067C34.035,43.82836,28.41038,49.80046,49.62514,49.80046Z"/><path class="cls-3" d="M49.62511,49.65364c7.18918.19385,16.20773-1.56653,16.02078-10.49113-.18836-7.17815,1.0342-14.86906-1.73107-21.6627-1.77722-4.5445-6.31933-6.7034-11.03419-6.49053l-1.05978-1.06c-.69785-2.27247-3.98852-1.76715-5.93329-1.43274-4.88351,1.0579-9.79869,5.34707-10.31561,10.38317-.05167,1.23677.00273,2.89705-.05118,4.221-.08567,4.32915-.45362,8.7107-.80522,12.9917-.16942,2.822-.51018,5.71508.24006,8.20922,1.881,5.42052,9.892,5.04914,14.6695,5.332Zm0,.2937c-5.40589-.184-13.53182.92612-16.26765-5.00221-1.2069-2.877-1.203-5.92955-1.23509-8.93357.0182-4.21038.27334-8.7566.34809-12.95656l.034-2.14453a13.25383,13.25383,0,0,1,4.62817-10.623c3.51714-3.128,8.27245-5.082,13.04656-4.205a4.81251,4.81251,0,0,1,3.35108,2.32675,3.43463,3.43463,0,0,1,.41006,1.53979L52.88072,8.88948c16.94436.183,14.44745,18.42858,13.76184,30.314-.40586,9.29272-9.47018,10.77525-17.01745,10.74383Z"/><path class="cls-4" d="M46.93175,48.27156c-5.85049,1.44161-13.67868-.88686-12.91222-8.20544l.061-1.53358c.1563-3.904.76706-14.36831,1.00521-18.39892.09475-4.4018,3.26111-8.07042,6.88664-10.15861-2.89985,2.71513-5.43633,6.10547-5.23066,10.20529a189.3882,189.3882,0,0,1-.79682,20.01387c-1.05013,6.21741,5.97184,8.17207,10.98683,8.07739Z"/><path class="cls-4" d="M50.85,47.88728c-9.52238,1.37524-13.4714-9.96935-12.593-17.699l.1271.00445c.12911,8.80373,3.57905,15.66042,12.46594,17.69458Z"/><path class="cls-4" d="M49.45293,48.85505c-9.52235,1.3759-13.47141-9.96924-12.59305-17.69878l.12711.00445c.12908,8.80328,3.579,15.66063,12.46594,17.69433Z"/><path class="cls-5" d="M82.39761,83.15029V62.71065c0-4.33771-14.57247-14.05893-32.2-14.05893s-32.2,9.72122-32.2,14.05893V83.15029S33.04133,95.219,50.00135,95.219,82.39761,83.15029,82.39761,83.15029Z"/><path class="cls-6" d="M38.208,93.59715v-33.494A15.59466,15.59466,0,0,0,49.896,65.00084a15.59466,15.59466,0,0,0,11.68806-4.89765v33.494C59.21308,94.35584,39.80279,94.12307,38.208,93.59715Z"/><path class="cls-7" d="M82.25084,83.15022C81.34831,76.39573,80.85,69.53335,80.4656,62.74739c-.77039-1.862-3.02525-3.32407-4.78672-4.47931a44.92517,44.92517,0,0,0-12.61969-5.2912,49.70492,49.70492,0,0,0-27.18329.40551,42.39277,42.39277,0,0,0-12.39221,5.68775A10.58024,10.58024,0,0,0,19.97026,62.595c-.34493,4.92883-.59541,9.94581-1.09214,14.89359-.12236,1.80539-.51421,5.4566-.73382,7.25439h-.29354L17.80919,70.2342l-.02078-7.25439a3.37274,3.37274,0,0,1,.45816-1.83521c5.74232-8.38214,21.38033-12.67467,31.14978-12.77747A49.87747,49.87747,0,0,1,77.06392,56.219c2.17429,1.58838,4.708,3.314,5.50023,6.03809.11664,4.34237-.04979,16.38014-.0197,20.89316Z"/><path class="cls-8" d="M39.05565,83.15022c-3.27426-1.451-11.53783-6.45939-9.206-10.903a15.88479,15.88479,0,0,1,1.99488-2.39947c.74547-.79419,2.00847-1.722,2.11334-2.71189.01588-.68385-.88371-1.57906-1.51484-2.09351-3.20833-2.723-2.73616-5.85755-.0426-8.70362-5.42713,8.26742,4.63491,7.117,2.96756,12.08636-.8334,1.892-2.54779,3.07149-3.59928,4.74788-1.57383,2.14056,5.71553,8.15231,7.28694,9.97727Z"/><path class="cls-8" d="M25.74492,69.64851a45.20386,45.20386,0,0,1,.129,19.78882,45.19658,45.19658,0,0,1-.129-19.78882Z"/><path class="cls-8" d="M72.25292,69.7657a45.20161,45.20161,0,0,1,.129,19.78882,45.19765,45.19765,0,0,1-.129-19.78882Z"/><path class="cls-8" d="M40.35179,50.90144c-5.5126,2.92711-16.96,7.50623-18.85446,13.66043-.35774,1.69067-.60367,6.22958-.77931,8.0247-.31477,3.64006-.60121,7.2929-1.155,10.94841A91.93108,91.93108,0,0,1,18.9185,72.5157c.22213-3.695-.457-8.07127,1.84826-11.24588,2.3665-3.15361,5.73834-5.02305,9.15073-6.6907a57.77775,57.77775,0,0,1,10.4343-3.67768Z"/><path class="cls-7" d="M73.85729,89.55451c-.15607-5.13543-.42858-15.46278-.54369-20.59744l.60728.60721-1.168.02808.63525-.63526a105.07952,105.07952,0,0,1-.57163,13.221h-.12741a105.08136,105.08136,0,0,1-.57168-13.221l.01779-.65039.61768.01489c.40355.02749,1.39813.02043,1.7899.04277-.123,5.43206-.39286,15.75858-.55811,21.19019l-.12736-.00005Z"/><path class="cls-7" d="M26.41051,90.64558c-.1459-5.40685-.38711-16.28226-.47929-21.68851l-.01034-.53.55341-.01318c.33349.01381,1.13813-.0427,1.46222-.03486A140.15931,140.15931,0,0,1,28.51305,86.858l-.12714.00733c-.4724-2.962-.79669-5.93759-1.054-8.92139-.266-2.97852-.39207-5.96533-.47734-8.95435l.56451.533-.94476-.0227.54291-.54273-.21137,10.84424-.26794,10.84424Z"/><path class="cls-5" d="M50.19758,48.65172c-7.80335,0-14.81621,4.77786-16.83793,6.33315-2.09712,1.61329-3.22642,4.03323-2.74243,5.80785s4.19455,3.71056,4.19455,5.80784-4.27585,4.03322-4.27585,5.64651,7.672,9.19575,7.672,9.19575V55.79152s2.884-5.23707,11.98962-5.23707"/><path class="cls-7" d="M50.19756,48.7154A26.65248,26.65248,0,0,0,37.981,52.2884c-2.62829,1.57412-5.80281,3.158-6.88854,6.205-1.23464,2.94728,2.0091,4.29,3.44684,6.34259,2.48632,3.29841-2.60488,4.95116-3.53569,7.37981a5.51237,5.51237,0,0,0,1.06018,1.78573,80.55129,80.55129,0,0,0,6.54861,7.032l-.97991.40917c-.04156-4.27515-.10315-8.55029-.07757-12.82544.05341-4.343-.00433-8.75634.218-13.06544,2.7481-3.96936,7.84795-5.25332,12.42456-5.061l0,.12744a16.60274,16.60274,0,0,0-9.39807,3.06448,9.12681,9.12681,0,0,0-2.15656,2.34836l.06152-.2395q.2776,13.52043.06537,27.04516c-2.93492-3.09617-6.11406-6.03555-8.39661-9.67324-1.08736-1.86906,1.45819-3.22945,2.46979-4.28528,2.11055-1.79482,1.95473-2.90793.0569-4.77391A19.57873,19.57873,0,0,1,30.669,61.68318c-1.77155-3.368,1.65473-6.5729,4.303-8.13591,4.35335-2.71483,10.23216-5.30223,15.2256-4.83187Z"/><path class="cls-5" d="M49.59447,48.65172c7.80335,0,14.81622,4.77786,16.83794,6.33315,2.09711,1.61329,3.22641,4.03323,2.74243,5.80785s-4.19456,3.71056-4.19456,5.80784,4.27585,4.03322,4.27585,5.64651-7.672,9.19575-7.672,9.19575V54.52S58.70009,49.283,49.59447,49.283"/><path class="cls-7" d="M49.59447,48.588c5.434-.00944,10.68636,2.077,15.22767,4.96044,2.649,1.56059,6.07493,4.77329,4.29949,8.13875a19.537,19.537,0,0,1-2.23285,2.41961c-1.90107,1.86246-2.04816,2.99093.06072,4.77269,1.01469,1.0337,3.57824,2.47459,2.47289,4.29032-2.29148,3.63113-5.465,6.574-8.40081,9.66828q-.2048-14.1591.07271-28.318l.06066.23608a8.96058,8.96058,0,0,0-2.15728-2.3518,16.58615,16.58615,0,0,0-9.40321-3.05758v-.12748c4.57793-.18786,9.66378,1.10133,12.41873,5.0642l.059.09083.00171.14575c.17024,8.97372.22047,17.94787.08558,26.92261l-.97993-.40918c2.58638-2.62892,5.399-5.20508,7.41849-8.30119a.7706.7706,0,0,0-.01254-1.03158c-1.409-1.90347-5.61189-4.01111-3.3349-6.86164.94205-1.31074,2.40058-2.28418,3.29694-3.53337,1.09042-1.7205-.19825-4.07438-1.49372-5.39989a28.96021,28.96021,0,0,0-17.45934-7.19059l-.00007-.1273Z"/><path class="cls-9" d="M49.896,49.9701c7.1578,0,11.68806,2.53327,11.68806,6.58651v3.54658A15.59466,15.59466,0,0,1,49.896,65.00084,15.59466,15.59466,0,0,1,38.208,60.10319V56.55661c0-4.05324,4.53026-6.58651,11.68807-6.58651"/><path d="M49.896,49.90632c5.03893-.15684,12.69075,1.36691,12.011,7.89683l.0281,2.29995c-4.23209,5.33556-12.41833,6.65772-18.6298,4.22446a14.43487,14.43487,0,0,1-5.75267-3.984l.00155-.24051.01452-2.3c-.39667-4.90252,3.42562-7.11739,7.692-7.73458a22.07583,22.07583,0,0,1,4.63528-.16215v.12744c-4.63759.32325-11.91171,1.71654-11.04873,7.7693l.01443,2.3-.14673-.4126c6.26644,6.66025,16.76334,5.93613,22.518.41238a41.03351,41.03351,0,0,0-.04956-4.53127c-.59428-3.05-3.96185-4.47547-6.73943-5.05543a24.53457,24.53457,0,0,0-4.54794-.48242v-.12744Z"/><path class="cls-10" d="M38.99193,59.67927l-.18481-2.1416c-.173-5.776,7.26993-7.93776,11.93642-6.78368l.00016.12743c-1.423.33081-2.808.56421-4.15607.89087-3.147.64308-7.19028,1.95174-7.28343,5.76552l-.18489,2.14146Z"/><path class="cls-11" d="M35.90358,82.17816v-28.256A18.66925,18.66925,0,0,1,49.896,48.05893a18.66924,18.66924,0,0,1,13.99244,5.86326V72.35208"/><path class="cls-9" d="M42.537,54.30318a4.04094,4.04094,0,0,0,1.37552-2.97612V42.23989H56.15461v9.08717A4.95036,4.95036,0,0,0,57.255,54.30318"/><path d="M42.49742,54.25325c1.71172-1.47863,1.18059-3.78555,1.17989-5.78079l-.14943-6.2324-.009-.37622.39374-.00854,12.24188-.27.64947-.01441.00525.66919q.024,3.07983-.12817,6.15967c-.0343,2.00826-.60874,4.05566.62188,5.86131l-.09582.08425a4.731,4.731,0,0,1-1.38873-2.853c-.23414-3.09377-.33978-6.15767-.31843-9.2522l.65455.65454-12.24188-.27.38452-.38452-.14942,6.23242c-.09127,2.02331.25874,4.49478-1.5712,5.88058l-.07913-.09981Z"/><path class="cls-10" d="M43.34508,55.1009a3.8917,3.8917,0,0,0,1.08569-2.68652c-.09606-3.0425-.77309-6.37446.26577-9.3269h.12736a14.50612,14.50612,0,0,1,.44574,6.23267c-.14525,2.01992.082,4.61885-1.84544,5.88057l-.07912-.09981Z"/><path class="cls-9" d="M38.582,21.16535c0,13.595,1.0623,25.36721,11.61555,25.36721s11.496-11.7722,11.496-25.36721l-8.87579-4.95026Z"/><path d="M38.634,21.20222c.11175,5.12524.19269,10.44141,1.40094,15.47168a14.97656,14.97656,0,0,0,3.32721,6.81689c3.39185,3.6144,10.21078,3.58928,13.53327-.0692a14.65252,14.65252,0,0,0,3.11541-6.80506c1.05865-5.02686,1.01306-10.26245,1.02112-15.45118l.33929.57789c-2.95392-1.65845-5.90985-3.31324-8.83636-5.02076l.47363.04126c-4.76532,1.57019-9.49415,3.00049-14.37451,4.43848Zm-.10382-.07373c4.67945-1.90322,9.52371-3.79324,14.33057-5.54858,3.07191,1.63262,6.11266,3.3219,9.155,5.00756l.34235.1897-.00287.38818c-.05589,5.2452-.13543,10.53321-1.33334,15.68482-.86255,3.79769-2.87009,8.05823-6.86472,9.43087-3.77788,1.3-8.491.73244-11.26509-2.34976-4.929-5.945-4.25174-15.46816-4.36192-22.80279Z"/><path class="cls-10" d="M39.49339,20.3177c.495,7.62165.05811,20.37775,7.8761,24.286a14.69214,14.69214,0,0,0,3.67573,1.01747v.12747a8.75152,8.75152,0,0,1-8.19263-3.23634,15.39194,15.39194,0,0,1-2.688-6.50853c-1.07622-5.2129-.935-10.47632-.79858-15.686Z"/><path class="cls-10" d="M52.13689,17.221c1.56455,4.04,4.13925,10.92146,8.844,11.85785l.00019.127C56.8185,29.425,50.45858,20.91256,52.13689,17.221Z"/><path class="cls-2" d="M52.81776,16.21509c0,8.55729-8.08475,11.45435-15.47231,11.45435l1.71017-12.63166H62.93786l0,13.09848C57.73179,28.13626,52.81776,20.22526,52.81776,16.21509Z"/><path class="cls-3" d="M61.72563,28.2c-3.98258-.39652-6.70591-4.723-8.3119-8.025a11.24426,11.24426,0,0,1-1.05589-3.9599h.91986c.32787,8.09481-7.41354,12.40919-14.72019,11.51791l.00015-.12729a25.38059,25.38059,0,0,0,4.9502-1.05883c3.08729-1.00053,6.05724-2.76587,7.65151-5.64647a10.36709,10.36709,0,0,0,1.19847-4.68532h.91986c.23951,3.77546,2.41792,7.46988,5.06594,10.12678a5.78075,5.78075,0,0,0,3.382,1.73064V28.2Z"/><path class="cls-4" d="M37.50511,26.73957c6.07739-1.612,14.59622-5.19576,14.93254-12.43122l.81777.23615a24.53975,24.53975,0,0,1-8.56584,7.63918,18.0889,18.0889,0,0,1-3.5685,1.38133l-.035-.12231a17.864,17.864,0,0,0,3.44073-1.55518,25.077,25.077,0,0,0,7.97885-7.81564l.78379-1.23734a11.258,11.258,0,0,1-5.41755,10.81125,19.60745,19.60745,0,0,1-10.35319,3.22055l-.01363-.12677Z"/><path class="cls-9" d="M48.99162,8.58454c-6.36025,1.32486-13.51483,5.32788-14.1552,12.44313h-.12733c-.30651-6.68,7.789-14.27143,14.28253-12.44312Z"/><path class="cls-9" d="M64.62212,39.983c-.21242-9.81526,1.94417-24.25755-9.67288-28.15855l.02566-.12465C68.12536,13.15107,65.42214,30.848,64.62212,39.983Z"/><path class="cls-12" d="M62.87413,25.87263c-.50879-5.45475-3.02458-11.22954-7.92469-14.04823l.02546-.12462c3.16573-.01653,5.41668,2.93857,6.44268,5.628a19.366,19.366,0,0,1,1.58393,8.54489Z"/><path class="cls-9" d="M36.76732,26.002c6.68021-1.24323,13.85979-5.29442,15.31188-12.4316l.12733,0c.77795,3.80583-1.987,7.438-5.15888,9.21377a22.84577,22.84577,0,0,1-10.26672,3.34434l-.01361-.12647Z"/><path class="cls-6" d="M61.58409,90.6455V60.10319A15.59466,15.59466,0,0,1,49.896,65.00084,15.59466,15.59466,0,0,1,38.208,60.10319V90.6455"/><path d="M61.52043,90.64558l-.33154-30.54224.7016.24951a15.15,15.15,0,0,1-5.46362,3.82886c-6.225,2.59966-14.03322,1.37794-18.71877-3.6716l1.14443-.40677c.0546,7.63589-.07639,15.273-.29148,22.9065-.06326,2.54541-.17019,5.09057-.2894,7.63574h-.12738q-.71256-16.09527-.56475-32.2168c5.77171,7.73513,18.25539,8.14218,24.41092.64685l-.01114,1.02771c-.138.01451-.09111,30.78675-.45887,30.54224Z"/><path class="cls-13" d="M60.19737,62.16511a86.25463,86.25463,0,0,1,.129,27.38941,86.239,86.239,0,0,1-.129-27.38941Z"/><circle class="cls-14" cx="35.90358" cy="82.17816" r="2.65408"/><path class="cls-15" d="M38.49431,82.17805c.00676-3.11974-4.84813-3.07485-4.73778.00007.17566,2.68491,4.59486,2.69013,4.73778-.00007Zm.12671,0c.11372,4.39367-5.8814,4.30607-5.87857-.00008a2.93929,2.93929,0,0,1,5.87857.00008Z"/><circle class="cls-16" cx="35.90358" cy="82.17816" r="0.97214"/><path class="cls-15" d="M36.81206,82.17805c.09357-.9389-1.56131-.85512-1.37116,0,.06271.23954.28308.24916.46272.33541.26642.19329.86114.15024.90844-.33544Zm.12732,0c.303,2.18154-2.63137,2.08108-2.51741-.00005a1.259,1.259,0,1,1,2.51741.00005Z"/><path class="cls-11" d="M66.70855,88.04571a2.12539,2.12539,0,0,0,2.11916-2.11916V74.47124a2.12539,2.12539,0,0,0-2.11916-2.11916H61.06839a2.12539,2.12539,0,0,0-2.11916,2.11916V85.92655a2.12539,2.12539,0,0,0,2.11916,2.11916"/></g><g id="paleta"><rect class="cls-6" x="6.36295" y="79.52632" width="86.9814" height="28.15918" rx="4.56377"/><path class="cls-9" d="M32.25389,99.7482a.33861.33861,0,0,1-.28759-.125.37252.37252,0,0,1-.05762-.31641L32.043,98.692a1.22612,1.22612,0,0,1,.17285-.38379,1.848,1.848,0,0,1,.48-.46093L37.6494,93.777q1.13232-.82544,1.8335-1.41113a5.4201,5.4201,0,0,0,1.05615-1.123,3.13142,3.13142,0,0,0,.47021-1.11377,2.08687,2.08687,0,0,0-.24951-1.7378,1.98035,1.98035,0,0,0-1.68945-.64306,2.97032,2.97032,0,0,0-1.38281.31689,3.26072,3.26072,0,0,0-1.05567.86377,4.24812,4.24812,0,0,0-.6914,1.23877.54721.54721,0,0,1-.25928.34521.724.724,0,0,1-.33594.0962h-.979a.31112.31112,0,0,1-.269-.10547.35091.35091,0,0,1-.05761-.25928,5.19883,5.19883,0,0,1,.61474-1.46875,5.43131,5.43131,0,0,1,1.13282-1.33447,5.82533,5.82533,0,0,1,1.603-.96973,5.28764,5.28764,0,0,1,2.02539-.37451,4.38041,4.38041,0,0,1,2.37159.54736,2.55813,2.55813,0,0,1,1.123,1.44971,3.95247,3.95247,0,0,1,.03858,1.97754,4.71582,4.71582,0,0,1-.605,1.54541,6.96058,6.96058,0,0,1-1.123,1.36328,15.33691,15.33691,0,0,1-1.65137,1.35352l-4.47363,3.74414h5.99023a.35009.35009,0,0,1,.29786.11523.40853.40853,0,0,1,.04785.32617l-.15332.7876a.53117.53117,0,0,1-.19239.31641.55957.55957,0,0,1-.36474.125Z"/><path class="cls-9" d="M43.73534,98.03921a1.41706,1.41706,0,0,1,.23974-.39355.52284.52284,0,0,1,.41309-.16309h1.30566a.253.253,0,0,1,.23047.125.24959.24959,0,0,1-.01953.27832l-1.67041,2.86084a1.46269,1.46269,0,0,1-.24951.3169.54512.54512,0,0,1-.38379.12451H42.9287a.232.232,0,0,1-.22071-.12451.32852.32852,0,0,1,.00977-.29786Z"/><path class="cls-9" d="M54.08446,99.7482a.36718.36718,0,0,1-.29736-.125.35428.35428,0,0,1-.06739-.31641l.59522-2.76514H48.01756a.33925.33925,0,0,1-.28808-.12451.42671.42671,0,0,1-.07666-.31689l.17236-.76807a1.07869,1.07869,0,0,1,.09619-.27832,1.4867,1.4867,0,0,1,.17285-.24023l7.565-8.1792a.97383.97383,0,0,1,.76806-.32618h1.459a.36832.36832,0,0,1,.29736.12452.3589.3589,0,0,1,.06738.31689l-1.728,8.12158h1.728a.33746.33746,0,0,1,.29785.125.40065.40065,0,0,1,.04786.3169l-.17286.78711a.45144.45144,0,0,1-.17285.31689.53262.53262,0,0,1-.3457.12451H56.15819L55.563,99.30679a.55124.55124,0,0,1-.18212.31641.49749.49749,0,0,1-.33643.125ZM50.187,94.90982h4.49267L56.043,88.51626Z"/><path class="cls-9" d="M59.90184,99.7482a.33864.33864,0,0,1-.2876-.125.37256.37256,0,0,1-.05761-.31641l.13427-.61475a1.2264,1.2264,0,0,1,.17286-.38379,1.848,1.848,0,0,1,.48-.46093L65.29735,93.777q1.13232-.82544,1.8335-1.41113a5.4201,5.4201,0,0,0,1.05615-1.123,3.13142,3.13142,0,0,0,.47021-1.11377,2.08687,2.08687,0,0,0-.24951-1.7378,1.98035,1.98035,0,0,0-1.68945-.64306,2.97032,2.97032,0,0,0-1.38281.31689,3.26072,3.26072,0,0,0-1.05567.86377,4.24812,4.24812,0,0,0-.6914,1.23877.54721.54721,0,0,1-.25928.34521.724.724,0,0,1-.33594.0962h-.979a.31112.31112,0,0,1-.269-.10547.35091.35091,0,0,1-.05761-.25928,5.19883,5.19883,0,0,1,.61474-1.46875,5.43131,5.43131,0,0,1,1.13282-1.33447,5.82518,5.82518,0,0,1,1.603-.96973,5.28764,5.28764,0,0,1,2.02539-.37451,4.38041,4.38041,0,0,1,2.37159.54736,2.55817,2.55817,0,0,1,1.123,1.44971,3.95247,3.95247,0,0,1,.03858,1.97754,4.71582,4.71582,0,0,1-.605,1.54541,6.96058,6.96058,0,0,1-1.12305,1.36328,15.33691,15.33691,0,0,1-1.65137,1.35352l-4.47363,3.74414h5.99023a.35006.35006,0,0,1,.29785.11523.40848.40848,0,0,1,.04786.32617l-.15332.7876a.53117.53117,0,0,1-.19239.31641.55957.55957,0,0,1-.36474.125Z"/><path class="cls-9" d="M71.76708,99.7482c-.1919,0-.3042-.07032-.33594-.21143a.394.394,0,0,1,.125-.38379l12.11523-12.48a2.17249,2.17249,0,0,1,.3169-.269.74608.74608,0,0,1,.4126-.09571h.76806a.29352.29352,0,0,1,.32617.21094.37529.37529,0,0,1-.11523.38428l-12.11524,12.48a2.10446,2.10446,0,0,1-.3164.26855.74045.74045,0,0,1-.41309.0962Zm2.97607-6.624a2.66377,2.66377,0,0,1-1.35352-.32617,1.93507,1.93507,0,0,1-.82568-.91211,2.518,2.518,0,0,1-.16308-1.35351q.07617-.49952.16308-.84522.08643-.345.2207-.88281a3.73948,3.73948,0,0,1,1.09473-1.88184,3.00622,3.00622,0,0,1,2.09277-.71045,2.67675,2.67675,0,0,1,1.40137.33594,1.94894,1.94894,0,0,1,.80664.92188,2.474,2.474,0,0,1,.13428,1.35351q-.0769.5376-.16309.8833-.08642.34571-.2207.84473a3.7062,3.7062,0,0,1-1.104,1.8623A3.014,3.014,0,0,1,74.74315,93.12417Zm.03857-1.26709a1.59066,1.59066,0,0,0,1.19043-.45117,2.39185,2.39185,0,0,0,.59522-.93115q.134-.51855.19189-.81641.05787-.29736.13428-.77734a2.32159,2.32159,0,0,0,.01953-.6626.83035.83035,0,0,0-.269-.52783,1.05841,1.05841,0,0,0-.72949-.21143,1.59429,1.59429,0,0,0-1.20948.4419,2.1708,2.1708,0,0,0-.55712.96q-.134.48046-.1919.77734-.05786.2981-.13428.81641a2.4,2.4,0,0,0,.00928.64307.87266.87266,0,0,0,.27881.52783A.95929.95929,0,0,0,74.78172,91.85708Zm6.18213,8.00635a2.716,2.716,0,0,1-1.36279-.32666,1.91806,1.91806,0,0,1-.83545-.91162,2.40977,2.40977,0,0,1-.144-1.35352q.0769-.4995.15381-.85449.07617-.35522.21093-.89306a3.89713,3.89713,0,0,1,1.104-1.86231,2.97208,2.97208,0,0,1,2.08349-.71045,2.73083,2.73083,0,0,1,1.41114.33594,1.93308,1.93308,0,0,1,.81592.92187,2.36655,2.36655,0,0,1,.11523,1.35352q-.0769.5376-.15381.8833t-.21094.84473a3.70618,3.70618,0,0,1-1.104,1.8623A3.01406,3.01406,0,0,1,80.96385,99.86343Zm.03858-1.26709a1.58994,1.58994,0,0,0,1.19043-.45117A2.19842,2.19842,0,0,0,82.769,97.214q.15308-.51857.21094-.81641.05786-.29736.11523-.77734a1.65657,1.65657,0,0,0,.019-.6626.97275.97275,0,0,0-.26855-.52783.9837.9837,0,0,0-.71045-.21143,1.58967,1.58967,0,0,0-1.21924.4419,2.21429,2.21429,0,0,0-.54736.96q-.134.47973-.1919.77734c-.03808.19873-.08349.4707-.13427.81641a2.3802,2.3802,0,0,0,.00976.64306.86946.86946,0,0,0,.27832.52783A.95926.95926,0,0,0,81.00243,98.59634Z"/><polygon class="cls-9" points="11.881 97.324 19.317 89.888 26.753 97.324 11.881 97.324"/></g></svg>