<svg xmlns="http://www.w3.org/2000/svg" width="100" height="108" viewBox="0 0 100 108"><defs><style>.cls-1{fill:#707487;}.cls-2{fill:#0d1729;}.cls-3{fill:#47576d;}.cls-4{fill:#e4eaf8;}.cls-5{fill:#2b3e63;}.cls-6{fill:#68768c;}.cls-7{fill:#9fbae1;}.cls-8{fill:#fff;}.cls-9{fill:#a6a6a6;}.cls-10,.cls-16{fill:none;}.cls-10{stroke:#3d5c75;stroke-linecap:round;stroke-linejoin:round;stroke-width:1.69824px;}.cls-11{fill:#e2e1e4;}.cls-12{fill:#0a2346;}.cls-13{fill:#f5f5f6;}.cls-14{fill:#3d5c75;}.cls-15{fill:#434a5e;}.cls-16{stroke:#385076;stroke-miterlimit:10;stroke-width:2.93546px;}.cls-17{fill:#385076;}</style></defs><g id="med-especialista"><path class="cls-1" d="M49.62514,49.80046c9.2873,0,16.53622-2.09727,16.53622-11.293S69.65882,9.94928,52.88061,9.94928c0,0,0-2.90392-4.62677-2.90392-7.2598,0-14.21883,6.29925-14.21883,12.5067C34.035,43.82836,28.41038,49.80046,49.62514,49.80046Z"/><path class="cls-2" d="M49.62513,49.65364c7.18917.19383,16.20772-1.56651,16.02076-10.49113-.18834-7.17815,1.03422-14.86907-1.73107-21.6627-1.77721-4.54449-6.31932-6.7034-11.0342-6.49053l-1.05978-1.06C51.123,7.6768,47.83231,8.18216,45.88752,8.51655,41.004,9.57446,36.08888,13.86363,35.572,18.89972c-.05158,1.23677.00266,2.89705-.05115,4.221-.08573,4.32915-.45364,8.7107-.80528,12.9917-.16937,2.822-.51016,5.71508.24012,8.20922,1.88088,5.42052,9.892,5.04914,14.66949,5.332Zm0,.2937c-5.4059-.184-13.53184.92612-16.26768-5.00221-1.2069-2.877-1.203-5.92954-1.23508-8.93357.01824-4.21038.27336-8.7566.34811-12.95656l.034-2.14453a13.25394,13.25394,0,0,1,4.62817-10.623c3.5171-3.128,8.27248-5.082,13.04656-4.205a4.81262,4.81262,0,0,1,3.3511,2.32675,3.43573,3.43573,0,0,1,.41006,1.53979L52.88072,8.88948c16.9444.183,14.4474,18.42856,13.76187,30.314-.406,9.29268-9.47016,10.77526-17.01746,10.74383Z"/><path class="cls-3" d="M46.93177,48.27156c-5.8506,1.4416-13.67859-.88684-12.91225-8.20544l.06106-1.53358c.15621-3.904.767-14.36832,1.00521-18.39892.09465-4.40181,3.26113-8.07039,6.88661-10.15861-2.89988,2.71512-5.43634,6.10545-5.23066,10.20529A189.4069,189.4069,0,0,1,35.945,40.19417c-1.05024,6.21737,5.97187,8.1721,10.98682,8.07739Z"/><path class="cls-3" d="M50.85,47.88728c-9.52235,1.37526-13.47146-9.96936-12.593-17.699l.12707.00445c.12913,8.80369,3.57908,15.66043,12.466,17.69458Z"/><path class="cls-3" d="M49.45292,48.85505c-9.52237,1.37587-13.47135-9.96921-12.593-17.69878l.1271.00445c.12908,8.80328,3.579,15.66066,12.46594,17.69433Z"/><path class="cls-4" d="M82.39761,83.15029V62.71065c0-4.33771-14.57247-14.05893-32.2-14.05893s-32.2,9.72122-32.2,14.05893V83.15029S33.04133,95.219,50.00135,95.219,82.39761,83.15029,82.39761,83.15029Z"/><path class="cls-5" d="M38.208,93.59715v-33.494A15.59466,15.59466,0,0,0,49.896,65.00084a15.59466,15.59466,0,0,0,11.68806-4.89765v33.494C59.21308,94.35584,39.80279,94.12307,38.208,93.59715Z"/><path class="cls-6" d="M82.25084,83.15022c-.9025-6.75449-1.40095-13.61687-1.78521-20.40283-.77045-1.862-3.02528-3.324-4.78672-4.47931a44.92627,44.92627,0,0,0-12.61973-5.2912,49.705,49.705,0,0,0-27.18331.40551,42.39318,42.39318,0,0,0-12.39222,5.68775,10.58043,10.58043,0,0,0-3.5134,3.52486c-.34485,4.92885-.59547,9.9458-1.09213,14.89359-.12237,1.80539-.5142,5.4566-.7338,7.25439h-.29354l-.0416-14.50879-.02078-7.25439a3.37309,3.37309,0,0,1,.45816-1.83521c5.74237-8.38217,21.38032-12.67466,31.14978-12.77747A49.87713,49.87713,0,0,1,77.06388,56.219c2.17431,1.58835,4.70805,3.314,5.50026,6.03809.11668,4.34237-.04975,16.38014-.01966,20.89316Z"/><path class="cls-7" d="M39.05561,83.15022c-3.27431-1.45107-11.53768-6.45925-9.206-10.903a15.8877,15.8877,0,0,1,1.99494-2.39947c.74537-.7942,2.0085-1.722,2.11328-2.71189.01591-.68384-.88367-1.57906-1.51484-2.09351-3.20828-2.72309-2.73614-5.85752-.04255-8.70362-5.42717,8.26727,4.63477,7.117,2.96757,12.08636-.83346,1.892-2.54782,3.07151-3.59932,4.74788-1.5738,2.14059,5.71553,8.15226,7.28691,9.97727Z"/><path class="cls-7" d="M25.74491,69.64851a45.20326,45.20326,0,0,1,.129,19.78882,45.19628,45.19628,0,0,1-.129-19.78882Z"/><path class="cls-7" d="M72.25294,69.7657a45.20372,45.20372,0,0,1,.129,19.78882,45.1966,45.1966,0,0,1-.129-19.78882Z"/><path class="cls-7" d="M40.35182,50.90144c-5.51263,2.92711-16.95995,7.50622-18.8545,13.66043-.35774,1.69067-.60363,6.22958-.7793,8.0247-.31478,3.64006-.60119,7.2929-1.155,10.94841A91.9166,91.9166,0,0,1,18.9185,72.5157c.22213-3.695-.457-8.0713,1.84828-11.24588,2.36644-3.15359,5.73833-5.023,9.15067-6.6907a57.77925,57.77925,0,0,1,10.43437-3.67768Z"/><path class="cls-6" d="M73.85728,89.55451c-.15606-5.13543-.42858-15.46278-.54369-20.59744l.60729.60721-1.168.02808.63525-.63526c.06018,2.20337.00266,4.407-.0805,6.6106-.0976,2.20337-.24286,4.407-.49118,6.61035H72.6891a104.16875,104.16875,0,0,1-.554-13.87134l.61774.01489c.40355.02749,1.39811.02043,1.78988.04277l-.0144.59273c-.11548,5.13228-.38749,15.46687-.54372,20.59743l-.12736,0Z"/><path class="cls-6" d="M26.4105,90.64558c-.14587-5.40685-.38708-16.28226-.47928-21.68851l-.01034-.53.5534-.01318c.33348.01382,1.13815-.0427,1.46222-.03486A140.161,140.161,0,0,1,28.513,86.858l-.12713.00733c-.47238-2.962-.79672-5.9376-1.054-8.92139-.266-2.97852-.39207-5.96533-.47731-8.95435l.56452.533-.9448-.0227.54288-.54273-.21133,10.84424-.268,10.84424Z"/><path class="cls-4" d="M50.19758,48.65172c-7.80335,0-14.81621,4.77786-16.83793,6.33315-2.09712,1.61329-3.22642,4.03323-2.74243,5.80785s4.19455,3.71056,4.19455,5.80784-4.27585,4.03322-4.27585,5.64651,7.672,9.19575,7.672,9.19575V55.79152s2.884-5.23707,11.98962-5.23707"/><path class="cls-6" d="M50.19758,48.7154A26.65254,26.65254,0,0,0,37.981,52.2884c-2.62825,1.57411-5.80281,3.158-6.88851,6.205-1.23469,2.9473,2.00915,4.29,3.44684,6.34259,2.48633,3.29832-2.6049,4.9512-3.5357,7.37981a5.51237,5.51237,0,0,0,1.06019,1.78573,80.545,80.545,0,0,0,6.5486,7.032l-.97987.40917c-.04157-4.27515-.10321-8.55029-.07761-12.82544.05345-4.343-.0043-8.75634.21806-13.06544,2.74812-3.96937,7.84794-5.25332,12.42459-5.061l0,.12744a16.60279,16.60279,0,0,0-9.3981,3.06448,9.12818,9.12818,0,0,0-2.15659,2.34836l.06156-.2395q.2776,13.52043.06537,27.04516c-2.93491-3.09615-6.11406-6.03557-8.39661-9.67324-1.0873-1.8691,1.45818-3.22944,2.46981-4.28528,2.11053-1.79483,1.9547-2.90793.05688-4.77391A19.57486,19.57486,0,0,1,30.669,61.68318c-1.77153-3.368,1.65468-6.5729,4.303-8.13591C39.3253,50.83244,45.20412,48.245,50.19758,48.7154Z"/><path class="cls-4" d="M49.59447,48.65172c7.80335,0,14.81622,4.77786,16.83794,6.33315,2.09711,1.61329,3.22641,4.03323,2.74243,5.80785s-4.19456,3.71056-4.19456,5.80784,4.27585,4.03322,4.27585,5.64651-7.672,9.19575-7.672,9.19575V54.52S58.70009,49.283,49.59447,49.283"/><path class="cls-6" d="M49.59446,48.588c5.434-.00943,10.68635,2.07695,15.22767,4.96044,2.649,1.56057,6.07492,4.7733,4.29949,8.13875a19.53681,19.53681,0,0,1-2.23281,2.41961c-1.90116,1.86246-2.04817,2.99092.06069,4.77269,1.01471,1.03371,3.57823,2.47462,2.47289,4.29032-2.29147,3.63113-5.465,6.574-8.40082,9.66828q-.2048-14.1591.07269-28.318l.06069.23608a8.96,8.96,0,0,0-2.15726-2.3518,16.58634,16.58634,0,0,0-9.40323-3.05758v-.12748c4.57792-.18787,9.66379,1.10133,12.4187,5.0642l.05909.09083.00174.14575c.1702,8.97372.22038,17.94787.08557,26.92261l-.98-.40918c2.58646-2.6289,5.399-5.20513,7.41852-8.30119a.77068.77068,0,0,0-.01258-1.03158c-1.40893-1.90349-5.61192-4.01114-3.33487-6.86164.942-1.31076,2.40059-2.28419,3.29692-3.53337,1.09041-1.72051-.19822-4.07439-1.49373-5.39989a28.9601,28.9601,0,0,0-17.45934-7.19059l-.00007-.1273Z"/><path class="cls-8" d="M49.896,49.9701c7.1578,0,11.68806,2.53327,11.68806,6.58651v3.54658A15.59466,15.59466,0,0,1,49.896,65.00084,15.59466,15.59466,0,0,1,38.208,60.10319V56.55661c0-4.05324,4.53026-6.58651,11.68807-6.58651"/><path d="M49.896,49.90632c5.0389-.15685,12.69074,1.3669,12.011,7.89683l.02809,2.29995c-4.2321,5.33555-12.41831,6.65772-18.62982,4.22446a14.43471,14.43471,0,0,1-5.75262-3.984l.00155-.24051.0145-2.3c-.39664-4.90256,3.42559-7.11735,7.692-7.73458a22.07621,22.07621,0,0,1,4.63532-.16215v.12744c-4.63762.32325-11.91167,1.71655-11.04873,7.7693l.01443,2.3-.1467-.4126c6.26646,6.66029,16.76321,5.9361,22.518.41238a41.04087,41.04087,0,0,0-.04957-4.53127c-.59429-3.05-3.9619-4.47547-6.73942-5.05543a24.53525,24.53525,0,0,0-4.548-.48242v-.12744Z"/><path class="cls-9" d="M38.992,59.67927l-.18481-2.1416c-.173-5.776,7.26991-7.93776,11.93639-6.78368l.00016.12743c-1.423.33081-2.808.56421-4.156.89087-3.147.64308-7.19026,1.95172-7.28346,5.76552l-.1849,2.14146Z"/><path class="cls-10" d="M35.90358,82.17816v-28.256A18.66925,18.66925,0,0,1,49.896,48.05893a18.66924,18.66924,0,0,1,13.99244,5.86326V72.35208"/><path class="cls-8" d="M42.537,54.30318a4.04094,4.04094,0,0,0,1.37552-2.97612V42.23989H56.15461v9.08717A4.95036,4.95036,0,0,0,57.255,54.30318"/><path d="M42.49742,54.25325c1.71174-1.47863,1.18058-3.78555,1.17988-5.78079l-.1494-6.2324-.009-.37622.39374-.00854,12.24188-.27.64951-.01441.00522.66919q.024,3.07983-.12815,6.15967c-.03434,2.00825-.60876,4.05566.62185,5.86131l-.09582.08425a4.73106,4.73106,0,0,1-1.3887-2.853c-.23417-3.09377-.3398-6.15767-.31845-9.2522l.65454.65454-12.24188-.27.38455-.38452-.14944,6.23242c-.09129,2.02331.25875,4.49479-1.5712,5.88058l-.07913-.09981Z"/><path class="cls-9" d="M43.34507,55.1009a3.892,3.892,0,0,0,1.08573-2.68652c-.09606-3.0425-.77311-6.37445.26574-9.3269h.12735a14.50644,14.50644,0,0,1,.44574,6.23267c-.14521,2.01991.082,4.61884-1.84541,5.88057l-.07915-.09981Z"/><path class="cls-8" d="M38.582,21.16535c0,13.595,1.0623,25.36721,11.61555,25.36721s11.496-11.7722,11.496-25.36721l-8.87579-4.95026Z"/><path d="M38.63392,21.20222c.11179,5.12524.19275,10.44141,1.401,15.47168a14.97706,14.97706,0,0,0,3.32721,6.81689c3.39192,3.61441,10.21073,3.58927,13.5333-.0692a14.65282,14.65282,0,0,0,3.11541-6.80506c1.05863-5.02686,1.013-10.26245,1.02109-15.45118l.33927.57789c-2.95386-1.65845-5.90982-3.31324-8.83631-5.02076l.4736.04126c-4.76534,1.5702-9.49414,3.00049-14.37454,4.43848Zm-.10379-.07373c4.67949-1.9032,9.52371-3.79329,14.3306-5.54858,3.07189,1.63265,6.11265,3.32189,9.155,5.00756l.34231.1897-.00286.38818c-.0559,5.2452-.13543,10.53321-1.33335,15.68482-.86253,3.7977-2.87008,8.05825-6.86474,9.43087-3.77783,1.3-8.491.73242-11.26506-2.34976-4.929-5.945-4.2517-15.46812-4.36193-22.80279Z"/><path class="cls-9" d="M39.49339,20.3177c.495,7.62158.05813,20.37785,7.87612,24.286a14.69118,14.69118,0,0,0,3.67573,1.01747v.12747a8.75148,8.75148,0,0,1-8.19263-3.23634,15.3917,15.3917,0,0,1-2.688-6.50853c-1.07625-5.2129-.935-10.47632-.79857-15.686Z"/><path class="cls-9" d="M52.13688,17.221c1.56457,4.04,4.13927,10.92148,8.844,11.85785l.00018.127c-4.16255.21914-10.5225-8.29336-8.84418-11.98486Z"/><path class="cls-1" d="M52.81776,16.21509c0,8.55729-8.08475,11.45435-15.47231,11.45435l1.71017-12.63166H62.93786l0,13.09848C57.73179,28.13626,52.81776,20.22526,52.81776,16.21509Z"/><path class="cls-2" d="M61.72563,28.2c-3.98255-.39653-6.70592-4.723-8.31191-8.025a11.24384,11.24384,0,0,1-1.05589-3.9599h.91986c.32789,8.09479-7.4135,12.40917-14.72019,11.51791l.00016-.12729A25.38018,25.38018,0,0,0,43.50785,26.547c3.08727-1.00054,6.0573-2.76588,7.65148-5.64647a10.36581,10.36581,0,0,0,1.19847-4.68532h.91989c.23952,3.77547,2.41794,7.4699,5.066,10.12678a5.78056,5.78056,0,0,0,3.382,1.73064V28.2Z"/><path class="cls-3" d="M37.50511,26.73957c6.07738-1.612,14.59625-5.19571,14.93251-12.43122l.81779.23615a25.78154,25.78154,0,0,1-5.32768,5.57082A19.334,19.334,0,0,1,41.121,23.565l-.03491-.12229a17.86273,17.86273,0,0,0,3.44068-1.55518,25.077,25.077,0,0,0,7.97891-7.81564l.78375-1.23734a11.25794,11.25794,0,0,1-5.41755,10.81125,19.60724,19.60724,0,0,1-10.35319,3.22055l-.01362-.12677Z"/><path class="cls-8" d="M48.99162,8.58454C42.63139,9.9094,35.47677,13.9124,34.83641,21.02767h-.12732c-.30653-6.68,7.789-14.27144,14.28253-12.44312Z"/><path class="cls-8" d="M64.62214,39.983c-.21247-9.81525,1.94415-24.25757-9.6729-28.15855l.02569-.12465C68.12534,13.15105,65.42214,30.848,64.62214,39.983Z"/><path class="cls-11" d="M62.87416,25.87263c-.50884-5.45475-3.0246-11.22953-7.92473-14.04823l.0255-.12462c3.16571-.01652,5.41665,2.93858,6.44264,5.628a19.36608,19.36608,0,0,1,1.584,8.54489Z"/><path class="cls-8" d="M36.76735,26.002c6.68017-1.24325,13.85979-5.29441,15.31187-12.4316l.1273,0c.778,3.80581-1.987,7.438-5.15884,9.21377a22.84577,22.84577,0,0,1-10.26675,3.34434l-.01358-.12647Z"/><path class="cls-5" d="M61.58409,90.6455V60.10319A15.59466,15.59466,0,0,1,49.896,65.00084,15.59466,15.59466,0,0,1,38.208,60.10319V90.6455"/><path d="M61.5204,90.64558l-.33149-30.54224.7016.24951a15.15042,15.15042,0,0,1-5.46362,3.82886c-6.225,2.59964-14.03322,1.378-18.71876-3.6716l1.14439-.40677c.0546,7.63589-.07638,15.273-.29148,22.9065-.06323,2.54541-.17019,5.09057-.28939,7.63574h-.12738q-.71259-16.09527-.56475-32.2168c5.77173,7.73518,18.25537,8.14213,24.41094.64685l-.01117,1.02771c-.13808.01451-.091,30.78687-.45889,30.54224Z"/><path class="cls-12" d="M60.19737,62.16511a86.25317,86.25317,0,0,1,.129,27.38941,86.23927,86.23927,0,0,1-.129-27.38941Z"/><circle class="cls-13" cx="35.90358" cy="82.17816" r="2.65408"/><path class="cls-14" d="M38.49427,82.17805c.00686-3.11972-4.84807-3.07488-4.73774.00007.17565,2.68493,4.59489,2.69011,4.73774-.00007Zm.12677,0c.11366,4.39368-5.88144,4.306-5.8786-.00008a2.9393,2.9393,0,0,1,5.8786.00008Z"/><circle class="cls-15" cx="35.90358" cy="82.17816" r="0.97214"/><path class="cls-14" d="M36.812,82.17805c.09363-.93888-1.56137-.85514-1.3711,0,.06268.23952.28305.24916.46266.33541.26642.19327.86124.15027.90844-.33544Zm.12738,0c.30287,2.18153-2.63134,2.0811-2.51744-.00005a1.259,1.259,0,1,1,2.51744.00005Z"/><path class="cls-10" d="M66.70855,88.04571a2.12539,2.12539,0,0,0,2.11916-2.11916V74.47124a2.12539,2.12539,0,0,0-2.11916-2.11916H61.06839a2.12539,2.12539,0,0,0-2.11916,2.11916V85.92655a2.12539,2.12539,0,0,0,2.11916,2.11916"/><circle class="cls-16" cx="49.85365" cy="50.35954" r="47.1047"/></g><g id="paleta"><rect class="cls-17" x="6.36295" y="79.52632" width="86.9814" height="28.15918" rx="4.56377"/><path class="cls-8" d="M36.5547,99.94009a6.22311,6.22311,0,0,1-2.0542-.29736,3.60466,3.60466,0,0,1-1.35352-.79688,2.67949,2.67949,0,0,1-.70068-1.09424,2.48906,2.48906,0,0,1-.07715-1.229.43662.43662,0,0,1,.17285-.269.51777.51777,0,0,1,.30713-.09571h.94092a.60072.60072,0,0,1,.31689.07666.44234.44234,0,0,1,.16309.32666,1.49343,1.49343,0,0,0,.41309,1.0752,2.09035,2.09035,0,0,0,.998.52783,5.237,5.237,0,0,0,1.21924.144,4.0529,4.0529,0,0,0,2.28467-.63378,2.86188,2.86188,0,0,0,1.229-1.86231,1.70645,1.70645,0,0,0-.37451-1.78564,2.99,2.99,0,0,0-1.94873-.5376H36.2671a.352.352,0,0,1-.28808-.11524.42735.42735,0,0,1-.07667-.32617l.11475-.51855a.74184.74184,0,0,1,.13477-.29737,2.22546,2.22546,0,0,1,.19189-.22119l4.56934-4.07031H35.26857a.34814.34814,0,0,1-.29786-.11523.40621.40621,0,0,1-.04785-.32618l.15381-.72949a.54089.54089,0,0,1,.1919-.33642.53339.53339,0,0,1,.3457-.12452h7.66064a.33571.33571,0,0,1,.29737.12452.43919.43919,0,0,1,.04834.33642l-.13428.69092a.48249.48249,0,0,1-.106.24023q-.08642.10548-.18213.20166l-4.60791,4.12793.32618.01905a5.10415,5.10415,0,0,1,2.09277.46093,2.47676,2.47676,0,0,1,1.229,1.25733,3.37132,3.37132,0,0,1,.07666,2.10254,4.56827,4.56827,0,0,1-1.104,2.19824A5.44907,5.44907,0,0,1,39.166,99.46011,7.01772,7.01772,0,0,1,36.5547,99.94009Z"/><path class="cls-8" d="M44.00441,98.03921a1.41706,1.41706,0,0,1,.23974-.39355.52282.52282,0,0,1,.41309-.16309H45.9629a.253.253,0,0,1,.23047.125.2496.2496,0,0,1-.01953.27832l-1.67041,2.86084a1.463,1.463,0,0,1-.24951.3169.54515.54515,0,0,1-.38379.12451h-.67236a.232.232,0,0,1-.22071-.12451.32852.32852,0,0,1,.00977-.29786Z"/><path class="cls-8" d="M52.856,99.94009a4.86886,4.86886,0,0,1-2.4961-.57568,3.00223,3.00223,0,0,1-1.35351-1.74756,6.08154,6.08154,0,0,1-.06738-2.89893q.115-.57641.2207-1.13281.10547-.55663.23047-1.12353.12452-.56544.27832-1.123a8.86653,8.86653,0,0,1,1.17138-2.88965,5.00523,5.00523,0,0,1,1.91993-1.74707,5.85913,5.85913,0,0,1,2.688-.58545,4.80607,4.80607,0,0,1,2.49609.58545,3.08517,3.08517,0,0,1,1.36328,1.74707,5.95936,5.95936,0,0,1,.07666,2.88965q-.09667.55737-.21143,1.123-.115.56688-.23974,1.12353-.12525.55663-.27832,1.13281a9.28235,9.28235,0,0,1-1.19043,2.89893A4.95106,4.95106,0,0,1,55.563,99.36441,5.91245,5.91245,0,0,1,52.856,99.94009Zm.07666-1.63184a3.40141,3.40141,0,0,0,2.40967-.8833,5.49631,5.49631,0,0,0,1.41113-2.80322q.15307-.57569.26855-1.085.11573-.5083.2212-1.02686.10473-.51855.20117-1.07519a4.60512,4.60512,0,0,0-.11475-2.80322,1.99978,1.99978,0,0,0-1.9585-.8833,3.36519,3.36519,0,0,0-2.3999.8833,5.542,5.542,0,0,0-1.40185,2.80322q-.13477.55664-.25928,1.07519-.12525.51856-.2207,1.02686-.096.509-.21143,1.085a4.60739,4.60739,0,0,0,.11524,2.80322A1.97914,1.97914,0,0,0,52.93263,98.30825Z"/><path class="cls-8" d="M62.78175,99.7482a.27008.27008,0,0,1-.24951-.125.38784.38784,0,0,1-.03858-.29737.4332.4332,0,0,1,.05762-.15381.65705.65705,0,0,1,.07715-.0957l3.80127-4.08984a4.66386,4.66386,0,0,1-1.05567.11523,4.45049,4.45049,0,0,1-1.84326-.38379,3.19827,3.19827,0,0,1-1.229-.98877,3.35573,3.35573,0,0,1-.60449-1.41113,4.12708,4.12708,0,0,1,.04785-1.65137,5.28886,5.28886,0,0,1,.65283-1.65136,6.21823,6.21823,0,0,1,1.20947-1.459,5.72177,5.72177,0,0,1,1.71826-1.04639,5.95558,5.95558,0,0,1,2.21778-.39355,4.99073,4.99073,0,0,1,2.04492.374,3.20166,3.20166,0,0,1,1.92969,2.46729,4.36275,4.36275,0,0,1-.05762,1.67041,4.66021,4.66021,0,0,1-.52832,1.43994,8.15894,8.15894,0,0,1-.80615,1.17139q-.43213.51855-.81592.96l-4.80029,5.165a1.85625,1.85625,0,0,1-.24951.23974.666.666,0,0,1-.44141.144Zm3.1875-6.20166a3.58851,3.58851,0,0,0,1.55518-.355,3.85074,3.85074,0,0,0,1.29589-.99854,3.45144,3.45144,0,0,0,.73926-1.54541,2.72919,2.72919,0,0,0-.08642-1.5459,1.997,1.997,0,0,0-.86426-.99853,2.73855,2.73855,0,0,0-1.41113-.355,3.5315,3.5315,0,0,0-1.54542.355,3.78977,3.78977,0,0,0-1.27685.99853,3.50478,3.50478,0,0,0-.72949,1.5459,2.57223,2.57223,0,0,0,.07666,1.54541,2.05519,2.05519,0,0,0,.86426.99854A2.643,2.643,0,0,0,65.96925,93.54654Z"/><path class="cls-8" d="M72.439,99.7482c-.1919,0-.3042-.07032-.33594-.21143a.394.394,0,0,1,.125-.38379l12.11523-12.48a2.17249,2.17249,0,0,1,.3169-.269.74608.74608,0,0,1,.4126-.09571h.76806a.29352.29352,0,0,1,.32617.21094.37529.37529,0,0,1-.11523.38428l-12.11524,12.48a2.10446,2.10446,0,0,1-.3164.26855.74045.74045,0,0,1-.41309.0962Zm2.97607-6.624a2.66377,2.66377,0,0,1-1.35352-.32617,1.93507,1.93507,0,0,1-.82568-.91211,2.518,2.518,0,0,1-.16308-1.35351q.07617-.49952.16308-.84522.08643-.345.2207-.88281a3.73948,3.73948,0,0,1,1.09473-1.88184,3.00621,3.00621,0,0,1,2.09277-.71045,2.67675,2.67675,0,0,1,1.40137.33594,1.94894,1.94894,0,0,1,.80664.92188,2.474,2.474,0,0,1,.13428,1.35351q-.0769.5376-.16309.8833-.08641.34571-.2207.84473a3.7062,3.7062,0,0,1-1.104,1.8623A3.014,3.014,0,0,1,75.415,93.12417Zm.03857-1.26709a1.59066,1.59066,0,0,0,1.19043-.45117,2.39185,2.39185,0,0,0,.59522-.93115q.134-.51855.19189-.81641.05787-.29736.13428-.77734a2.32159,2.32159,0,0,0,.01953-.6626.83035.83035,0,0,0-.269-.52783,1.05841,1.05841,0,0,0-.72949-.21143,1.59429,1.59429,0,0,0-1.20948.4419,2.1708,2.1708,0,0,0-.55712.96q-.134.48046-.1919.77734-.05785.2981-.13428.81641a2.4,2.4,0,0,0,.00928.64307.87266.87266,0,0,0,.27881.52783A.95929.95929,0,0,0,75.45362,91.85708Zm6.18213,8.00635a2.716,2.716,0,0,1-1.36279-.32666,1.91806,1.91806,0,0,1-.83545-.91162,2.40977,2.40977,0,0,1-.144-1.35352q.0769-.4995.15381-.85449.07617-.35522.21093-.89306a3.89713,3.89713,0,0,1,1.104-1.86231,2.97208,2.97208,0,0,1,2.08349-.71045,2.73083,2.73083,0,0,1,1.41114.33594,1.93308,1.93308,0,0,1,.81592.92187,2.36664,2.36664,0,0,1,.11523,1.35352q-.0769.5376-.15381.8833t-.21094.84473a3.70618,3.70618,0,0,1-1.104,1.8623A3.01406,3.01406,0,0,1,81.63575,99.86343Zm.03858-1.26709a1.58994,1.58994,0,0,0,1.19043-.45117,2.19842,2.19842,0,0,0,.57617-.93115q.15308-.51857.21094-.81641.05785-.29736.11523-.77734a1.65657,1.65657,0,0,0,.019-.6626.97275.97275,0,0,0-.26855-.52783.9837.9837,0,0,0-.71045-.21143,1.58967,1.58967,0,0,0-1.21924.4419,2.21429,2.21429,0,0,0-.54736.96q-.134.47973-.1919.77734c-.03808.19873-.08349.4707-.13427.81641a2.3802,2.3802,0,0,0,.00976.64306.86946.86946,0,0,0,.27832.52783A.95926.95926,0,0,0,81.67433,98.59634Z"/><polygon class="cls-8" points="11.881 97.324 19.317 89.888 26.753 97.324 11.881 97.324"/></g></svg>