<?xml version="1.0" encoding="UTF-8"?>
<svg id="med-especialista" xmlns="http://www.w3.org/2000/svg" width="100" height="100" viewBox="0 0 100 100">
  <defs>
    <style>
      .cls-1 {
        fill: #f5f5f6;
      }

      .cls-2 {
        fill: #68768c;
      }

      .cls-3 {
        fill: #0a2346;
      }

      .cls-4 {
        fill: #a6a6a6;
      }

      .cls-5 {
        fill: #3d5c75;
      }

      .cls-6 {
        fill: #47576d;
      }

      .cls-7 {
        fill: #9fbae1;
      }

      .cls-8 {
        fill: #fff;
      }

      .cls-9 {
        fill: #2b3e63;
      }

      .cls-10 {
        fill: #0d1729;
      }

      .cls-11 {
        fill: #e4eaf8;
      }

      .cls-12 {
        fill: #e2e1e4;
      }

      .cls-13 {
        fill: #434a5e;
      }

      .cls-14 {
        stroke: #3d5c75;
        stroke-linecap: round;
        stroke-linejoin: round;
        stroke-width: 1.7px;
      }

      .cls-14, .cls-15 {
        fill: none;
      }

      .cls-15 {
        stroke: #385076;
        stroke-miterlimit: 10;
        stroke-width: 2.94px;
      }

      .cls-16 {
        fill: #707487;
      }
    </style>
  </defs>
  <g>
    <path class="cls-16" d="M49.63,49.8c9.29,0,16.54-2.1,16.54-11.29,0-9.2,3.5-28.56-13.28-28.56,0,0,0-2.9-4.63-2.9-7.26,0-14.22,6.3-14.22,12.51,0,24.28-5.62,30.25,15.59,30.25Z"/>
    <path class="cls-10" d="M49.63,49.65c7.19.19,16.21-1.57,16.02-10.49-.19-7.18,1.03-14.87-1.73-21.66-1.78-4.54-6.32-6.7-11.03-6.49,0,0-1.06-1.06-1.06-1.06-.7-2.27-3.99-1.77-5.93-1.43-4.88,1.06-9.8,5.35-10.32,10.38-.05,1.24,0,2.9-.05,4.22-.09,4.33-.45,8.71-.81,12.99-.17,2.82-.51,5.72.24,8.21,1.88,5.42,9.89,5.05,14.67,5.33h0ZM49.63,49.95c-5.41-.18-13.53.93-16.27-5-1.21-2.88-1.2-5.93-1.24-8.93.02-4.21.27-8.76.35-12.96,0,0,.03-2.14.03-2.14-.3-4.02,1.72-8.15,4.63-10.62,3.52-3.13,8.27-5.08,13.05-4.21,1.26.25,2.73,1.05,3.35,2.33.25.53.38.89.41,1.54,0,0-1.06-1.06-1.06-1.06,16.94.18,14.45,18.43,13.76,30.31-.41,9.29-9.47,10.78-17.02,10.74h0Z"/>
  </g>
  <path class="cls-6" d="M46.93,48.27c-5.85,1.44-13.68-.89-12.91-8.21,0,0,.06-1.53.06-1.53.16-3.9.77-14.37,1.01-18.4.09-4.4,3.26-8.07,6.89-10.16-2.9,2.72-5.44,6.11-5.23,10.21.15,6.68-.24,13.36-.8,20.01-1.05,6.22,5.97,8.17,10.99,8.08h0Z"/>
  <path class="cls-6" d="M50.85,47.89c-9.52,1.38-13.47-9.97-12.59-17.7,0,0,.13,0,.13,0,.13,8.8,3.58,15.66,12.47,17.69h0Z"/>
  <path class="cls-6" d="M49.45,48.86c-9.52,1.38-13.47-9.97-12.59-17.7,0,0,.13,0,.13,0,.13,8.8,3.58,15.66,12.47,17.69h0Z"/>
  <path class="cls-11" d="M82.4,83.15c0-21.69,0-16.1,0-20.44s-14.57-14.06-32.2-14.06c-17.63,0-32.2,9.72-32.2,14.06s0-1.25,0,20.44c0,0,15.04,12.07,32,12.07s32.4-12.07,32.4-12.07Z"/>
  <path class="cls-9" d="M38.21,93.6v-33.49s3.99,4.9,11.69,4.9c7.7,0,11.69-4.9,11.69-4.9v33.49c-2.37.76-21.78.53-23.38,0Z"/>
  <path class="cls-2" d="M82.25,83.15c-.9-6.75-1.4-13.62-1.79-20.4-.77-1.86-3.03-3.32-4.79-4.48-3.81-2.42-8.18-4.12-12.62-5.29-8.9-2.4-18.36-2.25-27.18.41-4.41,1.26-8.72,3.15-12.39,5.69-1.37,1-2.8,2.06-3.51,3.52-.34,4.93-.6,9.95-1.09,14.89-.12,1.81-.51,5.46-.73,7.25,0,0-.29,0-.29,0l-.04-14.51-.02-7.25c-.05-.62.16-1.3.46-1.84,5.74-8.38,21.38-12.67,31.15-12.78,9.7-.09,19.53,2.51,27.67,7.85,2.17,1.59,4.71,3.31,5.5,6.04.12,4.34-.05,16.38-.02,20.89,0,0-.29,0-.29,0h0Z"/>
  <path class="cls-7" d="M39.06,83.15c-3.27-1.45-11.54-6.46-9.21-10.9.56-.87,1.3-1.69,1.99-2.4.75-.79,2.01-1.72,2.11-2.71.02-.68-.88-1.58-1.51-2.09-3.21-2.72-2.74-5.86-.04-8.7-5.43,8.27,4.63,7.12,2.97,12.09-.83,1.89-2.55,3.07-3.6,4.75-1.57,2.14,5.72,8.15,7.29,9.98h0Z"/>
  <path class="cls-7" d="M25.74,69.65c1.5,6.49,1.55,13.28.13,19.79-1.51-6.49-1.54-13.28-.13-19.79h0Z"/>
  <path class="cls-7" d="M72.25,69.77c1.5,6.49,1.55,13.28.13,19.79-1.51-6.49-1.54-13.28-.13-19.79h0Z"/>
  <path class="cls-7" d="M40.35,50.9c-5.51,2.93-16.96,7.51-18.85,13.66-.36,1.69-.6,6.23-.78,8.02-.31,3.64-.6,7.29-1.15,10.95-.47-3.67-.61-7.34-.64-11.02.22-3.7-.46-8.07,1.85-11.25,2.37-3.15,5.74-5.02,9.15-6.69,3.37-1.57,6.86-2.78,10.43-3.68h0Z"/>
  <path class="cls-2" d="M73.86,89.55c-.16-5.14-.43-15.46-.54-20.6,0,0,.61.61.61.61l-1.17.03.64-.64c.06,2.2,0,4.41-.08,6.61-.1,2.2-.24,4.41-.49,6.61h-.13c-.49-4.61-.68-9.24-.55-13.87,0,0,.62.01.62.01.4.03,1.4.02,1.79.04,0,0-.01.59-.01.59-.12,5.13-.39,15.47-.54,20.6,0,0-.13,0-.13,0h0Z"/>
  <path class="cls-2" d="M26.41,90.65c-.15-5.41-.39-16.28-.48-21.69,0,0-.01-.53-.01-.53h.55c.33,0,1.14-.06,1.46-.05.56,6.14.83,12.31.58,18.48,0,0-.13,0-.13,0-.47-2.96-.8-5.94-1.05-8.92-.27-2.98-.39-5.97-.48-8.95l.56.53s-.94-.02-.94-.02l.54-.54-.21,10.84-.27,10.84h-.13Z"/>
  <g>
    <path class="cls-11" d="M50.2,48.65c-7.8,0-14.82,4.78-16.84,6.33-2.1,1.61-3.23,4.03-2.74,5.81s4.19,3.71,4.19,5.81-4.28,4.03-4.28,5.65,7.67,9.2,7.67,9.2v-25.65s2.88-5.24,11.99-5.24"/>
    <path class="cls-2" d="M50.2,48.72c-4.31.08-8.48,1.51-12.22,3.57-2.63,1.57-5.8,3.16-6.89,6.21-1.23,2.95,2.01,4.29,3.45,6.34,2.49,3.3-2.6,4.95-3.54,7.38.15.66.65,1.2,1.06,1.79,1.99,2.5,4.27,4.79,6.55,7.03,0,0-.98.41-.98.41-.04-4.28-.1-8.55-.08-12.83.05-4.34,0-8.76.22-13.07,2.75-3.97,7.85-5.25,12.42-5.06,0,0,0,.13,0,.13-3.31.18-6.76.99-9.4,3.06-.85.66-1.64,1.5-2.16,2.35l.06-.24c.19,9.01.2,18.03.07,27.05-2.93-3.1-6.11-6.04-8.4-9.67-1.09-1.87,1.46-3.23,2.47-4.29,2.11-1.79,1.95-2.91.06-4.77-.73-.77-1.57-1.46-2.23-2.42-1.77-3.37,1.65-6.57,4.3-8.14,4.35-2.71,10.23-5.3,15.23-4.83h0Z"/>
  </g>
  <g>
    <path class="cls-11" d="M49.59,48.65c7.8,0,14.82,4.78,16.84,6.33s3.23,4.03,2.74,5.81c-.48,1.77-4.19,3.71-4.19,5.81s4.28,4.03,4.28,5.65-7.67,9.2-7.67,9.2v-26.92s-2.88-5.24-11.99-5.24"/>
    <path class="cls-2" d="M49.59,48.59c5.43,0,10.69,2.08,15.23,4.96,2.65,1.56,6.07,4.77,4.3,8.14-.66.96-1.5,1.65-2.23,2.42-1.9,1.86-2.05,2.99.06,4.77,1.01,1.03,3.58,2.47,2.47,4.29-2.29,3.63-5.47,6.57-8.4,9.67-.14-9.44-.11-18.88.07-28.32,0,0,.06.24.06.24-.51-.86-1.31-1.69-2.16-2.35-2.64-2.08-6.09-2.88-9.4-3.06,0,0,0-.13,0-.13,4.58-.19,9.66,1.1,12.42,5.06,0,0,.06.09.06.09v.15c.17,8.97.22,17.95.09,26.92,0,0-.98-.41-.98-.41,2.59-2.63,5.4-5.21,7.42-8.3.26-.47.25-.6-.01-1.03-1.41-1.9-5.61-4.01-3.33-6.86.94-1.31,2.4-2.28,3.3-3.53,1.09-1.72-.2-4.07-1.49-5.4-4.81-4.12-11.06-6.98-17.46-7.19,0,0,0-.13,0-.13h0Z"/>
  </g>
  <g>
    <path class="cls-8" d="M49.9,49.97c7.16,0,11.69,2.53,11.69,6.59v3.55s-3.99,4.9-11.69,4.9c-7.7,0-11.69-4.9-11.69-4.9v-3.55c0-4.05,4.53-6.59,11.69-6.59"/>
    <path d="M49.9,49.91c5.04-.16,12.69,1.37,12.01,7.9,0,0,.03,2.3.03,2.3-4.23,5.34-12.42,6.66-18.63,4.22-2.2-.88-4.19-2.14-5.75-3.98,0,0,0-.24,0-.24v-2.3c-.38-4.9,3.44-7.12,7.71-7.73,1.54-.23,3.1-.26,4.64-.16v.13c-4.64.32-11.91,1.72-11.05,7.77,0,0,.01,2.3.01,2.3l-.15-.41c6.27,6.66,16.76,5.94,22.52.41-.05-1.3.17-3.3-.05-4.53-.59-3.05-3.96-4.48-6.74-5.06-1.49-.31-3.02-.45-4.55-.48v-.13h0Z"/>
  </g>
  <path class="cls-4" d="M38.99,59.68l-.18-2.14c-.17-5.78,7.27-7.94,11.94-6.78,0,0,0,.13,0,.13-1.42.33-2.81.56-4.16.89-3.15.64-7.19,1.95-7.28,5.77,0,0-.18,2.14-.18,2.14h-.13Z"/>
  <path class="cls-14" d="M35.9,82.18v-28.26s4.77-5.86,13.99-5.86c9.22,0,13.99,5.86,13.99,5.86v18.43"/>
  <g>
    <path class="cls-8" d="M42.54,54.3s1.38-1.09,1.38-2.98v-9.09h12.24v9.09c0,1.72,1.1,2.98,1.1,2.98"/>
    <path d="M42.5,54.25c1.71-1.48,1.18-3.79,1.18-5.78,0,0-.15-6.23-.15-6.23v-.38s.38,0,.38,0l12.24-.27h.65s0,.65,0,.65c.02,2.05-.03,4.11-.13,6.16-.03,2.01-.61,4.06.62,5.86,0,0-.1.08-.1.08-.74-.74-1.28-1.74-1.39-2.85-.23-3.09-.34-6.16-.32-9.25l.65.65-12.24-.27.38-.38-.15,6.23c-.09,2.02.26,4.49-1.57,5.88,0,0-.08-.1-.08-.1h0Z"/>
  </g>
  <path class="cls-4" d="M43.35,55.1c.69-.74,1.11-1.73,1.09-2.69-.1-3.04-.77-6.37.27-9.33,0,0,.13,0,.13,0,.69,2.06.66,4.13.45,6.23-.15,2.02.08,4.62-1.85,5.88,0,0-.08-.1-.08-.1h0Z"/>
  <g>
    <path class="cls-8" d="M38.58,21.17c0,13.6,1.06,25.37,11.62,25.37s11.5-11.77,11.5-25.37l-8.88-4.95-14.24,4.95Z"/>
    <path d="M38.63,21.2c.11,5.13.19,10.44,1.4,15.47.63,2.49,1.57,4.98,3.33,6.82,3.39,3.61,10.21,3.59,13.53-.07,1.69-1.84,2.56-4.33,3.12-6.81,1.06-5.03,1.01-10.26,1.02-15.45l.34.58c-2.95-1.66-5.91-3.31-8.84-5.02l.47.04c-4.77,1.57-9.49,3-14.37,4.44h0ZM38.53,21.13c4.68-1.9,9.52-3.79,14.33-5.55,3.07,1.63,6.11,3.32,9.16,5.01l.34.19v.39c-.06,5.24-.14,10.53-1.34,15.68-.86,3.8-2.87,8.06-6.86,9.43-3.78,1.3-8.49.73-11.27-2.35-4.93-5.95-4.25-15.47-4.36-22.8h0Z"/>
  </g>
  <path class="cls-4" d="M39.49,20.32c.49,7.62.06,20.38,7.88,24.29,1.14.56,2.41.76,3.68,1.02,0,0,0,.13,0,.13-2.91.47-6.33-.72-8.19-3.24-1.49-1.85-2.2-4.24-2.69-6.51-1.08-5.21-.94-10.48-.8-15.69h.13Z"/>
  <path class="cls-4" d="M52.14,17.22c1.56,4.04,4.14,10.92,8.84,11.86,0,0,0,.13,0,.13-4.16.22-10.52-8.29-8.84-11.98h0Z"/>
  <path class="cls-16" d="M52.82,16.22c0,8.56-8.08,11.45-15.47,11.45l1.71-12.63h23.88v13.1c-5.21,0-10.12-7.91-10.12-11.92Z"/>
  <path class="cls-10" d="M61.73,28.2c-3.98-.4-6.71-4.72-8.31-8.02-.53-1.23-.99-2.53-1.06-3.96h.92c.33,8.09-7.41,12.41-14.72,11.52,0,0,0-.13,0-.13,1.7-.21,3.37-.53,4.95-1.06,3.09-1,6.06-2.77,7.65-5.65.78-1.41,1.15-3.03,1.2-4.69h.92c.24,3.78,2.42,7.47,5.07,10.13.94.87,2.08,1.64,3.38,1.73v.13h0Z"/>
  <path class="cls-6" d="M37.51,26.74c6.08-1.61,14.6-5.2,14.93-12.43,0,0,.82.24.82.24-2.24,3.16-5.13,5.85-8.57,7.64-1.13.61-2.35,1.03-3.57,1.38l-.03-.12c1.19-.42,2.36-.9,3.44-1.56,3.65-2.17,6.6-5.44,8.76-9.05.5,4.49-1.7,8.39-5.42,10.81-3.07,2.01-6.7,3.17-10.35,3.22,0,0-.01-.13-.01-.13h0Z"/>
  <path class="cls-8" d="M48.99,8.58c-6.36,1.32-13.51,5.33-14.16,12.44,0,0-.13,0-.13,0-.31-6.68,7.79-14.27,14.28-12.44h0Z"/>
  <path class="cls-8" d="M64.62,39.98c-.21-9.82,1.94-24.26-9.67-28.16,0,0,.03-.12.03-.12,13.15,1.45,10.45,19.15,9.65,28.28h0Z"/>
  <path class="cls-12" d="M62.87,25.87c-.51-5.45-3.02-11.23-7.92-14.05,0,0,.03-.12.03-.12,3.17-.02,5.42,2.94,6.44,5.63,1.15,2.71,1.74,5.65,1.58,8.54h-.13Z"/>
  <path class="cls-8" d="M36.77,26c6.68-1.24,13.86-5.29,15.31-12.43,0,0,.13,0,.13,0,.78,3.81-1.99,7.44-5.16,9.21-3.13,1.94-6.68,3.07-10.27,3.34v-.13h-.01Z"/>
  <g>
    <path class="cls-9" d="M61.58,90.65v-30.54s-3.99,4.9-11.69,4.9c-7.7,0-11.69-4.9-11.69-4.9v30.54"/>
    <path d="M61.52,90.65l-.33-30.54.7.25c-1.52,1.72-3.41,2.95-5.46,3.83-6.22,2.6-14.03,1.38-18.72-3.67,0,0,1.14-.41,1.14-.41.05,7.64-.08,15.27-.29,22.91-.06,2.55-.17,5.09-.29,7.64h-.13c-.48-10.73-.66-21.48-.56-32.22,5.77,7.74,18.26,8.14,24.41.65,0,0-.01,1.03-.01,1.03-.14.01-.09,30.79-.46,30.54h0Z"/>
  </g>
  <path class="cls-3" d="M60.2,62.17c1.5,9.05,1.55,18.33.13,27.39-1.51-9.05-1.54-18.33-.13-27.39h0Z"/>
  <g>
    <circle class="cls-1" cx="35.9" cy="82.18" r="2.65"/>
    <path class="cls-5" d="M38.49,82.18c0-3.12-4.85-3.08-4.74,0,.18,2.68,4.59,2.69,4.74,0h0ZM38.62,82.18c.11,4.39-5.88,4.31-5.88,0,.25-3.89,5.71-3.94,5.88,0h0Z"/>
  </g>
  <g>
    <circle class="cls-13" cx="35.9" cy="82.18" r=".97"/>
    <path class="cls-5" d="M36.81,82.18c.09-.94-1.56-.86-1.37,0,.06.24.28.25.46.34.27.19.86.15.91-.34h0ZM36.94,82.18c.3,2.18-2.63,2.08-2.52,0,.21-1.71,2.43-1.72,2.52,0h0Z"/>
  </g>
  <path class="cls-14" d="M66.71,88.05c1.17,0,2.12-.95,2.12-2.12v-11.46c0-1.17-.95-2.12-2.12-2.12h-5.64c-1.17,0-2.12.95-2.12,2.12v11.46c0,1.17.95,2.12,2.12,2.12"/>
  <circle class="cls-15" cx="49.85" cy="50.36" r="47.1"/>
</svg>