<?xml version="1.0" encoding="utf-8"?>
<!-- Generator: Adobe Illustrator 28.3.0, SVG Export Plug-In . SVG Version: 6.00 Build 0)  -->
<svg version="1.1" id="Layer_6" xmlns="http://www.w3.org/2000/svg" xmlns:xlink="http://www.w3.org/1999/xlink" x="0px" y="0px"
	 viewBox="0 0 56.7 56.7" style="enable-background:new 0 0 56.7 56.7;" xml:space="preserve">
<style type="text/css">
	.st0{fill:#00A651;}
	.st1{fill:#1D1E1C;}
    
    
     #next-1{opacity:1;animation:next-1 3s infinite ease-in forwards;animation-delay:0s;-webkit-animation-delay:0s; transform-origin: 763.7px 320.1px}
	@keyframes next-1{
		0%{opacity:1}
		20%{opacity:0}
		66%{opacity:0}
		100%{opacity:0}
        } 
    
    
     #next-2{opacity:1;animation:next-2 3s infinite ease-in forwards;animation-delay:0s;-webkit-animation-delay:0s; transform-origin: 763.7px 320.1px}
	@keyframes next-2{
		0%{opacity:0}
		20%{opacity:1}
		40%{opacity:0}
		100%{opacity:0}
        } 
    
    
     #next-3{opacity:1;animation:next-3 3s infinite ease-in forwards;animation-delay:0s;-webkit-animation-delay:0s; transform-origin: 763.7px 320.1px}
	@keyframes next-3{
		0%{opacity:0}
		40%{opacity:1}
		60%{opacity:0}
		100%{opacity:0}
        } 
</style>
<g id="next-1">
	<g>
		<path class="st1" d="M29.4,24.4L46.7,9.6c0,0-0.2,1.4-0.2,1.4l-3.2-4c0,0,1.6,0.2,1.6,0.2L30.5,20.2l-1,0.9
			c-4.9-4-11.6-9.1-16.3-13.3c0,0,3-0.3,3-0.3c-1,1.3-2.1,2.7-3.2,4c0,0-0.3-2.7-0.3-2.7C18.6,13.8,23.7,18.8,29.4,24.4L29.4,24.4z
			 M29.4,24.8c-6.8-4.2-14.1-9.2-20.6-14.1c1.8-2.5,3.7-5.1,5.5-7.5c0,0,1.7,1.4,1.7,1.4c4.3,3.6,10.3,9.2,14.5,13.1
			c0,0-2.1,0-2.1,0l15-12.4c0,0,0.9-0.8,0.9-0.8C44.8,5.3,47.5,9,48,9.7c0,0,0.6,0.8,0.6,0.8l-0.7,0.6L29.4,24.8L29.4,24.8z"/>
	</g>
</g>
<g id="next-2">
	<g>
		<path class="st1" d="M29.4,38.2l17.3-14.9l-0.2,1.4l-3.2-4l1.6,0.2L30.5,34c0,0-1,0.9-1,0.9c-4.9-4-11.6-9.1-16.3-13.3
			c0,0,3-0.3,3-0.3c-1,1.3-2.1,2.7-3.2,4c0,0-0.3-2.7-0.3-2.7C18.6,27.6,23.7,32.6,29.4,38.2L29.4,38.2z M29.4,38.6
			c-6.8-4.2-14.1-9.2-20.6-14.1c1.8-2.5,3.7-5.1,5.5-7.5c0,0,1.7,1.4,1.7,1.4c4.3,3.6,10.3,9.2,14.5,13.1c0,0-2.1,0-2.1,0l15-12.4
			c0,0,0.9-0.8,0.9-0.8c0.4,0.6,3.2,4.4,3.7,5.1c0,0,0.6,0.8,0.6,0.8l-0.7,0.6L29.4,38.6L29.4,38.6z"/>
	</g>
</g>
<g id="next-3">
	<g>
		<path class="st1" d="M29.4,51.9l17.3-14.9l-0.2,1.4l-3.2-4c0,0,1.6,0.2,1.6,0.2L30.5,47.7l-1,0.9c-4.9-4-11.6-9.1-16.3-13.3
			c0,0,3-0.3,3-0.3c-1,1.3-2.1,2.7-3.2,4l-0.3-2.7C18.6,41.3,23.7,46.3,29.4,51.9L29.4,51.9z M29.4,52.3
			c-6.8-4.2-14.1-9.2-20.6-14.1c1.8-2.5,3.7-5.1,5.5-7.5c0,0,1.7,1.4,1.7,1.4c4.3,3.6,10.3,9.2,14.5,13.1c0,0-2.1,0-2.1,0l15-12.4
			l0.9-0.8c0.4,0.6,3.2,4.4,3.7,5.1c0,0,0.6,0.8,0.6,0.8l-0.7,0.6L29.4,52.3L29.4,52.3z"/>
	</g>
</g>
</svg>
