<?xml version="1.0" encoding="UTF-8"?>
<svg id="Layer_6" data-name="Layer 6" xmlns="http://www.w3.org/2000/svg" width="141.11mm" height="105.83mm" viewBox="0 0 400 300">
  <defs>
    <style>
      .cls-1 {
        fill: #ffcd05;
      }

      .cls-1, .cls-2, .cls-3, .cls-4, .cls-5 {
        stroke-width: 0px;
      }

      .cls-2 {
        fill: #1d1e1c;
      }

      .cls-3 {
        fill: #0f3d54;
      }

      .cls-4 {
        fill: #ca2127;
      }

      .cls-5 {
        fill: #fff;
      }
    </style>
  </defs>
  <path class="cls-2" d="M135.59,296.13l-33.44.25h-.45c.03-.07-1.11-251.91-1.09-252.11,0,0,1.54,1.54,1.54,1.54l-5,.02,1.56-1.56c.27,62.33.81,126.32.24,188.74-.13,18.44-.31,44.71-.59,62.91,0,0-.01,1.23-.01,1.23-11.43-.15-22.87-.23-34.3-.44l-33.1-.59v-.4c19.59-.55,46.91-.71,66.21-1.01,0,0-1.21,1.21-1.21,1.21-.12-10.49-.3-20.97-.36-31.46-.78-72.86-.4-147.43.01-220.2,0,0,0-1.57,0-1.57h1.55c1.2-.03,5.43.06,6.55.03,0,0,0,1.53,0,1.53l-1.09,251.66-.45-.45,33.44.25v.4h0Z"/>
  <g>
    <path class="cls-4" d="M222.69,55.84c-27.37-8.99-24.14,18.6-40.04,15.85-18.69-3.23-30.41,3.07-40.04,14.07,0,0,12.43,6.49,10,23.78-2.43,17.3,9.73,24.32,9.73,24.32,0,0,5.21-13.24,20.31-11.62s25.64,3.24,26.45-.27-3.51-7.57-2.43-9.46,7.66-2.97,16.94,4.05"/>
    <path class="cls-2" d="M222.62,56.03c-7.03-2.33-15.58-2.75-21.14,2.87-4.22,3.79-6.65,9.68-11.85,12.58-2.68,1.57-5.97,1.3-8.86.83-2.78-.39-5.61-.51-8.41-.44-11.35.08-21.64,6.15-28.73,14.79,0,0-.4-2.11-.4-2.11,2.28,1.3,4.04,2.89,5.65,4.78,4.84,5.56,6.35,13.49,5.36,20.59-.52,4.33-.15,8.73,1.42,12.66,1.52,3.83,4.25,7.29,7.68,9.55,0,0-2.88,1.01-2.88,1.01,1.89-4.33,5.05-8.01,9.15-10.35,3.22-1.9,7.04-2.72,10.76-2.66,1.85.03,5.89.58,7.76.82,3.35.43,6.7.85,10.01,1.2,2.99.21,6.36.78,9.18-.16.42-.29.35-.09.47-.85.37-3.19-4.77-7.55-1.05-10.14,2.63-1.42,5.62-.73,8.18.12,3.31,1.18,6.2,3.12,8.79,5.31l-.24.32c-4.08-2.6-8.78-5.15-13.67-4.63-.83.13-1.93.36-2.21,1.01.58,2.68,3.06,5,2.97,8.1-.02,5.69-8.95,4.34-12.7,4.35-5.75-.26-11.81-1.18-17.54-1.41-7.91-.2-14.57,5.42-17.07,12.69-9.84-5.31-14.06-16.72-12.32-27.37,1.63-9.16-1.96-19.07-10.47-23.37,0,0,1.1-1.23,1.1-1.23,7.66-8.94,18.77-15.16,30.74-14.99,2.92,0,5.83.21,8.7.7,2.7.48,5.43.9,7.91-.44,5.03-2.7,7.47-8.3,11.85-12,5.93-5.67,14.78-5.1,21.96-2.48,0,0-.12.38-.12.38h0Z"/>
  </g>
  <path class="cls-5" d="M178.27,79l6.43,13.63s-5.97,3.35-13.31,2.43l4.59,8.72s5.97,0,12.39-2.75l4.59,10.1s10.56,5.05,9.18-4.59l-4.13-10.81s-.7-9.01,7.95-9.46v-7.26s-13.33-.27-12.94,13.21l-4.85-13.49s-5.31,3.03-9.9.27Z"/>
  <path class="cls-2" d="M97.27,54.19c-5.37,3.71-11.77,6.48-18.41,6.34-4.27-.25-8.71-1.23-12.96-1.28-3.31-.05-6.24.59-5.33,4.61,2.25,11.36-8.21,18.03-17.14,22.12-8.11,3.73-17.24,4.93-26.08,4.09-2.23-.22-4.39-.53-6.65-1.1l1.51-1.93c9.39,15.22,12.43,33.28,13.59,50.84.45,5.84.81,11.66,1.14,17.47l.05.95-.19-.1c-7.04-3.84-1.98-1.03-3.56-1.87-.02.03-.01.02-.01.02l.02-.03.05-.08.1-.17.21-.33c5.97-9.3,15.46-17.51,26.9-18.43,0,0,2.96-.24,2.96-.24,3.92-.35,7.89-.64,11.6-1.31,1.44-.28,3.44-.71,4.27-1.74.59-.65.25-2.59-.37-4.35-1.69-4.52.63-9.8,5.29-11.21,8.14-2.31,16.23,2.19,22.98,6.22,0,0-.2.35-.2.35-6.71-3.13-14.6-6.91-22.01-4.5-3.38,1.25-4.74,4.94-3.35,8.15.37.95.74,1.96.94,3.13.95,4.48-3.15,6.55-6.85,7.26-5.03,1.11-9.93,1.48-14.91,2.06-10.15,1.09-18.34,8.58-23.85,16.78,0,0-.19.29-.19.29l-.09.15-.05.08s-.05.08-.07.11c-1.59-.83,3.46,2-3.59-1.83l-.14.84c-.58-11.65-.78-23.3-2.3-34.72-1.54-12.48-5.7-24.47-12.24-35.22,5.02,1.46,10.3,2.35,15.62,2.27,8.58.04,16.92-2.37,24.35-6.65,6.62-3.62,12.28-9.02,10.85-17.19-1.57-9.21,11.41-5.21,16.51-4.76,3.2.58,6.4.55,9.56-.22,4.18-.98,8.19-2.81,11.77-5.21l.24.32h0Z"/>
  <path class="cls-2" d="M205.92,91.22c.24,4.71.11,9.53.57,14.17.78,4.54,1.94,8.88,2.48,13.47,0,0-.34.21-.34.21-.56-.36-1.04-.78-1.54-1.21-3.4-3.21-4.3-7.9-3.8-12.38.2-4.9,1.28-9.55,2.23-14.3,0,0,.4.03.4.03h0Z"/>
  <path class="cls-2" d="M69.3,99.21c.2,5.09.25,10.22.87,15.25.96,5.03,1.97,10.01,1.09,15.18,0,0-.39.1-.39.1-1.66-2.18-2.69-4.63-3.39-7.22-.96-3.84-.47-7.9-.33-11.81.34-3.88,1.01-7.71,1.75-11.52,0,0,.4.03.4.03h0Z"/>
  <path class="cls-2" d="M281.12,296.13l-53.44.25h-.45c.03-.07-1.11-251.91-1.09-252.11,0,0,1.54,1.54,1.54,1.54l-5,.02,1.56-1.56c.21,52.02.66,105.18.45,157.29-.21,29.23-.37,65.3-.8,94.37,0,0-.01,1.22-.01,1.22-14.77-.15-29.54-.23-44.3-.44l-43.1-.59v-.4c25.51-.55,61.08-.71,86.21-1.01,0,0-1.21,1.21-1.21,1.21-.12-10.49-.3-20.97-.36-31.46-.78-72.86-.4-147.43.01-220.2,0,0,0-1.57,0-1.57h1.55c1.2-.03,5.43.06,6.55.03,0,0,0,1.53,0,1.53l-1.09,251.66-.45-.45,53.44.25v.4h0Z"/>
  <g>
    <path class="cls-2" d="M386.66,296.13l-33.44.25h-.45c.03-.07-1.11-251.91-1.09-252.11,0,0,1.54,1.54,1.54,1.54l-5,.02,1.56-1.56c.27,62.33.81,126.32.24,188.74-.13,18.44-.31,44.71-.59,62.91,0,0-.01,1.23-.01,1.23-11.43-.15-22.87-.23-34.3-.44l-33.1-.59v-.4c19.59-.55,46.91-.71,66.21-1.01,0,0-1.21,1.21-1.21,1.21-.12-10.49-.3-20.97-.36-31.46-.78-72.86-.4-147.43.01-220.2,0,0,0-1.57,0-1.57h1.55c1.2-.03,5.43.06,6.55.03,0,0,0,1.53,0,1.53l-1.09,251.66-.45-.45,33.44.25v.4h0Z"/>
    <path class="cls-3" d="M331.44,120.78c-5.46-8.59-3.91-16.91-3.08-27.77h-18.63l6.96,18.86,14.74,8.91Z"/>
    <g>
      <path class="cls-3" d="M349.34,55.84c-24-12.77-37.56-11.16-34.32,14.83-17.33-9.3-33.51-9.87-48.32,0,0,0,1.75,33.43,0,47.46,15.61-7.62,34.78-11.69,62.83,3.21,3.8,1.75,1.75-3.8-4.09-7.89s-15.49-15.78-1.75-13.15,24.55,9.64,24.55,9.64"/>
      <path class="cls-2" d="M349.24,56.02c-18.76-9.71-37.61-14.37-33.42,14.56,0,0,.2,1.54.2,1.54l-1.39-.72c-15.19-8.13-32.58-9.95-47.22.36,0,0,.58-1.15.58-1.15.66,11.9,1.14,23.79,1.01,35.71-.05,3.99-.15,7.97-.59,12.03l-2.48-1.78c21.22-10.98,41.96-8.87,62.62,2.14,0,0,1.78.92,1.78.92.11.05.16.08.25.11.09.04.14.05.17.06-.29.02-.74.15-.99.57-.19.34-.17.45-.17.53-.02-.13-.09-.37-.21-.62-1.17-2.37-3.34-4.28-5.47-5.84-2.48-1.96-4.65-4.21-6.5-6.81-4.07-5.69-2.23-10.09,5.11-8.74,9.24,1.8,18.04,5.66,25.82,10.88,0,0-.22.34-.22.34-6.94-3.78-14.41-6.54-22.11-8.2-2.28-.39-5.1-1.12-7.24-.51-1.86.45.39,3.44,1.12,4.45,1.69,2.2,3.79,4.23,6.05,5.87,2.08,1.4,3.98,2.96,5.53,4.99.88,1.21,1.8,2.58,1.85,4.22.05,1.67-1.54,2.93-3.21,2.56-.95-.14-2.37-.93-3.23-1.34-2.02-.99-5.02-2.38-7.15-3.22-7.12-2.94-14.75-4.97-22.42-5.51-10.33-.76-20.53,1.8-29.85,6.26,0,0-2.9,1.36-2.9,1.36l.41-3.14c1.65-15.6.88-31.5.42-47.18,0,0-.03-.75-.03-.75l.61-.4c15.56-10.51,33.68-8.56,49.43.36,0,0-1.2.82-1.2.82-2.17-18.12,3.84-28.06,23-20.83,4.23,1.58,8.27,3.57,12.22,5.72l-.19.35h0Z"/>
    </g>
    <path class="cls-2" d="M315.84,79.99c.24,4.71.11,9.53.57,14.17.78,4.54,1.94,8.88,2.48,13.47,0,0-.34.21-.34.21-.56-.36-1.04-.78-1.54-1.21-3.4-3.21-4.3-7.9-3.8-12.38.2-4.9,1.28-9.55,2.23-14.3,0,0,.4.03.4.03h0Z"/>
    <path class="cls-2" d="M328.56,93.03c.24,4.71.11,9.53.57,14.17.78,4.54,1.94,8.88,2.48,13.47,0,0-.34.21-.34.21-.56-.36-1.04-.78-1.54-1.21-3.4-3.21-4.3-7.9-3.8-12.38.2-4.9,1.28-9.55,2.23-14.3,0,0,.4.03.4.03h0Z"/>
    <g>
      <polygon class="cls-1" points="301.44 88.09 303.06 89.67 302.44 87.6 304.07 86.82 302.06 86.33 301.44 84.27 300.82 86.03 298.81 85.54 300.43 87.11 299.81 88.87 301.44 88.09"/>
      <polygon class="cls-1" points="309.74 71.92 309.12 73.68 307.11 73.19 308.73 74.77 308.11 76.53 309.74 75.74 311.36 77.32 310.74 75.26 312.37 74.47 310.36 73.98 309.74 71.92"/>
      <polygon class="cls-1" points="303.66 76.51 303.04 78.27 301.03 77.78 302.66 79.36 302.04 81.12 303.66 80.33 305.29 81.91 304.67 79.85 306.29 79.07 304.28 78.58 303.66 76.51"/>
      <polygon class="cls-1" points="304.28 95.17 303.66 93.11 303.04 94.87 301.03 94.38 302.66 95.95 302.04 97.71 303.66 96.93 305.29 98.51 304.67 96.44 306.29 95.66 304.28 95.17"/>
      <polygon class="cls-1" points="310.36 102.73 309.74 100.66 309.12 102.42 307.11 101.93 308.73 103.51 308.11 105.27 309.74 104.48 311.36 106.06 310.74 104 312.37 103.22 310.36 102.73"/>
    </g>
    <polygon class="cls-1" points="330.26 77.47 328.25 76.98 327.63 74.92 327.01 76.68 325 76.19 326.62 77.76 326 79.52 327.63 78.74 329.25 80.32 328.63 78.25 330.26 77.47"/>
    <polygon class="cls-1" points="319.33 58.52 318.71 60.28 316.7 59.79 318.33 61.37 317.7 63.13 319.33 62.34 320.96 63.92 320.33 61.86 321.96 61.07 319.95 60.58 319.33 58.52"/>
    <polygon class="cls-1" points="324.4 68.92 323.78 70.68 325.4 69.9 327.03 71.48 326.41 69.41 328.03 68.63 326.02 68.14 325.4 66.08 324.78 67.84 322.77 67.35 324.4 68.92"/>
    <polygon class="cls-1" points="326.02 84.73 325.4 82.67 324.78 84.43 322.77 83.94 324.4 85.52 323.78 87.28 325.4 86.49 327.03 88.07 326.41 86.01 328.03 85.22 326.02 84.73"/>
    <polygon class="cls-1" points="319.95 89.32 319.33 87.26 318.71 89.02 316.7 88.53 318.33 90.11 317.7 91.87 319.33 91.08 320.96 92.66 320.33 90.6 321.96 89.82 319.95 89.32"/>
  </g>
</svg>