<?xml version="1.0" encoding="utf-8"?>
<!-- Generator: Adobe Illustrator 28.3.0, SVG Export Plug-In . SVG Version: 6.00 Build 0)  -->
<svg version="1.1" xmlns="http://www.w3.org/2000/svg" xmlns:xlink="http://www.w3.org/1999/xlink" x="0px" y="0px"
	 viewBox="0 0 490 443.7" style="enable-background:new 0 0 490 443.7;" xml:space="preserve">
<style type="text/css">
	.st0{fill:#FFFFFF;stroke:#000000;stroke-miterlimit:10;}
	.st1{fill:none;stroke:#000000;stroke-miterlimit:10;}
	.st2{fill:#ADCCA2;stroke:#231F20;stroke-miterlimit:10;}
	.st3{fill:#B0B1B3;stroke:#231F20;stroke-miterlimit:10;}
	.st4{fill:none;stroke:#231F20;stroke-miterlimit:10;}
	.st5{fill:#ADCCA2;stroke:#000000;stroke-miterlimit:10;}
	.st6{fill:#EBCF9E;stroke:#000000;stroke-miterlimit:10;}
	.st7{fill:#E1A091;stroke:#231F20;stroke-miterlimit:10;}
	.st8{fill:#DBDADB;stroke:#000000;stroke-miterlimit:10;}
	.st9{fill:#FFFFFF;stroke:#969396;stroke-miterlimit:10;}
	.st10{fill:#F6EBD7;stroke:#000000;stroke-miterlimit:10;}
	.st11{fill:#E6C281;stroke:#000000;stroke-miterlimit:10;}
	.st12{fill:#9DBAD6;stroke:#000000;stroke-miterlimit:10;}
	.st13{fill:#DAE2EE;stroke:#000000;stroke-miterlimit:10;}
	.st14{fill:#E1A091;stroke:#000000;stroke-miterlimit:10;}
	.st15{fill:#F1D5CB;stroke:#000000;stroke-miterlimit:10;}
	.st16{fill:#ADCCA2;}
	.st17{fill:#F6EBD7;stroke:#B92300;stroke-miterlimit:10;}
	.st18{fill:#FFFFFF;stroke:#7AAC68;stroke-miterlimit:10;}
	.st19{fill:#95A3CD;stroke:#000000;stroke-miterlimit:10;}
	.st20{fill:#B92300;stroke:#000000;stroke-miterlimit:10;}
	.st21{fill:#8C9AA3;stroke:#000000;stroke-miterlimit:10;}
	.st22{stroke:#000000;stroke-linejoin:bevel;stroke-miterlimit:10;}
</style>
<g id="Layer_4">
	<g>
		<g>
			<line class="st0" x1="264.8" y1="195.7" x2="269.8" y2="195.7"/>
			<line class="st0" x1="384.6" y1="246.4" x2="389.5" y2="246.4"/>
			<line class="st0" x1="231.4" y1="190" x2="226.2" y2="190"/>
			<line class="st0" x1="52.2" y1="325.2" x2="47" y2="325.2"/>
			<line class="st0" x1="272.3" y1="173.8" x2="276.6" y2="173.8"/>
			<line class="st0" x1="480.6" y1="138.8" x2="484.9" y2="138.8"/>
			<line class="st0" x1="466.8" y1="344.2" x2="471.1" y2="344.2"/>
			<line class="st0" x1="390.1" y1="159.4" x2="392.3" y2="159.4"/>
			<line class="st0" x1="217.7" y1="161.6" x2="214.2" y2="161.6"/>
		</g>
		<g>
			<line class="st0" x1="112.6" y1="180.2" x2="117.5" y2="180.2"/>
			<line class="st0" x1="243.3" y1="85.8" x2="248.2" y2="85.8"/>
			<line class="st0" x1="155.2" y1="163.2" x2="149.9" y2="163.2"/>
			<line class="st0" x1="170.3" y1="209.5" x2="174.5" y2="209.5"/>
			<line class="st0" x1="476.3" y1="91.7" x2="480.6" y2="91.7"/>
			<line class="st0" x1="104" y1="87.9" x2="108.3" y2="87.9"/>
			<line class="st0" x1="174.2" y1="184.1" x2="176.4" y2="184.1"/>
			<line class="st0" x1="250.2" y1="92" x2="252.4" y2="92"/>
			<line class="st0" x1="345.3" y1="140.2" x2="350.3" y2="140.2"/>
			<line class="st0" x1="352.2" y1="146.3" x2="354.4" y2="146.3"/>
			<line class="st0" x1="309.2" y1="179.1" x2="311.4" y2="179.1"/>
			<line class="st0" x1="48.7" y1="344.2" x2="50.9" y2="344.2"/>
			<line class="st0" x1="29.6" y1="306" x2="31.8" y2="306"/>
			<line class="st0" x1="147.6" y1="153.7" x2="149.9" y2="153.7"/>
			<line class="st0" x1="139.6" y1="77.5" x2="141.8" y2="77.5"/>
			<line class="st0" x1="99.2" y1="79.5" x2="101.5" y2="79.5"/>
			<line class="st0" x1="472.7" y1="326.1" x2="474.9" y2="326.1"/>
			<line class="st0" x1="432.3" y1="328.2" x2="434.6" y2="328.2"/>
			<line class="st0" x1="101.5" y1="202.6" x2="98" y2="202.6"/>
			<line class="st0" x1="39.3" y1="380.6" x2="35.8" y2="380.6"/>
		</g>
		<line class="st1" x1="164.5" y1="165.7" x2="159" y2="166.2"/>
	</g>
	<g>
		<g>
			<rect x="355.9" y="211.8" class="st0" width="78.2" height="5.9"/>
			<rect x="355.9" y="219.4" class="st0" width="45.6" height="5.8"/>
		</g>
		<g>
			<path class="st0" d="M339.5,236c18.6,0,16.9-26,0-26S316.1,236,339.5,236z"/>
			<path class="st0" d="M338.5,219.8c-8.6,0-10.7,12.8,0,12.8S351.2,219.8,338.5,219.8z"/>
			<path class="st0" d="M339,223.7c-3.4,0-4.2,5,0,5S343.9,223.7,339,223.7z"/>
			<path class="st0" d="M339,224.8c-3.4,0-4.2,5,0,5S343.9,224.8,339,224.8z"/>
			<line class="st0" x1="326.1" y1="217.7" x2="326.1" y2="225.4"/>
			<line class="st0" x1="329.1" y1="214" x2="329.1" y2="219.4"/>
			<line class="st0" x1="332.6" y1="212.7" x2="332.6" y2="216.7"/>
			<line class="st0" x1="336.4" y1="210" x2="336.4" y2="214.7"/>
			<line class="st0" x1="341.1" y1="210.1" x2="341.1" y2="215.5"/>
		</g>
		<g>
			<path class="st0" d="M418.9,236c18.6,0,16.9-26,0-26S395.5,236,418.9,236z"/>
			<path class="st0" d="M417.9,219.8c-8.6,0-10.7,12.8,0,12.8S430.6,219.8,417.9,219.8z"/>
			<path class="st0" d="M418.4,223.7c-3.4,0-4.2,5,0,5S423.3,223.7,418.4,223.7z"/>
			<path class="st0" d="M418.4,224.8c-3.4,0-4.2,5,0,5S423.3,224.8,418.4,224.8z"/>
			<line class="st0" x1="405.6" y1="217.7" x2="405.6" y2="225.4"/>
			<line class="st0" x1="408.5" y1="214" x2="408.5" y2="219.4"/>
			<line class="st0" x1="412.1" y1="212.7" x2="412.1" y2="216.7"/>
			<line class="st0" x1="415.8" y1="210" x2="415.8" y2="214.7"/>
			<line class="st0" x1="420.5" y1="210.1" x2="420.5" y2="215.5"/>
		</g>
		<path class="st0" d="M322.5,227.9c0.9-7.4,3.4-16.1,17.1-16.1c13.3,0,14.5,8.3,15,15.5h1.3c0,0,0-45.1,0-48s-1.1-4.3-4.3-4.3
			s-13.8,0-17.4,0s-19.4,20.8-19.4,26.5s0,17.2,0,20.8c0,3.6,2.2,5.7,5,5.7S322.5,227.9,322.5,227.9z"/>
		<path class="st1" d="M314.8,201.5c0-5.6,15.8-26.5,19.4-26.5v-10.3c-3.6,0-19.4,20.8-19.4,26.5V201.5z"/>
		<path class="st1" d="M334.2,164.7c3.6,0,14.2,0,17.4,0s4.3,1.4,4.3,4.3v10.3c0-2.9-1.1-4.3-4.3-4.3s-13.8,0-17.4,0V164.7z"/>
		<rect x="315.5" y="206.3" class="st1" width="4.3" height="10.2"/>
		<rect x="343.7" y="200.2" class="st1" width="7.6" height="2.2"/>
		<polyline class="st1" points="326.3,171.4 326.3,182.1 345.3,182.1 345.3,196.1 316.7,196.1 316.7,185.2 		"/>
		<rect x="358.8" y="219.4" class="st0" width="32.4" height="7.6"/>
		<rect x="358.8" y="227" class="st0" width="32.4" height="5.8"/>
	</g>
	<g>
		<g>
			<path class="st0" d="M308.9,154.5c0,0,1.9-38.7,0.8-38.7s-6.3,15.2-6.3,15.2l-3-0.5c0,0,6.2-19.2,8.1-20.9
				c1.9-1.7,3.6-0.3,4.9-1.1c1.3-0.8,0.8-9.1,1.3-10.7c0.5-1.6,5.8-0.9,7.6,0.2c1.7,1.1-0.8,9.3-1.1,10.2c-0.3,0.9,2.3-2.2,4.5,1
				c2,2.9,12.3,19,12.3,19l-2,1.3c-1.5-2.1-8.8-14.9-10.3-14.3s7.3,38.7,7.3,38.7"/>
			<path class="st0" d="M312.7,128.5c0,0,5.7-2.3,13.7-1.7"/>
			<path class="st0" d="M327.9,153.4c-0.8-4.3-6.6-19.6-8.8-19.7c-2.2-0.1-5.2,21.9-5.2,21.9"/>
		</g>
		<path class="st0" d="M314.3,100.5c0.2-9.9,0.4-10.7-1.6-9.2s-3.2-7.8,1.2-6.8c9.6,2.2,10.7-1.4,12.5,0.8s-0.2,8.7-1.7,6.9
			s-0.9,5.2-2.2,9.5C322.2,104,315.9,102.6,314.3,100.5z"/>
		<path class="st1" d="M314.8,84.7c5.6,1.4,6.2,3.1,10,2.6"/>
		<polyline class="st1" points="311.6,108.8 313.5,121.6 309.2,122.9 		"/>
		<polyline class="st1" points="323.5,107 323.5,120.2 327.1,121.1 		"/>
		<path class="st1" d="M323.5,120.2v-8l-11.2,1.4l1.2,7.9l-2.1,0.6c0.7,4.3,1.3,15.2,1.3,19.6c0,0,10-1.3,15.3-2.7
			c0.3-3.8-1.6-10.9-2.6-18.5L323.5,120.2z"/>
	</g>
	<g>
		<path class="st0" d="M470,419.2c-1-3.5-5.8-17.5-12-22.1l3.1-1.5c0,0-5.3-4.4-7.6-15.4c-2.1-10.1,4.7-1.6,9.8,3.2
			c4.2,3.9,7.8-3.8,7.8-7.7l-2.3-1.4c-4,14.7-8.5-7.2-20.4-4.2c-2.4-1.2,1.1-9.8-4.4-10.6c-5.6-0.8-0.8,9.1-2.1,10.3
			c-1.4,1.4-4.1-8.2-6.8-25.3l-3.6,0.8c5.3,22.5,5.8,41,7.5,57.6l2.2-1l1.3,27.3c0,0-3.3,1.8-1.3,2.8"/>
		<path class="st0" d="M447.6,429.2c0,0-0.9-25.4-0.9-28.6c9.4-4.8,16.3,11.8,19.2,19.9"/>
	</g>
	<g>
		<g>
			<path class="st0" d="M13.9,377.7l-0.2-43.5c-4.3,5.4-5.9,14.9-3.9,19.5L7,354.6c-2.7-9-0.2-14.7,6.9-26.5l17.3-0.9
				c2.5,10.4,6.9,13.4,13.1,8.9l2.5,1.1c-7.7,5.9-13.3,5.4-15.6-4.9l3.8,45.4"/>
			<path class="st0" d="M31.1,377.7c0-35.9-13.6-35.9-13.6,0"/>
			<polyline class="st0" points="11.8,331.5 13.9,328.1 19.5,327.6 22.1,368.2 13.4,368.2 13.6,334.3 12.4,336.1 			"/>
			<polyline class="st0" points="19.4,329 19.4,319.7 26.3,319.7 26.3,330.3 			"/>
			<polyline class="st0" points="26.5,327.2 27.4,367.8 36,367 31.1,332.3 			"/>
			<polyline class="st0" points="19.7,330.3 23.5,331.6 26.3,330.3 			"/>
			<polyline class="st0" points="19.7,334.3 23.5,331.6 26.6,332.9 			"/>
			<path class="st1" d="M19.4,326.3c-3.5-1.2-2.6,8,4.9,10.2c4.5-1.3,6.5-12,2.3-10.2"/>
			<path class="st1" d="M24.3,336.5c0.3,7.6,11.1,16.7,21.6-1"/>
			<path class="st1" d="M46.7,332.8c-2.1,0.3-2.3,2.5,0,2.7C49.1,335.7,48.8,332.5,46.7,332.8z"/>
			<line class="st1" x1="19.7" y1="364.3" x2="28.9" y2="364.3"/>
		</g>
		<g>
			<path class="st0" d="M87,155.6c46.2,0.2,37.4-33.2,68.3-28.4l-0.5,2c-24.4-4.6-28,34-67.8,29.3"/>
			<g>
				<path class="st0" d="M124.3,159.8c2.8-15.2,5.6-33.2,2-57.4l6.5,0l9.1,60.8"/>
				<path class="st0" d="M137.2,163.2c0.4-7.1-1.2-17.6-4.7-24.6l-1.6,0.1c-1.7,6.7-2.1,13.7-1.6,21.1"/>
				<path class="st0" d="M129.3,120.6c3.2,3.9,10.1,7.3,19.5,3.6l1,3.5c-10,3.2-16.9,2.8-20.9-1.6"/>
				<path class="st0" d="M126.7,138c3.4,0.8,5.5,1,9.6,0"/>
			</g>
			<polygon class="st0" points="155.3,125.7 154,130.8 155.3,131.4 157,126.4 			"/>
			<polygon class="st0" points="156.7,127.2 163.7,130.4 162.9,132.5 155.7,130.1 			"/>
			<polygon class="st0" points="163.7,129.5 162.7,133.1 163.7,133.6 165.2,129.8 			"/>
			<path class="st0" d="M164.5,132.8c4.6,2,8.9,6.3,12.7,14.4"/>
			<path class="st0" d="M164.9,130.6c5.1,2.9,10,4.9,16.3,14.2"/>
			<path class="st0" d="M172.6,135.3c3.7,3,8.6,10.2,9.8,18"/>
			<path class="st0" d="M167,136.7c0,0,3.6,2.6,2.2,3.8C167.7,141.7,167,136.7,167,136.7z"/>
		</g>
		<g>
			<path class="st0" d="M402.8,119.2c-14.1,1.2-11.7,19.2,2.4,18l-0.7-3.3c-8.6,1-9.6-8.5-1.2-9.5"/>
			<path class="st0" d="M402.1,161.3c4.2-18.9,4.8-38.7-10.2-48.8l5.2-6c13.1,8.5,26.1,26.5,19.7,54.8"/>
			<path class="st0" d="M412.7,161.3c0.7-9.2-0.2-14.7-2.3-20.4c1.5,8-1.7,18.4-2.6,20.4"/>
			<path class="st0" d="M406.8,141.9c0,0,2.9-1.8,7.8-1.8"/>
			<path class="st0" d="M404.5,118.9c2.9-7.9,6.9-16.3,11.8-25.2l1,1l-1,2.7l1.1,1.1c-4.2,7.9-6.3,17.3-8.7,25.7"/>
			<path class="st0" d="M404.5,136c0,0,7.8-3.5,12-3.5"/>
		</g>
		<g>
			<path class="st0" d="M243.4,195.7c0-6.9,3.7-22.8,3.7-29.2c0-2.5,0-10-6.1-12.2c-3.2-1.2,2.1-3.7,6.1-3.7c0,0,18.1,1.8,17.7,8.3
				s-2.7,26.4,0,33"/>
			<path class="st0" d="M247.1,167.6h2.2l2.1-15.9l2,0.2l-1,15.7h6.9c0,0,1.4-9.8,3.2-12.5"/>
			<polyline class="st1" points="272.3,146.1 232.9,159.1 232.8,157.8 270.3,145 			"/>
			<polygon class="st0" points="271.8,141.2 226.2,155.5 232.8,157.8 274.9,143.4 			"/>
			<polyline class="st0" points="253.4,153 256.2,142.3 262.9,144.5 261.3,156.5 			"/>
			<path class="st0" d="M253.4,143.8c2.8-9.7,14.2-6.4,11.4,3.3L253.4,143.8z"/>
			<path class="st0" d="M249.3,195.7c0,0,0.6-22.1,5.6-21.9c5.1,0.1,2.6,11.6,5,19.2"/>
			<path class="st0" d="M262.9,161.6c-1.9,0.4-10.9,2.4-12.8-12.2h-3c0,0,0.1,16.7,15.2,16"/>
			<path class="st0" d="M244.3,150.6c-3.8-2.3-6.4-0.9-8.6,1.9c0,0,3.5-1.3,5.3,0.7L244.3,150.6z"/>
			<polyline class="st1" points="226.3,156.8 232.9,159.1 232.8,157.8 			"/>
		</g>
		<g>
			<path class="st0" d="M135.6,80.5c0.6-0.4-1.3-1.4-1.3-1.4c0-13.5-6.1-43.6-2.6-43.3c5.4,0.4,5.6,13.2-0.2,15.5l0.5,3.3
				c10.5-1.4,10.8-22.5-1.2-22.5h-4l-1.3-8h-4.6l-0.1,8l-3,0c-14.7-0.7-15.1,25.1-0.4,25.8l-0.1-4c-8.6-0.6-8.3-17.3-2.3-17.3
				c3.3,0,2.5,46.8,2.5,46.8s-2.1,1.7-1,1.8"/>
			<path class="st0" d="M123.8,82.9c0,0-1.8-25.1,1.2-25.3c3-0.2,3.3,23,3.3,23"/>
			<path class="st0" d="M117.1,53.6c0.1,3.4,15,2.8,14.8-0.3"/>
			<path class="st0" d="M110.9,40.3l8.8,4.4v10.8l-5.7-3C110.4,50,109.6,45.2,110.9,40.3z"/>
			<polygon class="st0" points="123.1,54.9 123.1,44.1 119.7,44.7 119.7,55.5 			"/>
			<polygon class="st0" points="111.7,38.4 123.1,44.1 119.7,44.7 110.9,40.3 			"/>
		</g>
		<g>
			<path class="st0" d="M259.9,85.3c0.7-4.4,1.2-17,0.2-17c-0.9,0-5.7,0.7-5.9-0.2c-0.2-0.9,7.2-26.8,5.6-28.9
				c-1.6-2.1-6.8,18-6.8,18l-3.3-0.5c0,0,6.5-20.8,7.7-22.9c1.2-2.1,7.3-0.3,8.4-1.2c1.2-0.9-4.2-12.6,4.4-12.6s-0.9,12.8,1.6,12.8
				s5.6,0.5,6.3,1.4s5.9,20.7,5.9,20.7l-2.8,0.7c0,0-5.6-17.9-6.6-17.2c-0.9,0.7,4,25.2,5.6,28.7c1.6,3.5-5.1,0-6.5,1.2
				c-1.4,1.2-1.3,12.8-0.9,17.6"/>
			<path class="st1" d="M266,22c0,0,4.1-1.5,7.9,2l-0.6,2.5c0,0-2.4-3.9-8.1-2.4L266,22z"/>
			<line class="st0" x1="263.3" y1="32.7" x2="263" y2="39.6"/>
			<line class="st0" x1="272.9" y1="32.7" x2="271.9" y2="39.6"/>
			<line class="st0" x1="260" y1="39.6" x2="274.6" y2="39.6"/>
			<line class="st0" x1="265.3" y1="85.4" x2="265.3" y2="68.4"/>
			<line class="st0" x1="268.1" y1="68.4" x2="267.8" y2="85.4"/>
		</g>
	</g>
	<g>
		<g>
			<polygon class="st0" points="145.7,211.7 143.7,223.3 155.3,227.6 157.3,214.8 			"/>
			<polygon class="st0" points="161,215.3 159,226.9 155.3,227.6 157.3,214.8 			"/>
			<line class="st0" x1="159" y1="216" x2="157.5" y2="225"/>
			<line class="st0" x1="161" y1="215.3" x2="149.4" y2="212.2"/>
		</g>
		<path class="st0" d="M132.9,240.2c0,0,3.8-34.1,4.1-36c0.4-1.9,3.8,12.8,16.5,6.8l-1.9-4.1c0,0-7.1,4.5-13.1-7.9c0,0-6.4,0-6-2.3
			c0.4-2.3,1.1-8.3-1.5-8.3c-2.6,0-3.8-1.1-4.9,0c-1.1,1.1,0.4,9.4-1.5,9.4s-16.1-5.3-21.8-7.5l-1.5,4.1c0,0,17.3,5.3,18.4,8.6
			s-6.8,37.5-6.8,37.5"/>
		<path class="st0" d="M118.1,201.3c3.5,1.9-1.3,16.6-1.3,16.6l9.9,1.6c3-14.5-2-21.6-2-21.6s-1-0.1-2.9-0.7"/>
		<path class="st0" d="M133.4,198c0,0,1.2,11-1.9,21.4l4.8,0.4l0.7-15.7l1.1,2.2"/>
		<path class="st0" d="M121,240.6c0,0,3.7-17.2,5.3-16.9s0,16,0,16"/>
		<polyline class="st0" points="125,198.4 130.7,201.7 133.4,198 		"/>
		<polyline class="st0" points="127,203.4 130.7,201.7 133.6,203 		"/>
		<path class="st0" d="M129.2,202.6l1.1,1.4c0,0-0.1,9.4-2.7,14.3l1.3,2.2l2.1-2.4c0,0,1.2-8.1,0.4-14.1l1.2-1.4l-2-0.9L129.2,202.6
			z"/>
	</g>
	<g>
		<g>
			<rect x="358.8" y="179.4" class="st0" width="78" height="26.9"/>
			<rect x="358.8" y="181.4" class="st0" width="78" height="12.3"/>
			<line class="st0" x1="360.8" y1="206.3" x2="360.8" y2="179.4"/>
			<line class="st0" x1="434.9" y1="179.4" x2="434.9" y2="206.3"/>
			<rect x="358.8" y="206.3" class="st0" width="78" height="12.3"/>
			<line class="st0" x1="358.8" y1="181.4" x2="436.9" y2="181.4"/>
			<line class="st0" x1="358.8" y1="204.3" x2="436.9" y2="204.3"/>
		</g>
		<g>
			<g>
				<path class="st0" d="M361.9,194.4c0.8-18,4.8-31.3,0.8-38.7c-0.5-1-6.3,15.2-6.3,15.2l-3-0.5c0,0,6.2-19.2,8.1-20.9
					c1.9-1.7,3.6-0.3,4.9-1.1c1.3-0.8,0.8-9.1,1.3-10.7c0.5-1.6,5.8-0.9,7.6,0.2c1.7,1.1-0.8,9.3-1.1,10.2c-0.3,0.9,2.3-2.2,4.5,1
					c2,2.9,12.3,19,12.3,19l-2,1.3c-1.5-2.1-9.4-15.6-10.3-14.3c-3.2,4.9,4.7,33.6,7.3,38.7c2.4,0.2,2.4,2.4-0.5,2.4 M380.9,194.5
					c0,0-5.8-25.9-9.6-25.8c-3.8,0.1-4.9,26.1-4.9,26.1c1.3,0.1,3,2.2,0,2.7"/>
			</g>
			<path class="st0" d="M364.5,140.9c1.2-10.4,14-8.9,12.8,1.5L364.5,140.9z"/>
			<path class="st0" d="M363.6,161.4c0,0,8.4-3.3,14-0.2"/>
			<polyline class="st1" points="375.4,160.3 375.9,147.8 373.8,148.2 373.5,160 			"/>
			<polyline class="st1" points="368.9,160.1 366.1,148.5 364.5,148.5 366.7,160.5 			"/>
		</g>
		<g>
			<path class="st0" d="M340.5,112.7c7.8,0-1-35.8,1.9-44.5c0.3-0.8-6.3,18.3-6.3,18.3l-3.2-0.3c0,0,4.8-17.2,8.4-22.6
				c0.7-1,2.2-0.9,2.7-1c2.8-0.3-0.3-12,1.8-13.2c2.1-1.2,4.5-0.9,6,0.6c1.5,1.5-0.7,10.7-0.9,11.7c-0.4,1.7,8.8-7.7,11.3-19.6
				l3.1,0.9c-1.8,12.1-10.1,21.4-9.2,25.2c1.6,10.4,5.9,43.7,7.7,43.7"/>
			<path class="st0" d="M349,113.5c0.9-0.1-2.6-23.6,0.9-25c3.5-1.4,7.7,23.1,9.5,24.2"/>
			<path class="st0" d="M342.4,84.7c0,0,4.7-4,15.7-2.8"/>
			<path class="st1" d="M343.9,62.6c-1.2,2.6,5.7,1.6,6.9-0.9"/>
		</g>
	</g>
	<g>
		<g>
			<path class="st2" d="M426.7,153.1L447.8,9.9l25.6,142.2C462.6,151.1,440.1,155.5,426.7,153.1z"/>
			<g>
				<polyline class="st3" points="450.1,113.6 458.9,99.5 450.1,107.3 				"/>
				<polyline class="st3" points="449,57.5 445,51.8 449,61.3 				"/>
				<polyline class="st3" points="449,67.7 453,61.3 449,64.5 				"/>
				<polyline class="st3" points="449,77.7 443.7,70.6 449,82.3 				"/>
				<polyline class="st3" points="449,99.5 442.9,90.5 448,104.3 				"/>
				<polyline class="st3" points="447.8,140.4 436.6,133 447,145.6 				"/>
			</g>
			<g>
				<polyline class="st3" points="453,175.9 449,35.6 445,175.9 				"/>
				<line class="st4" x1="440.8" y1="175.9" x2="448.8" y2="175.9"/>
				<line class="st4" x1="457.1" y1="175.9" x2="465.1" y2="175.9"/>
				<g>
					<polyline class="st3" points="450.1,133 461.2,115.4 450.1,124.9 					"/>
					<polyline class="st3" points="449,120.2 440.1,110.7 448,124.9 					"/>
					<polyline class="st3" points="450.1,90.5 454.5,81.3 449,85.9 					"/>
				</g>
				<line class="st4" x1="440.1" y1="73.9" x2="434.9" y2="79.9"/>
				<line class="st4" x1="437.5" y1="88.8" x2="433.7" y2="94.8"/>
				<line class="st4" x1="436.6" y1="99.5" x2="433.7" y2="101.3"/>
				<line class="st4" x1="465.1" y1="111.7" x2="468.9" y2="115.4"/>
				<line class="st4" x1="465.1" y1="122.7" x2="471" y2="128"/>
				<line class="st4" x1="468.9" y1="135.4" x2="473.5" y2="137.1"/>
				<line class="st4" x1="451.7" y1="44.6" x2="455.6" y2="46.2"/>
				<line class="st4" x1="447.8" y1="23.1" x2="442.2" y2="29.6"/>
				<line class="st4" x1="450.1" y1="31.5" x2="453.7" y2="33.9"/>
				<line class="st4" x1="431.4" y1="151.2" x2="428.9" y2="155.4"/>
				<line class="st4" x1="437.5" y1="152" x2="438.4" y2="155"/>
				<line class="st4" x1="431.4" y1="131.9" x2="426.7" y2="135.4"/>
				<line class="st4" x1="457.5" y1="149.9" x2="461.2" y2="155"/>
				<line class="st4" x1="468" y1="149.9" x2="470.2" y2="154.1"/>
				<line class="st4" x1="442.2" y1="124" x2="440.1" y2="128"/>
				<line class="st4" x1="440.1" y1="124" x2="437.5" y2="125.3"/>
				<line class="st4" x1="438.8" y1="121.2" x2="433.7" y2="121.2"/>
				<line class="st4" x1="462.6" y1="135.4" x2="465.1" y2="138.2"/>
				<line class="st4" x1="461.2" y1="137.1" x2="461.2" y2="141.7"/>
				<line class="st4" x1="462.6" y1="131.9" x2="465.1" y2="131.9"/>
				<line class="st4" x1="454.5" y1="90.5" x2="457.5" y2="88.6"/>
				<line class="st4" x1="455.6" y1="93" x2="457.5" y2="92.5"/>
				<line class="st4" x1="454.5" y1="94.8" x2="457.5" y2="96.9"/>
				<line class="st4" x1="456.5" y1="69" x2="460.1" y2="67.7"/>
				<line class="st4" x1="457.5" y1="72.4" x2="460.1" y2="72.4"/>
				<line class="st4" x1="456.5" y1="75.5" x2="461.2" y2="79.9"/>
				<line class="st4" x1="438.3" y1="175.9" x2="428.9" y2="175.9"/>
			</g>
		</g>
		<g>
			<g>
				<path class="st0" d="M194.5,94.2c-2.1-12.7,17.3-13.8,17.3-0.6C211.8,101.2,196.3,104.6,194.5,94.2z"/>
				<path class="st5" d="M218.4,102.2c13-28.1-31.5-42.7-39.6-12.2C174.1,107.7,207.7,125.3,218.4,102.2z"/>
				<g>
					<line class="st0" x1="209" y1="87.9" x2="185.3" y2="87.4"/>
					<line class="st0" x1="211.8" y1="91.6" x2="188.2" y2="91.1"/>
					<line class="st0" x1="209" y1="84.4" x2="185.3" y2="83.9"/>
				</g>
				<path class="st5" d="M222.6,98.2c7.5-16.2-18.2-24.7-22.9-7.1C197.1,101.3,216.5,111.5,222.6,98.2z"/>
				<polyline class="st6" points="198.4,166.2 197.6,80.5 191.7,80.5 192.5,166.1 				"/>
				<g>
					<path class="st1" d="M198.1,131.3c0,11.4-5.6,13.6-5.6,34.8"/>
					<path class="st1" d="M198.1,115.9c0,11.4-5.6,13.6-5.6,34.8"/>
				</g>
				<path class="st5" d="M212.4,61.8c-6,12.9,14.5,19.7,18.2,5.6C232.8,59.2,217.3,51.1,212.4,61.8z"/>
				<line class="st0" x1="219.4" y1="71.5" x2="213.4" y2="71.4"/>
				<line class="st0" x1="214.9" y1="66" x2="209" y2="65.8"/>
				<path class="st5" d="M195.5,39.4c-6,12.9,14.5,19.7,18.2,5.6C215.9,36.9,200.4,28.8,195.5,39.4z"/>
				<path class="st5" d="M188.7,81.2c19.9,2.9,20.8-27.6,0.3-27C177,54.5,172.4,78.8,188.7,81.2z"/>
				<path class="st5" d="M197.4,116.2c15.5,12.8,32.1-12.7,14.3-22.9C201.3,87.5,184.6,105.7,197.4,116.2z"/>
				<path class="st5" d="M178.5,112.4c-11.7,8.1,2.4,24.3,12.8,14.2C197.4,120.6,188.2,105.8,178.5,112.4z"/>
				<line class="st0" x1="184.4" y1="126.3" x2="173.4" y2="126.1"/>
				<line class="st0" x1="184.6" y1="124" x2="178.7" y2="123.9"/>
				<line class="st0" x1="178.9" y1="121.3" x2="173" y2="121.2"/>
				<path class="st5" d="M201.1,124.2c-5.7,12.4,13.8,18.8,17.4,5.4C220.6,121.7,205.7,114,201.1,124.2z"/>
				<line class="st0" x1="221.1" y1="69.7" x2="208.7" y2="69.4"/>
			</g>
			<line class="st1" x1="203.1" y1="165.7" x2="171" y2="166.2"/>
		</g>
		<g>
			<path class="st7" d="M45.9,289.7c-12.1-50.5,30-72.2,8.3-126.6h3.2c21.7,54.3-15.4,74.9,0,126.6"/>
			<g>
				<path class="st2" d="M83.5,175.9c0-72-48.8-72-48.8,0H83.5z"/>
				<path class="st4" d="M65.9,144.6c5.7,8.4,7.4,14.7,7.4,31.3"/>
				<path class="st4" d="M49.5,140.2c1.9-7,4.9-13.4,9.5-18.4"/>
				<path class="st4" d="M46.3,175.9c0-5.6,0-12.3,0.6-19.3"/>
				<path class="st4" d="M43.9,159.9c0.5-5.4,1.3-11,2.7-16.3"/>
				<path class="st4" d="M50.5,128.6c2.4-2.9,5.2-5.2,8.5-6.8c-6.6,27.7,8,32.7,8,54"/>
				<path class="st4" d="M39.3,175.9c0-11.8,1.1-24.9,4.9-35.6"/>
				<path class="st4" d="M41.7,141.1c1.6-4.4,3.7-8.4,6.4-11.7"/>
				<path class="st4" d="M59.1,121.9c-1,23.6,21.3,32.7,21.3,54"/>
				<path class="st4" d="M34.7,175.9c0-11.8,5.6-17.8,6.7-24.9"/>
				<path class="st4" d="M58.2,143.6c2.9,15.7-9.1,13-3.5,32.3"/>
				<line class="st4" x1="51.9" y1="125.3" x2="47.2" y2="123.2"/>
				<path class="st4" d="M53.2,124.3c0,0-4.2-4.4-3.6-4"/>
				<line class="st4" x1="54.7" y1="123.2" x2="54.3" y2="118.1"/>
			</g>
			<path class="st7" d="M52.5,255.4c0-31.6-24.6-29.6-24.6-57.6h-1.7c0,28,21.3,26,21.3,57.6"/>
			<path class="st7" d="M53.4,255.4c9.5-3.4,20.8-12.8,20.8-29h-1.7c0,15.3-9.5,20.1-19.1,23.6"/>
			<path class="st4" d="M64.3,202.1c-0.2,6.7-8.2,31.1-10.9,37.9"/>
			<path class="st4" d="M52.5,259.9c-1,13.8,0.5,21.3,3,27.8"/>
			<path class="st2" d="M86.5,231.9c0-38.4-24.6-38.4-24.6,0H86.5z"/>
			<path class="st2" d="M49.5,208c0-65-42.2-65-42.2,0H49.5z"/>
			<path class="st4" d="M28.4,159.3c-13.7,14.7-14,29.7-14,48.8"/>
			<path class="st4" d="M28.4,159.3C14.8,174,22.7,189,22.7,208"/>
			<path class="st4" d="M28.4,159.3C40.7,170.7,43.9,189,43.9,208"/>
			<path class="st4" d="M28.4,159.3c0,28.2,10.8,21.1,10.8,48.8"/>
			<path class="st4" d="M67,231.9c0-12.1,1.4-21,7.3-28.8"/>
			<path class="st4" d="M80.3,231.9c0-12.1-11.9-21-6.1-28.8"/>
			<path class="st4" d="M83.5,231.9c3.9-8.4-10.2-14.4-1.7-24.9"/>
			<path class="st4" d="M69.6,212c-3.6,5.6-7.6,12.3-7.6,19.9"/>
			<path class="st4" d="M30.7,176.7c3,6.8-9.5,14.2-8.1,27.4"/>
			<path class="st4" d="M18.1,175.9c-2.4,9.1-10.7,16.4-10.7,24.2"/>
			<path class="st4" d="M57.5,214.6c-1.9,6.7-0.5,15.1-2.4,20.7"/>
			<path class="st4" d="M46.3,244c-3-15.2-10.8-20.8-14.8-30.3"/>
			<path class="st4" d="M45.9,289.7c-3.4-14.1,10-29.8,0-57.2"/>
			<line class="st4" x1="86.5" y1="289.7" x2="68.5" y2="289.7"/>
			<line class="st4" x1="54.3" y1="289.7" x2="36.3" y2="289.7"/>
			<path class="st4" d="M54.1,255.1c7.6-3,16.7-14.3,17.5-21.5"/>
			<line class="st4" x1="77.6" y1="204.8" x2="79.6" y2="201.7"/>
			<line class="st4" x1="76.5" y1="204.8" x2="75.5" y2="199.5"/>
			<line class="st4" x1="71.6" y1="203.8" x2="69.6" y2="201.7"/>
			<line class="st4" x1="25" y1="161.5" x2="20.4" y2="157.1"/>
			<line class="st4" x1="26.8" y1="160.2" x2="28.4" y2="152.6"/>
			<line class="st4" x1="30.2" y1="161" x2="33.9" y2="155.3"/>
		</g>
		<g>
			<g>
				<path class="st5" d="M448.1,260c8.4-18.3-20.5-27.8-25.8-8C419.3,263.6,441.2,275,448.1,260z"/>
				<path class="st5" d="M470.4,277.3c13-28.1-31.5-42.7-39.6-12.2C426,282.8,459.7,300.4,470.4,277.3z"/>
				<g>
					<line class="st0" x1="466.8" y1="264.2" x2="443.2" y2="263.7"/>
					<line class="st0" x1="464" y1="267.9" x2="440.4" y2="267.4"/>
					<line class="st0" x1="464" y1="260.7" x2="440.4" y2="260.2"/>
				</g>
				<path class="st5" d="M474.6,302.7c7.5-16.2-18.2-24.7-22.9-7.1C449,305.9,468.5,316.1,474.6,302.7z"/>
				<path class="st5" d="M446.5,279.1c-2.1-12.7,17.3-13.8,17.3-0.6C463.7,286.1,448.3,289.5,446.5,279.1z"/>
				<polyline class="st6" points="450.4,351.1 449.6,265.4 443.6,265.4 444.5,351.1 				"/>
				<path class="st1" d="M450.4,343.1c0-20.4-6.8-42.4-6.8-77.8"/>
				<path class="st5" d="M455.9,244c-6,12.9,14.5,19.7,18.2,5.6C476.3,241.5,460.8,233.4,455.9,244z"/>
				<path class="st5" d="M432.7,283.5c18.3,8.4,27.8-20.5,8-25.8C429.1,254.6,417.6,276.5,432.7,283.5z"/>
				<path class="st5" d="M418.4,285.7c-6,12.9,14.5,19.7,18.2,5.6C438.8,283.2,423.3,275.1,418.4,285.7z"/>
				<path class="st5" d="M428.3,306c-6,12.9,14.5,19.7,18.2,5.6C448.7,303.4,433.2,295.3,428.3,306z"/>
				<path class="st5" d="M453,309.1c-5.7,12.4,13.8,18.8,17.4,5.4C472.5,306.7,457.7,299,453,309.1z"/>
				<path class="st0" d="M465,351.1c0-7.8-17.4-10.1-17.4,0"/>
				<line class="st0" x1="454.8" y1="350.8" x2="477.4" y2="351.2"/>
			</g>
		</g>
	</g>
</g>
<g id="_x31_andar">
	<g>
		<g>
			<rect x="60.6" y="346.8" class="st8" width="365.5" height="82"/>
			<g>
				<g>
					<rect x="60.6" y="421.9" class="st6" width="11.1" height="6.9"/>
					<rect x="60.6" y="414.9" class="st6" width="5.5" height="6.9"/>
				</g>
				<g>
					<rect x="60.6" y="408" class="st6" width="11.1" height="6.9"/>
					<rect x="60.6" y="401" class="st6" width="5.5" height="6.9"/>
				</g>
				<g>
					<rect x="60.6" y="394.4" class="st6" width="11.1" height="6.9"/>
					<rect x="60.6" y="387.5" class="st6" width="5.5" height="6.9"/>
				</g>
				<g>
					<rect x="60.6" y="380.9" class="st6" width="11.1" height="6.9"/>
					<rect x="60.6" y="373.9" class="st6" width="5.5" height="6.9"/>
				</g>
				<g>
					<rect x="60.6" y="367.3" class="st6" width="11.1" height="6.9"/>
					<rect x="60.6" y="360.4" class="st6" width="5.5" height="6.9"/>
				</g>
				<g>
					<rect x="60.6" y="353.8" class="st6" width="11.1" height="6.9"/>
					<rect x="60.6" y="346.8" class="st6" width="5.5" height="6.9"/>
				</g>
			</g>
			<g>
				<g>
					
						<rect x="415" y="421.9" transform="matrix(-1 -2.774548e-11 2.774548e-11 -1 841.1526 850.7003)" class="st6" width="11.1" height="6.9"/>
					
						<rect x="420.6" y="414.9" transform="matrix(-1 -2.774548e-11 2.774548e-11 -1 846.6925 836.8019)" class="st6" width="5.5" height="6.9"/>
				</g>
				<g>
					
						<rect x="415" y="408" transform="matrix(-1 -2.774548e-11 2.774548e-11 -1 841.1526 822.9036)" class="st6" width="11.1" height="6.9"/>
					
						<rect x="420.6" y="401" transform="matrix(-1 -2.774548e-11 2.774548e-11 -1 846.6925 809.0052)" class="st6" width="5.5" height="6.9"/>
				</g>
				<g>
					
						<rect x="415" y="394.4" transform="matrix(-1 -2.774548e-11 2.774548e-11 -1 841.1526 795.7921)" class="st6" width="11.1" height="6.9"/>
					
						<rect x="420.6" y="387.5" transform="matrix(-1 -2.774548e-11 2.774548e-11 -1 846.6925 781.8937)" class="st6" width="5.5" height="6.9"/>
				</g>
				<g>
					
						<rect x="415" y="380.9" transform="matrix(-1 -2.774548e-11 2.774548e-11 -1 841.1526 768.6805)" class="st6" width="11.1" height="6.9"/>
					
						<rect x="420.6" y="373.9" transform="matrix(-1 -2.774548e-11 2.774548e-11 -1 846.6925 754.7822)" class="st6" width="5.5" height="6.9"/>
				</g>
				<g>
					
						<rect x="415" y="367.3" transform="matrix(-1 -2.774548e-11 2.774548e-11 -1 841.1526 741.569)" class="st6" width="11.1" height="6.9"/>
					
						<rect x="420.6" y="360.4" transform="matrix(-1 -2.774548e-11 2.774548e-11 -1 846.6925 727.6707)" class="st6" width="5.5" height="6.9"/>
				</g>
				<g>
					
						<rect x="415" y="353.8" transform="matrix(-1 -2.774548e-11 2.774548e-11 -1 841.1526 714.4575)" class="st6" width="11.1" height="6.9"/>
					
						<rect x="420.6" y="346.8" transform="matrix(-1 -2.774548e-11 2.774548e-11 -1 846.6925 700.5591)" class="st6" width="5.5" height="6.9"/>
				</g>
			</g>
			<g>
				<line class="st9" x1="81.7" y1="423.3" x2="93.8" y2="423.3"/>
				<line class="st9" x1="396.2" y1="425.6" x2="408.2" y2="425.6"/>
			</g>
			<rect x="80.6" y="364.4" class="st0" width="135.2" height="53.9"/>
			<rect x="270.9" y="364.4" class="st0" width="135.2" height="53.9"/>
			<g>
				<rect x="270.9" y="418.3" class="st6" width="135.2" height="2.5"/>
				<rect x="270.9" y="415.8" class="st10" width="135.2" height="2.5"/>
			</g>
			<g>
				<rect x="80.6" y="418.3" class="st6" width="135.2" height="2.5"/>
				<rect x="80.6" y="415.8" class="st10" width="135.2" height="2.5"/>
			</g>
			<rect x="60.6" y="338.3" class="st11" width="365.5" height="8.5"/>
			<rect x="60.6" y="334.1" class="st6" width="365.5" height="4.2"/>
			<rect x="215.8" y="364.4" class="st0" width="55.1" height="64.4"/>
			<rect x="215.8" y="426.3" class="st10" width="55.1" height="2.5"/>
			<rect x="215.8" y="353.5" class="st0" width="55.1" height="10.9"/>
			<g>
				<path class="st12" d="M215.8,362.6c0,4-5.3,7.3-11.8,7.3c-6.5,0-11.8-3.3-11.8-7.3c0,4-5.3,7.3-11.8,7.3s-11.8-3.3-11.8-7.3
					c0,4-5.3,7.3-11.8,7.3s-11.8-3.3-11.8-7.3c0,4-5.3,7.3-11.8,7.3c-6.5,0-11.8-3.3-11.8-7.3c0,4-5.3,7.3-11.8,7.3
					c-6.5,0-11.8-3.3-11.8-7.3c0,4-5.3,7.3-11.8,7.3c-6.5,0-11.8-3.3-11.8-7.3v-1.4h142.2V362.6z"/>
				<rect x="73.6" y="346.6" class="st13" width="142.2" height="14.6"/>
				<path class="st14" d="M97.3,362.6c0,4,5.3,7.3,11.8,7.3c6.5,0,11.8-3.3,11.8-7.3v-1.4H97.3V362.6z"/>
				<rect x="97.3" y="346.6" class="st15" width="23.7" height="14.6"/>
				<path class="st14" d="M144.7,362.6c0,4,5.3,7.3,11.8,7.3s11.8-3.3,11.8-7.3v-1.4h-23.7V362.6z"/>
				<rect x="144.7" y="346.6" class="st15" width="23.7" height="14.6"/>
				<path class="st14" d="M192.1,362.6c0,4,5.3,7.3,11.8,7.3c6.5,0,11.8-3.3,11.8-7.3v-1.4h-23.7V362.6z"/>
				<rect x="192.1" y="346.6" class="st15" width="23.7" height="14.6"/>
			</g>
		</g>
		<g>
			<polygon class="st16" points="60.6,334.1 243.4,284.7 243.4,334.1 			"/>
			<g>
				<polygon class="st10" points="60.6,334.1 243.4,284.7 243.4,275.6 60.6,325 				"/>
				<polygon class="st10" points="60.6,273.9 243.4,224.4 243.4,215.3 60.6,264.8 				"/>
			</g>
			<g>
				<polygon class="st14" points="60.6,273.9 243.4,224.4 243.4,275.6 60.6,325 				"/>
				<g>
					<line class="st10" x1="243.4" y1="268.3" x2="60.6" y2="317.7"/>
					<line class="st10" x1="243.4" y1="261" x2="60.6" y2="310.4"/>
					<line class="st10" x1="243.4" y1="253.7" x2="60.6" y2="303.1"/>
					<line class="st10" x1="243.4" y1="246.3" x2="60.6" y2="295.8"/>
					<line class="st10" x1="243.4" y1="239" x2="60.6" y2="288.5"/>
					<line class="st10" x1="243.4" y1="231.7" x2="60.6" y2="281.2"/>
				</g>
				<g>
					<line class="st17" x1="244.3" y1="269.2" x2="61.5" y2="318.6"/>
					<line class="st17" x1="244.3" y1="261.9" x2="61.5" y2="311.3"/>
					<line class="st17" x1="244.3" y1="254.6" x2="61.5" y2="304"/>
					<line class="st17" x1="244.3" y1="247.2" x2="61.5" y2="296.7"/>
					<line class="st17" x1="244.3" y1="239.9" x2="61.5" y2="289.4"/>
					<line class="st17" x1="244.3" y1="232.6" x2="61.5" y2="282.1"/>
					<line class="st17" x1="244.3" y1="225.3" x2="61.5" y2="274.8"/>
				</g>
				<g>
					<g>
						<line class="st10" x1="71.3" y1="314.8" x2="71.3" y2="322.1"/>
					</g>
					<g>
						<line class="st10" x1="93.5" y1="308.8" x2="93.5" y2="316.1"/>
					</g>
					<g>
						<line class="st10" x1="115.8" y1="302.8" x2="115.8" y2="310.1"/>
					</g>
					<g>
						<line class="st10" x1="138.1" y1="296.7" x2="138.1" y2="304.1"/>
					</g>
					<g>
						<line class="st10" x1="160.4" y1="290.7" x2="160.4" y2="298"/>
					</g>
					<g>
						<line class="st10" x1="182.7" y1="284.7" x2="182.7" y2="292"/>
					</g>
					<g>
						<line class="st10" x1="205" y1="278.7" x2="205" y2="286"/>
					</g>
					<g>
						<line class="st10" x1="227.3" y1="272.6" x2="227.3" y2="279.9"/>
					</g>
				</g>
				<g>
					<g>
						<line class="st10" x1="71.3" y1="300.2" x2="71.3" y2="307.5"/>
					</g>
					<g>
						<line class="st10" x1="93.5" y1="294.2" x2="93.5" y2="301.5"/>
					</g>
					<g>
						<line class="st10" x1="115.8" y1="288.2" x2="115.8" y2="295.5"/>
					</g>
					<g>
						<line class="st10" x1="138.1" y1="282.1" x2="138.1" y2="289.4"/>
					</g>
					<g>
						<line class="st10" x1="160.4" y1="276.1" x2="160.4" y2="283.4"/>
					</g>
					<g>
						<line class="st10" x1="182.7" y1="270.1" x2="182.7" y2="277.4"/>
					</g>
					<g>
						<line class="st10" x1="205" y1="264" x2="205" y2="271.3"/>
					</g>
					<g>
						<line class="st10" x1="227.3" y1="258" x2="227.3" y2="265.3"/>
					</g>
				</g>
				<g>
					<g>
						<line class="st10" x1="81.7" y1="304.7" x2="81.7" y2="312"/>
					</g>
					<g>
						<line class="st10" x1="104" y1="298.7" x2="104" y2="306"/>
					</g>
					<g>
						<line class="st10" x1="126.3" y1="292.6" x2="126.3" y2="299.9"/>
					</g>
					<g>
						<line class="st10" x1="148.6" y1="286.6" x2="148.6" y2="293.9"/>
					</g>
					<g>
						<line class="st10" x1="170.9" y1="280.6" x2="170.9" y2="287.9"/>
					</g>
					<g>
						<line class="st10" x1="193.2" y1="274.5" x2="193.2" y2="281.9"/>
					</g>
					<g>
						<line class="st10" x1="215.4" y1="268.5" x2="215.4" y2="275.8"/>
					</g>
					<g>
						<line class="st10" x1="237.7" y1="262.5" x2="237.7" y2="269.8"/>
					</g>
				</g>
				<g>
					<g>
						<line class="st10" x1="81.7" y1="290.1" x2="81.7" y2="297.4"/>
					</g>
					<g>
						<line class="st10" x1="104" y1="284.1" x2="104" y2="291.4"/>
					</g>
					<g>
						<line class="st10" x1="126.3" y1="278" x2="126.3" y2="285.3"/>
					</g>
					<g>
						<line class="st10" x1="148.6" y1="272" x2="148.6" y2="279.3"/>
					</g>
					<g>
						<line class="st10" x1="170.9" y1="266" x2="170.9" y2="273.3"/>
					</g>
					<g>
						<line class="st10" x1="193.2" y1="259.9" x2="193.2" y2="267.2"/>
					</g>
					<g>
						<line class="st10" x1="215.4" y1="253.9" x2="215.4" y2="261.2"/>
					</g>
					<g>
						<line class="st10" x1="237.7" y1="247.9" x2="237.7" y2="255.2"/>
					</g>
				</g>
				<g>
					<g>
						<line class="st10" x1="71.3" y1="285.6" x2="71.3" y2="292.9"/>
					</g>
					<g>
						<line class="st10" x1="93.5" y1="279.6" x2="93.5" y2="286.9"/>
					</g>
					<g>
						<line class="st10" x1="115.8" y1="273.5" x2="115.8" y2="280.8"/>
					</g>
					<g>
						<line class="st10" x1="138.1" y1="267.5" x2="138.1" y2="274.8"/>
					</g>
					<g>
						<line class="st10" x1="160.4" y1="261.5" x2="160.4" y2="268.8"/>
					</g>
					<g>
						<line class="st10" x1="182.7" y1="255.5" x2="182.7" y2="262.8"/>
					</g>
					<g>
						<line class="st10" x1="205" y1="249.4" x2="205" y2="256.7"/>
					</g>
					<g>
						<line class="st10" x1="227.3" y1="243.4" x2="227.3" y2="250.7"/>
					</g>
				</g>
				<g>
					<g>
						<line class="st10" x1="71.3" y1="271" x2="71.3" y2="278.3"/>
					</g>
					<g>
						<line class="st10" x1="93.5" y1="265" x2="93.5" y2="272.3"/>
					</g>
					<g>
						<line class="st10" x1="115.8" y1="258.9" x2="115.8" y2="266.2"/>
					</g>
					<g>
						<line class="st10" x1="138.1" y1="252.9" x2="138.1" y2="260.2"/>
					</g>
					<g>
						<line class="st10" x1="160.4" y1="246.9" x2="160.4" y2="254.2"/>
					</g>
					<g>
						<line class="st10" x1="182.7" y1="240.8" x2="182.7" y2="248.1"/>
					</g>
					<g>
						<line class="st10" x1="205" y1="234.8" x2="205" y2="242.1"/>
					</g>
					<g>
						<line class="st10" x1="227.3" y1="228.8" x2="227.3" y2="236.1"/>
					</g>
				</g>
				<g>
					<g>
						<line class="st10" x1="81.7" y1="275.5" x2="81.7" y2="282.8"/>
					</g>
					<g>
						<line class="st10" x1="104" y1="269.4" x2="104" y2="276.7"/>
					</g>
					<g>
						<line class="st10" x1="126.3" y1="263.4" x2="126.3" y2="270.7"/>
					</g>
					<g>
						<line class="st10" x1="148.6" y1="257.4" x2="148.6" y2="264.7"/>
					</g>
					<g>
						<line class="st10" x1="170.9" y1="251.3" x2="170.9" y2="258.7"/>
					</g>
					<g>
						<line class="st10" x1="193.2" y1="245.3" x2="193.2" y2="252.6"/>
					</g>
					<g>
						<line class="st10" x1="215.4" y1="239.3" x2="215.4" y2="246.6"/>
					</g>
					<g>
						<line class="st10" x1="237.7" y1="233.3" x2="237.7" y2="240.6"/>
					</g>
				</g>
			</g>
			<polygon class="st16" points="426.1,334.1 243.4,284.7 243.4,334.1 			"/>
			<g>
				<line class="st18" x1="295.3" y1="317.2" x2="307.4" y2="317.2"/>
				<line class="st18" x1="373.8" y1="326.5" x2="385.9" y2="326.5"/>
				<line class="st18" x1="205.7" y1="324" x2="217.7" y2="324"/>
				<line class="st18" x1="190.3" y1="316.1" x2="202.4" y2="316.1"/>
				<line class="st18" x1="91.9" y1="330.4" x2="104" y2="330.4"/>
			</g>
			<g>
				<polygon class="st10" points="426.1,334.1 243.4,284.7 243.4,275.6 426.1,325 				"/>
				<polygon class="st10" points="426.1,273.9 243.4,224.4 243.4,215.3 426.1,264.8 				"/>
			</g>
			<g>
				<polygon class="st14" points="426.1,273.9 243.4,224.4 243.4,275.6 426.1,325 				"/>
				<g>
					<line class="st10" x1="243.4" y1="268.3" x2="426.1" y2="317.7"/>
					<line class="st10" x1="243.4" y1="261" x2="426.1" y2="310.4"/>
					<line class="st10" x1="243.4" y1="253.7" x2="426.1" y2="303.1"/>
					<line class="st10" x1="243.4" y1="246.3" x2="426.1" y2="295.8"/>
					<line class="st10" x1="243.4" y1="239" x2="426.1" y2="288.5"/>
					<line class="st10" x1="243.4" y1="231.7" x2="426.1" y2="281.2"/>
				</g>
				<g>
					<line class="st17" x1="242.5" y1="269.2" x2="425.2" y2="318.6"/>
					<line class="st17" x1="242.5" y1="261.9" x2="425.2" y2="311.3"/>
					<line class="st17" x1="242.5" y1="254.6" x2="425.2" y2="304"/>
					<line class="st17" x1="242.5" y1="247.2" x2="425.2" y2="296.7"/>
					<line class="st17" x1="242.5" y1="239.9" x2="425.2" y2="289.4"/>
					<line class="st17" x1="242.5" y1="232.6" x2="425.2" y2="282.1"/>
					<line class="st17" x1="242.5" y1="225.3" x2="425.2" y2="274.8"/>
				</g>
				<g>
					<g>
						<line class="st10" x1="415.5" y1="314.8" x2="415.5" y2="322.1"/>
					</g>
					<g>
						<line class="st10" x1="393.2" y1="308.8" x2="393.2" y2="316.1"/>
					</g>
					<g>
						<line class="st10" x1="370.9" y1="302.8" x2="370.9" y2="310.1"/>
					</g>
					<g>
						<line class="st10" x1="348.6" y1="296.7" x2="348.6" y2="304.1"/>
					</g>
					<g>
						<line class="st10" x1="326.3" y1="290.7" x2="326.3" y2="298"/>
					</g>
					<g>
						<line class="st10" x1="304" y1="284.7" x2="304" y2="292"/>
					</g>
					<g>
						<line class="st10" x1="281.7" y1="278.7" x2="281.7" y2="286"/>
					</g>
					<g>
						<line class="st10" x1="259.5" y1="272.6" x2="259.5" y2="279.9"/>
					</g>
				</g>
				<g>
					<g>
						<line class="st10" x1="415.5" y1="300.2" x2="415.5" y2="307.5"/>
					</g>
					<g>
						<line class="st10" x1="393.2" y1="294.2" x2="393.2" y2="301.5"/>
					</g>
					<g>
						<line class="st10" x1="370.9" y1="288.2" x2="370.9" y2="295.5"/>
					</g>
					<g>
						<line class="st10" x1="348.6" y1="282.1" x2="348.6" y2="289.4"/>
					</g>
					<g>
						<line class="st10" x1="326.3" y1="276.1" x2="326.3" y2="283.4"/>
					</g>
					<g>
						<line class="st10" x1="304" y1="270.1" x2="304" y2="277.4"/>
					</g>
					<g>
						<line class="st10" x1="281.7" y1="264" x2="281.7" y2="271.3"/>
					</g>
					<g>
						<line class="st10" x1="259.5" y1="258" x2="259.5" y2="265.3"/>
					</g>
				</g>
				<g>
					<g>
						<line class="st10" x1="405" y1="304.7" x2="405" y2="312"/>
					</g>
					<g>
						<line class="st10" x1="382.7" y1="298.7" x2="382.7" y2="306"/>
					</g>
					<g>
						<line class="st10" x1="360.5" y1="292.6" x2="360.5" y2="299.9"/>
					</g>
					<g>
						<line class="st10" x1="338.2" y1="286.6" x2="338.2" y2="293.9"/>
					</g>
					<g>
						<line class="st10" x1="315.9" y1="280.6" x2="315.9" y2="287.9"/>
					</g>
					<g>
						<line class="st10" x1="293.6" y1="274.5" x2="293.6" y2="281.9"/>
					</g>
					<g>
						<line class="st10" x1="271.3" y1="268.5" x2="271.3" y2="275.8"/>
					</g>
					<g>
						<line class="st10" x1="249" y1="262.5" x2="249" y2="269.8"/>
					</g>
				</g>
				<g>
					<g>
						<line class="st10" x1="405" y1="290.1" x2="405" y2="297.4"/>
					</g>
					<g>
						<line class="st10" x1="382.7" y1="284.1" x2="382.7" y2="291.4"/>
					</g>
					<g>
						<line class="st10" x1="360.5" y1="278" x2="360.5" y2="285.3"/>
					</g>
					<g>
						<line class="st10" x1="338.2" y1="272" x2="338.2" y2="279.3"/>
					</g>
					<g>
						<line class="st10" x1="315.9" y1="266" x2="315.9" y2="273.3"/>
					</g>
					<g>
						<line class="st10" x1="293.6" y1="259.9" x2="293.6" y2="267.2"/>
					</g>
					<g>
						<line class="st10" x1="271.3" y1="253.9" x2="271.3" y2="261.2"/>
					</g>
					<g>
						<line class="st10" x1="249" y1="247.9" x2="249" y2="255.2"/>
					</g>
				</g>
				<g>
					<g>
						<line class="st10" x1="415.5" y1="285.6" x2="415.5" y2="292.9"/>
					</g>
					<g>
						<line class="st10" x1="393.2" y1="279.6" x2="393.2" y2="286.9"/>
					</g>
					<g>
						<line class="st10" x1="370.9" y1="273.5" x2="370.9" y2="280.8"/>
					</g>
					<g>
						<line class="st10" x1="348.6" y1="267.5" x2="348.6" y2="274.8"/>
					</g>
					<g>
						<line class="st10" x1="326.3" y1="261.5" x2="326.3" y2="268.8"/>
					</g>
					<g>
						<line class="st10" x1="304" y1="255.5" x2="304" y2="262.8"/>
					</g>
					<g>
						<line class="st10" x1="281.7" y1="249.4" x2="281.7" y2="256.7"/>
					</g>
					<g>
						<line class="st10" x1="259.5" y1="243.4" x2="259.5" y2="250.7"/>
					</g>
				</g>
				<g>
					<g>
						<line class="st10" x1="415.5" y1="271" x2="415.5" y2="278.3"/>
					</g>
					<g>
						<line class="st10" x1="393.2" y1="265" x2="393.2" y2="272.3"/>
					</g>
					<g>
						<line class="st10" x1="370.9" y1="258.9" x2="370.9" y2="266.2"/>
					</g>
					<g>
						<line class="st10" x1="348.6" y1="252.9" x2="348.6" y2="260.2"/>
					</g>
					<g>
						<line class="st10" x1="326.3" y1="246.9" x2="326.3" y2="254.2"/>
					</g>
					<g>
						<line class="st10" x1="304" y1="240.8" x2="304" y2="248.1"/>
					</g>
					<g>
						<line class="st10" x1="281.7" y1="234.8" x2="281.7" y2="242.1"/>
					</g>
					<g>
						<line class="st10" x1="259.5" y1="228.8" x2="259.5" y2="236.1"/>
					</g>
				</g>
				<g>
					<g>
						<line class="st10" x1="405" y1="275.5" x2="405" y2="282.8"/>
					</g>
					<g>
						<line class="st10" x1="382.7" y1="269.4" x2="382.7" y2="276.7"/>
					</g>
					<g>
						<line class="st10" x1="360.5" y1="263.4" x2="360.5" y2="270.7"/>
					</g>
					<g>
						<line class="st10" x1="338.2" y1="257.4" x2="338.2" y2="264.7"/>
					</g>
					<g>
						<line class="st10" x1="315.9" y1="251.3" x2="315.9" y2="258.7"/>
					</g>
					<g>
						<line class="st10" x1="293.6" y1="245.3" x2="293.6" y2="252.6"/>
					</g>
					<g>
						<line class="st10" x1="271.3" y1="239.3" x2="271.3" y2="246.6"/>
					</g>
					<g>
						<line class="st10" x1="249" y1="233.3" x2="249" y2="240.6"/>
					</g>
				</g>
			</g>
			<g>
				<g>
					<ellipse class="st19" cx="243.4" cy="313.4" rx="31.5" ry="10.7"/>
					<g>
						<path class="st12" d="M274.8,309.9c0-5.9-14.1-10.7-31.5-10.7s-31.5,4.8-31.5,10.7v3.5c0-5.9,14.1-10.7,31.5-10.7
							s31.5,4.8,31.5,10.7V309.9z"/>
						<line class="st12" x1="213.5" y1="306.6" x2="213.5" y2="310.1"/>
						<line class="st12" x1="215" y1="305.3" x2="215" y2="308.8"/>
						<line class="st12" x1="217.7" y1="303.7" x2="217.7" y2="307.2"/>
						<line class="st12" x1="221.6" y1="302.2" x2="221.6" y2="305.7"/>
						<line class="st12" x1="228.6" y1="300.5" x2="228.6" y2="304"/>
						<line class="st12" x1="237.8" y1="299.4" x2="237.8" y2="302.9"/>
						<line class="st12" x1="249" y1="299.4" x2="249" y2="302.9"/>
					</g>
				</g>
				<g>
					<path class="st14" d="M250.4,225.9c0-1.5-3.1-2.7-7-2.7s-7,1.2-7,2.7v51.5c0-1.5,3.1-2.7,7-2.7s7,1.2,7,2.7V225.9z"/>
					<line class="st17" x1="238.1" y1="225.5" x2="238.1" y2="275.1"/>
					<g>
						<path class="st1" d="M250.4,235.9c0-1.5-3.1-2.7-7-2.7s-7,1.2-7,2.7"/>
						<path class="st1" d="M250.4,248c0-1.5-3.1-2.7-7-2.7s-7,1.2-7,2.7"/>
						<path class="st1" d="M250.4,260.1c0-1.5-3.1-2.7-7-2.7s-7,1.2-7,2.7"/>
						<path class="st1" d="M250.4,272.1c0-1.5-3.1-2.7-7-2.7s-7,1.2-7,2.7"/>
					</g>
					<path class="st20" d="M236.4,277.5c0-1.5,3.1-2.7,7-2.7s7,1.2,7,2.7"/>
				</g>
			</g>
		</g>
		<g>
			<polygon class="st0" points="316,408.2 316,412.8 317.1,412.9 317.4,410.2 321.7,412.6 322.2,412 319.9,409.8 320.2,409.5 
				322.5,411.4 323.2,410.6 318.6,406.4 			"/>
			<path class="st0" d="M276.5,405.3c-0.8,1.9-1.2,3.9-3.1,5.8l1,0.6l1.5-2.5l0.6,0.8l-1.3,2.2l1.1,0.6l2.4-3.3l2.1,1.1l0.5-1.1
				l-1.8-2"/>
			<path class="st0" d="M307.8,408.9c-0.8-6.6-3.3-16-1.9-16.4s3.8,9,9.5,16.2l4-2.8c-5.4-6.7-10.6-20.6-13.7-21.2
				c-3.1-0.6-12.2-0.6-15.7,0.1c-2.9,0.7-9.2,14.1-14.2,20.1l3.6,2.7c5.8-6.7,8.2-14.2,9.9-14.2c1.8,0-0.2,15.4-0.2,15.4"/>
			<path class="st21" d="M307.8,408.9c3,12.8,2.8,18.7,1.6,25.1h-5.6c0.9-8-1.8-21.1-4.5-21.1s-7.7,13.9-5.9,21.1h-5.6
				c-2.3-10.3-1.8-17,1.4-25.3C294.2,409.2,299.6,409.6,307.8,408.9z"/>
			<path class="st1" d="M294.2,415.3c0,0,3.7-5.5,11.3,0"/>
			<path class="st1" d="M302.5,384.1c0,0,0.4,3.1-3.9,6c0,0-4.3-1.8-5.6-5.9C292.9,380.9,302.5,380.8,302.5,384.1z"/>
			<path class="st1" d="M302.1,383.1c0,0,2.4,3.6,2.4,7.1c0,3.5-5.9,0-5.9,0s-4.6,4-5.6,0s0-5.9,0-5.9"/>
			<path class="st1" d="M298.6,390.1c0,0,0.4,8.7,1.1,11.6c0,0,1,2.4-0.4,7.6"/>
			<path class="st1" d="M305.1,402.1c0,0-4.2-0.7-11.4-0.7"/>
			<path class="st0" d="M293,384.2c1.3,4.1,5.6,5.9,5.6,5.9c4.3-2.9,3.9-6,3.9-6l-0.7-12.5c-2.7-0.8-5.4-1.1-8.5,0.4L293,384.2z"/>
			<path class="st0" d="M297.3,379.2c3-1.5,2.1,2.8,6.3,2.2c0,0-2.4,3.9-6.2,0.4c0,0-2.1,3.4-6.8,0.6
				C294.6,382.7,293.3,378.1,297.3,379.2z"/>
			<path class="st22" d="M303.8,434c0,0,3.5-1.6,5.9-1.6c0,0,1.8,2.3,1.8,4.2l-2.9,0.7C306.2,437.2,307.4,434.8,303.8,434z"/>
			<path class="st22" d="M293.3,434c0,0-3.5-1.6-5.9-1.6c0,0-1.8,2.3-1.8,4.2l2.9,0.7C290.9,437.2,289.7,434.8,293.3,434z"/>
		</g>
	</g>
</g>
</svg>
