<?xml version="1.0" encoding="utf-8"?>
<!-- Generator: Adobe Illustrator 28.3.0, SVG Export Plug-In . SVG Version: 6.00 Build 0)  -->
<svg version="1.1" xmlns="http://www.w3.org/2000/svg" xmlns:xlink="http://www.w3.org/1999/xlink" x="0px" y="0px"
	 viewBox="0 0 600 443.7" style="enable-background:new 0 0 600 443.7;" xml:space="preserve">
<style type="text/css">
	.st0{fill:#FFFFFF;stroke:#000000;stroke-miterlimit:10;}
	.st1{fill:none;stroke:#000000;stroke-miterlimit:10;}
	.st2{fill:#FFFFFF;stroke:#231F20;stroke-miterlimit:10;}
	.st3{fill:none;stroke:#231F20;stroke-miterlimit:10;}
	.st4{fill:#B0B1B3;stroke:#231F20;stroke-miterlimit:10;}
	.st5{fill:#BDBFC1;}
	.st6{fill:#ADCCA2;stroke:#231F20;stroke-miterlimit:10;}
	.st7{fill:#ADCCA2;stroke:#000000;stroke-miterlimit:10;}
	.st8{fill:#EBCF9E;stroke:#000000;stroke-miterlimit:10;}
	.st9{fill:#E1A091;stroke:#231F20;stroke-miterlimit:10;}
	.st10{fill:#DBDADB;stroke:#000000;stroke-miterlimit:10;}
	.st11{fill:#F6EBD7;stroke:#000000;stroke-miterlimit:10;}
	.st12{fill:#E6C281;stroke:#000000;stroke-miterlimit:10;}
	.st13{fill:#9DBAD6;stroke:#000000;stroke-miterlimit:10;}
	.st14{fill:#DAE2EE;stroke:#000000;stroke-miterlimit:10;}
	.st15{fill:#E1A091;stroke:#000000;stroke-miterlimit:10;}
	.st16{fill:#F1D5CB;stroke:#000000;stroke-miterlimit:10;}
	.st17{fill:#FFFFFF;stroke:#969396;stroke-miterlimit:10;}
	.st18{fill:#ADCCA2;}
	.st19{fill:#F6EBD7;stroke:#B92300;stroke-miterlimit:10;}
	.st20{fill:#FFFFFF;stroke:#7AAC68;stroke-miterlimit:10;}
	.st21{fill:#95A3CD;stroke:#000000;stroke-miterlimit:10;}
	.st22{fill:#B92300;stroke:#000000;stroke-miterlimit:10;}
	.st23{fill:#8C9AA3;stroke:#000000;stroke-miterlimit:10;}
	.st24{stroke:#000000;stroke-miterlimit:10;}
	.st25{fill:#FFFFFF;stroke:#000000;stroke-linejoin:bevel;stroke-miterlimit:10;}
	.st26{fill:#ED1C24;stroke:#000000;stroke-miterlimit:10;}
	.st27{fill:#FFF200;stroke:#000000;stroke-linejoin:bevel;stroke-miterlimit:10;}
	.st28{stroke:#000000;stroke-linejoin:bevel;stroke-miterlimit:10;}
</style>
<g id="Layer_6">
	<g>
		<g>
			<g>
				<path class="st0" d="M478.3,68.6c-4-15.6-2.5-15.9-4.3-29c-0.4-2.9,0.6-7.3,1.3-10.5l19.3,1.4l-0.2-2.7
					c-10.1-1.4-17.6-2.3-24.1-3.9c-0.5-0.1,1.3-5.5,1.3-9.3c0-4.7-4.1-5.8-6.9-3.1c-2.6,2.5-0.4,8.1,0.8,11
					c-7.2-2.5-13.5-6.4-20.5-12.6l-2.1,2c5.4,5.2,11.2,9.5,18.8,13.5c-1.5,6.1-4.2,27.6-7.7,43.1"/>
				<path class="st0" d="M458.6,68.6c0,0,0.7-24.3,7.8-23.4c6.5,0.8,7.5,23.3,7.5,23.3"/>
			</g>
			<path class="st1" d="M463.5,22.5c0,0,0,5.6,1.9,8.2c0,0,4.6-1.3,8.6-5.9"/>
			<path class="st1" d="M478.8,25.7c0,0-1.8,2.1-0.3,4.1"/>
			<path class="st1" d="M461,20.7c-1.6,0.4-2.8,2.9-1.3,3.8"/>
		</g>
		<path class="st1" d="M466.3,27.7c0,0-1.2,2.7-1.4,4.7"/>
		<path class="st1" d="M465.6,33.5c1.4,1.7,5.8,2.6,6.4-0.4"/>
		<path class="st1" d="M462.8,32.4c-1.1,0.7-2.4-0.5-2.2-1.8"/>
	</g>
	<g>
		<g>
			<g>
				<path class="st2" d="M107.2,101.3c0,0,0.9-49.3,4.5-53s22.3-2.9,22.3-2.9l1.1-4c0,0-38.5-0.2-68.1,11.9L66.9,57
					c0,0,21.9-9.6,24.5-4.8C94,56.9,88,92.4,88,92.4l4.2-1.1c0,0,1.2-22,6.9-22s4,34.9,4,34.9"/>
				<polyline class="st2" points="98,49.4 98,37.5 106.6,36.6 106.6,50.7 				"/>
			</g>
		</g>
		<path class="st3" d="M93.8,69.4c0,0,5.8-2.5,10.3,3.5"/>
		<path class="st3" d="M91.8,62.9c0,4.8,11.5,7.2,16.8,5.3"/>
		<path class="st3" d="M97.6,46c-1.6,0.6-4.6,7,3.9,8.2c8.1,1.2,9.5-7.9,5.1-8.2"/>
	</g>
	<g>
		<g>
			<g>
				<g>
					<g>
						<path class="st2" d="M565,321.2c0.1,0.9-4.6-20.8-4.6-44.1c0.2-2.6,10-5.5,16.9-19.9l-2.1-1.1c0,0-5.7,13.4-17.1,16.3
							l-7.2-0.6c-8.3-2.4-12.4-9.9-14.9-15.9l-1.8,0.8c2.9,8,8.6,14.5,15.6,19.5c0,24.3-5.2,45-5.2,45"/>
						<polyline class="st2" points="551.7,274.4 551.6,264 558.5,264 558.5,274.4 						"/>
						<path class="st2" d="M548,321.2c0,0,2.1-24.6,7.1-24.6c4.9,0,6.9,24.6,6.9,24.6"/>
					</g>
				</g>
			</g>
		</g>
		<path class="st0" d="M551.2,265.4c0,4.9,7.3,4.9,7.3,0H551.2z"/>
		<polygon class="st0" points="551.2,265.4 549.3,261.5 555,258 560.3,261.5 558.5,265.4 		"/>
		<polyline class="st2" points="549.3,261.5 554.8,263.7 560.3,261.5 		"/>
		<polygon class="st2" points="549.2,290.6 553.1,290.6 553.1,292.1 549.1,292.1 		"/>
		<rect x="553.1" y="290.6" class="st2" width="3.2" height="1.4"/>
		<rect x="556.3" y="290.6" class="st2" width="4.6" height="1.4"/>
		<polygon class="st2" points="553.1,279.3 550,275 551.6,271.2 551.6,274.4 555,277.4 		"/>
		<polygon class="st2" points="557,279.3 560.1,275 558.5,271.2 558.5,274.4 555,277.4 		"/>
		<line class="st2" x1="547.1" y1="308.3" x2="550" y2="308.9"/>
		<line class="st2" x1="560.3" y1="308.6" x2="562.7" y2="307.8"/>
	</g>
	<g>
		<line class="st0" x1="87.7" y1="401.3" x2="84.2" y2="401.3"/>
		<g>
			<g>
				<path class="st0" d="M75.5,428.4c1-7.5,2.7-24.1,7.5-24.1c4.8,0,5.9,15.4,6.4,24.1 M92.8,427.1c1.5-21.4-14.9-55.3,14.1-54.5
					l1.1-1.2l2.5,0.1l0.8-0.8l-2.2-0.5c-13.7-3.4-19.4,3.4-24,14.2c-0.6,1.4,2.4-15.3-4.5-13.8c-6.9,1.5,1.2,12.4-0.8,14
					c-2.1,1.7-8.1-11.2-17.3-15.2l-1.5,2.5c24.8,16,8.7,37.6,10.5,56.5"/>
			</g>
		</g>
		<path class="st0" d="M74.7,399.4c0,0,7.1,4.9,15.4,0"/>
		<path class="st1" d="M74.2,389.6c2.5,3.5,2.9-2.6,4-5c0,0,1.1,1.2,1.4,0c2.2,13.7,4.3,11.5,6-1.7c0,0,1.5,9.1,3.9,7.1"/>
		<polygon class="st1" points="80.5,386.7 82.4,387.1 84.2,386.3 84.2,388.6 82.4,387.5 80.8,388.6 		"/>
	</g>
	<g>
		<g>
			<line class="st0" x1="325.7" y1="195.7" x2="330.6" y2="195.7"/>
			<line class="st0" x1="445.4" y1="246.4" x2="450.4" y2="246.4"/>
			<line class="st0" x1="292.3" y1="190" x2="287" y2="190"/>
			<line class="st0" x1="113.1" y1="325.2" x2="107.8" y2="325.2"/>
			<line class="st0" x1="333.1" y1="173.8" x2="337.4" y2="173.8"/>
			<line class="st0" x1="541.4" y1="138.8" x2="545.7" y2="138.8"/>
			<line class="st0" x1="527.7" y1="344.2" x2="532" y2="344.2"/>
			<line class="st0" x1="450.9" y1="159.4" x2="453.2" y2="159.4"/>
			<line class="st0" x1="278.5" y1="161.6" x2="275" y2="161.6"/>
		</g>
		<g>
			<line class="st0" x1="173.4" y1="180.2" x2="178.4" y2="180.2"/>
			<line class="st0" x1="304.1" y1="85.8" x2="309.1" y2="85.8"/>
			<line class="st0" x1="216" y1="163.2" x2="210.7" y2="163.2"/>
			<line class="st0" x1="231.1" y1="209.5" x2="235.4" y2="209.5"/>
			<line class="st0" x1="537.2" y1="91.7" x2="541.4" y2="91.7"/>
			<line class="st0" x1="164.8" y1="87.9" x2="169.1" y2="87.9"/>
			<line class="st0" x1="235" y1="184.1" x2="237.3" y2="184.1"/>
			<line class="st0" x1="311" y1="92" x2="313.2" y2="92"/>
			<line class="st0" x1="406.2" y1="140.2" x2="411.1" y2="140.2"/>
			<line class="st0" x1="413" y1="146.3" x2="415.3" y2="146.3"/>
			<line class="st0" x1="370" y1="179.1" x2="372.3" y2="179.1"/>
			<line class="st0" x1="109.5" y1="344.2" x2="111.7" y2="344.2"/>
			<line class="st0" x1="78.2" y1="298.4" x2="80.4" y2="298.4"/>
			<line class="st0" x1="208.5" y1="153.7" x2="210.7" y2="153.7"/>
			<line class="st0" x1="200.4" y1="77.5" x2="202.7" y2="77.5"/>
			<line class="st0" x1="160.1" y1="79.5" x2="162.3" y2="79.5"/>
			<line class="st0" x1="533.5" y1="326.1" x2="535.8" y2="326.1"/>
			<line class="st0" x1="493.2" y1="328.2" x2="495.4" y2="328.2"/>
			<line class="st0" x1="162.3" y1="202.6" x2="158.8" y2="202.6"/>
			<g>
				<g>
					<line class="st0" x1="325.7" y1="247.7" x2="330.6" y2="247.7"/>
					<line class="st0" x1="445.4" y1="298.4" x2="450.4" y2="298.4"/>
					<line class="st0" x1="292.3" y1="242" x2="287" y2="242"/>
					<line class="st0" x1="113.1" y1="377.2" x2="107.8" y2="377.2"/>
					<line class="st0" x1="333.1" y1="225.8" x2="337.4" y2="225.8"/>
					<line class="st0" x1="469.1" y1="174.5" x2="473.3" y2="174.5"/>
					<line class="st0" x1="527.7" y1="396.2" x2="532" y2="396.2"/>
					<line class="st0" x1="351.2" y1="195.1" x2="353.5" y2="195.1"/>
					<line class="st0" x1="278.5" y1="213.6" x2="275" y2="213.6"/>
				</g>
				<g>
					<line class="st0" x1="173.4" y1="232.2" x2="178.4" y2="232.2"/>
					<line class="st0" x1="319" y1="115.2" x2="324" y2="115.2"/>
					<line class="st0" x1="216" y1="215.2" x2="210.7" y2="215.2"/>
					<line class="st0" x1="231.1" y1="261.5" x2="235.4" y2="261.5"/>
					<line class="st0" x1="437.4" y1="127.4" x2="441.7" y2="127.4"/>
					<line class="st0" x1="164.8" y1="139.9" x2="169.1" y2="139.9"/>
					<line class="st0" x1="235" y1="236.1" x2="237.3" y2="236.1"/>
					<line class="st0" x1="325.9" y1="121.3" x2="328.1" y2="121.3"/>
					<line class="st0" x1="499.5" y1="147.1" x2="504.5" y2="147.1"/>
					<line class="st4" x1="506.4" y1="153.2" x2="508.6" y2="153.2"/>
					<line class="st0" x1="395.8" y1="213.6" x2="398" y2="213.6"/>
					<line class="st0" x1="109.5" y1="396.2" x2="111.7" y2="396.2"/>
					<line class="st0" x1="90.4" y1="358" x2="92.6" y2="358"/>
					<line class="st0" x1="208.5" y1="205.7" x2="210.7" y2="205.7"/>
					<line class="st0" x1="200.4" y1="129.5" x2="202.7" y2="129.5"/>
					<line class="st0" x1="160.1" y1="131.5" x2="162.3" y2="131.5"/>
					<line class="st0" x1="533.5" y1="378.1" x2="535.8" y2="378.1"/>
					<line class="st0" x1="493.2" y1="380.2" x2="495.4" y2="380.2"/>
					<line class="st0" x1="162.3" y1="254.6" x2="158.8" y2="254.6"/>
				</g>
				<line class="st1" x1="225.4" y1="217.7" x2="219.8" y2="218.2"/>
			</g>
			<line class="st0" x1="100.1" y1="380.6" x2="96.6" y2="380.6"/>
		</g>
		<line class="st1" x1="225.4" y1="165.7" x2="219.8" y2="166.2"/>
	</g>
	<g>
		<g>
			<path class="st2" d="M104,360.3c0,0-6.3-45.9-3.2-49.1c3.2-3.2,10.9-1.4,10.9-7.3s-9.3-9.4-9.3-9.4l-0.7,2.1c0,0,7.3,2.9,7.3,7.3
				s-12.7,1.4-21.4,2.4c-3.6,0.4-9.6,2.8-9.6,12.1"/>
			<path class="st2" d="M87.7,327.4c0,0,6.1,2.2,12.7-1.3"/>
			<path class="st2" d="M89,360.3c0,0,0.1-30,5.7-30c5.7,0,5.9,30,5.9,30"/>
			<path class="st2" d="M80.4,318.1c0-6.6,3.3-10.6,7.1-8.3c1.9,1.2-1.5,50.4-1.5,50.4"/>
			<polyline class="st2" points="91.6,307.6 90.9,297.2 98.1,297.2 97.5,310.5 			"/>
			<polygon class="st2" points="90.8,320.3 90.8,327.3 94.7,327.3 94.3,320.2 			"/>
			<path class="st2" d="M78.1,318.5c0,9.3,15.7,7.5,15.7,7.5v-2.4c0,0-13.4,2.5-13.4-5.4"/>
		</g>
		<line class="st2" x1="85.3" y1="306.9" x2="86" y2="309.3"/>
		<line class="st2" x1="102.5" y1="306.9" x2="102.7" y2="310"/>
		<line class="st2" x1="87.4" y1="336.2" x2="90.8" y2="337.4"/>
		<line class="st2" x1="98.5" y1="336.8" x2="101.2" y2="336.2"/>
	</g>
	<g>
		<g>
			<path class="st2" d="M71.6,288.2c0,0,4.7-45.6,1.5-48.9c-2.4-2.4-2.4,7.5-2.4,25.4h-2.8c0,0-0.7-18.1,2.3-28.9
				c1-3.5,14.2-3.4,19.3-0.6c4.8,2.7,8.2,17.2,3,26.8l-2.3-0.4c0,0,4.6-8.1,1.5-17.7c-3.2-9.6-5.6-4.7-5.6-2.9
				c0,6.5,5.9,47.1,5.9,47.1"/>
			<path class="st3" d="M88.4,288.2c0,0,0.5-28.6-7.3-28.6s-6,28.6-6,28.6"/>
			<path class="st2" d="M76.9,234.6c-1.3,0.3-5.4,5.2,4.4,9.4c0,0,7.4-6.9,2.3-9.4"/>
			<polyline class="st2" points="77,236.4 76.9,225 83.6,225.1 83.6,236.4 			"/>
		</g>
		<polygon class="st2" points="76.9,234.6 80.6,238 79,239.5 75.3,236.4 		"/>
		<polygon class="st2" points="83.6,234.6 80.6,238 82.3,239.3 85.3,236.4 		"/>
		<polygon class="st2" points="79.6,239 80.6,238 81.7,238.9 81.1,239.9 82.1,243.2 81.3,244 80.2,243.5 80.3,240.1 		"/>
		<path class="st2" d="M74,257.5c0,0,4.5,2.1,13.7-0.5"/>
	</g>
	<g>
		<g>
			<polyline class="st2" points="518.4,194.4 518.4,185.6 523.7,185.6 525.4,193.2 			"/>
			<path class="st2" d="M512.5,234.5l2.3-40l-25.4-5.5l0.6-2.5c28.3,5.8,31.9,13.1,59-12l2.1,1.2l-21.9,17.9l5,40.1l-2.3,0.6
				c0,0-0.7-22.6-9.9-21.8c-9.1,0.8-7.3,21.6-7.3,21.6"/>
		</g>
		<g>
			<g>
				<g>
					<path class="st3" d="M551.8,375.3"/>
					<g>
						<path class="st2" d="M533.1,421.7c0,0,12.1-16.1,12.7-27.1s-1-13.7-1-13.7s-3.7,18.1-15.7,8.7l1.3-2.6c0,0,4.6,4.4,7.5,1.5
							c2.9-2.9,5.8-13.9,5.8-13.9l8-2.3c0,0,6.9,22.9,8.5,51.4"/>
						<path class="st2" d="M557.3,423.7c0,0-1.6-25.5-5-27.4c-4.9-2.8-4,12.4-16.2,27.4"/>
						<path class="st2" d="M551.8,375.3c12,9.4,1.1,18.8,1.1,18.8l1.7,1.7c13.3-13.5-2.8-23.5-2.8-23.5l-3.9,1.1"/>
						<polyline class="st2" points="549.3,374.9 542.3,363.8 538.4,367.4 543.8,377.2 						"/>
					</g>
					<polygon class="st2" points="528.3,383.5 527.3,386.7 533.2,390.1 534,386.5 					"/>
				</g>
				<g>
					<path class="st5" d="M552.9,376.2c0,0,10.3,7.3,1.9,15.9l-0.1,2C554.6,394.1,566,384.3,552.9,376.2z"/>
				</g>
			</g>
		</g>
	</g>
	<g>
		<g>
			<path class="st6" d="M487.6,153.1L508.7,9.9l25.6,142.2C523.4,151.1,500.9,155.5,487.6,153.1z"/>
			<g>
				<polyline class="st4" points="510.9,113.6 519.7,99.5 510.9,107.3 				"/>
				<polyline class="st4" points="509.8,57.5 505.8,51.8 509.8,61.3 				"/>
				<polyline class="st4" points="509.8,67.7 513.8,61.3 509.8,64.5 				"/>
				<polyline class="st4" points="509.8,77.7 504.6,70.6 509.8,82.3 				"/>
				<polyline class="st4" points="509.8,99.5 503.8,90.5 508.9,104.3 				"/>
				<polyline class="st4" points="508.7,140.4 497.4,133 507.8,145.6 				"/>
			</g>
			<g>
				<polyline class="st4" points="513.8,175.9 509.8,35.6 505.8,175.9 				"/>
				<line class="st3" x1="501.6" y1="175.9" x2="509.6" y2="175.9"/>
				<line class="st3" x1="517.9" y1="175.9" x2="525.9" y2="175.9"/>
				<g>
					<polyline class="st4" points="510.9,133 522,115.4 510.9,124.9 					"/>
					<polyline class="st4" points="509.8,120.2 500.9,110.7 508.9,124.9 					"/>
					<polyline class="st4" points="510.9,90.5 515.3,81.3 509.8,85.9 					"/>
				</g>
				<line class="st3" x1="500.9" y1="73.9" x2="495.8" y2="79.9"/>
				<line class="st3" x1="498.3" y1="88.8" x2="494.5" y2="94.8"/>
				<line class="st3" x1="497.4" y1="99.5" x2="494.5" y2="101.3"/>
				<line class="st3" x1="525.9" y1="111.7" x2="529.8" y2="115.4"/>
				<line class="st3" x1="525.9" y1="122.7" x2="531.8" y2="128"/>
				<line class="st3" x1="529.8" y1="135.4" x2="534.3" y2="137.1"/>
				<line class="st3" x1="512.6" y1="44.6" x2="516.5" y2="46.2"/>
				<line class="st3" x1="508.7" y1="23.1" x2="503" y2="29.6"/>
				<line class="st3" x1="510.9" y1="31.5" x2="514.5" y2="33.9"/>
				<line class="st3" x1="492.2" y1="151.2" x2="489.7" y2="155.4"/>
				<line class="st3" x1="498.3" y1="152" x2="499.2" y2="155"/>
				<line class="st3" x1="492.2" y1="131.9" x2="487.6" y2="135.4"/>
				<line class="st3" x1="518.3" y1="149.9" x2="522" y2="155"/>
				<line class="st3" x1="528.9" y1="149.9" x2="531" y2="154.1"/>
				<line class="st3" x1="503" y1="124" x2="500.9" y2="128"/>
				<line class="st3" x1="500.9" y1="124" x2="498.3" y2="125.3"/>
				<line class="st3" x1="499.6" y1="121.2" x2="494.5" y2="121.2"/>
				<line class="st3" x1="523.4" y1="135.4" x2="525.9" y2="138.2"/>
				<line class="st3" x1="522" y1="137.1" x2="522" y2="141.7"/>
				<line class="st3" x1="523.4" y1="131.9" x2="525.9" y2="131.9"/>
				<line class="st3" x1="515.3" y1="90.5" x2="518.3" y2="88.6"/>
				<line class="st3" x1="516.5" y1="93" x2="518.3" y2="92.5"/>
				<line class="st3" x1="515.3" y1="94.8" x2="518.3" y2="96.9"/>
				<line class="st3" x1="517.4" y1="69" x2="521" y2="67.7"/>
				<line class="st3" x1="518.3" y1="72.4" x2="521" y2="72.4"/>
				<line class="st3" x1="517.4" y1="75.5" x2="522" y2="79.9"/>
				<line class="st3" x1="499.2" y1="175.9" x2="489.7" y2="175.9"/>
			</g>
		</g>
		<g>
			<g>
				<path class="st0" d="M255.4,94.2c-2.1-12.7,17.3-13.8,17.3-0.6C272.6,101.2,257.1,104.6,255.4,94.2z"/>
				<path class="st7" d="M279.2,102.2c13-28.1-31.5-42.7-39.6-12.2C234.9,107.7,268.6,125.3,279.2,102.2z"/>
				<g>
					<line class="st0" x1="269.8" y1="87.9" x2="246.2" y2="87.4"/>
					<line class="st0" x1="272.6" y1="91.6" x2="249" y2="91.1"/>
					<line class="st0" x1="269.8" y1="84.4" x2="246.2" y2="83.9"/>
				</g>
				<path class="st7" d="M283.5,98.2c7.5-16.2-18.2-24.7-22.9-7.1C257.9,101.3,277.3,111.5,283.5,98.2z"/>
				<polyline class="st8" points="259.3,166.2 258.4,80.5 252.5,80.5 253.4,166.1 				"/>
				<g>
					<path class="st1" d="M258.9,131.3c0,11.4-5.6,13.6-5.6,34.8"/>
					<path class="st1" d="M258.9,115.9c0,11.4-5.6,13.6-5.6,34.8"/>
				</g>
				<path class="st7" d="M273.2,61.8c-6,12.9,14.5,19.7,18.2,5.6C293.7,59.2,278.1,51.1,273.2,61.8z"/>
				<line class="st0" x1="280.2" y1="71.5" x2="274.3" y2="71.4"/>
				<line class="st0" x1="275.8" y1="66" x2="269.8" y2="65.8"/>
				<path class="st7" d="M256.4,39.4c-6,12.9,14.5,19.7,18.2,5.6C276.8,36.9,261.3,28.8,256.4,39.4z"/>
				<path class="st7" d="M249.6,81.2c19.9,2.9,20.8-27.6,0.3-27C237.9,54.5,233.2,78.8,249.6,81.2z"/>
				<path class="st7" d="M258.2,116.2c15.5,12.8,32.1-12.7,14.3-22.9C262.1,87.5,245.5,105.7,258.2,116.2z"/>
				<path class="st7" d="M239.4,112.4c-11.7,8.1,2.4,24.3,12.8,14.2C258.2,120.6,249,105.8,239.4,112.4z"/>
				<line class="st0" x1="245.3" y1="126.3" x2="234.3" y2="126.1"/>
				<line class="st0" x1="245.5" y1="124" x2="239.5" y2="123.9"/>
				<line class="st0" x1="239.8" y1="121.3" x2="233.8" y2="121.2"/>
				<path class="st7" d="M261.9,124.2c-5.7,12.4,13.8,18.8,17.4,5.4C281.4,121.7,266.6,114,261.9,124.2z"/>
				<line class="st0" x1="281.9" y1="69.7" x2="269.5" y2="69.4"/>
			</g>
			<line class="st1" x1="263.9" y1="165.7" x2="231.8" y2="166.2"/>
		</g>
		<g>
			<path class="st9" d="M106.8,289.7c-12.1-50.5,30-72.2,8.3-126.6h3.2c21.7,54.3-15.4,74.9,0,126.6"/>
			<g>
				<path class="st6" d="M144.3,175.9c0-72-48.8-72-48.8,0H144.3z"/>
				<path class="st3" d="M126.7,144.6c5.7,8.4,7.4,14.7,7.4,31.3"/>
				<path class="st3" d="M110.4,140.2c1.9-7,4.9-13.4,9.5-18.4"/>
				<path class="st3" d="M107.1,175.9c0-5.6,0-12.3,0.6-19.3"/>
				<path class="st3" d="M104.7,159.9c0.5-5.4,1.3-11,2.7-16.3"/>
				<path class="st3" d="M111.3,128.6c2.4-2.9,5.2-5.2,8.5-6.8c-6.6,27.7,8,32.7,8,54"/>
				<path class="st3" d="M100.1,175.9c0-11.8,1.1-24.9,4.9-35.6"/>
				<path class="st3" d="M102.5,141.1c1.6-4.4,3.7-8.4,6.4-11.7"/>
				<path class="st3" d="M119.9,121.9c-1,23.6,21.3,32.7,21.3,54"/>
				<path class="st3" d="M95.5,175.9c0-11.8,5.6-17.8,6.7-24.9"/>
				<path class="st3" d="M119,143.6c2.9,15.7-9.1,13-3.5,32.3"/>
				<line class="st3" x1="112.7" y1="125.3" x2="108.1" y2="123.2"/>
				<path class="st3" d="M114,124.3c0,0-4.2-4.4-3.6-4"/>
				<line class="st3" x1="115.5" y1="123.2" x2="115.1" y2="118.1"/>
			</g>
			<path class="st9" d="M113.3,255.4c0-31.6-24.6-29.6-24.6-57.6h-1.7c0,28,21.3,26,21.3,57.6"/>
			<path class="st9" d="M114.2,255.4c9.5-3.4,20.8-12.8,20.8-29h-1.7c0,15.3-9.5,20.1-19.1,23.6"/>
			<path class="st3" d="M125.1,202.1c-0.2,6.7-8.2,31.1-10.9,37.9"/>
			<path class="st3" d="M113.3,259.9c-1,13.8,0.5,21.3,3,27.8"/>
			<path class="st6" d="M147.4,231.9c0-38.4-24.6-38.4-24.6,0H147.4z"/>
			<path class="st6" d="M110.4,208c0-65-42.2-65-42.2,0H110.4z"/>
			<path class="st3" d="M89.3,159.3c-13.7,14.7-14,29.7-14,48.8"/>
			<path class="st3" d="M89.3,159.3C75.6,174,83.6,189,83.6,208"/>
			<path class="st3" d="M89.3,159.3c12.3,11.4,15.4,29.7,15.4,48.8"/>
			<path class="st3" d="M89.3,159.3c0,28.2,10.8,21.1,10.8,48.8"/>
			<path class="st3" d="M127.8,231.9c0-12.1,1.4-21,7.3-28.8"/>
			<path class="st3" d="M141.2,231.9c0-12.1-11.9-21-6.1-28.8"/>
			<path class="st3" d="M144.3,231.9c3.9-8.4-10.2-14.4-1.7-24.9"/>
			<path class="st3" d="M130.4,212c-3.6,5.6-7.6,12.3-7.6,19.9"/>
			<path class="st3" d="M91.5,176.7c3,6.8-9.5,14.2-8.1,27.4"/>
			<path class="st3" d="M79,175.9c-2.4,9.1-10.7,16.4-10.7,24.2"/>
			<path class="st3" d="M118.4,214.6c-1.9,6.7-0.5,15.1-2.4,20.7"/>
			<path class="st3" d="M107.1,244c-3-15.2-10.8-20.8-14.8-30.3"/>
			<path class="st3" d="M106.8,289.7c-3.4-14.1,10-29.8,0-57.2"/>
			<line class="st3" x1="147.4" y1="289.7" x2="129.3" y2="289.7"/>
			<line class="st3" x1="115.1" y1="289.7" x2="97.1" y2="289.7"/>
			<path class="st3" d="M114.9,255.1c7.6-3,16.7-14.3,17.5-21.5"/>
			<line class="st3" x1="138.5" y1="204.8" x2="140.4" y2="201.7"/>
			<line class="st3" x1="137.3" y1="204.8" x2="136.3" y2="199.5"/>
			<line class="st3" x1="132.5" y1="203.8" x2="130.4" y2="201.7"/>
			<line class="st3" x1="85.8" y1="161.5" x2="81.3" y2="157.1"/>
			<line class="st3" x1="87.7" y1="160.2" x2="89.3" y2="152.6"/>
			<line class="st3" x1="91" y1="161" x2="94.7" y2="155.3"/>
		</g>
		<g>
			<g>
				<path class="st7" d="M508.9,260c8.4-18.3-20.5-27.8-25.8-8C480.1,263.6,502,275,508.9,260z"/>
				<path class="st7" d="M531.2,277.3c13-28.1-31.5-42.7-39.6-12.2C486.9,282.8,520.5,300.4,531.2,277.3z"/>
				<g>
					<line class="st0" x1="527.7" y1="264.2" x2="504" y2="263.7"/>
					<line class="st0" x1="524.8" y1="267.9" x2="501.2" y2="267.4"/>
					<line class="st0" x1="524.8" y1="260.7" x2="501.2" y2="260.2"/>
				</g>
				<path class="st7" d="M535.5,302.7c7.5-16.2-18.2-24.7-22.9-7.1C509.9,305.9,529.3,316.1,535.5,302.7z"/>
				<path class="st7" d="M507.3,279.1c-2.1-12.7,17.3-13.8,17.3-0.6C524.6,286.1,509.1,289.5,507.3,279.1z"/>
				<polyline class="st8" points="511.3,351.1 510.4,265.4 504.5,265.4 505.3,351.1 				"/>
				<path class="st1" d="M511.3,343.1c0-20.4-6.8-42.4-6.8-77.8"/>
				<path class="st7" d="M516.7,244c-6,12.9,14.5,19.7,18.2,5.6C537.2,241.5,521.7,233.4,516.7,244z"/>
				<path class="st7" d="M493.5,283.5c18.3,8.4,27.8-20.5,8-25.8C489.9,254.6,478.5,276.5,493.5,283.5z"/>
				<path class="st7" d="M479.2,285.7c-6,12.9,14.5,19.7,18.2,5.6C499.7,283.2,484.1,275.1,479.2,285.7z"/>
				<path class="st7" d="M489.1,306c-6,12.9,14.5,19.7,18.2,5.6C509.5,303.4,494,295.3,489.1,306z"/>
				<path class="st7" d="M513.9,309.1c-5.7,12.4,13.8,18.8,17.4,5.4C533.4,306.7,518.6,299,513.9,309.1z"/>
				<path class="st7" d="M525.8,351.1c0-7.8-17.4-10.1-17.4,0"/>
				<line class="st0" x1="515.7" y1="350.8" x2="538.3" y2="351.2"/>
			</g>
		</g>
	</g>
	<path class="st2" d="M514.1,207c0,0,7.1-2.1,16.9-0.2l0.3,2.2c-5.8-1.3-11.4-1.1-17.3,0.2L514.1,207z"/>
	<path class="st2" d="M545.9,393.2c0,0,3.6,1.7,9.6-2.3"/>
	<path class="st3" d="M547.1,396.5c0,0,4.8-2.7,7.9,1.6"/>
</g>
<g id="_x33_andar">
	<g>
		<g>
			<g>
				<rect x="121.5" y="346.8" class="st10" width="365.5" height="82"/>
				<rect x="141.5" y="364.4" class="st0" width="135.2" height="53.9"/>
				<rect x="331.8" y="364.4" class="st0" width="135.2" height="53.9"/>
				<g>
					<rect x="331.8" y="418.3" class="st8" width="135.2" height="2.5"/>
					<rect x="331.8" y="415.8" class="st11" width="135.2" height="2.5"/>
				</g>
				<g>
					<rect x="141.5" y="418.3" class="st8" width="135.2" height="2.5"/>
					<rect x="141.5" y="415.8" class="st11" width="135.2" height="2.5"/>
				</g>
				<rect x="121.5" y="338.3" class="st12" width="365.5" height="8.5"/>
				<rect x="121.5" y="334.1" class="st8" width="365.5" height="4.2"/>
				<rect x="121.5" y="326.1" class="st8" width="365.5" height="8"/>
				<rect x="276.7" y="364.4" class="st0" width="55.1" height="64.4"/>
				<rect x="276.7" y="426.3" class="st11" width="55.1" height="2.5"/>
				<rect x="276.7" y="353.5" class="st0" width="55.1" height="10.9"/>
				<g>
					<path class="st13" d="M276.7,362.6c0,4-5.3,7.3-11.8,7.3c-6.5,0-11.8-3.3-11.8-7.3c0,4-5.3,7.3-11.8,7.3
						c-6.5,0-11.8-3.3-11.8-7.3c0,4-5.3,7.3-11.8,7.3c-6.5,0-11.8-3.3-11.8-7.3c0,4-5.3,7.3-11.8,7.3c-6.5,0-11.8-3.3-11.8-7.3
						c0,4-5.3,7.3-11.8,7.3s-11.8-3.3-11.8-7.3c0,4-5.3,7.3-11.8,7.3s-11.8-3.3-11.8-7.3v-1.4h142.2V362.6z"/>
					<rect x="134.5" y="346.6" class="st14" width="142.2" height="14.6"/>
					<path class="st15" d="M158.2,362.6c0,4,5.3,7.3,11.8,7.3s11.8-3.3,11.8-7.3v-1.4h-23.7V362.6z"/>
					<rect x="158.2" y="346.6" class="st16" width="23.7" height="14.6"/>
					<path class="st15" d="M205.6,362.6c0,4,5.3,7.3,11.8,7.3c6.5,0,11.8-3.3,11.8-7.3v-1.4h-23.7V362.6z"/>
					<rect x="205.6" y="346.6" class="st16" width="23.7" height="14.6"/>
					<path class="st15" d="M253,362.6c0,4,5.3,7.3,11.8,7.3c6.5,0,11.8-3.3,11.8-7.3v-1.4H253V362.6z"/>
					<rect x="253" y="346.6" class="st16" width="23.7" height="14.6"/>
				</g>
			</g>
			<rect x="121.5" y="244.1" class="st10" width="365.5" height="82"/>
			<g>
				<rect x="148.4" y="265.2" class="st0" width="142.2" height="33.2"/>
				<rect x="317.8" y="265.2" class="st0" width="142.2" height="33.2"/>
				<g>
					<g>
						<rect x="317.8" y="298.4" class="st8" width="142.2" height="2.5"/>
						<rect x="317.8" y="295.9" class="st11" width="142.2" height="2.5"/>
					</g>
					<g>
						<rect x="148.4" y="298.4" class="st8" width="142.2" height="2.5"/>
						<rect x="148.4" y="295.9" class="st11" width="142.2" height="2.5"/>
						<line class="st17" x1="318.1" y1="303.4" x2="460.2" y2="303.4"/>
						<line class="st17" x1="144.4" y1="303.4" x2="286.5" y2="303.4"/>
					</g>
				</g>
			</g>
			<rect x="121.5" y="235.7" class="st12" width="365.5" height="8.5"/>
			<g>
				<path class="st13" d="M473.9,362.6c0,4-5.3,7.3-11.8,7.3c-6.5,0-11.8-3.3-11.8-7.3c0,4-5.3,7.3-11.8,7.3s-11.8-3.3-11.8-7.3
					c0,4-5.3,7.3-11.8,7.3c-6.5,0-11.8-3.3-11.8-7.3c0,4-5.3,7.3-11.8,7.3s-11.8-3.3-11.8-7.3c0,4-5.3,7.3-11.8,7.3
					c-6.5,0-11.8-3.3-11.8-7.3c0,4-5.3,7.3-11.8,7.3c-6.5,0-11.8-3.3-11.8-7.3v-1.4h142.2V362.6z"/>
				<rect x="331.8" y="346.6" class="st14" width="142.2" height="14.6"/>
				<path class="st15" d="M355.5,362.6c0,4,5.3,7.3,11.8,7.3c6.5,0,11.8-3.3,11.8-7.3v-1.4h-23.7V362.6z"/>
				<rect x="355.5" y="346.6" class="st16" width="23.7" height="14.6"/>
				<path class="st15" d="M402.8,362.6c0,4,5.3,7.3,11.8,7.3c6.5,0,11.8-3.3,11.8-7.3v-1.4h-23.7V362.6z"/>
				<rect x="402.8" y="346.6" class="st16" width="23.7" height="14.6"/>
				<path class="st15" d="M450.2,362.6c0,4,5.3,7.3,11.8,7.3c6.5,0,11.8-3.3,11.8-7.3v-1.4h-23.7V362.6z"/>
				<rect x="450.2" y="346.6" class="st16" width="23.7" height="14.6"/>
			</g>
			<rect x="121.5" y="231.4" class="st8" width="365.5" height="4.2"/>
		</g>
		<rect x="121.5" y="223.4" class="st8" width="365.5" height="8"/>
		<g>
			<g>
				<rect x="121.5" y="141.4" class="st10" width="365.5" height="82"/>
				<g>
					<g>
						<g>
							<rect x="121.5" y="421.9" class="st8" width="11.1" height="6.9"/>
							<rect x="121.5" y="414.9" class="st8" width="5.5" height="6.9"/>
						</g>
						<g>
							<rect x="121.5" y="408" class="st8" width="11.1" height="6.9"/>
							<rect x="121.5" y="401" class="st8" width="5.5" height="6.9"/>
						</g>
						<g>
							<rect x="121.5" y="394.4" class="st8" width="11.1" height="6.9"/>
							<rect x="121.5" y="387.5" class="st8" width="5.5" height="6.9"/>
						</g>
						<g>
							<rect x="121.5" y="380.9" class="st8" width="11.1" height="6.9"/>
							<rect x="121.5" y="373.9" class="st8" width="5.5" height="6.9"/>
						</g>
						<g>
							<rect x="121.5" y="367.3" class="st8" width="11.1" height="6.9"/>
							<rect x="121.5" y="360.4" class="st8" width="5.5" height="6.9"/>
						</g>
						<g>
							<rect x="121.5" y="353.8" class="st8" width="11.1" height="6.9"/>
							<rect x="121.5" y="346.8" class="st8" width="5.5" height="6.9"/>
						</g>
					</g>
					<g>
						<g>
							
								<rect x="475.9" y="421.9" transform="matrix(-1 -2.774548e-11 2.774548e-11 -1 962.8243 850.7003)" class="st8" width="11.1" height="6.9"/>
							
								<rect x="481.4" y="414.9" transform="matrix(-1 -2.774548e-11 2.774548e-11 -1 968.3641 836.8019)" class="st8" width="5.5" height="6.9"/>
						</g>
						<g>
							
								<rect x="475.9" y="408" transform="matrix(-1 -2.774548e-11 2.774548e-11 -1 962.8243 822.9036)" class="st8" width="11.1" height="6.9"/>
							
								<rect x="481.4" y="401" transform="matrix(-1 -2.774548e-11 2.774548e-11 -1 968.3641 809.0052)" class="st8" width="5.5" height="6.9"/>
						</g>
						<g>
							
								<rect x="475.9" y="394.4" transform="matrix(-1 -2.774548e-11 2.774548e-11 -1 962.8243 795.7921)" class="st8" width="11.1" height="6.9"/>
							
								<rect x="481.4" y="387.5" transform="matrix(-1 -2.774548e-11 2.774548e-11 -1 968.3641 781.8937)" class="st8" width="5.5" height="6.9"/>
						</g>
						<g>
							
								<rect x="475.9" y="380.9" transform="matrix(-1 -2.774548e-11 2.774548e-11 -1 962.8243 768.6805)" class="st8" width="11.1" height="6.9"/>
							
								<rect x="481.4" y="373.9" transform="matrix(-1 -2.774548e-11 2.774548e-11 -1 968.3641 754.7822)" class="st8" width="5.5" height="6.9"/>
						</g>
						<g>
							
								<rect x="475.9" y="367.3" transform="matrix(-1 -2.774548e-11 2.774548e-11 -1 962.8243 741.569)" class="st8" width="11.1" height="6.9"/>
							
								<rect x="481.4" y="360.4" transform="matrix(-1 -2.774548e-11 2.774548e-11 -1 968.3641 727.6707)" class="st8" width="5.5" height="6.9"/>
						</g>
						<g>
							
								<rect x="475.9" y="353.8" transform="matrix(-1 -2.774548e-11 2.774548e-11 -1 962.8243 714.4575)" class="st8" width="11.1" height="6.9"/>
							
								<rect x="481.4" y="346.8" transform="matrix(-1 -2.774548e-11 2.774548e-11 -1 968.3641 700.5591)" class="st8" width="5.5" height="6.9"/>
						</g>
					</g>
					<g>
						<g>
							<rect x="121.5" y="244.1" class="st15" width="11.1" height="6.9"/>
							<rect x="121.5" y="251.1" class="st15" width="5.5" height="6.9"/>
						</g>
						<g>
							<rect x="121.5" y="258" class="st15" width="11.1" height="6.9"/>
							<rect x="121.5" y="265" class="st15" width="5.5" height="6.9"/>
						</g>
						<g>
							<rect x="121.5" y="271.6" class="st15" width="11.1" height="6.9"/>
							<rect x="121.5" y="278.5" class="st15" width="5.5" height="6.9"/>
						</g>
						<g>
							<rect x="121.5" y="285.1" class="st15" width="11.1" height="6.9"/>
							<rect x="121.5" y="292.1" class="st15" width="5.5" height="6.9"/>
						</g>
						<g>
							<rect x="121.5" y="298.7" class="st15" width="11.1" height="6.9"/>
							<rect x="121.5" y="305.6" class="st15" width="5.5" height="6.9"/>
						</g>
						<g>
							<rect x="121.5" y="312.2" class="st15" width="11.1" height="6.9"/>
							<rect x="121.5" y="319.2" class="st15" width="5.5" height="6.9"/>
						</g>
					</g>
					<g>
						<g>
							
								<rect x="475.9" y="244.1" transform="matrix(-1 2.774524e-11 -2.774524e-11 -1 962.8243 495.172)" class="st15" width="11.1" height="6.9"/>
							
								<rect x="481.4" y="251.1" transform="matrix(-1 2.774524e-11 -2.774524e-11 -1 968.3641 509.0703)" class="st15" width="5.5" height="6.9"/>
						</g>
						<g>
							
								<rect x="475.9" y="258" transform="matrix(-1 2.774524e-11 -2.774524e-11 -1 962.8243 522.9686)" class="st15" width="11.1" height="6.9"/>
							
								<rect x="481.4" y="265" transform="matrix(-1 2.774524e-11 -2.774524e-11 -1 968.3641 536.8669)" class="st15" width="5.5" height="6.9"/>
						</g>
						<g>
							
								<rect x="475.9" y="271.6" transform="matrix(-1 2.774524e-11 -2.774524e-11 -1 962.8243 550.0802)" class="st15" width="11.1" height="6.9"/>
							
								<rect x="481.4" y="278.5" transform="matrix(-1 2.774524e-11 -2.774524e-11 -1 968.3641 563.9785)" class="st15" width="5.5" height="6.9"/>
						</g>
						<g>
							
								<rect x="475.9" y="285.1" transform="matrix(-1 2.774524e-11 -2.774524e-11 -1 962.8243 577.1917)" class="st15" width="11.1" height="6.9"/>
							
								<rect x="481.4" y="292.1" transform="matrix(-1 2.774524e-11 -2.774524e-11 -1 968.3641 591.09)" class="st15" width="5.5" height="6.9"/>
						</g>
						<g>
							
								<rect x="475.9" y="298.7" transform="matrix(-1 2.774524e-11 -2.774524e-11 -1 962.8243 604.3032)" class="st15" width="11.1" height="6.9"/>
							
								<rect x="481.4" y="305.6" transform="matrix(-1 2.774524e-11 -2.774524e-11 -1 968.3641 618.2015)" class="st15" width="5.5" height="6.9"/>
						</g>
						<g>
							
								<rect x="475.9" y="312.2" transform="matrix(-1 2.774524e-11 -2.774524e-11 -1 962.8243 631.4148)" class="st15" width="11.1" height="6.9"/>
							
								<rect x="481.4" y="319.2" transform="matrix(-1 2.774524e-11 -2.774524e-11 -1 968.3641 645.3131)" class="st15" width="5.5" height="6.9"/>
						</g>
					</g>
				</g>
				<g>
					<rect x="134.5" y="162.5" class="st0" width="58.5" height="33.2"/>
					<g>
						<g>
							<rect x="134.5" y="195.7" class="st8" width="58.5" height="2.5"/>
							<rect x="134.5" y="193.2" class="st11" width="58.5" height="2.5"/>
						</g>
						<rect x="218.2" y="162.5" class="st0" width="58.5" height="33.2"/>
						<g>
							<rect x="218.2" y="195.7" class="st8" width="58.5" height="2.5"/>
							<rect x="218.2" y="193.2" class="st11" width="58.5" height="2.5"/>
						</g>
						<rect x="331.8" y="162.5" class="st0" width="58.5" height="33.2"/>
						<g>
							<rect x="331.8" y="195.7" class="st8" width="58.5" height="2.5"/>
							<rect x="331.8" y="193.2" class="st11" width="58.5" height="2.5"/>
						</g>
						<rect x="415.5" y="162.5" class="st0" width="58.5" height="33.2"/>
						<g>
							<rect x="415.5" y="195.7" class="st8" width="58.5" height="2.5"/>
							<rect x="415.5" y="193.2" class="st11" width="58.5" height="2.5"/>
						</g>
					</g>
					<line class="st17" x1="122.3" y1="215.9" x2="131.3" y2="215.9"/>
					<line class="st17" x1="122.3" y1="214.1" x2="126.9" y2="214.1"/>
					<line class="st17" x1="122.3" y1="218.5" x2="134.4" y2="218.5"/>
					<line class="st17" x1="134.5" y1="247.3" x2="475" y2="247.3"/>
					<line class="st17" x1="283.1" y1="349.1" x2="326.4" y2="349.1"/>
					<g>
						<line class="st17" x1="130.5" y1="201.3" x2="188.9" y2="201.3"/>
						<line class="st17" x1="216.1" y1="201.3" x2="274.6" y2="201.3"/>
						<line class="st17" x1="329.6" y1="201.3" x2="388.1" y2="201.3"/>
						<line class="st17" x1="412.4" y1="201.3" x2="470.9" y2="201.3"/>
					</g>
				</g>
				<rect x="121.5" y="133" class="st12" width="365.5" height="8.5"/>
				<g>
					<polygon class="st18" points="121.5,128.7 304.2,79.3 304.2,128.7 					"/>
					<g>
						<polygon class="st11" points="121.5,128.7 304.2,79.3 304.2,70.2 121.5,119.6 						"/>
						<polygon class="st11" points="121.5,68.5 304.2,19 304.2,9.9 121.5,59.4 						"/>
					</g>
					<g>
						<polygon class="st15" points="121.5,68.5 304.2,19 304.2,70.2 121.5,119.6 						"/>
						<g>
							<line class="st11" x1="304.2" y1="62.9" x2="121.5" y2="112.3"/>
							<line class="st11" x1="304.2" y1="55.6" x2="121.5" y2="105"/>
							<line class="st11" x1="304.2" y1="48.3" x2="121.5" y2="97.7"/>
							<line class="st11" x1="304.2" y1="41" x2="121.5" y2="90.4"/>
							<line class="st11" x1="304.2" y1="33.7" x2="121.5" y2="83.1"/>
							<line class="st11" x1="304.2" y1="26.3" x2="121.5" y2="75.8"/>
						</g>
						<g>
							<line class="st19" x1="305.1" y1="63.8" x2="122.4" y2="113.2"/>
							<line class="st19" x1="305.1" y1="56.5" x2="122.4" y2="105.9"/>
							<line class="st19" x1="305.1" y1="49.2" x2="122.4" y2="98.6"/>
							<line class="st19" x1="305.1" y1="41.9" x2="122.4" y2="91.3"/>
							<line class="st19" x1="305.1" y1="34.6" x2="122.4" y2="84"/>
							<line class="st19" x1="305.1" y1="27.2" x2="122.4" y2="76.7"/>
							<line class="st19" x1="305.1" y1="19.9" x2="122.4" y2="69.4"/>
						</g>
						<g>
							<g>
								<line class="st11" x1="132.1" y1="109.4" x2="132.1" y2="116.8"/>
							</g>
							<g>
								<line class="st11" x1="154.4" y1="103.4" x2="154.4" y2="110.7"/>
							</g>
							<g>
								<line class="st11" x1="176.7" y1="97.4" x2="176.7" y2="104.7"/>
							</g>
							<g>
								<line class="st11" x1="199" y1="91.4" x2="199" y2="98.7"/>
							</g>
							<g>
								<line class="st11" x1="221.3" y1="85.3" x2="221.3" y2="92.6"/>
							</g>
							<g>
								<line class="st11" x1="243.5" y1="79.3" x2="243.5" y2="86.6"/>
							</g>
							<g>
								<line class="st11" x1="265.8" y1="73.3" x2="265.8" y2="80.6"/>
							</g>
							<g>
								<line class="st11" x1="288.1" y1="67.2" x2="288.1" y2="74.5"/>
							</g>
						</g>
						<g>
							<g>
								<line class="st11" x1="132.1" y1="94.8" x2="132.1" y2="102.1"/>
							</g>
							<g>
								<line class="st11" x1="154.4" y1="88.8" x2="154.4" y2="96.1"/>
							</g>
							<g>
								<line class="st11" x1="176.7" y1="82.8" x2="176.7" y2="90.1"/>
							</g>
							<g>
								<line class="st11" x1="199" y1="76.7" x2="199" y2="84"/>
							</g>
							<g>
								<line class="st11" x1="221.3" y1="70.7" x2="221.3" y2="78"/>
							</g>
							<g>
								<line class="st11" x1="243.5" y1="64.7" x2="243.5" y2="72"/>
							</g>
							<g>
								<line class="st11" x1="265.8" y1="58.6" x2="265.8" y2="66"/>
							</g>
							<g>
								<line class="st11" x1="288.1" y1="52.6" x2="288.1" y2="59.9"/>
							</g>
						</g>
						<g>
							<g>
								<line class="st11" x1="142.5" y1="99.3" x2="142.5" y2="106.6"/>
							</g>
							<g>
								<line class="st11" x1="164.8" y1="93.3" x2="164.8" y2="100.6"/>
							</g>
							<g>
								<line class="st11" x1="187.1" y1="87.2" x2="187.1" y2="94.6"/>
							</g>
							<g>
								<line class="st11" x1="209.4" y1="81.2" x2="209.4" y2="88.5"/>
							</g>
							<g>
								<line class="st11" x1="231.7" y1="75.2" x2="231.7" y2="82.5"/>
							</g>
							<g>
								<line class="st11" x1="254" y1="69.2" x2="254" y2="76.5"/>
							</g>
							<g>
								<line class="st11" x1="276.3" y1="63.1" x2="276.3" y2="70.4"/>
							</g>
							<g>
								<line class="st11" x1="298.6" y1="57.1" x2="298.6" y2="64.4"/>
							</g>
						</g>
						<g>
							<g>
								<line class="st11" x1="142.5" y1="84.7" x2="142.5" y2="92"/>
							</g>
							<g>
								<line class="st11" x1="164.8" y1="78.7" x2="164.8" y2="86"/>
							</g>
							<g>
								<line class="st11" x1="187.1" y1="72.6" x2="187.1" y2="79.9"/>
							</g>
							<g>
								<line class="st11" x1="209.4" y1="66.6" x2="209.4" y2="73.9"/>
							</g>
							<g>
								<line class="st11" x1="231.7" y1="60.6" x2="231.7" y2="67.9"/>
							</g>
							<g>
								<line class="st11" x1="254" y1="54.5" x2="254" y2="61.9"/>
							</g>
							<g>
								<line class="st11" x1="276.3" y1="48.5" x2="276.3" y2="55.8"/>
							</g>
							<g>
								<line class="st11" x1="298.6" y1="42.5" x2="298.6" y2="49.8"/>
							</g>
						</g>
						<g>
							<g>
								<line class="st11" x1="132.1" y1="80.2" x2="132.1" y2="87.5"/>
							</g>
							<g>
								<line class="st11" x1="154.4" y1="74.2" x2="154.4" y2="81.5"/>
							</g>
							<g>
								<line class="st11" x1="176.7" y1="68.2" x2="176.7" y2="75.5"/>
							</g>
							<g>
								<line class="st11" x1="199" y1="62.1" x2="199" y2="69.4"/>
							</g>
							<g>
								<line class="st11" x1="221.3" y1="56.1" x2="221.3" y2="63.4"/>
							</g>
							<g>
								<line class="st11" x1="243.5" y1="50.1" x2="243.5" y2="57.4"/>
							</g>
							<g>
								<line class="st11" x1="265.8" y1="44" x2="265.8" y2="51.3"/>
							</g>
							<g>
								<line class="st11" x1="288.1" y1="38" x2="288.1" y2="45.3"/>
							</g>
						</g>
						<g>
							<g>
								<line class="st11" x1="132.1" y1="65.6" x2="132.1" y2="72.9"/>
							</g>
							<g>
								<line class="st11" x1="154.4" y1="59.6" x2="154.4" y2="66.9"/>
							</g>
							<g>
								<line class="st11" x1="176.7" y1="53.5" x2="176.7" y2="60.8"/>
							</g>
							<g>
								<line class="st11" x1="199" y1="47.5" x2="199" y2="54.8"/>
							</g>
							<g>
								<line class="st11" x1="221.3" y1="41.5" x2="221.3" y2="48.8"/>
							</g>
							<g>
								<line class="st11" x1="243.5" y1="35.4" x2="243.5" y2="42.8"/>
							</g>
							<g>
								<line class="st11" x1="265.8" y1="29.4" x2="265.8" y2="36.7"/>
							</g>
							<g>
								<line class="st11" x1="288.1" y1="23.4" x2="288.1" y2="30.7"/>
							</g>
						</g>
						<g>
							<g>
								<line class="st11" x1="142.5" y1="70.1" x2="142.5" y2="77.4"/>
							</g>
							<g>
								<line class="st11" x1="164.8" y1="64" x2="164.8" y2="71.4"/>
							</g>
							<g>
								<line class="st11" x1="187.1" y1="58" x2="187.1" y2="65.3"/>
							</g>
							<g>
								<line class="st11" x1="209.4" y1="52" x2="209.4" y2="59.3"/>
							</g>
							<g>
								<line class="st11" x1="231.7" y1="46" x2="231.7" y2="53.3"/>
							</g>
							<g>
								<line class="st11" x1="254" y1="39.9" x2="254" y2="47.2"/>
							</g>
							<g>
								<line class="st11" x1="276.3" y1="33.9" x2="276.3" y2="41.2"/>
							</g>
							<g>
								<line class="st11" x1="298.6" y1="27.9" x2="298.6" y2="35.2"/>
							</g>
						</g>
					</g>
					<polygon class="st18" points="487,128.7 304.2,79.3 304.2,128.7 					"/>
					<g>
						<g>
							<line class="st20" x1="356.2" y1="111.8" x2="368.3" y2="111.8"/>
							<line class="st20" x1="434.7" y1="121.1" x2="446.8" y2="121.1"/>
							<line class="st20" x1="266.5" y1="118.7" x2="278.6" y2="118.7"/>
							<line class="st20" x1="243.5" y1="110.7" x2="255.6" y2="110.7"/>
							<line class="st20" x1="152.8" y1="125" x2="164.8" y2="125"/>
						</g>
					</g>
					<g>
						<polygon class="st11" points="487,128.7 304.2,79.3 304.2,70.2 487,119.6 						"/>
						<polygon class="st11" points="487,68.5 304.2,19 304.2,9.9 487,59.4 						"/>
					</g>
					<g>
						<polygon class="st15" points="487,68.5 304.2,19 304.2,70.2 487,119.6 						"/>
						<g>
							<line class="st11" x1="304.2" y1="62.9" x2="487" y2="112.3"/>
							<line class="st11" x1="304.2" y1="55.6" x2="487" y2="105"/>
							<line class="st11" x1="304.2" y1="48.3" x2="487" y2="97.7"/>
							<line class="st11" x1="304.2" y1="41" x2="487" y2="90.4"/>
							<line class="st11" x1="304.2" y1="33.7" x2="487" y2="83.1"/>
							<line class="st11" x1="304.2" y1="26.3" x2="487" y2="75.8"/>
						</g>
						<g>
							<line class="st19" x1="303.3" y1="63.8" x2="486" y2="113.2"/>
							<line class="st19" x1="303.3" y1="56.5" x2="486" y2="105.9"/>
							<line class="st19" x1="303.3" y1="49.2" x2="486" y2="98.6"/>
							<line class="st19" x1="303.3" y1="41.9" x2="486" y2="91.3"/>
							<line class="st19" x1="303.3" y1="34.6" x2="486" y2="84"/>
							<line class="st19" x1="303.3" y1="27.2" x2="486" y2="76.7"/>
							<line class="st19" x1="303.3" y1="19.9" x2="486" y2="69.4"/>
						</g>
						<g>
							<g>
								<line class="st11" x1="476.3" y1="109.4" x2="476.3" y2="116.8"/>
							</g>
							<g>
								<line class="st11" x1="454" y1="103.4" x2="454" y2="110.7"/>
							</g>
							<g>
								<line class="st11" x1="431.7" y1="97.4" x2="431.7" y2="104.7"/>
							</g>
							<g>
								<line class="st11" x1="409.4" y1="91.4" x2="409.4" y2="98.7"/>
							</g>
							<g>
								<line class="st11" x1="387.2" y1="85.3" x2="387.2" y2="92.6"/>
							</g>
							<g>
								<line class="st11" x1="364.9" y1="79.3" x2="364.9" y2="86.6"/>
							</g>
							<g>
								<line class="st11" x1="342.6" y1="73.3" x2="342.6" y2="80.6"/>
							</g>
							<g>
								<line class="st11" x1="320.3" y1="67.2" x2="320.3" y2="74.5"/>
							</g>
						</g>
						<g>
							<g>
								<line class="st11" x1="476.3" y1="94.8" x2="476.3" y2="102.1"/>
							</g>
							<g>
								<line class="st11" x1="454" y1="88.8" x2="454" y2="96.1"/>
							</g>
							<g>
								<line class="st11" x1="431.7" y1="82.8" x2="431.7" y2="90.1"/>
							</g>
							<g>
								<line class="st11" x1="409.4" y1="76.7" x2="409.4" y2="84"/>
							</g>
							<g>
								<line class="st11" x1="387.2" y1="70.7" x2="387.2" y2="78"/>
							</g>
							<g>
								<line class="st11" x1="364.9" y1="64.7" x2="364.9" y2="72"/>
							</g>
							<g>
								<line class="st11" x1="342.6" y1="58.6" x2="342.6" y2="66"/>
							</g>
							<g>
								<line class="st11" x1="320.3" y1="52.6" x2="320.3" y2="59.9"/>
							</g>
						</g>
						<g>
							<g>
								<line class="st11" x1="465.9" y1="99.3" x2="465.9" y2="106.6"/>
							</g>
							<g>
								<line class="st11" x1="443.6" y1="93.3" x2="443.6" y2="100.6"/>
							</g>
							<g>
								<line class="st11" x1="421.3" y1="87.2" x2="421.3" y2="94.6"/>
							</g>
							<g>
								<line class="st11" x1="399" y1="81.2" x2="399" y2="88.5"/>
							</g>
							<g>
								<line class="st11" x1="376.7" y1="75.2" x2="376.7" y2="82.5"/>
							</g>
							<g>
								<line class="st11" x1="354.4" y1="69.2" x2="354.4" y2="76.5"/>
							</g>
							<g>
								<line class="st11" x1="332.1" y1="63.1" x2="332.1" y2="70.4"/>
							</g>
							<g>
								<line class="st11" x1="309.8" y1="57.1" x2="309.8" y2="64.4"/>
							</g>
						</g>
						<g>
							<g>
								<line class="st11" x1="465.9" y1="84.7" x2="465.9" y2="92"/>
							</g>
							<g>
								<line class="st11" x1="443.6" y1="78.7" x2="443.6" y2="86"/>
							</g>
							<g>
								<line class="st11" x1="421.3" y1="72.6" x2="421.3" y2="79.9"/>
							</g>
							<g>
								<line class="st11" x1="399" y1="66.6" x2="399" y2="73.9"/>
							</g>
							<g>
								<line class="st11" x1="376.7" y1="60.6" x2="376.7" y2="67.9"/>
							</g>
							<g>
								<line class="st11" x1="354.4" y1="54.5" x2="354.4" y2="61.9"/>
							</g>
							<g>
								<line class="st11" x1="332.1" y1="48.5" x2="332.1" y2="55.8"/>
							</g>
							<g>
								<line class="st11" x1="309.8" y1="42.5" x2="309.8" y2="49.8"/>
							</g>
						</g>
						<g>
							<g>
								<line class="st11" x1="476.3" y1="80.2" x2="476.3" y2="87.5"/>
							</g>
							<g>
								<line class="st11" x1="454" y1="74.2" x2="454" y2="81.5"/>
							</g>
							<g>
								<line class="st11" x1="431.7" y1="68.2" x2="431.7" y2="75.5"/>
							</g>
							<g>
								<line class="st11" x1="409.4" y1="62.1" x2="409.4" y2="69.4"/>
							</g>
							<g>
								<line class="st11" x1="387.2" y1="56.1" x2="387.2" y2="63.4"/>
							</g>
							<g>
								<line class="st11" x1="364.9" y1="50.1" x2="364.9" y2="57.4"/>
							</g>
							<g>
								<line class="st11" x1="342.6" y1="44" x2="342.6" y2="51.3"/>
							</g>
							<g>
								<line class="st11" x1="320.3" y1="38" x2="320.3" y2="45.3"/>
							</g>
						</g>
						<g>
							<g>
								<line class="st11" x1="476.3" y1="65.6" x2="476.3" y2="72.9"/>
							</g>
							<g>
								<line class="st11" x1="454" y1="59.6" x2="454" y2="66.9"/>
							</g>
							<g>
								<line class="st11" x1="431.7" y1="53.5" x2="431.7" y2="60.8"/>
							</g>
							<g>
								<line class="st11" x1="409.4" y1="47.5" x2="409.4" y2="54.8"/>
							</g>
							<g>
								<line class="st11" x1="387.2" y1="41.5" x2="387.2" y2="48.8"/>
							</g>
							<g>
								<line class="st11" x1="364.9" y1="35.4" x2="364.9" y2="42.8"/>
							</g>
							<g>
								<line class="st11" x1="342.6" y1="29.4" x2="342.6" y2="36.7"/>
							</g>
							<g>
								<line class="st11" x1="320.3" y1="23.4" x2="320.3" y2="30.7"/>
							</g>
						</g>
						<g>
							<g>
								<line class="st11" x1="465.9" y1="70.1" x2="465.9" y2="77.4"/>
							</g>
							<g>
								<line class="st11" x1="443.6" y1="64" x2="443.6" y2="71.4"/>
							</g>
							<g>
								<line class="st11" x1="421.3" y1="58" x2="421.3" y2="65.3"/>
							</g>
							<g>
								<line class="st11" x1="399" y1="52" x2="399" y2="59.3"/>
							</g>
							<g>
								<line class="st11" x1="376.7" y1="46" x2="376.7" y2="53.3"/>
							</g>
							<g>
								<line class="st11" x1="354.4" y1="39.9" x2="354.4" y2="47.2"/>
							</g>
							<g>
								<line class="st11" x1="332.1" y1="33.9" x2="332.1" y2="41.2"/>
							</g>
							<g>
								<line class="st11" x1="309.8" y1="27.9" x2="309.8" y2="35.2"/>
							</g>
						</g>
					</g>
					<g>
						<g>
							<ellipse class="st21" cx="304.2" cy="109" rx="50.5" ry="17.1"/>
							<g>
								<path class="st13" d="M354.7,103.4c0-9.5-22.6-17.1-50.5-17.1c-27.9,0-50.5,7.7-50.5,17.1v5.6c0-9.5,22.6-17.1,50.5-17.1
									c27.9,0,50.5,7.7,50.5,17.1V103.4z"/>
								<line class="st13" x1="256.2" y1="98.1" x2="256.2" y2="103.7"/>
								<line class="st13" x1="258.7" y1="96" x2="258.7" y2="101.6"/>
								<line class="st13" x1="263.1" y1="93.5" x2="263.1" y2="99.1"/>
								<line class="st13" x1="269.2" y1="91.1" x2="269.2" y2="96.7"/>
								<line class="st13" x1="280.5" y1="88.3" x2="280.5" y2="93.9"/>
								<line class="st13" x1="295.2" y1="86.6" x2="295.2" y2="92.2"/>
								<line class="st13" x1="313.2" y1="86.6" x2="313.2" y2="92.2"/>
							</g>
						</g>
						<g>
							<path class="st15" d="M311.2,20.6c0-1.5-3.1-2.7-7-2.7c-3.9,0-7,1.2-7,2.7v51.5c0-1.5,3.1-2.7,7-2.7c3.9,0,7,1.2,7,2.7V20.6z
								"/>
							<line class="st19" x1="298.9" y1="20.1" x2="298.9" y2="69.7"/>
							<g>
								<path class="st1" d="M311.2,30.6c0-1.5-3.1-2.7-7-2.7c-3.9,0-7,1.2-7,2.7"/>
								<path class="st1" d="M311.2,42.6c0-1.5-3.1-2.7-7-2.7c-3.9,0-7,1.2-7,2.7"/>
								<path class="st1" d="M311.2,54.7c0-1.5-3.1-2.7-7-2.7c-3.9,0-7,1.2-7,2.7"/>
								<path class="st1" d="M311.2,66.7c0-1.5-3.1-2.7-7-2.7c-3.9,0-7,1.2-7,2.7"/>
							</g>
							<path class="st22" d="M297.2,72.1c0-1.5,3.1-2.7,7-2.7c3.9,0,7,1.2,7,2.7"/>
						</g>
					</g>
				</g>
			</g>
			<rect x="121.5" y="128.7" class="st8" width="365.5" height="4.2"/>
		</g>
		<g>
			<line class="st17" x1="474.1" y1="211.6" x2="486.2" y2="211.6"/>
			<line class="st17" x1="454" y1="319.3" x2="466.1" y2="319.3"/>
			<line class="st17" x1="212.8" y1="310" x2="224.9" y2="310"/>
			<line class="st17" x1="142.5" y1="423.3" x2="154.6" y2="423.3"/>
			<line class="st17" x1="452.7" y1="425.6" x2="464.8" y2="425.6"/>
			<line class="st17" x1="342.6" y1="252.6" x2="354.7" y2="252.6"/>
			<line class="st17" x1="316.4" y1="219.4" x2="328.4" y2="219.4"/>
			<line class="st17" x1="279" y1="180" x2="291.1" y2="180"/>
			<line class="st17" x1="394.5" y1="189.7" x2="406.6" y2="189.7"/>
			<line class="st17" x1="437.9" y1="150.6" x2="449.9" y2="150.6"/>
			<line class="st17" x1="205.6" y1="153.1" x2="217.6" y2="153.1"/>
			<line class="st17" x1="294.5" y1="297.1" x2="306.6" y2="297.1"/>
			<line class="st17" x1="169.8" y1="256.4" x2="181.9" y2="256.4"/>
			<line class="st17" x1="471" y1="254.2" x2="483" y2="254.2"/>
		</g>
	</g>
	<g>
		<g>
			<g>
				<path class="st1" d="M485.1,433.4l-8.7-21.1c-1.9-4.2,2.3-6.7,4.3-2.7l-0.7,0.7c-1.6-2.8-3.8-1.3-2.6,1.3l8.6,20.8L485.1,433.4z
					"/>
				<path class="st0" d="M476.7,406.3l0.5,4.2c0,0,3.3-1.1,2.3-5.4"/>
				<path class="st0" d="M429.8,379.9c0.9,9.6,10.2,12.9,18.8,7l-1.9-9.8c2.4-1.5,5-2.5,8.3-1.9l3.5,11.6c12.4,0,18.3,9.2,21.9,17.8
					l-4.6,1.9c-1.9-7.5-7.6-13.6-11.9-13.1l1.9,17.2c3,12.8,2.8,16.2,1.6,22.6H462c0.9-8-3.3-21.1-6-21.1s-6.3,13.9-4.4,21.1H446
					c-2.3-10.3-1.8-14.5,1.4-22.8l-0.1-16.2c-12.3,2-20.1-1.6-21.1-13.9L429.8,379.9z"/>
				<path class="st23" d="M447.4,410.5c-3.2,8.3-3.7,12.6-1.4,22.8h5.6c-1.8-7.2,1.8-21.1,4.4-21.1s6.9,13.1,6,21.1h5.6
					c1.2-6.4,1.4-9.8-1.6-22.6l-5.3-2.7l-1.4,2.8l-3.2-2.8l-3.6,3.1l-0.9-3.7L447.4,410.5z"/>
				<path class="st24" d="M448.6,386.9c-6.9,4.7-14.1,3.6-17.3-1.9l-4.8,1.8c2.8,7.4,10.7,9.2,20.7,7.5c-1.7,7.4-2.6,14.3-2.6,20.9
					C450.7,413.7,456,405.7,448.6,386.9z"/>
				<path class="st24" d="M467.9,415.2c-0.3-9-1.6-16.2-3.9-21.7c3.6-0.4,6.3,4.1,9.5,11.2l5.7-2.7c-4.5-8.5-10-15.2-20.7-15.2
					C456.5,401.4,459.5,410.9,467.9,415.2z"/>
				<path class="st0" d="M428.6,383.9c-1-0.7-0.4-2.9,1.4-2.4l2-1.6l0.6,0.5l-2,2.9l0.2,0.7"/>
				<path class="st25" d="M427,380.8c0.6-0.6,1.6-0.8,2.9-0.4c-0.9-2.5,0.5-2.9,1.7-2.8l0.1-1.1c-1.4-0.4-4.2,0.5-3.3,3.6l-0.9,0.1
					l-1.8-3.8l-1,0.6l1.9,3.7l-2.8-2.6l-0.6,0.9l2.8,2.6l-2.7-1l-0.2,0.6l3.4,1.7l0.3,0.9"/>
				<path class="st24" d="M446.1,377.4c-0.6-3.4-1-5.1-2.9-9.6c0.8-2.7,8.1-4.1,10.1-2.3c0.6,4.1,1.2,6.1,2.4,9.8
					C450.1,375,446.5,376.7,446.1,377.4z"/>
				<path class="st1" d="M445.4,374.2c0.8-1.2,6.1-2.9,9.3-2.1"/>
				<path class="st23" d="M447,378.6c-3.1,0.5-6.1-2.3,3.5-4.5s7.3,2.4,4.9,2.3l-0.4-1.2c-4.8-0.2-7.9,1.3-8.3,1.9L447,378.6z"/>
				<polyline class="st1" points="451.5,408.1 452.5,411.1 456,408.1 459.2,410.8 460.6,408.1 				"/>
				<polygon class="st26" points="450.5,391.1 450.4,394.2 453.8,392.3 458.6,393.1 457.8,389.5 				"/>
				<path class="st1" d="M450.9,414.7c0,0,3.7-5.5,11.3,0"/>
				<path class="st23" d="M455.8,404.4c-0.5,0.4-0.4,0.8,0,0.7C456.2,404.9,456.1,404.2,455.8,404.4z"/>
				<path class="st23" d="M455.3,400.1c-0.5,0.4-0.4,0.8,0,0.7C455.7,400.6,455.6,399.9,455.3,400.1z"/>
				<path class="st23" d="M454.9,395.8c-0.5,0.4-0.4,0.8,0,0.7S455.2,395.6,454.9,395.8z"/>
			</g>
			<path class="st27" d="M432.6,377.5c-2-0.5-1.7,2.3-0.5,2.4S434.2,377.9,432.6,377.5z"/>
			<path class="st25" d="M448.1,380.2c-2-0.5-1.7,2.3-0.5,2.4S449.7,380.6,448.1,380.2z"/>
			<path class="st28" d="M448.4,433.4c0,0-0.2-2.6-2.9-2.6c0,0-2.9,2.6-5.2,2.6C442.2,435,444.5,435.7,448.4,433.4z"/>
			<path class="st28" d="M451.2,431.7c-0.8,0-1.7,1.1-1.7,1.6c0,0,0.4,0.7,2.3,0.7C451.7,432.8,451.2,431.7,451.2,431.7z"/>
			<path class="st28" d="M465.1,433.4c0,0,0.2-2.6,2.9-2.6c0,0,2.9,2.6,5.2,2.6C471.3,435,468.9,435.7,465.1,433.4z"/>
			<path class="st28" d="M462.1,431.7c0.8,0,1.7,1.1,1.7,1.6c0,0-0.4,0.7-2.3,0.7C461.5,432.8,462.1,431.7,462.1,431.7z"/>
		</g>
		<path class="st0" d="M451.1,383c-3.3-0.6-1.7,4.1-5.7,2.7c0,0,3.8,4.2,6.4-0.3c0,0,3,2.7,6.7-1.3
			C454.6,385.6,454.6,380.8,451.1,383z"/>
	</g>
</g>
</svg>
