<?xml version="1.0" encoding="utf-8"?>
<!-- Generator: Adobe Illustrator 28.3.0, SVG Export Plug-In . SVG Version: 6.00 Build 0)  -->
<svg version="1.1" xmlns="http://www.w3.org/2000/svg" xmlns:xlink="http://www.w3.org/1999/xlink" x="0px" y="0px"
	 viewBox="0 0 490 443.7" style="enable-background:new 0 0 490 443.7;" xml:space="preserve">
<style type="text/css">
	.st0{fill:#FFFFFF;stroke:#231F20;stroke-miterlimit:10;}
	.st1{fill:#BDBFC1;}
	.st2{fill:none;stroke:#231F20;stroke-miterlimit:10;}
	.st3{fill:#FFFFFF;stroke:#000000;stroke-miterlimit:10;}
	.st4{fill:none;stroke:#000000;stroke-miterlimit:10;}
	.st5{fill:#B0B1B3;stroke:#231F20;stroke-miterlimit:10;}
	.st6{fill:#ADCCA2;stroke:#231F20;stroke-miterlimit:10;}
	.st7{fill:#ADCCA2;stroke:#000000;stroke-miterlimit:10;}
	.st8{fill:#EBCF9E;stroke:#000000;stroke-miterlimit:10;}
	.st9{fill:#E1A091;stroke:#231F20;stroke-miterlimit:10;}
	.st10{fill:#DBDADB;stroke:#000000;stroke-miterlimit:10;}
	.st11{fill:#F6EBD7;stroke:#000000;stroke-miterlimit:10;}
	.st12{fill:#E6C281;stroke:#000000;stroke-miterlimit:10;}
	.st13{fill:#9DBAD6;stroke:#000000;stroke-miterlimit:10;}
	.st14{fill:#DAE2EE;stroke:#000000;stroke-miterlimit:10;}
	.st15{fill:#E1A091;stroke:#000000;stroke-miterlimit:10;}
	.st16{fill:#F1D5CB;stroke:#000000;stroke-miterlimit:10;}
	.st17{fill:#FFFFFF;stroke:#969396;stroke-miterlimit:10;}
	.st18{fill:#ADCCA2;}
	.st19{fill:#F6EBD7;stroke:#B92300;stroke-miterlimit:10;}
	.st20{fill:#FFFFFF;stroke:#7AAC68;stroke-miterlimit:10;}
	.st21{fill:#95A3CD;stroke:#000000;stroke-miterlimit:10;}
	.st22{fill:#B92300;stroke:#000000;stroke-miterlimit:10;}
	.st23{fill:#8C9AA3;stroke:#000000;stroke-miterlimit:10;}
	.st24{stroke:#000000;stroke-miterlimit:10;}
	.st25{fill:#FFFFFF;stroke:#000000;stroke-linejoin:bevel;stroke-miterlimit:10;}
	.st26{fill:#ED1C24;stroke:#000000;stroke-miterlimit:10;}
	.st27{fill:#FFF200;stroke:#000000;stroke-linejoin:bevel;stroke-miterlimit:10;}
	.st28{stroke:#000000;stroke-linejoin:bevel;stroke-miterlimit:10;}
</style>
<g id="Layer_6">
	<g>
		<g>
			<path class="st0" d="M439.1,421.7c0,0,12.1-16.1,12.7-27.1s-1-13.7-1-13.7s-3.7,18.1-15.7,8.7l1.3-2.6c0,0,4.6,4.4,7.5,1.5
				c2.9-2.9,5.8-13.9,5.8-13.9l8-2.3c0,0,6.9,22.9,8.5,51.4"/>
			<path class="st0" d="M463.4,423.7c0,0-1.6-25.5-5-27.4c-4.9-2.8-4,12.4-16.2,27.4"/>
			<path class="st0" d="M457.8,375.3c12,9.4,1.1,18.8,1.1,18.8l1.7,1.7c13.3-13.5-2.8-23.5-2.8-23.5l-3.9,1.1"/>
			<polyline class="st0" points="455.3,374.9 448.3,363.8 444.4,367.4 449.9,377.2 			"/>
		</g>
		<polygon class="st0" points="434.3,383.5 433.4,386.7 439.3,390.1 440,386.5 		"/>
		<g>
			<path class="st1" d="M458.9,376.2c0,0,10.3,7.3,1.9,15.9l-0.1,2C460.6,394.1,472,384.3,458.9,376.2z"/>
		</g>
		<path class="st0" d="M451.9,393.2c0,0,3.6,1.7,9.6-2.3"/>
		<path class="st2" d="M453.2,396.5c0,0,4.8-2.7,7.9,1.6"/>
	</g>
	<g>
		<g>
			<g>
				<path class="st3" d="M417.5,68.6c-4-15.6-2.5-15.9-4.3-29c-0.4-2.9,0.6-7.3,1.3-10.5l19.3,1.4l-0.2-2.7
					c-10.1-1.4-17.6-2.3-24.1-3.9c-0.5-0.1,1.3-5.5,1.3-9.3c0-4.7-4.1-5.8-6.9-3.1c-2.6,2.5-0.4,8.1,0.8,11
					c-7.2-2.5-13.5-6.4-20.5-12.6l-2.1,2c5.4,5.2,11.2,9.5,18.8,13.5c-1.5,6.1-4.2,27.6-7.7,43.1"/>
				<path class="st3" d="M397.8,68.6c0,0,0.7-24.3,7.8-23.4c6.5,0.8,7.5,23.3,7.5,23.3"/>
			</g>
			<path class="st4" d="M402.6,22.5c0,0,0,5.6,1.9,8.2c0,0,4.6-1.3,8.6-5.9"/>
			<path class="st4" d="M417.9,25.7c0,0-1.8,2.1-0.3,4.1"/>
			<path class="st4" d="M400.2,20.7c-1.6,0.4-2.8,2.9-1.3,3.8"/>
		</g>
		<path class="st4" d="M405.5,27.7c0,0-1.2,2.7-1.4,4.7"/>
		<path class="st4" d="M404.7,33.5c1.4,1.7,5.8,2.6,6.4-0.4"/>
		<path class="st4" d="M401.9,32.4c-1.1,0.7-2.4-0.5-2.2-1.8"/>
	</g>
	<g>
		<g>
			<g>
				<path class="st0" d="M46.4,101.3c0,0,0.9-49.3,4.5-53c3.7-3.7,22.3-2.9,22.3-2.9l1.1-4c0,0-38.5-0.2-68.1,11.9L6.1,57
					c0,0,21.9-9.6,24.5-4.8s-3.4,40.2-3.4,40.2l4.2-1.1c0,0,1.2-22,6.9-22s4,34.9,4,34.9"/>
				<polyline class="st0" points="37.2,49.4 37.2,37.5 45.8,36.6 45.8,50.7 				"/>
			</g>
		</g>
		<path class="st2" d="M32.9,69.4c0,0,5.8-2.5,10.3,3.5"/>
		<path class="st2" d="M31,62.9c0,4.8,11.5,7.2,16.8,5.3"/>
		<path class="st2" d="M36.8,46c-1.6,0.6-4.6,7,3.9,8.2c8.1,1.2,9.5-7.9,5.1-8.2"/>
	</g>
	<g>
		<g>
			<g>
				<g>
					<g>
						<path class="st0" d="M36.9,161.3c0.1,0.9-4.6-20.8-4.6-44.1c0.2-2.6,10-5.5,16.9-19.9l-2.1-1.1c0,0-5.7,13.4-17.1,16.3
							l-7.2-0.6c-8.3-2.4-12.4-9.9-14.9-15.9l-1.8,0.8c2.9,8,8.6,14.5,15.6,19.5c0,24.3-5.2,45-5.2,45"/>
						<polyline class="st0" points="23.6,114.5 23.5,104.1 30.4,104.2 30.4,114.5 						"/>
						<path class="st0" d="M19.9,161.3c0,0,2.1-24.6,7.1-24.6s6.9,24.6,6.9,24.6"/>
					</g>
				</g>
			</g>
		</g>
		<path class="st3" d="M23.1,105.5c0,4.9,7.3,4.9,7.3,0H23.1z"/>
		<polygon class="st3" points="23.1,105.5 21.2,101.6 26.9,98.1 32.2,101.6 30.4,105.5 		"/>
		<polyline class="st0" points="21.2,101.6 26.7,103.9 32.2,101.6 		"/>
		<polygon class="st0" points="21.1,130.8 25,130.8 25,132.2 21,132.2 		"/>
		<rect x="25" y="130.8" class="st0" width="3.2" height="1.4"/>
		<rect x="28.2" y="130.8" class="st0" width="4.6" height="1.4"/>
		<polygon class="st0" points="25,119.5 21.9,115.2 23.5,111.3 23.5,114.5 26.9,117.5 		"/>
		<polygon class="st0" points="28.9,119.5 32,115.2 30.4,111.3 30.4,114.5 26.9,117.5 		"/>
		<line class="st0" x1="19" y1="148.4" x2="21.9" y2="149"/>
		<line class="st0" x1="32.2" y1="148.7" x2="34.6" y2="147.9"/>
	</g>
	<g>
		<line class="st3" x1="27.8" y1="401.3" x2="24.3" y2="401.3"/>
		<g>
			<g>
				<path class="st3" d="M15.6,428.4c1-7.5,2.7-24.1,7.5-24.1s5.9,15.4,6.4,24.1 M32.9,427.1c1.5-21.4-14.9-55.3,14.1-54.5l1.1-1.2
					l2.5,0.1l0.8-0.8l-2.2-0.5c-13.7-3.4-19.4,3.4-24,14.2c-0.6,1.4,2.4-15.3-4.5-13.8c-6.9,1.5,1.2,12.4-0.8,14
					c-2.1,1.7-8.1-11.2-17.3-15.2L1,371.8c24.8,16,8.7,37.6,10.5,56.5"/>
			</g>
		</g>
		<path class="st3" d="M14.9,399.4c0,0,7.1,4.9,15.4,0"/>
		<path class="st4" d="M14.4,389.6c2.5,3.5,2.9-2.6,4-5c0,0,1.1,1.2,1.4,0c2.2,13.7,4.3,11.5,6-1.7c0,0,1.5,9.1,3.9,7.1"/>
		<polygon class="st4" points="20.6,386.7 22.6,387.1 24.3,386.3 24.3,388.6 22.6,387.5 21,388.6 		"/>
	</g>
	<g>
		<g>
			<line class="st3" x1="264.8" y1="195.7" x2="269.8" y2="195.7"/>
			<line class="st3" x1="384.6" y1="246.4" x2="389.5" y2="246.4"/>
			<line class="st3" x1="231.4" y1="190" x2="226.2" y2="190"/>
			<line class="st3" x1="52.2" y1="325.2" x2="47" y2="325.2"/>
			<line class="st3" x1="272.3" y1="173.8" x2="276.6" y2="173.8"/>
			<line class="st3" x1="480.6" y1="138.8" x2="484.9" y2="138.8"/>
			<line class="st3" x1="466.8" y1="344.2" x2="471.1" y2="344.2"/>
			<line class="st3" x1="390.1" y1="159.4" x2="392.3" y2="159.4"/>
			<line class="st3" x1="217.7" y1="161.6" x2="214.2" y2="161.6"/>
		</g>
		<g>
			<line class="st3" x1="112.6" y1="180.2" x2="117.5" y2="180.2"/>
			<line class="st3" x1="243.3" y1="85.8" x2="248.2" y2="85.8"/>
			<line class="st3" x1="155.2" y1="163.2" x2="149.9" y2="163.2"/>
			<line class="st3" x1="170.3" y1="209.5" x2="174.5" y2="209.5"/>
			<line class="st3" x1="476.3" y1="91.7" x2="480.6" y2="91.7"/>
			<line class="st3" x1="104" y1="87.9" x2="108.3" y2="87.9"/>
			<line class="st3" x1="174.2" y1="184.1" x2="176.4" y2="184.1"/>
			<line class="st3" x1="250.2" y1="92" x2="252.4" y2="92"/>
			<line class="st3" x1="345.3" y1="140.2" x2="350.3" y2="140.2"/>
			<line class="st3" x1="352.2" y1="146.3" x2="354.4" y2="146.3"/>
			<line class="st3" x1="309.2" y1="179.1" x2="311.4" y2="179.1"/>
			<line class="st3" x1="48.7" y1="344.2" x2="50.9" y2="344.2"/>
			<line class="st3" x1="17.3" y1="298.4" x2="19.6" y2="298.4"/>
			<line class="st3" x1="147.6" y1="153.7" x2="149.9" y2="153.7"/>
			<line class="st3" x1="139.6" y1="77.5" x2="141.8" y2="77.5"/>
			<line class="st3" x1="99.2" y1="79.5" x2="101.5" y2="79.5"/>
			<line class="st3" x1="472.7" y1="326.1" x2="474.9" y2="326.1"/>
			<line class="st3" x1="432.3" y1="328.2" x2="434.6" y2="328.2"/>
			<line class="st3" x1="101.5" y1="202.6" x2="98" y2="202.6"/>
			<g>
				<g>
					<line class="st3" x1="264.8" y1="247.7" x2="269.8" y2="247.7"/>
					<line class="st3" x1="384.6" y1="298.4" x2="389.5" y2="298.4"/>
					<line class="st3" x1="231.4" y1="242" x2="226.2" y2="242"/>
					<line class="st3" x1="52.2" y1="377.2" x2="47" y2="377.2"/>
					<line class="st3" x1="272.3" y1="225.8" x2="276.6" y2="225.8"/>
					<line class="st3" x1="408.2" y1="174.5" x2="412.5" y2="174.5"/>
					<line class="st3" x1="466.8" y1="396.2" x2="471.1" y2="396.2"/>
					<line class="st3" x1="290.4" y1="195.1" x2="292.6" y2="195.1"/>
					<line class="st3" x1="217.7" y1="213.6" x2="214.2" y2="213.6"/>
				</g>
				<g>
					<line class="st3" x1="112.6" y1="232.2" x2="117.5" y2="232.2"/>
					<line class="st3" x1="258.2" y1="115.2" x2="263.1" y2="115.2"/>
					<line class="st3" x1="155.2" y1="215.2" x2="149.9" y2="215.2"/>
					<line class="st3" x1="170.3" y1="261.5" x2="174.5" y2="261.5"/>
					<line class="st3" x1="376.6" y1="127.4" x2="380.9" y2="127.4"/>
					<line class="st3" x1="104" y1="139.9" x2="108.3" y2="139.9"/>
					<line class="st3" x1="174.2" y1="236.1" x2="176.4" y2="236.1"/>
					<line class="st3" x1="265.1" y1="121.3" x2="267.3" y2="121.3"/>
					<line class="st3" x1="438.7" y1="147.1" x2="443.6" y2="147.1"/>
					<line class="st5" x1="445.6" y1="153.2" x2="447.8" y2="153.2"/>
					<line class="st3" x1="335" y1="213.6" x2="337.2" y2="213.6"/>
					<line class="st3" x1="48.7" y1="396.2" x2="50.9" y2="396.2"/>
					<line class="st3" x1="29.6" y1="358" x2="31.8" y2="358"/>
					<line class="st3" x1="147.6" y1="205.7" x2="149.9" y2="205.7"/>
					<line class="st3" x1="139.6" y1="129.5" x2="141.8" y2="129.5"/>
					<line class="st3" x1="99.2" y1="131.5" x2="101.5" y2="131.5"/>
					<line class="st3" x1="472.7" y1="378.1" x2="474.9" y2="378.1"/>
					<line class="st3" x1="432.3" y1="380.2" x2="434.6" y2="380.2"/>
					<line class="st3" x1="101.5" y1="254.6" x2="98" y2="254.6"/>
				</g>
				<line class="st4" x1="164.5" y1="217.7" x2="159" y2="218.2"/>
			</g>
			<line class="st3" x1="39.3" y1="380.6" x2="35.8" y2="380.6"/>
		</g>
		<line class="st4" x1="164.5" y1="165.7" x2="159" y2="166.2"/>
	</g>
	<g>
		<g>
			<path class="st0" d="M43.2,360.3c0,0-6.3-45.9-3.2-49.1c3.2-3.2,10.9-1.4,10.9-7.3s-9.3-9.4-9.3-9.4l-0.7,2.1
				c0,0,7.3,2.9,7.3,7.3s-12.7,1.4-21.4,2.4c-3.6,0.4-9.6,2.8-9.6,12.1"/>
			<path class="st0" d="M26.8,327.4c0,0,6.1,2.2,12.7-1.3"/>
			<path class="st0" d="M28.1,360.3c0,0,0.1-30,5.7-30s5.9,30,5.9,30"/>
			<path class="st0" d="M19.6,318.1c0-6.6,3.3-10.6,7.1-8.3c1.9,1.2-1.5,50.4-1.5,50.4"/>
			<polyline class="st0" points="30.8,307.6 30,297.2 37.3,297.2 36.6,310.5 			"/>
			<polygon class="st0" points="30,320.3 30,327.3 33.9,327.3 33.5,320.2 			"/>
			<path class="st0" d="M17.3,318.5c0,9.3,15.7,7.5,15.7,7.5v-2.4c0,0-13.4,2.5-13.4-5.4"/>
		</g>
		<line class="st0" x1="24.4" y1="306.9" x2="25.1" y2="309.3"/>
		<line class="st0" x1="41.7" y1="306.9" x2="41.9" y2="310"/>
		<line class="st0" x1="26.6" y1="336.2" x2="30" y2="337.4"/>
		<line class="st0" x1="37.6" y1="336.8" x2="40.4" y2="336.2"/>
	</g>
	<g>
		<g>
			<path class="st0" d="M10.8,288.2c0,0,4.7-45.6,1.5-48.9c-2.4-2.4-2.4,7.5-2.4,25.4H7c0,0-0.7-18.1,2.3-28.9
				c1-3.5,14.2-3.4,19.3-0.6c4.8,2.7,8.2,17.2,3,26.8l-2.3-0.4c0,0,4.6-8.1,1.5-17.7s-5.6-4.7-5.6-2.9c0,6.5,5.9,47.1,5.9,47.1"/>
			<path class="st2" d="M27.6,288.2c0,0,0.5-28.6-7.3-28.6s-6,28.6-6,28.6"/>
			<path class="st0" d="M16.1,234.6c-1.3,0.3-5.4,5.2,4.4,9.4c0,0,7.4-6.9,2.3-9.4"/>
			<polyline class="st0" points="16.1,236.4 16.1,225 22.8,225.1 22.8,236.4 			"/>
		</g>
		<polygon class="st0" points="16.1,234.6 19.7,238 18.2,239.5 14.4,236.4 		"/>
		<polygon class="st0" points="22.8,234.6 19.7,238 21.4,239.3 24.4,236.4 		"/>
		<polygon class="st0" points="18.7,239 19.7,238 20.9,238.9 20.3,239.9 21.3,243.2 20.4,244 19.3,243.5 19.4,240.1 		"/>
		<path class="st0" d="M13.1,257.5c0,0,4.5,2.1,13.7-0.5"/>
	</g>
	<g>
		<g>
			<polyline class="st0" points="455.6,194.4 455.6,185.6 460.9,185.6 462.6,193.2 			"/>
			<path class="st0" d="M449.7,234.5l2.3-40l-25.4-5.5l0.6-2.5c28.3,5.8,31.9,13.1,59-12l2.1,1.2l-21.9,17.9l5,40.1l-2.3,0.6
				c0,0-0.7-22.6-9.9-21.8c-9.1,0.8-7.3,21.6-7.3,21.6"/>
		</g>
		<g>
			<g>
				<g>
					<path class="st2" d="M491,375.3"/>
				</g>
			</g>
		</g>
	</g>
	<g>
		<g>
			<path class="st6" d="M426.7,153.1L447.8,9.9l25.6,142.2C462.6,151.1,440.1,155.5,426.7,153.1z"/>
			<g>
				<polyline class="st5" points="450.1,113.6 458.9,99.5 450.1,107.3 				"/>
				<polyline class="st5" points="449,57.5 445,51.8 449,61.3 				"/>
				<polyline class="st5" points="449,67.7 453,61.3 449,64.5 				"/>
				<polyline class="st5" points="449,77.7 443.7,70.6 449,82.3 				"/>
				<polyline class="st5" points="449,99.5 442.9,90.5 448,104.3 				"/>
				<polyline class="st5" points="447.8,140.4 436.6,133 447,145.6 				"/>
			</g>
			<g>
				<polyline class="st5" points="453,175.9 449,35.6 445,175.9 				"/>
				<line class="st2" x1="440.8" y1="175.9" x2="448.8" y2="175.9"/>
				<line class="st2" x1="457.1" y1="175.9" x2="465.1" y2="175.9"/>
				<g>
					<polyline class="st5" points="450.1,133 461.2,115.4 450.1,124.9 					"/>
					<polyline class="st5" points="449,120.2 440.1,110.7 448,124.9 					"/>
					<polyline class="st5" points="450.1,90.5 454.5,81.3 449,85.9 					"/>
				</g>
				<line class="st2" x1="440.1" y1="73.9" x2="434.9" y2="79.9"/>
				<line class="st2" x1="437.5" y1="88.8" x2="433.7" y2="94.8"/>
				<line class="st2" x1="436.6" y1="99.5" x2="433.7" y2="101.3"/>
				<line class="st2" x1="465.1" y1="111.7" x2="468.9" y2="115.4"/>
				<line class="st2" x1="465.1" y1="122.7" x2="471" y2="128"/>
				<line class="st2" x1="468.9" y1="135.4" x2="473.5" y2="137.1"/>
				<line class="st2" x1="451.7" y1="44.6" x2="455.6" y2="46.2"/>
				<line class="st2" x1="447.8" y1="23.1" x2="442.2" y2="29.6"/>
				<line class="st2" x1="450.1" y1="31.5" x2="453.7" y2="33.9"/>
				<line class="st2" x1="431.4" y1="151.2" x2="428.9" y2="155.4"/>
				<line class="st2" x1="437.5" y1="152" x2="438.4" y2="155"/>
				<line class="st2" x1="431.4" y1="131.9" x2="426.7" y2="135.4"/>
				<line class="st2" x1="457.5" y1="149.9" x2="461.2" y2="155"/>
				<line class="st2" x1="468" y1="149.9" x2="470.2" y2="154.1"/>
				<line class="st2" x1="442.2" y1="124" x2="440.1" y2="128"/>
				<line class="st2" x1="440.1" y1="124" x2="437.5" y2="125.3"/>
				<line class="st2" x1="438.8" y1="121.2" x2="433.7" y2="121.2"/>
				<line class="st2" x1="462.6" y1="135.4" x2="465.1" y2="138.2"/>
				<line class="st2" x1="461.2" y1="137.1" x2="461.2" y2="141.7"/>
				<line class="st2" x1="462.6" y1="131.9" x2="465.1" y2="131.9"/>
				<line class="st2" x1="454.5" y1="90.5" x2="457.5" y2="88.6"/>
				<line class="st2" x1="455.6" y1="93" x2="457.5" y2="92.5"/>
				<line class="st2" x1="454.5" y1="94.8" x2="457.5" y2="96.9"/>
				<line class="st2" x1="456.5" y1="69" x2="460.1" y2="67.7"/>
				<line class="st2" x1="457.5" y1="72.4" x2="460.1" y2="72.4"/>
				<line class="st2" x1="456.5" y1="75.5" x2="461.2" y2="79.9"/>
				<line class="st2" x1="438.3" y1="175.9" x2="428.9" y2="175.9"/>
			</g>
		</g>
		<g>
			<g>
				<path class="st3" d="M194.5,94.2c-2.1-12.7,17.3-13.8,17.3-0.6C211.8,101.2,196.3,104.6,194.5,94.2z"/>
				<path class="st7" d="M218.4,102.2c13-28.1-31.5-42.7-39.6-12.2C174.1,107.7,207.7,125.3,218.4,102.2z"/>
				<g>
					<line class="st3" x1="209" y1="87.9" x2="185.3" y2="87.4"/>
					<line class="st3" x1="211.8" y1="91.6" x2="188.2" y2="91.1"/>
					<line class="st3" x1="209" y1="84.4" x2="185.3" y2="83.9"/>
				</g>
				<path class="st7" d="M222.6,98.2c7.5-16.2-18.2-24.7-22.9-7.1C197.1,101.3,216.5,111.5,222.6,98.2z"/>
				<polyline class="st8" points="198.4,166.2 197.6,80.5 191.7,80.5 192.5,166.1 				"/>
				<g>
					<path class="st4" d="M198.1,131.3c0,11.4-5.6,13.6-5.6,34.8"/>
					<path class="st4" d="M198.1,115.9c0,11.4-5.6,13.6-5.6,34.8"/>
				</g>
				<path class="st7" d="M212.4,61.8c-6,12.9,14.5,19.7,18.2,5.6C232.8,59.2,217.3,51.1,212.4,61.8z"/>
				<line class="st3" x1="219.4" y1="71.5" x2="213.4" y2="71.4"/>
				<line class="st3" x1="214.9" y1="66" x2="209" y2="65.8"/>
				<path class="st7" d="M195.5,39.4c-6,12.9,14.5,19.7,18.2,5.6C215.9,36.9,200.4,28.8,195.5,39.4z"/>
				<path class="st7" d="M188.7,81.2c19.9,2.9,20.8-27.6,0.3-27C177,54.5,172.4,78.8,188.7,81.2z"/>
				<path class="st7" d="M197.4,116.2c15.5,12.8,32.1-12.7,14.3-22.9C201.3,87.5,184.6,105.7,197.4,116.2z"/>
				<path class="st7" d="M178.5,112.4c-11.7,8.1,2.4,24.3,12.8,14.2C197.4,120.6,188.2,105.8,178.5,112.4z"/>
				<line class="st3" x1="184.4" y1="126.3" x2="173.4" y2="126.1"/>
				<line class="st3" x1="184.6" y1="124" x2="178.7" y2="123.9"/>
				<line class="st3" x1="178.9" y1="121.3" x2="173" y2="121.2"/>
				<path class="st7" d="M201.1,124.2c-5.7,12.4,13.8,18.8,17.4,5.4C220.6,121.7,205.7,114,201.1,124.2z"/>
				<line class="st3" x1="221.1" y1="69.7" x2="208.7" y2="69.4"/>
			</g>
			<line class="st4" x1="203.1" y1="165.7" x2="171" y2="166.2"/>
		</g>
		<g>
			<path class="st9" d="M45.9,289.7c-12.1-50.5,30-72.2,8.3-126.6h3.2c21.7,54.3-15.4,74.9,0,126.6"/>
			<g>
				<path class="st6" d="M83.5,175.9c0-72-48.8-72-48.8,0H83.5z"/>
				<path class="st2" d="M65.9,144.6c5.7,8.4,7.4,14.7,7.4,31.3"/>
				<path class="st2" d="M49.5,140.2c1.9-7,4.9-13.4,9.5-18.4"/>
				<path class="st2" d="M46.3,175.9c0-5.6,0-12.3,0.6-19.3"/>
				<path class="st2" d="M43.9,159.9c0.5-5.4,1.3-11,2.7-16.3"/>
				<path class="st2" d="M50.5,128.6c2.4-2.9,5.2-5.2,8.5-6.8c-6.6,27.7,8,32.7,8,54"/>
				<path class="st2" d="M39.3,175.9c0-11.8,1.1-24.9,4.9-35.6"/>
				<path class="st2" d="M41.7,141.1c1.6-4.4,3.7-8.4,6.4-11.7"/>
				<path class="st2" d="M59.1,121.9c-1,23.6,21.3,32.7,21.3,54"/>
				<path class="st2" d="M34.7,175.9c0-11.8,5.6-17.8,6.7-24.9"/>
				<path class="st2" d="M58.2,143.6c2.9,15.7-9.1,13-3.5,32.3"/>
				<line class="st2" x1="51.9" y1="125.3" x2="47.2" y2="123.2"/>
				<path class="st2" d="M53.2,124.3c0,0-4.2-4.4-3.6-4"/>
				<line class="st2" x1="54.7" y1="123.2" x2="54.3" y2="118.1"/>
			</g>
			<path class="st9" d="M52.5,255.4c0-31.6-24.6-29.6-24.6-57.6h-1.7c0,28,21.3,26,21.3,57.6"/>
			<path class="st9" d="M53.4,255.4c9.5-3.4,20.8-12.8,20.8-29h-1.7c0,15.3-9.5,20.1-19.1,23.6"/>
			<path class="st2" d="M64.3,202.1c-0.2,6.7-8.2,31.1-10.9,37.9"/>
			<path class="st2" d="M52.5,259.9c-1,13.8,0.5,21.3,3,27.8"/>
			<path class="st6" d="M86.5,231.9c0-38.4-24.6-38.4-24.6,0H86.5z"/>
			<path class="st6" d="M49.5,208c0-65-42.2-65-42.2,0H49.5z"/>
			<path class="st2" d="M28.4,159.3c-13.7,14.7-14,29.7-14,48.8"/>
			<path class="st2" d="M28.4,159.3C14.8,174,22.7,189,22.7,208"/>
			<path class="st2" d="M28.4,159.3C40.7,170.7,43.9,189,43.9,208"/>
			<path class="st2" d="M28.4,159.3c0,28.2,10.8,21.1,10.8,48.8"/>
			<path class="st2" d="M67,231.9c0-12.1,1.4-21,7.3-28.8"/>
			<path class="st2" d="M80.3,231.9c0-12.1-11.9-21-6.1-28.8"/>
			<path class="st2" d="M83.5,231.9c3.9-8.4-10.2-14.4-1.7-24.9"/>
			<path class="st2" d="M69.6,212c-3.6,5.6-7.6,12.3-7.6,19.9"/>
			<path class="st2" d="M30.7,176.7c3,6.8-9.5,14.2-8.1,27.4"/>
			<path class="st2" d="M18.1,175.9c-2.4,9.1-10.7,16.4-10.7,24.2"/>
			<path class="st2" d="M57.5,214.6c-1.9,6.7-0.5,15.1-2.4,20.7"/>
			<path class="st2" d="M46.3,244c-3-15.2-10.8-20.8-14.8-30.3"/>
			<path class="st2" d="M45.9,289.7c-3.4-14.1,10-29.8,0-57.2"/>
			<line class="st2" x1="86.5" y1="289.7" x2="68.5" y2="289.7"/>
			<line class="st2" x1="54.3" y1="289.7" x2="36.3" y2="289.7"/>
			<path class="st2" d="M54.1,255.1c7.6-3,16.7-14.3,17.5-21.5"/>
			<line class="st2" x1="77.6" y1="204.8" x2="79.6" y2="201.7"/>
			<line class="st2" x1="76.5" y1="204.8" x2="75.5" y2="199.5"/>
			<line class="st2" x1="71.6" y1="203.8" x2="69.6" y2="201.7"/>
			<line class="st2" x1="25" y1="161.5" x2="20.4" y2="157.1"/>
			<line class="st2" x1="26.8" y1="160.2" x2="28.4" y2="152.6"/>
			<line class="st2" x1="30.2" y1="161" x2="33.9" y2="155.3"/>
		</g>
		<g>
			<g>
				<path class="st7" d="M448.1,260c8.4-18.3-20.5-27.8-25.8-8C419.3,263.6,441.2,275,448.1,260z"/>
				<path class="st7" d="M470.4,277.3c13-28.1-31.5-42.7-39.6-12.2C426,282.8,459.7,300.4,470.4,277.3z"/>
				<g>
					<line class="st3" x1="466.8" y1="264.2" x2="443.2" y2="263.7"/>
					<line class="st3" x1="464" y1="267.9" x2="440.4" y2="267.4"/>
					<line class="st3" x1="464" y1="260.7" x2="440.4" y2="260.2"/>
				</g>
				<path class="st7" d="M474.6,302.7c7.5-16.2-18.2-24.7-22.9-7.1C449,305.9,468.5,316.1,474.6,302.7z"/>
				<path class="st7" d="M446.5,279.1c-2.1-12.7,17.3-13.8,17.3-0.6C463.7,286.1,448.3,289.5,446.5,279.1z"/>
				<polyline class="st8" points="450.4,351.1 449.6,265.4 443.6,265.4 444.5,351.1 				"/>
				<path class="st4" d="M450.4,343.1c0-20.4-6.8-42.4-6.8-77.8"/>
				<path class="st7" d="M455.9,244c-6,12.9,14.5,19.7,18.2,5.6C476.3,241.5,460.8,233.4,455.9,244z"/>
				<path class="st7" d="M432.7,283.5c18.3,8.4,27.8-20.5,8-25.8C429.1,254.6,417.6,276.5,432.7,283.5z"/>
				<path class="st7" d="M418.4,285.7c-6,12.9,14.5,19.7,18.2,5.6C438.8,283.2,423.3,275.1,418.4,285.7z"/>
				<path class="st7" d="M428.3,306c-6,12.9,14.5,19.7,18.2,5.6C448.7,303.4,433.2,295.3,428.3,306z"/>
				<path class="st7" d="M453,309.1c-5.7,12.4,13.8,18.8,17.4,5.4C472.5,306.7,457.7,299,453,309.1z"/>
				<path class="st7" d="M465,351.1c0-7.8-17.4-10.1-17.4,0"/>
				<line class="st3" x1="454.8" y1="350.8" x2="477.4" y2="351.2"/>
			</g>
		</g>
	</g>
	<path class="st0" d="M451.3,207c0,0,7.1-2.1,16.9-0.2l0.3,2.2c-5.8-1.3-11.4-1.1-17.3,0.2L451.3,207z"/>
</g>
<g id="_x33_andar">
	<g>
		<g>
			<g>
				<rect x="60.6" y="346.8" class="st10" width="365.5" height="82"/>
				<rect x="80.6" y="364.4" class="st3" width="135.2" height="53.9"/>
				<rect x="270.9" y="364.4" class="st3" width="135.2" height="53.9"/>
				<g>
					<rect x="270.9" y="418.3" class="st8" width="135.2" height="2.5"/>
					<rect x="270.9" y="415.8" class="st11" width="135.2" height="2.5"/>
				</g>
				<g>
					<rect x="80.6" y="418.3" class="st8" width="135.2" height="2.5"/>
					<rect x="80.6" y="415.8" class="st11" width="135.2" height="2.5"/>
				</g>
				<rect x="60.6" y="338.3" class="st12" width="365.5" height="8.5"/>
				<rect x="60.6" y="334.1" class="st8" width="365.5" height="4.2"/>
				<rect x="60.6" y="326.1" class="st8" width="365.5" height="8"/>
				<rect x="215.8" y="364.4" class="st3" width="55.1" height="64.4"/>
				<rect x="215.8" y="426.3" class="st11" width="55.1" height="2.5"/>
				<rect x="215.8" y="353.5" class="st3" width="55.1" height="10.9"/>
				<g>
					<path class="st13" d="M215.8,362.6c0,4-5.3,7.3-11.8,7.3c-6.5,0-11.8-3.3-11.8-7.3c0,4-5.3,7.3-11.8,7.3s-11.8-3.3-11.8-7.3
						c0,4-5.3,7.3-11.8,7.3s-11.8-3.3-11.8-7.3c0,4-5.3,7.3-11.8,7.3c-6.5,0-11.8-3.3-11.8-7.3c0,4-5.3,7.3-11.8,7.3
						c-6.5,0-11.8-3.3-11.8-7.3c0,4-5.3,7.3-11.8,7.3c-6.5,0-11.8-3.3-11.8-7.3v-1.4h142.2V362.6z"/>
					<rect x="73.6" y="346.6" class="st14" width="142.2" height="14.6"/>
					<path class="st15" d="M97.3,362.6c0,4,5.3,7.3,11.8,7.3c6.5,0,11.8-3.3,11.8-7.3v-1.4H97.3V362.6z"/>
					<rect x="97.3" y="346.6" class="st16" width="23.7" height="14.6"/>
					<path class="st15" d="M144.7,362.6c0,4,5.3,7.3,11.8,7.3s11.8-3.3,11.8-7.3v-1.4h-23.7V362.6z"/>
					<rect x="144.7" y="346.6" class="st16" width="23.7" height="14.6"/>
					<path class="st15" d="M192.1,362.6c0,4,5.3,7.3,11.8,7.3c6.5,0,11.8-3.3,11.8-7.3v-1.4h-23.7V362.6z"/>
					<rect x="192.1" y="346.6" class="st16" width="23.7" height="14.6"/>
				</g>
			</g>
			<rect x="60.6" y="244.1" class="st10" width="365.5" height="82"/>
			<g>
				<rect x="87.6" y="265.2" class="st3" width="142.2" height="33.2"/>
				<rect x="257" y="265.2" class="st3" width="142.2" height="33.2"/>
				<g>
					<g>
						<rect x="257" y="298.4" class="st8" width="142.2" height="2.5"/>
						<rect x="257" y="295.9" class="st11" width="142.2" height="2.5"/>
					</g>
					<g>
						<rect x="87.6" y="298.4" class="st8" width="142.2" height="2.5"/>
						<rect x="87.6" y="295.9" class="st11" width="142.2" height="2.5"/>
						<line class="st17" x1="257.2" y1="303.4" x2="399.4" y2="303.4"/>
						<line class="st17" x1="83.5" y1="303.4" x2="225.7" y2="303.4"/>
					</g>
				</g>
			</g>
			<rect x="60.6" y="235.7" class="st12" width="365.5" height="8.5"/>
			<g>
				<path class="st13" d="M413.1,362.6c0,4-5.3,7.3-11.8,7.3s-11.8-3.3-11.8-7.3c0,4-5.3,7.3-11.8,7.3c-6.5,0-11.8-3.3-11.8-7.3
					c0,4-5.3,7.3-11.8,7.3c-6.5,0-11.8-3.3-11.8-7.3c0,4-5.3,7.3-11.8,7.3c-6.5,0-11.8-3.3-11.8-7.3c0,4-5.3,7.3-11.8,7.3
					c-6.5,0-11.8-3.3-11.8-7.3c0,4-5.3,7.3-11.8,7.3s-11.8-3.3-11.8-7.3v-1.4h142.2V362.6z"/>
				<rect x="270.9" y="346.6" class="st14" width="142.2" height="14.6"/>
				<path class="st15" d="M294.6,362.6c0,4,5.3,7.3,11.8,7.3c6.5,0,11.8-3.3,11.8-7.3v-1.4h-23.7V362.6z"/>
				<rect x="294.6" y="346.6" class="st16" width="23.7" height="14.6"/>
				<path class="st15" d="M342,362.6c0,4,5.3,7.3,11.8,7.3c6.5,0,11.8-3.3,11.8-7.3v-1.4H342V362.6z"/>
				<rect x="342" y="346.6" class="st16" width="23.7" height="14.6"/>
				<path class="st15" d="M389.4,362.6c0,4,5.3,7.3,11.8,7.3s11.8-3.3,11.8-7.3v-1.4h-23.7V362.6z"/>
				<rect x="389.4" y="346.6" class="st16" width="23.7" height="14.6"/>
			</g>
			<rect x="60.6" y="231.4" class="st8" width="365.5" height="4.2"/>
		</g>
		<rect x="60.6" y="223.4" class="st8" width="365.5" height="8"/>
		<g>
			<g>
				<rect x="60.6" y="141.4" class="st10" width="365.5" height="82"/>
				<g>
					<g>
						<g>
							<rect x="60.6" y="421.9" class="st8" width="11.1" height="6.9"/>
							<rect x="60.6" y="414.9" class="st8" width="5.5" height="6.9"/>
						</g>
						<g>
							<rect x="60.6" y="408" class="st8" width="11.1" height="6.9"/>
							<rect x="60.6" y="401" class="st8" width="5.5" height="6.9"/>
						</g>
						<g>
							<rect x="60.6" y="394.4" class="st8" width="11.1" height="6.9"/>
							<rect x="60.6" y="387.5" class="st8" width="5.5" height="6.9"/>
						</g>
						<g>
							<rect x="60.6" y="380.9" class="st8" width="11.1" height="6.9"/>
							<rect x="60.6" y="373.9" class="st8" width="5.5" height="6.9"/>
						</g>
						<g>
							<rect x="60.6" y="367.3" class="st8" width="11.1" height="6.9"/>
							<rect x="60.6" y="360.4" class="st8" width="5.5" height="6.9"/>
						</g>
						<g>
							<rect x="60.6" y="353.8" class="st8" width="11.1" height="6.9"/>
							<rect x="60.6" y="346.8" class="st8" width="5.5" height="6.9"/>
						</g>
					</g>
					<g>
						<g>
							
								<rect x="415" y="421.9" transform="matrix(-1 -2.774548e-11 2.774548e-11 -1 841.1526 850.7003)" class="st8" width="11.1" height="6.9"/>
							
								<rect x="420.6" y="414.9" transform="matrix(-1 -2.774548e-11 2.774548e-11 -1 846.6925 836.8019)" class="st8" width="5.5" height="6.9"/>
						</g>
						<g>
							
								<rect x="415" y="408" transform="matrix(-1 -2.774548e-11 2.774548e-11 -1 841.1526 822.9036)" class="st8" width="11.1" height="6.9"/>
							
								<rect x="420.6" y="401" transform="matrix(-1 -2.774548e-11 2.774548e-11 -1 846.6925 809.0052)" class="st8" width="5.5" height="6.9"/>
						</g>
						<g>
							
								<rect x="415" y="394.4" transform="matrix(-1 -2.774548e-11 2.774548e-11 -1 841.1526 795.7921)" class="st8" width="11.1" height="6.9"/>
							
								<rect x="420.6" y="387.5" transform="matrix(-1 -2.774548e-11 2.774548e-11 -1 846.6925 781.8937)" class="st8" width="5.5" height="6.9"/>
						</g>
						<g>
							
								<rect x="415" y="380.9" transform="matrix(-1 -2.774548e-11 2.774548e-11 -1 841.1526 768.6805)" class="st8" width="11.1" height="6.9"/>
							
								<rect x="420.6" y="373.9" transform="matrix(-1 -2.774548e-11 2.774548e-11 -1 846.6925 754.7822)" class="st8" width="5.5" height="6.9"/>
						</g>
						<g>
							
								<rect x="415" y="367.3" transform="matrix(-1 -2.774548e-11 2.774548e-11 -1 841.1526 741.569)" class="st8" width="11.1" height="6.9"/>
							
								<rect x="420.6" y="360.4" transform="matrix(-1 -2.774548e-11 2.774548e-11 -1 846.6925 727.6707)" class="st8" width="5.5" height="6.9"/>
						</g>
						<g>
							
								<rect x="415" y="353.8" transform="matrix(-1 -2.774548e-11 2.774548e-11 -1 841.1526 714.4575)" class="st8" width="11.1" height="6.9"/>
							
								<rect x="420.6" y="346.8" transform="matrix(-1 -2.774548e-11 2.774548e-11 -1 846.6925 700.5591)" class="st8" width="5.5" height="6.9"/>
						</g>
					</g>
					<g>
						<g>
							<rect x="60.6" y="244.1" class="st15" width="11.1" height="6.9"/>
							<rect x="60.6" y="251.1" class="st15" width="5.5" height="6.9"/>
						</g>
						<g>
							<rect x="60.6" y="258" class="st15" width="11.1" height="6.9"/>
							<rect x="60.6" y="265" class="st15" width="5.5" height="6.9"/>
						</g>
						<g>
							<rect x="60.6" y="271.6" class="st15" width="11.1" height="6.9"/>
							<rect x="60.6" y="278.5" class="st15" width="5.5" height="6.9"/>
						</g>
						<g>
							<rect x="60.6" y="285.1" class="st15" width="11.1" height="6.9"/>
							<rect x="60.6" y="292.1" class="st15" width="5.5" height="6.9"/>
						</g>
						<g>
							<rect x="60.6" y="298.7" class="st15" width="11.1" height="6.9"/>
							<rect x="60.6" y="305.6" class="st15" width="5.5" height="6.9"/>
						</g>
						<g>
							<rect x="60.6" y="312.2" class="st15" width="11.1" height="6.9"/>
							<rect x="60.6" y="319.2" class="st15" width="5.5" height="6.9"/>
						</g>
					</g>
					<g>
						<g>
							
								<rect x="415" y="244.1" transform="matrix(-1 2.774524e-11 -2.774524e-11 -1 841.1526 495.172)" class="st15" width="11.1" height="6.9"/>
							
								<rect x="420.6" y="251.1" transform="matrix(-1 2.774524e-11 -2.774524e-11 -1 846.6925 509.0703)" class="st15" width="5.5" height="6.9"/>
						</g>
						<g>
							
								<rect x="415" y="258" transform="matrix(-1 2.774524e-11 -2.774524e-11 -1 841.1526 522.9686)" class="st15" width="11.1" height="6.9"/>
							
								<rect x="420.6" y="265" transform="matrix(-1 2.774524e-11 -2.774524e-11 -1 846.6925 536.8669)" class="st15" width="5.5" height="6.9"/>
						</g>
						<g>
							
								<rect x="415" y="271.6" transform="matrix(-1 2.774524e-11 -2.774524e-11 -1 841.1526 550.0802)" class="st15" width="11.1" height="6.9"/>
							
								<rect x="420.6" y="278.5" transform="matrix(-1 2.774524e-11 -2.774524e-11 -1 846.6925 563.9785)" class="st15" width="5.5" height="6.9"/>
						</g>
						<g>
							
								<rect x="415" y="285.1" transform="matrix(-1 2.774524e-11 -2.774524e-11 -1 841.1526 577.1917)" class="st15" width="11.1" height="6.9"/>
							
								<rect x="420.6" y="292.1" transform="matrix(-1 2.774524e-11 -2.774524e-11 -1 846.6925 591.09)" class="st15" width="5.5" height="6.9"/>
						</g>
						<g>
							
								<rect x="415" y="298.7" transform="matrix(-1 2.774524e-11 -2.774524e-11 -1 841.1526 604.3032)" class="st15" width="11.1" height="6.9"/>
							
								<rect x="420.6" y="305.6" transform="matrix(-1 2.774524e-11 -2.774524e-11 -1 846.6925 618.2015)" class="st15" width="5.5" height="6.9"/>
						</g>
						<g>
							
								<rect x="415" y="312.2" transform="matrix(-1 2.774524e-11 -2.774524e-11 -1 841.1526 631.4148)" class="st15" width="11.1" height="6.9"/>
							
								<rect x="420.6" y="319.2" transform="matrix(-1 2.774524e-11 -2.774524e-11 -1 846.6925 645.3131)" class="st15" width="5.5" height="6.9"/>
						</g>
					</g>
				</g>
				<g>
					<rect x="73.6" y="162.5" class="st3" width="58.5" height="33.2"/>
					<g>
						<g>
							<rect x="73.6" y="195.7" class="st8" width="58.5" height="2.5"/>
							<rect x="73.6" y="193.2" class="st11" width="58.5" height="2.5"/>
						</g>
						<rect x="157.4" y="162.5" class="st3" width="58.5" height="33.2"/>
						<g>
							<rect x="157.4" y="195.7" class="st8" width="58.5" height="2.5"/>
							<rect x="157.4" y="193.2" class="st11" width="58.5" height="2.5"/>
						</g>
						<rect x="270.9" y="162.5" class="st3" width="58.5" height="33.2"/>
						<g>
							<rect x="270.9" y="195.7" class="st8" width="58.5" height="2.5"/>
							<rect x="270.9" y="193.2" class="st11" width="58.5" height="2.5"/>
						</g>
						<rect x="354.6" y="162.5" class="st3" width="58.5" height="33.2"/>
						<g>
							<rect x="354.6" y="195.7" class="st8" width="58.5" height="2.5"/>
							<rect x="354.6" y="193.2" class="st11" width="58.5" height="2.5"/>
						</g>
					</g>
					<line class="st17" x1="61.5" y1="215.9" x2="70.5" y2="215.9"/>
					<line class="st17" x1="61.5" y1="214.1" x2="66" y2="214.1"/>
					<line class="st17" x1="61.5" y1="218.5" x2="73.6" y2="218.5"/>
					<line class="st17" x1="73.6" y1="247.3" x2="414.2" y2="247.3"/>
					<line class="st17" x1="222.2" y1="349.1" x2="265.6" y2="349.1"/>
					<g>
						<line class="st17" x1="69.6" y1="201.3" x2="128.1" y2="201.3"/>
						<line class="st17" x1="155.3" y1="201.3" x2="213.7" y2="201.3"/>
						<line class="st17" x1="268.8" y1="201.3" x2="327.2" y2="201.3"/>
						<line class="st17" x1="351.6" y1="201.3" x2="410" y2="201.3"/>
					</g>
				</g>
				<rect x="60.6" y="133" class="st12" width="365.5" height="8.5"/>
				<g>
					<polygon class="st18" points="60.6,128.7 243.4,79.3 243.4,128.7 					"/>
					<g>
						<polygon class="st11" points="60.6,128.7 243.4,79.3 243.4,70.2 60.6,119.6 						"/>
						<polygon class="st11" points="60.6,68.5 243.4,19 243.4,9.9 60.6,59.4 						"/>
					</g>
					<g>
						<polygon class="st15" points="60.6,68.5 243.4,19 243.4,70.2 60.6,119.6 						"/>
						<g>
							<line class="st11" x1="243.4" y1="62.9" x2="60.6" y2="112.3"/>
							<line class="st11" x1="243.4" y1="55.6" x2="60.6" y2="105"/>
							<line class="st11" x1="243.4" y1="48.3" x2="60.6" y2="97.7"/>
							<line class="st11" x1="243.4" y1="41" x2="60.6" y2="90.4"/>
							<line class="st11" x1="243.4" y1="33.7" x2="60.6" y2="83.1"/>
							<line class="st11" x1="243.4" y1="26.3" x2="60.6" y2="75.8"/>
						</g>
						<g>
							<line class="st19" x1="244.3" y1="63.8" x2="61.5" y2="113.2"/>
							<line class="st19" x1="244.3" y1="56.5" x2="61.5" y2="105.9"/>
							<line class="st19" x1="244.3" y1="49.2" x2="61.5" y2="98.6"/>
							<line class="st19" x1="244.3" y1="41.9" x2="61.5" y2="91.3"/>
							<line class="st19" x1="244.3" y1="34.6" x2="61.5" y2="84"/>
							<line class="st19" x1="244.3" y1="27.2" x2="61.5" y2="76.7"/>
							<line class="st19" x1="244.3" y1="19.9" x2="61.5" y2="69.4"/>
						</g>
						<g>
							<g>
								<line class="st11" x1="71.3" y1="109.4" x2="71.3" y2="116.8"/>
							</g>
							<g>
								<line class="st11" x1="93.5" y1="103.4" x2="93.5" y2="110.7"/>
							</g>
							<g>
								<line class="st11" x1="115.8" y1="97.4" x2="115.8" y2="104.7"/>
							</g>
							<g>
								<line class="st11" x1="138.1" y1="91.4" x2="138.1" y2="98.7"/>
							</g>
							<g>
								<line class="st11" x1="160.4" y1="85.3" x2="160.4" y2="92.6"/>
							</g>
							<g>
								<line class="st11" x1="182.7" y1="79.3" x2="182.7" y2="86.6"/>
							</g>
							<g>
								<line class="st11" x1="205" y1="73.3" x2="205" y2="80.6"/>
							</g>
							<g>
								<line class="st11" x1="227.3" y1="67.2" x2="227.3" y2="74.5"/>
							</g>
						</g>
						<g>
							<g>
								<line class="st11" x1="71.3" y1="94.8" x2="71.3" y2="102.1"/>
							</g>
							<g>
								<line class="st11" x1="93.5" y1="88.8" x2="93.5" y2="96.1"/>
							</g>
							<g>
								<line class="st11" x1="115.8" y1="82.8" x2="115.8" y2="90.1"/>
							</g>
							<g>
								<line class="st11" x1="138.1" y1="76.7" x2="138.1" y2="84"/>
							</g>
							<g>
								<line class="st11" x1="160.4" y1="70.7" x2="160.4" y2="78"/>
							</g>
							<g>
								<line class="st11" x1="182.7" y1="64.7" x2="182.7" y2="72"/>
							</g>
							<g>
								<line class="st11" x1="205" y1="58.6" x2="205" y2="66"/>
							</g>
							<g>
								<line class="st11" x1="227.3" y1="52.6" x2="227.3" y2="59.9"/>
							</g>
						</g>
						<g>
							<g>
								<line class="st11" x1="81.7" y1="99.3" x2="81.7" y2="106.6"/>
							</g>
							<g>
								<line class="st11" x1="104" y1="93.3" x2="104" y2="100.6"/>
							</g>
							<g>
								<line class="st11" x1="126.3" y1="87.2" x2="126.3" y2="94.6"/>
							</g>
							<g>
								<line class="st11" x1="148.6" y1="81.2" x2="148.6" y2="88.5"/>
							</g>
							<g>
								<line class="st11" x1="170.9" y1="75.2" x2="170.9" y2="82.5"/>
							</g>
							<g>
								<line class="st11" x1="193.2" y1="69.2" x2="193.2" y2="76.5"/>
							</g>
							<g>
								<line class="st11" x1="215.4" y1="63.1" x2="215.4" y2="70.4"/>
							</g>
							<g>
								<line class="st11" x1="237.7" y1="57.1" x2="237.7" y2="64.4"/>
							</g>
						</g>
						<g>
							<g>
								<line class="st11" x1="81.7" y1="84.7" x2="81.7" y2="92"/>
							</g>
							<g>
								<line class="st11" x1="104" y1="78.7" x2="104" y2="86"/>
							</g>
							<g>
								<line class="st11" x1="126.3" y1="72.6" x2="126.3" y2="79.9"/>
							</g>
							<g>
								<line class="st11" x1="148.6" y1="66.6" x2="148.6" y2="73.9"/>
							</g>
							<g>
								<line class="st11" x1="170.9" y1="60.6" x2="170.9" y2="67.9"/>
							</g>
							<g>
								<line class="st11" x1="193.2" y1="54.5" x2="193.2" y2="61.9"/>
							</g>
							<g>
								<line class="st11" x1="215.4" y1="48.5" x2="215.4" y2="55.8"/>
							</g>
							<g>
								<line class="st11" x1="237.7" y1="42.5" x2="237.7" y2="49.8"/>
							</g>
						</g>
						<g>
							<g>
								<line class="st11" x1="71.3" y1="80.2" x2="71.3" y2="87.5"/>
							</g>
							<g>
								<line class="st11" x1="93.5" y1="74.2" x2="93.5" y2="81.5"/>
							</g>
							<g>
								<line class="st11" x1="115.8" y1="68.2" x2="115.8" y2="75.5"/>
							</g>
							<g>
								<line class="st11" x1="138.1" y1="62.1" x2="138.1" y2="69.4"/>
							</g>
							<g>
								<line class="st11" x1="160.4" y1="56.1" x2="160.4" y2="63.4"/>
							</g>
							<g>
								<line class="st11" x1="182.7" y1="50.1" x2="182.7" y2="57.4"/>
							</g>
							<g>
								<line class="st11" x1="205" y1="44" x2="205" y2="51.3"/>
							</g>
							<g>
								<line class="st11" x1="227.3" y1="38" x2="227.3" y2="45.3"/>
							</g>
						</g>
						<g>
							<g>
								<line class="st11" x1="71.3" y1="65.6" x2="71.3" y2="72.9"/>
							</g>
							<g>
								<line class="st11" x1="93.5" y1="59.6" x2="93.5" y2="66.9"/>
							</g>
							<g>
								<line class="st11" x1="115.8" y1="53.5" x2="115.8" y2="60.8"/>
							</g>
							<g>
								<line class="st11" x1="138.1" y1="47.5" x2="138.1" y2="54.8"/>
							</g>
							<g>
								<line class="st11" x1="160.4" y1="41.5" x2="160.4" y2="48.8"/>
							</g>
							<g>
								<line class="st11" x1="182.7" y1="35.4" x2="182.7" y2="42.8"/>
							</g>
							<g>
								<line class="st11" x1="205" y1="29.4" x2="205" y2="36.7"/>
							</g>
							<g>
								<line class="st11" x1="227.3" y1="23.4" x2="227.3" y2="30.7"/>
							</g>
						</g>
						<g>
							<g>
								<line class="st11" x1="81.7" y1="70.1" x2="81.7" y2="77.4"/>
							</g>
							<g>
								<line class="st11" x1="104" y1="64" x2="104" y2="71.4"/>
							</g>
							<g>
								<line class="st11" x1="126.3" y1="58" x2="126.3" y2="65.3"/>
							</g>
							<g>
								<line class="st11" x1="148.6" y1="52" x2="148.6" y2="59.3"/>
							</g>
							<g>
								<line class="st11" x1="170.9" y1="46" x2="170.9" y2="53.3"/>
							</g>
							<g>
								<line class="st11" x1="193.2" y1="39.9" x2="193.2" y2="47.2"/>
							</g>
							<g>
								<line class="st11" x1="215.4" y1="33.9" x2="215.4" y2="41.2"/>
							</g>
							<g>
								<line class="st11" x1="237.7" y1="27.9" x2="237.7" y2="35.2"/>
							</g>
						</g>
					</g>
					<polygon class="st18" points="426.1,128.7 243.4,79.3 243.4,128.7 					"/>
					<g>
						<g>
							<line class="st20" x1="295.3" y1="111.8" x2="307.4" y2="111.8"/>
							<line class="st20" x1="373.8" y1="121.1" x2="385.9" y2="121.1"/>
							<line class="st20" x1="205.7" y1="118.7" x2="217.7" y2="118.7"/>
							<line class="st20" x1="182.7" y1="110.7" x2="194.8" y2="110.7"/>
							<line class="st20" x1="91.9" y1="125" x2="104" y2="125"/>
						</g>
					</g>
					<g>
						<polygon class="st11" points="426.1,128.7 243.4,79.3 243.4,70.2 426.1,119.6 						"/>
						<polygon class="st11" points="426.1,68.5 243.4,19 243.4,9.9 426.1,59.4 						"/>
					</g>
					<g>
						<polygon class="st15" points="426.1,68.5 243.4,19 243.4,70.2 426.1,119.6 						"/>
						<g>
							<line class="st11" x1="243.4" y1="62.9" x2="426.1" y2="112.3"/>
							<line class="st11" x1="243.4" y1="55.6" x2="426.1" y2="105"/>
							<line class="st11" x1="243.4" y1="48.3" x2="426.1" y2="97.7"/>
							<line class="st11" x1="243.4" y1="41" x2="426.1" y2="90.4"/>
							<line class="st11" x1="243.4" y1="33.7" x2="426.1" y2="83.1"/>
							<line class="st11" x1="243.4" y1="26.3" x2="426.1" y2="75.8"/>
						</g>
						<g>
							<line class="st19" x1="242.5" y1="63.8" x2="425.2" y2="113.2"/>
							<line class="st19" x1="242.5" y1="56.5" x2="425.2" y2="105.9"/>
							<line class="st19" x1="242.5" y1="49.2" x2="425.2" y2="98.6"/>
							<line class="st19" x1="242.5" y1="41.9" x2="425.2" y2="91.3"/>
							<line class="st19" x1="242.5" y1="34.6" x2="425.2" y2="84"/>
							<line class="st19" x1="242.5" y1="27.2" x2="425.2" y2="76.7"/>
							<line class="st19" x1="242.5" y1="19.9" x2="425.2" y2="69.4"/>
						</g>
						<g>
							<g>
								<line class="st11" x1="415.5" y1="109.4" x2="415.5" y2="116.8"/>
							</g>
							<g>
								<line class="st11" x1="393.2" y1="103.4" x2="393.2" y2="110.7"/>
							</g>
							<g>
								<line class="st11" x1="370.9" y1="97.4" x2="370.9" y2="104.7"/>
							</g>
							<g>
								<line class="st11" x1="348.6" y1="91.4" x2="348.6" y2="98.7"/>
							</g>
							<g>
								<line class="st11" x1="326.3" y1="85.3" x2="326.3" y2="92.6"/>
							</g>
							<g>
								<line class="st11" x1="304" y1="79.3" x2="304" y2="86.6"/>
							</g>
							<g>
								<line class="st11" x1="281.7" y1="73.3" x2="281.7" y2="80.6"/>
							</g>
							<g>
								<line class="st11" x1="259.5" y1="67.2" x2="259.5" y2="74.5"/>
							</g>
						</g>
						<g>
							<g>
								<line class="st11" x1="415.5" y1="94.8" x2="415.5" y2="102.1"/>
							</g>
							<g>
								<line class="st11" x1="393.2" y1="88.8" x2="393.2" y2="96.1"/>
							</g>
							<g>
								<line class="st11" x1="370.9" y1="82.8" x2="370.9" y2="90.1"/>
							</g>
							<g>
								<line class="st11" x1="348.6" y1="76.7" x2="348.6" y2="84"/>
							</g>
							<g>
								<line class="st11" x1="326.3" y1="70.7" x2="326.3" y2="78"/>
							</g>
							<g>
								<line class="st11" x1="304" y1="64.7" x2="304" y2="72"/>
							</g>
							<g>
								<line class="st11" x1="281.7" y1="58.6" x2="281.7" y2="66"/>
							</g>
							<g>
								<line class="st11" x1="259.5" y1="52.6" x2="259.5" y2="59.9"/>
							</g>
						</g>
						<g>
							<g>
								<line class="st11" x1="405" y1="99.3" x2="405" y2="106.6"/>
							</g>
							<g>
								<line class="st11" x1="382.7" y1="93.3" x2="382.7" y2="100.6"/>
							</g>
							<g>
								<line class="st11" x1="360.5" y1="87.2" x2="360.5" y2="94.6"/>
							</g>
							<g>
								<line class="st11" x1="338.2" y1="81.2" x2="338.2" y2="88.5"/>
							</g>
							<g>
								<line class="st11" x1="315.9" y1="75.2" x2="315.9" y2="82.5"/>
							</g>
							<g>
								<line class="st11" x1="293.6" y1="69.2" x2="293.6" y2="76.5"/>
							</g>
							<g>
								<line class="st11" x1="271.3" y1="63.1" x2="271.3" y2="70.4"/>
							</g>
							<g>
								<line class="st11" x1="249" y1="57.1" x2="249" y2="64.4"/>
							</g>
						</g>
						<g>
							<g>
								<line class="st11" x1="405" y1="84.7" x2="405" y2="92"/>
							</g>
							<g>
								<line class="st11" x1="382.7" y1="78.7" x2="382.7" y2="86"/>
							</g>
							<g>
								<line class="st11" x1="360.5" y1="72.6" x2="360.5" y2="79.9"/>
							</g>
							<g>
								<line class="st11" x1="338.2" y1="66.6" x2="338.2" y2="73.9"/>
							</g>
							<g>
								<line class="st11" x1="315.9" y1="60.6" x2="315.9" y2="67.9"/>
							</g>
							<g>
								<line class="st11" x1="293.6" y1="54.5" x2="293.6" y2="61.9"/>
							</g>
							<g>
								<line class="st11" x1="271.3" y1="48.5" x2="271.3" y2="55.8"/>
							</g>
							<g>
								<line class="st11" x1="249" y1="42.5" x2="249" y2="49.8"/>
							</g>
						</g>
						<g>
							<g>
								<line class="st11" x1="415.5" y1="80.2" x2="415.5" y2="87.5"/>
							</g>
							<g>
								<line class="st11" x1="393.2" y1="74.2" x2="393.2" y2="81.5"/>
							</g>
							<g>
								<line class="st11" x1="370.9" y1="68.2" x2="370.9" y2="75.5"/>
							</g>
							<g>
								<line class="st11" x1="348.6" y1="62.1" x2="348.6" y2="69.4"/>
							</g>
							<g>
								<line class="st11" x1="326.3" y1="56.1" x2="326.3" y2="63.4"/>
							</g>
							<g>
								<line class="st11" x1="304" y1="50.1" x2="304" y2="57.4"/>
							</g>
							<g>
								<line class="st11" x1="281.7" y1="44" x2="281.7" y2="51.3"/>
							</g>
							<g>
								<line class="st11" x1="259.5" y1="38" x2="259.5" y2="45.3"/>
							</g>
						</g>
						<g>
							<g>
								<line class="st11" x1="415.5" y1="65.6" x2="415.5" y2="72.9"/>
							</g>
							<g>
								<line class="st11" x1="393.2" y1="59.6" x2="393.2" y2="66.9"/>
							</g>
							<g>
								<line class="st11" x1="370.9" y1="53.5" x2="370.9" y2="60.8"/>
							</g>
							<g>
								<line class="st11" x1="348.6" y1="47.5" x2="348.6" y2="54.8"/>
							</g>
							<g>
								<line class="st11" x1="326.3" y1="41.5" x2="326.3" y2="48.8"/>
							</g>
							<g>
								<line class="st11" x1="304" y1="35.4" x2="304" y2="42.8"/>
							</g>
							<g>
								<line class="st11" x1="281.7" y1="29.4" x2="281.7" y2="36.7"/>
							</g>
							<g>
								<line class="st11" x1="259.5" y1="23.4" x2="259.5" y2="30.7"/>
							</g>
						</g>
						<g>
							<g>
								<line class="st11" x1="405" y1="70.1" x2="405" y2="77.4"/>
							</g>
							<g>
								<line class="st11" x1="382.7" y1="64" x2="382.7" y2="71.4"/>
							</g>
							<g>
								<line class="st11" x1="360.5" y1="58" x2="360.5" y2="65.3"/>
							</g>
							<g>
								<line class="st11" x1="338.2" y1="52" x2="338.2" y2="59.3"/>
							</g>
							<g>
								<line class="st11" x1="315.9" y1="46" x2="315.9" y2="53.3"/>
							</g>
							<g>
								<line class="st11" x1="293.6" y1="39.9" x2="293.6" y2="47.2"/>
							</g>
							<g>
								<line class="st11" x1="271.3" y1="33.9" x2="271.3" y2="41.2"/>
							</g>
							<g>
								<line class="st11" x1="249" y1="27.9" x2="249" y2="35.2"/>
							</g>
						</g>
					</g>
					<g>
						<g>
							<ellipse class="st21" cx="243.4" cy="109" rx="50.5" ry="17.1"/>
							<g>
								<path class="st13" d="M293.9,103.4c0-9.5-22.6-17.1-50.5-17.1s-50.5,7.7-50.5,17.1v5.6c0-9.5,22.6-17.1,50.5-17.1
									s50.5,7.7,50.5,17.1V103.4z"/>
								<line class="st13" x1="195.4" y1="98.1" x2="195.4" y2="103.7"/>
								<line class="st13" x1="197.8" y1="96" x2="197.8" y2="101.6"/>
								<line class="st13" x1="202.2" y1="93.5" x2="202.2" y2="99.1"/>
								<line class="st13" x1="208.4" y1="91.1" x2="208.4" y2="96.7"/>
								<line class="st13" x1="219.7" y1="88.3" x2="219.7" y2="93.9"/>
								<line class="st13" x1="234.4" y1="86.6" x2="234.4" y2="92.2"/>
								<line class="st13" x1="252.4" y1="86.6" x2="252.4" y2="92.2"/>
							</g>
						</g>
						<g>
							<path class="st15" d="M250.4,20.6c0-1.5-3.1-2.7-7-2.7s-7,1.2-7,2.7v51.5c0-1.5,3.1-2.7,7-2.7s7,1.2,7,2.7V20.6z"/>
							<line class="st19" x1="238.1" y1="20.1" x2="238.1" y2="69.7"/>
							<g>
								<path class="st4" d="M250.4,30.6c0-1.5-3.1-2.7-7-2.7s-7,1.2-7,2.7"/>
								<path class="st4" d="M250.4,42.6c0-1.5-3.1-2.7-7-2.7s-7,1.2-7,2.7"/>
								<path class="st4" d="M250.4,54.7c0-1.5-3.1-2.7-7-2.7s-7,1.2-7,2.7"/>
								<path class="st4" d="M250.4,66.7c0-1.5-3.1-2.7-7-2.7s-7,1.2-7,2.7"/>
							</g>
							<path class="st22" d="M236.4,72.1c0-1.5,3.1-2.7,7-2.7s7,1.2,7,2.7"/>
						</g>
					</g>
				</g>
			</g>
			<rect x="60.6" y="128.7" class="st8" width="365.5" height="4.2"/>
		</g>
		<g>
			<line class="st17" x1="413.3" y1="211.6" x2="425.3" y2="211.6"/>
			<line class="st17" x1="393.2" y1="319.3" x2="405.3" y2="319.3"/>
			<line class="st17" x1="152" y1="310" x2="164.1" y2="310"/>
			<line class="st17" x1="81.7" y1="423.3" x2="93.8" y2="423.3"/>
			<line class="st17" x1="391.9" y1="425.6" x2="404" y2="425.6"/>
			<line class="st17" x1="281.7" y1="252.6" x2="293.8" y2="252.6"/>
			<line class="st17" x1="255.5" y1="219.4" x2="267.6" y2="219.4"/>
			<line class="st17" x1="218.2" y1="180" x2="230.3" y2="180"/>
			<line class="st17" x1="333.7" y1="189.7" x2="345.8" y2="189.7"/>
			<line class="st17" x1="377" y1="150.6" x2="389.1" y2="150.6"/>
			<line class="st17" x1="144.7" y1="153.1" x2="156.8" y2="153.1"/>
			<line class="st17" x1="233.7" y1="297.1" x2="245.7" y2="297.1"/>
			<line class="st17" x1="109" y1="256.4" x2="121" y2="256.4"/>
			<line class="st17" x1="410.1" y1="254.2" x2="422.2" y2="254.2"/>
		</g>
	</g>
	<g>
		<g>
			<g>
				<path class="st4" d="M424.3,433.4l-8.7-21.1c-1.9-4.2,2.3-6.7,4.3-2.7l-0.7,0.7c-1.6-2.8-3.8-1.3-2.6,1.3l8.6,20.8L424.3,433.4z
					"/>
				<path class="st3" d="M415.8,406.3l0.5,4.2c0,0,3.3-1.1,2.3-5.4"/>
				<path class="st3" d="M369,379.9c0.9,9.6,10.2,12.9,18.8,7l-1.9-9.8c2.4-1.5,5-2.5,8.3-1.9l3.5,11.6c12.4,0,18.3,9.2,21.9,17.8
					l-4.6,1.9c-1.9-7.5-7.6-13.6-11.9-13.1l1.9,17.2c3,12.8,2.8,16.2,1.6,22.6h-5.6c0.9-8-3.3-21.1-6-21.1s-6.3,13.9-4.4,21.1h-5.6
					c-2.3-10.3-1.8-14.5,1.4-22.8l-0.1-16.2c-12.3,2-20.1-1.6-21.1-13.9L369,379.9z"/>
				<path class="st23" d="M386.5,410.5c-3.2,8.3-3.7,12.6-1.4,22.8h5.6c-1.8-7.2,1.8-21.1,4.4-21.1s6.9,13.1,6,21.1h5.6
					c1.2-6.4,1.4-9.8-1.6-22.6l-5.3-2.7l-1.4,2.8l-3.2-2.8l-3.6,3.1l-0.9-3.7L386.5,410.5z"/>
				<path class="st24" d="M387.8,386.9c-6.9,4.7-14.1,3.6-17.3-1.9l-4.8,1.8c2.8,7.4,10.7,9.2,20.7,7.5c-1.7,7.4-2.6,14.3-2.6,20.9
					C389.9,413.7,395.2,405.7,387.8,386.9z"/>
				<path class="st24" d="M407,415.2c-0.3-9-1.6-16.2-3.9-21.7c3.6-0.4,6.3,4.1,9.5,11.2l5.7-2.7c-4.5-8.5-10-15.2-20.7-15.2
					C395.7,401.4,398.6,410.9,407,415.2z"/>
				<path class="st3" d="M367.8,383.9c-1-0.7-0.4-2.9,1.4-2.4l2-1.6l0.6,0.5l-2,2.9l0.2,0.7"/>
				<path class="st25" d="M366.1,380.8c0.6-0.6,1.6-0.8,2.9-0.4c-0.9-2.5,0.5-2.9,1.7-2.8l0.1-1.1c-1.4-0.4-4.2,0.5-3.3,3.6
					l-0.9,0.1l-1.8-3.8l-1,0.6l1.9,3.7l-2.8-2.6l-0.6,0.9l2.8,2.6l-2.7-1l-0.2,0.6l3.4,1.7l0.3,0.9"/>
				<path class="st24" d="M385.3,377.4c-0.6-3.4-1-5.1-2.9-9.6c0.8-2.7,8.1-4.1,10.1-2.3c0.6,4.1,1.2,6.1,2.4,9.8
					C389.3,375,385.7,376.7,385.3,377.4z"/>
				<path class="st4" d="M384.6,374.2c0.8-1.2,6.1-2.9,9.3-2.1"/>
				<path class="st23" d="M386.2,378.6c-3.1,0.5-6.1-2.3,3.5-4.5c9.6-2.2,7.3,2.4,4.9,2.3l-0.4-1.2c-4.8-0.2-7.9,1.3-8.3,1.9
					L386.2,378.6z"/>
				<polyline class="st4" points="390.7,408.1 391.6,411.1 395.2,408.1 398.4,410.8 399.8,408.1 				"/>
				<polygon class="st26" points="389.6,391.1 389.5,394.2 393,392.3 397.7,393.1 397,389.5 				"/>
				<path class="st4" d="M390.1,414.7c0,0,3.7-5.5,11.3,0"/>
				<path class="st23" d="M395,404.4c-0.5,0.4-0.4,0.8,0,0.7C395.4,404.9,395.3,404.2,395,404.4z"/>
				<path class="st23" d="M394.5,400.1c-0.5,0.4-0.4,0.8,0,0.7C394.9,400.6,394.8,399.9,394.5,400.1z"/>
				<path class="st23" d="M394,395.8c-0.5,0.4-0.4,0.8,0,0.7S394.3,395.6,394,395.8z"/>
			</g>
			<path class="st27" d="M371.8,377.5c-2-0.5-1.7,2.3-0.5,2.4C372.6,380,373.4,377.9,371.8,377.5z"/>
			<path class="st25" d="M387.3,380.2c-2-0.5-1.7,2.3-0.5,2.4C388,382.7,388.9,380.6,387.3,380.2z"/>
			<path class="st28" d="M387.5,433.4c0,0-0.2-2.6-2.9-2.6c0,0-2.9,2.6-5.2,2.6C381.3,435,383.7,435.7,387.5,433.4z"/>
			<path class="st28" d="M390.3,431.7c-0.8,0-1.7,1.1-1.7,1.6c0,0,0.4,0.7,2.3,0.7C390.9,432.8,390.3,431.7,390.3,431.7z"/>
			<path class="st28" d="M404.2,433.4c0,0,0.2-2.6,2.9-2.6c0,0,2.9,2.6,5.2,2.6C410.4,435,408.1,435.7,404.2,433.4z"/>
			<path class="st28" d="M401.2,431.7c0.8,0,1.7,1.1,1.7,1.6c0,0-0.4,0.7-2.3,0.7C400.7,432.8,401.2,431.7,401.2,431.7z"/>
		</g>
		<path class="st3" d="M390.3,383c-3.3-0.6-1.7,4.1-5.7,2.7c0,0,3.8,4.2,6.4-0.3c0,0,3,2.7,6.7-1.3
			C393.8,385.6,393.8,380.8,390.3,383z"/>
	</g>
</g>
</svg>
