<?xml version="1.0" encoding="utf-8"?>
<!-- Generator: Adobe Illustrator 28.3.0, SVG Export Plug-In . SVG Version: 6.00 Build 0)  -->
<svg version="1.1" xmlns="http://www.w3.org/2000/svg" xmlns:xlink="http://www.w3.org/1999/xlink" x="0px" y="0px"
	 viewBox="0 0 600 443.7" style="enable-background:new 0 0 600 443.7;" xml:space="preserve">
<style type="text/css">
	.st0{fill:#FFFFFF;stroke:#000000;stroke-miterlimit:10;}
	.st1{fill:none;stroke:#000000;stroke-miterlimit:10;}
	.st2{fill:#ADCCA2;stroke:#231F20;stroke-miterlimit:10;}
	.st3{fill:#B0B1B3;stroke:#231F20;stroke-miterlimit:10;}
	.st4{fill:none;stroke:#231F20;stroke-miterlimit:10;}
	.st5{fill:#ADCCA2;stroke:#000000;stroke-miterlimit:10;}
	.st6{fill:#EBCF9E;stroke:#000000;stroke-miterlimit:10;}
	.st7{fill:#E1A091;stroke:#231F20;stroke-miterlimit:10;}
	.st8{fill:#DBDADB;stroke:#000000;stroke-miterlimit:10;}
	.st9{fill:#FFFFFF;stroke:#969396;stroke-miterlimit:10;}
	.st10{fill:#F6EBD7;stroke:#000000;stroke-miterlimit:10;}
	.st11{fill:#E6C281;stroke:#000000;stroke-miterlimit:10;}
	.st12{fill:#9DBAD6;stroke:#000000;stroke-miterlimit:10;}
	.st13{fill:#DAE2EE;stroke:#000000;stroke-miterlimit:10;}
	.st14{fill:#E1A091;stroke:#000000;stroke-miterlimit:10;}
	.st15{fill:#F1D5CB;stroke:#000000;stroke-miterlimit:10;}
	.st16{fill:#ADCCA2;}
	.st17{fill:#F6EBD7;stroke:#B92300;stroke-miterlimit:10;}
	.st18{fill:#FFFFFF;stroke:#7AAC68;stroke-miterlimit:10;}
	.st19{fill:#95A3CD;stroke:#000000;stroke-miterlimit:10;}
	.st20{fill:#B92300;stroke:#000000;stroke-miterlimit:10;}
	.st21{fill:#8C9AA3;stroke:#000000;stroke-miterlimit:10;}
	.st22{stroke:#000000;stroke-linejoin:bevel;stroke-miterlimit:10;}
</style>
<g id="Layer_4">
	<g>
		<g>
			<line class="st0" x1="325.7" y1="195.7" x2="330.6" y2="195.7"/>
			<line class="st0" x1="445.4" y1="246.4" x2="450.4" y2="246.4"/>
			<line class="st0" x1="292.3" y1="190" x2="287" y2="190"/>
			<line class="st0" x1="113.1" y1="325.2" x2="107.8" y2="325.2"/>
			<line class="st0" x1="333.1" y1="173.8" x2="337.4" y2="173.8"/>
			<line class="st0" x1="541.4" y1="138.8" x2="545.7" y2="138.8"/>
			<line class="st0" x1="527.7" y1="344.2" x2="532" y2="344.2"/>
			<line class="st0" x1="450.9" y1="159.4" x2="453.2" y2="159.4"/>
			<line class="st0" x1="278.5" y1="161.6" x2="275" y2="161.6"/>
		</g>
		<g>
			<line class="st0" x1="173.4" y1="180.2" x2="178.4" y2="180.2"/>
			<line class="st0" x1="304.1" y1="85.8" x2="309.1" y2="85.8"/>
			<line class="st0" x1="216" y1="163.2" x2="210.7" y2="163.2"/>
			<line class="st0" x1="231.1" y1="209.5" x2="235.4" y2="209.5"/>
			<line class="st0" x1="537.2" y1="91.7" x2="541.4" y2="91.7"/>
			<line class="st0" x1="164.8" y1="87.9" x2="169.1" y2="87.9"/>
			<line class="st0" x1="235" y1="184.1" x2="237.3" y2="184.1"/>
			<line class="st0" x1="311" y1="92" x2="313.2" y2="92"/>
			<line class="st0" x1="406.2" y1="140.2" x2="411.1" y2="140.2"/>
			<line class="st0" x1="413" y1="146.3" x2="415.3" y2="146.3"/>
			<line class="st0" x1="370" y1="179.1" x2="372.3" y2="179.1"/>
			<line class="st0" x1="109.5" y1="344.2" x2="111.7" y2="344.2"/>
			<line class="st0" x1="90.4" y1="306" x2="92.6" y2="306"/>
			<line class="st0" x1="208.5" y1="153.7" x2="210.7" y2="153.7"/>
			<line class="st0" x1="200.4" y1="77.5" x2="202.7" y2="77.5"/>
			<line class="st0" x1="160.1" y1="79.5" x2="162.3" y2="79.5"/>
			<line class="st0" x1="533.5" y1="326.1" x2="535.8" y2="326.1"/>
			<line class="st0" x1="493.2" y1="328.2" x2="495.4" y2="328.2"/>
			<line class="st0" x1="162.3" y1="202.6" x2="158.8" y2="202.6"/>
			<line class="st0" x1="100.1" y1="380.6" x2="96.6" y2="380.6"/>
		</g>
		<line class="st1" x1="225.4" y1="165.7" x2="219.8" y2="166.2"/>
	</g>
	<g>
		<g>
			<rect x="416.8" y="211.8" class="st0" width="78.2" height="5.9"/>
			<rect x="416.8" y="219.4" class="st0" width="45.6" height="5.8"/>
		</g>
		<g>
			<path class="st0" d="M400.3,236c18.6,0,16.9-26,0-26S377,236,400.3,236z"/>
			<path class="st0" d="M399.4,219.8c-8.6,0-10.7,12.8,0,12.8S412,219.8,399.4,219.8z"/>
			<path class="st0" d="M399.8,223.7c-3.4,0-4.2,5,0,5S404.7,223.7,399.8,223.7z"/>
			<path class="st0" d="M399.8,224.8c-3.4,0-4.2,5,0,5S404.7,224.8,399.8,224.8z"/>
			<line class="st0" x1="387" y1="217.7" x2="387" y2="225.4"/>
			<line class="st0" x1="389.9" y1="214" x2="389.9" y2="219.4"/>
			<line class="st0" x1="393.5" y1="212.7" x2="393.5" y2="216.7"/>
			<line class="st0" x1="397.3" y1="210" x2="397.3" y2="214.7"/>
			<line class="st0" x1="401.9" y1="210.1" x2="401.9" y2="215.5"/>
		</g>
		<g>
			<path class="st0" d="M479.7,236c18.6,0,16.9-26,0-26S456.4,236,479.7,236z"/>
			<path class="st0" d="M478.8,219.8c-8.6,0-10.7,12.8,0,12.8S491.4,219.8,478.8,219.8z"/>
			<path class="st0" d="M479.2,223.7c-3.4,0-4.2,5,0,5C483.4,228.7,484.2,223.7,479.2,223.7z"/>
			<path class="st0" d="M479.2,224.8c-3.4,0-4.2,5,0,5C483.4,229.8,484.2,224.8,479.2,224.8z"/>
			<line class="st0" x1="466.4" y1="217.7" x2="466.4" y2="225.4"/>
			<line class="st0" x1="469.3" y1="214" x2="469.3" y2="219.4"/>
			<line class="st0" x1="472.9" y1="212.7" x2="472.9" y2="216.7"/>
			<line class="st0" x1="476.7" y1="210" x2="476.7" y2="214.7"/>
			<line class="st0" x1="481.3" y1="210.1" x2="481.3" y2="215.5"/>
		</g>
		<path class="st0" d="M383.3,227.9c0.9-7.4,3.4-16.1,17.1-16.1c13.3,0,14.5,8.3,15,15.5h1.3c0,0,0-45.1,0-48s-1.1-4.3-4.3-4.3
			s-13.8,0-17.4,0c-3.6,0-19.4,20.8-19.4,26.5s0,17.2,0,20.8c0,3.6,2.2,5.7,5,5.7S383.3,227.9,383.3,227.9z"/>
		<path class="st1" d="M375.6,201.5c0-5.6,15.8-26.5,19.4-26.5v-10.3c-3.6,0-19.4,20.8-19.4,26.5V201.5z"/>
		<path class="st1" d="M395,164.7c3.6,0,14.2,0,17.4,0s4.3,1.4,4.3,4.3v10.3c0-2.9-1.1-4.3-4.3-4.3s-13.8,0-17.4,0V164.7z"/>
		<rect x="376.4" y="206.3" class="st1" width="4.3" height="10.2"/>
		<rect x="404.5" y="200.2" class="st1" width="7.6" height="2.2"/>
		<polyline class="st1" points="387.1,171.4 387.1,182.1 406.2,182.1 406.2,196.1 377.6,196.1 377.6,185.2 		"/>
		<rect x="419.7" y="219.4" class="st0" width="32.4" height="7.6"/>
		<rect x="419.7" y="227" class="st0" width="32.4" height="5.8"/>
	</g>
	<g>
		<g>
			<path class="st0" d="M369.7,154.5c0,0,1.9-38.7,0.8-38.7s-6.3,15.2-6.3,15.2l-3-0.5c0,0,6.2-19.2,8.1-20.9s3.6-0.3,4.9-1.1
				c1.3-0.8,0.8-9.1,1.3-10.7c0.5-1.6,5.8-0.9,7.6,0.2c1.7,1.1-0.8,9.3-1.1,10.2c-0.3,0.9,2.3-2.2,4.5,1c2,2.9,12.3,19,12.3,19
				l-2,1.3c-1.5-2.1-8.8-14.9-10.3-14.3c-1.5,0.6,7.3,38.7,7.3,38.7"/>
			<path class="st0" d="M373.5,128.5c0,0,5.7-2.3,13.7-1.7"/>
			<path class="st0" d="M388.8,153.4c-0.8-4.3-6.6-19.6-8.8-19.7c-2.2-0.1-5.2,21.9-5.2,21.9"/>
		</g>
		<path class="st0" d="M375.1,100.5c0.2-9.9,0.4-10.7-1.6-9.2s-3.2-7.8,1.2-6.8c9.6,2.2,10.7-1.4,12.5,0.8c1.8,2.1-0.2,8.7-1.7,6.9
			s-0.9,5.2-2.2,9.5C383,104,376.8,102.6,375.1,100.5z"/>
		<path class="st1" d="M375.7,84.7c5.6,1.4,6.2,3.1,10,2.6"/>
		<polyline class="st1" points="372.4,108.8 374.3,121.6 370,122.9 		"/>
		<polyline class="st1" points="384.4,107 384.4,120.2 387.9,121.1 		"/>
		<path class="st1" d="M384.4,120.2v-8l-11.2,1.4l1.2,7.9l-2.1,0.6c0.7,4.3,1.3,15.2,1.3,19.6c0,0,10-1.3,15.3-2.7
			c0.3-3.8-1.6-10.9-2.6-18.5L384.4,120.2z"/>
	</g>
	<g>
		<path class="st0" d="M530.9,419.2c-1-3.5-5.8-17.5-12-22.1l3.1-1.5c0,0-5.3-4.4-7.6-15.4c-2.1-10.1,4.7-1.6,9.8,3.2
			c4.2,3.9,7.8-3.8,7.8-7.7l-2.3-1.4c-4,14.7-8.5-7.2-20.4-4.2c-2.4-1.2,1.1-9.8-4.4-10.6c-5.6-0.8-0.8,9.1-2.1,10.3
			c-1.4,1.4-4.1-8.2-6.8-25.3l-3.6,0.8c5.3,22.5,5.8,41,7.5,57.6l2.2-1l1.3,27.3c0,0-3.3,1.8-1.3,2.8"/>
		<path class="st0" d="M508.5,429.2c0,0-0.9-25.4-0.9-28.6c9.4-4.8,16.3,11.8,19.2,19.9"/>
	</g>
	<g>
		<g>
			<path class="st0" d="M74.7,377.7l-0.2-43.5c-4.3,5.4-5.9,14.9-3.9,19.5l-2.7,0.9c-2.7-9-0.2-14.7,6.9-26.5l17.3-0.9
				c2.5,10.4,6.9,13.4,13.1,8.9l2.5,1.1c-7.7,5.9-13.3,5.4-15.6-4.9l3.8,45.4"/>
			<path class="st0" d="M92,377.7c0-35.9-13.6-35.9-13.6,0"/>
			<polyline class="st0" points="72.7,331.5 74.7,328.1 80.3,327.6 82.9,368.2 74.2,368.2 74.5,334.3 73.3,336.1 			"/>
			<polyline class="st0" points="80.3,329 80.3,319.7 87.2,319.7 87.2,330.3 			"/>
			<polyline class="st0" points="87.3,327.2 88.3,367.8 96.8,367 92,332.3 			"/>
			<polyline class="st0" points="80.5,330.3 84.4,331.6 87.2,330.3 			"/>
			<polyline class="st0" points="80.5,334.3 84.4,331.6 87.5,332.9 			"/>
			<path class="st1" d="M80.3,326.3c-3.5-1.2-2.6,8,4.9,10.2c4.5-1.3,6.5-12,2.3-10.2"/>
			<path class="st1" d="M85.2,336.5c0.3,7.6,11.1,16.7,21.6-1"/>
			<path class="st1" d="M107.6,332.8c-2.1,0.3-2.3,2.5,0,2.7C109.9,335.7,109.6,332.5,107.6,332.8z"/>
			<line class="st1" x1="80.5" y1="364.3" x2="89.8" y2="364.3"/>
		</g>
		<g>
			<path class="st0" d="M147.8,155.6c46.2,0.2,37.4-33.2,68.3-28.4l-0.5,2c-24.4-4.6-28,34-67.8,29.3"/>
			<g>
				<path class="st0" d="M185.1,159.8c2.8-15.2,5.6-33.2,2-57.4l6.5,0l9.1,60.8"/>
				<path class="st0" d="M198,163.2c0.4-7.1-1.2-17.6-4.7-24.6l-1.6,0.1c-1.7,6.7-2.1,13.7-1.6,21.1"/>
				<path class="st0" d="M190.2,120.6c3.2,3.9,10.1,7.3,19.5,3.6l1,3.5c-10,3.2-16.9,2.8-20.9-1.6"/>
				<path class="st0" d="M187.5,138c3.4,0.8,5.5,1,9.6,0"/>
			</g>
			<polygon class="st0" points="216.1,125.7 214.8,130.8 216.1,131.4 217.8,126.4 			"/>
			<polygon class="st0" points="217.5,127.2 224.5,130.4 223.7,132.5 216.6,130.1 			"/>
			<polygon class="st0" points="224.5,129.5 223.5,133.1 224.5,133.6 226,129.8 			"/>
			<path class="st0" d="M225.4,132.8c4.6,2,8.9,6.3,12.7,14.4"/>
			<path class="st0" d="M225.7,130.6c5.1,2.9,10,4.9,16.3,14.2"/>
			<path class="st0" d="M233.5,135.3c3.7,3,8.6,10.2,9.8,18"/>
			<path class="st0" d="M227.8,136.7c0,0,3.6,2.6,2.2,3.8S227.8,136.7,227.8,136.7z"/>
		</g>
		<g>
			<path class="st0" d="M463.7,119.2c-14.1,1.2-11.7,19.2,2.4,18l-0.7-3.3c-8.6,1-9.6-8.5-1.2-9.5"/>
			<path class="st0" d="M462.9,161.3c4.2-18.9,4.8-38.7-10.2-48.8l5.2-6c13.1,8.5,26.1,26.5,19.7,54.8"/>
			<path class="st0" d="M473.5,161.3c0.7-9.2-0.2-14.7-2.3-20.4c1.5,8-1.7,18.4-2.6,20.4"/>
			<path class="st0" d="M467.7,141.9c0,0,2.9-1.8,7.8-1.8"/>
			<path class="st0" d="M465.3,118.9c2.9-7.9,6.9-16.3,11.8-25.2l1,1l-1,2.7l1.1,1.1c-4.2,7.9-6.3,17.3-8.7,25.7"/>
			<path class="st0" d="M465.3,136c0,0,7.8-3.5,12-3.5"/>
		</g>
		<g>
			<path class="st0" d="M304.2,195.7c0-6.9,3.7-22.8,3.7-29.2c0-2.5,0-10-6.1-12.2c-3.2-1.2,2.1-3.7,6.1-3.7c0,0,18.1,1.8,17.7,8.3
				s-2.7,26.4,0,33"/>
			<path class="st0" d="M307.9,167.6h2.2l2.1-15.9l2,0.2l-1,15.7h6.9c0,0,1.4-9.8,3.2-12.5"/>
			<polyline class="st1" points="333.1,146.1 293.7,159.1 293.6,157.8 331.1,145 			"/>
			<polygon class="st0" points="332.6,141.2 287,155.5 293.6,157.8 335.8,143.4 			"/>
			<polyline class="st0" points="314.3,153 317.1,142.3 323.8,144.5 322.2,156.5 			"/>
			<path class="st0" d="M314.3,143.8c2.8-9.7,14.2-6.4,11.4,3.3L314.3,143.8z"/>
			<path class="st0" d="M310.1,195.7c0,0,0.6-22.1,5.6-21.9c5.1,0.1,2.6,11.6,5,19.2"/>
			<path class="st0" d="M323.8,161.6c-1.9,0.4-10.9,2.4-12.8-12.2h-3c0,0,0.1,16.7,15.2,16"/>
			<path class="st0" d="M305.2,150.6c-3.8-2.3-6.4-0.9-8.6,1.9c0,0,3.5-1.3,5.3,0.7L305.2,150.6z"/>
			<polyline class="st1" points="287.1,156.8 293.7,159.1 293.6,157.8 			"/>
		</g>
		<g>
			<path class="st0" d="M196.5,80.5c0.6-0.4-1.3-1.4-1.3-1.4c0-13.5-6.1-43.6-2.6-43.3c5.4,0.4,5.6,13.2-0.2,15.5l0.5,3.3
				c10.5-1.4,10.8-22.5-1.2-22.5h-4l-1.3-8h-4.6l-0.1,8l-3,0c-14.7-0.7-15.1,25.1-0.4,25.8l-0.1-4c-8.6-0.6-8.3-17.3-2.3-17.3
				c3.3,0,2.5,46.8,2.5,46.8s-2.1,1.7-1,1.8"/>
			<path class="st0" d="M184.6,82.9c0,0-1.8-25.1,1.2-25.3c3-0.2,3.3,23,3.3,23"/>
			<path class="st0" d="M177.9,53.6c0.1,3.4,15,2.8,14.8-0.3"/>
			<path class="st0" d="M171.8,40.3l8.8,4.4v10.8l-5.7-3C171.2,50,170.4,45.2,171.8,40.3z"/>
			<polygon class="st0" points="183.9,54.9 183.9,44.1 180.5,44.7 180.5,55.5 			"/>
			<polygon class="st0" points="172.6,38.4 183.9,44.1 180.5,44.7 171.8,40.3 			"/>
		</g>
		<g>
			<path class="st0" d="M320.7,85.3c0.7-4.4,1.2-17,0.2-17c-0.9,0-5.7,0.7-5.9-0.2c-0.2-0.9,7.2-26.8,5.6-28.9s-6.8,18-6.8,18
				l-3.3-0.5c0,0,6.5-20.8,7.7-22.9c1.2-2.1,7.3-0.3,8.4-1.2c1.2-0.9-4.2-12.6,4.4-12.6c8.6,0-0.9,12.8,1.6,12.8s5.6,0.5,6.3,1.4
				c0.7,0.9,5.9,20.7,5.9,20.7l-2.8,0.7c0,0-5.6-17.9-6.6-17.2s4,25.2,5.6,28.7c1.6,3.5-5.1,0-6.5,1.2c-1.4,1.2-1.3,12.8-0.9,17.6"
				/>
			<path class="st1" d="M326.9,22c0,0,4.1-1.5,7.9,2l-0.6,2.5c0,0-2.4-3.9-8.1-2.4L326.9,22z"/>
			<line class="st0" x1="324.1" y1="32.7" x2="323.9" y2="39.6"/>
			<line class="st0" x1="333.8" y1="32.7" x2="332.7" y2="39.6"/>
			<line class="st0" x1="320.8" y1="39.6" x2="335.5" y2="39.6"/>
			<line class="st0" x1="326.1" y1="85.4" x2="326.1" y2="68.4"/>
			<line class="st0" x1="329" y1="68.4" x2="328.7" y2="85.4"/>
		</g>
	</g>
	<g>
		<g>
			<polygon class="st0" points="206.5,211.7 204.5,223.3 216.1,227.6 218.1,214.8 			"/>
			<polygon class="st0" points="221.8,215.3 219.8,226.9 216.1,227.6 218.1,214.8 			"/>
			<line class="st0" x1="219.9" y1="216" x2="218.3" y2="225"/>
			<line class="st0" x1="221.8" y1="215.3" x2="210.2" y2="212.2"/>
		</g>
		<path class="st0" d="M193.7,240.2c0,0,3.8-34.1,4.1-36c0.4-1.9,3.8,12.8,16.5,6.8l-1.9-4.1c0,0-7.1,4.5-13.1-7.9c0,0-6.4,0-6-2.3
			c0.4-2.3,1.1-8.3-1.5-8.3s-3.8-1.1-4.9,0c-1.1,1.1,0.4,9.4-1.5,9.4s-16.1-5.3-21.8-7.5l-1.5,4.1c0,0,17.3,5.3,18.4,8.6
			c1.1,3.4-6.8,37.5-6.8,37.5"/>
		<path class="st0" d="M178.9,201.3c3.5,1.9-1.3,16.6-1.3,16.6l9.9,1.6c3-14.5-2-21.6-2-21.6s-1-0.1-2.9-0.7"/>
		<path class="st0" d="M194.2,198c0,0,1.2,11-1.9,21.4l4.8,0.4l0.7-15.7l1.1,2.2"/>
		<path class="st0" d="M181.9,240.6c0,0,3.7-17.2,5.3-16.9s0,16,0,16"/>
		<polyline class="st0" points="185.8,198.4 191.5,201.7 194.2,198 		"/>
		<polyline class="st0" points="187.8,203.4 191.5,201.7 194.5,203 		"/>
		<path class="st0" d="M190,202.6l1.1,1.4c0,0-0.1,9.4-2.7,14.3l1.3,2.2l2.1-2.4c0,0,1.2-8.1,0.4-14.1l1.2-1.4l-2-0.9L190,202.6z"/>
	</g>
	<g>
		<g>
			<rect x="419.7" y="179.4" class="st0" width="78" height="26.9"/>
			<rect x="419.7" y="181.4" class="st0" width="78" height="12.3"/>
			<line class="st0" x1="421.7" y1="206.3" x2="421.7" y2="179.4"/>
			<line class="st0" x1="495.7" y1="179.4" x2="495.7" y2="206.3"/>
			<rect x="419.7" y="206.3" class="st0" width="78" height="12.3"/>
			<line class="st0" x1="419.7" y1="181.4" x2="497.7" y2="181.4"/>
			<line class="st0" x1="419.7" y1="204.3" x2="497.7" y2="204.3"/>
		</g>
		<g>
			<g>
				<path class="st0" d="M422.7,194.4c0.8-18,4.8-31.3,0.8-38.7c-0.5-1-6.3,15.2-6.3,15.2l-3-0.5c0,0,6.2-19.2,8.1-20.9
					s3.6-0.3,4.9-1.1c1.3-0.8,0.8-9.1,1.3-10.7c0.5-1.6,5.8-0.9,7.6,0.2c1.7,1.1-0.8,9.3-1.1,10.2s2.3-2.2,4.5,1
					c2,2.9,12.3,19,12.3,19l-2,1.3c-1.5-2.1-9.4-15.6-10.3-14.3c-3.2,4.9,4.7,33.6,7.3,38.7c2.4,0.2,2.4,2.4-0.5,2.4 M441.7,194.5
					c0,0-5.8-25.9-9.6-25.8c-3.8,0.1-4.9,26.1-4.9,26.1c1.3,0.1,3,2.2,0,2.7"/>
			</g>
			<path class="st0" d="M425.4,140.9c1.2-10.4,14-8.9,12.8,1.5L425.4,140.9z"/>
			<path class="st0" d="M424.5,161.4c0,0,8.4-3.3,14-0.2"/>
			<polyline class="st1" points="436.2,160.3 436.7,147.8 434.6,148.2 434.3,160 			"/>
			<polyline class="st1" points="429.7,160.1 426.9,148.5 425.4,148.5 427.5,160.5 			"/>
		</g>
		<g>
			<path class="st0" d="M401.3,112.7c7.8,0-1-35.8,1.9-44.5c0.3-0.8-6.3,18.3-6.3,18.3l-3.2-0.3c0,0,4.8-17.2,8.4-22.6
				c0.7-1,2.2-0.9,2.7-1c2.8-0.3-0.3-12,1.8-13.2c2.1-1.2,4.5-0.9,6,0.6c1.5,1.5-0.7,10.7-0.9,11.7c-0.4,1.7,8.8-7.7,11.3-19.6
				l3.1,0.9c-1.8,12.1-10.1,21.4-9.2,25.2c1.6,10.4,5.9,43.7,7.7,43.7"/>
			<path class="st0" d="M409.8,113.5c0.9-0.1-2.6-23.6,0.9-25c3.5-1.4,7.7,23.1,9.5,24.2"/>
			<path class="st0" d="M403.3,84.7c0,0,4.7-4,15.7-2.8"/>
			<path class="st1" d="M404.7,62.6c-1.2,2.6,5.7,1.6,6.9-0.9"/>
		</g>
	</g>
	<g>
		<g>
			<path class="st2" d="M487.6,153.1L508.7,9.9l25.6,142.2C523.4,151.1,500.9,155.5,487.6,153.1z"/>
			<g>
				<polyline class="st3" points="510.9,113.6 519.7,99.5 510.9,107.3 				"/>
				<polyline class="st3" points="509.8,57.5 505.8,51.8 509.8,61.3 				"/>
				<polyline class="st3" points="509.8,67.7 513.8,61.3 509.8,64.5 				"/>
				<polyline class="st3" points="509.8,77.7 504.6,70.6 509.8,82.3 				"/>
				<polyline class="st3" points="509.8,99.5 503.8,90.5 508.9,104.3 				"/>
				<polyline class="st3" points="508.7,140.4 497.4,133 507.8,145.6 				"/>
			</g>
			<g>
				<polyline class="st3" points="513.8,175.9 509.8,35.6 505.8,175.9 				"/>
				<line class="st4" x1="501.6" y1="175.9" x2="509.6" y2="175.9"/>
				<line class="st4" x1="517.9" y1="175.9" x2="525.9" y2="175.9"/>
				<g>
					<polyline class="st3" points="510.9,133 522,115.4 510.9,124.9 					"/>
					<polyline class="st3" points="509.8,120.2 500.9,110.7 508.9,124.9 					"/>
					<polyline class="st3" points="510.9,90.5 515.3,81.3 509.8,85.9 					"/>
				</g>
				<line class="st4" x1="500.9" y1="73.9" x2="495.8" y2="79.9"/>
				<line class="st4" x1="498.3" y1="88.8" x2="494.5" y2="94.8"/>
				<line class="st4" x1="497.4" y1="99.5" x2="494.5" y2="101.3"/>
				<line class="st4" x1="525.9" y1="111.7" x2="529.8" y2="115.4"/>
				<line class="st4" x1="525.9" y1="122.7" x2="531.8" y2="128"/>
				<line class="st4" x1="529.8" y1="135.4" x2="534.3" y2="137.1"/>
				<line class="st4" x1="512.6" y1="44.6" x2="516.5" y2="46.2"/>
				<line class="st4" x1="508.7" y1="23.1" x2="503" y2="29.6"/>
				<line class="st4" x1="510.9" y1="31.5" x2="514.5" y2="33.9"/>
				<line class="st4" x1="492.2" y1="151.2" x2="489.7" y2="155.4"/>
				<line class="st4" x1="498.3" y1="152" x2="499.2" y2="155"/>
				<line class="st4" x1="492.2" y1="131.9" x2="487.6" y2="135.4"/>
				<line class="st4" x1="518.3" y1="149.9" x2="522" y2="155"/>
				<line class="st4" x1="528.9" y1="149.9" x2="531" y2="154.1"/>
				<line class="st4" x1="503" y1="124" x2="500.9" y2="128"/>
				<line class="st4" x1="500.9" y1="124" x2="498.3" y2="125.3"/>
				<line class="st4" x1="499.6" y1="121.2" x2="494.5" y2="121.2"/>
				<line class="st4" x1="523.4" y1="135.4" x2="525.9" y2="138.2"/>
				<line class="st4" x1="522" y1="137.1" x2="522" y2="141.7"/>
				<line class="st4" x1="523.4" y1="131.9" x2="525.9" y2="131.9"/>
				<line class="st4" x1="515.3" y1="90.5" x2="518.3" y2="88.6"/>
				<line class="st4" x1="516.5" y1="93" x2="518.3" y2="92.5"/>
				<line class="st4" x1="515.3" y1="94.8" x2="518.3" y2="96.9"/>
				<line class="st4" x1="517.4" y1="69" x2="521" y2="67.7"/>
				<line class="st4" x1="518.3" y1="72.4" x2="521" y2="72.4"/>
				<line class="st4" x1="517.4" y1="75.5" x2="522" y2="79.9"/>
				<line class="st4" x1="499.2" y1="175.9" x2="489.7" y2="175.9"/>
			</g>
		</g>
		<g>
			<g>
				<path class="st0" d="M255.4,94.2c-2.1-12.7,17.3-13.8,17.3-0.6C272.6,101.2,257.1,104.6,255.4,94.2z"/>
				<path class="st5" d="M279.2,102.2c13-28.1-31.5-42.7-39.6-12.2C234.9,107.7,268.6,125.3,279.2,102.2z"/>
				<g>
					<line class="st0" x1="269.8" y1="87.9" x2="246.2" y2="87.4"/>
					<line class="st0" x1="272.6" y1="91.6" x2="249" y2="91.1"/>
					<line class="st0" x1="269.8" y1="84.4" x2="246.2" y2="83.9"/>
				</g>
				<path class="st5" d="M283.5,98.2c7.5-16.2-18.2-24.7-22.9-7.1C257.9,101.3,277.3,111.5,283.5,98.2z"/>
				<polyline class="st6" points="259.3,166.2 258.4,80.5 252.5,80.5 253.4,166.1 				"/>
				<g>
					<path class="st1" d="M258.9,131.3c0,11.4-5.6,13.6-5.6,34.8"/>
					<path class="st1" d="M258.9,115.9c0,11.4-5.6,13.6-5.6,34.8"/>
				</g>
				<path class="st5" d="M273.2,61.8c-6,12.9,14.5,19.7,18.2,5.6C293.7,59.2,278.1,51.1,273.2,61.8z"/>
				<line class="st0" x1="280.2" y1="71.5" x2="274.3" y2="71.4"/>
				<line class="st0" x1="275.8" y1="66" x2="269.8" y2="65.8"/>
				<path class="st5" d="M256.4,39.4c-6,12.9,14.5,19.7,18.2,5.6C276.8,36.9,261.3,28.8,256.4,39.4z"/>
				<path class="st5" d="M249.6,81.2c19.9,2.9,20.8-27.6,0.3-27C237.9,54.5,233.2,78.8,249.6,81.2z"/>
				<path class="st5" d="M258.2,116.2c15.5,12.8,32.1-12.7,14.3-22.9C262.1,87.5,245.5,105.7,258.2,116.2z"/>
				<path class="st5" d="M239.4,112.4c-11.7,8.1,2.4,24.3,12.8,14.2C258.2,120.6,249,105.8,239.4,112.4z"/>
				<line class="st0" x1="245.3" y1="126.3" x2="234.3" y2="126.1"/>
				<line class="st0" x1="245.5" y1="124" x2="239.5" y2="123.9"/>
				<line class="st0" x1="239.8" y1="121.3" x2="233.8" y2="121.2"/>
				<path class="st5" d="M261.9,124.2c-5.7,12.4,13.8,18.8,17.4,5.4C281.4,121.7,266.6,114,261.9,124.2z"/>
				<line class="st0" x1="281.9" y1="69.7" x2="269.5" y2="69.4"/>
			</g>
			<line class="st1" x1="263.9" y1="165.7" x2="231.8" y2="166.2"/>
		</g>
		<g>
			<path class="st7" d="M106.8,289.7c-12.1-50.5,30-72.2,8.3-126.6h3.2c21.7,54.3-15.4,74.9,0,126.6"/>
			<g>
				<path class="st2" d="M144.3,175.9c0-72-48.8-72-48.8,0H144.3z"/>
				<path class="st4" d="M126.7,144.6c5.7,8.4,7.4,14.7,7.4,31.3"/>
				<path class="st4" d="M110.4,140.2c1.9-7,4.9-13.4,9.5-18.4"/>
				<path class="st4" d="M107.1,175.9c0-5.6,0-12.3,0.6-19.3"/>
				<path class="st4" d="M104.7,159.9c0.5-5.4,1.3-11,2.7-16.3"/>
				<path class="st4" d="M111.3,128.6c2.4-2.9,5.2-5.2,8.5-6.8c-6.6,27.7,8,32.7,8,54"/>
				<path class="st4" d="M100.1,175.9c0-11.8,1.1-24.9,4.9-35.6"/>
				<path class="st4" d="M102.5,141.1c1.6-4.4,3.7-8.4,6.4-11.7"/>
				<path class="st4" d="M119.9,121.9c-1,23.6,21.3,32.7,21.3,54"/>
				<path class="st4" d="M95.5,175.9c0-11.8,5.6-17.8,6.7-24.9"/>
				<path class="st4" d="M119,143.6c2.9,15.7-9.1,13-3.5,32.3"/>
				<line class="st4" x1="112.7" y1="125.3" x2="108.1" y2="123.2"/>
				<path class="st4" d="M114,124.3c0,0-4.2-4.4-3.6-4"/>
				<line class="st4" x1="115.5" y1="123.2" x2="115.1" y2="118.1"/>
			</g>
			<path class="st7" d="M113.3,255.4c0-31.6-24.6-29.6-24.6-57.6h-1.7c0,28,21.3,26,21.3,57.6"/>
			<path class="st7" d="M114.2,255.4c9.5-3.4,20.8-12.8,20.8-29h-1.7c0,15.3-9.5,20.1-19.1,23.6"/>
			<path class="st4" d="M125.1,202.1c-0.2,6.7-8.2,31.1-10.9,37.9"/>
			<path class="st4" d="M113.3,259.9c-1,13.8,0.5,21.3,3,27.8"/>
			<path class="st2" d="M147.4,231.9c0-38.4-24.6-38.4-24.6,0H147.4z"/>
			<path class="st2" d="M110.4,208c0-65-42.2-65-42.2,0H110.4z"/>
			<path class="st4" d="M89.3,159.3c-13.7,14.7-14,29.7-14,48.8"/>
			<path class="st4" d="M89.3,159.3C75.6,174,83.6,189,83.6,208"/>
			<path class="st4" d="M89.3,159.3c12.3,11.4,15.4,29.7,15.4,48.8"/>
			<path class="st4" d="M89.3,159.3c0,28.2,10.8,21.1,10.8,48.8"/>
			<path class="st4" d="M127.8,231.9c0-12.1,1.4-21,7.3-28.8"/>
			<path class="st4" d="M141.2,231.9c0-12.1-11.9-21-6.1-28.8"/>
			<path class="st4" d="M144.3,231.9c3.9-8.4-10.2-14.4-1.7-24.9"/>
			<path class="st4" d="M130.4,212c-3.6,5.6-7.6,12.3-7.6,19.9"/>
			<path class="st4" d="M91.5,176.7c3,6.8-9.5,14.2-8.1,27.4"/>
			<path class="st4" d="M79,175.9c-2.4,9.1-10.7,16.4-10.7,24.2"/>
			<path class="st4" d="M118.4,214.6c-1.9,6.7-0.5,15.1-2.4,20.7"/>
			<path class="st4" d="M107.1,244c-3-15.2-10.8-20.8-14.8-30.3"/>
			<path class="st4" d="M106.8,289.7c-3.4-14.1,10-29.8,0-57.2"/>
			<line class="st4" x1="147.4" y1="289.7" x2="129.3" y2="289.7"/>
			<line class="st4" x1="115.1" y1="289.7" x2="97.1" y2="289.7"/>
			<path class="st4" d="M114.9,255.1c7.6-3,16.7-14.3,17.5-21.5"/>
			<line class="st4" x1="138.5" y1="204.8" x2="140.4" y2="201.7"/>
			<line class="st4" x1="137.3" y1="204.8" x2="136.3" y2="199.5"/>
			<line class="st4" x1="132.5" y1="203.8" x2="130.4" y2="201.7"/>
			<line class="st4" x1="85.8" y1="161.5" x2="81.3" y2="157.1"/>
			<line class="st4" x1="87.7" y1="160.2" x2="89.3" y2="152.6"/>
			<line class="st4" x1="91" y1="161" x2="94.7" y2="155.3"/>
		</g>
		<g>
			<g>
				<path class="st5" d="M508.9,260c8.4-18.3-20.5-27.8-25.8-8C480.1,263.6,502,275,508.9,260z"/>
				<path class="st5" d="M531.2,277.3c13-28.1-31.5-42.7-39.6-12.2C486.9,282.8,520.5,300.4,531.2,277.3z"/>
				<g>
					<line class="st0" x1="527.7" y1="264.2" x2="504" y2="263.7"/>
					<line class="st0" x1="524.8" y1="267.9" x2="501.2" y2="267.4"/>
					<line class="st0" x1="524.8" y1="260.7" x2="501.2" y2="260.2"/>
				</g>
				<path class="st5" d="M535.5,302.7c7.5-16.2-18.2-24.7-22.9-7.1C509.9,305.9,529.3,316.1,535.5,302.7z"/>
				<path class="st5" d="M507.3,279.1c-2.1-12.7,17.3-13.8,17.3-0.6C524.6,286.1,509.1,289.5,507.3,279.1z"/>
				<polyline class="st6" points="511.3,351.1 510.4,265.4 504.5,265.4 505.3,351.1 				"/>
				<path class="st1" d="M511.3,343.1c0-20.4-6.8-42.4-6.8-77.8"/>
				<path class="st5" d="M516.7,244c-6,12.9,14.5,19.7,18.2,5.6C537.2,241.5,521.7,233.4,516.7,244z"/>
				<path class="st5" d="M493.5,283.5c18.3,8.4,27.8-20.5,8-25.8C489.9,254.6,478.5,276.5,493.5,283.5z"/>
				<path class="st5" d="M479.2,285.7c-6,12.9,14.5,19.7,18.2,5.6C499.7,283.2,484.1,275.1,479.2,285.7z"/>
				<path class="st5" d="M489.1,306c-6,12.9,14.5,19.7,18.2,5.6C509.5,303.4,494,295.3,489.1,306z"/>
				<path class="st5" d="M513.9,309.1c-5.7,12.4,13.8,18.8,17.4,5.4C533.4,306.7,518.6,299,513.9,309.1z"/>
				<path class="st0" d="M525.8,351.1c0-7.8-17.4-10.1-17.4,0"/>
				<line class="st0" x1="515.7" y1="350.8" x2="538.3" y2="351.2"/>
			</g>
		</g>
	</g>
</g>
<g id="_x31_andar">
	<g>
		<g>
			<rect x="121.5" y="346.8" class="st8" width="365.5" height="82"/>
			<g>
				<g>
					<rect x="121.5" y="421.9" class="st6" width="11.1" height="6.9"/>
					<rect x="121.5" y="414.9" class="st6" width="5.5" height="6.9"/>
				</g>
				<g>
					<rect x="121.5" y="408" class="st6" width="11.1" height="6.9"/>
					<rect x="121.5" y="401" class="st6" width="5.5" height="6.9"/>
				</g>
				<g>
					<rect x="121.5" y="394.4" class="st6" width="11.1" height="6.9"/>
					<rect x="121.5" y="387.5" class="st6" width="5.5" height="6.9"/>
				</g>
				<g>
					<rect x="121.5" y="380.9" class="st6" width="11.1" height="6.9"/>
					<rect x="121.5" y="373.9" class="st6" width="5.5" height="6.9"/>
				</g>
				<g>
					<rect x="121.5" y="367.3" class="st6" width="11.1" height="6.9"/>
					<rect x="121.5" y="360.4" class="st6" width="5.5" height="6.9"/>
				</g>
				<g>
					<rect x="121.5" y="353.8" class="st6" width="11.1" height="6.9"/>
					<rect x="121.5" y="346.8" class="st6" width="5.5" height="6.9"/>
				</g>
			</g>
			<g>
				<g>
					
						<rect x="475.9" y="421.9" transform="matrix(-1 -2.774548e-11 2.774548e-11 -1 962.8243 850.7003)" class="st6" width="11.1" height="6.9"/>
					
						<rect x="481.4" y="414.9" transform="matrix(-1 -2.774548e-11 2.774548e-11 -1 968.3641 836.8019)" class="st6" width="5.5" height="6.9"/>
				</g>
				<g>
					
						<rect x="475.9" y="408" transform="matrix(-1 -2.774548e-11 2.774548e-11 -1 962.8243 822.9036)" class="st6" width="11.1" height="6.9"/>
					
						<rect x="481.4" y="401" transform="matrix(-1 -2.774548e-11 2.774548e-11 -1 968.3641 809.0052)" class="st6" width="5.5" height="6.9"/>
				</g>
				<g>
					
						<rect x="475.9" y="394.4" transform="matrix(-1 -2.774548e-11 2.774548e-11 -1 962.8243 795.7921)" class="st6" width="11.1" height="6.9"/>
					
						<rect x="481.4" y="387.5" transform="matrix(-1 -2.774548e-11 2.774548e-11 -1 968.3641 781.8937)" class="st6" width="5.5" height="6.9"/>
				</g>
				<g>
					
						<rect x="475.9" y="380.9" transform="matrix(-1 -2.774548e-11 2.774548e-11 -1 962.8243 768.6805)" class="st6" width="11.1" height="6.9"/>
					
						<rect x="481.4" y="373.9" transform="matrix(-1 -2.774548e-11 2.774548e-11 -1 968.3641 754.7822)" class="st6" width="5.5" height="6.9"/>
				</g>
				<g>
					
						<rect x="475.9" y="367.3" transform="matrix(-1 -2.774548e-11 2.774548e-11 -1 962.8243 741.569)" class="st6" width="11.1" height="6.9"/>
					
						<rect x="481.4" y="360.4" transform="matrix(-1 -2.774548e-11 2.774548e-11 -1 968.3641 727.6707)" class="st6" width="5.5" height="6.9"/>
				</g>
				<g>
					
						<rect x="475.9" y="353.8" transform="matrix(-1 -2.774548e-11 2.774548e-11 -1 962.8243 714.4575)" class="st6" width="11.1" height="6.9"/>
					
						<rect x="481.4" y="346.8" transform="matrix(-1 -2.774548e-11 2.774548e-11 -1 968.3641 700.5591)" class="st6" width="5.5" height="6.9"/>
				</g>
			</g>
			<g>
				<line class="st9" x1="142.5" y1="423.3" x2="154.6" y2="423.3"/>
				<line class="st9" x1="457" y1="425.6" x2="469.1" y2="425.6"/>
			</g>
			<rect x="141.5" y="364.4" class="st0" width="135.2" height="53.9"/>
			<rect x="331.8" y="364.4" class="st0" width="135.2" height="53.9"/>
			<g>
				<rect x="331.8" y="418.3" class="st6" width="135.2" height="2.5"/>
				<rect x="331.8" y="415.8" class="st10" width="135.2" height="2.5"/>
			</g>
			<g>
				<rect x="141.5" y="418.3" class="st6" width="135.2" height="2.5"/>
				<rect x="141.5" y="415.8" class="st10" width="135.2" height="2.5"/>
			</g>
			<rect x="121.5" y="338.3" class="st11" width="365.5" height="8.5"/>
			<rect x="121.5" y="334.1" class="st6" width="365.5" height="4.2"/>
			<rect x="276.7" y="364.4" class="st0" width="55.1" height="64.4"/>
			<rect x="276.7" y="426.3" class="st10" width="55.1" height="2.5"/>
			<rect x="276.7" y="353.5" class="st0" width="55.1" height="10.9"/>
			<g>
				<path class="st12" d="M276.7,362.6c0,4-5.3,7.3-11.8,7.3c-6.5,0-11.8-3.3-11.8-7.3c0,4-5.3,7.3-11.8,7.3
					c-6.5,0-11.8-3.3-11.8-7.3c0,4-5.3,7.3-11.8,7.3c-6.5,0-11.8-3.3-11.8-7.3c0,4-5.3,7.3-11.8,7.3c-6.5,0-11.8-3.3-11.8-7.3
					c0,4-5.3,7.3-11.8,7.3s-11.8-3.3-11.8-7.3c0,4-5.3,7.3-11.8,7.3s-11.8-3.3-11.8-7.3v-1.4h142.2V362.6z"/>
				<rect x="134.5" y="346.6" class="st13" width="142.2" height="14.6"/>
				<path class="st14" d="M158.2,362.6c0,4,5.3,7.3,11.8,7.3s11.8-3.3,11.8-7.3v-1.4h-23.7V362.6z"/>
				<rect x="158.2" y="346.6" class="st15" width="23.7" height="14.6"/>
				<path class="st14" d="M205.6,362.6c0,4,5.3,7.3,11.8,7.3c6.5,0,11.8-3.3,11.8-7.3v-1.4h-23.7V362.6z"/>
				<rect x="205.6" y="346.6" class="st15" width="23.7" height="14.6"/>
				<path class="st14" d="M253,362.6c0,4,5.3,7.3,11.8,7.3c6.5,0,11.8-3.3,11.8-7.3v-1.4H253V362.6z"/>
				<rect x="253" y="346.6" class="st15" width="23.7" height="14.6"/>
			</g>
		</g>
		<g>
			<polygon class="st16" points="121.5,334.1 304.2,284.7 304.2,334.1 			"/>
			<g>
				<polygon class="st10" points="121.5,334.1 304.2,284.7 304.2,275.6 121.5,325 				"/>
				<polygon class="st10" points="121.5,273.9 304.2,224.4 304.2,215.3 121.5,264.8 				"/>
			</g>
			<g>
				<polygon class="st14" points="121.5,273.9 304.2,224.4 304.2,275.6 121.5,325 				"/>
				<g>
					<line class="st10" x1="304.2" y1="268.3" x2="121.5" y2="317.7"/>
					<line class="st10" x1="304.2" y1="261" x2="121.5" y2="310.4"/>
					<line class="st10" x1="304.2" y1="253.7" x2="121.5" y2="303.1"/>
					<line class="st10" x1="304.2" y1="246.3" x2="121.5" y2="295.8"/>
					<line class="st10" x1="304.2" y1="239" x2="121.5" y2="288.5"/>
					<line class="st10" x1="304.2" y1="231.7" x2="121.5" y2="281.2"/>
				</g>
				<g>
					<line class="st17" x1="305.1" y1="269.2" x2="122.4" y2="318.6"/>
					<line class="st17" x1="305.1" y1="261.9" x2="122.4" y2="311.3"/>
					<line class="st17" x1="305.1" y1="254.6" x2="122.4" y2="304"/>
					<line class="st17" x1="305.1" y1="247.2" x2="122.4" y2="296.7"/>
					<line class="st17" x1="305.1" y1="239.9" x2="122.4" y2="289.4"/>
					<line class="st17" x1="305.1" y1="232.6" x2="122.4" y2="282.1"/>
					<line class="st17" x1="305.1" y1="225.3" x2="122.4" y2="274.8"/>
				</g>
				<g>
					<g>
						<line class="st10" x1="132.1" y1="314.8" x2="132.1" y2="322.1"/>
					</g>
					<g>
						<line class="st10" x1="154.4" y1="308.8" x2="154.4" y2="316.1"/>
					</g>
					<g>
						<line class="st10" x1="176.7" y1="302.8" x2="176.7" y2="310.1"/>
					</g>
					<g>
						<line class="st10" x1="199" y1="296.7" x2="199" y2="304.1"/>
					</g>
					<g>
						<line class="st10" x1="221.3" y1="290.7" x2="221.3" y2="298"/>
					</g>
					<g>
						<line class="st10" x1="243.5" y1="284.7" x2="243.5" y2="292"/>
					</g>
					<g>
						<line class="st10" x1="265.8" y1="278.7" x2="265.8" y2="286"/>
					</g>
					<g>
						<line class="st10" x1="288.1" y1="272.6" x2="288.1" y2="279.9"/>
					</g>
				</g>
				<g>
					<g>
						<line class="st10" x1="132.1" y1="300.2" x2="132.1" y2="307.5"/>
					</g>
					<g>
						<line class="st10" x1="154.4" y1="294.2" x2="154.4" y2="301.5"/>
					</g>
					<g>
						<line class="st10" x1="176.7" y1="288.2" x2="176.7" y2="295.5"/>
					</g>
					<g>
						<line class="st10" x1="199" y1="282.1" x2="199" y2="289.4"/>
					</g>
					<g>
						<line class="st10" x1="221.3" y1="276.1" x2="221.3" y2="283.4"/>
					</g>
					<g>
						<line class="st10" x1="243.5" y1="270.1" x2="243.5" y2="277.4"/>
					</g>
					<g>
						<line class="st10" x1="265.8" y1="264" x2="265.8" y2="271.3"/>
					</g>
					<g>
						<line class="st10" x1="288.1" y1="258" x2="288.1" y2="265.3"/>
					</g>
				</g>
				<g>
					<g>
						<line class="st10" x1="142.5" y1="304.7" x2="142.5" y2="312"/>
					</g>
					<g>
						<line class="st10" x1="164.8" y1="298.7" x2="164.8" y2="306"/>
					</g>
					<g>
						<line class="st10" x1="187.1" y1="292.6" x2="187.1" y2="299.9"/>
					</g>
					<g>
						<line class="st10" x1="209.4" y1="286.6" x2="209.4" y2="293.9"/>
					</g>
					<g>
						<line class="st10" x1="231.7" y1="280.6" x2="231.7" y2="287.9"/>
					</g>
					<g>
						<line class="st10" x1="254" y1="274.5" x2="254" y2="281.9"/>
					</g>
					<g>
						<line class="st10" x1="276.3" y1="268.5" x2="276.3" y2="275.8"/>
					</g>
					<g>
						<line class="st10" x1="298.6" y1="262.5" x2="298.6" y2="269.8"/>
					</g>
				</g>
				<g>
					<g>
						<line class="st10" x1="142.5" y1="290.1" x2="142.5" y2="297.4"/>
					</g>
					<g>
						<line class="st10" x1="164.8" y1="284.1" x2="164.8" y2="291.4"/>
					</g>
					<g>
						<line class="st10" x1="187.1" y1="278" x2="187.1" y2="285.3"/>
					</g>
					<g>
						<line class="st10" x1="209.4" y1="272" x2="209.4" y2="279.3"/>
					</g>
					<g>
						<line class="st10" x1="231.7" y1="266" x2="231.7" y2="273.3"/>
					</g>
					<g>
						<line class="st10" x1="254" y1="259.9" x2="254" y2="267.2"/>
					</g>
					<g>
						<line class="st10" x1="276.3" y1="253.9" x2="276.3" y2="261.2"/>
					</g>
					<g>
						<line class="st10" x1="298.6" y1="247.9" x2="298.6" y2="255.2"/>
					</g>
				</g>
				<g>
					<g>
						<line class="st10" x1="132.1" y1="285.6" x2="132.1" y2="292.9"/>
					</g>
					<g>
						<line class="st10" x1="154.4" y1="279.6" x2="154.4" y2="286.9"/>
					</g>
					<g>
						<line class="st10" x1="176.7" y1="273.5" x2="176.7" y2="280.8"/>
					</g>
					<g>
						<line class="st10" x1="199" y1="267.5" x2="199" y2="274.8"/>
					</g>
					<g>
						<line class="st10" x1="221.3" y1="261.5" x2="221.3" y2="268.8"/>
					</g>
					<g>
						<line class="st10" x1="243.5" y1="255.5" x2="243.5" y2="262.8"/>
					</g>
					<g>
						<line class="st10" x1="265.8" y1="249.4" x2="265.8" y2="256.7"/>
					</g>
					<g>
						<line class="st10" x1="288.1" y1="243.4" x2="288.1" y2="250.7"/>
					</g>
				</g>
				<g>
					<g>
						<line class="st10" x1="132.1" y1="271" x2="132.1" y2="278.3"/>
					</g>
					<g>
						<line class="st10" x1="154.4" y1="265" x2="154.4" y2="272.3"/>
					</g>
					<g>
						<line class="st10" x1="176.7" y1="258.9" x2="176.7" y2="266.2"/>
					</g>
					<g>
						<line class="st10" x1="199" y1="252.9" x2="199" y2="260.2"/>
					</g>
					<g>
						<line class="st10" x1="221.3" y1="246.9" x2="221.3" y2="254.2"/>
					</g>
					<g>
						<line class="st10" x1="243.5" y1="240.8" x2="243.5" y2="248.1"/>
					</g>
					<g>
						<line class="st10" x1="265.8" y1="234.8" x2="265.8" y2="242.1"/>
					</g>
					<g>
						<line class="st10" x1="288.1" y1="228.8" x2="288.1" y2="236.1"/>
					</g>
				</g>
				<g>
					<g>
						<line class="st10" x1="142.5" y1="275.5" x2="142.5" y2="282.8"/>
					</g>
					<g>
						<line class="st10" x1="164.8" y1="269.4" x2="164.8" y2="276.7"/>
					</g>
					<g>
						<line class="st10" x1="187.1" y1="263.4" x2="187.1" y2="270.7"/>
					</g>
					<g>
						<line class="st10" x1="209.4" y1="257.4" x2="209.4" y2="264.7"/>
					</g>
					<g>
						<line class="st10" x1="231.7" y1="251.3" x2="231.7" y2="258.7"/>
					</g>
					<g>
						<line class="st10" x1="254" y1="245.3" x2="254" y2="252.6"/>
					</g>
					<g>
						<line class="st10" x1="276.3" y1="239.3" x2="276.3" y2="246.6"/>
					</g>
					<g>
						<line class="st10" x1="298.6" y1="233.3" x2="298.6" y2="240.6"/>
					</g>
				</g>
			</g>
			<polygon class="st16" points="487,334.1 304.2,284.7 304.2,334.1 			"/>
			<g>
				<line class="st18" x1="356.2" y1="317.2" x2="368.3" y2="317.2"/>
				<line class="st18" x1="434.7" y1="326.5" x2="446.8" y2="326.5"/>
				<line class="st18" x1="266.5" y1="324" x2="278.6" y2="324"/>
				<line class="st18" x1="251.2" y1="316.1" x2="263.2" y2="316.1"/>
				<line class="st18" x1="152.8" y1="330.4" x2="164.8" y2="330.4"/>
			</g>
			<g>
				<polygon class="st10" points="487,334.1 304.2,284.7 304.2,275.6 487,325 				"/>
				<polygon class="st10" points="487,273.9 304.2,224.4 304.2,215.3 487,264.8 				"/>
			</g>
			<g>
				<polygon class="st14" points="487,273.9 304.2,224.4 304.2,275.6 487,325 				"/>
				<g>
					<line class="st10" x1="304.2" y1="268.3" x2="487" y2="317.7"/>
					<line class="st10" x1="304.2" y1="261" x2="487" y2="310.4"/>
					<line class="st10" x1="304.2" y1="253.7" x2="487" y2="303.1"/>
					<line class="st10" x1="304.2" y1="246.3" x2="487" y2="295.8"/>
					<line class="st10" x1="304.2" y1="239" x2="487" y2="288.5"/>
					<line class="st10" x1="304.2" y1="231.7" x2="487" y2="281.2"/>
				</g>
				<g>
					<line class="st17" x1="303.3" y1="269.2" x2="486" y2="318.6"/>
					<line class="st17" x1="303.3" y1="261.9" x2="486" y2="311.3"/>
					<line class="st17" x1="303.3" y1="254.6" x2="486" y2="304"/>
					<line class="st17" x1="303.3" y1="247.2" x2="486" y2="296.7"/>
					<line class="st17" x1="303.3" y1="239.9" x2="486" y2="289.4"/>
					<line class="st17" x1="303.3" y1="232.6" x2="486" y2="282.1"/>
					<line class="st17" x1="303.3" y1="225.3" x2="486" y2="274.8"/>
				</g>
				<g>
					<g>
						<line class="st10" x1="476.3" y1="314.8" x2="476.3" y2="322.1"/>
					</g>
					<g>
						<line class="st10" x1="454" y1="308.8" x2="454" y2="316.1"/>
					</g>
					<g>
						<line class="st10" x1="431.7" y1="302.8" x2="431.7" y2="310.1"/>
					</g>
					<g>
						<line class="st10" x1="409.4" y1="296.7" x2="409.4" y2="304.1"/>
					</g>
					<g>
						<line class="st10" x1="387.2" y1="290.7" x2="387.2" y2="298"/>
					</g>
					<g>
						<line class="st10" x1="364.9" y1="284.7" x2="364.9" y2="292"/>
					</g>
					<g>
						<line class="st10" x1="342.6" y1="278.7" x2="342.6" y2="286"/>
					</g>
					<g>
						<line class="st10" x1="320.3" y1="272.6" x2="320.3" y2="279.9"/>
					</g>
				</g>
				<g>
					<g>
						<line class="st10" x1="476.3" y1="300.2" x2="476.3" y2="307.5"/>
					</g>
					<g>
						<line class="st10" x1="454" y1="294.2" x2="454" y2="301.5"/>
					</g>
					<g>
						<line class="st10" x1="431.7" y1="288.2" x2="431.7" y2="295.5"/>
					</g>
					<g>
						<line class="st10" x1="409.4" y1="282.1" x2="409.4" y2="289.4"/>
					</g>
					<g>
						<line class="st10" x1="387.2" y1="276.1" x2="387.2" y2="283.4"/>
					</g>
					<g>
						<line class="st10" x1="364.9" y1="270.1" x2="364.9" y2="277.4"/>
					</g>
					<g>
						<line class="st10" x1="342.6" y1="264" x2="342.6" y2="271.3"/>
					</g>
					<g>
						<line class="st10" x1="320.3" y1="258" x2="320.3" y2="265.3"/>
					</g>
				</g>
				<g>
					<g>
						<line class="st10" x1="465.9" y1="304.7" x2="465.9" y2="312"/>
					</g>
					<g>
						<line class="st10" x1="443.6" y1="298.7" x2="443.6" y2="306"/>
					</g>
					<g>
						<line class="st10" x1="421.3" y1="292.6" x2="421.3" y2="299.9"/>
					</g>
					<g>
						<line class="st10" x1="399" y1="286.6" x2="399" y2="293.9"/>
					</g>
					<g>
						<line class="st10" x1="376.7" y1="280.6" x2="376.7" y2="287.9"/>
					</g>
					<g>
						<line class="st10" x1="354.4" y1="274.5" x2="354.4" y2="281.9"/>
					</g>
					<g>
						<line class="st10" x1="332.1" y1="268.5" x2="332.1" y2="275.8"/>
					</g>
					<g>
						<line class="st10" x1="309.8" y1="262.5" x2="309.8" y2="269.8"/>
					</g>
				</g>
				<g>
					<g>
						<line class="st10" x1="465.9" y1="290.1" x2="465.9" y2="297.4"/>
					</g>
					<g>
						<line class="st10" x1="443.6" y1="284.1" x2="443.6" y2="291.4"/>
					</g>
					<g>
						<line class="st10" x1="421.3" y1="278" x2="421.3" y2="285.3"/>
					</g>
					<g>
						<line class="st10" x1="399" y1="272" x2="399" y2="279.3"/>
					</g>
					<g>
						<line class="st10" x1="376.7" y1="266" x2="376.7" y2="273.3"/>
					</g>
					<g>
						<line class="st10" x1="354.4" y1="259.9" x2="354.4" y2="267.2"/>
					</g>
					<g>
						<line class="st10" x1="332.1" y1="253.9" x2="332.1" y2="261.2"/>
					</g>
					<g>
						<line class="st10" x1="309.8" y1="247.9" x2="309.8" y2="255.2"/>
					</g>
				</g>
				<g>
					<g>
						<line class="st10" x1="476.3" y1="285.6" x2="476.3" y2="292.9"/>
					</g>
					<g>
						<line class="st10" x1="454" y1="279.6" x2="454" y2="286.9"/>
					</g>
					<g>
						<line class="st10" x1="431.7" y1="273.5" x2="431.7" y2="280.8"/>
					</g>
					<g>
						<line class="st10" x1="409.4" y1="267.5" x2="409.4" y2="274.8"/>
					</g>
					<g>
						<line class="st10" x1="387.2" y1="261.5" x2="387.2" y2="268.8"/>
					</g>
					<g>
						<line class="st10" x1="364.9" y1="255.5" x2="364.9" y2="262.8"/>
					</g>
					<g>
						<line class="st10" x1="342.6" y1="249.4" x2="342.6" y2="256.7"/>
					</g>
					<g>
						<line class="st10" x1="320.3" y1="243.4" x2="320.3" y2="250.7"/>
					</g>
				</g>
				<g>
					<g>
						<line class="st10" x1="476.3" y1="271" x2="476.3" y2="278.3"/>
					</g>
					<g>
						<line class="st10" x1="454" y1="265" x2="454" y2="272.3"/>
					</g>
					<g>
						<line class="st10" x1="431.7" y1="258.9" x2="431.7" y2="266.2"/>
					</g>
					<g>
						<line class="st10" x1="409.4" y1="252.9" x2="409.4" y2="260.2"/>
					</g>
					<g>
						<line class="st10" x1="387.2" y1="246.9" x2="387.2" y2="254.2"/>
					</g>
					<g>
						<line class="st10" x1="364.9" y1="240.8" x2="364.9" y2="248.1"/>
					</g>
					<g>
						<line class="st10" x1="342.6" y1="234.8" x2="342.6" y2="242.1"/>
					</g>
					<g>
						<line class="st10" x1="320.3" y1="228.8" x2="320.3" y2="236.1"/>
					</g>
				</g>
				<g>
					<g>
						<line class="st10" x1="465.9" y1="275.5" x2="465.9" y2="282.8"/>
					</g>
					<g>
						<line class="st10" x1="443.6" y1="269.4" x2="443.6" y2="276.7"/>
					</g>
					<g>
						<line class="st10" x1="421.3" y1="263.4" x2="421.3" y2="270.7"/>
					</g>
					<g>
						<line class="st10" x1="399" y1="257.4" x2="399" y2="264.7"/>
					</g>
					<g>
						<line class="st10" x1="376.7" y1="251.3" x2="376.7" y2="258.7"/>
					</g>
					<g>
						<line class="st10" x1="354.4" y1="245.3" x2="354.4" y2="252.6"/>
					</g>
					<g>
						<line class="st10" x1="332.1" y1="239.3" x2="332.1" y2="246.6"/>
					</g>
					<g>
						<line class="st10" x1="309.8" y1="233.3" x2="309.8" y2="240.6"/>
					</g>
				</g>
			</g>
			<g>
				<g>
					<ellipse class="st19" cx="304.2" cy="313.4" rx="31.5" ry="10.7"/>
					<g>
						<path class="st12" d="M335.7,309.9c0-5.9-14.1-10.7-31.5-10.7s-31.5,4.8-31.5,10.7v3.5c0-5.9,14.1-10.7,31.5-10.7
							s31.5,4.8,31.5,10.7V309.9z"/>
						<line class="st12" x1="274.3" y1="306.6" x2="274.3" y2="310.1"/>
						<line class="st12" x1="275.8" y1="305.3" x2="275.8" y2="308.8"/>
						<line class="st12" x1="278.6" y1="303.7" x2="278.6" y2="307.2"/>
						<line class="st12" x1="282.4" y1="302.2" x2="282.4" y2="305.7"/>
						<line class="st12" x1="289.4" y1="300.5" x2="289.4" y2="304"/>
						<line class="st12" x1="298.6" y1="299.4" x2="298.6" y2="302.9"/>
						<line class="st12" x1="309.8" y1="299.4" x2="309.8" y2="302.9"/>
					</g>
				</g>
				<g>
					<path class="st14" d="M311.2,225.9c0-1.5-3.1-2.7-7-2.7c-3.9,0-7,1.2-7,2.7v51.5c0-1.5,3.1-2.7,7-2.7c3.9,0,7,1.2,7,2.7V225.9z
						"/>
					<line class="st17" x1="298.9" y1="225.5" x2="298.9" y2="275.1"/>
					<g>
						<path class="st1" d="M311.2,235.9c0-1.5-3.1-2.7-7-2.7c-3.9,0-7,1.2-7,2.7"/>
						<path class="st1" d="M311.2,248c0-1.5-3.1-2.7-7-2.7c-3.9,0-7,1.2-7,2.7"/>
						<path class="st1" d="M311.2,260.1c0-1.5-3.1-2.7-7-2.7c-3.9,0-7,1.2-7,2.7"/>
						<path class="st1" d="M311.2,272.1c0-1.5-3.1-2.7-7-2.7c-3.9,0-7,1.2-7,2.7"/>
					</g>
					<path class="st20" d="M297.2,277.5c0-1.5,3.1-2.7,7-2.7c3.9,0,7,1.2,7,2.7"/>
				</g>
			</g>
		</g>
		<g>
			<polygon class="st0" points="376.8,408.2 376.8,412.8 377.9,412.9 378.2,410.2 382.5,412.6 383,412 380.7,409.8 381,409.5 
				383.4,411.4 384,410.6 379.4,406.4 			"/>
			<path class="st0" d="M337.3,405.3c-0.8,1.9-1.2,3.9-3.1,5.8l1,0.6l1.5-2.5l0.6,0.8l-1.3,2.2l1.1,0.6l2.4-3.3l2.1,1.1l0.5-1.1
				l-1.8-2"/>
			<path class="st0" d="M368.6,408.9c-0.8-6.6-3.3-16-1.9-16.4s3.8,9,9.5,16.2l4-2.8c-5.4-6.7-10.6-20.6-13.7-21.2
				c-3.1-0.6-12.2-0.6-15.7,0.1c-2.9,0.7-9.2,14.1-14.2,20.1l3.6,2.7c5.8-6.7,8.2-14.2,9.9-14.2c1.8,0-0.2,15.4-0.2,15.4"/>
			<path class="st21" d="M368.6,408.9c3,12.8,2.8,18.7,1.6,25.1h-5.6c0.9-8-1.8-21.1-4.5-21.1c-2.7,0-7.7,13.9-5.9,21.1h-5.6
				c-2.3-10.3-1.8-17,1.4-25.3C355.1,409.2,360.5,409.6,368.6,408.9z"/>
			<path class="st1" d="M355.1,415.3c0,0,3.7-5.5,11.3,0"/>
			<path class="st1" d="M363.4,384.1c0,0,0.4,3.1-3.9,6c0,0-4.3-1.8-5.6-5.9C353.8,380.9,363.3,380.8,363.4,384.1z"/>
			<path class="st1" d="M363,383.1c0,0,2.4,3.6,2.4,7.1c0,3.5-5.9,0-5.9,0s-4.6,4-5.6,0c-1.1-4,0-5.9,0-5.9"/>
			<path class="st1" d="M359.4,390.1c0,0,0.4,8.7,1.1,11.6c0,0,1,2.4-0.4,7.6"/>
			<path class="st1" d="M366,402.1c0,0-4.2-0.7-11.4-0.7"/>
			<path class="st0" d="M353.8,384.2c1.3,4.1,5.6,5.9,5.6,5.9c4.3-2.9,3.9-6,3.9-6l-0.7-12.5c-2.7-0.8-5.4-1.1-8.5,0.4L353.8,384.2z
				"/>
			<path class="st0" d="M358.1,379.2c3-1.5,2.1,2.8,6.3,2.2c0,0-2.4,3.9-6.2,0.4c0,0-2.1,3.4-6.8,0.6
				C355.4,382.7,354.1,378.1,358.1,379.2z"/>
			<path class="st22" d="M364.7,434c0,0,3.5-1.6,5.9-1.6c0,0,1.8,2.3,1.8,4.2l-2.9,0.7C367,437.2,368.2,434.8,364.7,434z"/>
			<path class="st22" d="M354.2,434c0,0-3.5-1.6-5.9-1.6c0,0-1.8,2.3-1.8,4.2l2.9,0.7C351.8,437.2,350.6,434.8,354.2,434z"/>
		</g>
	</g>
</g>
</svg>
