<?xml version="1.0" encoding="utf-8"?>
<!-- Generator: Adobe Illustrator 28.3.0, SVG Export Plug-In . SVG Version: 6.00 Build 0)  -->
<svg version="1.1" xmlns="http://www.w3.org/2000/svg" xmlns:xlink="http://www.w3.org/1999/xlink" x="0px" y="0px"
	 viewBox="0 0 490 443.7" style="enable-background:new 0 0 490 443.7;" xml:space="preserve">
<style type="text/css">
	.st0{fill:#FFFFFF;stroke:#000000;stroke-miterlimit:10;}
	.st1{fill:none;stroke:#000000;stroke-miterlimit:10;}
	.st2{fill:#FFFFFF;stroke:#040303;stroke-miterlimit:10;}
	.st3{fill:#FFFFFF;stroke:#1D1E1C;stroke-miterlimit:10;}
	.st4{fill:none;stroke:#1D1E1C;stroke-miterlimit:10;}
	.st5{fill:#FFFFFF;stroke:#231F20;stroke-miterlimit:10;}
	.st6{fill:#ADCCA2;stroke:#231F20;stroke-miterlimit:10;}
	.st7{fill:#B0B1B3;stroke:#231F20;stroke-miterlimit:10;}
	.st8{fill:none;stroke:#231F20;stroke-miterlimit:10;}
	.st9{fill:#ADCCA2;stroke:#000000;stroke-miterlimit:10;}
	.st10{fill:#EBCF9E;stroke:#000000;stroke-miterlimit:10;}
	.st11{fill:#E1A091;stroke:#231F20;stroke-miterlimit:10;}
	.st12{fill:#DBDADB;stroke:#000000;stroke-miterlimit:10;}
	.st13{fill:#F6EBD7;stroke:#000000;stroke-miterlimit:10;}
	.st14{fill:#E6C281;stroke:#000000;stroke-miterlimit:10;}
	.st15{fill:#9DBAD6;stroke:#000000;stroke-miterlimit:10;}
	.st16{fill:#DAE2EE;stroke:#000000;stroke-miterlimit:10;}
	.st17{fill:#E1A091;stroke:#000000;stroke-miterlimit:10;}
	.st18{fill:#F1D5CB;stroke:#000000;stroke-miterlimit:10;}
	.st19{fill:#FFFFFF;stroke:#969396;stroke-miterlimit:10;}
	.st20{fill:#ADCCA2;}
	.st21{fill:#F6EBD7;stroke:#B92300;stroke-miterlimit:10;}
	.st22{fill:#FFFFFF;stroke:#7AAC68;stroke-miterlimit:10;}
	.st23{fill:#95A3CD;stroke:#000000;stroke-miterlimit:10;}
	.st24{fill:#B92300;stroke:#000000;stroke-miterlimit:10;}
	.st25{fill:#8C9AA3;stroke:#000000;stroke-miterlimit:10;}
	.st26{fill:#ED1C24;stroke:#000000;stroke-miterlimit:10;}
	.st27{stroke:#000000;stroke-linejoin:bevel;stroke-miterlimit:10;}
</style>
<g id="Layer_5">
	<g>
		<g>
			<path class="st0" d="M259.5,97.7c5-14.4-3.7-35,5.6-45.6c6.9-2.6,16.3-7.3,20.1-14.9l-2.2-1.6c0,0-7.5,14.3-25.4,12.1
				c-16.7-2-24.2,14.9-14.9,21.7l1.6-1.8c-6.8-7.6-0.4-13.7,5.6-14.7C251.6,66,237.8,76,237.3,95"/>
			<path class="st0" d="M240.4,95.7c2.5-25.3,20.9-35.1,16,0.3"/>
			<polyline class="st0" points="260.2,51.1 260.6,41.5 255.1,41.1 253.3,51.1 			"/>
		</g>
		<path class="st1" d="M247,66.6c3.3,3.5,7.4,5.5,13.6,2.9"/>
		<path class="st0" d="M235.5,68.6c-9.9,7.5-4.1,15.2,5.8,7.6L235.5,68.6z"/>
		<line class="st0" x1="235.6" y1="74.7" x2="257" y2="59.2"/>
		<polygon class="st0" points="256,57.5 258.2,61.2 259.3,60.4 257.3,56.7 		"/>
	</g>
	<g>
		<g>
			<path class="st0" d="M334.9,124.2c-4.1-7.4-8.7-26.3-13.3-44.5c8,5.5,13,16.1,13,16.1l1.6-1.1C332.9,82,320.2,74,320.2,74
				l-1.5,0.3l-4-9.8l-5.4,2.7l1.8,8.8l-2.4,0.5c-2.5,11.2-5.8,20.5-11.4,24.8l2.7,1.9c5.7-4.7,9.2-9.7,9.9-18.7
				c-1.4,13.6-2.3,27.4-0.8,42"/>
			<path class="st0" d="M312.5,126.3c-0.7-8.3-0.6-16.5,1.6-23.3l8-1.1c3.6,11.1,6.8,17.9,9.9,22.9"/>
		</g>
		<polyline class="st0" points="311.1,76.1 314.9,79.4 318.7,74.3 		"/>
		<path class="st0" d="M314.9,79.4c-0.8,6.6,0.1,13.7,3.8,22.9"/>
		<path class="st1" d="M309.4,89.6c0,0,5.5,1.8,14.1-2.2"/>
		<path class="st1" d="M308.9,90.4c0,0-1.2-2.7-3.6-1.7"/>
		<path class="st1" d="M327.9,85.6c0,0,0.5-2.5,2.3-2.4"/>
		<path class="st1" d="M324.8,109.6c2.1,0,3.3-0.3,4.3-1.5"/>
		<path class="st1" d="M308.3,111.9c1.4,0.6,2.5,1,4.1,0"/>
	</g>
	<g>
		<g>
			<path class="st0" d="M470.1,419.5c-7.1-13.8-13.3-29.5-13.3-45.5c6.2,1.3,11.4,6,15.5,14l2-1.5c-4.9-10.5-13.8-16.1-22.4-18.1
				l-0.8-9.1l-5.8,0.5l1.4,7.8c-1-0.1-2-0.1-3-0.1c-0.9,13.2-6.5,21.3-15.3,25.2l1,2.3c6-2.7,11-6.8,15.5-18.4l0.4,51.6"/>
			<path class="st0" d="M449.3,428.2V398l7.3-0.4c3.3,8.7,5.4,15.4,10.4,24.5"/>
			<polygon class="st0" points="481,381.4 467.6,392.6 474.1,404.2 488,393.9 			"/>
		</g>
		<path class="st0" d="M445.9,367.6c0,0,0.8,16.4,2.1,23.8h-4.8c0,0-0.2-8.8,1.2-16.3"/>
		<path class="st0" d="M460.9,375.4l-2.7-1.2c0.9,3,2.7,16.7,2.7,16.7c-3.9,0.6-8.9,0-8.9,0c-1.6-10.8,1.2-22.2,1.2-22.2
			s1.9,0.5,3.6,1.2"/>
		<path class="st0" d="M446.6,367.6c-0.6,3.5,5.9,4.6,6.5,1.1"/>
		<path class="st0" d="M445,392.8c4.4,1.5,9.2,1.3,14.2,0"/>
	</g>
	<g>
		<path class="st0" d="M339.4,88.1c-1.4-6.3-6.4-20.7-2.4-31.4c1.4-3.8-3.4-10.7-0.5-18c0,0,12-1.7,12.6-0.1
			c1.7,4.3-2,16.2-0.9,17.6c5.3,6.8,3.5,19.1,1.3,31.9"/>
		<path class="st0" d="M348.5,43.9c1.3,5.6-1,9.7-6.6,10v2.9c11.5-0.1,11.7-13.4,7.4-18.3c-1.3-1.5-13.2,0-13.2,0
			c-6.8,15.4-1,17.3,5.8,18.3v-2.9c-5.2-0.2-6.7-3.9-5.7-10"/>
		<path class="st0" d="M336.6,42c-1.7,5,0.4,6.3,5.3,4.2"/>
		<path class="st0" d="M342.4,46.3c5.2,2.3,7.7,0.3,5.4-4.6"/>
		<path class="st0" d="M340,38.8c2-0.6-8.6-10.2,0-12.3c8.6-2.2,0.8,12.5,5,12.3"/>
		<polyline class="st0" points="342.8,26.5 341.9,21.1 334.8,23.1 337.4,28.9 		"/>
		<line class="st1" x1="338.8" y1="23.3" x2="339.8" y2="26.7"/>
		<line class="st1" x1="337.4" y1="25.7" x2="341.1" y2="24.5"/>
		<path class="st1" d="M336.6,30.4c0-1,4.9-4.5,7.1-3"/>
		<path class="st1" d="M338.8,58.2c0.7,2.8,1.6,5,6.1,6.9"/>
		<path class="st1" d="M338.5,84.6c0,0,11.6-0.1,11.6,0"/>
		<path class="st1" d="M339.8,38.1c-1.3,3.1,2.1,6.5,2.1,6.5s4.4-2.5,3.1-6.6"/>
	</g>
	<g>
		<g>
			<path class="st0" d="M103.8,106.6c2-13.3,0.1-25.5-4.7-36.6c5.1,3.5,14.7,2.3,19.2,0.9L117,67c-12.7,3-17.5-3.7-23.8-4.2L89,52.3
				l-6.3,4.3l2.3,7.8C78.8,66.7,73.4,73,65,70.8l-1,3.8c5.8,1.4,13.4,1.6,19.8-4.6c-2.9,12.4-5.1,23-2.2,36.5"/>
			<line class="st0" x1="81.4" y1="81.3" x2="102.9" y2="81.3"/>
			<path class="st0" d="M86,106.6c0,0-0.2-19,5.9-19.3s7,19.3,7,19.3"/>
		</g>
		<path class="st0" d="M89,52.3c1.8,7.4-5.5,7.7-6.3,4.3L89,52.3z"/>
		<path class="st0" d="M89,52.3l-6.3,4.3l-3.8-1.2c3.8-5.5,6.5-5.9,10.3-6.6L89,52.3z"/>
		<path class="st0" d="M78.9,55.4c3.8-1.1,6.5-1.6,10.3-6.6"/>
		<polygon class="st0" points="84.4,62.6 89.2,64.5 88,67.8 82.7,65.4 		"/>
		<polygon class="st0" points="89.2,64.5 92.4,66 95.1,62.6 92.4,60.9 		"/>
		<path class="st0" d="M89.2,64.5L88,67.8l2.4,0.7c0,0,1.6,7.5,0,13.8l2.4,2.2l2.3-2.3c0,0,0-7.9-3.6-14.4l0.8-1.8L89.2,64.5z"/>
		<path class="st1" d="M84.2,90.5c0.6-2.1,8.7-6,15.1-1"/>
	</g>
	<g>
		<g>
			<line class="st0" x1="264.8" y1="247.7" x2="269.8" y2="247.7"/>
			<line class="st0" x1="384.6" y1="298.4" x2="389.5" y2="298.4"/>
			<line class="st0" x1="231.4" y1="242" x2="226.2" y2="242"/>
			<line class="st0" x1="52.2" y1="377.2" x2="47" y2="377.2"/>
			<line class="st0" x1="272.3" y1="225.8" x2="276.6" y2="225.8"/>
			<line class="st0" x1="408.2" y1="174.5" x2="412.5" y2="174.5"/>
			<line class="st0" x1="276.6" y1="91.6" x2="280.8" y2="91.6"/>
			<line class="st0" x1="290.4" y1="195.1" x2="292.6" y2="195.1"/>
			<line class="st0" x1="217.7" y1="213.6" x2="214.2" y2="213.6"/>
		</g>
		<g>
			<line class="st0" x1="112.6" y1="232.2" x2="117.5" y2="232.2"/>
			<line class="st0" x1="258.2" y1="115.2" x2="263.1" y2="115.2"/>
			<line class="st0" x1="155.2" y1="215.2" x2="149.9" y2="215.2"/>
			<line class="st0" x1="170.3" y1="261.5" x2="174.5" y2="261.5"/>
			<line class="st0" x1="376.6" y1="127.4" x2="380.9" y2="127.4"/>
			<line class="st0" x1="104" y1="139.9" x2="108.3" y2="139.9"/>
			<line class="st0" x1="174.2" y1="236.1" x2="176.4" y2="236.1"/>
			<line class="st0" x1="265.1" y1="121.3" x2="267.3" y2="121.3"/>
			<line class="st0" x1="438.7" y1="147.1" x2="443.6" y2="147.1"/>
			<line class="st0" x1="445.6" y1="153.2" x2="447.8" y2="153.2"/>
			<line class="st0" x1="335" y1="213.6" x2="337.2" y2="213.6"/>
			<line class="st0" x1="48.7" y1="396.2" x2="50.9" y2="396.2"/>
			<line class="st0" x1="29.6" y1="358" x2="31.8" y2="358"/>
			<line class="st0" x1="147.6" y1="205.7" x2="149.9" y2="205.7"/>
			<line class="st0" x1="139.6" y1="129.5" x2="141.8" y2="129.5"/>
			<line class="st0" x1="99.2" y1="131.5" x2="101.5" y2="131.5"/>
			<line class="st0" x1="282.4" y1="73.5" x2="284.7" y2="73.5"/>
			<line class="st0" x1="432.3" y1="380.2" x2="434.6" y2="380.2"/>
			<line class="st0" x1="101.5" y1="254.6" x2="98" y2="254.6"/>
			<line class="st0" x1="26.8" y1="401.3" x2="23.3" y2="401.3"/>
		</g>
		<line class="st1" x1="164.5" y1="217.7" x2="159" y2="218.2"/>
	</g>
	<g>
		<g>
			<path class="st2" d="M24,243.9c-5.2,8.8-13.7,7.6-3.1-2l-1.7-2.1c-8.4,5.3-9.2,19,2.5,11.1"/>
			<polygon class="st2" points="20.7,236.6 18.2,242.5 20.5,244.1 23.6,239.8 			"/>
			<path class="st3" d="M25.6,242.5c-5.7,4-6.2,13.9-6.1,20.1c0.2,6.1-1.3,15.5-1.3,26.1"/>
			<path class="st3" d="M30.6,243.1c1.2,11.9,1.5,13.4,1.5,21.2c-0.3,5.3,0.1,14.5,0.1,26.4"/>
			<path class="st3" d="M31.3,244.7c-1.2-3.3,0.4-7.2-0.6-12.7c-1-1.1-6.1-0.2-6.1-0.2c-2.2,3.1-1.3,9.2,0.4,12.3"/>
			<path class="st3" d="M22,234.1c-1.4,0-1.8,3.4,0,3.4C23.2,237.5,23.4,234.1,22,234.1z"/>
			<path class="st3" d="M24.5,234.1c-1.4,0-1.8,3.4,0,3.4C25.8,237.5,26,234.1,24.5,234.1z"/>
			<path class="st2" d="M30.9,243.1c1.8,7,1.8,16.9-0.2,23.1c-1.1,0.2-2.3,0-3.4-0.6c1.3-5.5,2-12.5,1.2-17.6"/>
			<line class="st4" x1="25.6" y1="235.5" x2="30.2" y2="235.5"/>
			<path class="st4" d="M21.9,288.7c0-3.7,0.5-20.4,3.5-20.3c3.6,0.2,3.6,22.3,3.6,22.3"/>
		</g>
		<g>
			<g>
				<polygon class="st5" points="368.9,69.7 368.9,76.4 372.5,76.4 372.1,69.7 				"/>
				<path class="st5" d="M380.3,126.2c0,0,6.2-47.6,2.6-48.4c-3.8-0.8-1.2,8.3-6.6,8.3c-5.4,0-6.6-12.7-6.6-12.7h2.2
					c0,0,1.3,10.3,4.6,10.3c2.1,0,0.7-11.8,7.6-11.8c7,0,19,3.5,17.4-4.5c-1.1-5.3-7.8-4.9-9.7-4.9v-2c1.5,0,9.8-1.4,11.7,5.7
					c2.4,9.1-4.6,8.2-6.6,10.2c-2,2,0.8,42.7,0.8,42.7"/>
				<path class="st5" d="M395.3,118.9c0,0-1.7-24.4-6-23c-4.3,1.4-6.4,31.1-6.4,31.1"/>
				<polyline class="st5" points="386.8,75.4 386.8,66 393.4,66 392.6,76.4 				"/>
			</g>
		</g>
		<g>
			<path class="st0" d="M468.6,231.2c0.7-12.5,1.4-25,1.2-36.7c5.7,0.1,13.1-1.2,18.3-3.3l-0.7-2.3c-6.2,1.4-12.1,2.1-23,1.8
				l-1.9-9.9l-6,1.5l1,8c-1.5-0.1-3.1-0.2-4.7-0.3c-5,5.3-11.7,9.7-21.5,10.5l0.8,2.6c7.3-0.7,12.4-1.8,19.4-6.8l3.5,43.2"/>
			<polyline class="st0" points="457.9,237.4 458.4,213.2 463.8,213 465.6,233.3 			"/>
		</g>
	</g>
	<g>
		<g>
			<path class="st6" d="M426.7,153.1L447.8,9.9l25.6,142.2C462.6,151.1,440.1,155.5,426.7,153.1z"/>
			<g>
				<polyline class="st7" points="450.1,113.6 458.9,99.5 450.1,107.3 				"/>
				<polyline class="st7" points="449,57.5 445,51.8 449,61.3 				"/>
				<polyline class="st7" points="449,67.7 453,61.3 449,64.5 				"/>
				<polyline class="st7" points="449,77.7 443.7,70.6 449,82.3 				"/>
				<polyline class="st7" points="449,99.5 442.9,90.5 448,104.3 				"/>
				<polyline class="st7" points="447.8,140.4 436.6,133 447,145.6 				"/>
			</g>
			<g>
				<polyline class="st7" points="453,175.9 449,35.6 445,175.9 				"/>
				<line class="st8" x1="440.8" y1="175.9" x2="448.8" y2="175.9"/>
				<line class="st8" x1="457.1" y1="175.9" x2="465.1" y2="175.9"/>
				<g>
					<polyline class="st7" points="450.1,133 461.2,115.4 450.1,124.9 					"/>
					<polyline class="st7" points="449,120.2 440.1,110.7 448,124.9 					"/>
					<polyline class="st7" points="450.1,90.5 454.5,81.3 449,85.9 					"/>
				</g>
				<line class="st8" x1="440.1" y1="73.9" x2="434.9" y2="79.9"/>
				<line class="st8" x1="437.5" y1="88.8" x2="433.7" y2="94.8"/>
				<line class="st8" x1="436.6" y1="99.5" x2="433.7" y2="101.3"/>
				<line class="st8" x1="465.1" y1="111.7" x2="468.9" y2="115.4"/>
				<line class="st8" x1="465.1" y1="122.7" x2="471" y2="128"/>
				<line class="st8" x1="468.9" y1="135.4" x2="473.5" y2="137.1"/>
				<line class="st8" x1="451.7" y1="44.6" x2="455.6" y2="46.2"/>
				<line class="st8" x1="447.8" y1="23.1" x2="442.2" y2="29.6"/>
				<line class="st8" x1="450.1" y1="31.5" x2="453.7" y2="33.9"/>
				<line class="st8" x1="431.4" y1="151.2" x2="428.9" y2="155.4"/>
				<line class="st8" x1="437.5" y1="152" x2="438.4" y2="155"/>
				<line class="st8" x1="431.4" y1="131.9" x2="426.7" y2="135.4"/>
				<line class="st8" x1="457.5" y1="149.9" x2="461.2" y2="155"/>
				<line class="st8" x1="468" y1="149.9" x2="470.2" y2="154.1"/>
				<line class="st8" x1="442.2" y1="124" x2="440.1" y2="128"/>
				<line class="st8" x1="440.1" y1="124" x2="437.5" y2="125.3"/>
				<line class="st8" x1="438.8" y1="121.2" x2="433.7" y2="121.2"/>
				<line class="st8" x1="462.6" y1="135.4" x2="465.1" y2="138.2"/>
				<line class="st8" x1="461.2" y1="137.1" x2="461.2" y2="141.7"/>
				<line class="st8" x1="462.6" y1="131.9" x2="465.1" y2="131.9"/>
				<line class="st8" x1="454.5" y1="90.5" x2="457.5" y2="88.6"/>
				<line class="st8" x1="455.6" y1="93" x2="457.5" y2="92.5"/>
				<line class="st8" x1="454.5" y1="94.8" x2="457.5" y2="96.9"/>
				<line class="st8" x1="456.5" y1="69" x2="460.1" y2="67.7"/>
				<line class="st8" x1="457.5" y1="72.4" x2="460.1" y2="72.4"/>
				<line class="st8" x1="456.5" y1="75.5" x2="461.2" y2="79.9"/>
				<line class="st8" x1="438.3" y1="175.9" x2="428.9" y2="175.9"/>
			</g>
		</g>
		<g>
			<g>
				<path class="st0" d="M194.5,94.2c-2.1-12.7,17.3-13.8,17.3-0.6C211.8,101.2,196.3,104.6,194.5,94.2z"/>
				<path class="st9" d="M218.4,102.2c13-28.1-31.5-42.7-39.6-12.2C174.1,107.7,207.7,125.3,218.4,102.2z"/>
				<g>
					<line class="st0" x1="209" y1="87.9" x2="185.3" y2="87.4"/>
					<line class="st0" x1="211.8" y1="91.6" x2="188.2" y2="91.1"/>
					<line class="st0" x1="209" y1="84.4" x2="185.3" y2="83.9"/>
				</g>
				<path class="st9" d="M222.6,98.2c7.5-16.2-18.2-24.7-22.9-7.1C197.1,101.3,216.5,111.5,222.6,98.2z"/>
				<polyline class="st10" points="198.4,166.2 197.6,80.5 191.7,80.5 192.5,166.1 				"/>
				<g>
					<path class="st1" d="M198.1,131.3c0,11.4-5.6,13.6-5.6,34.8"/>
					<path class="st1" d="M198.1,115.9c0,11.4-5.6,13.6-5.6,34.8"/>
				</g>
				<path class="st9" d="M212.4,61.8c-6,12.9,14.5,19.7,18.2,5.6C232.8,59.2,217.3,51.1,212.4,61.8z"/>
				<line class="st0" x1="219.4" y1="71.5" x2="213.4" y2="71.4"/>
				<line class="st0" x1="214.9" y1="66" x2="209" y2="65.8"/>
				<path class="st9" d="M195.5,39.4c-6,12.9,14.5,19.7,18.2,5.6C215.9,36.9,200.4,28.8,195.5,39.4z"/>
				<path class="st9" d="M188.7,81.2c19.9,2.9,20.8-27.6,0.3-27C177,54.5,172.4,78.8,188.7,81.2z"/>
				<path class="st9" d="M197.4,116.2c15.5,12.8,32.1-12.7,14.3-22.9C201.3,87.5,184.6,105.7,197.4,116.2z"/>
				<path class="st9" d="M178.5,112.4c-11.7,8.1,2.4,24.3,12.8,14.2C197.4,120.6,188.2,105.8,178.5,112.4z"/>
				<line class="st0" x1="184.4" y1="126.3" x2="173.4" y2="126.1"/>
				<line class="st0" x1="184.6" y1="124" x2="178.7" y2="123.9"/>
				<line class="st0" x1="178.9" y1="121.3" x2="173" y2="121.2"/>
				<path class="st9" d="M201.1,124.2c-5.7,12.4,13.8,18.8,17.4,5.4C220.6,121.7,205.7,114,201.1,124.2z"/>
				<line class="st0" x1="221.1" y1="69.7" x2="208.7" y2="69.4"/>
			</g>
			<line class="st1" x1="203.1" y1="165.7" x2="171" y2="166.2"/>
		</g>
		<g>
			<path class="st11" d="M45.9,289.7c-12.1-50.5,30-72.2,8.3-126.6h3.2c21.7,54.3-15.4,74.9,0,126.6"/>
			<g>
				<path class="st6" d="M83.5,175.9c0-72-48.8-72-48.8,0H83.5z"/>
				<path class="st8" d="M65.9,144.6c5.7,8.4,7.4,14.7,7.4,31.3"/>
				<path class="st8" d="M49.5,140.2c1.9-7,4.9-13.4,9.5-18.4"/>
				<path class="st8" d="M46.3,175.9c0-5.6,0-12.3,0.6-19.3"/>
				<path class="st8" d="M43.9,159.9c0.5-5.4,1.3-11,2.7-16.3"/>
				<path class="st8" d="M50.5,128.6c2.4-2.9,5.2-5.2,8.5-6.8c-6.6,27.7,8,32.7,8,54"/>
				<path class="st8" d="M39.3,175.9c0-11.8,1.1-24.9,4.9-35.6"/>
				<path class="st8" d="M41.7,141.1c1.6-4.4,3.7-8.4,6.4-11.7"/>
				<path class="st8" d="M59.1,121.9c-1,23.6,21.3,32.7,21.3,54"/>
				<path class="st8" d="M34.7,175.9c0-11.8,5.6-17.8,6.7-24.9"/>
				<path class="st8" d="M58.2,143.6c2.9,15.7-9.1,13-3.5,32.3"/>
				<line class="st8" x1="51.9" y1="125.3" x2="47.2" y2="123.2"/>
				<path class="st8" d="M53.2,124.3c0,0-4.2-4.4-3.6-4"/>
				<line class="st8" x1="54.7" y1="123.2" x2="54.3" y2="118.1"/>
			</g>
			<path class="st11" d="M52.5,255.4c0-31.6-24.6-29.6-24.6-57.6h-1.7c0,28,21.3,26,21.3,57.6"/>
			<path class="st11" d="M53.4,255.4c9.5-3.4,20.8-12.8,20.8-29h-1.7c0,15.3-9.5,20.1-19.1,23.6"/>
			<path class="st8" d="M64.3,202.1c-0.2,6.7-8.2,31.1-10.9,37.9"/>
			<path class="st8" d="M52.5,259.9c-1,13.8,0.5,21.3,3,27.8"/>
			<path class="st6" d="M86.5,231.9c0-38.4-24.6-38.4-24.6,0H86.5z"/>
			<path class="st6" d="M49.5,208c0-65-42.2-65-42.2,0H49.5z"/>
			<path class="st8" d="M28.4,159.3c-13.7,14.7-14,29.7-14,48.8"/>
			<path class="st8" d="M28.4,159.3C14.8,174,22.7,189,22.7,208"/>
			<path class="st8" d="M28.4,159.3C40.7,170.7,43.9,189,43.9,208"/>
			<path class="st8" d="M28.4,159.3c0,28.2,10.8,21.1,10.8,48.8"/>
			<path class="st8" d="M67,231.9c0-12.1,1.4-21,7.3-28.8"/>
			<path class="st8" d="M80.3,231.9c0-12.1-11.9-21-6.1-28.8"/>
			<path class="st8" d="M83.5,231.9c3.9-8.4-10.2-14.4-1.7-24.9"/>
			<path class="st8" d="M69.6,212c-3.6,5.6-7.6,12.3-7.6,19.9"/>
			<path class="st8" d="M30.7,176.7c3,6.8-9.5,14.2-8.1,27.4"/>
			<path class="st8" d="M18.1,175.9c-2.4,9.1-10.7,16.4-10.7,24.2"/>
			<path class="st8" d="M57.5,214.6c-1.9,6.7-0.5,15.1-2.4,20.7"/>
			<path class="st8" d="M46.3,244c-3-15.2-10.8-20.8-14.8-30.3"/>
			<path class="st8" d="M45.9,289.7c-3.4-14.1,10-29.8,0-57.2"/>
			<line class="st8" x1="86.5" y1="289.7" x2="68.5" y2="289.7"/>
			<line class="st8" x1="54.3" y1="289.7" x2="36.3" y2="289.7"/>
			<path class="st8" d="M54.1,255.1c7.6-3,16.7-14.3,17.5-21.5"/>
			<line class="st8" x1="77.6" y1="204.8" x2="79.6" y2="201.7"/>
			<line class="st8" x1="76.5" y1="204.8" x2="75.5" y2="199.5"/>
			<line class="st8" x1="71.6" y1="203.8" x2="69.6" y2="201.7"/>
			<line class="st8" x1="25" y1="161.5" x2="20.4" y2="157.1"/>
			<line class="st8" x1="26.8" y1="160.2" x2="28.4" y2="152.6"/>
			<line class="st8" x1="30.2" y1="161" x2="33.9" y2="155.3"/>
		</g>
		<g>
			<g>
				<path class="st9" d="M448.1,260c8.4-18.3-20.5-27.8-25.8-8C419.3,263.6,441.2,275,448.1,260z"/>
				<path class="st9" d="M470.4,277.3c13-28.1-31.5-42.7-39.6-12.2C426,282.8,459.7,300.4,470.4,277.3z"/>
				<g>
					<line class="st0" x1="466.8" y1="264.2" x2="443.2" y2="263.7"/>
					<line class="st0" x1="464" y1="267.9" x2="440.4" y2="267.4"/>
					<line class="st0" x1="464" y1="260.7" x2="440.4" y2="260.2"/>
				</g>
				<path class="st9" d="M474.6,302.7c7.5-16.2-18.2-24.7-22.9-7.1C449,305.9,468.5,316.1,474.6,302.7z"/>
				<path class="st9" d="M446.5,279.1c-2.1-12.7,17.3-13.8,17.3-0.6C463.7,286.1,448.3,289.5,446.5,279.1z"/>
				<polyline class="st10" points="450.4,351.1 449.6,265.4 443.6,265.4 444.5,351.1 				"/>
				<path class="st1" d="M450.4,343.1c0-20.4-6.8-42.4-6.8-77.8"/>
				<path class="st9" d="M455.9,244c-6,12.9,14.5,19.7,18.2,5.6C476.3,241.5,460.8,233.4,455.9,244z"/>
				<path class="st9" d="M432.7,283.5c18.3,8.4,27.8-20.5,8-25.8C429.1,254.6,417.6,276.5,432.7,283.5z"/>
				<path class="st9" d="M418.4,285.7c-6,12.9,14.5,19.7,18.2,5.6C438.8,283.2,423.3,275.1,418.4,285.7z"/>
				<path class="st9" d="M428.3,306c-6,12.9,14.5,19.7,18.2,5.6C448.7,303.4,433.2,295.3,428.3,306z"/>
				<path class="st9" d="M453,309.1c-5.7,12.4,13.8,18.8,17.4,5.4C472.5,306.7,457.7,299,453,309.1z"/>
				<path class="st0" d="M465,351.1c0-7.8-17.4-10.1-17.4,0"/>
				<line class="st0" x1="454.8" y1="350.8" x2="477.4" y2="351.2"/>
			</g>
		</g>
	</g>
</g>
<g id="_x32_andar">
	<g>
		<g>
			<rect x="60.6" y="346.8" class="st12" width="365.5" height="82"/>
			<g>
				<g>
					<rect x="60.6" y="421.9" class="st10" width="11.1" height="6.9"/>
					<rect x="60.6" y="414.9" class="st10" width="5.5" height="6.9"/>
				</g>
				<g>
					<rect x="60.6" y="408" class="st10" width="11.1" height="6.9"/>
					<rect x="60.6" y="401" class="st10" width="5.5" height="6.9"/>
				</g>
				<g>
					<rect x="60.6" y="394.4" class="st10" width="11.1" height="6.9"/>
					<rect x="60.6" y="387.5" class="st10" width="5.5" height="6.9"/>
				</g>
				<g>
					<rect x="60.6" y="380.9" class="st10" width="11.1" height="6.9"/>
					<rect x="60.6" y="373.9" class="st10" width="5.5" height="6.9"/>
				</g>
				<g>
					<rect x="60.6" y="367.3" class="st10" width="11.1" height="6.9"/>
					<rect x="60.6" y="360.4" class="st10" width="5.5" height="6.9"/>
				</g>
				<g>
					<rect x="60.6" y="353.8" class="st10" width="11.1" height="6.9"/>
					<rect x="60.6" y="346.8" class="st10" width="5.5" height="6.9"/>
				</g>
			</g>
			<g>
				<g>
					
						<rect x="415" y="421.9" transform="matrix(-1 -2.774548e-11 2.774548e-11 -1 841.1526 850.7003)" class="st10" width="11.1" height="6.9"/>
					
						<rect x="420.6" y="414.9" transform="matrix(-1 -2.774548e-11 2.774548e-11 -1 846.6925 836.8019)" class="st10" width="5.5" height="6.9"/>
				</g>
				<g>
					
						<rect x="415" y="408" transform="matrix(-1 -2.774548e-11 2.774548e-11 -1 841.1526 822.9036)" class="st10" width="11.1" height="6.9"/>
					
						<rect x="420.6" y="401" transform="matrix(-1 -2.774548e-11 2.774548e-11 -1 846.6925 809.0052)" class="st10" width="5.5" height="6.9"/>
				</g>
				<g>
					
						<rect x="415" y="394.4" transform="matrix(-1 -2.774548e-11 2.774548e-11 -1 841.1526 795.7921)" class="st10" width="11.1" height="6.9"/>
					
						<rect x="420.6" y="387.5" transform="matrix(-1 -2.774548e-11 2.774548e-11 -1 846.6925 781.8937)" class="st10" width="5.5" height="6.9"/>
				</g>
				<g>
					
						<rect x="415" y="380.9" transform="matrix(-1 -2.774548e-11 2.774548e-11 -1 841.1526 768.6805)" class="st10" width="11.1" height="6.9"/>
					
						<rect x="420.6" y="373.9" transform="matrix(-1 -2.774548e-11 2.774548e-11 -1 846.6925 754.7822)" class="st10" width="5.5" height="6.9"/>
				</g>
				<g>
					
						<rect x="415" y="367.3" transform="matrix(-1 -2.774548e-11 2.774548e-11 -1 841.1526 741.569)" class="st10" width="11.1" height="6.9"/>
					
						<rect x="420.6" y="360.4" transform="matrix(-1 -2.774548e-11 2.774548e-11 -1 846.6925 727.6707)" class="st10" width="5.5" height="6.9"/>
				</g>
				<g>
					
						<rect x="415" y="353.8" transform="matrix(-1 -2.774548e-11 2.774548e-11 -1 841.1526 714.4575)" class="st10" width="11.1" height="6.9"/>
					
						<rect x="420.6" y="346.8" transform="matrix(-1 -2.774548e-11 2.774548e-11 -1 846.6925 700.5591)" class="st10" width="5.5" height="6.9"/>
				</g>
			</g>
			<rect x="80.6" y="364.4" class="st0" width="135.2" height="53.9"/>
			<rect x="270.9" y="364.4" class="st0" width="135.2" height="53.9"/>
			<g>
				<rect x="270.9" y="418.3" class="st10" width="135.2" height="2.5"/>
				<rect x="270.9" y="415.8" class="st13" width="135.2" height="2.5"/>
			</g>
			<g>
				<rect x="80.6" y="418.3" class="st10" width="135.2" height="2.5"/>
				<rect x="80.6" y="415.8" class="st13" width="135.2" height="2.5"/>
			</g>
			<rect x="60.6" y="338.3" class="st14" width="365.5" height="8.5"/>
			<rect x="60.6" y="334.1" class="st10" width="365.5" height="4.2"/>
			<rect x="60.6" y="326.1" class="st10" width="365.5" height="8"/>
			<rect x="215.8" y="364.4" class="st0" width="55.1" height="64.4"/>
			<rect x="215.8" y="426.3" class="st13" width="55.1" height="2.5"/>
			<rect x="215.8" y="353.5" class="st0" width="55.1" height="10.9"/>
			<g>
				<path class="st15" d="M215.8,362.6c0,4-5.3,7.3-11.8,7.3c-6.5,0-11.8-3.3-11.8-7.3c0,4-5.3,7.3-11.8,7.3s-11.8-3.3-11.8-7.3
					c0,4-5.3,7.3-11.8,7.3s-11.8-3.3-11.8-7.3c0,4-5.3,7.3-11.8,7.3c-6.5,0-11.8-3.3-11.8-7.3c0,4-5.3,7.3-11.8,7.3
					c-6.5,0-11.8-3.3-11.8-7.3c0,4-5.3,7.3-11.8,7.3c-6.5,0-11.8-3.3-11.8-7.3v-1.4h142.2V362.6z"/>
				<rect x="73.6" y="346.6" class="st16" width="142.2" height="14.6"/>
				<path class="st17" d="M97.3,362.6c0,4,5.3,7.3,11.8,7.3c6.5,0,11.8-3.3,11.8-7.3v-1.4H97.3V362.6z"/>
				<rect x="97.3" y="346.6" class="st18" width="23.7" height="14.6"/>
				<path class="st17" d="M144.7,362.6c0,4,5.3,7.3,11.8,7.3s11.8-3.3,11.8-7.3v-1.4h-23.7V362.6z"/>
				<rect x="144.7" y="346.6" class="st18" width="23.7" height="14.6"/>
				<path class="st17" d="M192.1,362.6c0,4,5.3,7.3,11.8,7.3c6.5,0,11.8-3.3,11.8-7.3v-1.4h-23.7V362.6z"/>
				<rect x="192.1" y="346.6" class="st18" width="23.7" height="14.6"/>
			</g>
		</g>
		<g>
			<rect x="60.6" y="244.1" class="st12" width="365.5" height="82"/>
			<g>
				<line class="st19" x1="393.2" y1="319.3" x2="405.3" y2="319.3"/>
				<line class="st19" x1="152" y1="310" x2="164.1" y2="310"/>
				<line class="st19" x1="81.7" y1="423.3" x2="93.8" y2="423.3"/>
				<line class="st19" x1="396.2" y1="425.6" x2="408.2" y2="425.6"/>
				<line class="st19" x1="281.7" y1="252.6" x2="293.8" y2="252.6"/>
				<line class="st19" x1="233.7" y1="297.1" x2="245.7" y2="297.1"/>
				<line class="st19" x1="109" y1="256.4" x2="121" y2="256.4"/>
				<line class="st19" x1="389.4" y1="254.2" x2="401.5" y2="254.2"/>
			</g>
			<g>
				<rect x="87.6" y="265.2" class="st0" width="142.2" height="33.2"/>
				<rect x="257" y="265.2" class="st0" width="142.2" height="33.2"/>
				<g>
					<g>
						<rect x="257" y="298.4" class="st10" width="142.2" height="2.5"/>
						<rect x="257" y="295.9" class="st13" width="142.2" height="2.5"/>
					</g>
					<g>
						<rect x="87.6" y="298.4" class="st10" width="142.2" height="2.5"/>
						<rect x="87.6" y="295.9" class="st13" width="142.2" height="2.5"/>
						<line class="st19" x1="257.2" y1="303.4" x2="399.4" y2="303.4"/>
						<line class="st19" x1="83.5" y1="303.4" x2="225.7" y2="303.4"/>
					</g>
				</g>
			</g>
			<rect x="60.6" y="235.7" class="st14" width="365.5" height="8.5"/>
			<g>
				<polygon class="st20" points="60.6,231.4 243.4,182 243.4,231.4 				"/>
				<g>
					<polygon class="st13" points="60.6,231.4 243.4,182 243.4,172.9 60.6,222.3 					"/>
					<polygon class="st13" points="60.6,171.2 243.4,121.7 243.4,112.6 60.6,162.1 					"/>
				</g>
				<g>
					<polygon class="st17" points="60.6,171.2 243.4,121.7 243.4,172.9 60.6,222.3 					"/>
					<g>
						<line class="st13" x1="243.4" y1="165.6" x2="60.6" y2="215"/>
						<line class="st13" x1="243.4" y1="158.3" x2="60.6" y2="207.7"/>
						<line class="st13" x1="243.4" y1="151" x2="60.6" y2="200.4"/>
						<line class="st13" x1="243.4" y1="143.7" x2="60.6" y2="193.1"/>
						<line class="st13" x1="243.4" y1="136.3" x2="60.6" y2="185.8"/>
						<line class="st13" x1="243.4" y1="129" x2="60.6" y2="178.5"/>
					</g>
					<g>
						<line class="st21" x1="244.3" y1="166.5" x2="61.5" y2="215.9"/>
						<line class="st21" x1="244.3" y1="159.2" x2="61.5" y2="208.6"/>
						<line class="st21" x1="244.3" y1="151.9" x2="61.5" y2="201.3"/>
						<line class="st21" x1="244.3" y1="144.6" x2="61.5" y2="194"/>
						<line class="st21" x1="244.3" y1="137.2" x2="61.5" y2="186.7"/>
						<line class="st21" x1="244.3" y1="129.9" x2="61.5" y2="179.4"/>
						<line class="st21" x1="244.3" y1="122.6" x2="61.5" y2="172.1"/>
					</g>
					<g>
						<g>
							<line class="st13" x1="71.3" y1="212.1" x2="71.3" y2="219.4"/>
						</g>
						<g>
							<line class="st13" x1="93.5" y1="206.1" x2="93.5" y2="213.4"/>
						</g>
						<g>
							<line class="st13" x1="115.8" y1="200.1" x2="115.8" y2="207.4"/>
						</g>
						<g>
							<line class="st13" x1="138.1" y1="194" x2="138.1" y2="201.4"/>
						</g>
						<g>
							<line class="st13" x1="160.4" y1="188" x2="160.4" y2="195.3"/>
						</g>
						<g>
							<line class="st13" x1="182.7" y1="182" x2="182.7" y2="189.3"/>
						</g>
						<g>
							<line class="st13" x1="205" y1="176" x2="205" y2="183.3"/>
						</g>
						<g>
							<line class="st13" x1="227.3" y1="169.9" x2="227.3" y2="177.2"/>
						</g>
					</g>
					<g>
						<g>
							<line class="st13" x1="71.3" y1="197.5" x2="71.3" y2="204.8"/>
						</g>
						<g>
							<line class="st13" x1="93.5" y1="191.5" x2="93.5" y2="198.8"/>
						</g>
						<g>
							<line class="st13" x1="115.8" y1="185.5" x2="115.8" y2="192.8"/>
						</g>
						<g>
							<line class="st13" x1="138.1" y1="179.4" x2="138.1" y2="186.7"/>
						</g>
						<g>
							<line class="st13" x1="160.4" y1="173.4" x2="160.4" y2="180.7"/>
						</g>
						<g>
							<line class="st13" x1="182.7" y1="167.4" x2="182.7" y2="174.7"/>
						</g>
						<g>
							<line class="st13" x1="205" y1="161.3" x2="205" y2="168.7"/>
						</g>
						<g>
							<line class="st13" x1="227.3" y1="155.3" x2="227.3" y2="162.6"/>
						</g>
					</g>
					<g>
						<g>
							<line class="st13" x1="81.7" y1="202" x2="81.7" y2="209.3"/>
						</g>
						<g>
							<line class="st13" x1="104" y1="196" x2="104" y2="203.3"/>
						</g>
						<g>
							<line class="st13" x1="126.3" y1="189.9" x2="126.3" y2="197.3"/>
						</g>
						<g>
							<line class="st13" x1="148.6" y1="183.9" x2="148.6" y2="191.2"/>
						</g>
						<g>
							<line class="st13" x1="170.9" y1="177.9" x2="170.9" y2="185.2"/>
						</g>
						<g>
							<line class="st13" x1="193.2" y1="171.9" x2="193.2" y2="179.2"/>
						</g>
						<g>
							<line class="st13" x1="215.4" y1="165.8" x2="215.4" y2="173.1"/>
						</g>
						<g>
							<line class="st13" x1="237.7" y1="159.8" x2="237.7" y2="167.1"/>
						</g>
					</g>
					<g>
						<g>
							<line class="st13" x1="81.7" y1="187.4" x2="81.7" y2="194.7"/>
						</g>
						<g>
							<line class="st13" x1="104" y1="181.4" x2="104" y2="188.7"/>
						</g>
						<g>
							<line class="st13" x1="126.3" y1="175.3" x2="126.3" y2="182.6"/>
						</g>
						<g>
							<line class="st13" x1="148.6" y1="169.3" x2="148.6" y2="176.6"/>
						</g>
						<g>
							<line class="st13" x1="170.9" y1="163.3" x2="170.9" y2="170.6"/>
						</g>
						<g>
							<line class="st13" x1="193.2" y1="157.2" x2="193.2" y2="164.5"/>
						</g>
						<g>
							<line class="st13" x1="215.4" y1="151.2" x2="215.4" y2="158.5"/>
						</g>
						<g>
							<line class="st13" x1="237.7" y1="145.2" x2="237.7" y2="152.5"/>
						</g>
					</g>
					<g>
						<g>
							<line class="st13" x1="71.3" y1="182.9" x2="71.3" y2="190.2"/>
						</g>
						<g>
							<line class="st13" x1="93.5" y1="176.9" x2="93.5" y2="184.2"/>
						</g>
						<g>
							<line class="st13" x1="115.8" y1="170.8" x2="115.8" y2="178.2"/>
						</g>
						<g>
							<line class="st13" x1="138.1" y1="164.8" x2="138.1" y2="172.1"/>
						</g>
						<g>
							<line class="st13" x1="160.4" y1="158.8" x2="160.4" y2="166.1"/>
						</g>
						<g>
							<line class="st13" x1="182.7" y1="152.8" x2="182.7" y2="160.1"/>
						</g>
						<g>
							<line class="st13" x1="205" y1="146.7" x2="205" y2="154"/>
						</g>
						<g>
							<line class="st13" x1="227.3" y1="140.7" x2="227.3" y2="148"/>
						</g>
					</g>
					<g>
						<g>
							<line class="st13" x1="71.3" y1="168.3" x2="71.3" y2="175.6"/>
						</g>
						<g>
							<line class="st13" x1="93.5" y1="162.3" x2="93.5" y2="169.6"/>
						</g>
						<g>
							<line class="st13" x1="115.8" y1="156.2" x2="115.8" y2="163.5"/>
						</g>
						<g>
							<line class="st13" x1="138.1" y1="150.2" x2="138.1" y2="157.5"/>
						</g>
						<g>
							<line class="st13" x1="160.4" y1="144.2" x2="160.4" y2="151.5"/>
						</g>
						<g>
							<line class="st13" x1="182.7" y1="138.1" x2="182.7" y2="145.4"/>
						</g>
						<g>
							<line class="st13" x1="205" y1="132.1" x2="205" y2="139.4"/>
						</g>
						<g>
							<line class="st13" x1="227.3" y1="126.1" x2="227.3" y2="133.4"/>
						</g>
					</g>
					<g>
						<g>
							<line class="st13" x1="81.7" y1="172.8" x2="81.7" y2="180.1"/>
						</g>
						<g>
							<line class="st13" x1="104" y1="166.7" x2="104" y2="174"/>
						</g>
						<g>
							<line class="st13" x1="126.3" y1="160.7" x2="126.3" y2="168"/>
						</g>
						<g>
							<line class="st13" x1="148.6" y1="154.7" x2="148.6" y2="162"/>
						</g>
						<g>
							<line class="st13" x1="170.9" y1="148.7" x2="170.9" y2="156"/>
						</g>
						<g>
							<line class="st13" x1="193.2" y1="142.6" x2="193.2" y2="149.9"/>
						</g>
						<g>
							<line class="st13" x1="215.4" y1="136.6" x2="215.4" y2="143.9"/>
						</g>
						<g>
							<line class="st13" x1="237.7" y1="130.6" x2="237.7" y2="137.9"/>
						</g>
					</g>
				</g>
				<polygon class="st20" points="426.1,231.4 243.4,182 243.4,231.4 				"/>
				<g>
					<g>
						<line class="st22" x1="295.3" y1="214.5" x2="307.4" y2="214.5"/>
						<line class="st22" x1="373.8" y1="223.8" x2="385.9" y2="223.8"/>
						<line class="st22" x1="205.7" y1="221.4" x2="217.7" y2="221.4"/>
						<line class="st22" x1="190.3" y1="213.4" x2="202.4" y2="213.4"/>
						<line class="st22" x1="91.9" y1="227.7" x2="104" y2="227.7"/>
					</g>
				</g>
				<g>
					<polygon class="st13" points="426.1,231.4 243.4,182 243.4,172.9 426.1,222.3 					"/>
					<polygon class="st13" points="426.1,171.2 243.4,121.7 243.4,112.6 426.1,162.1 					"/>
				</g>
				<g>
					<polygon class="st17" points="426.1,171.2 243.4,121.7 243.4,172.9 426.1,222.3 					"/>
					<g>
						<line class="st13" x1="243.4" y1="165.6" x2="426.1" y2="215"/>
						<line class="st13" x1="243.4" y1="158.3" x2="426.1" y2="207.7"/>
						<line class="st13" x1="243.4" y1="151" x2="426.1" y2="200.4"/>
						<line class="st13" x1="243.4" y1="143.7" x2="426.1" y2="193.1"/>
						<line class="st13" x1="243.4" y1="136.3" x2="426.1" y2="185.8"/>
						<line class="st13" x1="243.4" y1="129" x2="426.1" y2="178.5"/>
					</g>
					<g>
						<line class="st21" x1="242.5" y1="166.5" x2="425.2" y2="215.9"/>
						<line class="st21" x1="242.5" y1="159.2" x2="425.2" y2="208.6"/>
						<line class="st21" x1="242.5" y1="151.9" x2="425.2" y2="201.3"/>
						<line class="st21" x1="242.5" y1="144.6" x2="425.2" y2="194"/>
						<line class="st21" x1="242.5" y1="137.2" x2="425.2" y2="186.7"/>
						<line class="st21" x1="242.5" y1="129.9" x2="425.2" y2="179.4"/>
						<line class="st21" x1="242.5" y1="122.6" x2="425.2" y2="172.1"/>
					</g>
					<g>
						<g>
							<line class="st13" x1="415.5" y1="212.1" x2="415.5" y2="219.4"/>
						</g>
						<g>
							<line class="st13" x1="393.2" y1="206.1" x2="393.2" y2="213.4"/>
						</g>
						<g>
							<line class="st13" x1="370.9" y1="200.1" x2="370.9" y2="207.4"/>
						</g>
						<g>
							<line class="st13" x1="348.6" y1="194" x2="348.6" y2="201.4"/>
						</g>
						<g>
							<line class="st13" x1="326.3" y1="188" x2="326.3" y2="195.3"/>
						</g>
						<g>
							<line class="st13" x1="304" y1="182" x2="304" y2="189.3"/>
						</g>
						<g>
							<line class="st13" x1="281.7" y1="176" x2="281.7" y2="183.3"/>
						</g>
						<g>
							<line class="st13" x1="259.5" y1="169.9" x2="259.5" y2="177.2"/>
						</g>
					</g>
					<g>
						<g>
							<line class="st13" x1="415.5" y1="197.5" x2="415.5" y2="204.8"/>
						</g>
						<g>
							<line class="st13" x1="393.2" y1="191.5" x2="393.2" y2="198.8"/>
						</g>
						<g>
							<line class="st13" x1="370.9" y1="185.5" x2="370.9" y2="192.8"/>
						</g>
						<g>
							<line class="st13" x1="348.6" y1="179.4" x2="348.6" y2="186.7"/>
						</g>
						<g>
							<line class="st13" x1="326.3" y1="173.4" x2="326.3" y2="180.7"/>
						</g>
						<g>
							<line class="st13" x1="304" y1="167.4" x2="304" y2="174.7"/>
						</g>
						<g>
							<line class="st13" x1="281.7" y1="161.3" x2="281.7" y2="168.7"/>
						</g>
						<g>
							<line class="st13" x1="259.5" y1="155.3" x2="259.5" y2="162.6"/>
						</g>
					</g>
					<g>
						<g>
							<line class="st13" x1="405" y1="202" x2="405" y2="209.3"/>
						</g>
						<g>
							<line class="st13" x1="382.7" y1="196" x2="382.7" y2="203.3"/>
						</g>
						<g>
							<line class="st13" x1="360.5" y1="189.9" x2="360.5" y2="197.3"/>
						</g>
						<g>
							<line class="st13" x1="338.2" y1="183.9" x2="338.2" y2="191.2"/>
						</g>
						<g>
							<line class="st13" x1="315.9" y1="177.9" x2="315.9" y2="185.2"/>
						</g>
						<g>
							<line class="st13" x1="293.6" y1="171.9" x2="293.6" y2="179.2"/>
						</g>
						<g>
							<line class="st13" x1="271.3" y1="165.8" x2="271.3" y2="173.1"/>
						</g>
						<g>
							<line class="st13" x1="249" y1="159.8" x2="249" y2="167.1"/>
						</g>
					</g>
					<g>
						<g>
							<line class="st13" x1="405" y1="187.4" x2="405" y2="194.7"/>
						</g>
						<g>
							<line class="st13" x1="382.7" y1="181.4" x2="382.7" y2="188.7"/>
						</g>
						<g>
							<line class="st13" x1="360.5" y1="175.3" x2="360.5" y2="182.6"/>
						</g>
						<g>
							<line class="st13" x1="338.2" y1="169.3" x2="338.2" y2="176.6"/>
						</g>
						<g>
							<line class="st13" x1="315.9" y1="163.3" x2="315.9" y2="170.6"/>
						</g>
						<g>
							<line class="st13" x1="293.6" y1="157.2" x2="293.6" y2="164.5"/>
						</g>
						<g>
							<line class="st13" x1="271.3" y1="151.2" x2="271.3" y2="158.5"/>
						</g>
						<g>
							<line class="st13" x1="249" y1="145.2" x2="249" y2="152.5"/>
						</g>
					</g>
					<g>
						<g>
							<line class="st13" x1="415.5" y1="182.9" x2="415.5" y2="190.2"/>
						</g>
						<g>
							<line class="st13" x1="393.2" y1="176.9" x2="393.2" y2="184.2"/>
						</g>
						<g>
							<line class="st13" x1="370.9" y1="170.8" x2="370.9" y2="178.2"/>
						</g>
						<g>
							<line class="st13" x1="348.6" y1="164.8" x2="348.6" y2="172.1"/>
						</g>
						<g>
							<line class="st13" x1="326.3" y1="158.8" x2="326.3" y2="166.1"/>
						</g>
						<g>
							<line class="st13" x1="304" y1="152.8" x2="304" y2="160.1"/>
						</g>
						<g>
							<line class="st13" x1="281.7" y1="146.7" x2="281.7" y2="154"/>
						</g>
						<g>
							<line class="st13" x1="259.5" y1="140.7" x2="259.5" y2="148"/>
						</g>
					</g>
					<g>
						<g>
							<line class="st13" x1="415.5" y1="168.3" x2="415.5" y2="175.6"/>
						</g>
						<g>
							<line class="st13" x1="393.2" y1="162.3" x2="393.2" y2="169.6"/>
						</g>
						<g>
							<line class="st13" x1="370.9" y1="156.2" x2="370.9" y2="163.5"/>
						</g>
						<g>
							<line class="st13" x1="348.6" y1="150.2" x2="348.6" y2="157.5"/>
						</g>
						<g>
							<line class="st13" x1="326.3" y1="144.2" x2="326.3" y2="151.5"/>
						</g>
						<g>
							<line class="st13" x1="304" y1="138.1" x2="304" y2="145.4"/>
						</g>
						<g>
							<line class="st13" x1="281.7" y1="132.1" x2="281.7" y2="139.4"/>
						</g>
						<g>
							<line class="st13" x1="259.5" y1="126.1" x2="259.5" y2="133.4"/>
						</g>
					</g>
					<g>
						<g>
							<line class="st13" x1="405" y1="172.8" x2="405" y2="180.1"/>
						</g>
						<g>
							<line class="st13" x1="382.7" y1="166.7" x2="382.7" y2="174"/>
						</g>
						<g>
							<line class="st13" x1="360.5" y1="160.7" x2="360.5" y2="168"/>
						</g>
						<g>
							<line class="st13" x1="338.2" y1="154.7" x2="338.2" y2="162"/>
						</g>
						<g>
							<line class="st13" x1="315.9" y1="148.7" x2="315.9" y2="156"/>
						</g>
						<g>
							<line class="st13" x1="293.6" y1="142.6" x2="293.6" y2="149.9"/>
						</g>
						<g>
							<line class="st13" x1="271.3" y1="136.6" x2="271.3" y2="143.9"/>
						</g>
						<g>
							<line class="st13" x1="249" y1="130.6" x2="249" y2="137.9"/>
						</g>
					</g>
				</g>
				<g>
					<g>
						<ellipse class="st23" cx="243.4" cy="211.1" rx="39.9" ry="13.5"/>
						<g>
							<path class="st15" d="M283.2,206.7c0-7.5-17.8-13.5-39.9-13.5s-39.9,6.1-39.9,13.5v4.4c0-7.5,17.8-13.5,39.9-13.5
								s39.9,6.1,39.9,13.5V206.7z"/>
							<line class="st15" x1="205.5" y1="202.5" x2="205.5" y2="207"/>
							<line class="st15" x1="207.4" y1="200.9" x2="207.4" y2="205.3"/>
							<line class="st15" x1="210.9" y1="198.9" x2="210.9" y2="203.3"/>
							<line class="st15" x1="215.8" y1="197" x2="215.8" y2="201.4"/>
							<line class="st15" x1="224.7" y1="194.8" x2="224.7" y2="199.2"/>
							<line class="st15" x1="236.3" y1="193.4" x2="236.3" y2="197.9"/>
							<line class="st15" x1="250.5" y1="193.4" x2="250.5" y2="197.9"/>
						</g>
					</g>
					<g>
						<path class="st17" d="M250.4,123.3c0-1.5-3.1-2.7-7-2.7s-7,1.2-7,2.7v51.5c0-1.5,3.1-2.7,7-2.7s7,1.2,7,2.7V123.3z"/>
						<line class="st21" x1="238.1" y1="122.8" x2="238.1" y2="172.4"/>
						<g>
							<path class="st1" d="M250.4,133.3c0-1.5-3.1-2.7-7-2.7s-7,1.2-7,2.7"/>
							<path class="st1" d="M250.4,145.3c0-1.5-3.1-2.7-7-2.7s-7,1.2-7,2.7"/>
							<path class="st1" d="M250.4,157.4c0-1.5-3.1-2.7-7-2.7s-7,1.2-7,2.7"/>
							<path class="st1" d="M250.4,169.4c0-1.5-3.1-2.7-7-2.7s-7,1.2-7,2.7"/>
						</g>
						<path class="st24" d="M236.4,174.8c0-1.5,3.1-2.7,7-2.7s7,1.2,7,2.7"/>
					</g>
				</g>
			</g>
		</g>
		<g>
			<path class="st15" d="M413.1,362.6c0,4-5.3,7.3-11.8,7.3s-11.8-3.3-11.8-7.3c0,4-5.3,7.3-11.8,7.3c-6.5,0-11.8-3.3-11.8-7.3
				c0,4-5.3,7.3-11.8,7.3c-6.5,0-11.8-3.3-11.8-7.3c0,4-5.3,7.3-11.8,7.3c-6.5,0-11.8-3.3-11.8-7.3c0,4-5.3,7.3-11.8,7.3
				c-6.5,0-11.8-3.3-11.8-7.3c0,4-5.3,7.3-11.8,7.3s-11.8-3.3-11.8-7.3v-1.4h142.2V362.6z"/>
			<rect x="270.9" y="346.6" class="st16" width="142.2" height="14.6"/>
			<path class="st17" d="M294.6,362.6c0,4,5.3,7.3,11.8,7.3c6.5,0,11.8-3.3,11.8-7.3v-1.4h-23.7V362.6z"/>
			<rect x="294.6" y="346.6" class="st18" width="23.7" height="14.6"/>
			<path class="st17" d="M342,362.6c0,4,5.3,7.3,11.8,7.3c6.5,0,11.8-3.3,11.8-7.3v-1.4H342V362.6z"/>
			<rect x="342" y="346.6" class="st18" width="23.7" height="14.6"/>
			<path class="st17" d="M389.4,362.6c0,4,5.3,7.3,11.8,7.3s11.8-3.3,11.8-7.3v-1.4h-23.7V362.6z"/>
			<rect x="389.4" y="346.6" class="st18" width="23.7" height="14.6"/>
		</g>
		<rect x="60.6" y="231.4" class="st10" width="365.5" height="4.2"/>
		<g>
			<g>
				<rect x="60.6" y="244.1" class="st17" width="11.1" height="6.9"/>
				<rect x="60.6" y="251.1" class="st17" width="5.5" height="6.9"/>
			</g>
			<g>
				<rect x="60.6" y="258" class="st17" width="11.1" height="6.9"/>
				<rect x="60.6" y="265" class="st17" width="5.5" height="6.9"/>
			</g>
			<g>
				<rect x="60.6" y="271.6" class="st17" width="11.1" height="6.9"/>
				<rect x="60.6" y="278.5" class="st17" width="5.5" height="6.9"/>
			</g>
			<g>
				<rect x="60.6" y="285.1" class="st17" width="11.1" height="6.9"/>
				<rect x="60.6" y="292.1" class="st17" width="5.5" height="6.9"/>
			</g>
			<g>
				<rect x="60.6" y="298.7" class="st17" width="11.1" height="6.9"/>
				<rect x="60.6" y="305.6" class="st17" width="5.5" height="6.9"/>
			</g>
			<g>
				<rect x="60.6" y="312.2" class="st17" width="11.1" height="6.9"/>
				<rect x="60.6" y="319.2" class="st17" width="5.5" height="6.9"/>
			</g>
		</g>
		<g>
			<g>
				
					<rect x="415" y="244.1" transform="matrix(-1 2.774524e-11 -2.774524e-11 -1 841.1526 495.172)" class="st17" width="11.1" height="6.9"/>
				
					<rect x="420.6" y="251.1" transform="matrix(-1 2.774524e-11 -2.774524e-11 -1 846.6925 509.0703)" class="st17" width="5.5" height="6.9"/>
			</g>
			<g>
				
					<rect x="415" y="258" transform="matrix(-1 2.774524e-11 -2.774524e-11 -1 841.1526 522.9686)" class="st17" width="11.1" height="6.9"/>
				
					<rect x="420.6" y="265" transform="matrix(-1 2.774524e-11 -2.774524e-11 -1 846.6925 536.8669)" class="st17" width="5.5" height="6.9"/>
			</g>
			<g>
				
					<rect x="415" y="271.6" transform="matrix(-1 2.774524e-11 -2.774524e-11 -1 841.1526 550.0802)" class="st17" width="11.1" height="6.9"/>
				
					<rect x="420.6" y="278.5" transform="matrix(-1 2.774524e-11 -2.774524e-11 -1 846.6925 563.9785)" class="st17" width="5.5" height="6.9"/>
			</g>
			<g>
				
					<rect x="415" y="285.1" transform="matrix(-1 2.774524e-11 -2.774524e-11 -1 841.1526 577.1917)" class="st17" width="11.1" height="6.9"/>
				
					<rect x="420.6" y="292.1" transform="matrix(-1 2.774524e-11 -2.774524e-11 -1 846.6925 591.09)" class="st17" width="5.5" height="6.9"/>
			</g>
			<g>
				
					<rect x="415" y="298.7" transform="matrix(-1 2.774524e-11 -2.774524e-11 -1 841.1526 604.3032)" class="st17" width="11.1" height="6.9"/>
				
					<rect x="420.6" y="305.6" transform="matrix(-1 2.774524e-11 -2.774524e-11 -1 846.6925 618.2015)" class="st17" width="5.5" height="6.9"/>
			</g>
			<g>
				
					<rect x="415" y="312.2" transform="matrix(-1 2.774524e-11 -2.774524e-11 -1 841.1526 631.4148)" class="st17" width="11.1" height="6.9"/>
				
					<rect x="420.6" y="319.2" transform="matrix(-1 2.774524e-11 -2.774524e-11 -1 846.6925 645.3131)" class="st17" width="5.5" height="6.9"/>
			</g>
		</g>
	</g>
	<g>
		<path class="st0" d="M201.9,380.5l-2.8,21.9c8.7,6.4,16,4.1,16.3-1.2c0.3-5.3,3.4-17.8-1.7-20.3
			C208.6,378.3,201.9,380.5,201.9,380.5z"/>
		<path class="st0" d="M204.3,379.6c-2.8,3.7-0.1,7.9-0.1,7.9l1.9-2.6l1.6,3.5c0,0,6.1-0.5,6.2-7.5"/>
		<path class="st25" d="M198.2,431.9c-1.9-7.3-1.2-25.6,0.9-29.6c0,0,7.6,3.1,14.7,1.8c2,6.4-0.1,14.9,2.9,28.3c0,1.7-5.5,3-7.1,0
			c-1.5-9.8-2-24-4.1-24c-1.3,0-2.6,15.3-0.6,23C202.4,433.4,200.6,433,198.2,431.9z"/>
		<path class="st25" d="M213.8,380.9c1.6,0.8,2.9,1.2,3.7,2.3c1.9,2.7-1.8,10.8-0.7,21.7c0.2,2.5-6.4,1.7-6.4,1.7
			C209,396.2,211.8,382.8,213.8,380.9z"/>
		<path class="st25" d="M206,379.6c-3.5-0.2-4.6,0.7-4.6,0.7c-5.7,5.2-3.2,19.8-5.1,23c0.6,2,3.2,2.3,4.9,2.3
			C201.4,400.3,200.2,384.5,206,379.6z"/>
		<path class="st1" d="M202.4,409c0,0,4.9-3.2,6.2,4.1"/>
		<polygon class="st26" points="207.6,388.4 206,384.9 204.1,387.5 205.1,389 203,403 204.1,404.8 206.8,403 206.4,389 		"/>
		<polygon class="st0" points="197.9,395.5 201.8,389 202.7,389.4 202.2,391.8 206,392 206,393.4 203.1,393.8 205.8,395.2 
			205.1,396.8 199.3,396.5 		"/>
		<path class="st0" d="M212.9,392.9v-3.1c0,0-1.2-0.2-1.2,0c0.1,0.2-0.5,2.7-0.5,2.7l-2.9-0.6l-0.3,1.1l1.8,1l-2,0.2l-0.2,3.1
			l4.1,0.5L212.9,392.9z"/>
		<path class="st25" d="M202.5,379.8c-10.7,4.6-12.5,18.9-3.1,16.7c-0.7-0.6-0.4-2.3,0.9-4.9c-3.3,0.4-3.1-1.6-1-6.8"/>
		<path class="st1" d="M204.3,379.6c-0.5,1.7,0.2,4.1,1.7,5.3c0,0,5.9,0.6,7.8-4C213.6,375.6,204.9,377.3,204.3,379.6z"/>
		<path class="st25" d="M215.4,381.7c6.6,3.5,12.4,20.4-3.6,16.1l1.2-4.9c5.7,1.6,5.9-0.7,4-4.7"/>
		<path class="st27" d="M203.7,432.3c0,0-2.2-2.3-5.9-1.5c0,0-1.8,2.3-1.8,4.2l2.9,0.7C201.3,435.7,200.3,433.7,203.7,432.3z"/>
		<path class="st27" d="M215.5,433.8c0,0-2.2-2.3-5.8-1.5c0,0-1.8,2.3-1.8,4.2l2.9,0.7C213.1,437.2,212.1,435.3,215.5,433.8z"/>
		<path class="st0" d="M213.9,380.4l-0.8-13.4c-2.7-0.8-5.4-1.1-8.5,0.4l-0.3,12.1c-0.5,1.7,0.2,4.1,1.7,5.3c0,0,5.9,0.6,7.8-4
			L213.9,380.4z"/>
		<path class="st0" d="M212.5,374.9c3-1.5,2.1,2.8,6.3,2.2c0,0-2.4,3.9-6.2,0.4c0,0-2.1,3.4-6.8,0.6
			C209.9,378.5,208.5,373.8,212.5,374.9z"/>
	</g>
</g>
</svg>
