<?xml version="1.0" encoding="utf-8"?>
<!-- Generator: Adobe Illustrator 28.3.0, SVG Export Plug-In . SVG Version: 6.00 Build 0)  -->
<svg version="1.1" xmlns="http://www.w3.org/2000/svg" xmlns:xlink="http://www.w3.org/1999/xlink" x="0px" y="0px"
	 viewBox="0 0 600 443.7" style="enable-background:new 0 0 600 443.7;" xml:space="preserve">
<style type="text/css">
	.st0{fill:#FFFFFF;stroke:#000000;stroke-miterlimit:10;}
	.st1{fill:none;stroke:#000000;stroke-miterlimit:10;}
	.st2{fill:#FFFFFF;stroke:#040303;stroke-miterlimit:10;}
	.st3{fill:#FFFFFF;stroke:#1D1E1C;stroke-miterlimit:10;}
	.st4{fill:none;stroke:#1D1E1C;stroke-miterlimit:10;}
	.st5{fill:#FFFFFF;stroke:#231F20;stroke-miterlimit:10;}
	.st6{fill:#ADCCA2;stroke:#231F20;stroke-miterlimit:10;}
	.st7{fill:#B0B1B3;stroke:#231F20;stroke-miterlimit:10;}
	.st8{fill:none;stroke:#231F20;stroke-miterlimit:10;}
	.st9{fill:#ADCCA2;stroke:#000000;stroke-miterlimit:10;}
	.st10{fill:#EBCF9E;stroke:#000000;stroke-miterlimit:10;}
	.st11{fill:#E1A091;stroke:#231F20;stroke-miterlimit:10;}
	.st12{fill:#DBDADB;stroke:#000000;stroke-miterlimit:10;}
	.st13{fill:#F6EBD7;stroke:#000000;stroke-miterlimit:10;}
	.st14{fill:#E6C281;stroke:#000000;stroke-miterlimit:10;}
	.st15{fill:#9DBAD6;stroke:#000000;stroke-miterlimit:10;}
	.st16{fill:#DAE2EE;stroke:#000000;stroke-miterlimit:10;}
	.st17{fill:#E1A091;stroke:#000000;stroke-miterlimit:10;}
	.st18{fill:#F1D5CB;stroke:#000000;stroke-miterlimit:10;}
	.st19{fill:#FFFFFF;stroke:#969396;stroke-miterlimit:10;}
	.st20{fill:#ADCCA2;}
	.st21{fill:#F6EBD7;stroke:#B92300;stroke-miterlimit:10;}
	.st22{fill:#FFFFFF;stroke:#7AAC68;stroke-miterlimit:10;}
	.st23{fill:#95A3CD;stroke:#000000;stroke-miterlimit:10;}
	.st24{fill:#B92300;stroke:#000000;stroke-miterlimit:10;}
	.st25{fill:#8C9AA3;stroke:#000000;stroke-miterlimit:10;}
	.st26{fill:#ED1C24;stroke:#000000;stroke-miterlimit:10;}
	.st27{stroke:#000000;stroke-linejoin:bevel;stroke-miterlimit:10;}
</style>
<g id="Layer_5">
	<g>
		<g>
			<path class="st0" d="M320.3,97.7c5-14.4-3.7-35,5.6-45.6c6.9-2.6,16.3-7.3,20.1-14.9l-2.2-1.6c0,0-7.5,14.3-25.4,12.1
				c-16.7-2-24.2,14.9-14.9,21.7l1.6-1.8c-6.8-7.6-0.4-13.7,5.6-14.7C312.5,66,298.6,76,298.1,95"/>
			<path class="st0" d="M301.2,95.7c2.5-25.3,20.9-35.1,16,0.3"/>
			<polyline class="st0" points="321,51.1 321.4,41.5 315.9,41.1 314.2,51.1 			"/>
		</g>
		<path class="st1" d="M307.8,66.6c3.3,3.5,7.4,5.5,13.6,2.9"/>
		<path class="st0" d="M296.3,68.6c-9.9,7.5-4.1,15.2,5.8,7.6L296.3,68.6z"/>
		<line class="st0" x1="296.5" y1="74.7" x2="317.8" y2="59.2"/>
		<polygon class="st0" points="316.9,57.5 319,61.2 320.2,60.4 318.1,56.7 		"/>
	</g>
	<g>
		<g>
			<path class="st0" d="M395.7,124.2c-4.1-7.4-8.7-26.3-13.3-44.5c8,5.5,13,16.1,13,16.1l1.6-1.1C393.7,82,381,74,381,74l-1.5,0.3
				l-4-9.8l-5.4,2.7l1.8,8.8l-2.4,0.5c-2.5,11.2-5.8,20.5-11.4,24.8l2.7,1.9c5.7-4.7,9.2-9.7,9.9-18.7c-1.4,13.6-2.3,27.4-0.8,42"/>
			<path class="st0" d="M373.4,126.3c-0.7-8.3-0.6-16.5,1.6-23.3l8-1.1c3.6,11.1,6.8,17.9,9.9,22.9"/>
		</g>
		<polyline class="st0" points="371.9,76.1 375.7,79.4 379.5,74.3 		"/>
		<path class="st0" d="M375.7,79.4c-0.8,6.6,0.1,13.7,3.8,22.9"/>
		<path class="st1" d="M370.2,89.6c0,0,5.5,1.8,14.1-2.2"/>
		<path class="st1" d="M369.7,90.4c0,0-1.2-2.7-3.6-1.7"/>
		<path class="st1" d="M388.7,85.6c0,0,0.5-2.5,2.3-2.4"/>
		<path class="st1" d="M385.6,109.6c2.1,0,3.3-0.3,4.3-1.5"/>
		<path class="st1" d="M369.2,111.9c1.4,0.6,2.5,1,4.1,0"/>
	</g>
	<g>
		<g>
			<path class="st0" d="M542.8,419.5c-7.1-13.8-13.3-29.5-13.3-45.5c6.2,1.3,11.4,6,15.5,14l2-1.5c-4.9-10.5-13.8-16.1-22.4-18.1
				l-0.8-9.1l-5.8,0.5l1.4,7.8c-1-0.1-2-0.1-3-0.1c-0.9,13.2-6.5,21.3-15.3,25.2l1,2.3c6-2.7,11-6.8,15.5-18.4l0.4,51.6"/>
			<path class="st0" d="M522,428.2V398l7.3-0.4c3.3,8.7,5.4,15.4,10.4,24.5"/>
			<polygon class="st0" points="553.7,381.4 540.2,392.6 546.8,404.2 560.7,393.9 			"/>
		</g>
		<path class="st0" d="M518.6,367.6c0,0,0.8,16.4,2.1,23.8h-4.8c0,0-0.2-8.8,1.2-16.3"/>
		<path class="st0" d="M533.5,375.4l-2.7-1.2c0.9,3,2.7,16.7,2.7,16.7c-3.9,0.6-8.9,0-8.9,0c-1.6-10.8,1.2-22.2,1.2-22.2
			s1.9,0.5,3.6,1.2"/>
		<path class="st0" d="M519.3,367.6c-0.6,3.5,5.9,4.6,6.5,1.1"/>
		<path class="st0" d="M517.7,392.8c4.4,1.5,9.2,1.3,14.2,0"/>
	</g>
	<g>
		<path class="st0" d="M400.2,88.1c-1.4-6.3-6.4-20.7-2.4-31.4c1.4-3.8-3.4-10.7-0.5-18c0,0,12-1.7,12.6-0.1
			c1.7,4.3-2,16.2-0.9,17.6c5.3,6.8,3.5,19.1,1.3,31.9"/>
		<path class="st0" d="M409.3,43.9c1.3,5.6-1,9.7-6.6,10v2.9c11.5-0.1,11.7-13.4,7.4-18.3c-1.3-1.5-13.2,0-13.2,0
			c-6.8,15.4-1,17.3,5.8,18.3v-2.9c-5.2-0.2-6.7-3.9-5.7-10"/>
		<path class="st0" d="M397.4,42c-1.7,5,0.4,6.3,5.3,4.2"/>
		<path class="st0" d="M403.3,46.3c5.2,2.3,7.7,0.3,5.4-4.6"/>
		<path class="st0" d="M400.8,38.8c2-0.6-8.6-10.2,0-12.3c8.6-2.2,0.8,12.5,5,12.3"/>
		<polyline class="st0" points="403.6,26.5 402.7,21.1 395.7,23.1 398.2,28.9 		"/>
		<line class="st1" x1="399.6" y1="23.3" x2="400.6" y2="26.7"/>
		<line class="st1" x1="398.2" y1="25.7" x2="402" y2="24.5"/>
		<path class="st1" d="M397.4,30.4c0-1,4.9-4.5,7.1-3"/>
		<path class="st1" d="M399.6,58.2c0.7,2.8,1.6,5,6.1,6.9"/>
		<path class="st1" d="M399.3,84.6c0,0,11.6-0.1,11.6,0"/>
		<path class="st1" d="M400.6,38.1c-1.3,3.1,2.1,6.5,2.1,6.5s4.4-2.5,3.1-6.6"/>
	</g>
	<g>
		<g>
			<path class="st0" d="M164.6,106.6c2-13.3,0.1-25.5-4.7-36.6c5.1,3.5,14.7,2.3,19.2,0.9l-1.3-3.8c-12.7,3-17.5-3.7-23.8-4.2
				l-4.2-10.6l-6.3,4.3l2.3,7.8c-6.2,2.3-11.6,8.6-19.9,6.3l-1,3.8c5.8,1.4,13.4,1.6,19.8-4.6c-2.9,12.4-5.1,23-2.2,36.5"/>
			<line class="st0" x1="142.2" y1="81.3" x2="163.7" y2="81.3"/>
			<path class="st0" d="M146.8,106.6c0,0-0.2-19,5.9-19.3s7,19.3,7,19.3"/>
		</g>
		<path class="st0" d="M149.8,52.3c1.8,7.4-5.5,7.7-6.3,4.3L149.8,52.3z"/>
		<path class="st0" d="M149.8,52.3l-6.3,4.3l-3.8-1.2c3.8-5.5,6.5-5.9,10.3-6.6L149.8,52.3z"/>
		<path class="st0" d="M139.7,55.4c3.8-1.1,6.5-1.6,10.3-6.6"/>
		<polygon class="st0" points="145.3,62.6 150.1,64.5 148.8,67.8 143.5,65.4 		"/>
		<polygon class="st0" points="150.1,64.5 153.2,66 156,62.6 153.2,60.9 		"/>
		<path class="st0" d="M150.1,64.5l-1.3,3.2l2.4,0.7c0,0,1.6,7.5,0,13.8l2.4,2.2l2.3-2.3c0,0,0-7.9-3.6-14.4l0.8-1.8L150.1,64.5z"/>
		<path class="st1" d="M145,90.5c0.6-2.1,8.7-6,15.1-1"/>
	</g>
	<g>
		<g>
			<line class="st0" x1="325.7" y1="247.7" x2="330.6" y2="247.7"/>
			<line class="st0" x1="445.4" y1="298.4" x2="450.4" y2="298.4"/>
			<line class="st0" x1="292.3" y1="242" x2="287" y2="242"/>
			<line class="st0" x1="113.1" y1="377.2" x2="107.8" y2="377.2"/>
			<line class="st0" x1="333.1" y1="225.8" x2="337.4" y2="225.8"/>
			<line class="st0" x1="469.1" y1="174.5" x2="473.3" y2="174.5"/>
			<line class="st0" x1="337.4" y1="91.6" x2="341.7" y2="91.6"/>
			<line class="st0" x1="351.2" y1="195.1" x2="353.5" y2="195.1"/>
			<line class="st0" x1="278.5" y1="213.6" x2="275" y2="213.6"/>
		</g>
		<g>
			<line class="st0" x1="173.4" y1="232.2" x2="178.4" y2="232.2"/>
			<line class="st0" x1="319" y1="115.2" x2="324" y2="115.2"/>
			<line class="st0" x1="216" y1="215.2" x2="210.7" y2="215.2"/>
			<line class="st0" x1="231.1" y1="261.5" x2="235.4" y2="261.5"/>
			<line class="st0" x1="437.4" y1="127.4" x2="441.7" y2="127.4"/>
			<line class="st0" x1="164.8" y1="139.9" x2="169.1" y2="139.9"/>
			<line class="st0" x1="235" y1="236.1" x2="237.3" y2="236.1"/>
			<line class="st0" x1="325.9" y1="121.3" x2="328.1" y2="121.3"/>
			<line class="st0" x1="499.5" y1="147.1" x2="504.5" y2="147.1"/>
			<line class="st0" x1="506.4" y1="153.2" x2="508.6" y2="153.2"/>
			<line class="st0" x1="395.8" y1="213.6" x2="398" y2="213.6"/>
			<line class="st0" x1="109.5" y1="396.2" x2="111.7" y2="396.2"/>
			<line class="st0" x1="90.4" y1="358" x2="92.6" y2="358"/>
			<line class="st0" x1="208.5" y1="205.7" x2="210.7" y2="205.7"/>
			<line class="st0" x1="200.4" y1="129.5" x2="202.7" y2="129.5"/>
			<line class="st0" x1="160.1" y1="131.5" x2="162.3" y2="131.5"/>
			<line class="st0" x1="343.3" y1="73.5" x2="345.5" y2="73.5"/>
			<line class="st0" x1="493.2" y1="380.2" x2="495.4" y2="380.2"/>
			<line class="st0" x1="162.3" y1="254.6" x2="158.8" y2="254.6"/>
			<line class="st0" x1="87.7" y1="401.3" x2="84.2" y2="401.3"/>
		</g>
		<line class="st1" x1="225.4" y1="217.7" x2="219.8" y2="218.2"/>
	</g>
	<g>
		<g>
			<path class="st2" d="M84.8,243.9c-5.2,8.8-13.7,7.6-3.1-2l-1.7-2.1c-8.4,5.3-9.2,19,2.5,11.1"/>
			<polygon class="st2" points="81.5,236.6 79.1,242.5 81.3,244.1 84.4,239.8 			"/>
			<path class="st3" d="M86.4,242.5c-5.7,4-6.2,13.9-6.1,20.1c0.2,6.1-1.3,15.5-1.3,26.1"/>
			<path class="st3" d="M91.5,243.1c1.2,11.9,1.5,13.4,1.5,21.2c-0.3,5.3,0.1,14.5,0.1,26.4"/>
			<path class="st3" d="M92.1,244.7c-1.2-3.3,0.4-7.2-0.6-12.7c-1-1.1-6.1-0.2-6.1-0.2c-2.2,3.1-1.3,9.2,0.4,12.3"/>
			<path class="st3" d="M82.8,234.1c-1.4,0-1.8,3.4,0,3.4C84.1,237.5,84.3,234.1,82.8,234.1z"/>
			<path class="st3" d="M85.4,234.1c-1.4,0-1.8,3.4,0,3.4C86.6,237.5,86.8,234.1,85.4,234.1z"/>
			<path class="st2" d="M91.7,243.1c1.8,7,1.8,16.9-0.2,23.1c-1.1,0.2-2.3,0-3.4-0.6c1.3-5.5,2-12.5,1.2-17.6"/>
			<line class="st4" x1="86.4" y1="235.5" x2="91" y2="235.5"/>
			<path class="st4" d="M82.7,288.7c0-3.7,0.5-20.4,3.5-20.3c3.6,0.2,3.6,22.3,3.6,22.3"/>
		</g>
		<g>
			<g>
				<polygon class="st5" points="429.7,69.7 429.7,76.4 433.4,76.4 433,69.7 				"/>
				<path class="st5" d="M441.1,126.2c0,0,6.2-47.6,2.6-48.4c-3.8-0.8-1.2,8.3-6.6,8.3s-6.6-12.7-6.6-12.7h2.2
					c0,0,1.3,10.3,4.6,10.3c2.1,0,0.7-11.8,7.6-11.8c7,0,19,3.5,17.4-4.5c-1.1-5.3-7.8-4.9-9.7-4.9v-2c1.5,0,9.8-1.4,11.7,5.7
					c2.4,9.1-4.6,8.2-6.6,10.2c-2,2,0.8,42.7,0.8,42.7"/>
				<path class="st5" d="M456.2,118.9c0,0-1.7-24.4-6-23c-4.3,1.4-6.4,31.1-6.4,31.1"/>
				<polyline class="st5" points="447.6,75.4 447.6,66 454.2,66 453.4,76.4 				"/>
			</g>
		</g>
		<g>
			<path class="st0" d="M543.5,226.2c0.7-12.5,1.4-25,1.2-36.7c5.7,0.1,13.1-1.2,18.3-3.3l-0.7-2.3c-6.2,1.4-12.1,2.1-23,1.8
				l-1.9-9.9l-6,1.5l1,8c-1.5-0.1-3.1-0.2-4.7-0.3c-5,5.3-11.7,9.7-21.5,10.5l0.8,2.6c7.3-0.7,12.4-1.8,19.4-6.8l3.5,43.2"/>
			<polyline class="st0" points="532.9,232.4 533.4,208.2 538.8,208 540.6,228.3 			"/>
		</g>
	</g>
	<g>
		<g>
			<path class="st6" d="M487.6,153.1L508.7,9.9l25.6,142.2C523.4,151.1,500.9,155.5,487.6,153.1z"/>
			<g>
				<polyline class="st7" points="510.9,113.6 519.7,99.5 510.9,107.3 				"/>
				<polyline class="st7" points="509.8,57.5 505.8,51.8 509.8,61.3 				"/>
				<polyline class="st7" points="509.8,67.7 513.8,61.3 509.8,64.5 				"/>
				<polyline class="st7" points="509.8,77.7 504.6,70.6 509.8,82.3 				"/>
				<polyline class="st7" points="509.8,99.5 503.8,90.5 508.9,104.3 				"/>
				<polyline class="st7" points="508.7,140.4 497.4,133 507.8,145.6 				"/>
			</g>
			<g>
				<polyline class="st7" points="513.8,175.9 509.8,35.6 505.8,175.9 				"/>
				<line class="st8" x1="501.6" y1="175.9" x2="509.6" y2="175.9"/>
				<line class="st8" x1="517.9" y1="175.9" x2="525.9" y2="175.9"/>
				<g>
					<polyline class="st7" points="510.9,133 522,115.4 510.9,124.9 					"/>
					<polyline class="st7" points="509.8,120.2 500.9,110.7 508.9,124.9 					"/>
					<polyline class="st7" points="510.9,90.5 515.3,81.3 509.8,85.9 					"/>
				</g>
				<line class="st8" x1="500.9" y1="73.9" x2="495.8" y2="79.9"/>
				<line class="st8" x1="498.3" y1="88.8" x2="494.5" y2="94.8"/>
				<line class="st8" x1="497.4" y1="99.5" x2="494.5" y2="101.3"/>
				<line class="st8" x1="525.9" y1="111.7" x2="529.8" y2="115.4"/>
				<line class="st8" x1="525.9" y1="122.7" x2="531.8" y2="128"/>
				<line class="st8" x1="529.8" y1="135.4" x2="534.3" y2="137.1"/>
				<line class="st8" x1="512.6" y1="44.6" x2="516.5" y2="46.2"/>
				<line class="st8" x1="508.7" y1="23.1" x2="503" y2="29.6"/>
				<line class="st8" x1="510.9" y1="31.5" x2="514.5" y2="33.9"/>
				<line class="st8" x1="492.2" y1="151.2" x2="489.7" y2="155.4"/>
				<line class="st8" x1="498.3" y1="152" x2="499.2" y2="155"/>
				<line class="st8" x1="492.2" y1="131.9" x2="487.6" y2="135.4"/>
				<line class="st8" x1="518.3" y1="149.9" x2="522" y2="155"/>
				<line class="st8" x1="528.9" y1="149.9" x2="531" y2="154.1"/>
				<line class="st8" x1="503" y1="124" x2="500.9" y2="128"/>
				<line class="st8" x1="500.9" y1="124" x2="498.3" y2="125.3"/>
				<line class="st8" x1="499.6" y1="121.2" x2="494.5" y2="121.2"/>
				<line class="st8" x1="523.4" y1="135.4" x2="525.9" y2="138.2"/>
				<line class="st8" x1="522" y1="137.1" x2="522" y2="141.7"/>
				<line class="st8" x1="523.4" y1="131.9" x2="525.9" y2="131.9"/>
				<line class="st8" x1="515.3" y1="90.5" x2="518.3" y2="88.6"/>
				<line class="st8" x1="516.5" y1="93" x2="518.3" y2="92.5"/>
				<line class="st8" x1="515.3" y1="94.8" x2="518.3" y2="96.9"/>
				<line class="st8" x1="517.4" y1="69" x2="521" y2="67.7"/>
				<line class="st8" x1="518.3" y1="72.4" x2="521" y2="72.4"/>
				<line class="st8" x1="517.4" y1="75.5" x2="522" y2="79.9"/>
				<line class="st8" x1="499.2" y1="175.9" x2="489.7" y2="175.9"/>
			</g>
		</g>
		<g>
			<g>
				<path class="st0" d="M255.4,94.2c-2.1-12.7,17.3-13.8,17.3-0.6C272.6,101.2,257.1,104.6,255.4,94.2z"/>
				<path class="st9" d="M279.2,102.2c13-28.1-31.5-42.7-39.6-12.2C234.9,107.7,268.6,125.3,279.2,102.2z"/>
				<g>
					<line class="st0" x1="269.8" y1="87.9" x2="246.2" y2="87.4"/>
					<line class="st0" x1="272.6" y1="91.6" x2="249" y2="91.1"/>
					<line class="st0" x1="269.8" y1="84.4" x2="246.2" y2="83.9"/>
				</g>
				<path class="st9" d="M283.5,98.2c7.5-16.2-18.2-24.7-22.9-7.1C257.9,101.3,277.3,111.5,283.5,98.2z"/>
				<polyline class="st10" points="259.3,166.2 258.4,80.5 252.5,80.5 253.4,166.1 				"/>
				<g>
					<path class="st1" d="M258.9,131.3c0,11.4-5.6,13.6-5.6,34.8"/>
					<path class="st1" d="M258.9,115.9c0,11.4-5.6,13.6-5.6,34.8"/>
				</g>
				<path class="st9" d="M273.2,61.8c-6,12.9,14.5,19.7,18.2,5.6C293.7,59.2,278.1,51.1,273.2,61.8z"/>
				<line class="st0" x1="280.2" y1="71.5" x2="274.3" y2="71.4"/>
				<line class="st0" x1="275.8" y1="66" x2="269.8" y2="65.8"/>
				<path class="st9" d="M256.4,39.4c-6,12.9,14.5,19.7,18.2,5.6C276.8,36.9,261.3,28.8,256.4,39.4z"/>
				<path class="st9" d="M249.6,81.2c19.9,2.9,20.8-27.6,0.3-27C237.9,54.5,233.2,78.8,249.6,81.2z"/>
				<path class="st9" d="M258.2,116.2c15.5,12.8,32.1-12.7,14.3-22.9C262.1,87.5,245.5,105.7,258.2,116.2z"/>
				<path class="st9" d="M239.4,112.4c-11.7,8.1,2.4,24.3,12.8,14.2C258.2,120.6,249,105.8,239.4,112.4z"/>
				<line class="st0" x1="245.3" y1="126.3" x2="234.3" y2="126.1"/>
				<line class="st0" x1="245.5" y1="124" x2="239.5" y2="123.9"/>
				<line class="st0" x1="239.8" y1="121.3" x2="233.8" y2="121.2"/>
				<path class="st9" d="M261.9,124.2c-5.7,12.4,13.8,18.8,17.4,5.4C281.4,121.7,266.6,114,261.9,124.2z"/>
				<line class="st0" x1="281.9" y1="69.7" x2="269.5" y2="69.4"/>
			</g>
			<line class="st1" x1="263.9" y1="165.7" x2="231.8" y2="166.2"/>
		</g>
		<g>
			<path class="st11" d="M106.8,289.7c-12.1-50.5,30-72.2,8.3-126.6h3.2c21.7,54.3-15.4,74.9,0,126.6"/>
			<g>
				<path class="st6" d="M144.3,175.9c0-72-48.8-72-48.8,0H144.3z"/>
				<path class="st8" d="M126.7,144.6c5.7,8.4,7.4,14.7,7.4,31.3"/>
				<path class="st8" d="M110.4,140.2c1.9-7,4.9-13.4,9.5-18.4"/>
				<path class="st8" d="M107.1,175.9c0-5.6,0-12.3,0.6-19.3"/>
				<path class="st8" d="M104.7,159.9c0.5-5.4,1.3-11,2.7-16.3"/>
				<path class="st8" d="M111.3,128.6c2.4-2.9,5.2-5.2,8.5-6.8c-6.6,27.7,8,32.7,8,54"/>
				<path class="st8" d="M100.1,175.9c0-11.8,1.1-24.9,4.9-35.6"/>
				<path class="st8" d="M102.5,141.1c1.6-4.4,3.7-8.4,6.4-11.7"/>
				<path class="st8" d="M119.9,121.9c-1,23.6,21.3,32.7,21.3,54"/>
				<path class="st8" d="M95.5,175.9c0-11.8,5.6-17.8,6.7-24.9"/>
				<path class="st8" d="M119,143.6c2.9,15.7-9.1,13-3.5,32.3"/>
				<line class="st8" x1="112.7" y1="125.3" x2="108.1" y2="123.2"/>
				<path class="st8" d="M114,124.3c0,0-4.2-4.4-3.6-4"/>
				<line class="st8" x1="115.5" y1="123.2" x2="115.1" y2="118.1"/>
			</g>
			<path class="st11" d="M113.3,255.4c0-31.6-24.6-29.6-24.6-57.6h-1.7c0,28,21.3,26,21.3,57.6"/>
			<path class="st11" d="M114.2,255.4c9.5-3.4,20.8-12.8,20.8-29h-1.7c0,15.3-9.5,20.1-19.1,23.6"/>
			<path class="st8" d="M125.1,202.1c-0.2,6.7-8.2,31.1-10.9,37.9"/>
			<path class="st8" d="M113.3,259.9c-1,13.8,0.5,21.3,3,27.8"/>
			<path class="st6" d="M147.4,231.9c0-38.4-24.6-38.4-24.6,0H147.4z"/>
			<path class="st6" d="M110.4,208c0-65-42.2-65-42.2,0H110.4z"/>
			<path class="st8" d="M89.3,159.3c-13.7,14.7-14,29.7-14,48.8"/>
			<path class="st8" d="M89.3,159.3C75.6,174,83.6,189,83.6,208"/>
			<path class="st8" d="M89.3,159.3c12.3,11.4,15.4,29.7,15.4,48.8"/>
			<path class="st8" d="M89.3,159.3c0,28.2,10.8,21.1,10.8,48.8"/>
			<path class="st8" d="M127.8,231.9c0-12.1,1.4-21,7.3-28.8"/>
			<path class="st8" d="M141.2,231.9c0-12.1-11.9-21-6.1-28.8"/>
			<path class="st8" d="M144.3,231.9c3.9-8.4-10.2-14.4-1.7-24.9"/>
			<path class="st8" d="M130.4,212c-3.6,5.6-7.6,12.3-7.6,19.9"/>
			<path class="st8" d="M91.5,176.7c3,6.8-9.5,14.2-8.1,27.4"/>
			<path class="st8" d="M79,175.9c-2.4,9.1-10.7,16.4-10.7,24.2"/>
			<path class="st8" d="M118.4,214.6c-1.9,6.7-0.5,15.1-2.4,20.7"/>
			<path class="st8" d="M107.1,244c-3-15.2-10.8-20.8-14.8-30.3"/>
			<path class="st8" d="M106.8,289.7c-3.4-14.1,10-29.8,0-57.2"/>
			<line class="st8" x1="147.4" y1="289.7" x2="129.3" y2="289.7"/>
			<line class="st8" x1="115.1" y1="289.7" x2="97.1" y2="289.7"/>
			<path class="st8" d="M114.9,255.1c7.6-3,16.7-14.3,17.5-21.5"/>
			<line class="st8" x1="138.5" y1="204.8" x2="140.4" y2="201.7"/>
			<line class="st8" x1="137.3" y1="204.8" x2="136.3" y2="199.5"/>
			<line class="st8" x1="132.5" y1="203.8" x2="130.4" y2="201.7"/>
			<line class="st8" x1="85.8" y1="161.5" x2="81.3" y2="157.1"/>
			<line class="st8" x1="87.7" y1="160.2" x2="89.3" y2="152.6"/>
			<line class="st8" x1="91" y1="161" x2="94.7" y2="155.3"/>
		</g>
		<g>
			<g>
				<path class="st9" d="M508.9,260c8.4-18.3-20.5-27.8-25.8-8C480.1,263.6,502,275,508.9,260z"/>
				<path class="st9" d="M531.2,277.3c13-28.1-31.5-42.7-39.6-12.2C486.9,282.8,520.5,300.4,531.2,277.3z"/>
				<g>
					<line class="st0" x1="527.7" y1="264.2" x2="504" y2="263.7"/>
					<line class="st0" x1="524.8" y1="267.9" x2="501.2" y2="267.4"/>
					<line class="st0" x1="524.8" y1="260.7" x2="501.2" y2="260.2"/>
				</g>
				<path class="st9" d="M535.5,302.7c7.5-16.2-18.2-24.7-22.9-7.1C509.9,305.9,529.3,316.1,535.5,302.7z"/>
				<path class="st9" d="M507.3,279.1c-2.1-12.7,17.3-13.8,17.3-0.6C524.6,286.1,509.1,289.5,507.3,279.1z"/>
				<polyline class="st10" points="511.3,351.1 510.4,265.4 504.5,265.4 505.3,351.1 				"/>
				<path class="st1" d="M511.3,343.1c0-20.4-6.8-42.4-6.8-77.8"/>
				<path class="st9" d="M516.7,244c-6,12.9,14.5,19.7,18.2,5.6C537.2,241.5,521.7,233.4,516.7,244z"/>
				<path class="st9" d="M493.5,283.5c18.3,8.4,27.8-20.5,8-25.8C489.9,254.6,478.5,276.5,493.5,283.5z"/>
				<path class="st9" d="M479.2,285.7c-6,12.9,14.5,19.7,18.2,5.6C499.7,283.2,484.1,275.1,479.2,285.7z"/>
				<path class="st9" d="M489.1,306c-6,12.9,14.5,19.7,18.2,5.6C509.5,303.4,494,295.3,489.1,306z"/>
				<path class="st9" d="M513.9,309.1c-5.7,12.4,13.8,18.8,17.4,5.4C533.4,306.7,518.6,299,513.9,309.1z"/>
				<path class="st0" d="M525.8,351.1c0-7.8-17.4-10.1-17.4,0"/>
				<line class="st0" x1="515.7" y1="350.8" x2="538.3" y2="351.2"/>
			</g>
		</g>
	</g>
</g>
<g id="_x32_andar">
	<g>
		<g>
			<rect x="121.5" y="346.8" class="st12" width="365.5" height="82"/>
			<g>
				<g>
					<rect x="121.5" y="421.9" class="st10" width="11.1" height="6.9"/>
					<rect x="121.5" y="414.9" class="st10" width="5.5" height="6.9"/>
				</g>
				<g>
					<rect x="121.5" y="408" class="st10" width="11.1" height="6.9"/>
					<rect x="121.5" y="401" class="st10" width="5.5" height="6.9"/>
				</g>
				<g>
					<rect x="121.5" y="394.4" class="st10" width="11.1" height="6.9"/>
					<rect x="121.5" y="387.5" class="st10" width="5.5" height="6.9"/>
				</g>
				<g>
					<rect x="121.5" y="380.9" class="st10" width="11.1" height="6.9"/>
					<rect x="121.5" y="373.9" class="st10" width="5.5" height="6.9"/>
				</g>
				<g>
					<rect x="121.5" y="367.3" class="st10" width="11.1" height="6.9"/>
					<rect x="121.5" y="360.4" class="st10" width="5.5" height="6.9"/>
				</g>
				<g>
					<rect x="121.5" y="353.8" class="st10" width="11.1" height="6.9"/>
					<rect x="121.5" y="346.8" class="st10" width="5.5" height="6.9"/>
				</g>
			</g>
			<g>
				<g>
					
						<rect x="475.9" y="421.9" transform="matrix(-1 -2.774548e-11 2.774548e-11 -1 962.8243 850.7003)" class="st10" width="11.1" height="6.9"/>
					
						<rect x="481.4" y="414.9" transform="matrix(-1 -2.774548e-11 2.774548e-11 -1 968.3641 836.8019)" class="st10" width="5.5" height="6.9"/>
				</g>
				<g>
					
						<rect x="475.9" y="408" transform="matrix(-1 -2.774548e-11 2.774548e-11 -1 962.8243 822.9036)" class="st10" width="11.1" height="6.9"/>
					
						<rect x="481.4" y="401" transform="matrix(-1 -2.774548e-11 2.774548e-11 -1 968.3641 809.0052)" class="st10" width="5.5" height="6.9"/>
				</g>
				<g>
					
						<rect x="475.9" y="394.4" transform="matrix(-1 -2.774548e-11 2.774548e-11 -1 962.8243 795.7921)" class="st10" width="11.1" height="6.9"/>
					
						<rect x="481.4" y="387.5" transform="matrix(-1 -2.774548e-11 2.774548e-11 -1 968.3641 781.8937)" class="st10" width="5.5" height="6.9"/>
				</g>
				<g>
					
						<rect x="475.9" y="380.9" transform="matrix(-1 -2.774548e-11 2.774548e-11 -1 962.8243 768.6805)" class="st10" width="11.1" height="6.9"/>
					
						<rect x="481.4" y="373.9" transform="matrix(-1 -2.774548e-11 2.774548e-11 -1 968.3641 754.7822)" class="st10" width="5.5" height="6.9"/>
				</g>
				<g>
					
						<rect x="475.9" y="367.3" transform="matrix(-1 -2.774548e-11 2.774548e-11 -1 962.8243 741.569)" class="st10" width="11.1" height="6.9"/>
					
						<rect x="481.4" y="360.4" transform="matrix(-1 -2.774548e-11 2.774548e-11 -1 968.3641 727.6707)" class="st10" width="5.5" height="6.9"/>
				</g>
				<g>
					
						<rect x="475.9" y="353.8" transform="matrix(-1 -2.774548e-11 2.774548e-11 -1 962.8243 714.4575)" class="st10" width="11.1" height="6.9"/>
					
						<rect x="481.4" y="346.8" transform="matrix(-1 -2.774548e-11 2.774548e-11 -1 968.3641 700.5591)" class="st10" width="5.5" height="6.9"/>
				</g>
			</g>
			<rect x="141.5" y="364.4" class="st0" width="135.2" height="53.9"/>
			<rect x="331.8" y="364.4" class="st0" width="135.2" height="53.9"/>
			<g>
				<rect x="331.8" y="418.3" class="st10" width="135.2" height="2.5"/>
				<rect x="331.8" y="415.8" class="st13" width="135.2" height="2.5"/>
			</g>
			<g>
				<rect x="141.5" y="418.3" class="st10" width="135.2" height="2.5"/>
				<rect x="141.5" y="415.8" class="st13" width="135.2" height="2.5"/>
			</g>
			<rect x="121.5" y="338.3" class="st14" width="365.5" height="8.5"/>
			<rect x="121.5" y="334.1" class="st10" width="365.5" height="4.2"/>
			<rect x="121.5" y="326.1" class="st10" width="365.5" height="8"/>
			<rect x="276.7" y="364.4" class="st0" width="55.1" height="64.4"/>
			<rect x="276.7" y="426.3" class="st13" width="55.1" height="2.5"/>
			<rect x="276.7" y="353.5" class="st0" width="55.1" height="10.9"/>
			<g>
				<path class="st15" d="M276.7,362.6c0,4-5.3,7.3-11.8,7.3c-6.5,0-11.8-3.3-11.8-7.3c0,4-5.3,7.3-11.8,7.3
					c-6.5,0-11.8-3.3-11.8-7.3c0,4-5.3,7.3-11.8,7.3c-6.5,0-11.8-3.3-11.8-7.3c0,4-5.3,7.3-11.8,7.3c-6.5,0-11.8-3.3-11.8-7.3
					c0,4-5.3,7.3-11.8,7.3s-11.8-3.3-11.8-7.3c0,4-5.3,7.3-11.8,7.3s-11.8-3.3-11.8-7.3v-1.4h142.2V362.6z"/>
				<rect x="134.5" y="346.6" class="st16" width="142.2" height="14.6"/>
				<path class="st17" d="M158.2,362.6c0,4,5.3,7.3,11.8,7.3s11.8-3.3,11.8-7.3v-1.4h-23.7V362.6z"/>
				<rect x="158.2" y="346.6" class="st18" width="23.7" height="14.6"/>
				<path class="st17" d="M205.6,362.6c0,4,5.3,7.3,11.8,7.3c6.5,0,11.8-3.3,11.8-7.3v-1.4h-23.7V362.6z"/>
				<rect x="205.6" y="346.6" class="st18" width="23.7" height="14.6"/>
				<path class="st17" d="M253,362.6c0,4,5.3,7.3,11.8,7.3c6.5,0,11.8-3.3,11.8-7.3v-1.4H253V362.6z"/>
				<rect x="253" y="346.6" class="st18" width="23.7" height="14.6"/>
			</g>
		</g>
		<g>
			<rect x="121.5" y="244.1" class="st12" width="365.5" height="82"/>
			<g>
				<line class="st19" x1="454" y1="319.3" x2="466.1" y2="319.3"/>
				<line class="st19" x1="212.8" y1="310" x2="224.9" y2="310"/>
				<line class="st19" x1="142.5" y1="423.3" x2="154.6" y2="423.3"/>
				<line class="st19" x1="457" y1="425.6" x2="469.1" y2="425.6"/>
				<line class="st19" x1="342.6" y1="252.6" x2="354.7" y2="252.6"/>
				<line class="st19" x1="294.5" y1="297.1" x2="306.6" y2="297.1"/>
				<line class="st19" x1="169.8" y1="256.4" x2="181.9" y2="256.4"/>
				<line class="st19" x1="450.2" y1="254.2" x2="462.3" y2="254.2"/>
			</g>
			<g>
				<rect x="148.4" y="265.2" class="st0" width="142.2" height="33.2"/>
				<rect x="317.8" y="265.2" class="st0" width="142.2" height="33.2"/>
				<g>
					<g>
						<rect x="317.8" y="298.4" class="st10" width="142.2" height="2.5"/>
						<rect x="317.8" y="295.9" class="st13" width="142.2" height="2.5"/>
					</g>
					<g>
						<rect x="148.4" y="298.4" class="st10" width="142.2" height="2.5"/>
						<rect x="148.4" y="295.9" class="st13" width="142.2" height="2.5"/>
						<line class="st19" x1="318.1" y1="303.4" x2="460.2" y2="303.4"/>
						<line class="st19" x1="144.4" y1="303.4" x2="286.5" y2="303.4"/>
					</g>
				</g>
			</g>
			<rect x="121.5" y="235.7" class="st14" width="365.5" height="8.5"/>
			<g>
				<polygon class="st20" points="121.5,231.4 304.2,182 304.2,231.4 				"/>
				<g>
					<polygon class="st13" points="121.5,231.4 304.2,182 304.2,172.9 121.5,222.3 					"/>
					<polygon class="st13" points="121.5,171.2 304.2,121.7 304.2,112.6 121.5,162.1 					"/>
				</g>
				<g>
					<polygon class="st17" points="121.5,171.2 304.2,121.7 304.2,172.9 121.5,222.3 					"/>
					<g>
						<line class="st13" x1="304.2" y1="165.6" x2="121.5" y2="215"/>
						<line class="st13" x1="304.2" y1="158.3" x2="121.5" y2="207.7"/>
						<line class="st13" x1="304.2" y1="151" x2="121.5" y2="200.4"/>
						<line class="st13" x1="304.2" y1="143.7" x2="121.5" y2="193.1"/>
						<line class="st13" x1="304.2" y1="136.3" x2="121.5" y2="185.8"/>
						<line class="st13" x1="304.2" y1="129" x2="121.5" y2="178.5"/>
					</g>
					<g>
						<line class="st21" x1="305.1" y1="166.5" x2="122.4" y2="215.9"/>
						<line class="st21" x1="305.1" y1="159.2" x2="122.4" y2="208.6"/>
						<line class="st21" x1="305.1" y1="151.9" x2="122.4" y2="201.3"/>
						<line class="st21" x1="305.1" y1="144.6" x2="122.4" y2="194"/>
						<line class="st21" x1="305.1" y1="137.2" x2="122.4" y2="186.7"/>
						<line class="st21" x1="305.1" y1="129.9" x2="122.4" y2="179.4"/>
						<line class="st21" x1="305.1" y1="122.6" x2="122.4" y2="172.1"/>
					</g>
					<g>
						<g>
							<line class="st13" x1="132.1" y1="212.1" x2="132.1" y2="219.4"/>
						</g>
						<g>
							<line class="st13" x1="154.4" y1="206.1" x2="154.4" y2="213.4"/>
						</g>
						<g>
							<line class="st13" x1="176.7" y1="200.1" x2="176.7" y2="207.4"/>
						</g>
						<g>
							<line class="st13" x1="199" y1="194" x2="199" y2="201.4"/>
						</g>
						<g>
							<line class="st13" x1="221.3" y1="188" x2="221.3" y2="195.3"/>
						</g>
						<g>
							<line class="st13" x1="243.5" y1="182" x2="243.5" y2="189.3"/>
						</g>
						<g>
							<line class="st13" x1="265.8" y1="176" x2="265.8" y2="183.3"/>
						</g>
						<g>
							<line class="st13" x1="288.1" y1="169.9" x2="288.1" y2="177.2"/>
						</g>
					</g>
					<g>
						<g>
							<line class="st13" x1="132.1" y1="197.5" x2="132.1" y2="204.8"/>
						</g>
						<g>
							<line class="st13" x1="154.4" y1="191.5" x2="154.4" y2="198.8"/>
						</g>
						<g>
							<line class="st13" x1="176.7" y1="185.5" x2="176.7" y2="192.8"/>
						</g>
						<g>
							<line class="st13" x1="199" y1="179.4" x2="199" y2="186.7"/>
						</g>
						<g>
							<line class="st13" x1="221.3" y1="173.4" x2="221.3" y2="180.7"/>
						</g>
						<g>
							<line class="st13" x1="243.5" y1="167.4" x2="243.5" y2="174.7"/>
						</g>
						<g>
							<line class="st13" x1="265.8" y1="161.3" x2="265.8" y2="168.7"/>
						</g>
						<g>
							<line class="st13" x1="288.1" y1="155.3" x2="288.1" y2="162.6"/>
						</g>
					</g>
					<g>
						<g>
							<line class="st13" x1="142.5" y1="202" x2="142.5" y2="209.3"/>
						</g>
						<g>
							<line class="st13" x1="164.8" y1="196" x2="164.8" y2="203.3"/>
						</g>
						<g>
							<line class="st13" x1="187.1" y1="189.9" x2="187.1" y2="197.3"/>
						</g>
						<g>
							<line class="st13" x1="209.4" y1="183.9" x2="209.4" y2="191.2"/>
						</g>
						<g>
							<line class="st13" x1="231.7" y1="177.9" x2="231.7" y2="185.2"/>
						</g>
						<g>
							<line class="st13" x1="254" y1="171.9" x2="254" y2="179.2"/>
						</g>
						<g>
							<line class="st13" x1="276.3" y1="165.8" x2="276.3" y2="173.1"/>
						</g>
						<g>
							<line class="st13" x1="298.6" y1="159.8" x2="298.6" y2="167.1"/>
						</g>
					</g>
					<g>
						<g>
							<line class="st13" x1="142.5" y1="187.4" x2="142.5" y2="194.7"/>
						</g>
						<g>
							<line class="st13" x1="164.8" y1="181.4" x2="164.8" y2="188.7"/>
						</g>
						<g>
							<line class="st13" x1="187.1" y1="175.3" x2="187.1" y2="182.6"/>
						</g>
						<g>
							<line class="st13" x1="209.4" y1="169.3" x2="209.4" y2="176.6"/>
						</g>
						<g>
							<line class="st13" x1="231.7" y1="163.3" x2="231.7" y2="170.6"/>
						</g>
						<g>
							<line class="st13" x1="254" y1="157.2" x2="254" y2="164.5"/>
						</g>
						<g>
							<line class="st13" x1="276.3" y1="151.2" x2="276.3" y2="158.5"/>
						</g>
						<g>
							<line class="st13" x1="298.6" y1="145.2" x2="298.6" y2="152.5"/>
						</g>
					</g>
					<g>
						<g>
							<line class="st13" x1="132.1" y1="182.9" x2="132.1" y2="190.2"/>
						</g>
						<g>
							<line class="st13" x1="154.4" y1="176.9" x2="154.4" y2="184.2"/>
						</g>
						<g>
							<line class="st13" x1="176.7" y1="170.8" x2="176.7" y2="178.2"/>
						</g>
						<g>
							<line class="st13" x1="199" y1="164.8" x2="199" y2="172.1"/>
						</g>
						<g>
							<line class="st13" x1="221.3" y1="158.8" x2="221.3" y2="166.1"/>
						</g>
						<g>
							<line class="st13" x1="243.5" y1="152.8" x2="243.5" y2="160.1"/>
						</g>
						<g>
							<line class="st13" x1="265.8" y1="146.7" x2="265.8" y2="154"/>
						</g>
						<g>
							<line class="st13" x1="288.1" y1="140.7" x2="288.1" y2="148"/>
						</g>
					</g>
					<g>
						<g>
							<line class="st13" x1="132.1" y1="168.3" x2="132.1" y2="175.6"/>
						</g>
						<g>
							<line class="st13" x1="154.4" y1="162.3" x2="154.4" y2="169.6"/>
						</g>
						<g>
							<line class="st13" x1="176.7" y1="156.2" x2="176.7" y2="163.5"/>
						</g>
						<g>
							<line class="st13" x1="199" y1="150.2" x2="199" y2="157.5"/>
						</g>
						<g>
							<line class="st13" x1="221.3" y1="144.2" x2="221.3" y2="151.5"/>
						</g>
						<g>
							<line class="st13" x1="243.5" y1="138.1" x2="243.5" y2="145.4"/>
						</g>
						<g>
							<line class="st13" x1="265.8" y1="132.1" x2="265.8" y2="139.4"/>
						</g>
						<g>
							<line class="st13" x1="288.1" y1="126.1" x2="288.1" y2="133.4"/>
						</g>
					</g>
					<g>
						<g>
							<line class="st13" x1="142.5" y1="172.8" x2="142.5" y2="180.1"/>
						</g>
						<g>
							<line class="st13" x1="164.8" y1="166.7" x2="164.8" y2="174"/>
						</g>
						<g>
							<line class="st13" x1="187.1" y1="160.7" x2="187.1" y2="168"/>
						</g>
						<g>
							<line class="st13" x1="209.4" y1="154.7" x2="209.4" y2="162"/>
						</g>
						<g>
							<line class="st13" x1="231.7" y1="148.7" x2="231.7" y2="156"/>
						</g>
						<g>
							<line class="st13" x1="254" y1="142.6" x2="254" y2="149.9"/>
						</g>
						<g>
							<line class="st13" x1="276.3" y1="136.6" x2="276.3" y2="143.9"/>
						</g>
						<g>
							<line class="st13" x1="298.6" y1="130.6" x2="298.6" y2="137.9"/>
						</g>
					</g>
				</g>
				<polygon class="st20" points="487,231.4 304.2,182 304.2,231.4 				"/>
				<g>
					<g>
						<line class="st22" x1="356.2" y1="214.5" x2="368.3" y2="214.5"/>
						<line class="st22" x1="434.7" y1="223.8" x2="446.8" y2="223.8"/>
						<line class="st22" x1="266.5" y1="221.4" x2="278.6" y2="221.4"/>
						<line class="st22" x1="251.2" y1="213.4" x2="263.2" y2="213.4"/>
						<line class="st22" x1="152.8" y1="227.7" x2="164.8" y2="227.7"/>
					</g>
				</g>
				<g>
					<polygon class="st13" points="487,231.4 304.2,182 304.2,172.9 487,222.3 					"/>
					<polygon class="st13" points="487,171.2 304.2,121.7 304.2,112.6 487,162.1 					"/>
				</g>
				<g>
					<polygon class="st17" points="487,171.2 304.2,121.7 304.2,172.9 487,222.3 					"/>
					<g>
						<line class="st13" x1="304.2" y1="165.6" x2="487" y2="215"/>
						<line class="st13" x1="304.2" y1="158.3" x2="487" y2="207.7"/>
						<line class="st13" x1="304.2" y1="151" x2="487" y2="200.4"/>
						<line class="st13" x1="304.2" y1="143.7" x2="487" y2="193.1"/>
						<line class="st13" x1="304.2" y1="136.3" x2="487" y2="185.8"/>
						<line class="st13" x1="304.2" y1="129" x2="487" y2="178.5"/>
					</g>
					<g>
						<line class="st21" x1="303.3" y1="166.5" x2="486" y2="215.9"/>
						<line class="st21" x1="303.3" y1="159.2" x2="486" y2="208.6"/>
						<line class="st21" x1="303.3" y1="151.9" x2="486" y2="201.3"/>
						<line class="st21" x1="303.3" y1="144.6" x2="486" y2="194"/>
						<line class="st21" x1="303.3" y1="137.2" x2="486" y2="186.7"/>
						<line class="st21" x1="303.3" y1="129.9" x2="486" y2="179.4"/>
						<line class="st21" x1="303.3" y1="122.6" x2="486" y2="172.1"/>
					</g>
					<g>
						<g>
							<line class="st13" x1="476.3" y1="212.1" x2="476.3" y2="219.4"/>
						</g>
						<g>
							<line class="st13" x1="454" y1="206.1" x2="454" y2="213.4"/>
						</g>
						<g>
							<line class="st13" x1="431.7" y1="200.1" x2="431.7" y2="207.4"/>
						</g>
						<g>
							<line class="st13" x1="409.4" y1="194" x2="409.4" y2="201.4"/>
						</g>
						<g>
							<line class="st13" x1="387.2" y1="188" x2="387.2" y2="195.3"/>
						</g>
						<g>
							<line class="st13" x1="364.9" y1="182" x2="364.9" y2="189.3"/>
						</g>
						<g>
							<line class="st13" x1="342.6" y1="176" x2="342.6" y2="183.3"/>
						</g>
						<g>
							<line class="st13" x1="320.3" y1="169.9" x2="320.3" y2="177.2"/>
						</g>
					</g>
					<g>
						<g>
							<line class="st13" x1="476.3" y1="197.5" x2="476.3" y2="204.8"/>
						</g>
						<g>
							<line class="st13" x1="454" y1="191.5" x2="454" y2="198.8"/>
						</g>
						<g>
							<line class="st13" x1="431.7" y1="185.5" x2="431.7" y2="192.8"/>
						</g>
						<g>
							<line class="st13" x1="409.4" y1="179.4" x2="409.4" y2="186.7"/>
						</g>
						<g>
							<line class="st13" x1="387.2" y1="173.4" x2="387.2" y2="180.7"/>
						</g>
						<g>
							<line class="st13" x1="364.9" y1="167.4" x2="364.9" y2="174.7"/>
						</g>
						<g>
							<line class="st13" x1="342.6" y1="161.3" x2="342.6" y2="168.7"/>
						</g>
						<g>
							<line class="st13" x1="320.3" y1="155.3" x2="320.3" y2="162.6"/>
						</g>
					</g>
					<g>
						<g>
							<line class="st13" x1="465.9" y1="202" x2="465.9" y2="209.3"/>
						</g>
						<g>
							<line class="st13" x1="443.6" y1="196" x2="443.6" y2="203.3"/>
						</g>
						<g>
							<line class="st13" x1="421.3" y1="189.9" x2="421.3" y2="197.3"/>
						</g>
						<g>
							<line class="st13" x1="399" y1="183.9" x2="399" y2="191.2"/>
						</g>
						<g>
							<line class="st13" x1="376.7" y1="177.9" x2="376.7" y2="185.2"/>
						</g>
						<g>
							<line class="st13" x1="354.4" y1="171.9" x2="354.4" y2="179.2"/>
						</g>
						<g>
							<line class="st13" x1="332.1" y1="165.8" x2="332.1" y2="173.1"/>
						</g>
						<g>
							<line class="st13" x1="309.8" y1="159.8" x2="309.8" y2="167.1"/>
						</g>
					</g>
					<g>
						<g>
							<line class="st13" x1="465.9" y1="187.4" x2="465.9" y2="194.7"/>
						</g>
						<g>
							<line class="st13" x1="443.6" y1="181.4" x2="443.6" y2="188.7"/>
						</g>
						<g>
							<line class="st13" x1="421.3" y1="175.3" x2="421.3" y2="182.6"/>
						</g>
						<g>
							<line class="st13" x1="399" y1="169.3" x2="399" y2="176.6"/>
						</g>
						<g>
							<line class="st13" x1="376.7" y1="163.3" x2="376.7" y2="170.6"/>
						</g>
						<g>
							<line class="st13" x1="354.4" y1="157.2" x2="354.4" y2="164.5"/>
						</g>
						<g>
							<line class="st13" x1="332.1" y1="151.2" x2="332.1" y2="158.5"/>
						</g>
						<g>
							<line class="st13" x1="309.8" y1="145.2" x2="309.8" y2="152.5"/>
						</g>
					</g>
					<g>
						<g>
							<line class="st13" x1="476.3" y1="182.9" x2="476.3" y2="190.2"/>
						</g>
						<g>
							<line class="st13" x1="454" y1="176.9" x2="454" y2="184.2"/>
						</g>
						<g>
							<line class="st13" x1="431.7" y1="170.8" x2="431.7" y2="178.2"/>
						</g>
						<g>
							<line class="st13" x1="409.4" y1="164.8" x2="409.4" y2="172.1"/>
						</g>
						<g>
							<line class="st13" x1="387.2" y1="158.8" x2="387.2" y2="166.1"/>
						</g>
						<g>
							<line class="st13" x1="364.9" y1="152.8" x2="364.9" y2="160.1"/>
						</g>
						<g>
							<line class="st13" x1="342.6" y1="146.7" x2="342.6" y2="154"/>
						</g>
						<g>
							<line class="st13" x1="320.3" y1="140.7" x2="320.3" y2="148"/>
						</g>
					</g>
					<g>
						<g>
							<line class="st13" x1="476.3" y1="168.3" x2="476.3" y2="175.6"/>
						</g>
						<g>
							<line class="st13" x1="454" y1="162.3" x2="454" y2="169.6"/>
						</g>
						<g>
							<line class="st13" x1="431.7" y1="156.2" x2="431.7" y2="163.5"/>
						</g>
						<g>
							<line class="st13" x1="409.4" y1="150.2" x2="409.4" y2="157.5"/>
						</g>
						<g>
							<line class="st13" x1="387.2" y1="144.2" x2="387.2" y2="151.5"/>
						</g>
						<g>
							<line class="st13" x1="364.9" y1="138.1" x2="364.9" y2="145.4"/>
						</g>
						<g>
							<line class="st13" x1="342.6" y1="132.1" x2="342.6" y2="139.4"/>
						</g>
						<g>
							<line class="st13" x1="320.3" y1="126.1" x2="320.3" y2="133.4"/>
						</g>
					</g>
					<g>
						<g>
							<line class="st13" x1="465.9" y1="172.8" x2="465.9" y2="180.1"/>
						</g>
						<g>
							<line class="st13" x1="443.6" y1="166.7" x2="443.6" y2="174"/>
						</g>
						<g>
							<line class="st13" x1="421.3" y1="160.7" x2="421.3" y2="168"/>
						</g>
						<g>
							<line class="st13" x1="399" y1="154.7" x2="399" y2="162"/>
						</g>
						<g>
							<line class="st13" x1="376.7" y1="148.7" x2="376.7" y2="156"/>
						</g>
						<g>
							<line class="st13" x1="354.4" y1="142.6" x2="354.4" y2="149.9"/>
						</g>
						<g>
							<line class="st13" x1="332.1" y1="136.6" x2="332.1" y2="143.9"/>
						</g>
						<g>
							<line class="st13" x1="309.8" y1="130.6" x2="309.8" y2="137.9"/>
						</g>
					</g>
				</g>
				<g>
					<g>
						<ellipse class="st23" cx="304.2" cy="211.1" rx="39.9" ry="13.5"/>
						<g>
							<path class="st15" d="M344.1,206.7c0-7.5-17.8-13.5-39.9-13.5s-39.9,6.1-39.9,13.5v4.4c0-7.5,17.8-13.5,39.9-13.5
								s39.9,6.1,39.9,13.5V206.7z"/>
							<line class="st15" x1="266.3" y1="202.5" x2="266.3" y2="207"/>
							<line class="st15" x1="268.3" y1="200.9" x2="268.3" y2="205.3"/>
							<line class="st15" x1="271.7" y1="198.9" x2="271.7" y2="203.3"/>
							<line class="st15" x1="276.6" y1="197" x2="276.6" y2="201.4"/>
							<line class="st15" x1="285.5" y1="194.8" x2="285.5" y2="199.2"/>
							<line class="st15" x1="297.1" y1="193.4" x2="297.1" y2="197.9"/>
							<line class="st15" x1="311.3" y1="193.4" x2="311.3" y2="197.9"/>
						</g>
					</g>
					<g>
						<path class="st17" d="M311.2,123.3c0-1.5-3.1-2.7-7-2.7c-3.9,0-7,1.2-7,2.7v51.5c0-1.5,3.1-2.7,7-2.7c3.9,0,7,1.2,7,2.7V123.3
							z"/>
						<line class="st21" x1="298.9" y1="122.8" x2="298.9" y2="172.4"/>
						<g>
							<path class="st1" d="M311.2,133.3c0-1.5-3.1-2.7-7-2.7c-3.9,0-7,1.2-7,2.7"/>
							<path class="st1" d="M311.2,145.3c0-1.5-3.1-2.7-7-2.7c-3.9,0-7,1.2-7,2.7"/>
							<path class="st1" d="M311.2,157.4c0-1.5-3.1-2.7-7-2.7c-3.9,0-7,1.2-7,2.7"/>
							<path class="st1" d="M311.2,169.4c0-1.5-3.1-2.7-7-2.7c-3.9,0-7,1.2-7,2.7"/>
						</g>
						<path class="st24" d="M297.2,174.8c0-1.5,3.1-2.7,7-2.7c3.9,0,7,1.2,7,2.7"/>
					</g>
				</g>
			</g>
		</g>
		<g>
			<path class="st15" d="M473.9,362.6c0,4-5.3,7.3-11.8,7.3c-6.5,0-11.8-3.3-11.8-7.3c0,4-5.3,7.3-11.8,7.3s-11.8-3.3-11.8-7.3
				c0,4-5.3,7.3-11.8,7.3c-6.5,0-11.8-3.3-11.8-7.3c0,4-5.3,7.3-11.8,7.3s-11.8-3.3-11.8-7.3c0,4-5.3,7.3-11.8,7.3
				c-6.5,0-11.8-3.3-11.8-7.3c0,4-5.3,7.3-11.8,7.3c-6.5,0-11.8-3.3-11.8-7.3v-1.4h142.2V362.6z"/>
			<rect x="331.8" y="346.6" class="st16" width="142.2" height="14.6"/>
			<path class="st17" d="M355.5,362.6c0,4,5.3,7.3,11.8,7.3c6.5,0,11.8-3.3,11.8-7.3v-1.4h-23.7V362.6z"/>
			<rect x="355.5" y="346.6" class="st18" width="23.7" height="14.6"/>
			<path class="st17" d="M402.8,362.6c0,4,5.3,7.3,11.8,7.3c6.5,0,11.8-3.3,11.8-7.3v-1.4h-23.7V362.6z"/>
			<rect x="402.8" y="346.6" class="st18" width="23.7" height="14.6"/>
			<path class="st17" d="M450.2,362.6c0,4,5.3,7.3,11.8,7.3c6.5,0,11.8-3.3,11.8-7.3v-1.4h-23.7V362.6z"/>
			<rect x="450.2" y="346.6" class="st18" width="23.7" height="14.6"/>
		</g>
		<rect x="121.5" y="231.4" class="st10" width="365.5" height="4.2"/>
		<g>
			<g>
				<rect x="121.5" y="244.1" class="st17" width="11.1" height="6.9"/>
				<rect x="121.5" y="251.1" class="st17" width="5.5" height="6.9"/>
			</g>
			<g>
				<rect x="121.5" y="258" class="st17" width="11.1" height="6.9"/>
				<rect x="121.5" y="265" class="st17" width="5.5" height="6.9"/>
			</g>
			<g>
				<rect x="121.5" y="271.6" class="st17" width="11.1" height="6.9"/>
				<rect x="121.5" y="278.5" class="st17" width="5.5" height="6.9"/>
			</g>
			<g>
				<rect x="121.5" y="285.1" class="st17" width="11.1" height="6.9"/>
				<rect x="121.5" y="292.1" class="st17" width="5.5" height="6.9"/>
			</g>
			<g>
				<rect x="121.5" y="298.7" class="st17" width="11.1" height="6.9"/>
				<rect x="121.5" y="305.6" class="st17" width="5.5" height="6.9"/>
			</g>
			<g>
				<rect x="121.5" y="312.2" class="st17" width="11.1" height="6.9"/>
				<rect x="121.5" y="319.2" class="st17" width="5.5" height="6.9"/>
			</g>
		</g>
		<g>
			<g>
				
					<rect x="475.9" y="244.1" transform="matrix(-1 2.774524e-11 -2.774524e-11 -1 962.8243 495.172)" class="st17" width="11.1" height="6.9"/>
				
					<rect x="481.4" y="251.1" transform="matrix(-1 2.774524e-11 -2.774524e-11 -1 968.3641 509.0703)" class="st17" width="5.5" height="6.9"/>
			</g>
			<g>
				
					<rect x="475.9" y="258" transform="matrix(-1 2.774524e-11 -2.774524e-11 -1 962.8243 522.9686)" class="st17" width="11.1" height="6.9"/>
				
					<rect x="481.4" y="265" transform="matrix(-1 2.774524e-11 -2.774524e-11 -1 968.3641 536.8669)" class="st17" width="5.5" height="6.9"/>
			</g>
			<g>
				
					<rect x="475.9" y="271.6" transform="matrix(-1 2.774524e-11 -2.774524e-11 -1 962.8243 550.0802)" class="st17" width="11.1" height="6.9"/>
				
					<rect x="481.4" y="278.5" transform="matrix(-1 2.774524e-11 -2.774524e-11 -1 968.3641 563.9785)" class="st17" width="5.5" height="6.9"/>
			</g>
			<g>
				
					<rect x="475.9" y="285.1" transform="matrix(-1 2.774524e-11 -2.774524e-11 -1 962.8243 577.1917)" class="st17" width="11.1" height="6.9"/>
				
					<rect x="481.4" y="292.1" transform="matrix(-1 2.774524e-11 -2.774524e-11 -1 968.3641 591.09)" class="st17" width="5.5" height="6.9"/>
			</g>
			<g>
				
					<rect x="475.9" y="298.7" transform="matrix(-1 2.774524e-11 -2.774524e-11 -1 962.8243 604.3032)" class="st17" width="11.1" height="6.9"/>
				
					<rect x="481.4" y="305.6" transform="matrix(-1 2.774524e-11 -2.774524e-11 -1 968.3641 618.2015)" class="st17" width="5.5" height="6.9"/>
			</g>
			<g>
				
					<rect x="475.9" y="312.2" transform="matrix(-1 2.774524e-11 -2.774524e-11 -1 962.8243 631.4148)" class="st17" width="11.1" height="6.9"/>
				
					<rect x="481.4" y="319.2" transform="matrix(-1 2.774524e-11 -2.774524e-11 -1 968.3641 645.3131)" class="st17" width="5.5" height="6.9"/>
			</g>
		</g>
	</g>
	<g>
		<path class="st0" d="M262.8,380.5l-2.8,21.9c8.7,6.4,16,4.1,16.3-1.2c0.3-5.3,3.4-17.8-1.7-20.3
			C269.5,378.3,262.8,380.5,262.8,380.5z"/>
		<path class="st0" d="M265.1,379.6c-2.8,3.7-0.1,7.9-0.1,7.9l1.9-2.6l1.6,3.5c0,0,6.1-0.5,6.2-7.5"/>
		<path class="st25" d="M259.1,431.9c-1.9-7.3-1.2-25.6,0.9-29.6c0,0,7.6,3.1,14.7,1.8c2,6.4-0.1,14.9,2.9,28.3c0,1.7-5.5,3-7.1,0
			c-1.5-9.8-2-24-4.1-24c-1.3,0-2.6,15.3-0.6,23C263.2,433.4,261.5,433,259.1,431.9z"/>
		<path class="st25" d="M274.6,380.9c1.6,0.8,2.9,1.2,3.7,2.3c1.9,2.7-1.8,10.8-0.7,21.7c0.2,2.5-6.4,1.7-6.4,1.7
			C269.9,396.2,272.6,382.8,274.6,380.9z"/>
		<path class="st25" d="M266.8,379.6c-3.5-0.2-4.6,0.7-4.6,0.7c-5.7,5.2-3.2,19.8-5.1,23c0.6,2,3.2,2.3,4.9,2.3
			C262.2,400.3,261.1,384.5,266.8,379.6z"/>
		<path class="st1" d="M263.2,409c0,0,4.9-3.2,6.2,4.1"/>
		<polygon class="st26" points="268.4,388.4 266.8,384.9 265,387.5 265.9,389 263.9,403 265,404.8 267.7,403 267.3,389 		"/>
		<polygon class="st0" points="258.7,395.5 262.7,389 263.5,389.4 263,391.8 266.8,392 266.8,393.4 263.9,393.8 266.6,395.2 
			266,396.8 260.2,396.5 		"/>
		<path class="st0" d="M273.8,392.9v-3.1c0,0-1.2-0.2-1.2,0s-0.5,2.7-0.5,2.7l-2.9-0.6l-0.3,1.1l1.8,1l-2,0.2l-0.2,3.1l4.1,0.5
			L273.8,392.9z"/>
		<path class="st25" d="M263.3,379.8c-10.7,4.6-12.5,18.9-3.1,16.7c-0.7-0.6-0.4-2.3,0.9-4.9c-3.3,0.4-3.1-1.6-1-6.8"/>
		<path class="st1" d="M265.1,379.6c-0.5,1.7,0.2,4.1,1.7,5.3c0,0,5.9,0.6,7.8-4C274.5,375.6,265.8,377.3,265.1,379.6z"/>
		<path class="st25" d="M276.2,381.7c6.6,3.5,12.4,20.4-3.6,16.1l1.2-4.9c5.7,1.6,5.9-0.7,4-4.7"/>
		<path class="st27" d="M264.5,432.3c0,0-2.2-2.3-5.9-1.5c0,0-1.8,2.3-1.8,4.2l2.9,0.7C262.1,435.7,261.2,433.7,264.5,432.3z"/>
		<path class="st27" d="M276.3,433.8c0,0-2.2-2.3-5.8-1.5c0,0-1.8,2.3-1.8,4.2l2.9,0.7C273.9,437.2,273,435.3,276.3,433.8z"/>
		<path class="st0" d="M274.7,380.4l-0.8-13.4c-2.7-0.8-5.4-1.1-8.5,0.4l-0.3,12.1c-0.5,1.7,0.2,4.1,1.7,5.3c0,0,5.9,0.6,7.8-4
			L274.7,380.4z"/>
		<path class="st0" d="M273.4,374.9c3-1.5,2.1,2.8,6.3,2.2c0,0-2.4,3.9-6.2,0.4c0,0-2.1,3.4-6.8,0.6
			C270.7,378.5,269.4,373.8,273.4,374.9z"/>
	</g>
</g>
</svg>
