<?xml version="1.0" encoding="UTF-8"?>
<svg id="tec-superior" xmlns="http://www.w3.org/2000/svg" width="100" height="100" viewBox="0 0 100 100">
  <defs>
    <style>
      .cls-1 {
        fill: #b2b9c4;
      }

      .cls-2 {
        fill: #68768c;
      }

      .cls-3 {
        fill: #a6a6a6;
      }

      .cls-4 {
        fill: #47576d;
      }

      .cls-5 {
        fill: #9fbae1;
      }

      .cls-6 {
        fill: #fff;
      }

      .cls-7 {
        fill: #0d1729;
      }

      .cls-8 {
        fill: #e4eaf8;
      }

      .cls-9 {
        fill: #707487;
      }

      .cls-10 {
        fill: none;
        stroke: #fcdfc2;
        stroke-miterlimit: 10;
        stroke-width: 2.94px;
      }
    </style>
  </defs>
  <g>
    <g>
      <g>
        <g>
          <g>
            <path class="cls-9" d="M49.65,49.58c9.24,0,16.46-2.09,16.46-11.24,0-9.15,3.48-28.42-13.22-28.42,0,0,0-2.89-4.6-2.89-7.22,0-14.15,6.27-14.15,12.45,0,24.16-5.6,30.1,15.51,30.1Z"/>
            <path class="cls-7" d="M49.65,49.46c7.17.18,16.16-1.55,16.01-10.46-.16-7.16,1.07-14.82-1.68-21.6-1.97-4.97-6.84-6.87-11.91-6.54,0,0-.09-.93-.09-.93-.17-1-1.17-1.6-2.2-1.75-3.88-.55-8.01,1.24-10.79,3.95-1.88,1.84-3.3,4.24-3.5,6.68-.06,1.26,0,2.88-.06,4.21-.1,4.31-.42,8.66-.77,12.93-.16,2.81-.47,5.7.3,8.21,1.93,5.42,9.91,5.01,14.7,5.28h0ZM49.65,49.71c-5.34-.19-13.41.87-16.09-5-1.17-2.84-1.15-5.87-1.17-8.84.03-4.34.33-8.58.38-12.9.07-1.38-.03-2.96.1-4.4.84-6.48,6.55-11.06,12.6-12.32,2.99-.62,8.01-.34,8.33,3.67,0,0-.92-.92-.92-.92,2.55.03,5.21.48,7.52,1.84,9.12,5.89,6.23,19,6.11,28.18-.37,9.23-9.38,10.72-16.87,10.68h0Z"/>
          </g>
          <path class="cls-4" d="M46.97,48.06c-5.82,1.44-13.62-.88-12.85-8.17,0,0,.06-1.53.06-1.53.15-3.88.76-14.3,1-18.31.09-4.38,3.25-8.03,6.86-10.11-2.88,2.7-5.41,6.08-5.2,10.16.15,6.64-.24,13.3-.79,19.92-1.05,6.18,5.94,8.13,10.93,8.04h0Z"/>
          <path class="cls-4" d="M50.87,47.68c-9.48,1.38-13.41-9.92-12.53-17.61,0,0,.13,0,.13,0,.13,8.76,3.56,15.57,12.4,17.61h0Z"/>
          <path class="cls-4" d="M49.48,48.64c-9.48,1.38-13.41-9.92-12.53-17.61,0,0,.13,0,.13,0,.13,8.76,3.56,15.57,12.4,17.61h0Z"/>
        </g>
        <g>
          <path class="cls-8" d="M82.27,82.77c0-21.58,0-16.02,0-20.34s-14.5-13.99-32.04-13.99c-17.54,0-32.04,9.67-32.04,13.99s0-1.24,0,20.34c0,0,15.68,12.53,31.84,12.53s32.24-12.53,32.24-12.53Z"/>
          <g>
            <rect class="cls-5" x="58.03" y="72.42" width="7.64" height="2.92" rx=".04" ry=".04"/>
            <rect class="cls-5" x="58.03" y="72.42" width="7.64" height="2.92" rx=".04" ry=".04" transform="translate(135.73 12.04) rotate(90)"/>
          </g>
          <path class="cls-2" d="M82.14,82.77c-.74-6.71-1.23-13.56-1.55-20.3-.69-1.98-3.05-3.48-4.85-4.69-3.82-2.44-8.19-4.16-12.63-5.34-8.91-2.42-18.4-2.26-27.23.41-4.41,1.28-8.73,3.17-12.4,5.75-1.42,1.07-2.99,2.18-3.61,3.81-.26,6.07-.71,12.27-1.19,18.35,0,0-.36,3.61-.36,3.61,0,0-.25,0-.25,0l-.04-14.44-.02-7.22c-.05-.62.16-1.28.45-1.81,5.74-8.34,21.23-12.58,30.97-12.69,9.65-.09,19.42,2.49,27.51,7.8,2.16,1.58,4.68,3.29,5.46,5.99.11,1.66,0,4.66.03,6.35,0,0-.04,14.44-.04,14.44h-.25Z"/>
          <path class="cls-1" d="M39.42,47.23c-6.3,2.43-19.96,8.06-22.36,14.57-.13,3.78-.14,7.89-.27,11.67-.16,4.46-.27,8.92-.49,13.37,0,0-.13,0-.13,0v-13.37c0-3.12-.05-8.64-.02-11.71,1.34-7.08,16.94-13.77,23.27-14.53h0Z"/>
          <path class="cls-1" d="M84.15,85.04c-.32-6.39-.55-13.51-.68-19.94-.03-1.09-.04-2.25-.09-3.29-.13-.86-.79-1.69-1.34-2.4-4.29-4.75-10.43-7.66-16.26-10.19-1.8-.7-4.39-1.69-6.22-2.29,0,0,.02-.13.02-.13,4.36.84,8.62,2.21,12.62,4.14,4.03,2.02,11.23,6.04,12.08,10.83,0,0,0,3.33,0,3.33,0,4.25-.02,15.56-.02,19.94,0,0-.13,0-.13,0h0Z"/>
          <path class="cls-5" d="M25.89,69.34c1.5,6.46,1.55,13.22.13,19.69-1.51-6.45-1.54-13.22-.13-19.69h0Z"/>
          <path class="cls-5" d="M72.17,69.45c1.5,6.46,1.55,13.22.13,19.69-1.51-6.45-1.54-13.22-.13-19.69h0Z"/>
          <path class="cls-5" d="M40.43,50.68c-5.51,2.93-16.84,7.45-18.76,13.59-.36,1.68-.6,6.2-.78,7.98-.31,3.62-.6,7.26-1.15,10.89-.47-3.65-.62-7.3-.65-10.97.22-3.68-.46-8.03,1.84-11.19,4.76-5.86,12.5-8.35,19.49-10.31h0Z"/>
          <g>
            <path class="cls-6" d="M49.92,49.75c7.12,0,7.98,2.52,7.98,6.55,0,0-.31-.51-7.98-.51-7.66,0-7.98.51-7.98.51,0-4.03.85-6.55,7.98-6.55"/>
            <path d="M49.92,49.69c4.93-.15,8.52.94,8.33,6.62,0,0-.66.19-.66.19.13.16.08.08.09.1-4.52-.63-9.18-.25-13.72.02-.54.05-1.18.13-1.66.25.08-.05.16-.12.21-.21,0,0-1.22-.35-1.22-.35-.04-2.07.4-4.74,2.48-5.82,1.93-1.03,4.08-.97,6.16-.8,0,0,0,.13,0,.13-1.01.13-2.01.23-2.98.46-3.45.63-4.51,2.69-4.34,6.03,0,0-1.22-.35-1.22-.35.19-.3.59-.39.9-.46,2.53-.38,5.1-.24,7.64-.22,2.69.14,5.47-.04,8.09.67.05.04.04-.02.19.17l-.66.19c.42-5.38-3-6.38-7.62-6.49,0,0,0-.13,0-.13h0Z"/>
          </g>
          <g>
            <path class="cls-6" d="M42.6,54.07s1.37-1.09,1.37-2.96v-9.04h12.18v9.04c0,1.71,1.1,2.96,1.1,2.96"/>
            <path d="M42.56,54.02c1.7-1.47,1.17-3.77,1.17-5.75,0,0-.15-6.2-.15-6.2,0,0,0-.38,0-.38h.39s12.18-.28,12.18-.28h.65s0,.65,0,.65c.02,2.04-.03,4.09-.13,6.13-.03,2-.61,4.03.62,5.83,0,0-.1.08-.1.08-.73-.74-1.28-1.73-1.38-2.84-.23-3.08-.34-6.13-.32-9.21,0,0,.65.65.65.65l-12.18-.27.38-.38-.15,6.2c-.09,2.01.26,4.47-1.56,5.85,0,0-.08-.1-.08-.1h0Z"/>
          </g>
          <path class="cls-3" d="M43.41,54.86c.69-.74,1.11-1.72,1.08-2.67-.1-3.03-.77-6.34.27-9.28,0,0,.13,0,.13,0,.69,2.05.66,4.11.45,6.2-.15,2.01.08,4.6-1.84,5.85,0,0-.08-.1-.08-.1h0Z"/>
        </g>
        <g>
          <path class="cls-6" d="M38.67,21.09c0,13.53,1.06,25.24,11.56,25.24s11.44-11.71,11.44-25.24l-8.83-4.93-14.17,4.93Z"/>
          <path d="M38.72,21.13c.11,5.1.19,10.39,1.4,15.4.62,2.48,1.56,4.96,3.31,6.78,3.37,3.6,10.16,3.57,13.46-.07,1.68-1.83,2.55-4.3,3.1-6.77,1.05-5,1.01-10.21,1.02-15.37,0,0,.34.58.34.58-2.94-1.65-5.88-3.3-8.79-5,0,0,.47.04.47.04-4.74,1.56-9.45,2.98-14.3,4.41h0ZM38.61,21.05c4.66-1.9,9.48-3.78,14.26-5.52,3.06,1.62,6.08,3.31,9.11,4.98,0,0,.34.19.34.19,0,0,0,.39,0,.39-.06,5.19-.14,10.45-1.33,15.61-.86,3.78-2.86,8.02-6.83,9.39-3.76,1.29-8.45.73-11.21-2.34-4.9-5.92-4.23-15.39-4.34-22.69h0Z"/>
        </g>
        <path class="cls-3" d="M39.57,20.25c.49,7.58.06,20.27,7.84,24.16,1.14.56,2.4.76,3.66,1.01,0,0,0,.13,0,.13-2.9.47-6.3-.71-8.16-3.22-1.48-1.84-2.19-4.22-2.67-6.48-1.07-5.19-.93-10.43-.79-15.61h.13Z"/>
        <path class="cls-3" d="M60.95,29.09c-5,.75-8.99-7.76-8.93-11.93,0,0,.13,0,.13,0,.54,3.82,3.03,7.14,5.74,9.73.89.86,1.8,1.66,3.06,2.07,0,0,0,.13,0,.13h0Z"/>
        <path class="cls-9" d="M52.83,16.16c0,8.52-8.05,11.4-15.4,11.4l1.7-12.57h23.77v13.03c-5.18,0-10.07-7.87-10.07-11.86Z"/>
        <path class="cls-7" d="M61.7,28.09c-3.96-.39-6.67-4.7-8.27-7.99-.53-1.23-.98-2.51-1.05-3.94,0,0,.92,0,.92,0,.33,8.06-7.38,12.35-14.65,11.46,0,0,0-.13,0-.13,1.69-.21,3.35-.53,4.93-1.06,3.07-1,6.03-2.75,7.61-5.62.77-1.4,1.14-3.02,1.19-4.66,0,0,.92,0,.92,0,.24,3.76,2.41,7.43,5.04,10.08.94.86,2.06,1.63,3.36,1.72,0,0,0,.13,0,.13h0Z"/>
        <path class="cls-4" d="M37.59,26.64c6.05-1.61,14.52-5.17,14.86-12.37,0,0,.82.24.82.24-1.49,2.12-3.26,3.97-5.3,5.54-2.01,1.57-4.32,2.77-6.77,3.43,0,0-.03-.12-.03-.12,5.24-1.73,9.36-5.92,12.15-10.56.49,4.47-1.69,8.36-5.39,10.77-3.05,2-6.67,3.15-10.3,3.2,0,0-.01-.13-.01-.13h0Z"/>
      </g>
      <g>
        <path class="cls-8" d="M39.51,53.06c.97-1.13,2.49-2,4.46-2.57l5.98,5.31c0,1.01-7.34,3.62-7.34,3.62"/>
        <path class="cls-1" d="M39.46,53.01c1.06-1.58,2.86-2.76,4.69-3.25,2.07,1.86,4.1,3.75,6.12,5.66,1.41,1.56-6.53,3.7-7.65,4.05,0,0-.04-.12-.04-.12,1.26-.57,2.52-1.14,3.76-1.74,1.03-.53,2.13-1.01,3.01-1.75.1-.07.15-.26.1-.06,0,0,.17.37.17.37-2.05-1.71-4.08-3.43-6.09-5.18l.62.14c-1.64.36-3.29.83-4.6,1.97,0,0-.1-.08-.1-.08h0Z"/>
      </g>
      <g>
        <path class="cls-8" d="M57.29,59.42l3.09-6.36c-.97-1.13-2.49-2-4.46-2.57l-5.98,5.31,4.34,2.48"/>
        <path class="cls-1" d="M57.23,59.39l2.84-6.48.05.37c-1.12-1.21-2.72-1.89-4.34-2.31,0,0,.47-.11.47-.11-1.7,1.63-4.08,3.95-5.92,5.36,0,0-.1-.93-.1-.93.7.45,1.39.92,2.08,1.41.69.48,1.36.98,2.02,1.51l-.06.11c-1.58-.59-3.1-1.29-4.6-2.03,0,0-.7-.35-.7-.35,1.93-2,4.68-4.25,6.85-6.02,1.86.57,3.73,1.48,4.98,3.08,0,0-.1.19-.1.19l-3.34,6.24s-.11-.06-.11-.06h0Z"/>
      </g>
      <path class="cls-1" d="M63,49.12c.34,12.54-20.57,15.12-25.53,4.74-.68-1.51-.92-3.16-.74-4.74h.13c.31,3.07,1.89,5.85,4.48,7.5,7.51,5.08,20.89,2.79,21.67-7.5h0Z"/>
      <path class="cls-1" d="M49.88,95.31c-.14-4.93-.37-14.83-.45-19.75-.22-6.59-.24-13.18.45-19.75,0,0,.13,0,.13,0,.69,6.58.67,13.16.45,19.75-.08,4.92-.3,14.84-.45,19.75,0,0-.13,0-.13,0h0Z"/>
      <g>
        <g>
          <path class="cls-8" d="M51.14,62.71c0-1.49-2.15-1.49-2.15,0,0,1.49,2.15,1.49,2.15,0Z"/>
          <path class="cls-1" d="M51.08,62.71c.12-1.11-1.79-1.06-1.58,0,.08.37.28.37.57.48.37.17.96.09,1.01-.48h0ZM51.2,62.71c.35,2.38-2.89,2.27-2.72,0,.16-1.86,2.67-1.96,2.72,0h0Z"/>
        </g>
        <g>
          <path class="cls-8" d="M51.14,70.24c0-1.49-2.15-1.49-2.15,0,0,1.49,2.15,1.49,2.15,0Z"/>
          <path class="cls-1" d="M51.08,70.24c.12-1.11-1.79-1.06-1.58,0,.08.37.28.37.57.48.37.17.96.09,1.01-.48h0ZM51.2,70.24c.35,2.38-2.89,2.27-2.72,0,.16-1.86,2.67-1.96,2.72,0h0Z"/>
        </g>
        <g>
          <path class="cls-8" d="M51.14,77.77c0-1.49-2.15-1.49-2.15,0,0,1.49,2.15,1.49,2.15,0Z"/>
          <path class="cls-1" d="M51.08,77.77c.12-1.11-1.79-1.06-1.58,0,.08.37.28.37.57.48.37.18.96.09,1.01-.48h0ZM51.2,77.77c.35,2.38-2.89,2.27-2.72,0,.16-1.86,2.67-1.96,2.72,0h0Z"/>
        </g>
        <g>
          <path class="cls-8" d="M51.14,85.29c0-1.49-2.15-1.49-2.15,0,0,1.49,2.15,1.49,2.15,0Z"/>
          <path class="cls-1" d="M51.08,85.29c.12-1.11-1.79-1.06-1.58,0,.08.37.28.37.57.48.37.17.96.09,1.01-.48h0ZM51.2,85.29c.35,2.38-2.89,2.27-2.72,0,.16-1.86,2.67-1.96,2.72,0h0Z"/>
        </g>
        <g>
          <path class="cls-8" d="M51.14,92.82c0-1.49-2.15-1.49-2.15,0,0,1.49,2.15,1.49,2.15,0Z"/>
          <path class="cls-1" d="M51.08,92.82c.12-1.11-1.79-1.06-1.58,0,.08.37.28.37.57.48.37.17.96.09,1.01-.48h0ZM51.2,92.82c.35,2.38-2.89,2.27-2.72,0,.16-1.86,2.67-1.96,2.72,0h0Z"/>
        </g>
      </g>
    </g>
    <g>
      <path class="cls-6" d="M39.57,33.72c-5.69.68-6.55-9.33-.72-9.96l.38,5.31"/>
      <path d="M39.58,33.79c-6.35.93-6.95-10.21-.79-10.67,0,0,.7-.05.7-.05l.02.64c.05,1.78.04,3.56-.2,5.35h-.13c-.5-1.73-.76-3.49-.96-5.26l.71.6c-3.7.39-4.63,5.34-2.52,7.94.72.93,1.94,1.4,3.16,1.31l.02.13h0Z"/>
    </g>
    <g>
      <path class="cls-6" d="M61.07,33.72c5.69.68,6.55-9.33.72-9.96l-.38,5.31"/>
      <path d="M61.08,33.66c5.32.39,5.78-8.77.64-9.26,0,0,.71-.6.71-.6-.2,1.76-.47,3.52-.96,5.27h-.13c-.24-1.81-.25-3.59-.2-5.36l.02-.64.7.05c4.51.37,5.62,6.71,2.75,9.57-.92.97-2.32,1.32-3.55,1.1,0,0,.02-.13.02-.13h0Z"/>
    </g>
  </g>
  <circle class="cls-10" cx="49.85" cy="50.36" r="47.1"/>
</svg>