<svg xmlns="http://www.w3.org/2000/svg" width="100" height="108" viewBox="0 0 100 108"><defs><style>.cls-1{fill:#707487;}.cls-2{fill:#fff;}.cls-3{fill:none;stroke:#83c4e9;stroke-miterlimit:10;stroke-width:2.93546px;}.cls-4{fill:#0d1729;}.cls-5{fill:#47576d;}.cls-6{fill:#a6a6b2;}.cls-7{fill:#a0c1e6;}.cls-8{fill:#2a578a;}.cls-9{fill:#9fbae1;}.cls-10{fill:#a6a6a6;}.cls-11{fill:#f5f5f6;}.cls-12{fill:#1e2840;}.cls-13{fill:#83c4e9;}.cls-14{fill:#1d1d1b;}</style></defs><g id="tec-diagnostico"><path class="cls-1" d="M78.15474,42.41946c.25555,2.12958.42591,4.85545-2.3,4.85545s-4.00361.85183-5.28136.85183-1.70366-5.53691.59629-11.24418,6.47392-5.68228,6.47392-3.66288C77.64364,34.24188,77.89919,40.28989,78.15474,42.41946Zm3.088,0c-.25555,2.12958-.42591,4.85545,2.29995,4.85545s4.00361.85183,5.28136.85183,1.70366-5.53691-.59629-11.24418-6.47392-5.68228-6.47392-3.66288C81.75386,34.24188,81.49831,40.28989,81.24276,42.41946Z"/><path class="cls-1" d="M80.64648,30.32345v6.64429c0,.937,2.48871,1.584,3.34054.81732a.76683.76683,0,0,1,.27013-.91168c.50649-.439,1.28311.84666.67532,1.2506s-.70908,0-.70908,0a1.58617,1.58617,0,0,1-.77662.47146s.50649.60779,2.36361.60779c0,0,.74286-1.41817,1.45194-.2026s-.77662,1.11428-1.21557.81039a6.73062,6.73062,0,0,1-2.39739-.2026s1.013,1.6883,1.6883,1.55323,1.41817-.54025,1.41817.574-1.11428.574-1.92466,0-1.4857-1.45193-1.62076-1.21557a29.299,29.299,0,0,0,.83836,3.0727c.546.40519.6811,1.55323-.33187,1.55323s-.67532-.87791-.40519-1.41817c0,0-.4052-4.72723-3.613-4.72723s-3.613,4.72723-3.613,4.72723c.27013.54026.60779,1.41817-.40519,1.41817s-.87791-1.148-.33187-1.55323a29.299,29.299,0,0,0,.83836-3.0727c-.13506-.23636-.81038.64155-1.62076,1.21557s-1.92466,1.11428-1.92466,0,.74285-.70908,1.41817-.574,1.6883-1.55323,1.6883-1.55323a6.73062,6.73062,0,0,1-2.39739.2026c-.439.30389-1.92466.40519-1.21557-.81039s1.45194.2026,1.45194.2026c1.85712,0,2.36361-.60779,2.36361-.60779a1.58617,1.58617,0,0,1-.77662-.47146s-.10129.40393-.70908,0,.16883-1.68956.67532-1.2506a.76683.76683,0,0,1,.27013.91168c.85183.76665,3.34054.1197,3.34054-.81732V30.32345"/><path class="cls-2" d="M77.92733,39.61675c-.03537-.56385-.06888-1.1545-.09973-1.74143a2.6018,2.6018,0,0,1-2.4171-.09024.76688.76688,0,0,0-.27015-.9117c-.50649-.43894-1.28313.84665-.67532,1.25056s.70909,0,.70909,0a1.58627,1.58627,0,0,0,.7766.47151s-.50649.60777-2.36361.60777c0,0-.74287-1.41814-1.45192-.2026s.7766,1.1143,1.21554.81041a6.73084,6.73084,0,0,0,2.39743-.2026s-1.013,1.68829-1.68829,1.55324-1.41819-.54026-1.41819.574,1.11426.574,1.92468,0,1.48564-1.45191,1.62074-1.21558a29.304,29.304,0,0,1-.83837,3.07271c-.546.40521-.68109,1.55324.33188,1.55324s.67532-.87788.40521-1.41818C76.08582,43.72785,76.32979,40.89656,77.92733,39.61675Z"/><path class="cls-2" d="M84.04876,43.59279a29.30625,29.30625,0,0,1-.83836-3.07271c.13509-.23633.81041.64159,1.62074,1.21558s1.92468,1.11431,1.92468,0-.74287-.70909-1.41819-.574-1.68829-1.55324-1.68829-1.55324a6.73084,6.73084,0,0,0,2.39743.2026c.43894.30389,1.92463.40517,1.21554-.81041s-1.45192.2026-1.45192.2026c-1.85713,0-2.36361-.60777-2.36361-.60777a1.58622,1.58622,0,0,0,.77659-.47151s.10128.404.7091,0-.16883-1.6895-.67532-1.25056a.76688.76688,0,0,0-.27015.9117,2.60181,2.60181,0,0,1-2.41711.09024c-.03084.58693-.06435,1.17758-.09972,1.74143,1.59754,1.27981,1.84151,4.1111,1.84151,4.1111-.27011.5403-.60777,1.41818.40521,1.41818S84.59481,43.998,84.04876,43.59279Z"/><circle class="cls-3" cx="49.85365" cy="50.35954" r="47.1047"/><path class="cls-1" d="M49.64235,49.58981c9.2382,0,16.4488-2.08619,16.4488-11.23333s3.479-28.4072-13.21054-28.4072c0,0,0-2.88857-4.60231-2.88857-7.22143,0-14.14367,6.266-14.14367,12.44059C34.13463,43.64928,28.53973,49.58981,49.64235,49.58981Z"/><path class="cls-4" d="M49.64233,49.46247c7.17062.18349,16.14925-1.55361,15.99936-10.45182-.16235-7.159,1.06739-14.80957-1.68274-21.59385-1.96485-4.97086-6.83758-6.865-11.90778-6.54057l-.09024-.92694a2.42129,2.42129,0,0,0-2.20367-1.74971c-3.8777-.55444-8.00833,1.2407-10.78137,3.95306a11.07443,11.07443,0,0,0-3.5022,6.68215c-.05557,1.25543-.00027,2.88039-.0618,4.21191-.10385,4.30586-.42355,8.65733-.76495,12.92114-.15543,2.812-.47452,5.69947.302,8.21143,1.96632,5.44283,9.87282,4.994,14.69336,5.2832Zm0,.25464c-5.34031-.192-13.40463.867-16.08028-4.99659-1.17393-2.84341-1.14682-5.87044-1.16538-8.84031.03388-4.33955.32486-8.58137.38244-12.89015.066-1.37633-.02918-2.96017.09946-4.39719.84417-6.4791,6.544-11.05488,12.59336-12.31165,2.98751-.623,8.00218-.33515,8.32841,3.66788l-.91961-.91949a15.09383,15.09383,0,0,1,7.51721,1.84326c9.12147,5.88724,6.23114,18.99588,6.10912,28.17324-.37,9.22205-9.378,10.71174-16.86473,10.671Z"/><path class="cls-5" d="M46.96319,48.06892c-5.82156,1.43842-13.61088-.87984-12.849-8.16222l.06054-1.52553c.15469-3.88341.76337-14.29226,1.00075-18.30151.09489-4.37939,3.24651-8.0294,6.85466-10.10489-2.88261,2.7024-5.40408,6.07407-5.19868,10.15158A187.83279,187.83279,0,0,1,36.0396,40.0345c-1.04538,6.18161,5.93718,8.12566,10.92359,8.03442Z"/><path class="cls-6" d="M49.01214,8.59211c-6.32428,1.32438-13.44124,5.2989-14.08,12.377H34.8048c-.30769-6.64354,7.74929-14.20515,14.20734-12.377Z"/><path class="cls-5" d="M50.86077,47.68708c-9.47422,1.375-13.40263-9.9174-12.52682-17.60576l.1271.00444c.1309,8.76128,3.56271,15.56829,12.39972,17.60132Z"/><path class="cls-5" d="M49.47106,48.64973C39.997,50.0252,36.06838,38.73252,36.94424,31.04421l.1271.00445c.13084,8.76056,3.56254,15.56871,12.39972,17.60107Z"/><path class="cls-7" d="M82.24159,82.76335V62.43175c0-4.31478-14.49545-13.98461-32.02983-13.98461S18.18193,58.117,18.18193,62.43175v20.3316s14.965,11.99738,31.83533,11.99738S82.24159,82.76335,82.24159,82.76335Z"/><path class="cls-8" d="M82.11419,82.76325c-.7382-6.70863-1.22741-13.55241-1.54917-20.29491-.6857-1.97922-3.05-3.48152-4.84716-4.69173A44.83735,44.83735,0,0,0,63.09173,52.4383a49.50128,49.50128,0,0,0-27.22088.40894A42.26546,42.26546,0,0,0,23.47174,58.5904c-1.41549,1.069-2.98669,2.18036-3.60887,3.80731-.2595,6.07091-.70625,12.26965-1.19209,18.34186l-.36146,3.60791h-.25476L18.01849,69.9156l-.01807-7.21607a3.32843,3.32843,0,0,1,.45307-1.81274C24.19329,52.54594,39.67965,48.31,49.41533,48.20111A49.5885,49.5885,0,0,1,76.9197,55.99852c2.15727,1.575,4.67408,3.2878,5.46117,5.98706.11446,1.65657-.00516,4.65788.02728,6.34579L82.369,82.76325Z"/><path class="cls-9" d="M25.88836,69.33308a44.73271,44.73271,0,0,1,.12835,19.68408,44.72505,44.72505,0,0,1-.12835-19.68408Z"/><path class="cls-9" d="M72.15051,69.44953a44.731,44.731,0,0,1,.12834,19.68409,44.72719,44.72719,0,0,1-.12834-19.68409Z"/><path class="cls-9" d="M40.418,50.68489c-5.505,2.933-16.83466,7.44353-18.74931,13.58938-.35566,1.68113-.601,6.19616-.77594,7.98125-.314,3.62077-.6,7.25432-1.15358,10.8903a91.05328,91.05328,0,0,1-.64593-10.96093c.22013-3.6765-.45537-8.03117,1.83879-11.18949,4.76242-5.85535,12.49662-8.34921,19.486-10.31051Z"/><path class="cls-8" d="M73.74609,89.13362c-.1561-7.198-.42857-21.673-.54369-28.86919l.60723.60722-1.16181.02808.63526-.63525c.05806,3.58921.00722,7.178-.092,10.76586q-.11194,5.38295-.47966,10.76612H72.584q-.7241-11.08309-.56284-22.18262c.38968-.01005,1.387.04744,1.78843.04293l.61779.01493-.01025.59278c-.11555,7.19308-.38754,21.6778-.54378,28.86916l-.1273,0Z"/><path class="cls-8" d="M26.5501,90.21882,26.0708,55.0091l1.08465-.03735.55481,7.85938c.19342,2.61914.34985,5.24072.5777,7.85766a133.22761,133.22761,0,0,1,.35427,15.7627l-.12722.00732A133.13173,133.13173,0,0,1,27.05918,70.7657c-.04478-2.62745-.30833-5.241-.45848-7.86182l-.52862-7.85742,1.08465-.03736c-.11409.02594-.25716,35.44615-.60663,35.20972Z"/><path class="cls-2" d="M50.51172,49.75855c4.2079,0,7.5029.88015,9.49431,2.43238L50.21176,71.36818,40.41749,52.19093c1.99141-1.55223,5.28641-2.43238,9.49431-2.43238Z"/><path d="M50.51171,49.6949c3.308.05952,6.80652.401,9.60964,2.34784l.12156.08721-.06982.14649c-3.23248,6.7765-6.63781,13.4666-9.94543,20.20508l-.46644-.8833c-3.02753-5.78651-7.34563-13.66423-9.92751-19.57057,3.11379-2.24968,7.02351-2.37125,10.678-2.33275Zm0,.12744c-3.3835.01477-7.15231.55651-9.80684,2.737l.12886-.581c3.13476,5.39479,7.02514,13.49164,9.82849,19.15973l-.90093-.00006c3.3598-6.34375,6.63909-12.72876,10.07757-19.03247l.0517.2334c-2.6037-2.06127-6.14131-2.495-9.37885-2.5166Z"/><path class="cls-10" d="M41.86071,52.5362a12.80291,12.80291,0,0,1,6.5447-2.47329,5.91148,5.91148,0,0,1,2.34959.47525v.12719a11.32778,11.32778,0,0,1-4.47358.8432,14.46477,14.46477,0,0,0-4.35284,1.13556l-.06787-.10791Z"/><path class="cls-2" d="M42.59171,54.06872A4.01957,4.01957,0,0,0,43.96,51.10834V42.0692H56.1373v9.03914a4.92417,4.92417,0,0,0,1.0946,2.96038"/><path d="M42.55212,54.01887c1.70222-1.47121,1.17364-3.76534,1.17256-5.75l-.14937-6.19944-.00909-.37622.39386-.00855,12.17712-.27.64948-.0144.00525.66919q.02408,3.06335-.12812,6.127c-.03456,1.9978-.60691,4.03307.616,5.83031l-.09581.084a4.70447,4.70447,0,0,1-1.38294-2.83789c-.234-3.07744-.33981-6.12515-.31842-9.20337l.65454.65454-12.17712-.27.38452-.38452-.14948,6.19946c-.091,2.01267.25675,4.47135-1.56387,5.84957l-.07913-.09957Z"/><path class="cls-10" d="M43.39526,54.86213a3.87126,3.87126,0,0,0,1.07849-2.67236c-.09622-3.02656-.773-6.34126.26571-9.27733l.12736,0a14.35536,14.35536,0,0,1,.44573,6.19971c-.14494,2.00908.07984,4.5955-1.83818,5.84957l-.07911-.09957Z"/><path class="cls-2" d="M38.65761,21.10606c0,13.52315,1.05668,25.23312,11.55415,25.23312s11.4352-11.71,11.4352-25.23312L52.81809,16.182Z"/><path d="M38.70953,21.14289c.11163,5.0979.19238,10.38623,1.39447,15.38941a14.89646,14.89646,0,0,0,3.30969,6.78c3.37323,3.59417,10.155,3.56917,13.45875-.06946a14.57177,14.57177,0,0,0,3.098-6.768c1.05268-4.99975,1.007-10.20751,1.01483-15.36865l.3393.57764c-2.93823-1.64966-5.87854-3.29566-8.78937-4.99463l.47357.0415c-4.74031,1.56087-9.44407,2.983-14.29925,4.41211Zm-.10382-.07373C43.26,19.17462,48.07943,17.29359,52.861,15.54671c3.05627,1.62389,6.08143,3.30428,9.10815,4.98144l.34357.19043-.00415.38769c-.05524,5.18921-.137,10.44629-1.32709,15.6023-.85816,3.778-2.85589,8.01708-6.83032,9.38253-3.75862,1.29324-8.44771.72819-11.20754-2.33828-4.903-5.91408-4.22894-15.38732-4.33793-22.68366Z"/><path class="cls-10" d="M39.56451,20.26277c.49375,7.58237.061,20.26449,7.83495,24.1556a14.64164,14.64164,0,0,0,3.65547,1.01381v.12746a8.70244,8.70244,0,0,1-8.152-3.21754,15.30492,15.30492,0,0,1-2.67371-6.47557c-1.07006-5.18579-.92876-10.42139-.792-15.60376Z"/><path class="cls-10" d="M60.93823,29.10456c-4.99681.75051-8.98926-7.761-8.9246-11.92175l.12754-.00012c.53618,3.81719,3.02748,7.14125,5.73769,9.72412a7.91084,7.91084,0,0,0,3.05937,2.07031v.12744Z"/><path class="cls-1" d="M52.81809,16.182c0,8.51207-8.042,11.39381-15.39052,11.39381L39.1287,15.01088h23.756l0,13.02924C57.70614,28.04012,52.81809,20.17094,52.81809,16.182Z"/><path class="cls-6" d="M64.55975,39.82429C64.347,30.06,66.48907,15.701,54.93826,11.81467l.02566-.12466c13.08433,1.43707,10.39543,19.05,9.59583,28.13428Z"/><path class="cls-4" d="M61.67889,28.10383c-3.9618-.3936-6.6719-4.69742-8.26979-7.98224a11.1814,11.1814,0,0,1-1.051-3.93963H53.278c.32723,8.05359-7.37474,12.34879-14.64481,11.45736l.00016-.12729a25.29224,25.29224,0,0,0,4.9234-1.05517c3.06986-.99612,6.02294-2.75151,7.6089-5.61571A10.30758,10.30758,0,0,0,52.35815,16.182H53.278c.23779,3.75463,2.40414,7.43005,5.03738,10.07258a5.74914,5.74914,0,0,0,3.3635,1.72185v.12744Z"/><path class="cls-5" d="M37.58636,26.65071c6.0427-1.60751,14.51549-5.16985,14.8513-12.36531l.81777.23616a25.64258,25.64258,0,0,1-5.30059,5.541,19.23323,19.23323,0,0,1-6.77156,3.43088l-.03491-.12254c4.757-1.57323,8.6389-5.20472,11.35734-9.322l.78359-1.23758a11.20279,11.20279,0,0,1-5.38892,10.76486A19.49059,19.49059,0,0,1,37.6,26.77723l-.01362-.12652Z"/><path class="cls-6" d="M36.85247,25.91682c6.64537-1.23833,13.78-5.269,15.23064-12.36568l.12733,0c.77773,3.78675-1.97413,7.40152-5.13043,9.16762a22.72095,22.72095,0,0,1-10.21393,3.32456l-.01361-.12646Z"/><polygon class="cls-7" points="34.299 53.913 50.212 83.921 66.124 53.913 59.122 51.596 60.006 52.191 50.212 71.368 40.417 52.191 41.32 51.149 34.299 53.913"/><path class="cls-8" d="M34.37762,53.942,50.58483,83.723h-.74609L65.52319,53.59455l.3872.96436-7.02233-2.25586.64965-1.325.89069.585.25146.97217c-2.72052,5.46692-6.91761,13.868-9.741,19.20407l-1.45424,0c-2.797-5.70493-6.73622-13.71139-9.35645-19.4004l.04365-.36083.94317-1.00635.30378.429L34.37762,53.942ZM34.221,53.8841,41.22039,50.897l.3039.429-.861,1.07764.0437-.36036c1.75293,3.13453,3.45636,6.29444,5.17945,9.44434l5.05243,9.509H49.48467c2.66543-5.3879,7.0155-13.77048,9.84753-19.14991l.25129.97193-.87726-.60473.64972-1.325,6.98187,2.37842.38733.96459L50.58489,84.11848h-.74627L34.221,53.8841Z"/><path class="cls-8" d="M53.18359,77.37043A42.475,42.475,0,0,1,49.73782,72.276a4.85785,4.85785,0,0,1-.2562-2.1539l.14868-.07593a4.98075,4.98075,0,0,1,2.37133,3.35844c.50154,1.267.92708,2.573,1.33064,3.88985l-.14868.07593Z"/><path class="cls-11" d="M50.21176,47.80691c-5.78738,0-9.78307-7.9987-9.78307-7.9987l1.07656-1.89536H40.42869V32.56551a49.88671,49.88671,0,0,1,19.56614,0v5.34734H58.91827l1.07656,1.89536S55.99914,47.80691,50.21176,47.80691Z"/><path class="cls-12" d="M50.21179,47.8802c-3.42855-.09509-6.16272-2.613-8.19362-5.154a20.27494,20.27494,0,0,1-1.8629-2.78127l.00769-.28785,1.0321-1.92016.31006.53271-1.07635.01905-.37592-.376-.07434-5.34717.36285-.44165a50.86038,50.86038,0,0,1,19.79841-.29078l.60168.73243c.03265,1.78247.00043,3.56494-.00812,5.34717l-.73858.73877-1.07636-.01538.62872-1.08032,1.02478,1.92456.01661.62451c-2.26245,3.71319-5.74066,7.62077-10.37671,7.77539Zm0-.14673c4.51517-.244,7.33858-4.57024,9.18931-8.22162l.01656.624-1.12811-1.86572.62884-1.08032,1.07636-.01538-.73841.73828c-.00854-1.78223-.04077-3.5647-.00812-5.34717l.60151.73242a49.16177,49.16177,0,0,0-19.3335-.29073l.36261-.44169-.07434,5.34717-.37573-.37573,1.07635.01928.31024.533-1.12085,1.86988.00769-.28736c1.93058,3.68731,4.95143,7.90139,9.50959,8.06177Z"/><path class="cls-11" d="M40.98664,35.17271l.51861,2.74014s5.81791-.11389,6.48686.89073"/><path class="cls-12" d="M41.0227,35.16584c.304.88681.61309,1.775.8533,2.67675l-.378-.30712a26.62538,26.62538,0,0,1,3.35089.18457c1.06479.21121,2.39963.20918,3.17382,1.06313l-.06115.04063a2.88181,2.88181,0,0,0-1.51636-.44336,47.87674,47.87674,0,0,0-4.93243-.09035l-.3783-.30711c-.10584-.92717-.14287-1.8668-.18392-2.80346l.07217-.01368Z"/><path class="cls-11" d="M40.42869,39.80821c2.76928,1.33789,7.89789,2.38465,8.90131,4.0911"/><path class="cls-12" d="M40.44464,39.77522c2.30157.935,4.80428,1.29741,7.07058,2.34758a3.774,3.774,0,0,1,1.84641,1.75789l-.06323.03711c-1.2813-1.00851-2.87879-1.37548-4.33632-2.09825-1.44356-.65989-3.329-1.13353-4.51744-2.04433Z"/><path class="cls-11" d="M59.99483,37.91285c-2.303,0-6.98561.44342-8.32351.44342"/><path class="cls-12" d="M59.99481,37.94953a13.17025,13.17025,0,0,1-4.14325.45358,24.85,24.85,0,0,1-4.18026-.08328c2.64133-.10953,5.86892-1.261,8.32351-.3703Z"/><path class="cls-11" d="M50.12689,32.87944a63.71769,63.71769,0,0,0-8.89576.937"/><path class="cls-12" d="M50.12689,32.91609c-2.99576.14209-5.87835,1.17949-8.88982.93663,1.18-.77653,2.94407-.85447,4.39411-.94453a20.45923,20.45923,0,0,1,4.49571.0079Z"/><path class="cls-11" d="M50.6679,43.05806c1.22641-1.02,7.35844-2.4154,7.35844-2.4154"/><path class="cls-12" d="M50.64446,43.02986a12.73666,12.73666,0,0,1,3.53759-1.6868c1.17322-.42431,2.67368-.976,3.85244-.66465-2.26969,1.26251-5.13215,1.33168-7.39,2.35145Z"/></g><g id="paleta"><rect class="cls-13" x="6.36295" y="79.52632" width="86.9814" height="28.15918" rx="4.56377"/><path class="cls-14" d="M36.55505,99.94009a6.216,6.216,0,0,1-2.05371-.29736,3.61689,3.61689,0,0,1-1.3545-.79688,2.68836,2.68836,0,0,1-.70019-1.09424,2.50055,2.50055,0,0,1-.07715-1.229.43254.43254,0,0,1,.17285-.269.52033.52033,0,0,1,.30762-.09571h.94043a.59775.59775,0,0,1,.31641.07666.4411.4411,0,0,1,.16406.32666,1.48883,1.48883,0,0,0,.41211,1.0752,2.09369,2.09369,0,0,0,.999.52783,5.22973,5.22973,0,0,0,1.21875.144,4.05453,4.05453,0,0,0,2.28516-.63378,2.86479,2.86479,0,0,0,1.22851-1.86231,1.70741,1.70741,0,0,0-.374-1.78564,2.99419,2.99419,0,0,0-1.94922-.5376H36.267a.35328.35328,0,0,1-.28808-.11524.4336.4336,0,0,1-.07618-.32617l.11524-.51855a.74728.74728,0,0,1,.13379-.29737,2.293,2.293,0,0,1,.19238-.22119l4.56934-4.07031H35.26892a.34875.34875,0,0,1-.29786-.11523.40816.40816,0,0,1-.04785-.32618l.15332-.72949a.54148.54148,0,0,1,.19239-.33642.53527.53527,0,0,1,.3457-.12452h7.66015a.3361.3361,0,0,1,.29786.12452.43505.43505,0,0,1,.04785.33642l-.13379.69092a.47762.47762,0,0,1-.10547.24023c-.05762.07032-.11914.1377-.18262.20166l-4.6084,4.12793.32618.01905a5.10716,5.10716,0,0,1,2.09375.46093,2.47769,2.47769,0,0,1,1.22851,1.25733,3.36467,3.36467,0,0,1,.07617,2.10254A4.56329,4.56329,0,0,1,41.2113,98.068a5.44907,5.44907,0,0,1-2.04492,1.39209A7.01953,7.01953,0,0,1,36.55505,99.94009Z"/><path class="cls-14" d="M44.00427,98.03921a1.42979,1.42979,0,0,1,.24023-.39355.52351.52351,0,0,1,.41309-.16309h1.30566a.253.253,0,0,1,.23047.125.24871.24871,0,0,1-.01953.27832l-1.66992,2.86084a1.46421,1.46421,0,0,1-.25.3169.54515.54515,0,0,1-.38379.12451H43.1986a.23148.23148,0,0,1-.2207-.12451.32814.32814,0,0,1,.00879-.29786Z"/><path class="cls-14" d="M52.933,99.94009a6.216,6.216,0,0,1-2.05371-.29736,3.61689,3.61689,0,0,1-1.3545-.79688,2.68836,2.68836,0,0,1-.70019-1.09424,2.50055,2.50055,0,0,1-.07715-1.229.43254.43254,0,0,1,.17285-.269.52033.52033,0,0,1,.30762-.09571h.94043a.59775.59775,0,0,1,.31641.07666.4411.4411,0,0,1,.16406.32666,1.48883,1.48883,0,0,0,.41211,1.0752,2.09369,2.09369,0,0,0,.999.52783,5.22973,5.22973,0,0,0,1.21875.144,4.05453,4.05453,0,0,0,2.28516-.63378,2.86479,2.86479,0,0,0,1.22851-1.86231,1.70741,1.70741,0,0,0-.374-1.78564,2.99419,2.99419,0,0,0-1.94922-.5376H52.64489a.35328.35328,0,0,1-.28808-.11524.4336.4336,0,0,1-.07618-.32617l.11524-.51855a.74728.74728,0,0,1,.13379-.29737,2.293,2.293,0,0,1,.19238-.22119l4.56934-4.07031H51.64684a.34874.34874,0,0,1-.29785-.11523.40816.40816,0,0,1-.04785-.32618l.15332-.72949a.54151.54151,0,0,1,.19238-.33642.53532.53532,0,0,1,.34571-.12452H59.6527a.3361.3361,0,0,1,.29786.12452.43505.43505,0,0,1,.04785.33642l-.13379.69092a.47762.47762,0,0,1-.10547.24023c-.05762.07032-.11914.1377-.18262.20166l-4.6084,4.12793.32618.01905a5.10716,5.10716,0,0,1,2.09375.46093,2.47769,2.47769,0,0,1,1.22851,1.25733,3.36467,3.36467,0,0,1,.07617,2.10254A4.56329,4.56329,0,0,1,57.58923,98.068a5.44907,5.44907,0,0,1-2.04492,1.39209A7.01953,7.01953,0,0,1,52.933,99.94009Z"/><path class="cls-14" d="M60.17126,99.7482a.34083.34083,0,0,1-.28809-.125.37762.37762,0,0,1-.05761-.31641l.13476-.61475a1.22635,1.22635,0,0,1,.17285-.38379,1.83694,1.83694,0,0,1,.4795-.46093l4.9541-4.07032q1.13232-.82544,1.833-1.41113a5.41053,5.41053,0,0,0,1.05665-1.123,3.14174,3.14174,0,0,0,.4707-1.11377,2.09043,2.09043,0,0,0-.25-1.7378,1.97974,1.97974,0,0,0-1.68945-.64306,2.97039,2.97039,0,0,0-1.38282.31689,3.26573,3.26573,0,0,0-1.05566.86377,4.23715,4.23715,0,0,0-.69141,1.23877.5466.5466,0,0,1-.25879.34521.72867.72867,0,0,1-.33593.0962h-.9795a.31009.31009,0,0,1-.26855-.10547.34441.34441,0,0,1-.05762-.25928,5.19726,5.19726,0,0,1,.61426-1.46875,5.43105,5.43105,0,0,1,1.13281-1.33447,5.83714,5.83714,0,0,1,1.60254-.96973,5.29088,5.29088,0,0,1,2.02637-.37451,4.38081,4.38081,0,0,1,2.37109.54736,2.55815,2.55815,0,0,1,1.12305,1.44971,3.94714,3.94714,0,0,1,.03808,1.97754,4.71455,4.71455,0,0,1-.60449,1.54541,6.94306,6.94306,0,0,1-1.123,1.36328,15.33691,15.33691,0,0,1-1.65137,1.35352l-4.47363,3.74414h5.99023a.35007.35007,0,0,1,.29785.11523.40849.40849,0,0,1,.04785.32617l-.15332.7876a.53347.53347,0,0,1-.19238.31641.55825.55825,0,0,1-.36426.125Z"/><path class="cls-14" d="M72.03649,99.7482c-.19238,0-.30468-.07032-.33593-.21143a.39335.39335,0,0,1,.124-.38379l12.11523-12.48a2.14807,2.14807,0,0,1,.31739-.269.74536.74536,0,0,1,.41211-.09571h.76855a.29385.29385,0,0,1,.32617.21094.37626.37626,0,0,1-.11523.38428l-12.11524,12.48a2.129,2.129,0,0,1-.3164.26855.73827.73827,0,0,1-.41309.0962Zm2.97559-6.624a2.66377,2.66377,0,0,1-1.35352-.32617,1.93156,1.93156,0,0,1-.82519-.91211,2.52728,2.52728,0,0,1-.16406-1.35351q.07762-.49952.16406-.84522.08643-.345.2207-.88281a3.73814,3.73814,0,0,1,1.09375-1.88184,3.00872,3.00872,0,0,1,2.09277-.71045,2.68166,2.68166,0,0,1,1.40235.33594,1.94436,1.94436,0,0,1,.80566.92188,2.46034,2.46034,0,0,1,.13477,1.35351c-.05176.3584-.10547.65283-.16309.8833s-.13183.51221-.2207.84473a3.70346,3.70346,0,0,1-1.10449,1.8623A3.01274,3.01274,0,0,1,75.01208,93.12417Zm.03809-1.26709a1.58765,1.58765,0,0,0,1.19042-.45117,2.38778,2.38778,0,0,0,.59571-.93115c.08887-.3457.15332-.61768.1914-.81641q.05861-.29736.13477-.77734a2.33949,2.33949,0,0,0,.01953-.6626.83443.83443,0,0,0-.26855-.52783,1.06122,1.06122,0,0,0-.73047-.21143,1.59387,1.59387,0,0,0-1.209.4419,2.1605,2.1605,0,0,0-.55664.96q-.13476.48046-.19238.77734-.05714.2981-.13477.81641a2.39989,2.39989,0,0,0,.00977.64307.87457.87457,0,0,0,.27832.52783A.96179.96179,0,0,0,75.05017,91.85708Zm6.18261,8.00635a2.72175,2.72175,0,0,1-1.36328-.32666,1.91945,1.91945,0,0,1-.835-.91162,2.40557,2.40557,0,0,1-.14355-1.35352q.07617-.4995.15332-.85449.07617-.35522.21093-.89306a3.894,3.894,0,0,1,1.1045-1.86231,2.96832,2.96832,0,0,1,2.083-.71045,2.73207,2.73207,0,0,1,1.41114.33594,1.93206,1.93206,0,0,1,.81543.92187,2.35418,2.35418,0,0,1,.11523,1.35352c-.05078.3584-.10254.65283-.15332.8833s-.12207.51172-.21094.84473a3.7035,3.7035,0,0,1-1.10449,1.8623A3.01279,3.01279,0,0,1,81.23278,99.86343Zm.03906-1.26709a1.58691,1.58691,0,0,0,1.18946-.45117,2.19356,2.19356,0,0,0,.57617-.93115q.15381-.51857.21191-.81641.05713-.29736.11524-.77734a1.65622,1.65622,0,0,0,.01855-.6626.846.846,0,0,0-.97851-.73926,1.59011,1.59011,0,0,0-1.21973.4419,2.20336,2.20336,0,0,0-.54687.96q-.13477.47973-.19239.77734-.05712.2981-.13476.81641a2.40023,2.40023,0,0,0,.00976.64306.87451.87451,0,0,0,.27832.52783A.96274.96274,0,0,0,81.27184,98.59634Z"/><polygon class="cls-14" points="11.881 97.324 19.317 89.888 26.753 97.324 11.881 97.324"/></g></svg>