<svg xmlns="http://www.w3.org/2000/svg" width="100" height="108" viewBox="0 0 100 108"><defs><style>.cls-1{fill:#707487;}.cls-2{fill:#0d1729;}.cls-3{fill:#47576d;}.cls-4{fill:#a0c1e6;}.cls-5{fill:#9fbae1;}.cls-6{fill:#2a578a;}.cls-7{fill:#a1b6e6;}.cls-8{fill:#fff;}.cls-9{fill:#a6a6a6;}.cls-10{fill:none;stroke:#f8a45a;stroke-miterlimit:10;stroke-width:2.93546px;}.cls-11{fill:#bec5d7;}.cls-12{fill:#f8a45a;}.cls-13{fill:#1d1d1b;}</style></defs><g id="tec-sup-saude"><path class="cls-1" d="M49.78579,49.86375c9.24177,0,16.45516-2.087,16.45516-11.23767s3.48032-28.41816-13.21564-28.41816c0,0,0-2.88968-4.60409-2.88968-7.22422,0-14.14914,6.26836-14.14914,12.44539C34.27208,43.92093,28.675,49.86375,49.78579,49.86375Z"/><path class="cls-2" d="M49.78579,49.7364c7.17321.18361,16.15564-1.5543,16.00547-10.456-.16233-7.16167,1.06787-14.81527-1.68335-21.60215-1.96558-4.97279-6.84022-6.86767-11.91242-6.543l-.09024-.92718a2.42225,2.42225,0,0,0-2.20447-1.75069c-3.87926-.55408-8.01138,1.24114-10.78564,3.95477a11.07873,11.07873,0,0,0-3.50342,6.68459c-.05562,1.256-.00031,2.88137-.06192,4.21363-.10378,4.30762-.42374,8.66052-.76513,12.926-.15562,2.81323-.47483,5.70166.302,8.21484,1.9256,5.41991,9.91,5.00922,14.69909,5.28516Zm0,.25488c-5.34233-.19276-13.41.86746-16.0865-4.99879-1.1745-2.84422-1.14715-5.873-1.16587-8.84348.03393-4.34172.325-8.58466.38262-12.89528.066-1.377-.02928-2.96112.09953-4.3989C33.86,12.37306,39.562,7.796,45.61381,6.5383c2.98871-.6231,8.005-.33511,8.33158,3.66934l-.92-.91973a15.09732,15.09732,0,0,1,7.52014,1.844c9.12524,5.88979,6.23337,19.003,6.11143,28.18422-.37012,9.226-9.38151,10.71531-16.8712,10.67515Z"/><path class="cls-3" d="M47.10562,48.34236c-5.82419,1.43861-13.61588-.87993-12.85406-8.16564l.0606-1.526c.15468-3.88494.76362-14.29754,1.00112-18.30835.095-4.38136,3.24767-8.03259,6.85728-10.109-2.88363,2.70369-5.406,6.07628-5.20069,10.15549a187.90472,187.90472,0,0,1-.79206,19.916c-1.04593,6.18372,5.93965,8.12892,10.92781,8.0376Z"/><path class="cls-3" d="M51.00467,47.96028c-9.47779,1.3756-13.40783-9.92114-12.53165-17.6126l.1271.00444c.13114,8.76451,3.56371,15.5743,12.40455,17.60816Z"/><path class="cls-3" d="M49.61441,48.92341c-9.47779,1.37566-13.40787-9.9211-12.53165-17.61235l.12711.00444c.13109,8.76443,3.564,15.5743,12.40454,17.60791Z"/><path class="cls-4" d="M82.39761,83.0501V62.71065c0-4.31645-14.501-13.99-32.04219-13.99s-32.04219,9.67356-32.04219,13.99V83.0501S33.99567,95.58457,50.15637,95.58457,82.39761,83.0501,82.39761,83.0501Z"/><path class="cls-5" d="M39.26809,83.05012c-3.26255-1.44143-11.48954-6.42591-9.16559-10.85272a15.81834,15.81834,0,0,1,1.98591-2.38849c.74131-.78905,1.9971-1.71185,2.10272-2.69431.0169-.67814-.878-1.57064-1.50507-2.08155-3.19259-2.71091-2.72288-5.83136-.04048-8.66309-5.39813,8.22929,4.61761,7.07814,2.95719,12.029-.82905,1.88347-2.53494,3.0575-3.58121,4.72591-1.5604,2.12715,5.68472,8.10624,7.24653,9.92526Z"/><path class="cls-4" d="M50.35542,48.72064c-7.76509,0-14.74358,4.75444-16.75539,6.30211-2.08683,1.60538-3.2106,4.01345-2.729,5.77937s4.174,3.69237,4.174,5.77937-4.25489,4.01345-4.25489,5.61883S38.42458,81.351,38.42458,81.351V55.82544s2.86986-5.2114,11.93084-5.2114"/><path class="cls-6" d="M50.35537,48.78425A26.52363,26.52363,0,0,0,38.19925,52.3404c-2.615,1.56632-5.77363,3.14259-6.85369,6.17426-1.228,2.93258,1.99956,4.2672,3.43005,6.30963,2.47468,3.28289-2.58957,4.929-3.51769,7.34514a5.49512,5.49512,0,0,0,1.05469,1.77524,80.1251,80.1251,0,0,0,6.5165,6.99682l-.98021.40941c-.04162-4.25415-.10327-8.50854-.07763-12.76269.05338-4.3218-.0042-8.71427.21811-13.00245,2.73538-3.9508,7.811-5.2276,12.366-5.03539l0,.12744a16.52293,16.52293,0,0,0-9.3507,3.051,9.082,9.082,0,0,0-2.145,2.33615l.06164-.2395q.27786,13.458.06525,26.91992c-2.92216-3.083-6.08782-6.01-8.36054-9.632-1.08276-1.86128,1.451-3.2162,2.45843-4.267,2.09927-1.78575,1.94449-2.89111.05672-4.74754a19.49019,19.49019,0,0,1-2.2201-2.40966c-1.7637-3.3529,1.64675-6.54227,4.28264-8.09831,4.33168-2.70017,10.18479-5.27753,15.15168-4.80672Z"/><path class="cls-4" d="M49.75528,48.72064c7.76509,0,14.74358,4.75444,16.75539,6.30211,2.08683,1.60538,3.2106,4.01345,2.729,5.77937s-4.174,3.69237-4.174,5.77937,4.25489,4.01345,4.25489,5.61883S61.68612,81.351,61.68612,81.351V54.56017s-2.86986-5.21139-11.93084-5.21139"/><path class="cls-6" d="M49.75528,48.65681c5.40741-.00953,10.63421,2.06645,15.15369,4.93529,2.6366,1.55334,6.04663,4.75091,4.27929,8.10091a19.42036,19.42036,0,0,1-2.222,2.40814c-1.89071,1.85294-2.03736,2.97379.06054,4.74631,1.01027,1.02854,3.56232,2.46449,2.46148,4.272-2.2815,3.61605-5.4419,6.546-8.36481,9.6275q-.20472-14.09355.07272-28.18661l.0606.23609a8.91389,8.91389,0,0,0-2.14563-2.33985,16.50851,16.50851,0,0,0-9.35584-3.04415V49.285c4.55621-.18769,9.61774,1.09472,12.36013,5.03857.21881,4.49849.17078,9.1.22312,13.63208.02942,4.4651-.03516,8.93018-.07666,13.39527l-.98035-.40942A79.84059,79.84059,0,0,0,67.8,73.94394a5.42507,5.42507,0,0,0,1.05692-1.77245c-.91521-2.41924-6.00409-4.03894-3.52384-7.34383.93739-1.30436,2.38922-2.27345,3.28088-3.51606,1.08475-1.7108-.19742-4.053-1.48591-5.37133a28.81946,28.81946,0,0,0-17.37267-7.15616l-.00007-.1273Z"/><path class="cls-7" d="M38.42459,93.44574V60.116a15.51822,15.51822,0,0,0,11.63077,4.87364A15.5182,15.5182,0,0,0,61.68612,60.116V93.44574C57.18977,94.88451,42.18311,94.68518,38.42459,93.44574Z"/><path class="cls-6" d="M82.27017,83.05012c-.73855-6.71118-1.22772-13.55759-1.54984-20.30273-.68539-1.98005-3.05122-3.483-4.849-4.69368a44.84588,44.84588,0,0,0-12.63095-5.34026,49.52061,49.52061,0,0,0-27.23144.40894A42.27488,42.27488,0,0,0,23.60513,58.868c-1.41611,1.06919-2.98791,2.18115-3.61033,3.80878-.25944,6.07307-.70652,12.27435-1.19258,18.34869l-.36152,3.60938h-.25488l-.03614-14.4375-.01794-7.21875a3.32888,3.32888,0,0,1,.45313-1.81348C24.32668,52.821,39.81926,48.58334,49.55874,48.47454a49.60858,49.60858,0,0,1,27.51493,7.80034c2.158,1.57555,4.676,3.28918,5.46323,5.9895.11461,1.657-.00511,4.65981.02741,6.34824L82.525,83.05012Z"/><path class="cls-5" d="M26.02261,69.61457a44.75033,44.75033,0,0,1,.12841,19.6919,44.74478,44.74478,0,0,1-.12841-19.6919Z"/><path class="cls-5" d="M72.30264,69.731a44.75044,44.75044,0,0,1,.12841,19.69189A44.74519,44.74519,0,0,1,72.30264,69.731Z"/><path class="cls-5" d="M40.55789,50.9593c-5.50737,2.93419-16.8407,7.44619-18.75657,13.59451-.35571,1.68176-.60125,6.19862-.77619,7.98442-.31417,3.62224-.6003,7.257-1.154,10.89446a91.09982,91.09982,0,0,1-.64624-10.96509c.22024-3.678-.45553-8.03419,1.83953-11.19388,4.76429-5.85763,12.50133-8.3525,19.49348-10.31442Z"/><path class="cls-6" d="M73.89883,89.42292c-.15607-5.11029-.42871-15.38708-.54393-20.49661l.60753.6077-1.16223.02783.6355-.6355c.06018,2.19287.00268,4.3855-.08057,6.57813-.09766,2.19287-.24292,4.38549-.49133,6.57837h-.12745a103.14367,103.14367,0,0,1-.5541-13.80689l.618.01489c.403.02734,1.393.02062,1.78441.04277l-.01451.59273c-.11552,5.10717-.38758,15.39116-.54385,20.4966l-.12742,0Z"/><path class="cls-6" d="M26.6846,90.50862c-.14592-5.38036-.38723-16.20253-.47947-21.58231l-.0104-.53.55371-.01318c.333.01355,1.134-.04258,1.45764-.03487a138.72652,138.72652,0,0,1,.57142,18.39131l-.1272.00733c-.47159-2.94731-.79515-5.90827-1.05166-8.87744-.26524-2.96387-.39036-5.936-.47483-8.91065l.56482.5332-.94019-.02246.54309-.54321L27.0801,79.7176l-.26806,10.791Z"/><path class="cls-8" d="M61.68612,93.44574V53.8889a15.6094,15.6094,0,0,0-23.26154,0V94.39449"/><path d="M61.62246,93.44563c-.0106.07983-.42111-40.42519-.251-39.31743a15.18243,15.18243,0,0,0-17.46313-3.567,14.26256,14.26256,0,0,0-4.97107,3.71894l.13208-.39111c-.0764,13.38376.11106,27.381-.70811,40.50563q-.68364-20.24522-.58149-40.50563l.00176-.23487.13049-.15649c6.00858-7.11148,18.17582-7.04125,24.08825.15148l.08229.099-.0011.14087c-.13889.01427-.08968,39.80153-.459,39.55664Z"/><path class="cls-8" d="M58.83629,53.49068c0,11.28608-17.56181,11.28608-17.56181,0"/><path d="M58.90005,53.49079c.58906,8.08325-9.97073,11.80984-15.53676,6.6042a7.655,7.655,0,0,1-2.15257-6.6042h.12744A9.05059,9.05059,0,0,0,44.23,59.161c3.176,2.83651,8.57745,3.13866,11.86742.23334a8.02859,8.02859,0,0,0,2.67516-5.9035Z"/><path class="cls-8" d="M42.73243,54.34439a4.02112,4.02112,0,0,0,1.36877-2.96152V42.34023H56.28325v9.04264a4.92607,4.92607,0,0,0,1.095,2.96152"/><path d="M42.69278,54.2945c1.703-1.47184,1.17408-3.76673,1.173-5.75222l-.14936-6.20188-.00916-.37622.39405-.00879,12.18176-.27.64978-.0144.00525.66943q.024,3.06483-.12818,6.1294c-.03461,1.99833-.60716,4.03467.61627,5.8325l-.09588.084a4.7059,4.7059,0,0,1-1.38342-2.83911c-.23411-3.0783-.34-6.12755-.31861-9.20679l.65479.65479-12.18176-.27027.38464-.38452-.14954,6.20191c-.091,2.01342.25673,4.47288-1.56442,5.852l-.07925-.09982Z"/><path class="cls-9" d="M43.53628,55.138a3.8728,3.8728,0,0,0,1.079-2.67334c-.09622-3.02781-.77345-6.34355.26577-9.281h.12742a14.36161,14.36161,0,0,1,.44586,6.20214c-.145,2.01.07973,4.59732-1.83879,5.852l-.07924-.09981Z"/><path class="cls-8" d="M38.79682,21.369c0,13.52837,1.05709,25.24286,11.5586,25.24286S61.795,34.89738,61.795,21.369l-8.83228-4.926Z"/><path d="M38.84878,21.40583c.11157,5.09986.19238,10.39014,1.395,15.39527a14.90314,14.90314,0,0,0,3.31091,6.78271c3.37449,3.5958,10.15887,3.57062,13.464-.06945A14.57661,14.57661,0,0,0,60.11782,36.744c1.05311-5.002,1.00745-10.21167,1.01526-15.37476l.33948.57788c-2.93933-1.65039-5.88086-3.29687-8.79285-4.99658l.47388.0415c-4.74212,1.56184-9.44783,2.984-14.30481,4.41382Zm-.10388-.07373c4.65613-1.89517,9.47717-3.77725,14.26075-5.5244,3.05783,1.62392,6.0837,3.30573,9.11169,4.98314l.34375.19043-.00415.38794c-.0553,5.19116-.13709,10.4502-1.32764,15.6084-.85848,3.77934-2.857,8.02034-6.833,9.386-3.76,1.29392-8.45106.72855-11.21187-2.339C38.17961,38.10808,38.854,28.63135,38.7449,21.3321Z"/><path class="cls-9" d="M39.704,20.52546c.49406,7.58543.06109,20.27216,7.83807,24.16488a14.65174,14.65174,0,0,0,3.6568,1.0143v.12746a8.70648,8.70648,0,0,1-8.15515-3.21876A15.31091,15.31091,0,0,1,40.369,36.13508c-1.07055-5.18774-.92919-10.42529-.79248-15.60962Z"/><path class="cls-9" d="M61.08609,29.37043c-4.99846.7515-8.99287-7.764-8.92814-11.92614l.1276-.00013c.53642,3.81865,3.02863,7.14386,5.74,9.72778a7.91557,7.91557,0,0,0,3.06059,2.0713v.12719Z"/><path class="cls-1" d="M52.96276,16.443c0,8.51535-8.04512,11.39821-15.39646,11.39821l1.70179-12.56974H63.03326l0,13.03426C57.8527,28.30574,52.96276,20.43352,52.96276,16.443Z"/><path class="cls-2" d="M61.82693,28.36946c-3.96347-.39361-6.6742-4.69939-8.273-7.98517a11.18983,11.18983,0,0,1-1.05125-3.9411h.92017c.3273,8.05636-7.37767,12.35345-14.65043,11.46151l.00016-.12728a25.27522,25.27522,0,0,0,4.92517-1.05567c3.07114-.99636,6.02529-2.75248,7.612-5.61766a10.31119,10.31119,0,0,0,1.19285-4.6609h.92029c.23778,3.75589,2.4052,7.43285,5.03927,10.07624A5.75052,5.75052,0,0,0,61.82693,28.242v.12745Z"/><path class="cls-3" d="M37.72512,26.9156c6.04493-1.60782,14.52142-5.17189,14.857-12.36994l.8182.23615a24.42021,24.42021,0,0,1-8.52538,7.60133,18.00769,18.00769,0,0,1-3.55141,1.37426l-.03491-.12256A17.77606,17.77606,0,0,0,44.71206,22.087a25.69323,25.69323,0,0,0,8.722-9.01588,11.20693,11.20693,0,0,1-5.391,10.769,19.49569,19.49569,0,0,1-10.3043,3.20223l-.01369-.12676Z"/><circle class="cls-10" cx="49.85365" cy="50.35954" r="47.1047"/><path class="cls-11" d="M80.95932,37.013c-.491-.491,8.56435-3.89311,8.56435,4.6356,0,6.55083-5.45549,10.12935-8.56435,8.711-3.10886,1.4184-8.56434-2.16012-8.56434-8.711C72.395,33.11988,80.46831,36.522,80.95932,37.013Z"/><path class="cls-1" d="M74.15127,29.14379c3.42721.3223,6.2992,1.39917,6.00866,6.77478C74.7881,35.565,74.06194,32.585,74.15127,29.14379Z"/><path class="cls-1" d="M80.44878,37.22685c0-2.70885,2.39928-6.199,5.93853-6.21183v2.04827c-3.53925.01283-5.428,1.70907-5.428,4.41792"/><path class="cls-8" d="M57.8265,24.0493a2.59038,2.59038,0,0,0,0-5.18075H42.28421a2.59038,2.59038,0,1,0,0,5.18075Z"/><circle class="cls-8" cx="44.87459" cy="18.86855" r="2.59038"/><circle class="cls-8" cx="47.46497" cy="16.29746" r="2.59038"/><circle class="cls-8" cx="52.64573" cy="16.29746" r="2.59038"/><circle class="cls-8" cx="55.23611" cy="18.86855" r="2.59038"/><rect class="cls-8" x="47.46497" y="16.29746" width="5.18076" height="4.23524"/></g><g id="paleta"><rect class="cls-12" x="6.36295" y="79.52632" width="86.9814" height="28.15918" rx="4.56377"/><path class="cls-13" d="M32.2543,99.7482a.34083.34083,0,0,1-.28809-.125.37762.37762,0,0,1-.05761-.31641l.13476-.61475a1.22635,1.22635,0,0,1,.17285-.38379,1.83694,1.83694,0,0,1,.4795-.46093l4.9541-4.07032q1.13232-.82544,1.833-1.41113a5.41053,5.41053,0,0,0,1.05665-1.123,3.14174,3.14174,0,0,0,.4707-1.11377,2.09043,2.09043,0,0,0-.25-1.7378,1.97974,1.97974,0,0,0-1.68945-.64306,2.97039,2.97039,0,0,0-1.38282.31689,3.26573,3.26573,0,0,0-1.05566.86377,4.23715,4.23715,0,0,0-.69141,1.23877.5466.5466,0,0,1-.25879.34521.72867.72867,0,0,1-.33593.0962h-.9795a.31009.31009,0,0,1-.26855-.10547.34441.34441,0,0,1-.05762-.25928,5.19726,5.19726,0,0,1,.61426-1.46875,5.43127,5.43127,0,0,1,1.13281-1.33447A5.83714,5.83714,0,0,1,37.39,86.47134a5.29088,5.29088,0,0,1,2.02637-.37451,4.38081,4.38081,0,0,1,2.37109.54736,2.55815,2.55815,0,0,1,1.123,1.44971,3.94725,3.94725,0,0,1,.03809,1.97754,4.71478,4.71478,0,0,1-.6045,1.54541,6.94306,6.94306,0,0,1-1.123,1.36328,15.33691,15.33691,0,0,1-1.65137,1.35352L35.0961,98.07779h5.99023a.35007.35007,0,0,1,.29785.11523.40849.40849,0,0,1,.04785.32617l-.15332.7876a.53347.53347,0,0,1-.19238.31641.55825.55825,0,0,1-.36426.125Z"/><path class="cls-13" d="M43.73574,98.03921a1.43005,1.43005,0,0,1,.24024-.39355.52351.52351,0,0,1,.41308-.16309h1.30567a.253.253,0,0,1,.23047.125.24871.24871,0,0,1-.01953.27832l-1.66993,2.86084a1.4636,1.4636,0,0,1-.25.3169.54511.54511,0,0,1-.38378.12451h-.67188a.23148.23148,0,0,1-.2207-.12451.32814.32814,0,0,1,.00879-.29786Z"/><path class="cls-13" d="M54.08535,99.7482a.36688.36688,0,0,1-.29785-.125.3572.3572,0,0,1-.06738-.31641l.5957-2.76514H48.018a.33924.33924,0,0,1-.28808-.12451.429.429,0,0,1-.07715-.31689l.17285-.76807a1.04193,1.04193,0,0,1,.09668-.27832,1.47265,1.47265,0,0,1,.17187-.24023l7.56543-8.1792a.97215.97215,0,0,1,.76758-.32618h1.459a.36937.36937,0,0,1,.29785.12452.3589.3589,0,0,1,.06738.31689l-1.72754,8.12158h1.72754a.33748.33748,0,0,1,.29785.125.40065.40065,0,0,1,.04785.3169l-.17285.78711a.45144.45144,0,0,1-.17285.31689.53262.53262,0,0,1-.3457.12451H56.1586l-.59473,2.76514a.55462.55462,0,0,1-.18262.31641.49712.49712,0,0,1-.33594.125Zm-3.89746-4.83838h4.49219l1.36328-6.39356Z"/><path class="cls-13" d="M59.90176,99.7482a.34083.34083,0,0,1-.28809-.125.37762.37762,0,0,1-.05761-.31641l.13476-.61475a1.22635,1.22635,0,0,1,.17285-.38379,1.83694,1.83694,0,0,1,.4795-.46093l4.9541-4.07032q1.13232-.82544,1.833-1.41113a5.41073,5.41073,0,0,0,1.05664-1.123,3.14174,3.14174,0,0,0,.4707-1.11377,2.09039,2.09039,0,0,0-.25-1.7378,1.97974,1.97974,0,0,0-1.68945-.64306,2.97039,2.97039,0,0,0-1.38282.31689,3.26583,3.26583,0,0,0-1.05566.86377,4.23715,4.23715,0,0,0-.69141,1.23877.5466.5466,0,0,1-.25879.34521.72867.72867,0,0,1-.33593.0962h-.9795a.3101.3101,0,0,1-.26855-.10547.34441.34441,0,0,1-.05762-.25928,5.19726,5.19726,0,0,1,.61426-1.46875A5.43149,5.43149,0,0,1,63.435,87.44107a5.83714,5.83714,0,0,1,1.60254-.96973,5.29092,5.29092,0,0,1,2.02637-.37451,4.38081,4.38081,0,0,1,2.37109.54736,2.55815,2.55815,0,0,1,1.123,1.44971,3.94725,3.94725,0,0,1,.03809,1.97754,4.71478,4.71478,0,0,1-.6045,1.54541,6.94306,6.94306,0,0,1-1.123,1.36328,15.33691,15.33691,0,0,1-1.65137,1.35352l-4.47363,3.74414h5.99023a.35006.35006,0,0,1,.29785.11523.40845.40845,0,0,1,.04785.32617l-.15332.7876a.53347.53347,0,0,1-.19238.31641.55825.55825,0,0,1-.36426.125Z"/><path class="cls-13" d="M71.768,99.7482c-.19238,0-.30469-.07032-.33594-.21143a.39338.39338,0,0,1,.124-.38379l12.11523-12.48a2.14805,2.14805,0,0,1,.31738-.269.74541.74541,0,0,1,.41211-.09571h.76856a.29386.29386,0,0,1,.32617.21094.37626.37626,0,0,1-.11523.38428L73.265,99.38345a2.129,2.129,0,0,1-.3164.26855.73827.73827,0,0,1-.41309.0962Zm2.97559-6.624A2.66372,2.66372,0,0,1,73.39,92.798a1.93156,1.93156,0,0,1-.82519-.91211,2.52728,2.52728,0,0,1-.16407-1.35351q.07764-.49952.16407-.84522.08641-.345.2207-.88281a3.73814,3.73814,0,0,1,1.09375-1.88184,3.00872,3.00872,0,0,1,2.09277-.71045,2.68166,2.68166,0,0,1,1.40235.33594,1.94441,1.94441,0,0,1,.80566.92188,2.46043,2.46043,0,0,1,.13477,1.35351c-.05176.3584-.10547.65283-.16309.8833s-.13184.51221-.2207.84473a3.70347,3.70347,0,0,1-1.1045,1.8623A3.01272,3.01272,0,0,1,74.74356,93.12417Zm.03808-1.26709a1.58767,1.58767,0,0,0,1.19043-.45117,2.3879,2.3879,0,0,0,.59571-.93115c.08886-.3457.15332-.61768.1914-.81641q.05859-.29736.13477-.77734a2.33986,2.33986,0,0,0,.01953-.6626.83444.83444,0,0,0-.26856-.52783,1.06119,1.06119,0,0,0-.73046-.21143,1.59387,1.59387,0,0,0-1.209.4419,2.1604,2.1604,0,0,0-.55664.96q-.13476.48046-.19238.77734-.05714.2981-.13477.81641a2.39989,2.39989,0,0,0,.00977.64307.87452.87452,0,0,0,.27832.52783A.96176.96176,0,0,0,74.78164,91.85708Zm6.18262,8.00635a2.72172,2.72172,0,0,1-1.36328-.32666,1.91945,1.91945,0,0,1-.835-.91162,2.40557,2.40557,0,0,1-.14356-1.35352q.07617-.4995.15332-.85449.07617-.35522.21094-.89306a3.894,3.894,0,0,1,1.10449-1.86231,2.96836,2.96836,0,0,1,2.083-.71045,2.732,2.732,0,0,1,1.41113.33594,1.932,1.932,0,0,1,.81543.92187,2.3541,2.3541,0,0,1,.11524,1.35352c-.05078.3584-.10254.65283-.15332.8833s-.12207.51172-.21094.84473a3.7035,3.7035,0,0,1-1.10449,1.8623A3.01279,3.01279,0,0,1,80.96426,99.86343Zm.03906-1.26709a1.58691,1.58691,0,0,0,1.18946-.45117A2.19366,2.19366,0,0,0,82.769,97.214q.15381-.51857.21191-.81641.05713-.29736.11524-.77734a1.6564,1.6564,0,0,0,.01855-.6626.846.846,0,0,0-.97851-.73926,1.59011,1.59011,0,0,0-1.21973.4419,2.20348,2.20348,0,0,0-.54688.96q-.13476.47973-.19238.77734-.05714.2981-.13476.81641a2.3994,2.3994,0,0,0,.00976.64306.87451.87451,0,0,0,.27832.52783A.96274.96274,0,0,0,81.00332,98.59634Z"/><polygon class="cls-13" points="11.881 97.324 19.317 89.888 26.753 97.324 11.881 97.324"/></g></svg>