<svg xmlns="http://www.w3.org/2000/svg" width="100" height="108" viewBox="0 0 100 108"><defs><style>.cls-1{fill:#707487;}.cls-2{fill:#0d1729;}.cls-3{fill:#47576d;}.cls-4{fill:#e4eaf8;}.cls-5{fill:#fff;}.cls-6{fill:#68768c;}.cls-7{fill:#9fbae1;}.cls-8{fill:#a6a6a6;}.cls-9{fill:none;stroke:#fcdfc2;stroke-miterlimit:10;stroke-width:2.93546px;}.cls-10{fill:#fcdfc2;}.cls-11{fill:#1d1d1b;}</style></defs><g id="tec-superior"><path class="cls-1" d="M49.65449,49.58485c9.24177,0,16.45516-2.087,16.45516-11.23767S69.59,9.929,52.894,9.929c0,0,0-2.88968-4.60409-2.88968-7.22421,0-14.14913,6.26837-14.14913,12.44539C34.14078,43.642,28.54373,49.58485,49.65449,49.58485Z"/><path class="cls-2" d="M49.6545,49.45735c7.173.184,16.15574-1.55451,16.00546-10.45573-.16233-7.16174,1.06785-14.81543-1.68334-21.60215-1.96548-4.97252-6.84016-6.86812-11.91239-6.543L51.974,9.929a2.42229,2.42229,0,0,0-2.20456-1.75045c-3.87915-.55433-8.01144,1.24095-10.78552,3.95478a11.07744,11.07744,0,0,0-3.50351,6.68458c-.05563,1.256-.00033,2.88137-.06183,4.21363-.104,4.30744-.4237,8.66063-.76526,12.926-.15549,2.813-.47473,5.70166.30212,8.21484,1.92588,5.42,9.9099,5.009,14.69907,5.28492Zm0,.25488c-5.34221-.1922-13.4102.86738-16.0865-4.99855-1.17448-2.84422-1.14722-5.873-1.16587-8.84373.03389-4.34139.325-8.58457.38259-12.89527.0661-1.377-.0292-2.96078.09955-4.39865.84446-6.48178,6.54645-11.05887,12.59818-12.31654,2.98861-.6233,8.00543-.335,8.33162,3.66934l-.91995-.91973a15.09725,15.09725,0,0,1,7.52014,1.84375c9.1249,5.88989,6.23358,19.00315,6.11144,28.18423-.37011,9.22588-9.38155,10.71568-16.8712,10.67515Z"/><path class="cls-3" d="M46.97432,48.0633c-5.82393,1.439-13.6161-.88-12.85405-8.16539l.06057-1.526c.15475-3.88495.76369-14.29776,1.00118-18.3086.09487-4.38112,3.24765-8.03236,6.85725-10.10879C39.15554,12.658,36.63312,16.03089,36.83864,20.11a187.89906,187.89906,0,0,1-.79218,19.916c-1.04573,6.18392,5.93954,8.12874,10.92786,8.03735Z"/><path class="cls-3" d="M50.87337,47.68122c-9.47793,1.37585-13.40777-9.92109-12.53164-17.61235l.12713.00444c.13086,8.764,3.56415,15.57463,12.40451,17.60791Z"/><path class="cls-3" d="M49.48311,48.6446c-9.47782,1.37563-13.40778-9.92115-12.53164-17.6126l.12713.00445c.13107,8.76449,3.56372,15.57429,12.40451,17.60815Z"/><path class="cls-4" d="M82.26631,82.7712V62.43175c0-4.31644-14.501-13.99-32.04219-13.99s-32.04219,9.67357-32.04219,13.99V82.7712S33.86437,95.30567,50.02507,95.30567,82.26631,82.7712,82.26631,82.7712Z"/><path class="cls-5" d="M59.57055,49.34076c-.62354,3.57214-4.79383,26.67163-9.34644,32.44775-4.55255-5.77612-8.7229-28.87561-9.34644-32.44775Z"/><path d="M59.61931,49.29988c-.88765,5.68373-1.98864,11.1409-3.29614,16.70777-1.48835,5.682-2.6707,11.5708-6.09284,16.5174a28.941,28.941,0,0,1-3.99738-8.265,158.60311,158.60311,0,0,1-6.044-25.52048c5.79276.03511,13.594.36562,19.43039.56029Zm-.09753.08178c-5.44166.2114-13.30855.46982-18.644.54839l.58046-.69048c1.09387,5.53443,2.2009,11.07325,3.49948,16.55909,1.381,5.33075,2.60225,11.088,5.60166,15.7254l-.67069-.00006c3.08858-4.58845,4.407-10.34109,5.92343-15.64447,1.43972-5.40923,2.61754-11.04387,3.70966-16.49787Z"/><path class="cls-6" d="M82.1389,82.77131c-.73852-6.71145-1.22789-13.55764-1.5498-20.303-.68577-1.97987-3.05109-3.48293-4.849-4.69344A44.84,44.84,0,0,0,63.109,52.43464a49.51684,49.51684,0,0,0-27.23138.40894,42.28179,42.28179,0,0,0-12.40388,5.74536c-1.41607,1.06942-2.98785,2.18122-3.61023,3.80877C19.6039,68.471,19.15706,74.6722,18.671,80.74665L18.30935,84.356h-.25483l-.0361-14.4375-.018-7.21875a3.32942,3.32942,0,0,1,.45321-1.81372c5.74248-8.34412,21.234-12.58124,30.97381-12.69057a49.611,49.611,0,0,1,27.515,7.80059c2.158,1.57529,4.67571,3.28925,5.46327,5.98925.11439,1.65722-.00516,4.65969.02728,6.34824l-.03922,14.43774Z"/><path class="cls-7" d="M25.89132,69.33576a44.74943,44.74943,0,0,1,.1284,19.69166,44.74311,44.74311,0,0,1-.1284-19.69166Z"/><path class="cls-7" d="M72.17138,69.45222a44.75079,44.75079,0,0,1,.12837,19.6919,44.74389,44.74389,0,0,1-.12837-19.6919Z"/><path class="cls-7" d="M40.42662,50.68025C34.91947,53.61467,23.5854,58.12671,21.67005,64.275c-.35578,1.6818-.60125,6.19865-.77621,7.98442-.31417,3.62224-.60027,7.257-1.15407,10.89446a91.10564,91.10564,0,0,1-.64618-10.96533c.22016-3.67789-.45542-8.034,1.83952-11.19388C25.69744,55.137,33.43454,52.6426,40.42662,50.68025Z"/><path class="cls-5" d="M42.60113,54.06549A4.02112,4.02112,0,0,0,43.9699,51.104V42.06134H56.152V51.104a4.92607,4.92607,0,0,0,1.095,2.96152"/><path d="M42.56151,54.0157c1.703-1.47186,1.174-3.76674,1.17305-5.75223l-.14946-6.20212-.00906-.376.394-.00878,12.18185-.27.64975-.01441.00525.66919q.024,3.06482-.1282,6.12964c-.03455,1.99814-.60716,4.03474.61626,5.8325l-.09581.084a4.70652,4.70652,0,0,1-1.38349-2.83911c-.23416-3.07852-.3399-6.12764-.31854-9.207l.65478.65479-12.18185-.27.3847-.38477-.1495,6.20215c-.09108,2.01339.25675,4.47311-1.56452,5.85177l-.07916-.09957Z"/><path class="cls-8" d="M43.405,54.8592a3.87274,3.87274,0,0,0,1.07892-2.67334c-.09627-3.0278-.77343-6.34356.2658-9.281h.12738A14.36134,14.36134,0,0,1,45.323,49.107c-.145,2.00974.07992,4.59752-1.83885,5.85177L43.405,54.8592Z"/><path class="cls-6" d="M43.52062,51.30842c.98109,3.45156,3.49671,7.57464,7.35273,7.60257l2.29168-.0784c-2.15458,1.65453-8.3178,6.388-10.49579,8.06079a63.0473,63.0473,0,0,1-2.75846-15.3987,27.123,27.123,0,0,1,3.60984-.18626Zm-.13745.2146c-1.05835.43945-1.8674.89819-2.62079,1.21362l.5022-.78979a58.78522,58.78522,0,0,1,3.16485,12.781l-1.77054-.69874L50.4457,59.046l.42755,1.35327a6.24284,6.24284,0,0,1-3.13562-1.07934A11.07492,11.07492,0,0,1,43.38317,51.523Z"/><path class="cls-6" d="M58.36358,51.523a11.07453,11.07453,0,0,1-4.35444,7.79689,6.24313,6.24313,0,0,1-3.13565,1.07933L51.301,59.046l7.78681,4.98315-1.77057.69873a58.78583,58.78583,0,0,1,3.16491-12.781l.50217.78979c-.75338-.31543-1.56244-.77417-2.62078-1.21362Zm-.13746-.2146a26.95809,26.95809,0,0,1,3.60993.1863,63.0446,63.0446,0,0,1-2.75864,15.39864c-2.18278-1.67663-8.3355-6.40175-10.4957-8.06077l2.29175.07837c3.8584-.0302,6.36967-4.14807,7.35266-7.60254Z"/><path class="cls-4" d="M40.87767,49.34076q-.81975.15673-1.62213.33557c-.27337,2.18737-2.63171,21.13025-2.39563,21.8385.25061.75171,5.93036.91882,5.84687,2.00464s-2.748,1.01928-3.174,1.83764c-.56158,1.07886,7.43384,6.4314,10.69135,6.4314C45.67156,76.01239,41.50121,52.9129,40.87767,49.34076Z"/><path class="cls-6" d="M40.80526,49.44563c-.55338.17529-1.02906.38354-1.4849.5188l.22824-.25147c-.18971,6.39977-.78031,13.26911-1.27464,19.66161-.0091.34584-.10837,1.50442-.10817,1.83131a.10973.10973,0,0,0-.04483-.10351,1.11156,1.11156,0,0,0-.35773-.511c-.10434-.06593-.03415-.02272.00693-.011,1.6621.51737,3.72848.54661,5.31926,1.44405a1.75617,1.75617,0,0,1,.26013,2.84063c-.89189.80588-1.97245.79908-2.86134,1.17944-.04508.01635-.02142.01513.02011-.04371a.87735.87735,0,0,0,.15036-.65381c-.03674-.14331-.047-.10864-.02106-.074a3.21222,3.21222,0,0,0,.49484.58545c2.45,2.15305,5.80381,4.49366,9.0915,5.03194l-.70542,1.45414a29.52725,29.52725,0,0,1-3.50895-8.01024,172.88033,172.88033,0,0,1-5.20433-24.88868Zm.14483-.20972c1.21228,5.45,2.4461,11.20765,3.9703,16.572,1.72767,5.81023,3.24952,12.20508,7.11235,16.9048L50.224,82.68684a13.97949,13.97949,0,0,1-5.73608-1.92717c-3.005-1.69621-10.23156-5.65562-3.08318-7.58008.15776-.0616.24144-.14436.19612-.11287-.31782.25645-.09727.97259.12781,1.10839-1.56535-.58858-3.25395-.53219-4.89135-1.11818a1.89983,1.89983,0,0,1-1.24022-1.17016,3.57891,3.57891,0,0,1-.06231-.92259c.108-1.50889.30557-3.15187.51334-4.64038.76864-5.67669,1.7351-11.30939,2.964-16.9104.66029-.10186,1.36519-.12914,1.93794-.17749Z"/><path class="cls-4" d="M50.22411,81.78851c3.25751,0,11.253-5.35254,10.69134-6.4314-.426-.81836-3.09045-.75171-3.17395-1.83764s5.59626-1.25293,5.84681-2.00464c.23614-.70825-2.12226-19.65113-2.39563-21.8385q-.80109-.18-1.62213-.33557C58.947,52.9129,54.77672,76.01239,50.22411,81.78851Z"/><path class="cls-6" d="M50.33876,81.733c.12507-.05859.12687-.12085.22049-.12793a10.38439,10.38439,0,0,0,2.234-.8645c2.50239-1.36295,5.56364-3.38078,7.13263-5.36735a.75091.75091,0,0,0,.1159.54143A7.35942,7.35942,0,0,1,57.164,74.798a1.66891,1.66891,0,0,1,.23856-2.70437c1.49531-.88729,3.9617-1.032,5.28514-1.4986a.99881.99881,0,0,0-.34914.49443c-.01985.02552-.06966.06613-.0564.11646.00505-.0975-.02892-.36787-.02724-.46852-.58424-6.84381-1.25348-14.12825-1.98479-20.94555l.71863.7915-1.58682-.3601,1.05352-.72779C59.34481,55.06672,58.12984,60.607,56.6072,66.07917c-1.64943,5.322-2.91576,11.1162-6.26844,15.65381Zm-.2293.11109c2.91893-4.893,4.106-10.5509,5.41851-16.03586q1.83981-8.25555,3.15763-16.62186l.14111-.89917c.55739.10534,1.99388.37334,2.56967.48194l.62256.11694.09628.675L63.707,60.723c.46861,3.314.997,6.88854,1.20792,10.24121a2.65345,2.65345,0,0,1-.13771,1.11939,1.94577,1.94577,0,0,1-1.17028.96288c-1.65383.55589-3.34692.49984-4.931,1.05955.17675-.13267.3855-.73554.10617-.97215.56357.38932,1.57624.51859,2.31353.99a1.602,1.602,0,0,1,.24368,2.68064A20.5015,20.5015,0,0,1,50.95851,81.92a1.99532,1.99532,0,0,1-.849-.07592Z"/><path class="cls-4" d="M60.91545,75.35711c.56159,1.07886-7.43383,6.4314-10.69134,6.4314V95.30567"/><path class="cls-6" d="M61.02849,75.29838a1.10877,1.10877,0,0,1-.08789,1.00976,13.97508,13.97508,0,0,1-7.12175,5.81237,10.47,10.47,0,0,1-3.59461.70817l1.04-1.04007-.394,6.75855c-.171,2.25293-.31134,4.50561-.51865,6.75854H50.0967c-.20731-2.25293-.34763-4.50561-.51865-6.75854-.0322-.53988-.43118-7.40442-.44769-7.679,2.26179-.01364,4.33646-1.51677,6.409-2.47635a29.68676,29.68676,0,0,0,5.48913-3.09347Z"/><path class="cls-5" d="M38.66552,21.09011c0,13.52837,1.05709,25.24286,11.5586,25.24286S61.66374,34.61848,61.66374,21.09011l-8.83228-4.926Z"/><path d="M38.71743,21.127c.11166,5.09986.19244,10.39014,1.395,15.39527A14.90274,14.90274,0,0,0,43.42339,43.305c3.37455,3.59558,10.15888,3.57035,13.464-.06945a14.57753,14.57753,0,0,0,3.09923-6.77063c1.05307-5.00171,1.00733-10.21143,1.01526-15.37476l.33939.57788c-2.93937-1.65015-5.88083-3.29687-8.79279-4.99634l.47379.04126c-4.74209,1.562-9.44766,2.98424-14.30481,4.41406Zm-.10382-.07373c4.656-1.8954,9.4773-3.77721,14.26077-5.52464,3.05753,1.62443,6.08374,3.30579,9.11169,4.98338l.34369.19043-.00412.3877c-.05527,5.19141-.13711,10.45044-1.32763,15.6084-.85847,3.77959-2.85689,8.02027-6.833,9.38619-3.76,1.29375-8.451.7285-11.21187-2.339-4.90483-5.91679-4.23055-15.39308-4.33958-22.69245Z"/><path class="cls-8" d="M39.57274,20.24665c.49394,7.58465.06113,20.27276,7.838,24.16464a14.64659,14.64659,0,0,0,3.6569,1.01454v.12722a8.706,8.706,0,0,1-8.15519-3.21852,15.31237,15.31237,0,0,1-2.67478-6.47826c-1.07046-5.188-.9291-10.42529-.79238-15.60962Z"/><path class="cls-8" d="M60.95476,29.09162c-4.99862.75116-8.99277-7.76415-8.92807-11.92639l.12757-.00012c.53646,3.81879,3.02854,7.144,5.73989,9.728a7.91312,7.91312,0,0,0,3.06061,2.071v.12744Z"/><path class="cls-1" d="M52.83146,16.16411c0,8.51535-8.04512,11.39821-15.39646,11.39821l1.70179-12.56974H62.902l0,13.03426C57.7214,28.02684,52.83146,20.15463,52.83146,16.16411Z"/><path class="cls-2" d="M61.69567,28.09065c-3.96328-.394-6.67457-4.6993-8.273-7.98542a11.18613,11.18613,0,0,1-1.05131-3.9411h.92019c.32752,8.05677-7.37765,12.35326-14.65042,11.46177l.00016-.12729a25.29279,25.29279,0,0,0,4.92523-1.05567c3.07116-.99636,6.02532-2.75255,7.61189-5.6179a10.31111,10.31111,0,0,0,1.19292-4.66091h.92025c.23775,3.756,2.40511,7.43269,5.03931,10.07649a5.75178,5.75178,0,0,0,3.36478,1.72259v.12744Z"/><path class="cls-3" d="M37.59383,26.63679c6.045-1.60793,14.52133-5.17186,14.857-12.36994l.81813.23615a25.65229,25.65229,0,0,1-5.30263,5.54322,19.23767,19.23767,0,0,1-6.77416,3.4321l-.03493-.12254c5.24169-1.73386,9.35943-5.91838,12.1456-10.56346a11.20747,11.20747,0,0,1-5.391,10.769,19.498,19.498,0,0,1-10.30436,3.20223l-.01363-.12676Z"/><path class="cls-5" d="M39.57457,33.722c-5.69126.68263-6.54833-9.32659-.71705-9.96379l.38214,5.31"/><path d="M39.58217,33.78523c-6.34729.926-6.9508-10.20734-.79485-10.66937l.69552-.04523.01928.64136a32.6478,32.6478,0,0,1-.19891,5.35156l-.1271.009a32.65328,32.65328,0,0,1-.96317-5.26782l.71469.59595c-3.70108.39223-4.62607,5.3384-2.52176,7.94462a3.66542,3.66542,0,0,0,3.1611,1.31343l.0152.12647Z"/><path class="cls-5" d="M61.069,33.722c5.69126.68263,6.54833-9.32659.71705-9.96379l-.38214,5.31"/><path d="M61.07659,33.65876c5.31644.39339,5.77511-8.77158.63924-9.258l.71479-.596a32.65115,32.65115,0,0,1-.96319,5.26782l-.12708-.009a32.64891,32.64891,0,0,1-.19891-5.35156l.01928-.64136.69562.04516c4.50932.36595,5.62232,6.70677,2.75259,9.56785a3.98694,3.98694,0,0,1-3.54754,1.10159l.0152-.12647Z"/><circle class="cls-9" cx="49.85365" cy="50.35954" r="47.1047"/></g><g id="paleta"><rect class="cls-10" x="6.36295" y="79.52632" width="86.9814" height="28.15918" rx="4.56377"/><path class="cls-11" d="M36.55468,99.94009a6.22307,6.22307,0,0,1-2.0542-.29736,3.60466,3.60466,0,0,1-1.35352-.79688,2.67949,2.67949,0,0,1-.70068-1.09424,2.48906,2.48906,0,0,1-.07715-1.229.43662.43662,0,0,1,.17285-.269.51777.51777,0,0,1,.30713-.09571H33.79a.60072.60072,0,0,1,.31689.07666.44234.44234,0,0,1,.16309.32666,1.49342,1.49342,0,0,0,.41308,1.0752,2.09043,2.09043,0,0,0,.998.52783,5.237,5.237,0,0,0,1.21924.144,4.0529,4.0529,0,0,0,2.28467-.63378,2.86192,2.86192,0,0,0,1.229-1.86231,1.70645,1.70645,0,0,0-.37451-1.78564,2.99,2.99,0,0,0-1.94873-.5376H36.26708a.352.352,0,0,1-.28809-.11524.42739.42739,0,0,1-.07666-.32617l.11475-.51855a.742.742,0,0,1,.13476-.29737,2.2268,2.2268,0,0,1,.1919-.22119l4.56933-4.07031H35.26854a.34813.34813,0,0,1-.29785-.11523.40617.40617,0,0,1-.04785-.32618l.15381-.72949a.54088.54088,0,0,1,.19189-.33642.53341.53341,0,0,1,.34571-.12452h7.66064a.33568.33568,0,0,1,.29736.12452.43915.43915,0,0,1,.04834.33642l-.13427.69092a.48258.48258,0,0,1-.106.24023q-.08643.10548-.18213.20166l-4.60791,4.12793.32617.01905a5.1042,5.1042,0,0,1,2.09278.46093,2.47676,2.47676,0,0,1,1.229,1.25733,3.37139,3.37139,0,0,1,.07666,2.10254,4.56827,4.56827,0,0,1-1.104,2.19824A5.44911,5.44911,0,0,1,39.166,99.46011,7.01763,7.01763,0,0,1,36.55468,99.94009Z"/><path class="cls-11" d="M44.00438,98.03921a1.41732,1.41732,0,0,1,.23975-.39355.52282.52282,0,0,1,.41309-.16309h1.30566a.253.253,0,0,1,.23047.125.2496.2496,0,0,1-.01953.27832l-1.67041,2.86084a1.46271,1.46271,0,0,1-.24952.3169.54511.54511,0,0,1-.38378.12451h-.67237a.232.232,0,0,1-.2207-.12451.32852.32852,0,0,1,.00977-.29786Z"/><path class="cls-11" d="M50.95507,99.7482a.36753.36753,0,0,1-.29785-.125.35717.35717,0,0,1-.06739-.31641L52.83641,88.7272l-3.6289,2.38086a.54788.54788,0,0,1-.3457.09619.3332.3332,0,0,1-.24952-.19189l-.40283-.71045a.49492.49492,0,0,1-.02881-.34571.48506.48506,0,0,1,.25879-.28808l4.877-3.22559a.67089.67089,0,0,1,.22071-.11523,1.17509,1.17509,0,0,1,.24023-.019h1.01758a.36832.36832,0,0,1,.29736.12452.35888.35888,0,0,1,.06739.31689l-2.688,12.55713a.54935.54935,0,0,1-.18262.31641.49535.49535,0,0,1-.33594.125Z"/><path class="cls-11" d="M61.64891,99.7482a.36718.36718,0,0,1-.29736-.125.35428.35428,0,0,1-.06738-.31641l.59521-2.76514H55.582a.33927.33927,0,0,1-.28809-.12451.42675.42675,0,0,1-.07666-.31689l.17237-.76807a1.07832,1.07832,0,0,1,.09619-.27832,1.48609,1.48609,0,0,1,.17285-.24023l7.56494-8.1792a.97387.97387,0,0,1,.76807-.32618h1.459a.36836.36836,0,0,1,.29737.12452.3589.3589,0,0,1,.06738.31689l-1.728,8.12158h1.728a.33748.33748,0,0,1,.29785.125.40065.40065,0,0,1,.04785.3169l-.17285.78711a.45148.45148,0,0,1-.17285.31689.53264.53264,0,0,1-.3457.12451H63.72264l-.59521,2.76514a.55131.55131,0,0,1-.18213.31641.49744.49744,0,0,1-.33642.125Zm-3.89746-4.83838h4.49268l1.36328-6.39356Z"/><path class="cls-11" d="M68.06151,99.7482c-.19189,0-.3042-.07032-.33594-.21143a.394.394,0,0,1,.125-.38379l12.11524-12.48a2.17194,2.17194,0,0,1,.31689-.269.7461.7461,0,0,1,.4126-.09571h.76807a.29353.29353,0,0,1,.32617.21094.37531.37531,0,0,1-.11523.38428l-12.11524,12.48a2.10448,2.10448,0,0,1-.31641.26855.74041.74041,0,0,1-.41308.0962Zm2.97608-6.624a2.66372,2.66372,0,0,1-1.35352-.32617,1.93507,1.93507,0,0,1-.82568-.91211,2.51811,2.51811,0,0,1-.16309-1.35351q.07617-.49952.16309-.84522.08642-.345.2207-.88281a3.73941,3.73941,0,0,1,1.09473-1.88184,3.00619,3.00619,0,0,1,2.09277-.71045A2.67678,2.67678,0,0,1,73.668,86.548a1.949,1.949,0,0,1,.80664.92188,2.4741,2.4741,0,0,1,.13428,1.35351q-.07691.5376-.16309.8833-.08643.34571-.2207.84473a3.70622,3.70622,0,0,1-1.104,1.8623A3.014,3.014,0,0,1,71.03759,93.12417Zm.03857-1.26709a1.59068,1.59068,0,0,0,1.19043-.45117,2.392,2.392,0,0,0,.59522-.93115q.134-.51855.19189-.81641.05785-.29736.13428-.77734a2.322,2.322,0,0,0,.01953-.6626.83039.83039,0,0,0-.269-.52783,1.05844,1.05844,0,0,0-.7295-.21143,1.59428,1.59428,0,0,0-1.20947.4419,2.17082,2.17082,0,0,0-.55713.96q-.134.48046-.19189.77734-.05787.2981-.13428.81641a2.4,2.4,0,0,0,.00928.64307.87261.87261,0,0,0,.27881.52783A.95929.95929,0,0,0,71.07616,91.85708Zm6.18213,8.00635a2.716,2.716,0,0,1-1.36279-.32666,1.91806,1.91806,0,0,1-.83545-.91162,2.40976,2.40976,0,0,1-.14405-1.35352q.07691-.4995.15381-.85449.07617-.35522.21094-.89306a3.89712,3.89712,0,0,1,1.104-1.86231,2.9721,2.9721,0,0,1,2.0835-.71045,2.7308,2.7308,0,0,1,1.41113.33594,1.933,1.933,0,0,1,.81592.92187,2.36655,2.36655,0,0,1,.11524,1.35352q-.07691.5376-.15381.8833t-.21094.84473a3.70625,3.70625,0,0,1-1.104,1.8623A3.01407,3.01407,0,0,1,77.25829,99.86343Zm.03857-1.26709a1.58991,1.58991,0,0,0,1.19043-.45117,2.19844,2.19844,0,0,0,.57618-.93115q.15308-.51857.21093-.81641.05787-.29736.11524-.77734a1.65676,1.65676,0,0,0,.019-.6626.97281.97281,0,0,0-.26855-.52783.98372.98372,0,0,0-.71045-.21143,1.58967,1.58967,0,0,0-1.21924.4419,2.21442,2.21442,0,0,0-.54737.96q-.134.47973-.19189.77734c-.03809.19873-.0835.4707-.13428.81641a2.37979,2.37979,0,0,0,.00977.64306.86946.86946,0,0,0,.27832.52783A.95925.95925,0,0,0,77.29686,98.59634Z"/><polygon class="cls-11" points="11.881 97.324 19.317 89.888 26.753 97.324 11.881 97.324"/></g></svg>