<?xml version="1.0" encoding="utf-8"?>
<!-- Generator: Adobe Illustrator 28.3.0, SVG Export Plug-In . SVG Version: 6.00 Build 0)  -->
<svg version="1.1" id="Layer_7" xmlns="http://www.w3.org/2000/svg" xmlns:xlink="http://www.w3.org/1999/xlink" x="0px" y="0px"
	 viewBox="0 0 427.7 129.6" style="enable-background:new 0 0 427.7 129.6;" xml:space="preserve">
<style type="text/css">
	.st0{fill:#E1A091;stroke:#000000;stroke-miterlimit:10;}
	.st1{fill:#FFFFFF;stroke:#000000;stroke-miterlimit:10;}
	.st2{stroke:#000000;stroke-miterlimit:10;}
	.st3{fill:#DBDADB;stroke:#000000;stroke-miterlimit:10;}
	.st4{fill:#8C9AA3;stroke:#000000;stroke-miterlimit:10;}
	.st5{stroke:#000000;stroke-linejoin:bevel;stroke-miterlimit:10;}
	.st6{fill:#ADCCA2;stroke:#000000;stroke-miterlimit:10;}
	.st7{fill:#FFFFFF;stroke:#000000;stroke-linejoin:bevel;stroke-miterlimit:10;}
	.st8{fill:#ED1C24;stroke:#000000;stroke-miterlimit:10;}
</style>
<g>
	<path class="st0" d="M273.2,97.3l-14.1-69.9l41.2-9.9L313.2,93l-25.4,2.4l-3.4-12.5l-6.7,1.3l2.9,13.2H273.2z M293.6,80.6l1.2,7.9
		l12.2-1.4l-2.3-8.3L293.6,80.6z M290.1,63.7l1.3,7.1l13.2-2.5l-1.4-7.6L290.1,63.7z M271.3,66.7l3.5,7.3l11.9-1.6l-1.4-8.5
		L271.3,66.7z M269.3,52.1l1.9,7.5l12.9-2.2l-2-8.8L269.3,52.1z M288.9,47.4v8l11.8-2l-0.5-7.2L288.9,47.4z M285.2,33.6l1.4,7.5
		l12.5-1.7l-1.7-7.5L285.2,33.6z M267.5,35.8V44l12.5-2.4l-1-6.8L267.5,35.8z"/>
	<polygon class="st0" points="255.1,29.8 306.4,17.5 277.8,5.9 	"/>
	<line class="st1" x1="259.4" y1="31" x2="297.4" y2="21.9"/>
</g>
<g>
	<g>
		<path class="st2" d="M269.4,102.5c-17.2,0-17.2,24.2,0,24.2C286.4,126.6,286.4,102.5,269.4,102.5z"/>
		<path class="st3" d="M269.4,109.8c-7.4,0-10,11.1,0,11.1C279.4,120.9,276.8,109.8,269.4,109.8z"/>
		<path class="st4" d="M269.4,112.1c-4.3,0-5.8,6.4,0,6.4C275.1,118.5,273.7,112.1,269.4,112.1z"/>
		<polygon class="st4" points="269.4,114 311.2,103.5 314.6,84.8 332.1,80.9 332.1,83.8 317,86.9 310.8,120.9 302.5,122.1 
			299.4,109 301.6,108.5 304.3,119.4 308.7,118.7 310.6,106.2 269.4,116.7 		"/>
		<polygon class="st3" points="284.8,110.1 269.4,94.2 313.4,91.5 311.2,103.5 		"/>
	</g>
	<line class="st1" x1="270.7" y1="95.5" x2="276.4" y2="95.5"/>
	<line class="st1" x1="272.2" y1="97.2" x2="278" y2="97.2"/>
	<line class="st1" x1="277" y1="102.1" x2="282.8" y2="102.1"/>
	<line class="st1" x1="275.3" y1="100.3" x2="281.1" y2="100.3"/>
	<line class="st1" x1="278.4" y1="103.5" x2="284.1" y2="103.5"/>
	<line class="st1" x1="280.3" y1="105.5" x2="286.1" y2="105.5"/>
</g>
<g>
	<g>
		<path class="st4" d="M190,54.1c-9.2,2.2-35.2-1.1-50.6,4.9l2.2-8.4c11.8-3.8,32.6-1,43.5-6.1"/>
	</g>
	<path class="st4" d="M178.6,85.8c-18.3-3.6-20.2-6.5-20.2-6.5c6.4-24.2,26.1-34.8,26.1-34.8l16.2,0.6"/>
	<line class="st4" x1="177.5" y1="48.5" x2="170" y2="53.5"/>
	<line class="st4" x1="175.1" y1="48.5" x2="169.6" y2="51.6"/>
	<line class="st4" x1="172.9" y1="47.9" x2="169.6" y2="49.3"/>
</g>
<g>
	<path class="st4" d="M186.1,77.3c-17.4,11.7-30.4,27.1-33.8,43l-9-13.5c6.7-19.8,21.4-33.2,42.7-44.7"/>
	<g>
		<line class="st4" x1="165.8" y1="77.7" x2="159.4" y2="83.4"/>
		<line class="st4" x1="166.9" y1="72.1" x2="160.5" y2="77.8"/>
		<line class="st4" x1="169.5" y1="67.9" x2="163" y2="73.6"/>
		<line class="st4" x1="165.8" y1="79.7" x2="159.4" y2="85.3"/>
		<line class="st4" x1="166.7" y1="81.1" x2="160.2" y2="86.7"/>
		<line class="st4" x1="170.8" y1="79.7" x2="164.4" y2="85.3"/>
		<line class="st4" x1="169.2" y1="83.2" x2="162.7" y2="88.8"/>
		<line class="st4" x1="172.2" y1="82.8" x2="165.7" y2="88.5"/>
		<line class="st4" x1="174.9" y1="82.9" x2="168.5" y2="88.6"/>
	</g>
	<polygon class="st5" points="152.4,120.3 143.4,106.8 135.3,104.1 	"/>
</g>
<path class="st1" d="M68.8,44.4c0,0-12.8,12-45.9,5.4l0.6,7c0,0,22,7.3,45.4-3.1"/>
<path class="st4" d="M78.2,39.2c-15.8,29.5-20.3,66-7.2,87.5L55.3,123c-11-23.9-5.9-49.2,7.1-80.3L78.2,39.2z"/>
<g>
	<line class="st4" x1="54.2" y1="95.5" x2="53.4" y2="104"/>
	<line class="st4" x1="55" y1="99.8" x2="54.2" y2="108.4"/>
	<line class="st4" x1="56.3" y1="104.4" x2="55.5" y2="112.9"/>
	<line class="st4" x1="57.6" y1="107.5" x2="56.8" y2="116"/>
	<line class="st4" x1="58.8" y1="111.2" x2="58" y2="119.7"/>
	<line class="st4" x1="60" y1="114.8" x2="59.2" y2="123.4"/>
	<line class="st4" x1="61.8" y1="114.9" x2="61" y2="123.4"/>
</g>
<polygon class="st5" points="71.1,126.6 55.3,123 47.5,126.6 "/>
<polygon class="st1" points="62.4,42.7 59.3,21.1 73.8,18.2 78.2,39.2 "/>
<polyline class="st6" points="46.2,62.8 44.9,44.6 22.8,46.6 24,65.8 25.9,65.8 25.2,52.6 31.5,51.7 32.8,61.9 "/>
<path class="st4" d="M78.2,39.2c-15.8,29.5-13.1,66,0,87.5L62.4,123c-11-23.9-13.1-49.2,0-80.3L78.2,39.2z"/>
<path class="st1" d="M53.4,81.3c-1.4,0-2.8-0.9-2.8-0.9c2.8-24.1,11.8-37.7,11.8-37.7l15.8-3.5"/>
<path class="st1" d="M63.8,42.4l14.5-3.2c0.4,12.4-6.3,28.8-9.5,43.8c0,0-1.4,0-15.4-1.6C53.4,81.3,55.2,55,63.8,42.4z"/>
<polygon class="st7" points="78.2,39.2 63.8,42.4 61.1,47.2 "/>
<polygon class="st7" points="61.7,42.2 63,42.5 60.4,47.3 "/>
<polygon class="st5" points="78.2,126.6 62.4,123 54.7,126.6 "/>
<path class="st1" d="M71.1,42.5c-6,11-15.5,19.8-32.3,19.8l0,8.7c14.9,0,32.3-7.3,36.8-19.9"/>
<polygon class="st1" points="38.8,62.3 32.8,60.9 31.1,66.4 38.8,69 "/>
<polygon class="st6" points="19.8,47.3 47.9,44.3 32.4,27.7 "/>
<polygon class="st1" points="35.8,55 35.8,58.9 41.4,58.7 41.4,53.6 "/>
<path class="st1" d="M62.5,31.1c3.1-2.1,2.2,3.9,6.3,3.1c0,0-2.5,5.6-6.3,0.5c0,0-1.8,4.9-5.3,0.9C60.3,36.1,58.5,29.6,62.5,31.1z"
	/>
<polygon class="st1" points="184.4,44.5 187,22.8 201.7,23.7 200.7,45.1 "/>
<path class="st4" d="M187.3,71.5c-2.6,20.7,1.5,41.1,10.1,55.2l-15.8-3.6c-7.3-15.8-10.6-32.2-8.3-50.5
	C174.4,63.1,188.6,60.5,187.3,71.5z"/>
<path class="st4" d="M189.5,44.7l11.1,0.4c0,0-8.1,22.3-13.4,41.8c0,0-8.5,0.8-23.4-4.8C163.8,82.2,166.9,56.6,189.5,44.7z"/>
<polyline class="st4" points="179.3,77.1 179.9,74.9 172.5,73 171.6,75 "/>
<polygon class="st5" points="197.4,126.6 181.6,123 173.8,126.6 "/>
<g>
	<path class="st6" d="M144.1,69l0.2-12.1l-7.1-0.5L136.5,69l-9.5-0.8l2-22.9l10.7,0.9l0.9-8l-11-0.3l0.9-10.4l43.1,1.7l-4,40.9
		L144.1,69z M149.1,55.6l0.1,10.5l16,0l1-9.9L149.1,55.6z M150.1,46.3l16.9,1.5l0.4-7.7l-17-0.9L150.1,46.3z"/>
	<polygon class="st6" points="126.5,29.5 178.5,30.9 151.2,9 	"/>
	<line class="st1" x1="130.3" y1="30.2" x2="170.9" y2="32.5"/>
	<line class="st1" x1="128.3" y1="53.4" x2="130.8" y2="53.4"/>
	<line class="st1" x1="128.1" y1="55.3" x2="132" y2="55.4"/>
	<line class="st1" x1="128.3" y1="56.9" x2="133.2" y2="56.9"/>
	<line class="st1" x1="128" y1="58.6" x2="134.4" y2="58.6"/>
	<line class="st1" x1="127.8" y1="60.2" x2="133.2" y2="60.2"/>
	<line class="st1" x1="127.9" y1="61.9" x2="131.5" y2="61.9"/>
</g>
<g>
	<path class="st4" d="M187.8,47.6c-8.8,8.1-29.5,11.7-39.6,18.9l0.4,8.7c12.8-10.3,38.6-15,46.8-19.9"/>
	<polygon class="st1" points="148.2,66.5 142.2,71.4 144.3,76.4 148.6,73.3 	"/>
</g>
<path class="st1" d="M187.5,33.3c3.5-1.3,1.1,4.4,5.3,4.6c0,0-3.8,4.7-6.2-1.1c0,0-3,4.2-5.3-0.5C184.1,37.6,184,30.8,187.5,33.3z"
	/>
<path class="st1" d="M171.7,95.7"/>
<line class="st4" x1="45.8" y1="57.8" x2="53.4" y2="57.8"/>
<line class="st4" x1="45.8" y1="56.3" x2="51.2" y2="56.3"/>
<line class="st4" x1="45.6" y1="54.3" x2="49.3" y2="54.3"/>
<line class="st6" x1="22.9" y1="48" x2="42.6" y2="45.6"/>
<g>
	<g>
		<path class="st2" d="M361.1,38.9L346,44.7c0,0-10.2,31.8,18.8,57.4c0,0,5.1-5.5-1.6-40.5"/>
	</g>
	<g>
		<path class="st4" d="M360.3,74.2c-11.5,17.5-17.5,36.7-14.5,52.7l-13.5-9c-1.4-20.9,6.9-38.9,22.1-57.8"/>
		<polygon class="st5" points="345.8,126.9 332.3,117.9 323.8,118.6 		"/>
	</g>
	<path class="st1" d="M346,44.7l-6.1-21c-1.3-3.7,12.6-8.6,13.9-4.9l7.4,20.1L346,44.7z"/>
	<path class="st4" d="M360.4,71.5c-2.6,20.7,1.5,41.1,10.1,55.2l-15.8-3.6c-7.3-15.8-10.6-32.2-8.3-50.5
		C347.6,63.1,361.8,60.5,360.4,71.5z"/>
	<path class="st1" d="M347.3,47.8c0,0-3.7,21.7-5.6,31l5.1-8.6l3.4,8l7.3-10.6l-2.2-23.1L347.3,47.8z"/>
	<polygon class="st8" points="344.2,47.5 344.1,52.8 346.6,50.2 354,49.8 353.1,43.9 	"/>
	<path class="st2" d="M350.7,42.9l10.4-3.9c0,31,11.2,24.4,13.3,63.2C353.9,92.9,343.2,67.8,350.7,42.9z"/>
	<polyline class="st4" points="364.9,76.5 364.6,74.4 357,75.4 356.9,77.7 	"/>
	<polygon class="st5" points="370.5,126.6 354.7,123 347,126.6 	"/>
	<g>
		<path class="st2" d="M350.3,46.2c-4.9,10.9-18.1,18.5-24.6,29.1l3.8,7.8c7.8-14.5,25.2-25.1,30.8-32.8"/>
		<polygon class="st1" points="325.7,75.2 322,82.1 325.9,85.9 328.6,81.3 		"/>
	</g>
	<path class="st1" d="M344.4,33.2c2.7-2.5,2.7,3.6,6.7,2.2c0,0-1.7,5.8-6.1,1.4c0,0-1.1,5.1-5.1,1.6C343,38.5,340.2,32.2,344.4,33.2
		z"/>
	<path class="st1" d="M354.2,96.8"/>
	<path class="st2" d="M339.6,25.5c-1.5-5.8-2.5-8.6-6.2-16c1-4.6,13.2-8.1,17-5.3c1.6,6.9,2.8,10.3,5.3,16.4
		C346.2,20.9,340.3,24.4,339.6,25.5z"/>
	<path class="st4" d="M341,27.8c-5.3,1.2-10.4-3.3,5.6-8.3s12.8,3.2,8.6,3.2l-0.8-1.9c-8.2,0.3-13.6,3.5-14.2,4.5L341,27.8z"/>
	<path class="st7" d="M342.3,30c-2.9-0.7-2.5,3.3-0.7,3.5C343.4,33.7,344.6,30.6,342.3,30z"/>
</g>
<line class="st1" x1="0" y1="126.9" x2="42.6" y2="126.9"/>
<line class="st1" x1="113.8" y1="126.6" x2="122" y2="126.6"/>
<line class="st1" x1="130.8" y1="126.6" x2="157.7" y2="126.6"/>
<line class="st1" x1="205.1" y1="126.9" x2="289" y2="126.9"/>
<line class="st1" x1="323.8" y1="126.6" x2="333.4" y2="126.6"/>
<line class="st1" x1="385.8" y1="126.9" x2="426.1" y2="126.9"/>
</svg>
