<?xml version="1.0" encoding="UTF-8"?>
<svg xmlns="http://www.w3.org/2000/svg" width="274.97" height="229.03" viewBox="0 0 274.97 229.03">
  <defs>
    <style>
      .cls-1, .cls-2 {
        fill: none;
      }

      .cls-2, .cls-3, .cls-4 {
        mix-blend-mode: multiply;
      }

      .cls-2, .cls-4 {
        opacity: .8;
      }

      .cls-3 {
        opacity: .5;
      }

      .cls-5 {
        isolation: isolate;
      }

      .cls-6 {
        fill: #e53e51;
      }

      .cls-7 {
        fill: #f9d2d7;
      }
    </style>
  </defs>
  <g class="cls-5">
    <g id="Layer_1">
      <path class="cls-1" d="M81.36,207.73s-11.68,3.63-16.57,4.39-24.31,5.24-39.93,4.5c-15.62-.74-20.37-4.56-20.37-6.52s-1.09-22.06-.68-25.05.14-11.95.68-12.22.68-1.31.68-1.31c0,0-1.22-22.18-.27-31.83s2.31-23.9,2.85-24.99,5.98-8.96,11.27-14.67c5.3-5.7,14.86-17.52,17.07-18.74s5.2-.01,8.87-1.7c3.67-1.69,7.62-1.02,9.24,0,1.62,1.02,2.3-2.38,5.02,0,2.72,2.38.81,11.75,1.22,18.14s2.17,11.81,2.17,11.81c0,0,.58.51,3.41-1.38,2.83-1.88,3.38-1.23,2.43.21s-2.43,1.3-2.43,1.3c0,0-1.78,2.31,1.34,2.04,3.12-.27,5.16-6.11,5.16-6.11,0,0,1.09,12.36,1.09,21.46s-2.31,15.75-1.09,28.52,6.11,21.64,7.2,33.43,1.63,18.72,1.63,18.72Z"/>
      <path class="cls-7" d="M8.98,121.28c-2.11,11.8-1.22,47.83-1.77,50.23s-1.46,1.75-1.24,8.95-6.48,27.2,3.02,32.19c9.5,4.99,19.95,4.76,19.21,1.42s4.59-15.83,3.79-31.79,6.65-36.86,3.88-37.98-15.67-.38-11.4,2.65,8.32.73,4.89,13.54-1.14,21.43-1.9,32.5,1.54,19.49-5.12,19.12-18.2-1.58-11.53-7.77c6.66-6.18,9.44-17.37,3.83-14.08-5.62,3.29-5.2-3.68-1.57-9.81s6.03-15.67,1.57-10.52-4.69-13.42-1.57-21.94-2.92-33.17-4.07-26.72Z"/>
      <g class="cls-4">
        <path class="cls-6" d="M81.41,207.76c-9.46,3.16-19.1,5.08-28.89,6.72-9.74,1.62-19.64,2.86-29.54,2.23-4.94-.35-9.95-.91-14.57-2.81-1.65-.77-3.8-1.71-4.17-3.75,0,0-.07-1.85-.07-1.85-.25-7.26-.83-15.02-.74-22.24.38-3.72.27-7.39.42-11.11.06-.72.01-1.48.28-2.21-.02-.02.21-.24.22-.22.31-.21.41-.67.48-1.04,0,0,0,.06,0,.06-.47-9.73-.92-19.46-.51-29.21.74-8.69,1.57-18.64,2.87-27.27.13-.65.57-1.22.9-1.75,3.63-5.4,7.67-10.55,12.11-15.29,4.89-5.4,9.36-11.23,14.59-16.38,2.55-2.51,6.5-.92,9.43-2.34.65-.26,1.64-.72,2.33-.87,2.48-.65,5.18-.64,7.55.45.49.27.61.35.78.32.62-.1,1.32-.98,2.17-1.03.55-.09,1.09.06,1.54.27.85.43,1.55,1.14,1.94,2,1.23,3.27.72,6.59.66,9.92-.17,3.25-.34,6.43.08,9.61.37,3.17,1.02,6.35,1.94,9.39,0,0-.18-.28-.18-.28-.16-.12-.11-.07-.16-.09,1.7-.26,2.83-1.56,4.45-2.27.65-.29,1.62-.65,2.1.22.18.51.04.8-.11,1.18-.59,1.29-1.81,2.25-3.34,2.19,0,0,.55-.24.55-.24-.23.29-.41.77-.37.88,2.91,1.06,4.91-3.34,5.79-5.54,0,0,.97-2.63.97-2.63.76,9.52,1.59,19.05,1.06,28.62-.33,4.32-.99,8.56-1.22,12.82-.56,8.56.55,17.12,2.91,25.35,1.69,6.2,3.67,12.43,4.23,18.88.42,4.62,1.12,14.63,1.51,19.32h0ZM81.31,207.69s-1.24-12.83-1.24-12.83c-.37-3.87-.8-8.99-1.7-12.7-1.86-8.38-5.09-16.47-6.07-25.07-.53-4.29-.69-8.62-.47-12.94.2-4.32.82-8.59,1.1-12.85.28-4.25.07-8.54-.13-12.82-.22-4.28-.54-8.56-.9-12.83,0,0,1.21.15,1.21.15-.99,2.41-2.18,5.09-4.68,6.26-2.28.9-4.73-.26-2.9-2.77,0,0,.19-.25.19-.25.44.04.92.02,1.36-.23.49-.24.87-.73,1.1-1.21.09-.14.06-.35.1-.16.03.15.25.19.21.19-1.93.44-3.59,2.64-5.8,2.58-.21-.07-.22,0-.48-.2-.17-.11-.13-.11-.18-.28-1.95-6.3-2.62-12.89-2.07-19.45.07-3.06.52-6.5-.52-9.35,0,0-.24-.46-.24-.46,0,0-.31-.36-.31-.36-.73-.68-1.55-1.15-2.51-.37-.33.2-.7.52-1.33.62-.51.1-1.11-.23-1.47-.45-2.81-1.28-6.21-.88-8.94.43-2.25,1-5.06.67-7.27,1.06-.53.08-1.01.35-1.42.66-5.42,5.11-9.95,11.1-15.02,16.61-4.45,4.71-8.46,9.79-12.08,15.13-.29.49-.68.9-.78,1.45-1.31,8.54-2.18,18.52-2.95,27.11-.44,9.7-.03,19.43.41,29.13-.03.38-.14.72-.32,1.06-.11.21-.29.43-.53.56-.05.06.11-.1.06-.05,0,0-.03.08-.04.13-.47,4.23-.13,8.65-.63,12.88-.11,7.14.4,15.02.63,22.2,0,0,.06,1.85.06,1.85.36,1.7,2.35,2.62,3.84,3.31,4.53,1.89,9.53,2.47,14.4,2.85,9.86.68,19.74-.51,29.47-2.07,9.72-1.56,19.48-3.52,28.84-6.52h0Z"/>
      </g>
      <path class="cls-7" d="M8.98,215.56c-5.13-1.76-3.82,9.11-1.77,8.67s2.41-4.81,14.53-4.03,19.94-2.85,14.36-2.57c-5.57.28-23.94-.98-27.12-2.07Z"/>
      <path class="cls-7" d="M64.79,212.12c-13.06,3.74-12.86,3.98-7.41,8.21s7.41-8.21,7.41-8.21Z"/>
      <path class="cls-1" d="M109.87,224.23c.35-3.69-1.05-4.18,0-6.97s-1.28-6.97.06-8.72,2.73-1.39,1.69-7.67,2.79-16.39,2.79-16.39l48.82,4.18s-2.79,9.76,0,12.55c2.79,2.79-.35,8.02,0,9.76s4.88,4.88,3.49,7.67,2.09.2,1.74,5.58"/>
      <path class="cls-7" d="M120.73,193.37c7.28,2.61,16.36,3.95,16.36,3.95,0,0-1.75,11.9-.95,18.04s-1.45,1.88-2.56-2.71-6.71-6.65-3.13-8.31-3.91-.42-1.06-2.94-8.67-8.04-8.67-8.04Z"/>
      <path class="cls-7" d="M116.63,193.37c2.44,6.82,12.5,28.98,11.37,29.11s-7.47-7.03-9.34-9.83,5.16-.49.75-6.85-2.78-12.43-2.78-12.43Z"/>
      <path class="cls-1" d="M160.89,57.32c5.13,4.33,13.96,13.16,14.92,20.06.96,6.9-.32,11.8,0,21.38s1.69,16.8.36,23.06-1.27,24.07-1.38,34.98-3.48,37.45-4.12,39.18-7.7,5.58-11.71,5.42c-4.01-.16-59.37-13.8-60.17-14.76s7.86-31.61,12.35-49.26c4.49-17.65,6.58-33.05,7.7-41.08,1.12-8.02.8-14.28,3.05-18.61,2.25-4.33,14.25-17.65,14.25-17.65"/>
      <path class="cls-7" d="M119.42,108.17c-1.77,2.1-7.48,44.16-18.51,76.31,1.85,3.45,16.3,4.79,23.26,7.03,6.96,2.24,12.68,3.58,12.68,3.58,0,0,5.48-15.8,5.82-25.14s.02-13.14,2.86-23,.74-12.56,0-17.59-1.82-13.01-1.84-19.1,2.03-25.01,0-23.27-1.35,14.8-3.59,23.27-9.82,17.39-6.59,18.42,6.36-11.02,7.71-8.47-2.45,15.07-1.11,14.97,5.96-5.48,4.32,1.02-.92,13.51-1.75,17.02-3.45,11.74-3.69,16.73,3.97,17.08-2.83,17.53c-6.81.45-21.63,2.02-20.04-5.37s-12.39,3.62-4.17-9.27.51-12.15-2.47-9.27,18.44-32.5,12.66-31.16c-5.78,1.34-.95-26.33-2.72-24.23Z"/>
      <path class="cls-1" d="M147.52,115.98c0,5-1.5,13.34,0,15.34s2.5,5.5,1.5,7.67-4.83,14-4.5,21.17.5,9.67-2.83,22c-3.33,12.33-4.67,14.03-5.17,18.02s-.5,15.99,0,17.16,2.46.67,2.46.67c0,0,.54,2.5,2.04,2.83,1.5.33,2.5-1.65,2.5-1.65,0,0,3.44,1.04,4.15-.7s-2.61-6.09-.87-7.12.87,3.48,1.66,4.83,2.53.16,2.45-1.42-.79-5.46,0-10.13-.64-10.28.71-15.62,9.26-22.99,10.05-30.9,3.32-17.49,3.96-20.73-.16-11.08,3.32-21.76"/>
      <path class="cls-7" d="M165.24,117.77c0-2.01-14.51-.55-16.42,3.66s2.69,14.11,2.24,17.02-5.54,8.86-4.9,18.87-.7,21.56-4.51,31.35-4.64,14.85-4.56,20.04.57-8.08,6.59-19.69c6.03-11.61,4.46-26.39,6.25-34.89s6.43-21.05,4.22-27.54,11.08-6.8,11.08-8.81Z"/>
      <path class="cls-1" d="M144.81,84.05c1.35,8.31.56,34.92,1.01,36.16s3.93-4.12,13.36-4.59c9.43-.47,9.78,5.6,9.77,6.94s5.72-20.32,5.83-24.03-1.57-13.81-1.01-16.62"/>
      <path class="cls-1" d="M136.93,63.71c-2.44,2.33-4.1,5.54-3.65,8.64,0,0,12.29-11.18,17.5-13.29,5.2-2.1,9.69-2.13,10.68-1.26s-3.93-2.29-5.37-6.94c-1.44-4.65-4.21-7.53-1.77-13.51s4.43-7.53,4.21-17.16-5.16-15.61-13.71-16.83c-8.55-1.22-8.88,1.33-11.1.89s-2.99.22-4.21,1.33-2.55,2.55-1,3.65c0,0-4.54,6.87-5.65,7.97s-1.66,3.32-1,4.98-.89,3.1-2.44,4.32-4.43,4.43-2.88,5.2c1.55.78,3.1,1.33,3.1,1.33,0,0-.66,1.99-.44,2.77s1.91.82,1.91.82c0,0,.53,1.29-.58,1.62s-1.11,1.66.11,2.33c1.22.66-1.22,4.43-.11,6.53,1.11,2.1,8.31,1.66,10.85,3.1s1,5.05,1.66,7.12,1.91,1.81,2.56,3.32,1.31,3.06,1.31,3.06Z"/>
      <path class="cls-7" d="M129.19,49.45c.87.2,6.81-3.78,8.06-6.56,1-2.21-1.22-2.72-.78-10.28.44-7.55,3.27-9.92,6.18-10.2,2.91-.29,7.88,4.63,6.89,11.5-.67,4.59,1.97,7,3.8,8.09-.03-1.36.23-2.87.96-4.65,2.44-5.98,4.43-7.53,4.21-17.16-.22-9.63-5.16-15.61-13.71-16.83-8.55-1.22-8.88,1.33-11.1.89-2.21-.44-2.99.22-4.21,1.33s-2.55,2.55-1,3.65c0,0-.02.03-.05.08,1.76.23,3.81.35,5.81.48,3.17.19,1.77,2.1-.89,4.76-2.66,2.66-1.44,3.32.89,5.87s0,12.63-1,14.41c-1,1.79-6.2,1.43-6.31,4.08-.11,2.66-1.99,5.32-4.1,4.87-1.5-.32-2.49.95-2.61,2.1.02.44.1.86.29,1.22,1.16,1.45,5.57,1.65,8.66,2.35Z"/>
      <path class="cls-7" d="M24.14,94.27c4.9-5.65,10.36-12.09,11.96-12.98,2.21-1.22,5.2-.01,8.87-1.7,3.67-1.69,7.62-1.02,9.24,0,1.62,1.02,2.3-2.38,5.02,0,2.72,2.38.81,11.75,1.22,18.14s2.17,11.81,2.17,11.81c0,0,.58.51,3.41-1.38,2.83-1.88,3.38-1.23,2.43.21s-2.43,1.3-2.43,1.3c0,0-1.78,2.31,1.34,2.04,3.12-.27,5.16-6.11,5.16-6.11,0,0,.31,3.58.61,8.3,0,0,1.3-1.65,1.84-5.74.54-4.09-3.12-19.81-7.2-29.61-4.07-9.8-4.48-20.76-7.2-29.35-2.72-8.6-5.02-16.53-18.04-17.75-13.01-1.22-17.81,4.48-18.36,6.12s-.95,1.89-.68,4.2,2.85,4.03,2.85,4.03c0,0-1.36,10.37,1.22,14.21,2.58,3.84,4.07,8.79,3.94,11.21s-1.36,1.65-1.36,1.65c0,0,2.44-.68,1.36.68s-1.22,4.8-1.22,4.8c1.36-2.26,2.72-3.04,2.31.2s-2.85,7.08-6.25,10.07c-3.4,2.99-9.23.54-8.42,1.49s2.34,1.49,2.34,1.49l-.58,1.22h1.77l-1.19,1.09s3.47.79,7.03,0l-3.17.35Z"/>
      <path class="cls-7" d="M57.38,80.01c-5.94-1.44-8.55-.81-15.91,1.9s6.35.1,10.26,0,8.15-.53,5.65,7.37,3.2,25.41,4.22,22.83-3.45-11.93-2.52-20.61.14-11.05-1.7-11.5Z"/>
      <path class="cls-1" d="M20.28,115.62c.48,2.49,0,28.68,0,28.68,0,0,12.86-1.93,17.14-.73s14.52,3.38,14.52,3.38c0,0,3.33-15.27,1.9-18.84s-2.62-8.09-1.19-7.62,1.55-16.65,1.55-16.65"/>
      <path class="cls-7" d="M25.28,102.27c-3.87,13.72-4.23,42.57-2.69,41.3s3.66-2.89,10.46-2.5c6.79.39,2.59-2.36,1.06-15.56s.84-21.19-1.49-19.5-.6,29.36-2.36,31.41-4.33,1.25-4.97-11.55,1.66-29.49,0-23.6Z"/>
      <g class="cls-4">
        <path class="cls-6" d="M163.29,188.68c-.74,3.73-1.81,8-.28,11.61.19.36.4.54.68.89,1.54,1.65,1.21,4.19.78,6.11,0,0-.55,2.33-.55,2.33-.14.74-.28,1.2.19,1.85,1.33,1.95,4.34,4.45,3.11,7.28-.13.34-.33.61-.37.91,0,.08-.05.06.06.16.2.17.69.39,1,.74.91,1.01.77,2.48.6,3.67,0,0-.12,0-.12,0-.1-1.11-.13-2.37-.97-3.14-.39-.34-1.55-.58-1.5-1.4-.02-.71.41-1.18.48-1.81.06-2.7-3-4.18-3.76-6.79-.15-1.16.6-2.95.86-4.04.38-1.5.68-3.09.16-4.45-.27-.73-.95-1.28-1.29-1.96-1.06-2.3-.65-4.9-.31-7.29.27-1.59.64-3.15,1.1-4.69l.12.03h0Z"/>
      </g>
      <g class="cls-4">
        <path class="cls-6" d="M109.81,224.22c.22-1.77-.39-3.34-.52-5.1-.03-.88.32-1.7.51-2.54.46-2.62-1.17-5.06-.5-7.72.29-.84,1.15-1.44,1.63-2.1.43-.58.54-1.35.54-2.17,0-1.18-.24-2.54-.45-3.72-.82-5.64,1.04-11.35,3.32-16.42,0,0,.12.04.12.04-1.26,5.33-2.76,10.72-2.28,16.19.16,1.28.34,2.63.29,3.93-.03.88-.19,1.9-.82,2.69-.51.67-1.29,1.14-1.6,1.84-.61,2.38.84,5.06.23,7.53-.21.81-.61,1.59-.62,2.45.05,1.65.58,3.41.27,5.1,0,0-.12-.01-.12-.01h0Z"/>
      </g>
      <g class="cls-4">
        <path class="cls-6" d="M115.51,189c3.33,12.22,9.96,23.21,13.94,35.21,0,0-.11.05-.11.05-3.26-5.45-5.81-11.26-8.05-17.19-1.16-2.95-2.27-5.91-3.32-8.9-1.01-3-2-6.02-2.58-9.15l.12-.02h0Z"/>
      </g>
      <g class="cls-4">
        <path class="cls-6" d="M114.12,195.98c.25,3.29,2.6,5.87,4.43,8.46.66,1.01,2.82,3.46.7,4.09-1.81.28-3.69.36-5.34.93-.71.24-1.34.69-1.23,1.06.33,1.23,2.06,2.18,3.05,3.09,3.1,2.67,5.98,5.6,8.48,8.84,0,0-.09.08-.09.08-2.5-2.11-4.89-4.3-7.38-6.36-1.41-1.55-6.15-3.99-4.97-6.46,1.54-1.89,4.62-1.58,6.74-1.88.42-.02.8-.07.84-.19.17-.87-.87-2.03-1.32-2.84-1.71-2.7-3.97-5.47-4.05-8.81,0,0,.13,0,.13,0h0Z"/>
      </g>
      <g class="cls-4">
        <path class="cls-6" d="M122.48,195.96c2.11,4.31,4.15,8.65,6.14,13.02,1.54,3.25,3.05,6.53,4.11,9.98.35,1.16.75,2.28.92,3.53,0,0-.13,0-.12,0-2.2-4.23-4.19-8.62-5.82-13.12,0,0-5.33-13.36-5.33-13.36,0,0,.11-.05.11-.05h0Z"/>
      </g>
      <g class="cls-4">
        <path class="cls-6" d="M128.07,195.97c1.72,4.81,5.62,8.41,7.31,13.23,0,0-.1.07-.1.07-1.99-1.7-3.34-3.87-4.46-6.19-1.16-2.27-2.35-4.57-2.88-7.08,0,0,.12-.03.12-.03h0Z"/>
      </g>
      <g class="cls-4">
        <path class="cls-6" d="M131.73,195.97c.45.86,1,1.61,1.68,2.19.82.56,1.41,1.02,1.95,1.96,0,0-.04.12-.04.12-1.16.23-2.12-.46-2.65-1.41-.6-.85-.96-1.84-1.05-2.82l.12-.03h0Z"/>
      </g>
      <g class="cls-4">
        <path class="cls-6" d="M152.13,204.33c.95,2.09,3.32,2.71,4.16,4.85,0,0-.07.1-.07.1-1.26-.09-2.14-.86-2.78-1.86-.67-.9-1.28-1.93-1.43-3.05l.12-.03h0Z"/>
      </g>
      <g class="cls-4">
        <path class="cls-6" d="M154.22,215.85c1.8,2.59,5.18,3.67,6.61,6.59,0,0-.08.1-.08.1-1.62-.48-2.8-1.54-3.83-2.8-1.04-1.21-2.26-2.32-2.81-3.86,0,0,.12-.03.12-.03h0Z"/>
      </g>
      <g class="cls-4">
        <path class="cls-6" d="M147.59,115.98c.13,4.92-1.33,10.01-.19,14.84,1.52,2.25,2.77,5.16,1.9,7.91-2.02,5.14-3.38,10.55-4.2,16-.77,4.37.15,8.78-.22,13.26-.9,8.88-3.7,17.38-6.3,25.87-1.64,4.19-2.01,8.49-1.98,12.94-.02,3.28-.08,6.64.26,9.89.04,1.12,1.21.99,2.01.84,0,0,.46-.1.46-.1l.11.45c.64,2.65,2.44,3.59,3.85.71,1.09.31,2.7.68,3.67.04.76-.73,0-2.13-.29-3.05-.56-1.45-1.91-4.5.56-4.91.46-.07.89.37,1.02.73.63,1.52,0,3.37.86,4.68.5.38,1.07-.32,1.21-.87-.08-3.06-.64-6.4-.15-9.55,1.14-6.15-.92-13.05,1.61-19.23,2.86-8.28,6.74-16.96,8.84-25.43.94-5.04,1.42-10.19,2.68-15.18.49-2.41,2.31-8.8,2.28-11.27.28-6.39,1.2-12.94,3.32-18.97,0,0,.12.04.12.04-1.96,6.09-2.61,12.61-2.78,18.97.06,2.51-1.58,8.86-2.07,11.42-.75,3.77-1.47,7.54-1.88,11.36-1.06,8.8-5.07,17.54-8.04,25.84-.87,2.41-1.85,4.81-2.28,7.23-.42,2.46-.34,5-.24,7.57.14,2.55.11,5.25-.36,7.79-.32,2.5-.25,5.02.01,7.56.23,1.35.21,3.38-1.61,3.89-3.01.33-1.83-3.9-2.55-5.53,0,0-.02-.04,0,0,.03,0,.04,0,.03.01.03-.04-.12.05-.18.07-.04.06-.13.08-.15.16-.37,1.57,1.07,3.52,1.29,5.18.47,1.9-1.09,2.96-2.79,2.8-.7-.03-1.35-.14-2.03-.33,0,0,.57-.24.57-.24-1.83,3.31-4.76,2-5.43-1.3,0,0,.57.35.57.35-1.26.33-3.09.03-3.14-1.6-.43-5.59-.31-11.13.17-16.72.27-2.26,1.05-4.39,1.74-6.48,1.41-4.2,2.66-8.44,3.81-12.72,1.13-4.27,2.27-8.57,2.64-12.96.37-4.41-.45-8.89.33-13.28.87-5.48,2.28-10.91,4.35-16.05.68-2.06.03-4.4-.96-6.28-.6-.9-1.21-1.94-1.21-3.09-.29-4.45.61-8.84.64-13.29,0,0,.13,0,.13,0h0Z"/>
      </g>
      <g class="cls-4">
        <path class="cls-6" d="M144.87,84.04c1.41,11.43.88,23.21,1.21,34.72.01.31.06,1.04.09,1.31,0-.03-.04-.04-.06-.05-.12-.03-.02,0,.08-.07.81-.45,1.58-1.07,2.39-1.55,5.89-3.81,19.67-6.25,20.94,3.46,0,.09.05.57.03.67,0,.05,0-.02,0-.04-.06-.12.12.19-.14-.29-.52-.35-.64-.12-.75-.1-.19.15-.15.16-.17.17,1.44-4.62,2.59-9.54,3.8-14.28.98-4.24,2.43-8.47,1.91-12.86-.19-3.85-1.03-9.44-.48-13.24,0,0,.12.02.12.02-.17,2.18.18,4.38.43,6.56.42,4.38,1.6,8.92.58,13.29-1.4,7.1-3.02,14.1-5.27,20.99-.1.17-.03.14-.27.35-.13.04-.26.28-.79-.1-.28-.49-.09-.2-.16-.34-.2-9.43-13.96-7.04-19.36-3.58-.68.41-1.41.91-2.09,1.34-.37.21-.89.57-1.35.09-.29-.46-.17-1.24-.23-1.75-.05-11.44.36-23.56-.47-34.74h0Z"/>
      </g>
      <g class="cls-4">
        <path class="cls-6" d="M146.22,73.17c-.98,4.24-2.72,8.36-2.94,12.73-.2,4.37.73,8.54,1.59,12.83,0,0-.12.04-.12.04-4.93-8.73-2.1-17.27,1.47-25.61h0Z"/>
      </g>
      <g class="cls-4">
        <path class="cls-6" d="M143.68,157.1c-6.68-1.08-12.94-3.88-19.45-5.67-2.15-.61-4.34-1.27-6.5-1.46l.34-.23c-3.51,10.79-7.65,21.56-10.04,32.64,0,0-.01.2-.01.2,0,.03.01,0,0,.02,0,0,0-.06-.03-.06.28.18.58.32.94.47,6.93,2.63,20.23,5.1,27.2,7.32-9.31-1.62-18.7-3.11-27.69-6.12-.55-.23-1.35-.52-1.62-1.14-.22-.97.17-1.98.34-2.87,2.9-10.44,6.68-20.5,10.27-30.7,0,0,.09-.26.09-.26,0,0,.25.03.25.03,8.89,1.48,17.35,5.92,25.92,7.82h0Z"/>
      </g>
      <g class="cls-4">
        <path class="cls-6" d="M140.08,197.39c-10.37-2.36-21.87-5.22-32.25-7.83-2.25-.61-6.53-1.67-8.68-2.42-.21-.1-.43-.12-.6-.33-.25-.59,0-1.21.04-1.77,4.36-20.72,11.84-43.65,15.7-64.47,1.76-9.02,3.14-18.14,4.35-27.25.8-5.46.39-11.38,3.18-16.35,1-1.61,2.15-3.05,3.3-4.5,3.48-4.31,7.22-8.4,10.98-12.46-4.21,5.62-9.74,11.24-13.53,17.4-2.52,4.79-2.1,10.71-2.78,16.04-1.05,9.18-2.55,18.29-4.3,27.36-4.1,20.77-11.75,43.67-16.29,64.33-.07.44-.16.92-.15,1.3,0,.02.02.08-.01.02,0-.02,0-.02.02,0,.1.04.18.08.29.12,0,0,.64.22.64.22,12.88,3.92,27.37,7.06,40.09,10.59h0Z"/>
      </g>
      <g class="cls-4">
        <path class="cls-6" d="M160.93,57.27c4.99,4.27,9.74,8.98,13.08,14.68,1.74,2.87,2.33,6.24,2.39,9.54.12,3.31-.14,6.59-.24,9.87-.3,6.56.34,13.08.83,19.65.21,3.28.35,6.62-.19,9.93-.67,3.22-.84,6.46-1.02,9.74-.47,9.85-.14,19.7-.48,29.56-.52,9.87-1.74,19.67-3.15,29.44-.33,2.05-.6,4.09-1.07,6.12-.03.11-.05.21-.09.32l-.18.33c-1.79,2.1-4.48,3.15-6.98,4.12-1.56.54-3.19.96-4.86.9,0,0,0-.13,0-.12,3.26-.12,6.34-1.64,9.05-3.35.82-.56,1.66-1.11,2.22-1.91,0,0,.11-.21.11-.21.03-.08.04-.18.07-.27.39-1.98.61-4.03.87-6.04,1.16-9.76,2.2-19.57,2.77-29.38.3-9.83.14-19.71.72-29.55.2-3.27.42-6.62,1.12-9.84.55-3.18.45-6.47.27-9.73-.42-6.53-1-13.13-.64-19.72.14-3.29.44-6.56.37-9.83.33-6.76-3.65-12.48-8.02-17.27-2.19-2.44-4.55-4.73-7.04-6.87l.08-.1h0Z"/>
      </g>
      <g class="cls-4">
        <path class="cls-6" d="M136.99,63.72c-2.28,2.25-4.06,5.33-3.61,8.61,0,0-.18-.07-.18-.07,3.67-3.32,7.43-6.56,11.38-9.55,3.88-3.11,8.53-5.41,13.59-5.69,1.18-.01,2.59-.15,3.56.67,0,0,.03.03.03.03.01.02,0-.02.06.1,0,.1.15.17-.19.38-.29,0-.11-.01-.19-.02-.09-.04-.1-.05-.15-.08-3.22-2.17-5.15-5.53-6.25-9.16-.94-2.29-2.09-4.65-2.04-7.21.11-5.06,3.86-9.18,4.63-14.07.73-4.73.81-9.88-.79-14.44-2.54-7.49-10.22-10.1-17.57-9.58-2.02-.03-3.56,1.35-5.53,1.19-.64-.11-1.16-.18-1.68-.11-1.09.14-1.92,1.09-2.7,1.83-.4.41-.77.87-.9,1.27-.25.53.48.96.87,1.29-1.9,2.81-3.7,5.65-5.83,8.31-.48.49-.7.81-.95,1.39-.42,1.05-.5,2.21-.08,3.26.29.76.16,1.69-.21,2.33-1.47,2.45-4.47,3.56-5.49,6.3-.09.34-.1.4.09.49,1.12.56,2.35,1.08,3.52,1.5-.27.93-.76,2.05-.61,3,.42.36,1.18.37,1.74.41.22.64.44,1.21.08,1.95-.23.49-.73.61-1.15.81-.49.32-.03,1.06.56,1.34.4.26.52.87.49,1.24-.19,2.49-2.33,5.85,1.38,6.55,2.28.62,4.77.73,7.1,1.33.78.22,1.64.49,2.28,1.15.64.66.87,1.57.92,2.39.08,2.33-.72,5.03,1.63,6.51.68.5.99,1.34,1.28,2.1,0,0,.91,2.25.91,2.25h0ZM136.86,63.69l-.99-2.18c-.32-.72-.59-1.45-1.26-1.92-4.22-2.46.64-8.58-4.8-9.63-2.36-.55-4.75-.58-7.15-1.17-.79-.23-1.66-.44-2.35-1.23-1.27-2.01.04-4.13.19-6.16,0-.2,0-.32-.09-.4-.53-.3-.99-.72-1.16-1.39-.21-.71.24-1.57.95-1.81.13-.06.41-.12.45-.27.08-.11.06-.47-.04-.71l.49.34c-.89-.06-2.09-.2-2.44-1.22-.2-1.1.16-2.08.43-3.1,0,0,.36.74.36.74-1.05-.38-2.13-.83-3.13-1.31-2.84-1.75,2.37-5.98,3.78-7.16.88-.8,1.56-1.79,1.21-2.64-.65-1.66-.37-3.63.61-5.1,2.25-2.67,4.12-5.59,6.07-8.49,0,0,.16.85.16.85-1.68-1.13-.82-2.98.35-4.04.98-.93,1.97-1.97,3.41-2.14.71-.09,1.43.03,2.01.13.48.08.93-.04,1.51-.26,1.15-.47,2.48-.81,3.75-.89,11.77-.72,19.76,5.72,19.77,17.8.24,4.99-.72,10.12-3.13,14.51-2.75,5.32-2.71,8.47-.17,13.86,1.03,3.5,2.87,6.84,5.94,8.94.02.01.07.04.06.03-.06,0,.13,0-.14,0-.31.21-.16.26-.18.34.05.1.03.05.03.06-.35-.34-.86-.41-1.34-.49-3.04-.29-6.09.52-8.94,1.59-6.69,3.26-12.23,8.6-17.88,13.39-.53-3.34,1.3-6.66,3.67-8.87h0Z"/>
      </g>
      <path class="cls-2" d="M120.98,32.59c1.55.33,1.11-3.1,1.11-3.1"/>
      <path class="cls-2" d="M122.86,20.41c2.44-.11,4.1,2.44,4.1,2.44"/>
      <g class="cls-4">
        <path class="cls-6" d="M139.98,24.69c1.38-2.32,5.43-4.65,7.23-1.49.84,1.55,1.19,3.28,1.38,5.01.09,1.25.21,2.4-.36,3.64-.78,1.74-8.11,5.25-9.44,3.64,0,0,.11-.05.11-.05.16.17.44.14.69.1.79-.18,1.55-.52,2.28-.88,1.78-.96,3.93-1.94,5.28-3.42.81-1.86.4-4.25-.03-6.2-.51-2.52-2.15-3.56-4.52-2.39-.98.47-1.81,1.25-2.52,2.11l-.1-.07h0Z"/>
      </g>
      <g class="cls-4">
        <path class="cls-6" d="M142.71,25.21c-.53.94-.7,2.42.06,3.19.07.05.31.15.54.35.29.2.35.73.03.96-.47.3-.75.25-1.2.33-.12.03-.53.04-.59.08-.33.38-.35,1.01-.58,1.58-.14.42-.5,1.11-1.05.98,0,0,0-.13,0-.13.34-.25.18-.62.2-.99-.15-1.15.09-2.92,1.7-2.66.27.03.62.05.87.04.07,0,.18-.04.09.02-.1.06-.15.31-.1.39.02.05.04.06.03.06,0,0,.01,0,0-.01-1.45-.94-1.11-3.17-.07-4.26,0,0,.1.08.1.08h0Z"/>
      </g>
      <path class="cls-2" d="M125.74,37.68c.55,1.66,0,2.44,0,2.44"/>
      <path class="cls-2" d="M119.4,33.91c-.74,1.11.92,1.85,2.75,1.81,1.82-.03-2.75-1.81-2.75-1.81Z"/>
      <g class="cls-4">
        <path class="cls-6" d="M156.19,48.38c-3.43,3.04-5.97,7.12-8.81,10.71-.05.07-8.26,11.26-8.3,11.32-1.41.86-3.58,1.7-3.9,3.44,0,.41.22.31.4.14.79-.92,1.58-1.84,2.48-2.65.15-.12.4-.36.7-.4,1.33.18-.02,1.78-.41,2.28-1.29,1.63-2.83,3.1-4.05,4.74-.07.09.05.41.16.46.08.05.16.07.35,0,1.17-.81,1.94-2.22,2.82-3.39,1.23-1.84,2.41-3.62,3.2-5.7.74-1.49,1.79-2.77,2.78-4.05,2.78-3.49,7.19-8.01,10.29-11.29.81-.95,5.28-5.52,2.3-5.62h0ZM156.19,48.25c3.33.11-1.22,4.93-1.96,6.03,0,0-4.87,5.87-4.87,5.87-2.51,3.17-5.37,6.19-7.35,9.71-.81,2.13-2.1,4.02-3.38,5.86-1.03,1.28-1.87,2.88-3.39,3.72-.94.47-2.12-.36-2.03-1.45,0-.23.11-.52.27-.71,1.54-2.02,3.54-3.6,4.9-5.72.03-.04.05-.11.05-.11.03,0-.07.02.12.28.12.1.23.12.3.11.02,0,.07-.02.07-.01,0,0-.16.1-.26.19-.99.82-1.77,1.89-2.7,2.75-.73.5-1.67-.09-1.58-.96.31-2.19,2.67-3.05,4.32-4.02,3.37-4.73,8.75-11.31,12.8-16.37,0,0,2.22-2.69,2.22-2.69.81-.85,1.45-1.91,2.49-2.49h0Z"/>
      </g>
      <g class="cls-4">
        <path class="cls-6" d="M136.71,63.15c-3.98,4.03-7.29,8.68-10.38,13.41-3,4.73-5.91,9.69-7.45,15.09,0,0-.1.34-.1.34s-.36,0-.36,0c-.4,0-1.44.02-1.83.02,0,0,.19-.63.19-.63,3.82-12,11.09-22.92,20.91-30.83,0,0,.08.09.08.09-2.17,2.25-4.34,4.49-6.26,6.93-5.79,7.22-10.72,15.34-13.79,24.08,0,0-.47-.62-.47-.62,0,0,1.17.01,1.17.01l-.46.35c1.7-5.5,4.7-10.42,7.87-15.16,1.6-2.35,3.29-4.64,5.07-6.85,1.79-2.21,3.64-4.37,5.71-6.32,0,0,.09.09.09.09h0Z"/>
      </g>
      <g class="cls-4">
        <path class="cls-6" d="M134.84,73.64c-5.48,4.45-17,15.99-16.94,23.22,0,0-.49-.42-.49-.42l1.01-.02-.51.51c.89-6.37,5.17-11.32,9.47-15.73,2.63-2.57,5.49-4.88,8.49-7,0,0,.08.1.08.1-.88.85-1.78,1.66-2.67,2.5-1.32,1.25-3.89,3.82-5.13,5.14-3.78,4.39-8.14,9.16-9.21,15,0,0-.05.52-.05.52h-.47c-.28-.02-1.18-.02-1.46-.03-.94-7.04,12.4-20.3,17.87-23.79h0Z"/>
      </g>
      <g class="cls-4">
        <path class="cls-6" d="M117.68,91.58c-2.96-.12-4.02,8.38-.7,8.01,2.37-.47,4.38-8.14.7-8.01h0ZM117.68,91.45c4.94-.06,3.44,8.52-.55,9.12-4.64.2-3.1-8.75.55-9.12h0Z"/>
      </g>
      <g class="cls-4">
        <path class="cls-6" d="M135.16,77.29c-1.56,3.68-10.59,27.92-15.62,24.15-.87-.77-1.17-1.94-1.43-2.98,0,0,.73.28.73.28l-1.14.84.2-.45c.25,2.12,2.3,3.59,4.3,2.49,3.07-2.09,4.77-5.77,6.62-8.92,3.04-5.28,5.47-11.65,8.09-16.62-2.03,6.24-8.77,25.58-15.47,26.96-2.5.43-4.38-1.72-4.54-4.08.51-.36,1.48-1.04,1.98-1.4.18.83.36,1.79.73,2.52,2.03,3.98,7.43-6.41,8.43-8.08,2.6-4.78,4.89-9.74,7.01-14.77,0,0,.12.05.12.05h0Z"/>
      </g>
      <g class="cls-4">
        <path class="cls-6" d="M117.3,97.4c-.8.42-.45,1.66.51.9.27-.22.19-.29.23-.46.13-.33-.39-.64-.73-.43h0ZM117.23,97.3c.45-.46,1.39-.84,1.89-.07.54.77-.13,1.75-.86,1.96-1.67.67-2.69-.87-1.03-1.89h0Z"/>
      </g>
      <g class="cls-4">
        <path class="cls-6" d="M120.76,98.85c-.81.42-.45,1.66.51.9.27-.22.19-.29.23-.46.13-.33-.39-.64-.73-.43h0ZM120.69,98.74c1.72-1.65,3.11,1.13,1.03,1.89-1.67.67-2.69-.87-1.03-1.89h0Z"/>
      </g>
      <g class="cls-4">
        <path class="cls-6" d="M118.6,98.31c.58.31,1.36.55,1.92.17,0,0,.5-.54.5-.54l.1.86c.02.18.16,1.41.18,1.55-.62.53-1.43.7-2.18.48-.55-.16-1.06-.42-1.48-.87l.03-.12c.94-.23,1.7-.25,2.59-.18,0,0,.13,0,.13,0,.02,0,.1-.03.02.03l-.2.42.15-1.3.59.32c-.88.41-1.83-.08-2.41-.71,0,0,.08-.1.08-.1h0Z"/>
      </g>
      <path class="cls-2" d="M123.28,24.36s1.99.17,2.7,1.19h-2.3"/>
      <g class="cls-4">
        <path class="cls-6" d="M20.35,115.61c.36,4.14.28,10.14.32,14.35,0,4.78,0,9.56-.05,14.35l-.38-.33c5.34-.71,10.72-1.55,16.12-1.06,1.21.19,2.77.64,3.96.92,0,0,3.91.9,3.91.9,2.61.57,5.23,1.13,7.85,1.67,0,0-.68.44-.68.44,1.01-5.37,2.11-10.85,2.18-16.31,0-.87-.09-1.72-.4-2.51-.5-1.51-3.21-8.42-.44-8.01-.05-.02-.21.07-.19.07.63-1.51.69-3.51.9-5.17.33-3.67.53-7.36.72-11.05,0,0,.13,0,.12,0,.11,4.63.15,9.27-.26,13.89-.15,1.02-.14,1.98-.68,2.92-.1.15-.36.35-.61.34-.1,0-.26-.05-.23-.03-.05-.02-.01.01.05-.02-.04,2.11,1.04,4.8,1.88,6.94.79,2.67.29,5.54.05,8.22-.5,3.89-1.24,7.71-2.09,11.53-3.98-.87-8.33-1.91-12.31-2.89-1.1-.3-2.77-.77-3.85-.96-5.4-.56-10.91.23-16.28.89.22-8.39.46-20.99.4-29.07h0Z"/>
      </g>
      <g class="cls-4">
        <path class="cls-6" d="M41.52,96.89c1.93,3.16,4.33,7.86,6.12,11.15,2.15,3.65,3.89,7.49,5.68,11.32,0,0-.09.08-.09.08-.82-.74-1.4-1.64-2.02-2.52-1.82-2.63-3.16-5.53-4.47-8.43-1.59-3.34-3.71-8.25-5.32-11.51,0,0,.09-.09.09-.09h0Z"/>
      </g>
      <g class="cls-4">
        <path class="cls-6" d="M37.31,107.17c-2.09,9.34-.28,19.1,1.47,28.35.21,1.16.75,3.48,1.06,4.62.42,1.53.9,3.02,1.69,4.41,0,0-.1.08-.1.08-1.65-1.83-2.46-4.21-3.21-6.5-1.21-3.83-1.74-7.9-2.07-11.87-.29-3.2-.43-6.41-.35-9.62.13-3.2.37-6.45,1.39-9.5,0,0,.12.04.12.04h0Z"/>
      </g>
      <g class="cls-4">
        <path class="cls-6" d="M20.33,144.25c1.05.77,2.51.85,3.78,1.07,4,.64,8.08.28,11.99,1.56,0,0,0,.12,0,.12-2.72.52-5.43.26-8.11-.27-2.6-.57-5.58-.72-7.75-2.41,0,0,.09-.08.09-.08h0Z"/>
      </g>
      <g class="cls-4">
        <path class="cls-6" d="M36.16,140.7c1.18,2.49,1.53,5.49.46,8.09-.37.85-.8,1.63-.99,2.54-.81,3.56-1.03,7.26-1.13,10.91-.02,1.83-.03,3.67.21,5.47.48,5.52-.73,11.03-1.28,16.51,0,0-1.51,10.92-1.51,10.92,0,0-.76,5.45-.76,5.45-.35,3.04-.9,6.39.45,9.22,1.68,1.68,2.17,4.11,3.38,5.96.49.77.84,1.32,1.78,1.63,1.44.61,3.53,1.75,5,2.17.39.13.89.17.78.09.16-.19.03-.44-.11-.62,0,0-1.28-1.48-1.28-1.48l1.83.69c2.69,1.08,5.7,1.12,1.82-1.61,0,0-2.09-1.36-2.09-1.36,0,0,2.47.38,2.47.38,1.28.19,2.9.43,4,.19-.06.05-.05.15-.05.08.01-.48-.41-.99-.78-1.41,0,0,.52-.96.52-.96-.09,0,.08-.02.15-.26.05-.11.08-.25.1-.39.1-.68-.74-1.13-1.3-1.33-1.26-1.25-3.15-2.59-3.36-4.61,0-.14,0-1.15,0-1.32-.18-2.77-.07-5.78-.96-8.41-.32-.74-.83-1.33-1.42-1.77,0,0,.1-.38.1-.38,2.17-8.81,4.37-17.64,6.12-26.54,1.84-8.82,2.34-18.31,3.48-27.01-.19,4.54-.46,9.09-.85,13.62-.66,9.08-2.38,18.08-4.38,26.95-.96,4.45-2.06,8.86-3.17,13.28l-.23-.66c1.33,1.08,1.88,2.7,2.06,4.27.32,2.68.51,5.32.48,8.02.36,1.41,1.72,2.5,2.82,3.58,0,0-.19-.11-.19-.11.43.17.76.36,1.11.64.76.54,1.08,1.72.64,2.6-.17.41-.6,1.04-1.45.94l.52-.96c.45.5.84.98,1.05,1.75.54,2.53-3.89,1.35-5.22,1.25,0,0,.38-.98.38-.98.94.68,1.94,1.34,2.29,2.56.32,1.82-1.95,1.81-3,1.51-.71-.16-1.37-.37-2.05-.63l.55-.79c.64.65.56,1.96-.41,2.25-1.4.11-2.66-.73-3.88-1.23-.53-.25-2.65-1.25-3.14-1.48-.69-.39-1.12-1.08-1.52-1.71-.97-1.62-1.59-3.41-2.44-4.94-1.55-1.51-1.7-3.22-1.79-5.25-.14-3.26.82-7.77,1.23-11.01,0,0,1.61-10.9,1.61-10.9.6-5.42,1.87-10.93,1.46-16.37-.23-1.85-.2-3.69-.16-5.54.14-3.68.4-7.37,1.26-10.96.46-1.78,1.63-3.31,1.66-5.2.15-1.82-.25-3.66-1.01-5.32,0,0,.11-.05.11-.05h0Z"/>
      </g>
      <g class="cls-4">
        <path class="cls-6" d="M47.29,146.96c.06.69-.4,1.34-.88,1.79-.25.23-.48.53-.83.58-.34.05-.7.04-1.09-.21-.09-.33.46-.82.59-.94.76-.38,1.49-.32,2.08-1.24,0,0,.12.02.12.02h0Z"/>
      </g>
      <g class="cls-4">
        <path class="cls-6" d="M42.47,210.07c1.35,2.46,4.21,2.48,6.29,4.01,0,0-.02.12-.02.12-1.41.46-2.84.03-3.94-.87-1.11-.79-2.11-1.88-2.45-3.22,0,0,.12-.04.12-.04h0Z"/>
      </g>
      <g class="cls-4">
        <path class="cls-6" d="M40.1,212.09c.7.91,1.39,1.81,2.25,2.41,1,.57,1.78.88,2.74,1.65,0,0-.01.12-.01.12-.61.28-1.27.26-1.88.09-1.72-.67-2.67-2.62-3.21-4.21,0,0,.11-.06.11-.06h0Z"/>
      </g>
      <g class="cls-4">
        <path class="cls-6" d="M36.43,214.11c1.66,2.27,4.62,2.44,6.39,4.56,0,0-.05.11-.05.11-1.48.1-2.73-.54-3.8-1.48-1.08-.84-2.13-1.85-2.65-3.13l.11-.06h0Z"/>
      </g>
      <g class="cls-4">
        <path class="cls-6" d="M34.17,145.62c-.13,2.98-1.12,5.83-1.44,8.79-.43,2.93-.72,5.88-.97,8.84-1.16,15.44-1.23,33.42-1.44,48.91,0,1.48.02,2.97.11,4.44,0,0-.12.02-.12.02-1.67-11.8-1.02-23.79-.46-35.64.53-11.8,1.55-24.07,4.31-35.36h0Z"/>
      </g>
      <g class="cls-4">
        <path class="cls-6" d="M69.93,110.27c.52,11.78,1.08,23.56,1.02,35.35-.07,2.6,0,5.24-.5,7.82-.1.29-.26.7-.3,1.01-.28,4.82.61,9.72.99,14.56,1.16,11.73,1.8,23.57,1.19,35.35,0,0-.13,0-.13,0-.32-11.33-1.34-23.88-2.3-35.24-.28-4.93-1.09-9.85-.7-14.82.05-.34.22-.79.34-1.1.51-2.48.49-5.05.59-7.59.35-11.7-.31-23.87-.21-35.34h0Z"/>
      </g>
      <g class="cls-4">
        <path class="cls-6" d="M63.92,180.46c.44-8.92,1.29-18.01.21-26.88-.13-.87-.41-1.59-.73-2.39-.02-.14-.08-.3.05-.57.25-.42.61-.38.93-.37.94.09,2.2.42,2.8-.32.36-.42.49-1.12.51-1.81-.05-5.98-.2-11.99-.12-17.99.11-6,.2-11.99.56-17.99h.12c.67,12,.66,24,.43,36.02-.01,1.92-1.14,3.49-3.27,3.13-.12,0-1.19-.19-1.29-.16-.07,0,.04,0,.09-.1,1.42,3.28.98,7.79,1.04,11.48-.18,6.01-.66,12-1.21,17.97,0,0-.12,0-.12,0h0Z"/>
      </g>
      <g class="cls-4">
        <path class="cls-6" d="M52.65,146.92c1.81-3.26,2.78-6.78,3.98-10.3.23-.58.42-1.27.93-1.76,2.47-1.72,3.79,7.19,3.75,8.7,0,0-.12.03-.12.03-.74-1.72-1.34-3.46-2-5.15-.33-.84-.64-1.69-1.02-2.44-.06-.17-.23-.29-.05-.22.05,0,.1,0,.15-.02-1.2,1.75-1.81,4.32-2.82,6.36-.78,1.69-1.65,3.34-2.69,4.88,0,0-.11-.07-.11-.07h0Z"/>
      </g>
      <g class="cls-4">
        <path class="cls-6" d="M58.75,106c1.01,5.68,2.3,14.08,3.51,18.99-.17-.14-.56-.05-.65.09-.16.23-.04.03-.05-.02.11-.4.84-4.3.95-4.8.58-2.73,1.17-5.45,1.96-8.15l.12.02c-.22,4.22-.71,8.37-1.67,12.49-.05.18-.16.63-.22.8-.06.12.03.1-.23.47-.16.22-.64.29-.87.07-.22-.18-.3-.44-.38-.66-1.35-6.36-1.82-12.85-2.59-19.28,0,0,.12-.02.12-.02h0Z"/>
      </g>
      <g class="cls-4">
        <path class="cls-6" d="M4.52,172.77c5.89,3.12,12.73,3.36,19.24,3.88,0,0,.02.36.02.36l.54,7.91c.39,5.27.63,10.56.56,15.85-.04,2.65-.12,5.29-.36,7.93,0,0-.12,0-.13,0,0,0-.5-7.91-.5-7.91-.51-7.9-.57-15.82-.93-23.73,0,0,.38.39.38.39-4.86-.45-9.76-1.03-14.43-2.54-1.56-.48-3.05-1.22-4.44-2.02l.04-.12h0Z"/>
      </g>
      <g class="cls-4">
        <path class="cls-6" d="M65.08,108.69c5.76-5.72,1.09-13.22-.4-19.69-.24-.99-.32-2.06-.23-3.09h.12c1.11,3.89,3.13,7.44,3.73,11.53.9,3.99.19,8.67-3.15,11.34,0,0-.08-.09-.08-.09h0Z"/>
      </g>
      <g class="cls-4">
        <path class="cls-6" d="M60.55,99.65c.38-5.26.6-10.83-.28-16.02-.59-4.02-2.7-7.54-3.47-11.53-.24-1.38-.13-2.78.11-4.11,0,0,.12.01.12.01.09,2.73.91,5.14,2.07,7.59,1.11,2.47,1.84,5.19,2.15,7.89.67,5.34.15,10.88-.59,16.18,0,0-.12-.01-.12-.01h0Z"/>
      </g>
      <g class="cls-4">
        <path class="cls-6" d="M55.08,42.31c1.85,12.84.1,26.21-11.16,34.28,0,0-.08-.09-.08-.09,10.27-11.47,11.85-19.44,11.24-34.19h0Z"/>
      </g>
      <g class="cls-4">
        <path class="cls-6" d="M55.09,56.11c.14,4.62,2.24,14.89-2.49,17.53-2.41,1.29-5.95,2.27-8.51,3.18-2.8.95-5.66,1.91-7.95,3.85,0,0-.09-.08-.09-.08,1.84-2.49,4.85-3.78,7.61-4.94,3.01-1.31,6.56-1.66,9.29-3.41,1.81-1.85,1.86-4.65,2.05-7.11.15-2.99.06-6-.04-9h.12Z"/>
      </g>
      <g class="cls-4">
        <path class="cls-6" d="M50.33,37.57c2.66,14.76-2.18,30.28-12.14,41.39,0,0-.1-.07-.1-.07,8.74-14.48,13.71-24.1,12.24-41.32h0Z"/>
      </g>
      <g class="cls-4">
        <path class="cls-6" d="M52.77,48.61c.22,8.75-4.39,22.31-11.25,27.98,0,0-.09-.09-.09-.09,2.95-4.15,5.22-8.66,7.4-13.24,2.16-4.74,3.42-9.7,3.93-14.66h0Z"/>
      </g>
      <g class="cls-4">
        <path class="cls-6" d="M45.78,49.21c-.14,5.03-.3,10.07-.93,15.1-.49,4.98-1.94,10.46-6.02,13.73,0,0-.09-.08-.09-.08,5.84-8.29,5.55-19.34,7.04-28.74h0Z"/>
      </g>
      <g class="cls-4">
        <path class="cls-6" d="M27.51,51.35c1.6,4.25,5.88,7.33,6.1,12.11.04,1.57-.25,3.11-.8,4.54l-.12-.02c-.21-2.97-.16-5.79-1.37-8.53-1.01-2.3-3.68-5.76-3.81-8.1h0Z"/>
      </g>
      <g class="cls-4">
        <path class="cls-6" d="M36.16,54.54c-.05,4.08-.12,8.15-.36,12.23-.05,4.09-.78,8.38-3.14,11.82,0,0-.12-.05-.12-.05,2.18-7.69,2.67-16.05,3.49-24,0,0,.12,0,.12,0h0Z"/>
      </g>
      <g class="cls-4">
        <path class="cls-6" d="M38.85,59.07c-.06,8.88-1.53,19.05-8.56,25.22,0,0-.09-.08-.09-.08,2.44-3.8,4.44-7.71,6.01-11.93,1.46-4.23,2.2-8.7,2.52-13.21,0,0,.13,0,.12,0h0Z"/>
      </g>
      <g class="cls-4">
        <path class="cls-6" d="M41.54,61.34c-.31,10.54-2.14,19.24-11.25,25.7,0,0-.09-.09-.09-.09,2.94-3.79,6.11-7.33,8.15-11.67,1.96-4.32,2.4-9.2,3.07-13.96h.12Z"/>
      </g>
      <g class="cls-4">
        <path class="cls-6" d="M43.86,79.96c2.44-1.3,5.18-2.14,7.49-3.64,2.3-1.58,3.83-3.66,5.53-5.88,0,0,.11.05.11.05-.47,2.9-2.49,5.45-5.13,6.69-2.57,1.38-5.34,1.91-7.95,2.9l-.05-.11h0Z"/>
      </g>
      <g class="cls-4">
        <path class="cls-6" d="M52.68,78.9c2.32-1.57,2.55-4.56,4.64-6.33,0,0,.12.05.12.05.12,1.49-.55,2.75-1.5,3.81-.86,1.07-1.88,2.12-3.2,2.59,0,0-.05-.11-.05-.11h0Z"/>
      </g>
      <g class="cls-4">
        <path class="cls-6" d="M57.44,55.16c-.48,4.46-.17,9,1.14,13.26,1.2,4.29,3.23,8.34,4.33,12.78,1.24,4.4.76,9.11.38,13.55-.32,4.45-.53,8.94-.08,13.39,0,0-.12.03-.12.03-1.16-4.39-1.16-8.98-1.05-13.49.23-4.44.97-8.87-.1-13.26-.94-4.33-2.86-8.45-3.96-12.85-1.17-4.38-1.31-9-.66-13.44,0,0,.12.02.12.02h0Z"/>
      </g>
      <g class="cls-4">
        <path class="cls-6" d="M66.47,83.81c1.19,7.62,7.62,15.9,2.42,23.37,0,0-.11-.05-.11-.05,1.05-3.89,1.15-7.68.27-11.59-.77-3.69-2.76-8.13-2.58-11.73h0Z"/>
      </g>
      <g class="cls-4">
        <path class="cls-6" d="M29.41,38.69c.21,3.36.46,6.79,1.65,9.95,1.42,3.07,2.43,6.58,2.04,10.04,0,0-.12.01-.12.01-.53-1.65-.91-3.3-1.4-4.89l-1.47-4.85c-1.01-3.34-.97-6.83-.82-10.26,0,0,.12,0,.12,0h0Z"/>
      </g>
      <g class="cls-4">
        <path class="cls-6" d="M24.39,41.11c-.34,3.4-1.91,6.72-1.51,10.14-.36,2.25-1.6,4.01-2.13,6.09-.07.4-.05.51.2.66.66.36,1.84.25,2.69.15,0,0,.08.46.08.46l.62,3.41-.3-.41c.51.25,1.92.94,2.41,1.18-.39.39-1.43,1.38-1.83,1.78,0,0,.18-.63.18-.63.27.91.53,1.82.76,2.74,0,0-.18.26-.18.26-.46.67-.74,1.6-.51,2.33,0,.58,1.18.79,2.1.92,1.97.26,4.02.22,6.06.21v.12c-2.51.46-5.17.94-7.76.39-2.14-.44-2-3.31-.91-4.74,0,0-.1.55-.1.55-.24-.81-.46-1.63-.67-2.45l-.1-.38.27-.25,1.24-1.13.14.98c-.18-.1-1.74-.96-1.87-1.03,0,0-.04-.27-.04-.27l-.47-3.43.54.41c-.99.05-1.88.1-2.82-.42-1.08-.62-.46-2.03-.09-2.87.67-1.59,1.57-3.12,1.89-4.7,0-.87-.13-1.73.12-2.57.56-2.53,1.42-4.97,1.87-7.52,0,0,.12.02.12.02h0Z"/>
      </g>
      <line class="cls-2" x1="23.65" y1="53.03" x2="25.28" y2="53.74"/>
      <line class="cls-2" x1="23.65" y1="49.79" x2="26.66" y2="51.37"/>
      <g class="cls-4">
        <path class="cls-6" d="M9.01,117.36c2.71,1,5.77.82,8.14,2.58,0,0-.03.12-.03.12-1.52.35-2.92-.05-4.27-.69-1.34-.54-2.66-1.15-3.89-1.9l.05-.11h0Z"/>
      </g>
      <g class="cls-4">
        <path class="cls-6" d="M20.29,124c-1.15.32-1.68.67-1.2,1.76,0,0,.38.94.38.94.56,1.36.68,2.79.02,4.16,0,0-.12,0-.12,0-.68-1.27-.76-2.55-.86-3.9-.19-.85-.71-2.69.72-2.97.36-.1.7-.12,1.05-.12l.02.12h0Z"/>
      </g>
      <g class="cls-4">
        <path class="cls-6" d="M5.75,208.69c.62,2.61.67,5.35.14,8.05-.17.76-.38,1.72-1.03,2.42-.5,1.61.13,3.4-.3,5.08,0,0-.12-.02-.12-.02-.45-1.82-1.93-4.47-.27-6.17,1.04-1.44,1.25-3.61,1.46-5.39.13-1.31.15-2.63,0-3.95l.12-.02h0Z"/>
      </g>
      <g class="cls-4">
        <path class="cls-6" d="M37.2,224.19c1.19-2.47.53-5.53,2.32-7.76,0,0,.12.03.12.03.38,1.45.05,2.78-.52,4.09-.52,1.29-.89,2.67-1.84,3.73,0,0-.09-.09-.09-.09h0Z"/>
      </g>
      <g class="cls-4">
        <path class="cls-6" d="M27.05,217.86c-2.38,1.47-4.09,3.65-6.72,4.67,0,0-.1-.08-.1-.08.45-1.48,1.66-2.35,2.96-2.97,1.23-.68,2.49-1.26,3.79-1.73l.06.11h0Z"/>
      </g>
      <g class="cls-4">
        <path class="cls-6" d="M17.17,217.85c-1.94,2.06-2.81,4.82-5,6.41,0,0-.11-.06-.11-.06.05-1.52.87-2.7,1.92-3.69.95-1.02,1.98-1.96,3.11-2.75l.08.09h0Z"/>
      </g>
      <g class="cls-4">
        <path class="cls-6" d="M51.79,215.85c1.8,3.64,5.65,5.43,8.34,8.33,0,0-.05.11-.05.11-2.14-.28-3.81-1.7-5.15-3.26-1.34-1.52-2.78-3.13-3.26-5.15,0,0,.12-.03.12-.03h0Z"/>
      </g>
      <g class="cls-4">
        <path class="cls-6" d="M63.1,220.99c.67-1.9,1.41-3.77,2.15-5.65.67-1.93,1.49-3.77,2.95-5.28,0,0,.11.06.11.06-.23,2.09-1.09,3.88-2.15,5.64-.95,1.77-1.92,3.53-2.94,5.28,0,0-.11-.05-.11-.05h0Z"/>
      </g>
      <g class="cls-4">
        <path class="cls-6" d="M70.98,207.05c-.22,3.06.87,6.03,1.79,8.91.9,2.83,2.9,6.19,1.12,9.09,0,0-.11-.06-.11-.06.34-3.07-1.5-5.75-1.96-8.75-.72-2.99-1.53-6.13-.95-9.22,0,0,.12.02.12.02h0Z"/>
      </g>
      <g class="cls-4">
        <path class="cls-6" d="M34.08,210.03c.18-.26.39-.47.59-.66.1-.09.17-.29.33-.24.12.02.49.22.59.53-.01.37-.09.54-.19.66-.09.13-.27.02-.41,0-.21-.05-.88-.03-.91-.28h0Z"/>
      </g>
      <g class="cls-4">
        <path class="cls-6" d="M37.25,208.64c.26-.19.51-.32.77-.44.13-.05.26-.22.38-.12.13.08.26.22.38.56,0,.32-.28.63-.38.69-.13.09-.26-.07-.38-.12-.18-.11-.82-.31-.77-.56h0Z"/>
      </g>
      <path class="cls-7" d="M146.97,87.86c.95,13.86-2.41,32.72,2.29,29.56s11.19-3.41,14.11-3.51-14.78-.92-13.21-7.9-3.19-18.15-3.19-18.15Z"/>
      <g>
        <path class="cls-7" d="M252.14,69.78c-2.03-4.7-7.05-7.16-7.05-7.16,0,0-.53-2.56-2.67-2.78-2.14-.21-5.13-5.02-7.91-3.53-2.78,1.5-1.92-2.24-5.02-1.92-3.1.32-9.94.11-11.33,1.18-1.39,1.07-2.89,1.07-5.02,1.39s-4.7,1.82-3.74,3.21c.96,1.39-1.92,1.92-1.18,4.06s3.21,2.99,3.21,2.99l.88,1.28c.26-.7.4-1.18.4-1.18,0,0,1.5,2.14,3.53,1.39,2.03-.75,3.31.32,2.56,2.03s.75,1.82,2.24,4.6c1.5,2.78.11,3.1.21,4.81.11,1.71,3.85,4.17,3.85,4.17,0,0,1.5-2.35,2.35-3.1.85-.75,2.35-.53,2.35-.53,0,0,2.46-2.89,5.56-1.6,3.1,1.28.85,5.66.85,5.66,0,0,1.71,2.24.64,3.53-1.07,1.28.21,3.53-.43,4.92-.64,1.39,1.82,5.34,4.49,5.45l-.06.52c2.65-3.09,5.57-6.66,5.51-7.36-.11-1.28,3.74-8.23,4.92-11.43,1.18-3.21,2.89-5.88.85-10.58Z"/>
        <path class="cls-1" d="M220.29,111.99c-1.07-1.18-3.53-2.24-3.21-4.7s-.53-4.38-3.74-4.38-6.63-2.35-6.41-4.92,1.71-2.67.32-3.53-.64-2.24-.64-2.24c0,0-.75-.85-.64-1.5s.53-3.31.53-3.31c0,0-3.21-1.18-3.21-2.89s6.73-4.49,5.77-6.52,0-3.74,1.39-5.77,2.24-4.92,2.24-4.92c0,0,1.5,2.14,3.53,1.39,2.03-.75,3.31.32,2.56,2.03s.75,1.82,2.24,4.6c1.5,2.78.11,3.1.21,4.81s3.85,4.17,3.85,4.17c0,0,1.5-2.35,2.35-3.1s2.35-.53,2.35-.53c0,0,2.46-2.89,5.56-1.6,3.1,1.28.85,5.66.85,5.66,0,0,1.71,2.24.64,3.53s.21,3.53-.43,4.92,1.82,5.34,4.49,5.45l-.53,4.38"/>
        <g class="cls-4">
          <path class="cls-6" d="M220.24,112.03c-1.21-1.18-3.16-2.12-3.32-4.04.05-1.63.25-3.69-1.54-4.45-1.06-.51-2.25-.25-3.41-.47-2.37-.46-4.98-1.89-5.42-4.52-.15-1.18.4-2.44.85-3.41-.32-.31-.84-.52-1.13-.98-.44-.65-.42-1.47-.09-2.17,0,0,.06.55.06.55-.46-.5-.95-1.41-.75-2.11,0,0,.09-.62.09-.62l.36-2.48.36.62c-1.06-.42-2.05-.89-2.93-1.79-2.84-3.21,4-5.15,5.12-7.44.1-.21.11-.32.05-.48-.33-.75-.47-1.61-.35-2.42.18-1.19.81-2.15,1.41-3.03,1.3-1.66,2.24-3.5,3.02-5.48,0,0,.12.04.12.04-.48,2.05-1.29,4.11-2.47,5.87-.85,1.43-1.53,3.02-.72,4.55.23.44.19,1.05,0,1.43-1.07,2.01-3.24,2.96-4.83,4.4-.36.3-.74.7-.79.91.09,1.19,1.71,1.9,2.76,2.4,0,0,.44.18.44.18l-.08.44c-.08.64-.61,3-.58,3.51.08.37.43.83.7,1.15-.44.71-.43,1.52.36,1.96.35.24.72.51.73,1.04-.07.54-.28.73-.39.99-1.02,1.78-.56,3.74,1.15,4.95.89.68,1.95,1.15,3.05,1.38,1.13.24,2.42.05,3.51.63,1.18.53,1.76,1.88,1.73,3.11-.05,1.19-.32,2.32.49,3.31.67.94,1.71,1.56,2.52,2.43,0,0-.09.08-.09.08h0Z"/>
        </g>
        <g class="cls-4">
          <path class="cls-6" d="M229.75,80.64c1.86-2.65,4.62-2.35,6.34.27,1.33,2.39.01,5.2-.86,7.5-1,3.21-5.42,4.78-7.81,2.14,0,0,.08-.1.08-.1,4.34,2.06,6.57-1.67,7.81-5.2.41-1.28.83-2.74.19-3.96-.69-1.12-1.84-2.34-3.27-2.09-.91.16-1.72.79-2.37,1.51,0,0-.1-.08-.1-.08h0Z"/>
        </g>
        <g class="cls-3">
          <path class="cls-6" d="M230.72,82.02c1.69-2.58,5.1.58,2.99,2.62,0,0-.12-.03-.12-.03-.43-.91-.44-1.57-.72-2.38-.43-.76-1.4-.59-2.06-.12,0,0-.09-.09-.09-.09h0Z"/>
        </g>
        <g class="cls-3">
          <path class="cls-6" d="M230.6,82.88c.28.33,1.19.76.85,1.29-.67.5-1.11,1.18-1.28,2-.22.73.22,1.73-.69,2.16.57-.23.41-1.15-.19-1.15.35.07,1.01-.41,1.42-.66,0,0,.11.06.11.06-.02.37-.13.75-.35,1.08-.25.54-1.65,1.32-1.89.18-.02-.4.18-.58.47-.71,0-.01-.13.05-.17.1-.16.17-.09.16-.1.11.27-1.35.91-2.89,2.26-3.46.1-.05.02,0,.05.06-.11-.31-.41-.65-.59-.97,0,0,.09-.08.09-.08h0Z"/>
        </g>
        <path class="cls-2" d="M215.05,75.55c-1.71-.32-4.17-.75-5.45.32"/>
        <polyline class="cls-2" points="211.53 77.15 214.52 79.29 212.28 79.29"/>
        <path class="cls-2" d="M209.39,92.33s-1.82-.32-2.78-.11"/>
        <path class="cls-2" d="M206.08,86.23c-.32-.96-1.5-.64-1.5-.64"/>
        <path class="cls-2" d="M209.07,83.88c0,1.6-.43,4.06-1.92,3.63"/>
        <path class="cls-2" d="M226.92,96.6c-.32,2.03-4.7,4.7-4.7,4.7"/>
        <g class="cls-3">
          <path class="cls-6" d="M221.34,68.86c2.5-1.02,6.4-.48,7.44,2.37,0,0-.09.08-.09.08-1.97-.56-3.29-2.06-5.33-2.31-.64-.14-1.3-.08-1.98-.03l-.03-.12h0Z"/>
        </g>
        <g class="cls-3">
          <path class="cls-6" d="M219.63,67.05c4.94-2.62,11.41-.93,14.59,3.65,0,0-.08.1-.08.1-3.53-1.58-6.55-4.53-10.61-4.32-1.29.01-2.58.34-3.86.69l-.04-.12h0Z"/>
        </g>
        <g class="cls-3">
          <path class="cls-6" d="M215.77,67.05c5.5-3.91,11.71-6.06,16.95-.42,0,0-.07.1-.07.1-4.07-1.8-8.38-3.62-12.68-1.48-1.4.55-2.77,1.23-4.14,1.91l-.06-.11h0Z"/>
        </g>
        <g class="cls-3">
          <path class="cls-6" d="M211.38,66.53c2.49-2.66,6.04-4.36,9.62-4.94,1.22-.11,2.46-.11,3.68.22v.12c-3.41,1.11-6.98,1.18-10.2,2.81-1.08.49-2.05,1.15-3.01,1.88l-.09-.09h0Z"/>
        </g>
        <g class="cls-3">
          <path class="cls-6" d="M208.62,63.95c2.17-1.19,4.45-2.19,6.79-3.03,2.33-.93,4.79-1.56,7.33-1.25,0,0,.02.12.02.12-2.3,1.03-4.63,1.57-7.06,2.09-2.37.6-4.71,1.34-7.03,2.18l-.05-.11h0Z"/>
        </g>
        <g class="cls-3">
          <path class="cls-6" d="M218.99,61.49c3.35-1.16,6.72-2.32,10.32-2.51.83.04,1.56.74,2.08,1.33.94,1.12,1.68,2.33,2.2,3.67,0,0-.1.07-.1.07-1.34-1.15-2.42-2.43-3.72-3.5-.22-.17-.32-.29-.6-.33-3.36-.17-6.85.74-10.15,1.4,0,0-.04-.12-.04-.12h0Z"/>
        </g>
        <g class="cls-3">
          <path class="cls-6" d="M234.76,58.62c1.43,1.31,2.75,2.89,3.59,4.64.21.63.35,1.28.27,2.01,0,0-.12.04-.12.04-1.07-.9-1.59-1.99-2.04-3.24-.52-1.15-1.11-2.27-1.8-3.36l.09-.08h0Z"/>
        </g>
        <g class="cls-3">
          <path class="cls-6" d="M239.48,58.96c1.08,1.94,1.86,4.04,2.55,6.16.77,2.11,1.28,4.3.98,6.58,0,0-.12.02-.12.02-1.04-2.02-1.47-4.14-1.83-6.34-.45-2.14-.97-4.27-1.69-6.36l.11-.05h0Z"/>
        </g>
        <g class="cls-3">
          <path class="cls-6" d="M231.08,56.16c-2.98-.11-5.95,1.15-8.86.11,0,0,0-.13,0-.13,1.41-.76,2.9-.82,4.43-.64,1.49.09,2.99.18,4.46.53l-.02.12h0Z"/>
        </g>
        <path class="cls-7" d="M244.57,64.01c7.99,6.56,8.89,5.57,5.96,13.14s-6.41,18.74-9.35,19.45-4.09-1.96-2.62-5.82,3.77-8.86.85-11.49.73-6.57,3.53-3.42c2.8,3.15,3.13-3.91,2.04-7.44s-2.73-6.32-.42-4.42Z"/>
      </g>
      <g>
        <path class="cls-1" d="M245.72,107.82s-2.99-5.45-4.6-6.63-16.35,1.6-23.4,13.04l5.02,8.12"/>
        <path class="cls-1" d="M266.03,220.35s3.21-64.76,1.28-77.58-13.46-24.79-16.03-28.64c-2.56-3.85,2.99-4.27-.43-7.69s-16.88,4.49-19.45,6.41-11.33,7.91-15.82,16.67c-4.49,8.76-7.48,11.97-9.83,23.94-2.35,11.97-1.71,22.66-5.77,35.48-4.06,12.82,29.09-42.17,33.56-36.21,17.67,23.6-14.11,53.17-.85,46.99,9.99-4.66,12.31,24.05,18.06,14.22,4.2-7.18-.96,15.71,3.53,8.98,4.49-6.73,11.76,12.18,11.76-2.56"/>
        <path class="cls-7" d="M248.93,107.08c3.08,2.04-5.05,4.2,0,9.41s-3.01,1.34-8.23-1.51-10.39-3.2-9.94,7.37-7.21,22.04-8.55,20.95,6.42-12.53,6.99-18.07-2.53-10.35,4.57-13.24c7.1-2.89,13.63-5.92,15.16-4.91Z"/>
        <path class="cls-7" d="M237.18,103.22c4.85-.21,8.64,1.15,4.03,2.37s-11,5.11-15.69,9.4-3.93-3.07,1.93-6.07,5.31-5.5,9.73-5.69Z"/>
      </g>
      <g>
        <g class="cls-4">
          <path class="cls-6" d="M231.68,131.67c-2.27,7.42-3.51,15.12-4.51,22.8-.55,5.7-1.73,11.61.3,17.12,1.78,3.87-.55,7.95-2.28,11.36-6.31,12.17-6.65,26.08-6.75,39.53,0,0-.13,0-.13,0-1.06-13.51-.85-27.89,5.88-40.05,1.7-3.3,4.03-6.81,2.41-10.56-1.99-5.62-.72-11.76-.05-17.48.56-3.85,1.25-7.68,2.05-11.48.81-3.8,1.72-7.59,2.97-11.28,0,0,.12.04.12.04h0Z"/>
        </g>
        <g class="cls-3">
          <path class="cls-6" d="M220.29,215.92c-3.26.27-6.8.22-9.77-1.32-.96-.61-1.85-1.47-2.25-2.55,0,0,.1-.08.1-.08,2.7,1.73,5.53,2.97,8.71,3.45,1.06.19,2.13.31,3.21.37,0,0,0,.13,0,.12h0Z"/>
        </g>
        <g class="cls-4">
          <path class="cls-6" d="M264.38,139.35c-.27,15.14-.69,30.37-1.53,45.45-.76,2.66-3.08,4.47-4.15,6.93-4.35,9.69-6.58,20.2-9.71,30.34,0,0-.12-.03-.12-.03,1.31-7.01,2.99-13.93,4.95-20.8,1.05-3.4,2.06-6.86,3.79-10.09,1.11-2.43,3.39-4.15,4.22-6.63.23-.79.25-1.63.28-2.51.23-7.15.77-14.23,1.13-21.34.54-7.02.54-14.54,1.14-21.32h0Z"/>
        </g>
        <g class="cls-4">
          <path class="cls-6" d="M265.97,220.35c.9-21.74,1.77-43.5,1.63-65.25-.08-4.07-.13-8.14-.62-12.17-1.56-9.42-7.32-17.45-13.15-24.78-1.42-2.17-4.76-4.54-3.31-7.45.34-.66.78-1.19.94-1.72.32-.8-.38-1.64-.95-2.22-.67-.61-1.59-.71-2.51-.69-2.59.17-5.15,1.21-7.59,2.29-4.92,2.2-9.47,5.22-13.57,8.71-4.11,3.47-7.86,7.47-10.39,12.17-2.45,4.86-5.46,9.46-7.36,14.47-3.85,10.18-4.09,21.22-5.65,31.92-.72,5.4-2.17,10.75-3.79,15.92-2.68,10.51-3.77,21.41-4.51,32.23,0,0-.12,0-.12,0,.43-10.87,1.27-21.78,3.87-32.43,1.56-5.24,2.9-10.43,3.55-15.85,1.38-10.78,1.56-21.91,5.51-32.23,1.97-5.15,4.95-9.72,7.43-14.61,2.68-4.89,6.55-8.94,10.76-12.44,4.21-3.52,8.85-6.55,13.88-8.76,2.55-1.1,5.14-2.16,7.97-2.33,1.94-.19,3.87.95,4.43,2.89.32,1.16-.62,2.29-1.07,3.11-.66,1.18-.06,2.28.69,3.29.79,1.08,1.64,2.14,2.48,3.21,5.86,7.45,11.64,15.62,13.16,25.21.47,4.08.5,8.18.56,12.27-.15,21.69-.84,43.86-2.25,65.26h0Z"/>
        </g>
        <g class="cls-4">
          <path class="cls-6" d="M228.26,123.66c-1.5,4.44-3.22,8.81-5.34,13.01-1.38,2.59-2.8,5.29-4.96,7.36-.55.5-1.4,1.09-2.27,1.01-.49-.05-.96-.09-1.44-.31-.86-.28-1.25-1.38-.68-2.15,0,0,.35-.58.35-.58.36.44.77,1.13,1.48.94.88-.18,1.72-1.07,2.25-1.81,1.51-2.35,2.76-4.86,4.09-7.34,1.87-3.52,4.48-8.55,6.39-12,0,0,.11.05.11.05-1.59,4.26-3.44,8.4-5.4,12.51-1.44,2.79-2.79,5.74-4.83,8.19-1.06,1.18-3.26,2.31-4.46.61,0,0,.84.02.84.02-.16.32-.18.47.25.69.39.17.99.29,1.43.25.97-.21,1.82-1.18,2.49-1.93,1.47-1.75,2.67-3.77,3.8-5.8,2.24-4.08,4.12-8.38,5.77-12.76l.12.04h0Z"/>
        </g>
        <g class="cls-4">
          <path class="cls-6" d="M228.15,123.07c1.83-2.88,2.33-6.36,3.47-9.53.19-.53.4-1.1.84-1.53,2.94-2.62,7.07-3.72,9.96-6.31.18-.19.26-.31.32-.57.2-.84-.04-.94-1.07-.73-.29.06-.43.05-.71.21-1.72.92-3.36,2.04-4.98,3.14-1.84,1.29-3.7,2.6-5.34,4.08-.91.77-1.47,1.87-2.51,2.42-3.11,1.46-5.62,3.36-7.42,6.34,0,0,.05-.62.05-.62.21.43.51.95.79,1.13-.02,0-.1,0-.1,0,.09-.07.31-.28.48-.46,2.3-2.35,4.15-5.11,7.05-6.85,4.33-1.31-2.23,7.91-2.23,9.28.02,1.24.92.68,1.38,0h0ZM228.25,123.14c-1.03,1.62-2.16.61-1.5-.91.89-1.95,1.85-3.89,2.55-5.92.31-.89.68-2.49.09-1.74-.78.48-1.54,1.3-2.26,2.06-1.72,1.8-3.08,3.82-4.95,5.52-1.19.79-2.22-.82-2.59-1.68,0,0-.15-.31-.15-.31,0,0,.2-.3.2-.3,1.29-1.92,2.87-3.75,4.91-4.99,1.41-.96,3.11-1.25,4.15-2.52,2.77-2.98,6.31-4.99,9.67-7.17,1.29-.74,2.51-1.69,4.1-1.61.96,0,1.21.98.96,1.72-.51,1.48-2.24,2.1-3.4,2.83-2.46,1.38-5.17,2.35-7.35,4.12-.4.35-.61.87-.82,1.39-1.26,3.15-1.8,6.6-3.62,9.51h0Z"/>
        </g>
        <g class="cls-4">
          <path class="cls-6" d="M220.77,120.89c-2.15,3.95-4.21,7.96-6.01,12.07-.85,2.22-2.18,4.58-2.1,6.97.04.14.07.17.14.24,1.52.75,3.22,1.25,4.88,1.48,0,0,.89.12.89.12-.46.52-1.36,1.53-1.83,2.06-2.19-.44-6.93-1-6.24-4.2.97-4.92,3.14-9.32,5.62-13.6,1.28-2.08,2.71-4.12,4.55-5.75-2.62,3.76-5.08,8.27-6.75,12.76-.89,2.42-2.04,4.97-2.28,7.52-.02.07.12.28.25.43,1.23,1.08,3.12,1.47,4.72,1.82,0,0-.44.16-.44.16s1.08-1.16,1.08-1.16c0,0,.29.79.29.79-1.81-.3-3.52-.86-5.13-1.7-.27-.15-.5-.5-.54-.78-.12-2.67,1.35-5.03,2.34-7.4,1.96-4.07,4.16-8,6.44-11.88l.11.06h0Z"/>
        </g>
        <g class="cls-4">
          <path class="cls-6" d="M245.67,107.85c-1.36-2.2-2.65-4.56-4.54-6.35-.24-.23-.54-.24-.92-.28-8.83.56-17.11,6.07-22,13.31,0,0,0-.6,0-.6,1.6,2.75,3.16,5.53,4.59,8.39,0,0-.11.07-.11.07-1.98-2.64-3.83-5.37-5.64-8.13,1.55-2.82,3.76-5.25,6.3-7.18,3.67-2.78,7.87-4.79,12.33-5.86,1.67-.35,3.43-.76,5.17-.4,1.26.57,1.88,1.99,2.67,3.05.81,1.28,1.55,2.59,2.26,3.92l-.11.06h0Z"/>
        </g>
        <g class="cls-4">
          <path class="cls-6" d="M219.37,115.03c-1.26,1.31-2.01,3.05-2.74,4.69-2.18,5.02-3.12,10.42-3.22,15.87,0,0-.12.03-.12.03-2.01-5.44.38-11.27,2.78-16.17.9-1.61,1.81-3.29,3.23-4.52,0,0,.08.1.08.1h0Z"/>
        </g>
      </g>
      <path class="cls-7" d="M261.04,139.35c3.75,4.36,1.18,10.09,0,17.65s-.34,23.19-1.51,26.22-9.43,19.5-10.6,25.88-5.05-3.53,0-12.94-16.92.34-5.77-9.75c11.15-10.08,19.19-12.32,8.32-16.64s10.57.67,4.35-22.35c-1.23-4.57,2.03-11.77,5.21-8.07Z"/>
      <path class="cls-7" d="M265.58,144.59c.41,1.61.5,29.05,0,48.88-.5,19.83-.84,32.32-3.53,29.02s-3.36-5.15-7.06-1.79-.62-17.14,3.92-26.39,5.41-2.35,5.41-22.52c0-17.14,1.04-28.06,1.26-27.2Z"/>
    </g>
  </g>
</svg>